solid OpenSCAD_Model
  facet normal -0.994522 -0.104528 0
    outer loop
      vertex 0.131114 -26.2475 0
      vertex 0 -25 80.2
      vertex 0 -25 0
    endloop
  endfacet
  facet normal -0.994522 -0.104528 0
    outer loop
      vertex 0 -25 80.2
      vertex 0.131114 -26.2475 0
      vertex 0.131114 -26.2475 80.2
    endloop
  endfacet
  facet normal -1 0 0
    outer loop
      vertex 0 7 0
      vertex 0 0 4
      vertex 0 7 4
    endloop
  endfacet
  facet normal -1 -0 0
    outer loop
      vertex 0 0 4
      vertex 0 -25 0
      vertex 0 0 76.2
    endloop
  endfacet
  facet normal -1 0 0
    outer loop
      vertex 0 -25 0
      vertex 0 0 4
      vertex 0 7 0
    endloop
  endfacet
  facet normal -1 -0 0
    outer loop
      vertex 0 9.48904 77.9909
      vertex 0 9.40211 77.582
      vertex 0 9.48904 78.2029
    endloop
  endfacet
  facet normal -1 0 0
    outer loop
      vertex 0 9.48904 78.2029
      vertex 0 11.3117 84.9615
      vertex 0 9.5 78.2
    endloop
  endfacet
  facet normal -1 0 0
    outer loop
      vertex 0 9.23205 77.2
      vertex 0 9.48904 78.2029
      vertex 0 9.40211 77.582
    endloop
  endfacet
  facet normal -1 0 0
    outer loop
      vertex 0 8.98629 76.8617
      vertex 0 9.48904 78.2029
      vertex 0 9.23205 77.2
    endloop
  endfacet
  facet normal -1 0 0
    outer loop
      vertex 0 7 76.2711
      vertex 0 9.48904 78.2029
      vertex 0 8.98629 76.8617
    endloop
  endfacet
  facet normal -1 0 0
    outer loop
      vertex 0 7 76.2711
      vertex 0 8.98629 76.8617
      vertex 0 8.67557 76.582
    endloop
  endfacet
  facet normal -1 0 0
    outer loop
      vertex 0 7 76.2711
      vertex 0 8.67557 76.582
      vertex 0 8.31347 76.3729
    endloop
  endfacet
  facet normal -1 0 0
    outer loop
      vertex 0 7 76.2711
      vertex 0 8.31347 76.3729
      vertex 0 7.91582 76.2437
    endloop
  endfacet
  facet normal -1 0 0
    outer loop
      vertex 0 7 76.2711
      vertex 0 7.91582 76.2437
      vertex 0 7.5 76.2
    endloop
  endfacet
  facet normal -1 0 0
    outer loop
      vertex 0 9.48904 78.2029
      vertex 0 5.89479 80.2
      vertex 0 11.3117 84.9615
    endloop
  endfacet
  facet normal -1 0 0
    outer loop
      vertex 0 7 76.2711
      vertex 0 7.5 76.2
      vertex 0 7.08418 76.2437
    endloop
  endfacet
  facet normal -1 -0 0
    outer loop
      vertex 0 9.48904 78.2029
      vertex 0 7 76.2711
      vertex 0 5.89479 80.2
    endloop
  endfacet
  facet normal -1 -0 0
    outer loop
      vertex 0 11.3117 84.9615
      vertex 0 5.89479 80.2
      vertex 0 7.44803 85.9968
    endloop
  endfacet
  facet normal -1 0 0
    outer loop
      vertex 0 0 76.2
      vertex 0 7 76.2711
      vertex 0 7 76.2
    endloop
  endfacet
  facet normal -1 -0 0
    outer loop
      vertex 0 7 76.2711
      vertex 0 0 76.2
      vertex 0 5.89479 80.2
    endloop
  endfacet
  facet normal -1 0 0
    outer loop
      vertex 0 0 76.2
      vertex 0 -25 80.2
      vertex 0 5.89479 80.2
    endloop
  endfacet
  facet normal -1 0 0
    outer loop
      vertex 0 -25 80.2
      vertex 0 0 76.2
      vertex 0 -25 0
    endloop
  endfacet
  facet normal 0 0 -1
    outer loop
      vertex 26.9 -31 0
      vertex 25.4 -31 0
      vertex 26.9 -30.9671 0
    endloop
  endfacet
  facet normal 0 0 -1
    outer loop
      vertex 99.2272 -30.9671 0
      vertex 104.6 -25 0
      vertex 100.454 -30.7063 0
    endloop
  endfacet
  facet normal -0 0 -1
    outer loop
      vertex 104.6 -25 0
      vertex 99.2272 -30.9671 0
      vertex 101.6 0 0
    endloop
  endfacet
  facet normal 0 0 -1
    outer loop
      vertex 26.9 -30.9671 0
      vertex 101.6 0 0
      vertex 99.2272 -30.9671 0
    endloop
  endfacet
  facet normal 0 0 -1
    outer loop
      vertex 25.4 -30.9671 0
      vertex 26.9 -30.9671 0
      vertex 25.4 -31 0
    endloop
  endfacet
  facet normal 0 0 -1
    outer loop
      vertex 3 0 0
      vertex 26.9 -30.9671 0
      vertex 25.4 -30.9671 0
    endloop
  endfacet
  facet normal 0 0 -1
    outer loop
      vertex 0 -25 0
      vertex 25.4 -30.9671 0
      vertex 5.37283 -30.9671 0
    endloop
  endfacet
  facet normal 0 0 -1
    outer loop
      vertex 0 -25 0
      vertex 5.37283 -30.9671 0
      vertex 4.1459 -30.7063 0
    endloop
  endfacet
  facet normal 0 0 -1
    outer loop
      vertex 26.9 -30.9671 0
      vertex 3 0 0
      vertex 101.6 0 0
    endloop
  endfacet
  facet normal 0 0 -1
    outer loop
      vertex 0 -25 0
      vertex 4.1459 -30.7063 0
      vertex 3 -30.1962 0
    endloop
  endfacet
  facet normal 0 0 -1
    outer loop
      vertex 25.4 -30.9671 0
      vertex 0 -25 0
      vertex 3 0 0
    endloop
  endfacet
  facet normal 0 0 -1
    outer loop
      vertex 0 -25 0
      vertex 3 -30.1962 0
      vertex 1.98522 -29.4589 0
    endloop
  endfacet
  facet normal 0 0 -1
    outer loop
      vertex 0 -25 0
      vertex 1.98522 -29.4589 0
      vertex 1.1459 -28.5267 0
    endloop
  endfacet
  facet normal 0 0 -1
    outer loop
      vertex 0 -25 0
      vertex 1.1459 -28.5267 0
      vertex 0.518726 -27.4404 0
    endloop
  endfacet
  facet normal 0 0 -1
    outer loop
      vertex 0 -25 0
      vertex 0.518726 -27.4404 0
      vertex 0.131114 -26.2475 0
    endloop
  endfacet
  facet normal 0 0 -1
    outer loop
      vertex 0 7 0
      vertex 3 0 0
      vertex 0 -25 0
    endloop
  endfacet
  facet normal 0 0 -1
    outer loop
      vertex 3 0 0
      vertex 0 7 0
      vertex 3 7 0
    endloop
  endfacet
  facet normal 0 0 -1
    outer loop
      vertex 101.6 -30.1962 0
      vertex 104.6 -25 0
      vertex 104.469 -26.2475 0
    endloop
  endfacet
  facet normal 0 0 -1
    outer loop
      vertex 101.6 -30.1962 0
      vertex 104.469 -26.2475 0
      vertex 104.081 -27.4404 0
    endloop
  endfacet
  facet normal 0 0 -1
    outer loop
      vertex 101.6 -30.1962 0
      vertex 104.081 -27.4404 0
      vertex 103.454 -28.5267 0
    endloop
  endfacet
  facet normal 0 0 -1
    outer loop
      vertex 101.6 -30.1962 0
      vertex 103.454 -28.5267 0
      vertex 102.615 -29.4589 0
    endloop
  endfacet
  facet normal 0 0 -1
    outer loop
      vertex 100.454 -30.7063 0
      vertex 104.6 -25 0
      vertex 101.6 -30.1962 0
    endloop
  endfacet
  facet normal 0 0 -1
    outer loop
      vertex 104.6 -25 0
      vertex 101.6 0 0
      vertex 104.6 7 0
    endloop
  endfacet
  facet normal -0 0 -1
    outer loop
      vertex 104.6 7 0
      vertex 101.6 0 0
      vertex 101.6 7 0
    endloop
  endfacet
  facet normal -0.207911 -0.978148 0
    outer loop
      vertex 4.1459 -30.7063 0
      vertex 5.37283 -30.9671 80.2
      vertex 4.1459 -30.7063 80.2
    endloop
  endfacet
  facet normal -0.207911 -0.978148 -0
    outer loop
      vertex 5.37283 -30.9671 80.2
      vertex 4.1459 -30.7063 0
      vertex 5.37283 -30.9671 0
    endloop
  endfacet
  facet normal 0.406739 -0.913545 0
    outer loop
      vertex 100.454 -30.7063 0
      vertex 101.6 -30.1962 80.2
      vertex 100.454 -30.7063 80.2
    endloop
  endfacet
  facet normal 0.406739 -0.913545 0
    outer loop
      vertex 101.6 -30.1962 80.2
      vertex 100.454 -30.7063 0
      vertex 101.6 -30.1962 0
    endloop
  endfacet
  facet normal 0 -1 0
    outer loop
      vertex 5.37283 -30.9671 0
      vertex 25.4 -30.9671 80.2
      vertex 5.37283 -30.9671 80.2
    endloop
  endfacet
  facet normal 0 -1 -0
    outer loop
      vertex 25.4 -30.9671 80.2
      vertex 5.37283 -30.9671 0
      vertex 25.4 -30.9671 0
    endloop
  endfacet
  facet normal 0 -1 0
    outer loop
      vertex 26.9 -30.9671 80.2
      vertex 35.4 -30.9671 6.5
      vertex 35.4 -30.9671 80.2
    endloop
  endfacet
  facet normal 0 -1 0
    outer loop
      vertex 99.2272 -30.9671 0
      vertex 35.4 -30.9671 6.5
      vertex 26.9 -30.9671 0
    endloop
  endfacet
  facet normal 0 -1 0
    outer loop
      vertex 26.9 -30.9671 0
      vertex 35.4 -30.9671 6.5
      vertex 26.9 -30.9671 80.2
    endloop
  endfacet
  facet normal 0 -1 0
    outer loop
      vertex 94.6 -30.9671 6.5
      vertex 99.2272 -30.9671 80.2
      vertex 94.6 -30.9671 80.2
    endloop
  endfacet
  facet normal 0 -1 0
    outer loop
      vertex 94.6 -30.9671 6.5
      vertex 99.2272 -30.9671 0
      vertex 99.2272 -30.9671 80.2
    endloop
  endfacet
  facet normal 0 -1 0
    outer loop
      vertex 35.4 -30.9671 6.5
      vertex 99.2272 -30.9671 0
      vertex 94.6 -30.9671 6.5
    endloop
  endfacet
  facet normal 0 1 -0
    outer loop
      vertex 101.6 0 0
      vertex 3 0 4
      vertex 101.6 0 4
    endloop
  endfacet
  facet normal 0 1 0
    outer loop
      vertex 3 0 4
      vertex 101.6 0 0
      vertex 3 0 0
    endloop
  endfacet
  facet normal 0 1 0
    outer loop
      vertex 101.6 0 4
      vertex 101.6 0 76.2
      vertex 104.6 0 76.2
    endloop
  endfacet
  facet normal 0 1 0
    outer loop
      vertex 101.6 0 76.2
      vertex 101.6 0 4
      vertex 3 0 76.2
    endloop
  endfacet
  facet normal 0 1 0
    outer loop
      vertex 101.6 0 4
      vertex 104.6 0 76.2
      vertex 104.6 0 4
    endloop
  endfacet
  facet normal 0 1 0
    outer loop
      vertex 3 0 4
      vertex 3 0 76.2
      vertex 101.6 0 4
    endloop
  endfacet
  facet normal 0 1 0
    outer loop
      vertex 3 0 76.2
      vertex 3 0 4
      vertex 0 0 76.2
    endloop
  endfacet
  facet normal 0 1 0
    outer loop
      vertex 0 0 76.2
      vertex 3 0 4
      vertex 0 0 4
    endloop
  endfacet
  facet normal 0 1 -0
    outer loop
      vertex 101.6 0 76.2
      vertex 3 0 80.2
      vertex 101.6 0 80.2
    endloop
  endfacet
  facet normal 0 1 0
    outer loop
      vertex 3 0 80.2
      vertex 101.6 0 76.2
      vertex 3 0 76.2
    endloop
  endfacet
  facet normal 1 0 0
    outer loop
      vertex 104.6 11.3117 84.9615
      vertex 104.6 9.48904 78.2029
      vertex 104.6 9.5 78.2
    endloop
  endfacet
  facet normal 1 0 0
    outer loop
      vertex 104.6 9.48904 78.2029
      vertex 104.6 9.40211 77.582
      vertex 104.6 9.48904 77.9909
    endloop
  endfacet
  facet normal 1 0 0
    outer loop
      vertex 104.6 9.48904 78.2029
      vertex 104.6 9.23205 77.2
      vertex 104.6 9.40211 77.582
    endloop
  endfacet
  facet normal 1 0 0
    outer loop
      vertex 104.6 9.48904 78.2029
      vertex 104.6 8.98629 76.8617
      vertex 104.6 9.23205 77.2
    endloop
  endfacet
  facet normal 1 -0 0
    outer loop
      vertex 104.6 5.89479 80.2
      vertex 104.6 9.48904 78.2029
      vertex 104.6 11.3117 84.9615
    endloop
  endfacet
  facet normal 1 0 -0
    outer loop
      vertex 104.6 7 76.2711
      vertex 104.6 9.48904 78.2029
      vertex 104.6 5.89479 80.2
    endloop
  endfacet
  facet normal 1 0 0
    outer loop
      vertex 104.6 9.48904 78.2029
      vertex 104.6 7 76.2711
      vertex 104.6 8.98629 76.8617
    endloop
  endfacet
  facet normal 1 0 0
    outer loop
      vertex 104.6 8.98629 76.8617
      vertex 104.6 7 76.2711
      vertex 104.6 8.67557 76.582
    endloop
  endfacet
  facet normal 1 0 0
    outer loop
      vertex 104.6 8.67557 76.582
      vertex 104.6 7 76.2711
      vertex 104.6 8.31347 76.3729
    endloop
  endfacet
  facet normal 1 0 0
    outer loop
      vertex 104.6 5.89479 80.2
      vertex 104.6 11.3117 84.9615
      vertex 104.6 7.44803 85.9968
    endloop
  endfacet
  facet normal 1 0 0
    outer loop
      vertex 104.6 8.31347 76.3729
      vertex 104.6 7 76.2711
      vertex 104.6 7.91582 76.2437
    endloop
  endfacet
  facet normal 1 0 0
    outer loop
      vertex 104.6 7.91582 76.2437
      vertex 104.6 7 76.2711
      vertex 104.6 7.5 76.2
    endloop
  endfacet
  facet normal 1 0 0
    outer loop
      vertex 104.6 7.5 76.2
      vertex 104.6 7 76.2711
      vertex 104.6 7.08418 76.2437
    endloop
  endfacet
  facet normal 1 0 0
    outer loop
      vertex 104.6 0 76.2
      vertex 104.6 7 76.2711
      vertex 104.6 5.89479 80.2
    endloop
  endfacet
  facet normal 1 0 0
    outer loop
      vertex 104.6 7 76.2711
      vertex 104.6 0 76.2
      vertex 104.6 7 76.2
    endloop
  endfacet
  facet normal 1 0 0
    outer loop
      vertex 104.6 0 76.2
      vertex 104.6 -25 80.2
      vertex 104.6 0 4
    endloop
  endfacet
  facet normal 1 -0 0
    outer loop
      vertex 104.6 -25 80.2
      vertex 104.6 0 76.2
      vertex 104.6 5.89479 80.2
    endloop
  endfacet
  facet normal 1 -0 0
    outer loop
      vertex 104.6 0 4
      vertex 104.6 7 0
      vertex 104.6 7 4
    endloop
  endfacet
  facet normal 1 0 0
    outer loop
      vertex 104.6 0 4
      vertex 104.6 -25 0
      vertex 104.6 7 0
    endloop
  endfacet
  facet normal 1 0 0
    outer loop
      vertex 104.6 -25 0
      vertex 104.6 0 4
      vertex 104.6 -25 80.2
    endloop
  endfacet
  facet normal -0.587785 -0.809017 0
    outer loop
      vertex 1.98522 -29.4589 0
      vertex 3 -30.1962 80.2
      vertex 1.98522 -29.4589 80.2
    endloop
  endfacet
  facet normal -0.587785 -0.809017 -0
    outer loop
      vertex 3 -30.1962 80.2
      vertex 1.98522 -29.4589 0
      vertex 3 -30.1962 0
    endloop
  endfacet
  facet normal -0.951057 -0.309017 0
    outer loop
      vertex 0.518726 -27.4404 0
      vertex 0.131114 -26.2475 80.2
      vertex 0.131114 -26.2475 0
    endloop
  endfacet
  facet normal -0.951057 -0.309017 0
    outer loop
      vertex 0.131114 -26.2475 80.2
      vertex 0.518726 -27.4404 0
      vertex 0.518726 -27.4404 80.2
    endloop
  endfacet
  facet normal -0 0 1
    outer loop
      vertex 0 5.89479 80.2
      vertex 3 0 80.2
      vertex 3 5.89479 80.2
    endloop
  endfacet
  facet normal 0 -0 1
    outer loop
      vertex 1.88904 -4.16969 80.2
      vertex 3 0 80.2
      vertex 0 5.89479 80.2
    endloop
  endfacet
  facet normal 0 0 1
    outer loop
      vertex 3 0 80.2
      vertex 2.35942 -3.35497 80.2
      vertex 2.98891 -2.65585 80.2
    endloop
  endfacet
  facet normal 0 0 1
    outer loop
      vertex 3 0 80.2
      vertex 1.88904 -4.16969 80.2
      vertex 2.35942 -3.35497 80.2
    endloop
  endfacet
  facet normal 0 0 1
    outer loop
      vertex 0 -25 80.2
      vertex 1.5 -25 80.2
      vertex 1.5 -6 80.2
    endloop
  endfacet
  facet normal 0 -0 1
    outer loop
      vertex 0.131114 -26.2475 80.2
      vertex 1.5 -25 80.2
      vertex 0 -25 80.2
    endloop
  endfacet
  facet normal 0 0 1
    outer loop
      vertex 1.5 -25 80.2
      vertex 0.518726 -27.4404 80.2
      vertex 1.1459 -28.5267 80.2
    endloop
  endfacet
  facet normal 0 0 1
    outer loop
      vertex 1.88904 -4.16969 80.2
      vertex 0 5.89479 80.2
      vertex 1.59834 -5.0644 80.2
    endloop
  endfacet
  facet normal 0 0 1
    outer loop
      vertex 0 5.89479 80.2
      vertex 1.5 -6 80.2
      vertex 1.59834 -5.0644 80.2
    endloop
  endfacet
  facet normal 0 0 1
    outer loop
      vertex 0 -25 80.2
      vertex 1.5 -6 80.2
      vertex 0 5.89479 80.2
    endloop
  endfacet
  facet normal 0 0 1
    outer loop
      vertex 1.5 -25 80.2
      vertex 0.131114 -26.2475 80.2
      vertex 0.518726 -27.4404 80.2
    endloop
  endfacet
  facet normal -0 0 1
    outer loop
      vertex 5.52962 -29.4753 80.2
      vertex 25.4 -30.9671 80.2
      vertex 25.4 -29.4753 80.2
    endloop
  endfacet
  facet normal 0 0 1
    outer loop
      vertex 5.52962 -29.4753 80.2
      vertex 5.37283 -30.9671 80.2
      vertex 25.4 -30.9671 80.2
    endloop
  endfacet
  facet normal 0 0 1
    outer loop
      vertex 4.60942 -29.2798 80.2
      vertex 5.37283 -30.9671 80.2
      vertex 5.52962 -29.4753 80.2
    endloop
  endfacet
  facet normal 0 0 1
    outer loop
      vertex 4.60942 -29.2798 80.2
      vertex 4.1459 -30.7063 80.2
      vertex 5.37283 -30.9671 80.2
    endloop
  endfacet
  facet normal 0 0 1
    outer loop
      vertex 3.75 -28.8971 80.2
      vertex 4.1459 -30.7063 80.2
      vertex 4.60942 -29.2798 80.2
    endloop
  endfacet
  facet normal 0 0 1
    outer loop
      vertex 3.75 -28.8971 80.2
      vertex 3 -30.1962 80.2
      vertex 4.1459 -30.7063 80.2
    endloop
  endfacet
  facet normal 0 0 1
    outer loop
      vertex 2.98891 -28.3442 80.2
      vertex 3 -30.1962 80.2
      vertex 3.75 -28.8971 80.2
    endloop
  endfacet
  facet normal 0 0 1
    outer loop
      vertex 1.98522 -29.4589 80.2
      vertex 2.98891 -28.3442 80.2
      vertex 2.35942 -27.645 80.2
    endloop
  endfacet
  facet normal 0 0 1
    outer loop
      vertex 2.98891 -28.3442 80.2
      vertex 1.98522 -29.4589 80.2
      vertex 3 -30.1962 80.2
    endloop
  endfacet
  facet normal 0 0 1
    outer loop
      vertex 1.1459 -28.5267 80.2
      vertex 2.35942 -27.645 80.2
      vertex 1.88904 -26.8303 80.2
    endloop
  endfacet
  facet normal 0 0 1
    outer loop
      vertex 1.1459 -28.5267 80.2
      vertex 1.88904 -26.8303 80.2
      vertex 1.59834 -25.9356 80.2
    endloop
  endfacet
  facet normal 0 0 1
    outer loop
      vertex 2.35942 -27.645 80.2
      vertex 1.1459 -28.5267 80.2
      vertex 1.98522 -29.4589 80.2
    endloop
  endfacet
  facet normal 0 0 1
    outer loop
      vertex 1.1459 -28.5267 80.2
      vertex 1.59834 -25.9356 80.2
      vertex 1.5 -25 80.2
    endloop
  endfacet
  facet normal -0 0 1
    outer loop
      vertex 103.1 -6 80.2
      vertex 104.6 -25 80.2
      vertex 104.6 5.89479 80.2
    endloop
  endfacet
  facet normal 0 0 1
    outer loop
      vertex 103.1 -25 80.2
      vertex 104.6 -25 80.2
      vertex 103.1 -6 80.2
    endloop
  endfacet
  facet normal 0 0 1
    outer loop
      vertex 104.6 -25 80.2
      vertex 103.1 -25 80.2
      vertex 104.469 -26.2475 80.2
    endloop
  endfacet
  facet normal -0 0 1
    outer loop
      vertex 103.002 -25.9356 80.2
      vertex 104.469 -26.2475 80.2
      vertex 103.1 -25 80.2
    endloop
  endfacet
  facet normal 0 0 1
    outer loop
      vertex 104.6 5.89479 80.2
      vertex 103.002 -5.0644 80.2
      vertex 103.1 -6 80.2
    endloop
  endfacet
  facet normal 0 0 1
    outer loop
      vertex 104.6 5.89479 80.2
      vertex 102.711 -4.16969 80.2
      vertex 103.002 -5.0644 80.2
    endloop
  endfacet
  facet normal -0 0 1
    outer loop
      vertex 101.6 0 80.2
      vertex 102.711 -4.16969 80.2
      vertex 104.6 5.89479 80.2
    endloop
  endfacet
  facet normal 0 0 1
    outer loop
      vertex 102.711 -4.16969 80.2
      vertex 101.6 0 80.2
      vertex 102.241 -3.35497 80.2
    endloop
  endfacet
  facet normal 0 0 1
    outer loop
      vertex 101.6 0 80.2
      vertex 104.6 5.89479 80.2
      vertex 101.6 5.89479 80.2
    endloop
  endfacet
  facet normal 0 0 1
    outer loop
      vertex 102.241 -3.35497 80.2
      vertex 101.6 0 80.2
      vertex 101.611 -2.65585 80.2
    endloop
  endfacet
  facet normal 0 0 1
    outer loop
      vertex 101.6 0 80.2
      vertex 100.85 -2.10289 80.2
      vertex 101.611 -2.65585 80.2
    endloop
  endfacet
  facet normal 0 0 1
    outer loop
      vertex 101.6 0 80.2
      vertex 99.9906 -1.72025 80.2
      vertex 100.85 -2.10289 80.2
    endloop
  endfacet
  facet normal 0 0 1
    outer loop
      vertex 101.6 0 80.2
      vertex 99.0704 -1.52465 80.2
      vertex 99.9906 -1.72025 80.2
    endloop
  endfacet
  facet normal 0 0 1
    outer loop
      vertex 101.6 0 80.2
      vertex 26.9 -1.52465 80.2
      vertex 99.0704 -1.52465 80.2
    endloop
  endfacet
  facet normal 0 0 1
    outer loop
      vertex 25.4 -29.4753 80.2
      vertex 26.9 -29.4753 80.2
      vertex 26.9 -1.52465 80.2
    endloop
  endfacet
  facet normal 0 0 1
    outer loop
      vertex 26.9 -29.4753 80.2
      vertex 25.4 -29.4753 80.2
      vertex 26.9 -30.9671 80.2
    endloop
  endfacet
  facet normal 0 0 1
    outer loop
      vertex 25.4 -29.4753 80.2
      vertex 26.9 -1.52465 80.2
      vertex 25.4 -1.52465 80.2
    endloop
  endfacet
  facet normal -0 0 1
    outer loop
      vertex 3 0 80.2
      vertex 26.9 -1.52465 80.2
      vertex 101.6 0 80.2
    endloop
  endfacet
  facet normal 0 0 1
    outer loop
      vertex 26.9 -1.52465 80.2
      vertex 3 0 80.2
      vertex 25.4 -1.52465 80.2
    endloop
  endfacet
  facet normal 0 0 1
    outer loop
      vertex 25.4 -1.52465 80.2
      vertex 3 0 80.2
      vertex 5.52962 -1.52465 80.2
    endloop
  endfacet
  facet normal 0 0 1
    outer loop
      vertex 3 0 80.2
      vertex 4.60942 -1.72025 80.2
      vertex 5.52962 -1.52465 80.2
    endloop
  endfacet
  facet normal 0 0 1
    outer loop
      vertex 3 0 80.2
      vertex 3.75 -2.10289 80.2
      vertex 4.60942 -1.72025 80.2
    endloop
  endfacet
  facet normal 0 0 1
    outer loop
      vertex 3.75 -2.10289 80.2
      vertex 3 0 80.2
      vertex 2.98891 -2.65585 80.2
    endloop
  endfacet
  facet normal 0 0 1
    outer loop
      vertex 104.469 -26.2475 80.2
      vertex 103.002 -25.9356 80.2
      vertex 104.081 -27.4404 80.2
    endloop
  endfacet
  facet normal -0 0 1
    outer loop
      vertex 102.711 -26.8303 80.2
      vertex 104.081 -27.4404 80.2
      vertex 103.002 -25.9356 80.2
    endloop
  endfacet
  facet normal 0 0 1
    outer loop
      vertex 104.081 -27.4404 80.2
      vertex 102.711 -26.8303 80.2
      vertex 103.454 -28.5267 80.2
    endloop
  endfacet
  facet normal -0 0 1
    outer loop
      vertex 102.241 -27.645 80.2
      vertex 103.454 -28.5267 80.2
      vertex 102.711 -26.8303 80.2
    endloop
  endfacet
  facet normal 0 0 1
    outer loop
      vertex 103.454 -28.5267 80.2
      vertex 102.241 -27.645 80.2
      vertex 102.615 -29.4589 80.2
    endloop
  endfacet
  facet normal -0 0 1
    outer loop
      vertex 101.611 -28.3442 80.2
      vertex 102.615 -29.4589 80.2
      vertex 102.241 -27.645 80.2
    endloop
  endfacet
  facet normal 0 0 1
    outer loop
      vertex 101.611 -28.3442 80.2
      vertex 101.6 -30.1962 80.2
      vertex 102.615 -29.4589 80.2
    endloop
  endfacet
  facet normal -0 0 1
    outer loop
      vertex 100.85 -28.8971 80.2
      vertex 101.6 -30.1962 80.2
      vertex 101.611 -28.3442 80.2
    endloop
  endfacet
  facet normal 0 0 1
    outer loop
      vertex 100.85 -28.8971 80.2
      vertex 100.454 -30.7063 80.2
      vertex 101.6 -30.1962 80.2
    endloop
  endfacet
  facet normal -0 0 1
    outer loop
      vertex 99.9906 -29.2798 80.2
      vertex 100.454 -30.7063 80.2
      vertex 100.85 -28.8971 80.2
    endloop
  endfacet
  facet normal 0 0 1
    outer loop
      vertex 99.9906 -29.2798 80.2
      vertex 99.2272 -30.9671 80.2
      vertex 100.454 -30.7063 80.2
    endloop
  endfacet
  facet normal -0 0 1
    outer loop
      vertex 99.0704 -29.4753 80.2
      vertex 99.2272 -30.9671 80.2
      vertex 99.9906 -29.2798 80.2
    endloop
  endfacet
  facet normal 0 0 1
    outer loop
      vertex 94.6 -30.9671 80.2
      vertex 99.0704 -29.4753 80.2
      vertex 94.6 -29.4753 80.2
    endloop
  endfacet
  facet normal 0 0 1
    outer loop
      vertex 99.0704 -29.4753 80.2
      vertex 94.6 -30.9671 80.2
      vertex 99.2272 -30.9671 80.2
    endloop
  endfacet
  facet normal -0 0 1
    outer loop
      vertex 26.9 -29.4753 80.2
      vertex 35.4 -30.9671 80.2
      vertex 35.4 -29.4753 80.2
    endloop
  endfacet
  facet normal 0 0 1
    outer loop
      vertex 35.4 -30.9671 80.2
      vertex 26.9 -29.4753 80.2
      vertex 26.9 -30.9671 80.2
    endloop
  endfacet
  facet normal 0 0 1
    outer loop
      vertex 25.4 -30.9671 80.2
      vertex 26.9 -30.9671 80.2
      vertex 25.4 -29.4753 80.2
    endloop
  endfacet
  facet normal 0 0 1
    outer loop
      vertex 26.9 -30.9671 80.2
      vertex 25.4 -30.9671 80.2
      vertex 26.9 -31 80.2
    endloop
  endfacet
  facet normal 0 0 1
    outer loop
      vertex 26.9 -31 80.2
      vertex 25.4 -30.9671 80.2
      vertex 25.4 -31 80.2
    endloop
  endfacet
  facet normal 0.207912 -0.978148 0
    outer loop
      vertex 99.2272 -30.9671 0
      vertex 100.454 -30.7063 80.2
      vertex 99.2272 -30.9671 80.2
    endloop
  endfacet
  facet normal 0.207912 -0.978148 0
    outer loop
      vertex 100.454 -30.7063 80.2
      vertex 99.2272 -30.9671 0
      vertex 100.454 -30.7063 0
    endloop
  endfacet
  facet normal 0.951055 -0.309022 0
    outer loop
      vertex 104.081 -27.4404 80.2
      vertex 104.469 -26.2475 0
      vertex 104.469 -26.2475 80.2
    endloop
  endfacet
  facet normal 0.951055 -0.309022 0
    outer loop
      vertex 104.469 -26.2475 0
      vertex 104.081 -27.4404 80.2
      vertex 104.081 -27.4404 0
    endloop
  endfacet
  facet normal 0.994522 -0.104526 0
    outer loop
      vertex 104.469 -26.2475 80.2
      vertex 104.6 -25 0
      vertex 104.6 -25 80.2
    endloop
  endfacet
  facet normal 0.994522 -0.104526 0
    outer loop
      vertex 104.6 -25 0
      vertex 104.469 -26.2475 80.2
      vertex 104.469 -26.2475 0
    endloop
  endfacet
  facet normal -0.406738 -0.913545 0
    outer loop
      vertex 3 -30.1962 0
      vertex 4.1459 -30.7063 80.2
      vertex 3 -30.1962 80.2
    endloop
  endfacet
  facet normal -0.406738 -0.913545 -0
    outer loop
      vertex 4.1459 -30.7063 80.2
      vertex 3 -30.1962 0
      vertex 4.1459 -30.7063 0
    endloop
  endfacet
  facet normal -0.866025 -0.5 0
    outer loop
      vertex 1.1459 -28.5267 0
      vertex 0.518726 -27.4404 80.2
      vertex 0.518726 -27.4404 0
    endloop
  endfacet
  facet normal -0.866025 -0.5 0
    outer loop
      vertex 0.518726 -27.4404 80.2
      vertex 1.1459 -28.5267 0
      vertex 1.1459 -28.5267 80.2
    endloop
  endfacet
  facet normal 0.866027 -0.499997 0
    outer loop
      vertex 103.454 -28.5267 80.2
      vertex 104.081 -27.4404 0
      vertex 104.081 -27.4404 80.2
    endloop
  endfacet
  facet normal 0.866027 -0.499997 0
    outer loop
      vertex 104.081 -27.4404 0
      vertex 103.454 -28.5267 80.2
      vertex 103.454 -28.5267 0
    endloop
  endfacet
  facet normal -0.743145 -0.669131 0
    outer loop
      vertex 1.98522 -29.4589 0
      vertex 1.1459 -28.5267 80.2
      vertex 1.1459 -28.5267 0
    endloop
  endfacet
  facet normal -0.743145 -0.669131 0
    outer loop
      vertex 1.1459 -28.5267 80.2
      vertex 1.98522 -29.4589 0
      vertex 1.98522 -29.4589 80.2
    endloop
  endfacet
  facet normal 0.587784 -0.809018 0
    outer loop
      vertex 101.6 -30.1962 0
      vertex 102.615 -29.4589 80.2
      vertex 101.6 -30.1962 80.2
    endloop
  endfacet
  facet normal 0.587784 -0.809018 0
    outer loop
      vertex 102.615 -29.4589 80.2
      vertex 101.6 -30.1962 0
      vertex 102.615 -29.4589 0
    endloop
  endfacet
  facet normal 0.743145 -0.66913 0
    outer loop
      vertex 102.615 -29.4589 80.2
      vertex 103.454 -28.5267 0
      vertex 103.454 -28.5267 80.2
    endloop
  endfacet
  facet normal 0.743145 -0.66913 0
    outer loop
      vertex 103.454 -28.5267 0
      vertex 102.615 -29.4589 80.2
      vertex 102.615 -29.4589 0
    endloop
  endfacet
  facet normal 0 0 1
    outer loop
      vertex 1.5 -6 1.5
      vertex 25.4 -1.52465 1.5
      vertex 5.52962 -1.52465 1.5
    endloop
  endfacet
  facet normal 0 0 1
    outer loop
      vertex 25.4 -1.52465 1.5
      vertex 1.5 -6 1.5
      vertex 25.4 -29.4753 1.5
    endloop
  endfacet
  facet normal 0 0 1
    outer loop
      vertex 1.5 -6 1.5
      vertex 5.52962 -1.52465 1.5
      vertex 4.60942 -1.72025 1.5
    endloop
  endfacet
  facet normal -0 0 1
    outer loop
      vertex 1.5 -25 1.5
      vertex 25.4 -29.4753 1.5
      vertex 1.5 -6 1.5
    endloop
  endfacet
  facet normal 0 0 1
    outer loop
      vertex 1.5 -6 1.5
      vertex 4.60942 -1.72025 1.5
      vertex 3.75 -2.10289 1.5
    endloop
  endfacet
  facet normal 0 0 1
    outer loop
      vertex 25.4 -29.4753 1.5
      vertex 1.5 -25 1.5
      vertex 5.52962 -29.4753 1.5
    endloop
  endfacet
  facet normal 0 0 1
    outer loop
      vertex 1.5 -6 1.5
      vertex 3.75 -2.10289 1.5
      vertex 2.98891 -2.65585 1.5
    endloop
  endfacet
  facet normal 0 0 1
    outer loop
      vertex 5.52962 -29.4753 1.5
      vertex 1.5 -25 1.5
      vertex 4.60942 -29.2798 1.5
    endloop
  endfacet
  facet normal 0 0 1
    outer loop
      vertex 1.5 -6 1.5
      vertex 2.98891 -2.65585 1.5
      vertex 2.35942 -3.35497 1.5
    endloop
  endfacet
  facet normal 0 0 1
    outer loop
      vertex 4.60942 -29.2798 1.5
      vertex 1.5 -25 1.5
      vertex 3.75 -28.8971 1.5
    endloop
  endfacet
  facet normal 0 0 1
    outer loop
      vertex 1.5 -6 1.5
      vertex 2.35942 -3.35497 1.5
      vertex 1.88904 -4.16969 1.5
    endloop
  endfacet
  facet normal 0 0 1
    outer loop
      vertex 3.75 -28.8971 1.5
      vertex 1.5 -25 1.5
      vertex 2.98891 -28.3442 1.5
    endloop
  endfacet
  facet normal 0 0 1
    outer loop
      vertex 1.5 -6 1.5
      vertex 1.88904 -4.16969 1.5
      vertex 1.59834 -5.0644 1.5
    endloop
  endfacet
  facet normal 0 0 1
    outer loop
      vertex 2.98891 -28.3442 1.5
      vertex 1.5 -25 1.5
      vertex 2.35942 -27.645 1.5
    endloop
  endfacet
  facet normal 0 0 1
    outer loop
      vertex 2.35942 -27.645 1.5
      vertex 1.5 -25 1.5
      vertex 1.88904 -26.8303 1.5
    endloop
  endfacet
  facet normal 0 0 1
    outer loop
      vertex 1.88904 -26.8303 1.5
      vertex 1.5 -25 1.5
      vertex 1.59834 -25.9356 1.5
    endloop
  endfacet
  facet normal 0 0 1
    outer loop
      vertex 99.0704 -1.52465 1.5
      vertex 103.1 -6 1.5
      vertex 103.002 -5.0644 1.5
    endloop
  endfacet
  facet normal 0 0 1
    outer loop
      vertex 103.1 -6 1.5
      vertex 99.0704 -1.52465 1.5
      vertex 103.1 -25 1.5
    endloop
  endfacet
  facet normal 0 0 1
    outer loop
      vertex 99.0704 -1.52465 1.5
      vertex 103.002 -5.0644 1.5
      vertex 102.711 -4.16969 1.5
    endloop
  endfacet
  facet normal 0 0 1
    outer loop
      vertex 99.0704 -29.4753 1.5
      vertex 103.1 -25 1.5
      vertex 99.0704 -1.52465 1.5
    endloop
  endfacet
  facet normal 0 0 1
    outer loop
      vertex 99.0704 -1.52465 1.5
      vertex 102.711 -4.16969 1.5
      vertex 102.241 -3.35497 1.5
    endloop
  endfacet
  facet normal 0 0 1
    outer loop
      vertex 103.1 -25 1.5
      vertex 99.0704 -29.4753 1.5
      vertex 103.002 -25.9356 1.5
    endloop
  endfacet
  facet normal 0 0 1
    outer loop
      vertex 99.0704 -1.52465 1.5
      vertex 102.241 -3.35497 1.5
      vertex 101.611 -2.65585 1.5
    endloop
  endfacet
  facet normal 0 0 1
    outer loop
      vertex 103.002 -25.9356 1.5
      vertex 99.0704 -29.4753 1.5
      vertex 102.711 -26.8303 1.5
    endloop
  endfacet
  facet normal 0 0 1
    outer loop
      vertex 99.0704 -1.52465 1.5
      vertex 101.611 -2.65585 1.5
      vertex 100.85 -2.10289 1.5
    endloop
  endfacet
  facet normal 0 0 1
    outer loop
      vertex 102.711 -26.8303 1.5
      vertex 99.0704 -29.4753 1.5
      vertex 102.241 -27.645 1.5
    endloop
  endfacet
  facet normal 0 0 1
    outer loop
      vertex 99.0704 -1.52465 1.5
      vertex 100.85 -2.10289 1.5
      vertex 99.9906 -1.72025 1.5
    endloop
  endfacet
  facet normal 0 0 1
    outer loop
      vertex 102.241 -27.645 1.5
      vertex 99.0704 -29.4753 1.5
      vertex 101.611 -28.3442 1.5
    endloop
  endfacet
  facet normal 0 0 1
    outer loop
      vertex 101.611 -28.3442 1.5
      vertex 99.0704 -29.4753 1.5
      vertex 100.85 -28.8971 1.5
    endloop
  endfacet
  facet normal 0 0 1
    outer loop
      vertex 100.85 -28.8971 1.5
      vertex 99.0704 -29.4753 1.5
      vertex 99.9906 -29.2798 1.5
    endloop
  endfacet
  facet normal -0 0 1
    outer loop
      vertex 26.9 -1.52465 1.5
      vertex 99.0704 -29.4753 1.5
      vertex 99.0704 -1.52465 1.5
    endloop
  endfacet
  facet normal 0 0 1
    outer loop
      vertex 99.0704 -29.4753 1.5
      vertex 26.9 -1.52465 1.5
      vertex 26.9 -29.4753 1.5
    endloop
  endfacet
  facet normal 1 -0 0
    outer loop
      vertex 1.5 -25 80.2
      vertex 1.5 -6 1.5
      vertex 1.5 -6 80.2
    endloop
  endfacet
  facet normal 1 0 0
    outer loop
      vertex 1.5 -6 1.5
      vertex 1.5 -25 80.2
      vertex 1.5 -25 1.5
    endloop
  endfacet
  facet normal 0 1 0
    outer loop
      vertex 99.0704 -29.4753 80.2
      vertex 94.6 -29.4753 6.5
      vertex 94.6 -29.4753 80.2
    endloop
  endfacet
  facet normal 0 1 0
    outer loop
      vertex 94.6 -29.4753 6.5
      vertex 99.0704 -29.4753 1.5
      vertex 35.4 -29.4753 6.5
    endloop
  endfacet
  facet normal 0 1 -0
    outer loop
      vertex 99.0704 -29.4753 1.5
      vertex 94.6 -29.4753 6.5
      vertex 99.0704 -29.4753 80.2
    endloop
  endfacet
  facet normal 0 1 -0
    outer loop
      vertex 35.4 -29.4753 6.5
      vertex 26.9 -29.4753 80.2
      vertex 35.4 -29.4753 80.2
    endloop
  endfacet
  facet normal 0 1 0
    outer loop
      vertex 35.4 -29.4753 6.5
      vertex 26.9 -29.4753 1.5
      vertex 26.9 -29.4753 80.2
    endloop
  endfacet
  facet normal 0 1 0
    outer loop
      vertex 26.9 -29.4753 1.5
      vertex 35.4 -29.4753 6.5
      vertex 99.0704 -29.4753 1.5
    endloop
  endfacet
  facet normal 0 1 -0
    outer loop
      vertex 25.4 -29.4753 1.5
      vertex 5.52962 -29.4753 80.2
      vertex 25.4 -29.4753 80.2
    endloop
  endfacet
  facet normal 0 1 0
    outer loop
      vertex 5.52962 -29.4753 80.2
      vertex 25.4 -29.4753 1.5
      vertex 5.52962 -29.4753 1.5
    endloop
  endfacet
  facet normal 0 -1 0
    outer loop
      vertex 5.52962 -1.52465 1.5
      vertex 25.4 -1.52465 80.2
      vertex 5.52962 -1.52465 80.2
    endloop
  endfacet
  facet normal 0 -1 -0
    outer loop
      vertex 25.4 -1.52465 80.2
      vertex 5.52962 -1.52465 1.5
      vertex 25.4 -1.52465 1.5
    endloop
  endfacet
  facet normal 0 -1 0
    outer loop
      vertex 26.9 -1.52465 1.5
      vertex 99.0704 -1.52465 80.2
      vertex 26.9 -1.52465 80.2
    endloop
  endfacet
  facet normal 0 -1 -0
    outer loop
      vertex 99.0704 -1.52465 80.2
      vertex 26.9 -1.52465 1.5
      vertex 99.0704 -1.52465 1.5
    endloop
  endfacet
  facet normal -0.994522 0.104528 0
    outer loop
      vertex 103.002 -25.9356 1.5
      vertex 103.1 -25 80.2
      vertex 103.1 -25 1.5
    endloop
  endfacet
  facet normal -0.994522 0.104528 0
    outer loop
      vertex 103.1 -25 80.2
      vertex 103.002 -25.9356 1.5
      vertex 103.002 -25.9356 80.2
    endloop
  endfacet
  facet normal 0.587785 0.809018 -0
    outer loop
      vertex 3.75 -28.8971 1.5
      vertex 2.98891 -28.3442 80.2
      vertex 3.75 -28.8971 80.2
    endloop
  endfacet
  facet normal 0.587785 0.809018 0
    outer loop
      vertex 2.98891 -28.3442 80.2
      vertex 3.75 -28.8971 1.5
      vertex 2.98891 -28.3442 1.5
    endloop
  endfacet
  facet normal 0.951056 0.309017 0
    outer loop
      vertex 1.88904 -26.8303 80.2
      vertex 1.59834 -25.9356 1.5
      vertex 1.59834 -25.9356 80.2
    endloop
  endfacet
  facet normal 0.951056 0.309017 0
    outer loop
      vertex 1.59834 -25.9356 1.5
      vertex 1.88904 -26.8303 80.2
      vertex 1.88904 -26.8303 1.5
    endloop
  endfacet
  facet normal 0.994522 0.104528 0
    outer loop
      vertex 1.59834 -25.9356 80.2
      vertex 1.5 -25 1.5
      vertex 1.5 -25 80.2
    endloop
  endfacet
  facet normal 0.994522 0.104528 0
    outer loop
      vertex 1.5 -25 1.5
      vertex 1.59834 -25.9356 80.2
      vertex 1.59834 -25.9356 1.5
    endloop
  endfacet
  facet normal 0.994522 -0.104528 0
    outer loop
      vertex 1.5 -6 80.2
      vertex 1.59834 -5.0644 1.5
      vertex 1.59834 -5.0644 80.2
    endloop
  endfacet
  facet normal 0.994522 -0.104528 0
    outer loop
      vertex 1.59834 -5.0644 1.5
      vertex 1.5 -6 80.2
      vertex 1.5 -6 1.5
    endloop
  endfacet
  facet normal 0.743145 -0.66913 0
    outer loop
      vertex 2.35942 -3.35497 80.2
      vertex 2.98891 -2.65585 1.5
      vertex 2.98891 -2.65585 80.2
    endloop
  endfacet
  facet normal 0.743145 -0.66913 0
    outer loop
      vertex 2.98891 -2.65585 1.5
      vertex 2.35942 -3.35497 80.2
      vertex 2.35942 -3.35497 1.5
    endloop
  endfacet
  facet normal -0.743142 -0.669133 0
    outer loop
      vertex 102.241 -3.35497 1.5
      vertex 101.611 -2.65585 80.2
      vertex 101.611 -2.65585 1.5
    endloop
  endfacet
  facet normal -0.743142 -0.669133 0
    outer loop
      vertex 101.611 -2.65585 80.2
      vertex 102.241 -3.35497 1.5
      vertex 102.241 -3.35497 80.2
    endloop
  endfacet
  facet normal -0.743142 0.669134 0
    outer loop
      vertex 101.611 -28.3442 1.5
      vertex 102.241 -27.645 80.2
      vertex 102.241 -27.645 1.5
    endloop
  endfacet
  facet normal -0.743142 0.669134 0
    outer loop
      vertex 102.241 -27.645 80.2
      vertex 101.611 -28.3442 1.5
      vertex 101.611 -28.3442 80.2
    endloop
  endfacet
  facet normal -0.951056 0.309018 0
    outer loop
      vertex 102.711 -26.8303 1.5
      vertex 103.002 -25.9356 80.2
      vertex 103.002 -25.9356 1.5
    endloop
  endfacet
  facet normal -0.951056 0.309018 0
    outer loop
      vertex 103.002 -25.9356 80.2
      vertex 102.711 -26.8303 1.5
      vertex 102.711 -26.8303 80.2
    endloop
  endfacet
  facet normal -1 0 0
    outer loop
      vertex 103.1 -25 1.5
      vertex 103.1 -6 80.2
      vertex 103.1 -6 1.5
    endloop
  endfacet
  facet normal -1 -0 0
    outer loop
      vertex 103.1 -6 80.2
      vertex 103.1 -25 1.5
      vertex 103.1 -25 80.2
    endloop
  endfacet
  facet normal -0.994522 -0.104528 0
    outer loop
      vertex 103.1 -6 1.5
      vertex 103.002 -5.0644 80.2
      vertex 103.002 -5.0644 1.5
    endloop
  endfacet
  facet normal -0.994522 -0.104528 0
    outer loop
      vertex 103.002 -5.0644 80.2
      vertex 103.1 -6 1.5
      vertex 103.1 -6 80.2
    endloop
  endfacet
  facet normal 0.406737 0.913545 -0
    outer loop
      vertex 4.60942 -29.2798 1.5
      vertex 3.75 -28.8971 80.2
      vertex 4.60942 -29.2798 80.2
    endloop
  endfacet
  facet normal 0.406737 0.913545 0
    outer loop
      vertex 3.75 -28.8971 80.2
      vertex 4.60942 -29.2798 1.5
      vertex 3.75 -28.8971 1.5
    endloop
  endfacet
  facet normal 0.866026 0.499999 0
    outer loop
      vertex 2.35942 -27.645 80.2
      vertex 1.88904 -26.8303 1.5
      vertex 1.88904 -26.8303 80.2
    endloop
  endfacet
  facet normal 0.866026 0.499999 0
    outer loop
      vertex 1.88904 -26.8303 1.5
      vertex 2.35942 -27.645 80.2
      vertex 2.35942 -27.645 1.5
    endloop
  endfacet
  facet normal 0.207912 -0.978147 0
    outer loop
      vertex 4.60942 -1.72025 1.5
      vertex 5.52962 -1.52465 80.2
      vertex 4.60942 -1.72025 80.2
    endloop
  endfacet
  facet normal 0.207912 -0.978147 0
    outer loop
      vertex 5.52962 -1.52465 80.2
      vertex 4.60942 -1.72025 1.5
      vertex 5.52962 -1.52465 1.5
    endloop
  endfacet
  facet normal 0.951057 -0.309017 0
    outer loop
      vertex 1.59834 -5.0644 80.2
      vertex 1.88904 -4.16969 1.5
      vertex 1.88904 -4.16969 80.2
    endloop
  endfacet
  facet normal 0.951057 -0.309017 0
    outer loop
      vertex 1.88904 -4.16969 1.5
      vertex 1.59834 -5.0644 80.2
      vertex 1.59834 -5.0644 1.5
    endloop
  endfacet
  facet normal 0.866025 -0.5 0
    outer loop
      vertex 1.88904 -4.16969 80.2
      vertex 2.35942 -3.35497 1.5
      vertex 2.35942 -3.35497 80.2
    endloop
  endfacet
  facet normal 0.866025 -0.5 0
    outer loop
      vertex 2.35942 -3.35497 1.5
      vertex 1.88904 -4.16969 80.2
      vertex 1.88904 -4.16969 1.5
    endloop
  endfacet
  facet normal -0.587786 -0.809016 0
    outer loop
      vertex 100.85 -2.10289 1.5
      vertex 101.611 -2.65585 80.2
      vertex 100.85 -2.10289 80.2
    endloop
  endfacet
  facet normal -0.587786 -0.809016 -0
    outer loop
      vertex 101.611 -2.65585 80.2
      vertex 100.85 -2.10289 1.5
      vertex 101.611 -2.65585 1.5
    endloop
  endfacet
  facet normal -0.406738 -0.913545 0
    outer loop
      vertex 99.9906 -1.72025 1.5
      vertex 100.85 -2.10289 80.2
      vertex 99.9906 -1.72025 80.2
    endloop
  endfacet
  facet normal -0.406738 -0.913545 -0
    outer loop
      vertex 100.85 -2.10289 80.2
      vertex 99.9906 -1.72025 1.5
      vertex 100.85 -2.10289 1.5
    endloop
  endfacet
  facet normal -0.866027 0.499997 0
    outer loop
      vertex 102.241 -27.645 1.5
      vertex 102.711 -26.8303 80.2
      vertex 102.711 -26.8303 1.5
    endloop
  endfacet
  facet normal -0.866027 0.499997 0
    outer loop
      vertex 102.711 -26.8303 80.2
      vertex 102.241 -27.645 1.5
      vertex 102.241 -27.645 80.2
    endloop
  endfacet
  facet normal -0.587786 0.809017 0
    outer loop
      vertex 101.611 -28.3442 1.5
      vertex 100.85 -28.8971 80.2
      vertex 101.611 -28.3442 80.2
    endloop
  endfacet
  facet normal -0.587786 0.809017 0
    outer loop
      vertex 100.85 -28.8971 80.2
      vertex 101.611 -28.3442 1.5
      vertex 100.85 -28.8971 1.5
    endloop
  endfacet
  facet normal -0.207911 0.978148 0
    outer loop
      vertex 99.9906 -29.2798 1.5
      vertex 99.0704 -29.4753 80.2
      vertex 99.9906 -29.2798 80.2
    endloop
  endfacet
  facet normal -0.207911 0.978148 0
    outer loop
      vertex 99.0704 -29.4753 80.2
      vertex 99.9906 -29.2798 1.5
      vertex 99.0704 -29.4753 1.5
    endloop
  endfacet
  facet normal 0.207912 0.978147 -0
    outer loop
      vertex 5.52962 -29.4753 1.5
      vertex 4.60942 -29.2798 80.2
      vertex 5.52962 -29.4753 80.2
    endloop
  endfacet
  facet normal 0.207912 0.978147 0
    outer loop
      vertex 4.60942 -29.2798 80.2
      vertex 5.52962 -29.4753 1.5
      vertex 4.60942 -29.2798 1.5
    endloop
  endfacet
  facet normal 0.743145 0.669131 0
    outer loop
      vertex 2.98891 -28.3442 80.2
      vertex 2.35942 -27.645 1.5
      vertex 2.35942 -27.645 80.2
    endloop
  endfacet
  facet normal 0.743145 0.669131 0
    outer loop
      vertex 2.35942 -27.645 1.5
      vertex 2.98891 -28.3442 80.2
      vertex 2.98891 -28.3442 1.5
    endloop
  endfacet
  facet normal 0.587785 -0.809017 0
    outer loop
      vertex 2.98891 -2.65585 1.5
      vertex 3.75 -2.10289 80.2
      vertex 2.98891 -2.65585 80.2
    endloop
  endfacet
  facet normal 0.587785 -0.809017 0
    outer loop
      vertex 3.75 -2.10289 80.2
      vertex 2.98891 -2.65585 1.5
      vertex 3.75 -2.10289 1.5
    endloop
  endfacet
  facet normal 0.406737 -0.913545 0
    outer loop
      vertex 3.75 -2.10289 1.5
      vertex 4.60942 -1.72025 80.2
      vertex 3.75 -2.10289 80.2
    endloop
  endfacet
  facet normal 0.406737 -0.913545 0
    outer loop
      vertex 4.60942 -1.72025 80.2
      vertex 3.75 -2.10289 1.5
      vertex 4.60942 -1.72025 1.5
    endloop
  endfacet
  facet normal -0.207911 -0.978148 0
    outer loop
      vertex 99.0704 -1.52465 1.5
      vertex 99.9906 -1.72025 80.2
      vertex 99.0704 -1.52465 80.2
    endloop
  endfacet
  facet normal -0.207911 -0.978148 -0
    outer loop
      vertex 99.9906 -1.72025 80.2
      vertex 99.0704 -1.52465 1.5
      vertex 99.9906 -1.72025 1.5
    endloop
  endfacet
  facet normal -0.866027 -0.499998 0
    outer loop
      vertex 102.711 -4.16969 1.5
      vertex 102.241 -3.35497 80.2
      vertex 102.241 -3.35497 1.5
    endloop
  endfacet
  facet normal -0.866027 -0.499998 0
    outer loop
      vertex 102.241 -3.35497 80.2
      vertex 102.711 -4.16969 1.5
      vertex 102.711 -4.16969 80.2
    endloop
  endfacet
  facet normal -0.951056 -0.309018 0
    outer loop
      vertex 103.002 -5.0644 1.5
      vertex 102.711 -4.16969 80.2
      vertex 102.711 -4.16969 1.5
    endloop
  endfacet
  facet normal -0.951056 -0.309018 0
    outer loop
      vertex 102.711 -4.16969 80.2
      vertex 103.002 -5.0644 1.5
      vertex 103.002 -5.0644 80.2
    endloop
  endfacet
  facet normal -0.406738 0.913545 0
    outer loop
      vertex 100.85 -28.8971 1.5
      vertex 99.9906 -29.2798 80.2
      vertex 100.85 -28.8971 80.2
    endloop
  endfacet
  facet normal -0.406738 0.913545 0
    outer loop
      vertex 99.9906 -29.2798 80.2
      vertex 100.85 -28.8971 1.5
      vertex 99.9906 -29.2798 1.5
    endloop
  endfacet
  facet normal 1 -0 0
    outer loop
      vertex 35.4 -30.9671 80.2
      vertex 35.4 -29.4753 6.5
      vertex 35.4 -29.4753 80.2
    endloop
  endfacet
  facet normal 1 0 0
    outer loop
      vertex 35.4 -29.4753 6.5
      vertex 35.4 -30.9671 80.2
      vertex 35.4 -30.9671 6.5
    endloop
  endfacet
  facet normal -1 0 0
    outer loop
      vertex 94.6 -30.9671 6.5
      vertex 94.6 -29.4753 80.2
      vertex 94.6 -29.4753 6.5
    endloop
  endfacet
  facet normal -1 -0 0
    outer loop
      vertex 94.6 -29.4753 80.2
      vertex 94.6 -30.9671 6.5
      vertex 94.6 -30.9671 80.2
    endloop
  endfacet
  facet normal -0 0 1
    outer loop
      vertex 35.4 -29.4753 6.5
      vertex 94.6 -30.9671 6.5
      vertex 94.6 -29.4753 6.5
    endloop
  endfacet
  facet normal 0 0 1
    outer loop
      vertex 94.6 -30.9671 6.5
      vertex 35.4 -29.4753 6.5
      vertex 35.4 -30.9671 6.5
    endloop
  endfacet
  facet normal 1 0 0
    outer loop
      vertex 3 11.3117 84.9615
      vertex 3 9.48904 78.2029
      vertex 3 9.5 78.2
    endloop
  endfacet
  facet normal 1 0 0
    outer loop
      vertex 3 9.48904 78.2029
      vertex 3 9.40211 77.582
      vertex 3 9.48904 77.9909
    endloop
  endfacet
  facet normal 1 0 0
    outer loop
      vertex 3 9.48904 78.2029
      vertex 3 9.23205 77.2
      vertex 3 9.40211 77.582
    endloop
  endfacet
  facet normal 1 0 0
    outer loop
      vertex 3 9.48904 78.2029
      vertex 3 8.98629 76.8617
      vertex 3 9.23205 77.2
    endloop
  endfacet
  facet normal 1 -0 0
    outer loop
      vertex 3 5.89479 80.2
      vertex 3 9.48904 78.2029
      vertex 3 11.3117 84.9615
    endloop
  endfacet
  facet normal 1 0 -0
    outer loop
      vertex 3 7 76.2711
      vertex 3 9.48904 78.2029
      vertex 3 5.89479 80.2
    endloop
  endfacet
  facet normal 1 0 0
    outer loop
      vertex 3 9.48904 78.2029
      vertex 3 7 76.2711
      vertex 3 8.98629 76.8617
    endloop
  endfacet
  facet normal 1 0 0
    outer loop
      vertex 3 8.98629 76.8617
      vertex 3 7 76.2711
      vertex 3 8.67557 76.582
    endloop
  endfacet
  facet normal 1 0 0
    outer loop
      vertex 3 8.67557 76.582
      vertex 3 7 76.2711
      vertex 3 8.31347 76.3729
    endloop
  endfacet
  facet normal 1 0 0
    outer loop
      vertex 3 5.89479 80.2
      vertex 3 11.3117 84.9615
      vertex 3 7.44803 85.9968
    endloop
  endfacet
  facet normal 1 0 0
    outer loop
      vertex 3 8.31347 76.3729
      vertex 3 7 76.2711
      vertex 3 7.91582 76.2437
    endloop
  endfacet
  facet normal 1 0 0
    outer loop
      vertex 3 7.91582 76.2437
      vertex 3 7 76.2711
      vertex 3 7.5 76.2
    endloop
  endfacet
  facet normal 1 0 0
    outer loop
      vertex 3 7.5 76.2
      vertex 3 7 76.2711
      vertex 3 7.08418 76.2437
    endloop
  endfacet
  facet normal 1 0 0
    outer loop
      vertex 3 0 76.2
      vertex 3 7 76.2711
      vertex 3 5.89479 80.2
    endloop
  endfacet
  facet normal 1 0 0
    outer loop
      vertex 3 0 76.2
      vertex 3 5.89479 80.2
      vertex 3 0 80.2
    endloop
  endfacet
  facet normal 1 0 0
    outer loop
      vertex 3 7 76.2711
      vertex 3 0 76.2
      vertex 3 7 76.2
    endloop
  endfacet
  facet normal 0 1 -0
    outer loop
      vertex 3 7 76.2
      vertex 0 7 76.2711
      vertex 3 7 76.2711
    endloop
  endfacet
  facet normal 0 1 0
    outer loop
      vertex 0 7 76.2711
      vertex 3 7 76.2
      vertex 0 7 76.2
    endloop
  endfacet
  facet normal 0 0 -1
    outer loop
      vertex 0 0 76.2
      vertex 3 7 76.2
      vertex 3 0 76.2
    endloop
  endfacet
  facet normal -0 0 -1
    outer loop
      vertex 3 7 76.2
      vertex 0 0 76.2
      vertex 0 7 76.2
    endloop
  endfacet
  facet normal 0 0.104538 -0.994521
    outer loop
      vertex 0 7.5 76.2
      vertex 3 7.91582 76.2437
      vertex 3 7.5 76.2
    endloop
  endfacet
  facet normal 0 0.104538 -0.994521
    outer loop
      vertex 3 7.91582 76.2437
      vertex 0 7.5 76.2
      vertex 0 7.91582 76.2437
    endloop
  endfacet
  facet normal 0 0.309016 -0.951057
    outer loop
      vertex 0 7.91582 76.2437
      vertex 3 8.31347 76.3729
      vertex 3 7.91582 76.2437
    endloop
  endfacet
  facet normal 0 0.309016 -0.951057
    outer loop
      vertex 3 8.31347 76.3729
      vertex 0 7.91582 76.2437
      vertex 0 8.31347 76.3729
    endloop
  endfacet
  facet normal 0 0.669138 -0.743139
    outer loop
      vertex 0 8.67557 76.582
      vertex 3 8.98629 76.8617
      vertex 3 8.67557 76.582
    endloop
  endfacet
  facet normal 0 0.669138 -0.743139
    outer loop
      vertex 3 8.98629 76.8617
      vertex 0 8.67557 76.582
      vertex 0 8.98629 76.8617
    endloop
  endfacet
  facet normal 0 1 -0
    outer loop
      vertex 3 9.48904 77.9909
      vertex 0 9.48904 78.2029
      vertex 3 9.48904 78.2029
    endloop
  endfacet
  facet normal 0 1 0
    outer loop
      vertex 0 9.48904 78.2029
      vertex 3 9.48904 77.9909
      vertex 0 9.48904 77.9909
    endloop
  endfacet
  facet normal 0 0.913545 -0.406739
    outer loop
      vertex 3 9.23205 77.2
      vertex 0 9.40211 77.582
      vertex 3 9.40211 77.582
    endloop
  endfacet
  facet normal 0 0.913545 -0.406739
    outer loop
      vertex 0 9.40211 77.582
      vertex 3 9.23205 77.2
      vertex 0 9.23205 77.2
    endloop
  endfacet
  facet normal 0 0.499992 -0.86603
    outer loop
      vertex 0 8.31347 76.3729
      vertex 3 8.67557 76.582
      vertex 3 8.31347 76.3729
    endloop
  endfacet
  facet normal 0 0.499992 -0.86603
    outer loop
      vertex 3 8.67557 76.582
      vertex 0 8.31347 76.3729
      vertex 0 8.67557 76.582
    endloop
  endfacet
  facet normal 0 0.809014 -0.58779
    outer loop
      vertex 3 8.98629 76.8617
      vertex 0 9.23205 77.2
      vertex 3 9.23205 77.2
    endloop
  endfacet
  facet normal 0 0.809014 -0.58779
    outer loop
      vertex 0 9.23205 77.2
      vertex 3 8.98629 76.8617
      vertex 0 8.98629 76.8617
    endloop
  endfacet
  facet normal 0 0.978148 -0.207909
    outer loop
      vertex 3 9.40211 77.582
      vertex 0 9.48904 77.9909
      vertex 3 9.48904 77.9909
    endloop
  endfacet
  facet normal 0 0.978148 -0.207909
    outer loop
      vertex 0 9.48904 77.9909
      vertex 3 9.40211 77.582
      vertex 0 9.40211 77.582
    endloop
  endfacet
  facet normal 0 -0.309026 -0.951053
    outer loop
      vertex 0 7 76.2711
      vertex 3 7.08418 76.2437
      vertex 3 7 76.2711
    endloop
  endfacet
  facet normal -0 -0.309026 -0.951053
    outer loop
      vertex 3 7.08418 76.2437
      vertex 0 7 76.2711
      vertex 0 7.08418 76.2437
    endloop
  endfacet
  facet normal 0 -0.104538 -0.994521
    outer loop
      vertex 0 7.08418 76.2437
      vertex 3 7.5 76.2
      vertex 3 7.08418 76.2437
    endloop
  endfacet
  facet normal -0 -0.104538 -0.994521
    outer loop
      vertex 3 7.5 76.2
      vertex 0 7.08418 76.2437
      vertex 0 7.5 76.2
    endloop
  endfacet
  facet normal 0 -0.965926 0.258819
    outer loop
      vertex 0 5.89479 80.2
      vertex 3 7.44803 85.9968
      vertex 0 7.44803 85.9968
    endloop
  endfacet
  facet normal 0 -0.965926 0.258819
    outer loop
      vertex 3 7.44803 85.9968
      vertex 0 5.89479 80.2
      vertex 3 5.89479 80.2
    endloop
  endfacet
  facet normal -0 0.25882 0.965926
    outer loop
      vertex 0 11.3117 84.9615
      vertex 3 7.44803 85.9968
      vertex 3 11.3117 84.9615
    endloop
  endfacet
  facet normal 0 0.25882 0.965926
    outer loop
      vertex 3 7.44803 85.9968
      vertex 0 11.3117 84.9615
      vertex 0 7.44803 85.9968
    endloop
  endfacet
  facet normal 0 0.965926 -0.258819
    outer loop
      vertex 3 9.5 78.2
      vertex 0 11.3117 84.9615
      vertex 3 11.3117 84.9615
    endloop
  endfacet
  facet normal 0 0.965926 -0.258819
    outer loop
      vertex 0 11.3117 84.9615
      vertex 3 9.5 78.2
      vertex 0 9.5 78.2
    endloop
  endfacet
  facet normal 0 -0.258939 -0.965894
    outer loop
      vertex 0 9.48904 78.2029
      vertex 3 9.5 78.2
      vertex 3 9.48904 78.2029
    endloop
  endfacet
  facet normal -0 -0.258939 -0.965894
    outer loop
      vertex 3 9.5 78.2
      vertex 0 9.48904 78.2029
      vertex 0 9.5 78.2
    endloop
  endfacet
  facet normal -1 -0 0
    outer loop
      vertex 101.6 9.48904 77.9909
      vertex 101.6 9.40211 77.582
      vertex 101.6 9.48904 78.2029
    endloop
  endfacet
  facet normal -1 0 0
    outer loop
      vertex 101.6 9.48904 78.2029
      vertex 101.6 11.3117 84.9615
      vertex 101.6 9.5 78.2
    endloop
  endfacet
  facet normal -1 0 0
    outer loop
      vertex 101.6 9.23205 77.2
      vertex 101.6 9.48904 78.2029
      vertex 101.6 9.40211 77.582
    endloop
  endfacet
  facet normal -1 0 0
    outer loop
      vertex 101.6 8.98629 76.8617
      vertex 101.6 9.48904 78.2029
      vertex 101.6 9.23205 77.2
    endloop
  endfacet
  facet normal -1 0 0
    outer loop
      vertex 101.6 7 76.2711
      vertex 101.6 9.48904 78.2029
      vertex 101.6 8.98629 76.8617
    endloop
  endfacet
  facet normal -1 0 0
    outer loop
      vertex 101.6 7 76.2711
      vertex 101.6 8.98629 76.8617
      vertex 101.6 8.67557 76.582
    endloop
  endfacet
  facet normal -1 0 0
    outer loop
      vertex 101.6 7 76.2711
      vertex 101.6 8.67557 76.582
      vertex 101.6 8.31347 76.3729
    endloop
  endfacet
  facet normal -1 0 0
    outer loop
      vertex 101.6 7 76.2711
      vertex 101.6 8.31347 76.3729
      vertex 101.6 7.91582 76.2437
    endloop
  endfacet
  facet normal -1 0 0
    outer loop
      vertex 101.6 7 76.2711
      vertex 101.6 7.91582 76.2437
      vertex 101.6 7.5 76.2
    endloop
  endfacet
  facet normal -1 0 0
    outer loop
      vertex 101.6 9.48904 78.2029
      vertex 101.6 5.89479 80.2
      vertex 101.6 11.3117 84.9615
    endloop
  endfacet
  facet normal -1 0 0
    outer loop
      vertex 101.6 7 76.2711
      vertex 101.6 7.5 76.2
      vertex 101.6 7.08418 76.2437
    endloop
  endfacet
  facet normal -1 -0 0
    outer loop
      vertex 101.6 9.48904 78.2029
      vertex 101.6 7 76.2711
      vertex 101.6 5.89479 80.2
    endloop
  endfacet
  facet normal -1 -0 0
    outer loop
      vertex 101.6 11.3117 84.9615
      vertex 101.6 5.89479 80.2
      vertex 101.6 7.44803 85.9968
    endloop
  endfacet
  facet normal -1 0 0
    outer loop
      vertex 101.6 0 76.2
      vertex 101.6 7 76.2711
      vertex 101.6 7 76.2
    endloop
  endfacet
  facet normal -1 -0 0
    outer loop
      vertex 101.6 7 76.2711
      vertex 101.6 0 76.2
      vertex 101.6 5.89479 80.2
    endloop
  endfacet
  facet normal -1 -0 0
    outer loop
      vertex 101.6 5.89479 80.2
      vertex 101.6 0 76.2
      vertex 101.6 0 80.2
    endloop
  endfacet
  facet normal 0 1 -0
    outer loop
      vertex 104.6 7 76.2
      vertex 101.6 7 76.2711
      vertex 104.6 7 76.2711
    endloop
  endfacet
  facet normal 0 1 0
    outer loop
      vertex 101.6 7 76.2711
      vertex 104.6 7 76.2
      vertex 101.6 7 76.2
    endloop
  endfacet
  facet normal 0 0 -1
    outer loop
      vertex 101.6 0 76.2
      vertex 104.6 7 76.2
      vertex 104.6 0 76.2
    endloop
  endfacet
  facet normal -0 0 -1
    outer loop
      vertex 104.6 7 76.2
      vertex 101.6 0 76.2
      vertex 101.6 7 76.2
    endloop
  endfacet
  facet normal 0 0.104538 -0.994521
    outer loop
      vertex 101.6 7.5 76.2
      vertex 104.6 7.91582 76.2437
      vertex 104.6 7.5 76.2
    endloop
  endfacet
  facet normal 0 0.104538 -0.994521
    outer loop
      vertex 104.6 7.91582 76.2437
      vertex 101.6 7.5 76.2
      vertex 101.6 7.91582 76.2437
    endloop
  endfacet
  facet normal 0 0.309016 -0.951057
    outer loop
      vertex 101.6 7.91582 76.2437
      vertex 104.6 8.31347 76.3729
      vertex 104.6 7.91582 76.2437
    endloop
  endfacet
  facet normal 0 0.309016 -0.951057
    outer loop
      vertex 104.6 8.31347 76.3729
      vertex 101.6 7.91582 76.2437
      vertex 101.6 8.31347 76.3729
    endloop
  endfacet
  facet normal 0 0.669138 -0.743139
    outer loop
      vertex 101.6 8.67557 76.582
      vertex 104.6 8.98629 76.8617
      vertex 104.6 8.67557 76.582
    endloop
  endfacet
  facet normal 0 0.669138 -0.743139
    outer loop
      vertex 104.6 8.98629 76.8617
      vertex 101.6 8.67557 76.582
      vertex 101.6 8.98629 76.8617
    endloop
  endfacet
  facet normal 0 1 -0
    outer loop
      vertex 104.6 9.48904 77.9909
      vertex 101.6 9.48904 78.2029
      vertex 104.6 9.48904 78.2029
    endloop
  endfacet
  facet normal 0 1 0
    outer loop
      vertex 101.6 9.48904 78.2029
      vertex 104.6 9.48904 77.9909
      vertex 101.6 9.48904 77.9909
    endloop
  endfacet
  facet normal 0 0.913545 -0.406739
    outer loop
      vertex 104.6 9.23205 77.2
      vertex 101.6 9.40211 77.582
      vertex 104.6 9.40211 77.582
    endloop
  endfacet
  facet normal 0 0.913545 -0.406739
    outer loop
      vertex 101.6 9.40211 77.582
      vertex 104.6 9.23205 77.2
      vertex 101.6 9.23205 77.2
    endloop
  endfacet
  facet normal 0 0.499992 -0.86603
    outer loop
      vertex 101.6 8.31347 76.3729
      vertex 104.6 8.67557 76.582
      vertex 104.6 8.31347 76.3729
    endloop
  endfacet
  facet normal 0 0.499992 -0.86603
    outer loop
      vertex 104.6 8.67557 76.582
      vertex 101.6 8.31347 76.3729
      vertex 101.6 8.67557 76.582
    endloop
  endfacet
  facet normal 0 0.809014 -0.58779
    outer loop
      vertex 104.6 8.98629 76.8617
      vertex 101.6 9.23205 77.2
      vertex 104.6 9.23205 77.2
    endloop
  endfacet
  facet normal 0 0.809014 -0.58779
    outer loop
      vertex 101.6 9.23205 77.2
      vertex 104.6 8.98629 76.8617
      vertex 101.6 8.98629 76.8617
    endloop
  endfacet
  facet normal 0 0.978148 -0.207909
    outer loop
      vertex 104.6 9.40211 77.582
      vertex 101.6 9.48904 77.9909
      vertex 104.6 9.48904 77.9909
    endloop
  endfacet
  facet normal 0 0.978148 -0.207909
    outer loop
      vertex 101.6 9.48904 77.9909
      vertex 104.6 9.40211 77.582
      vertex 101.6 9.40211 77.582
    endloop
  endfacet
  facet normal 0 -0.309026 -0.951053
    outer loop
      vertex 101.6 7 76.2711
      vertex 104.6 7.08418 76.2437
      vertex 104.6 7 76.2711
    endloop
  endfacet
  facet normal -0 -0.309026 -0.951053
    outer loop
      vertex 104.6 7.08418 76.2437
      vertex 101.6 7 76.2711
      vertex 101.6 7.08418 76.2437
    endloop
  endfacet
  facet normal 0 -0.104538 -0.994521
    outer loop
      vertex 101.6 7.08418 76.2437
      vertex 104.6 7.5 76.2
      vertex 104.6 7.08418 76.2437
    endloop
  endfacet
  facet normal -0 -0.104538 -0.994521
    outer loop
      vertex 104.6 7.5 76.2
      vertex 101.6 7.08418 76.2437
      vertex 101.6 7.5 76.2
    endloop
  endfacet
  facet normal 0 -0.965926 0.258819
    outer loop
      vertex 101.6 5.89479 80.2
      vertex 104.6 7.44803 85.9968
      vertex 101.6 7.44803 85.9968
    endloop
  endfacet
  facet normal 0 -0.965926 0.258819
    outer loop
      vertex 104.6 7.44803 85.9968
      vertex 101.6 5.89479 80.2
      vertex 104.6 5.89479 80.2
    endloop
  endfacet
  facet normal 0 -0.258939 -0.965894
    outer loop
      vertex 101.6 9.48904 78.2029
      vertex 104.6 9.5 78.2
      vertex 104.6 9.48904 78.2029
    endloop
  endfacet
  facet normal -0 -0.258939 -0.965894
    outer loop
      vertex 104.6 9.5 78.2
      vertex 101.6 9.48904 78.2029
      vertex 101.6 9.5 78.2
    endloop
  endfacet
  facet normal -0 0.25882 0.965926
    outer loop
      vertex 101.6 11.3117 84.9615
      vertex 104.6 7.44803 85.9968
      vertex 104.6 11.3117 84.9615
    endloop
  endfacet
  facet normal 0 0.25882 0.965926
    outer loop
      vertex 104.6 7.44803 85.9968
      vertex 101.6 11.3117 84.9615
      vertex 101.6 7.44803 85.9968
    endloop
  endfacet
  facet normal 0 0.965926 -0.258819
    outer loop
      vertex 104.6 9.5 78.2
      vertex 101.6 11.3117 84.9615
      vertex 104.6 11.3117 84.9615
    endloop
  endfacet
  facet normal 0 0.965926 -0.258819
    outer loop
      vertex 101.6 11.3117 84.9615
      vertex 104.6 9.5 78.2
      vertex 101.6 9.5 78.2
    endloop
  endfacet
  facet normal -1 0 0
    outer loop
      vertex 25.4 -31 0
      vertex 25.4 -30.9671 80.2
      vertex 25.4 -30.9671 0
    endloop
  endfacet
  facet normal -1 -0 0
    outer loop
      vertex 25.4 -30.9671 80.2
      vertex 25.4 -31 0
      vertex 25.4 -31 80.2
    endloop
  endfacet
  facet normal -1 0 0
    outer loop
      vertex 25.4 -29.4753 1.5
      vertex 25.4 -1.52465 80.2
      vertex 25.4 -1.52465 1.5
    endloop
  endfacet
  facet normal -1 -0 0
    outer loop
      vertex 25.4 -1.52465 80.2
      vertex 25.4 -29.4753 1.5
      vertex 25.4 -29.4753 80.2
    endloop
  endfacet
  facet normal 1 -0 0
    outer loop
      vertex 26.9 -31 80.2
      vertex 26.9 -30.9671 0
      vertex 26.9 -30.9671 80.2
    endloop
  endfacet
  facet normal 1 0 0
    outer loop
      vertex 26.9 -30.9671 0
      vertex 26.9 -31 80.2
      vertex 26.9 -31 0
    endloop
  endfacet
  facet normal 1 -0 0
    outer loop
      vertex 26.9 -29.4753 80.2
      vertex 26.9 -1.52465 1.5
      vertex 26.9 -1.52465 80.2
    endloop
  endfacet
  facet normal 1 0 0
    outer loop
      vertex 26.9 -1.52465 1.5
      vertex 26.9 -29.4753 80.2
      vertex 26.9 -29.4753 1.5
    endloop
  endfacet
  facet normal 0 -1 0
    outer loop
      vertex 25.4 -31 0
      vertex 26.9 -31 80.2
      vertex 25.4 -31 80.2
    endloop
  endfacet
  facet normal 0 -1 -0
    outer loop
      vertex 26.9 -31 80.2
      vertex 25.4 -31 0
      vertex 26.9 -31 0
    endloop
  endfacet
  facet normal -0 0 1
    outer loop
      vertex 0 7 4
      vertex 3 0 4
      vertex 3 7 4
    endloop
  endfacet
  facet normal 0 0 1
    outer loop
      vertex 3 0 4
      vertex 0 7 4
      vertex 0 0 4
    endloop
  endfacet
  facet normal 1 -0 0
    outer loop
      vertex 3 0 4
      vertex 3 7 0
      vertex 3 7 4
    endloop
  endfacet
  facet normal 1 0 0
    outer loop
      vertex 3 7 0
      vertex 3 0 4
      vertex 3 0 0
    endloop
  endfacet
  facet normal 0 1 -0
    outer loop
      vertex 3 7 0
      vertex 0 7 4
      vertex 3 7 4
    endloop
  endfacet
  facet normal 0 1 0
    outer loop
      vertex 0 7 4
      vertex 3 7 0
      vertex 0 7 0
    endloop
  endfacet
  facet normal -1 0 0
    outer loop
      vertex 101.6 0 0
      vertex 101.6 7 4
      vertex 101.6 7 0
    endloop
  endfacet
  facet normal -1 -0 0
    outer loop
      vertex 101.6 7 4
      vertex 101.6 0 0
      vertex 101.6 0 4
    endloop
  endfacet
  facet normal -0 0 1
    outer loop
      vertex 101.6 7 4
      vertex 104.6 0 4
      vertex 104.6 7 4
    endloop
  endfacet
  facet normal 0 0 1
    outer loop
      vertex 104.6 0 4
      vertex 101.6 7 4
      vertex 101.6 0 4
    endloop
  endfacet
  facet normal 0 1 -0
    outer loop
      vertex 104.6 7 0
      vertex 101.6 7 4
      vertex 104.6 7 4
    endloop
  endfacet
  facet normal 0 1 0
    outer loop
      vertex 101.6 7 4
      vertex 104.6 7 0
      vertex 101.6 7 0
    endloop
  endfacet
endsolid OpenSCAD_Model
