ISO-10303-21;
HEADER;

/* File generated by Shapr3D Version 5.800.0.8232 */

FILE_DESCRIPTION(('HOOPS Exchange Step'),'2;1');

FILE_NAME('/Users/ddanier/Library/Containers/com.shapr3d.shapr/Data/tmp/export/temp_export',
'2025-03-05T21:52:07+01:00',
('ddanier'),
('Shapr3D Limited'),
'HOOPS Exchange 2024.8',
'Shapr3D',
'Authorized');

FILE_SCHEMA( ('AP242_MANAGED_MODEL_BASED_3D_ENGINEERING_MIM_LF {1 0 10303 442 1 1 4}') );

ENDSEC;

DATA;
#3=(NAMED_UNIT(*)PLANE_ANGLE_UNIT()SI_UNIT($,.RADIAN.));
#4=PLANE_ANGLE_MEASURE_WITH_UNIT(PLANE_ANGLE_MEASURE(0.0174532925),#3);
#5=(CONVERSION_BASED_UNIT('DEGREE',#4)NAMED_UNIT(#6)PLANE_ANGLE_UNIT());
#6=DIMENSIONAL_EXPONENTS(0.,0.,0.,0.,0.,0.,0.);
#7=(NAMED_UNIT(*)SI_UNIT($,.STERADIAN.)SOLID_ANGLE_UNIT());
#8=(LENGTH_UNIT()NAMED_UNIT(*)SI_UNIT(.MILLI.,.METRE.));
#9=UNCERTAINTY_MEASURE_WITH_UNIT(LENGTH_MEASURE(1.000000E-03),#8,'DISTANCE_ACCURACY_VALUE','Maximum Tolerance applied to model');
#10=(GEOMETRIC_REPRESENTATION_CONTEXT(3)GLOBAL_UNCERTAINTY_ASSIGNED_CONTEXT((#9))GLOBAL_UNIT_ASSIGNED_CONTEXT((#8,#5,#7))REPRESENTATION_CONTEXT('','openGrid Color/Cover Snap for Open Wall Mount'));
#12=CARTESIAN_POINT('',(0.,0.,0.));
#13=DIRECTION('',(0.,0.,1.));
#14=DIRECTION('',(1.,0.,0.));
#15=AXIS2_PLACEMENT_3D('TS3D_PRODUCT_CSYS',#12,#13,#14);
#26=(NAMED_UNIT(*)PLANE_ANGLE_UNIT()SI_UNIT($,.RADIAN.));
#27=PLANE_ANGLE_MEASURE_WITH_UNIT(PLANE_ANGLE_MEASURE(0.0174532925),#26);
#28=(CONVERSION_BASED_UNIT('DEGREE',#27)NAMED_UNIT(#29)PLANE_ANGLE_UNIT());
#29=DIMENSIONAL_EXPONENTS(0.,0.,0.,0.,0.,0.,0.);
#30=(NAMED_UNIT(*)SI_UNIT($,.STERADIAN.)SOLID_ANGLE_UNIT());
#31=(LENGTH_UNIT()NAMED_UNIT(*)SI_UNIT(.MILLI.,.METRE.));
#32=UNCERTAINTY_MEASURE_WITH_UNIT(LENGTH_MEASURE(1.000000E-03),#31,'DISTANCE_ACCURACY_VALUE','Maximum Tolerance applied to model');
#33=(GEOMETRIC_REPRESENTATION_CONTEXT(3)GLOBAL_UNCERTAINTY_ASSIGNED_CONTEXT((#32))GLOBAL_UNIT_ASSIGNED_CONTEXT((#31,#28,#30))REPRESENTATION_CONTEXT('','Side Holders (1)'));
#45=CARTESIAN_POINT('',(0.,0.,0.));
#46=DIRECTION('',(0.,0.,1.));
#47=DIRECTION('',(1.,0.,-0.));
#48=AXIS2_PLACEMENT_3D('',#45,#46,#47);
#49=ITEM_DEFINED_TRANSFORMATION('','',#48,#15);
#50=(REPRESENTATION_RELATIONSHIP('','',#35,#16)REPRESENTATION_RELATIONSHIP_WITH_TRANSFORMATION(#49)SHAPE_REPRESENTATION_RELATIONSHIP());
#51=NEXT_ASSEMBLY_USAGE_OCCURRENCE('Side Holders (1)_1','Side Holders (1)','Side Holders (1)',#25,#44,$);
#52=PRODUCT_DEFINITION_SHAPE('','',#51);
#53=CONTEXT_DEPENDENT_SHAPE_REPRESENTATION(#50,#52);
#35=SHAPE_REPRESENTATION('Side Holders (1)',(#15),#33);
#54=CARTESIAN_POINT('',(0.,0.,0.));
#55=DIRECTION('',(0.,0.,1.));
#56=DIRECTION('',(1.,0.,0.));
#57=AXIS2_PLACEMENT_3D('',#54,#55,#56);
#59=MAPPED_ITEM('',#58,#57);
#58=REPRESENTATION_MAP(#57,#35);
#60=APPLICATION_CONTEXT('Managed model based 3d engineering');
#61=APPLICATION_PROTOCOL_DEFINITION('international standard','ap242_managed_model_based_3d_engineering',2014,#60);
#62=PRODUCT_CONTEXT('',#60,'mechanical');
#63=PRODUCT_DEFINITION_CONTEXT('part definition',#60,'design');
#43=PRODUCT('Side Holders (1)','Side Holders (1)','',(#62));
#64=PRODUCT_RELATED_PRODUCT_CATEGORY('part','',(#43));
#65=PRODUCT_DEFINITION_FORMATION_WITH_SPECIFIED_SOURCE('','',#43,.NOT_KNOWN.);
#44=PRODUCT_DEFINITION('design','',#65,#63);
#42=PRODUCT_DEFINITION_SHAPE('','',#44);
#66=SHAPE_DEFINITION_REPRESENTATION(#42,#35);
#34=DRAUGHTING_MODEL('',(#59),#33);
#67=(NAMED_UNIT(*)PLANE_ANGLE_UNIT()SI_UNIT($,.RADIAN.));
#68=PLANE_ANGLE_MEASURE_WITH_UNIT(PLANE_ANGLE_MEASURE(0.0174532925),#67);
#69=(CONVERSION_BASED_UNIT('DEGREE',#68)NAMED_UNIT(#70)PLANE_ANGLE_UNIT());
#70=DIMENSIONAL_EXPONENTS(0.,0.,0.,0.,0.,0.,0.);
#71=(NAMED_UNIT(*)SI_UNIT($,.STERADIAN.)SOLID_ANGLE_UNIT());
#72=(LENGTH_UNIT()NAMED_UNIT(*)SI_UNIT(.MILLI.,.METRE.));
#73=UNCERTAINTY_MEASURE_WITH_UNIT(LENGTH_MEASURE(1.000000E-05),#72,'DISTANCE_ACCURACY_VALUE','Maximum Tolerance applied to model');
#74=(GEOMETRIC_REPRESENTATION_CONTEXT(3)GLOBAL_UNCERTAINTY_ASSIGNED_CONTEXT((#73))GLOBAL_UNIT_ASSIGNED_CONTEXT((#72,#69,#71))REPRESENTATION_CONTEXT('','Snap (1)'));
#86=CARTESIAN_POINT('',(0.,0.,0.));
#87=DIRECTION('',(0.,0.,1.));
#88=DIRECTION('',(1.,0.,-0.));
#89=AXIS2_PLACEMENT_3D('',#86,#87,#88);
#90=ITEM_DEFINED_TRANSFORMATION('','',#89,#15);
#91=(REPRESENTATION_RELATIONSHIP('','',#76,#16)REPRESENTATION_RELATIONSHIP_WITH_TRANSFORMATION(#90)SHAPE_REPRESENTATION_RELATIONSHIP());
#92=NEXT_ASSEMBLY_USAGE_OCCURRENCE('Snap (1)_2','Snap (1)','Snap (1)',#25,#85,$);
#93=PRODUCT_DEFINITION_SHAPE('','',#92);
#94=CONTEXT_DEPENDENT_SHAPE_REPRESENTATION(#91,#93);
#96=CARTESIAN_POINT('',(17.2,0.,2.4));
#97=DIRECTION('',(-1.,0.,0.));
#98=DIRECTION('',(0.,1.,0.));
#99=AXIS2_PLACEMENT_3D('',#96,#97,#98);
#100=PLANE('',#99);
#101=CARTESIAN_POINT('',(17.2,0.514707296,1.2));
#102=VERTEX_POINT('',#101);
#103=CARTESIAN_POINT('',(17.2,-0.514707296,1.2));
#104=VERTEX_POINT('',#103);
#105=CARTESIAN_POINT('',(17.2,0.514707296,1.2));
#106=DIRECTION('',(0.,-1.,-0.));
#107=VECTOR('',#106,1.029414592);
#108=LINE('',#105,#107);
#109=EDGE_CURVE('',#102,#104,#108,.T.);
#110=ORIENTED_EDGE('',*,*,#109,.T.);
#111=CARTESIAN_POINT('',(17.2,-0.514707296,1.8));
#112=VERTEX_POINT('',#111);
#113=CARTESIAN_POINT('',(17.2,-0.514707296,1.2));
#114=DIRECTION('',(-0.,-0.,1.));
#115=VECTOR('',#114,0.6);
#116=LINE('',#113,#115);
#117=EDGE_CURVE('',#104,#112,#116,.T.);
#118=ORIENTED_EDGE('',*,*,#117,.T.);
#119=CARTESIAN_POINT('',(17.2,0.514707296,1.8));
#120=VERTEX_POINT('',#119);
#121=CARTESIAN_POINT('',(17.2,-0.514707296,1.8));
#122=DIRECTION('',(0.,1.,-0.));
#123=VECTOR('',#122,1.029414592);
#124=LINE('',#121,#123);
#125=EDGE_CURVE('',#112,#120,#124,.T.);
#126=ORIENTED_EDGE('',*,*,#125,.T.);
#127=CARTESIAN_POINT('',(17.2,0.514707296,1.8));
#128=DIRECTION('',(0.,0.,-1.));
#129=VECTOR('',#128,0.6);
#130=LINE('',#127,#129);
#131=EDGE_CURVE('',#120,#102,#130,.T.);
#132=ORIENTED_EDGE('',*,*,#131,.T.);
#133=EDGE_LOOP('',(#110,#118,#126,#132));
#134=FACE_BOUND('',#133,.T.);
#135=ADVANCED_FACE('',(#134),#100,.T.);
#136=CARTESIAN_POINT('',(17.6,-2.5,2.4));
#137=DIRECTION('',(0.832050294,0.,-0.554700196));
#138=DIRECTION('',(0.,-1.,0.));
#139=AXIS2_PLACEMENT_3D('',#136,#137,#138);
#140=PLANE('',#139);
#141=ORIENTED_EDGE('',*,*,#125,.F.);
#142=CARTESIAN_POINT('',(17.491289865,-3.456449323,2.236934797));
#143=VERTEX_POINT('',#142);
#144=CARTESIAN_POINT('',(17.2,-0.514707296,1.8));
#145=CARTESIAN_POINT('',(17.2,-1.005367069,1.8));
#146=CARTESIAN_POINT('',(17.202238943,-1.269759516,1.803358414));
#147=CARTESIAN_POINT('',(17.204193297,-1.500545476,1.806289946));
#148=CARTESIAN_POINT('',(17.208555477,-1.647078709,1.812833216));
#149=CARTESIAN_POINT('',(17.211651799,-1.751089554,1.817477698));
#150=CARTESIAN_POINT('',(17.216598715,-1.835215596,1.824898073));
#151=CARTESIAN_POINT('',(17.222278466,-1.931804047,1.833417699));
#152=CARTESIAN_POINT('',(17.231740768,-2.021516996,1.847611152));
#153=CARTESIAN_POINT('',(17.240781457,-2.107232595,1.861172186));
#154=CARTESIAN_POINT('',(17.255378934,-2.205370753,1.883068401));
#155=CARTESIAN_POINT('',(17.267267224,-2.285295172,1.900900836));
#156=CARTESIAN_POINT('',(17.284821338,-2.386509109,1.927232007));
#157=CARTESIAN_POINT('',(17.30919221,-2.527027276,1.963788315));
#158=CARTESIAN_POINT('',(17.350997308,-2.74479635,2.026495962));
#159=CARTESIAN_POINT('',(17.399718947,-2.998594737,2.099578421));
#160=CARTESIAN_POINT('',(17.491289865,-3.456449323,2.236934797));
#161=B_SPLINE_CURVE_WITH_KNOTS('',2,(#144,#145,#146,#147,#148,#149,#150,#151,#152,#153,#154,#155,#156,#157,#158,#159,#160),.UNSPECIFIED.,.F.,.F.,(3,2,2,2,2,2,2,2,3),(0.,0.25,0.375,0.4375,0.5,0.5625,0.625,0.75,1.),.UNSPECIFIED.);
#162=EDGE_CURVE('',#112,#143,#161,.T.);
#163=ORIENTED_EDGE('',*,*,#162,.T.);
#164=CARTESIAN_POINT('',(17.6,-4.,2.4));
#165=VERTEX_POINT('',#164);
#166=CARTESIAN_POINT('',(17.491289865,-3.456449323,2.236934797));
#167=DIRECTION('',(0.188144174,-0.940720868,0.282216261));
#168=VECTOR('',#167,0.577802295);
#169=LINE('',#166,#168);
#170=EDGE_CURVE('',#143,#165,#169,.T.);
#171=ORIENTED_EDGE('',*,*,#170,.T.);
#172=CARTESIAN_POINT('',(17.6,4.,2.4));
#173=VERTEX_POINT('',#172);
#174=CARTESIAN_POINT('',(17.6,4.,2.4));
#175=DIRECTION('',(0.,-1.,0.));
#176=VECTOR('',#175,8.);
#177=LINE('',#174,#176);
#178=EDGE_CURVE('',#173,#165,#177,.T.);
#179=ORIENTED_EDGE('',*,*,#178,.F.);
#180=CARTESIAN_POINT('',(17.491289865,3.456449323,2.236934797));
#181=VERTEX_POINT('',#180);
#182=CARTESIAN_POINT('',(17.6,4.,2.4));
#183=DIRECTION('',(-0.188144174,-0.940720868,-0.282216261));
#184=VECTOR('',#183,0.577802295);
#185=LINE('',#182,#184);
#186=EDGE_CURVE('',#173,#181,#185,.T.);
#187=ORIENTED_EDGE('',*,*,#186,.T.);
#188=CARTESIAN_POINT('',(17.491289865,3.456449323,2.236934797));
#189=CARTESIAN_POINT('',(17.399915495,2.999577475,2.099873243));
#190=CARTESIAN_POINT('',(17.351046892,2.745054623,2.026570339));
#191=CARTESIAN_POINT('',(17.309450325,2.528406787,1.964175487));
#192=CARTESIAN_POINT('',(17.28489266,2.386920189,1.927338991));
#193=CARTESIAN_POINT('',(17.26750444,2.286739647,1.90125666));
#194=CARTESIAN_POINT('',(17.255449503,2.205844759,1.883174254));
#195=CARTESIAN_POINT('',(17.240999341,2.108876671,1.861499012));
#196=CARTESIAN_POINT('',(17.23182745,2.022336844,1.847741175));
#197=CARTESIAN_POINT('',(17.222400831,1.933393581,1.833601246));
#198=CARTESIAN_POINT('',(17.216620386,1.835583177,1.824930579));
#199=CARTESIAN_POINT('',(17.211710333,1.752500581,1.817565499));
#200=CARTESIAN_POINT('',(17.208566582,1.647450765,1.812849873));
#201=CARTESIAN_POINT('',(17.204213263,1.501982679,1.806319895));
#202=CARTESIAN_POINT('',(17.202241076,1.270010889,1.803361614));
#203=CARTESIAN_POINT('',(17.2,1.006412048,1.8));
#204=CARTESIAN_POINT('',(17.2,0.514707296,1.8));
#205=B_SPLINE_CURVE_WITH_KNOTS('',2,(#188,#189,#190,#191,#192,#193,#194,#195,#196,#197,#198,#199,#200,#201,#202,#203,#204),.UNSPECIFIED.,.F.,.F.,(3,2,2,2,2,2,2,2,3),(0.,0.25,0.375,0.4375,0.5,0.5625,0.625,0.75,1.),.UNSPECIFIED.);
#206=EDGE_CURVE('',#181,#120,#205,.T.);
#207=ORIENTED_EDGE('',*,*,#206,.T.);
#208=EDGE_LOOP('',(#141,#163,#171,#179,#187,#207));
#209=FACE_BOUND('',#208,.T.);
#210=ADVANCED_FACE('',(#209),#140,.F.);
#211=CARTESIAN_POINT('',(17.6,2.,0.6));
#212=DIRECTION('',(0.832050294,-0.,0.554700196));
#213=DIRECTION('',(0.,1.,0.));
#214=AXIS2_PLACEMENT_3D('',#211,#212,#213);
#215=PLANE('',#214);
#216=CARTESIAN_POINT('',(17.6,-4.,0.6));
#217=VERTEX_POINT('',#216);
#218=CARTESIAN_POINT('',(17.491289865,-3.456449323,0.763065203));
#219=VERTEX_POINT('',#218);
#220=CARTESIAN_POINT('',(17.6,-4.,0.6));
#221=DIRECTION('',(-0.188144174,0.940720868,0.282216261));
#222=VECTOR('',#221,0.577802295);
#223=LINE('',#220,#222);
#224=EDGE_CURVE('',#217,#219,#223,.T.);
#225=ORIENTED_EDGE('',*,*,#224,.T.);
#226=CARTESIAN_POINT('',(17.491289865,-3.456449323,0.763065203));
#227=CARTESIAN_POINT('',(17.399915495,-2.999577475,0.900126757));
#228=CARTESIAN_POINT('',(17.351046892,-2.745054623,0.973429661));
#229=CARTESIAN_POINT('',(17.309450325,-2.528406787,1.035824513));
#230=CARTESIAN_POINT('',(17.28489266,-2.386920189,1.072661009));
#231=CARTESIAN_POINT('',(17.26750444,-2.286739647,1.09874334));
#232=CARTESIAN_POINT('',(17.255449503,-2.205844759,1.116825746));
#233=CARTESIAN_POINT('',(17.240999341,-2.108876671,1.138500988));
#234=CARTESIAN_POINT('',(17.23182745,-2.022336844,1.152258825));
#235=CARTESIAN_POINT('',(17.222400831,-1.933393581,1.166398754));
#236=CARTESIAN_POINT('',(17.216620386,-1.835583177,1.175069421));
#237=CARTESIAN_POINT('',(17.211710333,-1.752500581,1.182434501));
#238=CARTESIAN_POINT('',(17.208566582,-1.647450765,1.187150127));
#239=CARTESIAN_POINT('',(17.204213263,-1.501982679,1.193680105));
#240=CARTESIAN_POINT('',(17.202241076,-1.270010889,1.196638386));
#241=CARTESIAN_POINT('',(17.2,-1.006412048,1.2));
#242=CARTESIAN_POINT('',(17.2,-0.514707296,1.2));
#243=B_SPLINE_CURVE_WITH_KNOTS('',2,(#226,#227,#228,#229,#230,#231,#232,#233,#234,#235,#236,#237,#238,#239,#240,#241,#242),.UNSPECIFIED.,.F.,.F.,(3,2,2,2,2,2,2,2,3),(0.,0.25,0.375,0.4375,0.5,0.5625,0.625,0.75,1.),.UNSPECIFIED.);
#244=EDGE_CURVE('',#219,#104,#243,.T.);
#245=ORIENTED_EDGE('',*,*,#244,.T.);
#246=ORIENTED_EDGE('',*,*,#109,.F.);
#247=CARTESIAN_POINT('',(17.491289865,3.456449323,0.763065203));
#248=VERTEX_POINT('',#247);
#249=CARTESIAN_POINT('',(17.2,0.514707296,1.2));
#250=CARTESIAN_POINT('',(17.2,1.005367069,1.2));
#251=CARTESIAN_POINT('',(17.202238943,1.269759516,1.196641586));
#252=CARTESIAN_POINT('',(17.204193297,1.500545476,1.193710054));
#253=CARTESIAN_POINT('',(17.208555477,1.647078709,1.187166784));
#254=CARTESIAN_POINT('',(17.211651799,1.751089554,1.182522302));
#255=CARTESIAN_POINT('',(17.216598715,1.835215596,1.175101927));
#256=CARTESIAN_POINT('',(17.222278466,1.931804047,1.166582301));
#257=CARTESIAN_POINT('',(17.231740768,2.021516996,1.152388848));
#258=CARTESIAN_POINT('',(17.240781457,2.107232595,1.138827814));
#259=CARTESIAN_POINT('',(17.255378934,2.205370753,1.116931599));
#260=CARTESIAN_POINT('',(17.267267224,2.285295172,1.099099164));
#261=CARTESIAN_POINT('',(17.284821338,2.386509109,1.072767993));
#262=CARTESIAN_POINT('',(17.30919221,2.527027276,1.036211685));
#263=CARTESIAN_POINT('',(17.350997308,2.74479635,0.973504038));
#264=CARTESIAN_POINT('',(17.399718947,2.998594737,0.900421579));
#265=CARTESIAN_POINT('',(17.491289865,3.456449323,0.763065203));
#266=B_SPLINE_CURVE_WITH_KNOTS('',2,(#249,#250,#251,#252,#253,#254,#255,#256,#257,#258,#259,#260,#261,#262,#263,#264,#265),.UNSPECIFIED.,.F.,.F.,(3,2,2,2,2,2,2,2,3),(0.,0.25,0.375,0.4375,0.5,0.5625,0.625,0.75,1.),.UNSPECIFIED.);
#267=EDGE_CURVE('',#102,#248,#266,.T.);
#268=ORIENTED_EDGE('',*,*,#267,.T.);
#269=CARTESIAN_POINT('',(17.6,4.,0.6));
#270=VERTEX_POINT('',#269);
#271=CARTESIAN_POINT('',(17.491289865,3.456449323,0.763065203));
#272=DIRECTION('',(0.188144174,0.940720868,-0.282216261));
#273=VECTOR('',#272,0.577802295);
#274=LINE('',#271,#273);
#275=EDGE_CURVE('',#248,#270,#274,.T.);
#276=ORIENTED_EDGE('',*,*,#275,.T.);
#277=CARTESIAN_POINT('',(17.6,-4.,0.6));
#278=DIRECTION('',(0.,1.,0.));
#279=VECTOR('',#278,8.);
#280=LINE('',#277,#279);
#281=EDGE_CURVE('',#217,#270,#280,.T.);
#282=ORIENTED_EDGE('',*,*,#281,.F.);
#283=EDGE_LOOP('',(#225,#245,#246,#268,#276,#282));
#284=FACE_BOUND('',#283,.T.);
#285=ADVANCED_FACE('',(#284),#215,.F.);
#286=CARTESIAN_POINT('',(17.6,-4.,1.5));
#287=DIRECTION('',(0.980580676,0.196116135,-0.));
#288=DIRECTION('',(0.,-0.,-1.));
#289=AXIS2_PLACEMENT_3D('',#286,#287,#288);
#290=PLANE('',#289);
#291=ORIENTED_EDGE('',*,*,#170,.F.);
#292=CARTESIAN_POINT('',(17.491289865,-3.456449323,2.236934797));
#293=DIRECTION('',(0.,-0.,-1.));
#294=VECTOR('',#293,1.473869594);
#295=LINE('',#292,#294);
#296=EDGE_CURVE('',#143,#219,#295,.T.);
#297=ORIENTED_EDGE('',*,*,#296,.T.);
#298=ORIENTED_EDGE('',*,*,#224,.F.);
#299=CARTESIAN_POINT('',(17.6,-4.,2.4));
#300=DIRECTION('',(0.,-0.,-1.));
#301=VECTOR('',#300,1.8);
#302=LINE('',#299,#301);
#303=EDGE_CURVE('',#165,#217,#302,.T.);
#304=ORIENTED_EDGE('',*,*,#303,.F.);
#305=EDGE_LOOP('',(#291,#297,#298,#304));
#306=FACE_BOUND('',#305,.T.);
#307=ADVANCED_FACE('',(#306),#290,.F.);
#308=CARTESIAN_POINT('',(17.6,4.,1.5));
#309=DIRECTION('',(0.980580676,-0.196116135,-0.));
#310=DIRECTION('',(0.,-0.,1.));
#311=AXIS2_PLACEMENT_3D('',#308,#309,#310);
#312=PLANE('',#311);
#313=ORIENTED_EDGE('',*,*,#275,.F.);
#314=CARTESIAN_POINT('',(17.491289865,3.456449323,0.763065203));
#315=DIRECTION('',(0.,-0.,1.));
#316=VECTOR('',#315,1.473869594);
#317=LINE('',#314,#316);
#318=EDGE_CURVE('',#248,#181,#317,.T.);
#319=ORIENTED_EDGE('',*,*,#318,.T.);
#320=ORIENTED_EDGE('',*,*,#186,.F.);
#321=CARTESIAN_POINT('',(17.6,4.,0.6));
#322=DIRECTION('',(0.,-0.,1.));
#323=VECTOR('',#322,1.8);
#324=LINE('',#321,#323);
#325=EDGE_CURVE('',#270,#173,#324,.T.);
#326=ORIENTED_EDGE('',*,*,#325,.F.);
#327=EDGE_LOOP('',(#313,#319,#320,#326));
#328=FACE_BOUND('',#327,.T.);
#329=ADVANCED_FACE('',(#328),#312,.F.);
#330=CARTESIAN_POINT('',(17.491289865,-3.456449323,2.236934797));
#331=CARTESIAN_POINT('',(17.491289865,-3.456449323,1.745644932));
#332=CARTESIAN_POINT('',(17.491289865,-3.456449323,1.254355068));
#333=CARTESIAN_POINT('',(17.491289865,-3.456449323,0.763065203));
#334=CARTESIAN_POINT('',(17.2,-2.,2.236934797));
#335=CARTESIAN_POINT('',(17.2,-2.,1.745644932));
#336=CARTESIAN_POINT('',(17.2,-2.,1.254355068));
#337=CARTESIAN_POINT('',(17.2,-2.,0.763065203));
#338=CARTESIAN_POINT('',(17.2,-0.514707296,2.236934797));
#339=CARTESIAN_POINT('',(17.2,-0.514707296,1.745644932));
#340=CARTESIAN_POINT('',(17.2,-0.514707296,1.254355068));
#341=CARTESIAN_POINT('',(17.2,-0.514707296,0.763065203));
#342=(BOUNDED_SURFACE()
B_SPLINE_SURFACE(2,3,((#330,#331,#332,#333),(#334,#335,#336,#337),(#338,#339,#340,#341)),.UNSPECIFIED.,.F.,.F.,.U.)
B_SPLINE_SURFACE_WITH_KNOTS((3,3),(4,4),(0.,1.),(0.000163065,0.001636935),.UNSPECIFIED.)
GEOMETRIC_REPRESENTATION_ITEM()
RATIONAL_B_SPLINE_SURFACE(((1.,1.,1.,1.),(3.980533307,3.980533307,3.980533307,3.980533307),(1.,1.,1.,1.)))
REPRESENTATION_ITEM('')
SURFACE()
);
#343=ORIENTED_EDGE('',*,*,#244,.F.);
#344=ORIENTED_EDGE('',*,*,#296,.F.);
#345=ORIENTED_EDGE('',*,*,#162,.F.);
#346=ORIENTED_EDGE('',*,*,#117,.F.);
#347=EDGE_LOOP('',(#343,#344,#345,#346));
#348=FACE_BOUND('',#347,.T.);
#349=ADVANCED_FACE('',(#348),#342,.T.);
#350=CARTESIAN_POINT('',(17.491289865,3.456449323,0.763065203));
#351=CARTESIAN_POINT('',(17.491289865,3.456449323,1.254355068));
#352=CARTESIAN_POINT('',(17.491289865,3.456449323,1.745644932));
#353=CARTESIAN_POINT('',(17.491289865,3.456449323,2.236934797));
#354=CARTESIAN_POINT('',(17.2,2.,0.763065203));
#355=CARTESIAN_POINT('',(17.2,2.,1.254355068));
#356=CARTESIAN_POINT('',(17.2,2.,1.745644932));
#357=CARTESIAN_POINT('',(17.2,2.,2.236934797));
#358=CARTESIAN_POINT('',(17.2,0.514707296,0.763065203));
#359=CARTESIAN_POINT('',(17.2,0.514707296,1.254355068));
#360=CARTESIAN_POINT('',(17.2,0.514707296,1.745644932));
#361=CARTESIAN_POINT('',(17.2,0.514707296,2.236934797));
#362=(BOUNDED_SURFACE()
B_SPLINE_SURFACE(2,3,((#350,#351,#352,#353),(#354,#355,#356,#357),(#358,#359,#360,#361)),.UNSPECIFIED.,.F.,.F.,.U.)
B_SPLINE_SURFACE_WITH_KNOTS((3,3),(4,4),(0.,1.),(-0.001636935,-0.000163065),.UNSPECIFIED.)
GEOMETRIC_REPRESENTATION_ITEM()
RATIONAL_B_SPLINE_SURFACE(((1.,1.,1.,1.),(3.980533307,3.980533307,3.980533307,3.980533307),(1.,1.,1.,1.)))
REPRESENTATION_ITEM('')
SURFACE()
);
#363=ORIENTED_EDGE('',*,*,#206,.F.);
#364=ORIENTED_EDGE('',*,*,#318,.F.);
#365=ORIENTED_EDGE('',*,*,#267,.F.);
#366=ORIENTED_EDGE('',*,*,#131,.F.);
#367=EDGE_LOOP('',(#363,#364,#365,#366));
#368=FACE_BOUND('',#367,.T.);
#369=ADVANCED_FACE('',(#368),#362,.T.);
#370=CARTESIAN_POINT('',(17.6,0.,-0.8));
#371=DIRECTION('',(1.,0.,0.));
#372=DIRECTION('',(0.,-0.,1.));
#373=AXIS2_PLACEMENT_3D('',#370,#371,#372);
#374=PLANE('',#373);
#375=CARTESIAN_POINT('',(17.6,-5.26543474,3.2));
#376=VERTEX_POINT('',#375);
#377=CARTESIAN_POINT('',(17.6,-7.06543474,1.4));
#378=VERTEX_POINT('',#377);
#379=CARTESIAN_POINT('',(17.6,-5.26543474,3.2));
#380=DIRECTION('',(0.,-0.707106781,-0.707106781));
#381=VECTOR('',#380,2.545584412);
#382=LINE('',#379,#381);
#383=EDGE_CURVE('',#376,#378,#382,.T.);
#384=ORIENTED_EDGE('',*,*,#383,.F.);
#385=CARTESIAN_POINT('',(17.6,5.26543474,3.2));
#386=VERTEX_POINT('',#385);
#387=CARTESIAN_POINT('',(17.6,-5.26543474,3.2));
#388=DIRECTION('',(0.,1.,0.));
#389=VECTOR('',#388,10.530869481);
#390=LINE('',#387,#389);
#391=EDGE_CURVE('',#376,#386,#390,.T.);
#392=ORIENTED_EDGE('',*,*,#391,.T.);
#393=CARTESIAN_POINT('',(17.6,7.06543474,1.4));
#394=VERTEX_POINT('',#393);
#395=CARTESIAN_POINT('',(17.6,5.26543474,3.2));
#396=DIRECTION('',(0.,0.707106781,-0.707106781));
#397=VECTOR('',#396,2.545584412);
#398=LINE('',#395,#397);
#399=EDGE_CURVE('',#386,#394,#398,.T.);
#400=ORIENTED_EDGE('',*,*,#399,.T.);
#401=CARTESIAN_POINT('',(17.6,7.06543474,-0.8));
#402=VERTEX_POINT('',#401);
#403=CARTESIAN_POINT('',(17.6,7.06543474,-0.8));
#404=DIRECTION('',(0.,-0.,1.));
#405=VECTOR('',#404,2.2);
#406=LINE('',#403,#405);
#407=EDGE_CURVE('',#402,#394,#406,.T.);
#408=ORIENTED_EDGE('',*,*,#407,.F.);
#409=CARTESIAN_POINT('',(17.6,-7.06543474,-0.8));
#410=VERTEX_POINT('',#409);
#411=CARTESIAN_POINT('',(17.6,-7.06543474,-0.8));
#412=DIRECTION('',(0.,1.,0.));
#413=VECTOR('',#412,14.130869481);
#414=LINE('',#411,#413);
#415=EDGE_CURVE('',#410,#402,#414,.T.);
#416=ORIENTED_EDGE('',*,*,#415,.F.);
#417=CARTESIAN_POINT('',(17.6,-7.06543474,-0.8));
#418=DIRECTION('',(0.,-0.,1.));
#419=VECTOR('',#418,2.2);
#420=LINE('',#417,#419);
#421=EDGE_CURVE('',#410,#378,#420,.T.);
#422=ORIENTED_EDGE('',*,*,#421,.T.);
#423=EDGE_LOOP('',(#384,#392,#400,#408,#416,#422));
#424=FACE_BOUND('',#423,.T.);
#425=CARTESIAN_POINT('',(17.6,5.,0.6));
#426=VERTEX_POINT('',#425);
#427=CARTESIAN_POINT('',(17.6,4.,0.6));
#428=DIRECTION('',(0.,1.,0.));
#429=VECTOR('',#428,1.);
#430=LINE('',#427,#429);
#431=EDGE_CURVE('',#270,#426,#430,.T.);
#432=ORIENTED_EDGE('',*,*,#431,.F.);
#433=ORIENTED_EDGE('',*,*,#325,.T.);
#434=ORIENTED_EDGE('',*,*,#178,.T.);
#435=ORIENTED_EDGE('',*,*,#303,.T.);
#436=CARTESIAN_POINT('',(17.6,-5.,0.6));
#437=VERTEX_POINT('',#436);
#438=CARTESIAN_POINT('',(17.6,-5.,0.6));
#439=DIRECTION('',(0.,1.,0.));
#440=VECTOR('',#439,1.);
#441=LINE('',#438,#440);
#442=EDGE_CURVE('',#437,#217,#441,.T.);
#443=ORIENTED_EDGE('',*,*,#442,.F.);
#444=CARTESIAN_POINT('',(17.6,-5.,0.2));
#445=VERTEX_POINT('',#444);
#446=CARTESIAN_POINT('',(17.6,-5.,0.2));
#447=DIRECTION('',(0.,-0.,1.));
#448=VECTOR('',#447,0.4);
#449=LINE('',#446,#448);
#450=EDGE_CURVE('',#445,#437,#449,.T.);
#451=ORIENTED_EDGE('',*,*,#450,.F.);
#452=CARTESIAN_POINT('',(17.6,5.,0.2));
#453=VERTEX_POINT('',#452);
#454=CARTESIAN_POINT('',(17.6,5.,0.2));
#455=DIRECTION('',(0.,-1.,0.));
#456=VECTOR('',#455,10.);
#457=LINE('',#454,#456);
#458=EDGE_CURVE('',#453,#445,#457,.T.);
#459=ORIENTED_EDGE('',*,*,#458,.F.);
#460=CARTESIAN_POINT('',(17.6,5.,0.6));
#461=DIRECTION('',(0.,0.,-1.));
#462=VECTOR('',#461,0.4);
#463=LINE('',#460,#462);
#464=EDGE_CURVE('',#426,#453,#463,.T.);
#465=ORIENTED_EDGE('',*,*,#464,.F.);
#466=EDGE_LOOP('',(#432,#433,#434,#435,#443,#451,#459,#465));
#467=FACE_BOUND('',#466,.T.);
#468=ADVANCED_FACE('',(#424,#467),#374,.F.);
#469=CARTESIAN_POINT('',(42.4,0.,-0.8));
#470=DIRECTION('',(-1.,0.,0.));
#471=DIRECTION('',(0.,0.,-1.));
#472=AXIS2_PLACEMENT_3D('',#469,#470,#471);
#473=PLANE('',#472);
#474=CARTESIAN_POINT('',(42.4,-4.,0.6));
#475=VERTEX_POINT('',#474);
#476=CARTESIAN_POINT('',(42.4,-5.,0.6));
#477=VERTEX_POINT('',#476);
#478=CARTESIAN_POINT('',(42.4,-4.,0.6));
#479=DIRECTION('',(0.,-1.,-0.));
#480=VECTOR('',#479,1.);
#481=LINE('',#478,#480);
#482=EDGE_CURVE('',#475,#477,#481,.T.);
#483=ORIENTED_EDGE('',*,*,#482,.F.);
#484=CARTESIAN_POINT('',(42.4,-4.,2.4));
#485=VERTEX_POINT('',#484);
#486=CARTESIAN_POINT('',(42.4,-4.,0.6));
#487=DIRECTION('',(0.,-0.,1.));
#488=VECTOR('',#487,1.8);
#489=LINE('',#486,#488);
#490=EDGE_CURVE('',#475,#485,#489,.T.);
#491=ORIENTED_EDGE('',*,*,#490,.T.);
#492=CARTESIAN_POINT('',(42.4,4.,2.4));
#493=VERTEX_POINT('',#492);
#494=CARTESIAN_POINT('',(42.4,-4.,2.4));
#495=DIRECTION('',(-0.,1.,0.));
#496=VECTOR('',#495,8.);
#497=LINE('',#494,#496);
#498=EDGE_CURVE('',#485,#493,#497,.T.);
#499=ORIENTED_EDGE('',*,*,#498,.T.);
#500=CARTESIAN_POINT('',(42.4,4.,0.6));
#501=VERTEX_POINT('',#500);
#502=CARTESIAN_POINT('',(42.4,4.,2.4));
#503=DIRECTION('',(-0.,0.,-1.));
#504=VECTOR('',#503,1.8);
#505=LINE('',#502,#504);
#506=EDGE_CURVE('',#493,#501,#505,.T.);
#507=ORIENTED_EDGE('',*,*,#506,.T.);
#508=CARTESIAN_POINT('',(42.4,5.,0.6));
#509=VERTEX_POINT('',#508);
#510=CARTESIAN_POINT('',(42.4,5.,0.6));
#511=DIRECTION('',(0.,-1.,-0.));
#512=VECTOR('',#511,1.);
#513=LINE('',#510,#512);
#514=EDGE_CURVE('',#509,#501,#513,.T.);
#515=ORIENTED_EDGE('',*,*,#514,.F.);
#516=CARTESIAN_POINT('',(42.4,5.,0.2));
#517=VERTEX_POINT('',#516);
#518=CARTESIAN_POINT('',(42.4,5.,0.2));
#519=DIRECTION('',(0.,-0.,1.));
#520=VECTOR('',#519,0.4);
#521=LINE('',#518,#520);
#522=EDGE_CURVE('',#517,#509,#521,.T.);
#523=ORIENTED_EDGE('',*,*,#522,.F.);
#524=CARTESIAN_POINT('',(42.4,-5.,0.2));
#525=VERTEX_POINT('',#524);
#526=CARTESIAN_POINT('',(42.4,-5.,0.2));
#527=DIRECTION('',(-0.,1.,0.));
#528=VECTOR('',#527,10.);
#529=LINE('',#526,#528);
#530=EDGE_CURVE('',#525,#517,#529,.T.);
#531=ORIENTED_EDGE('',*,*,#530,.F.);
#532=CARTESIAN_POINT('',(42.4,-5.,0.6));
#533=DIRECTION('',(0.,0.,-1.));
#534=VECTOR('',#533,0.4);
#535=LINE('',#532,#534);
#536=EDGE_CURVE('',#477,#525,#535,.T.);
#537=ORIENTED_EDGE('',*,*,#536,.F.);
#538=EDGE_LOOP('',(#483,#491,#499,#507,#515,#523,#531,#537));
#539=FACE_BOUND('',#538,.T.);
#540=CARTESIAN_POINT('',(42.4,-7.06543474,1.4));
#541=VERTEX_POINT('',#540);
#542=CARTESIAN_POINT('',(42.4,-5.26543474,3.2));
#543=VERTEX_POINT('',#542);
#544=CARTESIAN_POINT('',(42.4,-7.06543474,1.4));
#545=DIRECTION('',(0.,0.707106781,0.707106781));
#546=VECTOR('',#545,2.545584412);
#547=LINE('',#544,#546);
#548=EDGE_CURVE('',#541,#543,#547,.T.);
#549=ORIENTED_EDGE('',*,*,#548,.F.);
#550=CARTESIAN_POINT('',(42.4,-7.06543474,-0.8));
#551=VERTEX_POINT('',#550);
#552=CARTESIAN_POINT('',(42.4,-7.06543474,-0.8));
#553=DIRECTION('',(0.,-0.,1.));
#554=VECTOR('',#553,2.2);
#555=LINE('',#552,#554);
#556=EDGE_CURVE('',#551,#541,#555,.T.);
#557=ORIENTED_EDGE('',*,*,#556,.F.);
#558=CARTESIAN_POINT('',(42.4,7.06543474,-0.8));
#559=VERTEX_POINT('',#558);
#560=CARTESIAN_POINT('',(42.4,7.06543474,-0.8));
#561=DIRECTION('',(0.,-1.,-0.));
#562=VECTOR('',#561,14.130869481);
#563=LINE('',#560,#562);
#564=EDGE_CURVE('',#559,#551,#563,.T.);
#565=ORIENTED_EDGE('',*,*,#564,.F.);
#566=CARTESIAN_POINT('',(42.4,7.06543474,1.4));
#567=VERTEX_POINT('',#566);
#568=CARTESIAN_POINT('',(42.4,7.06543474,-0.8));
#569=DIRECTION('',(0.,-0.,1.));
#570=VECTOR('',#569,2.2);
#571=LINE('',#568,#570);
#572=EDGE_CURVE('',#559,#567,#571,.T.);
#573=ORIENTED_EDGE('',*,*,#572,.T.);
#574=CARTESIAN_POINT('',(42.4,5.26543474,3.2));
#575=VERTEX_POINT('',#574);
#576=CARTESIAN_POINT('',(42.4,7.06543474,1.4));
#577=DIRECTION('',(0.,-0.707106781,0.707106781));
#578=VECTOR('',#577,2.545584412);
#579=LINE('',#576,#578);
#580=EDGE_CURVE('',#567,#575,#579,.T.);
#581=ORIENTED_EDGE('',*,*,#580,.T.);
#582=CARTESIAN_POINT('',(42.4,5.26543474,3.2));
#583=DIRECTION('',(0.,-1.,-0.));
#584=VECTOR('',#583,10.530869481);
#585=LINE('',#582,#584);
#586=EDGE_CURVE('',#575,#543,#585,.T.);
#587=ORIENTED_EDGE('',*,*,#586,.T.);
#588=EDGE_LOOP('',(#549,#557,#565,#573,#581,#587));
#589=FACE_BOUND('',#588,.T.);
#590=ADVANCED_FACE('',(#539,#589),#473,.F.);
#591=CARTESIAN_POINT('',(18.1,-7.06543474,-0.802));
#592=DIRECTION('',(0.,1.,0.));
#593=DIRECTION('',(0.,-0.,1.));
#594=AXIS2_PLACEMENT_3D('',#591,#592,#593);
#595=PLANE('',#594);
#596=CARTESIAN_POINT('',(20.4,-7.06543474,1.4));
#597=VERTEX_POINT('',#596);
#598=CARTESIAN_POINT('',(17.6,-7.06543474,1.4));
#599=DIRECTION('',(1.,0.,-0.));
#600=VECTOR('',#599,2.8);
#601=LINE('',#598,#600);
#602=EDGE_CURVE('',#378,#597,#601,.T.);
#603=ORIENTED_EDGE('',*,*,#602,.F.);
#604=ORIENTED_EDGE('',*,*,#421,.F.);
#605=CARTESIAN_POINT('',(18.7,-7.06543474,-0.8));
#606=VERTEX_POINT('',#605);
#607=CARTESIAN_POINT('',(18.7,-7.06543474,-0.8));
#608=DIRECTION('',(-1.,0.,0.));
#609=VECTOR('',#608,1.1);
#610=LINE('',#607,#609);
#611=EDGE_CURVE('',#606,#410,#610,.T.);
#612=ORIENTED_EDGE('',*,*,#611,.F.);
#613=CARTESIAN_POINT('',(18.7,-7.06543474,0.2));
#614=VERTEX_POINT('',#613);
#615=CARTESIAN_POINT('',(18.7,-7.06543474,-0.8));
#616=DIRECTION('',(0.,-0.,1.));
#617=VECTOR('',#616,1.);
#618=LINE('',#615,#617);
#619=EDGE_CURVE('',#606,#614,#618,.T.);
#620=ORIENTED_EDGE('',*,*,#619,.T.);
#621=CARTESIAN_POINT('',(21.6,-7.06543474,0.2));
#622=VERTEX_POINT('',#621);
#623=CARTESIAN_POINT('',(21.6,-7.06543474,0.2));
#624=DIRECTION('',(-1.,-0.,-0.));
#625=VECTOR('',#624,2.9);
#626=LINE('',#623,#625);
#627=EDGE_CURVE('',#622,#614,#626,.T.);
#628=ORIENTED_EDGE('',*,*,#627,.F.);
#629=CARTESIAN_POINT('',(21.6,-7.06543474,0.2));
#630=DIRECTION('',(-0.707106781,-0.,0.707106781));
#631=VECTOR('',#630,1.697056275);
#632=LINE('',#629,#631);
#633=EDGE_CURVE('',#622,#597,#632,.T.);
#634=ORIENTED_EDGE('',*,*,#633,.T.);
#635=EDGE_LOOP('',(#603,#604,#612,#620,#628,#634));
#636=FACE_BOUND('',#635,.T.);
#637=ADVANCED_FACE('',(#636),#595,.F.);
#638=CARTESIAN_POINT('',(30.,0.,3.2));
#639=DIRECTION('',(0.,0.,-1.));
#640=DIRECTION('',(1.,0.,0.));
#641=AXIS2_PLACEMENT_3D('',#638,#639,#640);
#642=PLANE('',#641);
#643=CARTESIAN_POINT('',(41.4,-5.,3.2));
#644=VERTEX_POINT('',#643);
#645=CARTESIAN_POINT('',(41.4,-5.26543474,3.2));
#646=VERTEX_POINT('',#645);
#647=CARTESIAN_POINT('',(41.4,-5.,3.2));
#648=DIRECTION('',(0.,-1.,-0.));
#649=VECTOR('',#648,0.26543474);
#650=LINE('',#647,#649);
#651=EDGE_CURVE('',#644,#646,#650,.T.);
#652=ORIENTED_EDGE('',*,*,#651,.T.);
#653=CARTESIAN_POINT('',(41.4,-5.26543474,3.2));
#654=DIRECTION('',(1.,0.,-0.));
#655=VECTOR('',#654,1.);
#656=LINE('',#653,#655);
#657=EDGE_CURVE('',#646,#543,#656,.T.);
#658=ORIENTED_EDGE('',*,*,#657,.T.);
#659=ORIENTED_EDGE('',*,*,#586,.F.);
#660=CARTESIAN_POINT('',(41.4,5.26543474,3.2));
#661=VERTEX_POINT('',#660);
#662=CARTESIAN_POINT('',(41.4,5.26543474,3.2));
#663=DIRECTION('',(1.,0.,-0.));
#664=VECTOR('',#663,1.);
#665=LINE('',#662,#664);
#666=EDGE_CURVE('',#661,#575,#665,.T.);
#667=ORIENTED_EDGE('',*,*,#666,.F.);
#668=CARTESIAN_POINT('',(41.4,5.,3.2));
#669=VERTEX_POINT('',#668);
#670=CARTESIAN_POINT('',(41.4,5.26543474,3.2));
#671=DIRECTION('',(0.,-1.,-0.));
#672=VECTOR('',#671,0.26543474);
#673=LINE('',#670,#672);
#674=EDGE_CURVE('',#661,#669,#673,.T.);
#675=ORIENTED_EDGE('',*,*,#674,.T.);
#676=CARTESIAN_POINT('',(41.4,-5.,3.2));
#677=DIRECTION('',(0.,1.,0.));
#678=VECTOR('',#677,10.);
#679=LINE('',#676,#678);
#680=EDGE_CURVE('',#644,#669,#679,.T.);
#681=ORIENTED_EDGE('',*,*,#680,.F.);
#682=EDGE_LOOP('',(#652,#658,#659,#667,#675,#681));
#683=FACE_BOUND('',#682,.T.);
#684=ADVANCED_FACE('',(#683),#642,.F.);
#685=CARTESIAN_POINT('',(30.,0.,3.2));
#686=DIRECTION('',(0.,0.,-1.));
#687=DIRECTION('',(1.,0.,0.));
#688=AXIS2_PLACEMENT_3D('',#685,#686,#687);
#689=PLANE('',#688);
#690=ORIENTED_EDGE('',*,*,#391,.F.);
#691=CARTESIAN_POINT('',(18.6,-5.26543474,3.2));
#692=VERTEX_POINT('',#691);
#693=CARTESIAN_POINT('',(17.6,-5.26543474,3.2));
#694=DIRECTION('',(1.,0.,-0.));
#695=VECTOR('',#694,1.);
#696=LINE('',#693,#695);
#697=EDGE_CURVE('',#376,#692,#696,.T.);
#698=ORIENTED_EDGE('',*,*,#697,.T.);
#699=CARTESIAN_POINT('',(18.6,-5.,3.2));
#700=VERTEX_POINT('',#699);
#701=CARTESIAN_POINT('',(18.6,-5.26543474,3.2));
#702=DIRECTION('',(0.,1.,0.));
#703=VECTOR('',#702,0.26543474);
#704=LINE('',#701,#703);
#705=EDGE_CURVE('',#692,#700,#704,.T.);
#706=ORIENTED_EDGE('',*,*,#705,.T.);
#707=CARTESIAN_POINT('',(18.6,5.,3.2));
#708=VERTEX_POINT('',#707);
#709=CARTESIAN_POINT('',(18.6,5.,3.2));
#710=DIRECTION('',(0.,-1.,-0.));
#711=VECTOR('',#710,10.);
#712=LINE('',#709,#711);
#713=EDGE_CURVE('',#708,#700,#712,.T.);
#714=ORIENTED_EDGE('',*,*,#713,.F.);
#715=CARTESIAN_POINT('',(18.6,5.26543474,3.2));
#716=VERTEX_POINT('',#715);
#717=CARTESIAN_POINT('',(18.6,5.,3.2));
#718=DIRECTION('',(0.,1.,0.));
#719=VECTOR('',#718,0.26543474);
#720=LINE('',#717,#719);
#721=EDGE_CURVE('',#708,#716,#720,.T.);
#722=ORIENTED_EDGE('',*,*,#721,.T.);
#723=CARTESIAN_POINT('',(17.6,5.26543474,3.2));
#724=DIRECTION('',(1.,0.,-0.));
#725=VECTOR('',#724,1.);
#726=LINE('',#723,#725);
#727=EDGE_CURVE('',#386,#716,#726,.T.);
#728=ORIENTED_EDGE('',*,*,#727,.F.);
#729=EDGE_LOOP('',(#690,#698,#706,#714,#722,#728));
#730=FACE_BOUND('',#729,.T.);
#731=ADVANCED_FACE('',(#730),#689,.F.);
#732=CARTESIAN_POINT('',(18.1,7.06543474,-0.802));
#733=DIRECTION('',(-0.,1.,0.));
#734=DIRECTION('',(1.,0.,0.));
#735=AXIS2_PLACEMENT_3D('',#732,#733,#734);
#736=PLANE('',#735);
#737=ORIENTED_EDGE('',*,*,#407,.T.);
#738=CARTESIAN_POINT('',(20.4,7.06543474,1.4));
#739=VERTEX_POINT('',#738);
#740=CARTESIAN_POINT('',(17.6,7.06543474,1.4));
#741=DIRECTION('',(1.,0.,-0.));
#742=VECTOR('',#741,2.8);
#743=LINE('',#740,#742);
#744=EDGE_CURVE('',#394,#739,#743,.T.);
#745=ORIENTED_EDGE('',*,*,#744,.T.);
#746=CARTESIAN_POINT('',(21.6,7.06543474,0.2));
#747=VERTEX_POINT('',#746);
#748=CARTESIAN_POINT('',(20.4,7.06543474,1.4));
#749=DIRECTION('',(0.707106781,0.,-0.707106781));
#750=VECTOR('',#749,1.697056275);
#751=LINE('',#748,#750);
#752=EDGE_CURVE('',#739,#747,#751,.T.);
#753=ORIENTED_EDGE('',*,*,#752,.T.);
#754=CARTESIAN_POINT('',(18.7,7.06543474,0.2));
#755=VERTEX_POINT('',#754);
#756=CARTESIAN_POINT('',(21.6,7.06543474,0.2));
#757=DIRECTION('',(-1.,-0.,-0.));
#758=VECTOR('',#757,2.9);
#759=LINE('',#756,#758);
#760=EDGE_CURVE('',#747,#755,#759,.T.);
#761=ORIENTED_EDGE('',*,*,#760,.T.);
#762=CARTESIAN_POINT('',(18.7,7.06543474,-0.8));
#763=VERTEX_POINT('',#762);
#764=CARTESIAN_POINT('',(18.7,7.06543474,-0.8));
#765=DIRECTION('',(0.,-0.,1.));
#766=VECTOR('',#765,1.);
#767=LINE('',#764,#766);
#768=EDGE_CURVE('',#763,#755,#767,.T.);
#769=ORIENTED_EDGE('',*,*,#768,.F.);
#770=CARTESIAN_POINT('',(18.7,7.06543474,-0.8));
#771=DIRECTION('',(-1.,-0.,-0.));
#772=VECTOR('',#771,1.1);
#773=LINE('',#770,#772);
#774=EDGE_CURVE('',#763,#402,#773,.T.);
#775=ORIENTED_EDGE('',*,*,#774,.T.);
#776=EDGE_LOOP('',(#737,#745,#753,#761,#769,#775));
#777=FACE_BOUND('',#776,.T.);
#778=ADVANCED_FACE('',(#777),#736,.T.);
#779=CARTESIAN_POINT('',(41.4,0.,3.2));
#780=DIRECTION('',(-0.707106781,-0.,0.707106781));
#781=DIRECTION('',(-0.,1.,0.));
#782=AXIS2_PLACEMENT_3D('',#779,#780,#781);
#783=PLANE('',#782);
#784=ORIENTED_EDGE('',*,*,#674,.F.);
#785=CARTESIAN_POINT('',(39.6,7.06543474,1.4));
#786=VERTEX_POINT('',#785);
#787=CARTESIAN_POINT('',(41.4,5.26543474,3.2));
#788=DIRECTION('',(-0.577350269,0.577350269,-0.577350269));
#789=VECTOR('',#788,3.117691454);
#790=LINE('',#787,#789);
#791=EDGE_CURVE('',#661,#786,#790,.T.);
#792=ORIENTED_EDGE('',*,*,#791,.T.);
#793=CARTESIAN_POINT('',(38.4,7.06543474,0.2));
#794=VERTEX_POINT('',#793);
#795=CARTESIAN_POINT('',(38.4,7.06543474,0.2));
#796=DIRECTION('',(0.707106781,0.,0.707106781));
#797=VECTOR('',#796,1.697056275);
#798=LINE('',#795,#797);
#799=EDGE_CURVE('',#794,#786,#798,.T.);
#800=ORIENTED_EDGE('',*,*,#799,.F.);
#801=CARTESIAN_POINT('',(38.4,5.,0.2));
#802=VERTEX_POINT('',#801);
#803=CARTESIAN_POINT('',(38.4,5.,0.2));
#804=DIRECTION('',(0.,1.,0.));
#805=VECTOR('',#804,2.06543474);
#806=LINE('',#803,#805);
#807=EDGE_CURVE('',#802,#794,#806,.T.);
#808=ORIENTED_EDGE('',*,*,#807,.F.);
#809=CARTESIAN_POINT('',(41.4,5.,3.2));
#810=DIRECTION('',(-0.707106781,-0.,-0.707106781));
#811=VECTOR('',#810,4.242640687);
#812=LINE('',#809,#811);
#813=EDGE_CURVE('',#669,#802,#812,.T.);
#814=ORIENTED_EDGE('',*,*,#813,.F.);
#815=EDGE_LOOP('',(#784,#792,#800,#808,#814));
#816=FACE_BOUND('',#815,.T.);
#817=ADVANCED_FACE('',(#816),#783,.T.);
#818=CARTESIAN_POINT('',(21.6,6.03271737,0.2));
#819=DIRECTION('',(-0.707106781,0.,-0.707106781));
#820=DIRECTION('',(0.,-1.,-0.));
#821=AXIS2_PLACEMENT_3D('',#818,#819,#820);
#822=PLANE('',#821);
#823=ORIENTED_EDGE('',*,*,#752,.F.);
#824=CARTESIAN_POINT('',(20.4,7.06543474,1.4));
#825=DIRECTION('',(-0.577350269,-0.577350269,0.577350269));
#826=VECTOR('',#825,3.117691454);
#827=LINE('',#824,#826);
#828=EDGE_CURVE('',#739,#716,#827,.T.);
#829=ORIENTED_EDGE('',*,*,#828,.T.);
#830=ORIENTED_EDGE('',*,*,#721,.F.);
#831=CARTESIAN_POINT('',(21.6,5.,0.2));
#832=VERTEX_POINT('',#831);
#833=CARTESIAN_POINT('',(21.6,5.,0.2));
#834=DIRECTION('',(-0.707106781,-0.,0.707106781));
#835=VECTOR('',#834,4.242640687);
#836=LINE('',#833,#835);
#837=EDGE_CURVE('',#832,#708,#836,.T.);
#838=ORIENTED_EDGE('',*,*,#837,.F.);
#839=CARTESIAN_POINT('',(21.6,5.,0.2));
#840=DIRECTION('',(0.,1.,0.));
#841=VECTOR('',#840,2.06543474);
#842=LINE('',#839,#841);
#843=EDGE_CURVE('',#832,#747,#842,.T.);
#844=ORIENTED_EDGE('',*,*,#843,.T.);
#845=EDGE_LOOP('',(#823,#829,#830,#838,#844));
#846=FACE_BOUND('',#845,.T.);
#847=ADVANCED_FACE('',(#846),#822,.F.);
#848=CARTESIAN_POINT('',(18.6,0.,-0.802));
#849=DIRECTION('',(-1.,0.,0.));
#850=DIRECTION('',(0.,0.,-1.));
#851=AXIS2_PLACEMENT_3D('',#848,#849,#850);
#852=PLANE('',#851);
#853=ORIENTED_EDGE('',*,*,#713,.T.);
#854=CARTESIAN_POINT('',(18.6,-5.,0.6));
#855=VERTEX_POINT('',#854);
#856=CARTESIAN_POINT('',(18.6,-5.,3.2));
#857=DIRECTION('',(0.,0.,-1.));
#858=VECTOR('',#857,2.6);
#859=LINE('',#856,#858);
#860=EDGE_CURVE('',#700,#855,#859,.T.);
#861=ORIENTED_EDGE('',*,*,#860,.T.);
#862=CARTESIAN_POINT('',(18.6,5.,0.6));
#863=VERTEX_POINT('',#862);
#864=CARTESIAN_POINT('',(18.6,-5.,0.6));
#865=DIRECTION('',(0.,1.,0.));
#866=VECTOR('',#865,10.);
#867=LINE('',#864,#866);
#868=EDGE_CURVE('',#855,#863,#867,.T.);
#869=ORIENTED_EDGE('',*,*,#868,.T.);
#870=CARTESIAN_POINT('',(18.6,5.,3.2));
#871=DIRECTION('',(0.,0.,-1.));
#872=VECTOR('',#871,2.6);
#873=LINE('',#870,#872);
#874=EDGE_CURVE('',#708,#863,#873,.T.);
#875=ORIENTED_EDGE('',*,*,#874,.F.);
#876=EDGE_LOOP('',(#853,#861,#869,#875));
#877=FACE_BOUND('',#876,.T.);
#878=ADVANCED_FACE('',(#877),#852,.F.);
#879=CARTESIAN_POINT('',(41.4,0.,-0.802));
#880=DIRECTION('',(1.,0.,0.));
#881=DIRECTION('',(0.,-0.,1.));
#882=AXIS2_PLACEMENT_3D('',#879,#880,#881);
#883=PLANE('',#882);
#884=ORIENTED_EDGE('',*,*,#680,.T.);
#885=CARTESIAN_POINT('',(41.4,5.,0.6));
#886=VERTEX_POINT('',#885);
#887=CARTESIAN_POINT('',(41.4,5.,3.2));
#888=DIRECTION('',(0.,0.,-1.));
#889=VECTOR('',#888,2.6);
#890=LINE('',#887,#889);
#891=EDGE_CURVE('',#669,#886,#890,.T.);
#892=ORIENTED_EDGE('',*,*,#891,.T.);
#893=CARTESIAN_POINT('',(41.4,-5.,0.6));
#894=VERTEX_POINT('',#893);
#895=CARTESIAN_POINT('',(41.4,5.,0.6));
#896=DIRECTION('',(0.,-1.,-0.));
#897=VECTOR('',#896,10.);
#898=LINE('',#895,#897);
#899=EDGE_CURVE('',#886,#894,#898,.T.);
#900=ORIENTED_EDGE('',*,*,#899,.T.);
#901=CARTESIAN_POINT('',(41.4,-5.,3.2));
#902=DIRECTION('',(0.,0.,-1.));
#903=VECTOR('',#902,2.6);
#904=LINE('',#901,#903);
#905=EDGE_CURVE('',#644,#894,#904,.T.);
#906=ORIENTED_EDGE('',*,*,#905,.F.);
#907=EDGE_LOOP('',(#884,#892,#900,#906));
#908=FACE_BOUND('',#907,.T.);
#909=ADVANCED_FACE('',(#908),#883,.F.);
#910=CARTESIAN_POINT('',(30.,0.,0.2));
#911=DIRECTION('',(0.,0.,-1.));
#912=DIRECTION('',(1.,0.,0.));
#913=AXIS2_PLACEMENT_3D('',#910,#911,#912);
#914=PLANE('',#913);
#915=CARTESIAN_POINT('',(21.6,-5.,0.2));
#916=VERTEX_POINT('',#915);
#917=CARTESIAN_POINT('',(21.6,-5.,0.2));
#918=DIRECTION('',(-1.,0.,0.));
#919=VECTOR('',#918,4.);
#920=LINE('',#917,#919);
#921=EDGE_CURVE('',#916,#445,#920,.T.);
#922=ORIENTED_EDGE('',*,*,#921,.F.);
#923=CARTESIAN_POINT('',(21.6,-5.,0.2));
#924=DIRECTION('',(0.,-1.,-0.));
#925=VECTOR('',#924,2.06543474);
#926=LINE('',#923,#925);
#927=EDGE_CURVE('',#916,#622,#926,.T.);
#928=ORIENTED_EDGE('',*,*,#927,.T.);
#929=ORIENTED_EDGE('',*,*,#627,.T.);
#930=CARTESIAN_POINT('',(18.7,-7.124013384,0.2));
#931=VERTEX_POINT('',#930);
#932=CARTESIAN_POINT('',(18.7,-7.06543474,0.2));
#933=DIRECTION('',(0.,-1.,-0.));
#934=VECTOR('',#933,0.058578644);
#935=LINE('',#932,#934);
#936=EDGE_CURVE('',#614,#931,#935,.T.);
#937=ORIENTED_EDGE('',*,*,#936,.T.);
#938=CARTESIAN_POINT('',(22.875986616,-11.3,0.2));
#939=VERTEX_POINT('',#938);
#940=CARTESIAN_POINT('',(18.7,-7.124013384,0.2));
#941=DIRECTION('',(0.707106781,-0.707106781,-0.));
#942=VECTOR('',#941,5.905736908);
#943=LINE('',#940,#942);
#944=EDGE_CURVE('',#931,#939,#943,.T.);
#945=ORIENTED_EDGE('',*,*,#944,.T.);
#946=CARTESIAN_POINT('',(37.124013384,-11.3,0.2));
#947=VERTEX_POINT('',#946);
#948=CARTESIAN_POINT('',(22.875986616,-11.3,0.2));
#949=DIRECTION('',(1.,0.,-0.));
#950=VECTOR('',#949,14.248026768);
#951=LINE('',#948,#950);
#952=EDGE_CURVE('',#939,#947,#951,.T.);
#953=ORIENTED_EDGE('',*,*,#952,.T.);
#954=CARTESIAN_POINT('',(41.3,-7.124013384,0.2));
#955=VERTEX_POINT('',#954);
#956=CARTESIAN_POINT('',(41.3,-7.124013384,0.2));
#957=DIRECTION('',(-0.707106781,-0.707106781,-0.));
#958=VECTOR('',#957,5.905736908);
#959=LINE('',#956,#958);
#960=EDGE_CURVE('',#955,#947,#959,.T.);
#961=ORIENTED_EDGE('',*,*,#960,.F.);
#962=CARTESIAN_POINT('',(41.3,-7.06543474,0.2));
#963=VERTEX_POINT('',#962);
#964=CARTESIAN_POINT('',(41.3,-7.124013384,0.2));
#965=DIRECTION('',(0.,1.,0.));
#966=VECTOR('',#965,0.058578644);
#967=LINE('',#964,#966);
#968=EDGE_CURVE('',#955,#963,#967,.T.);
#969=ORIENTED_EDGE('',*,*,#968,.T.);
#970=CARTESIAN_POINT('',(38.4,-7.06543474,0.2));
#971=VERTEX_POINT('',#970);
#972=CARTESIAN_POINT('',(38.4,-7.06543474,0.2));
#973=DIRECTION('',(1.,0.,0.));
#974=VECTOR('',#973,2.9);
#975=LINE('',#972,#974);
#976=EDGE_CURVE('',#971,#963,#975,.T.);
#977=ORIENTED_EDGE('',*,*,#976,.F.);
#978=CARTESIAN_POINT('',(38.4,-5.,0.2));
#979=VERTEX_POINT('',#978);
#980=CARTESIAN_POINT('',(38.4,-5.,0.2));
#981=DIRECTION('',(0.,-1.,-0.));
#982=VECTOR('',#981,2.06543474);
#983=LINE('',#980,#982);
#984=EDGE_CURVE('',#979,#971,#983,.T.);
#985=ORIENTED_EDGE('',*,*,#984,.F.);
#986=CARTESIAN_POINT('',(38.4,-5.,0.2));
#987=DIRECTION('',(1.,0.,0.));
#988=VECTOR('',#987,4.);
#989=LINE('',#986,#988);
#990=EDGE_CURVE('',#979,#525,#989,.T.);
#991=ORIENTED_EDGE('',*,*,#990,.T.);
#992=ORIENTED_EDGE('',*,*,#530,.T.);
#993=CARTESIAN_POINT('',(38.4,5.,0.2));
#994=DIRECTION('',(1.,0.,0.));
#995=VECTOR('',#994,4.);
#996=LINE('',#993,#995);
#997=EDGE_CURVE('',#802,#517,#996,.T.);
#998=ORIENTED_EDGE('',*,*,#997,.F.);
#999=ORIENTED_EDGE('',*,*,#807,.T.);
#1000=CARTESIAN_POINT('',(41.3,7.06543474,0.2));
#1001=VERTEX_POINT('',#1000);
#1002=CARTESIAN_POINT('',(38.4,7.06543474,0.2));
#1003=DIRECTION('',(1.,0.,0.));
#1004=VECTOR('',#1003,2.9);
#1005=LINE('',#1002,#1004);
#1006=EDGE_CURVE('',#794,#1001,#1005,.T.);
#1007=ORIENTED_EDGE('',*,*,#1006,.T.);
#1008=CARTESIAN_POINT('',(41.3,7.124013384,0.2));
#1009=VERTEX_POINT('',#1008);
#1010=CARTESIAN_POINT('',(41.3,7.06543474,0.2));
#1011=DIRECTION('',(0.,1.,0.));
#1012=VECTOR('',#1011,0.058578644);
#1013=LINE('',#1010,#1012);
#1014=EDGE_CURVE('',#1001,#1009,#1013,.T.);
#1015=ORIENTED_EDGE('',*,*,#1014,.T.);
#1016=CARTESIAN_POINT('',(37.124013384,11.3,0.2));
#1017=VERTEX_POINT('',#1016);
#1018=CARTESIAN_POINT('',(41.3,7.124013384,0.2));
#1019=DIRECTION('',(-0.707106781,0.707106781,0.));
#1020=VECTOR('',#1019,5.905736908);
#1021=LINE('',#1018,#1020);
#1022=EDGE_CURVE('',#1009,#1017,#1021,.T.);
#1023=ORIENTED_EDGE('',*,*,#1022,.T.);
#1024=CARTESIAN_POINT('',(22.875986616,11.3,0.2));
#1025=VERTEX_POINT('',#1024);
#1026=CARTESIAN_POINT('',(37.124013384,11.3,0.2));
#1027=DIRECTION('',(-1.,0.,0.));
#1028=VECTOR('',#1027,14.248026768);
#1029=LINE('',#1026,#1028);
#1030=EDGE_CURVE('',#1017,#1025,#1029,.T.);
#1031=ORIENTED_EDGE('',*,*,#1030,.T.);
#1032=CARTESIAN_POINT('',(18.7,7.124013384,0.2));
#1033=VERTEX_POINT('',#1032);
#1034=CARTESIAN_POINT('',(22.875986616,11.3,0.2));
#1035=DIRECTION('',(-0.707106781,-0.707106781,-0.));
#1036=VECTOR('',#1035,5.905736908);
#1037=LINE('',#1034,#1036);
#1038=EDGE_CURVE('',#1025,#1033,#1037,.T.);
#1039=ORIENTED_EDGE('',*,*,#1038,.T.);
#1040=CARTESIAN_POINT('',(18.7,7.124013384,0.2));
#1041=DIRECTION('',(0.,-1.,-0.));
#1042=VECTOR('',#1041,0.058578644);
#1043=LINE('',#1040,#1042);
#1044=EDGE_CURVE('',#1033,#755,#1043,.T.);
#1045=ORIENTED_EDGE('',*,*,#1044,.T.);
#1046=ORIENTED_EDGE('',*,*,#760,.F.);
#1047=ORIENTED_EDGE('',*,*,#843,.F.);
#1048=CARTESIAN_POINT('',(21.6,5.,0.2));
#1049=DIRECTION('',(-1.,0.,0.));
#1050=VECTOR('',#1049,4.);
#1051=LINE('',#1048,#1050);
#1052=EDGE_CURVE('',#832,#453,#1051,.T.);
#1053=ORIENTED_EDGE('',*,*,#1052,.T.);
#1054=ORIENTED_EDGE('',*,*,#458,.T.);
#1055=EDGE_LOOP('',(#922,#928,#929,#937,#945,#953,#961,#969,#977,#985,#991,#992,#998,#999,#1007,#1015,#1023,#1031,#1039,#1045,#1046,#1047,#1053,#1054));
#1056=FACE_BOUND('',#1055,.T.);
#1057=ADVANCED_FACE('',(#1056),#914,.F.);
#1058=CARTESIAN_POINT('',(30.,0.,-0.8));
#1059=DIRECTION('',(0.,0.,-1.));
#1060=DIRECTION('',(1.,0.,0.));
#1061=AXIS2_PLACEMENT_3D('',#1058,#1059,#1060);
#1062=PLANE('',#1061);
#1063=CARTESIAN_POINT('',(41.3,7.124013384,-0.8));
#1064=VERTEX_POINT('',#1063);
#1065=CARTESIAN_POINT('',(41.3,7.06543474,-0.8));
#1066=VERTEX_POINT('',#1065);
#1067=CARTESIAN_POINT('',(41.3,7.124013384,-0.8));
#1068=DIRECTION('',(0.,-1.,-0.));
#1069=VECTOR('',#1068,0.058578644);
#1070=LINE('',#1067,#1069);
#1071=EDGE_CURVE('',#1064,#1066,#1070,.T.);
#1072=ORIENTED_EDGE('',*,*,#1071,.T.);
#1073=CARTESIAN_POINT('',(41.3,7.06543474,-0.8));
#1074=DIRECTION('',(1.,0.,0.));
#1075=VECTOR('',#1074,1.1);
#1076=LINE('',#1073,#1075);
#1077=EDGE_CURVE('',#1066,#559,#1076,.T.);
#1078=ORIENTED_EDGE('',*,*,#1077,.T.);
#1079=ORIENTED_EDGE('',*,*,#564,.T.);
#1080=CARTESIAN_POINT('',(41.3,-7.06543474,-0.8));
#1081=VERTEX_POINT('',#1080);
#1082=CARTESIAN_POINT('',(41.3,-7.06543474,-0.8));
#1083=DIRECTION('',(1.,0.,-0.));
#1084=VECTOR('',#1083,1.1);
#1085=LINE('',#1082,#1084);
#1086=EDGE_CURVE('',#1081,#551,#1085,.T.);
#1087=ORIENTED_EDGE('',*,*,#1086,.F.);
#1088=CARTESIAN_POINT('',(41.3,-7.124013384,-0.8));
#1089=VERTEX_POINT('',#1088);
#1090=CARTESIAN_POINT('',(41.3,-7.06543474,-0.8));
#1091=DIRECTION('',(0.,-1.,-0.));
#1092=VECTOR('',#1091,0.058578644);
#1093=LINE('',#1090,#1092);
#1094=EDGE_CURVE('',#1081,#1089,#1093,.T.);
#1095=ORIENTED_EDGE('',*,*,#1094,.T.);
#1096=CARTESIAN_POINT('',(37.124013384,-11.3,-0.8));
#1097=VERTEX_POINT('',#1096);
#1098=CARTESIAN_POINT('',(37.124013384,-11.3,-0.8));
#1099=DIRECTION('',(0.707106781,0.707106781,0.));
#1100=VECTOR('',#1099,5.905736908);
#1101=LINE('',#1098,#1100);
#1102=EDGE_CURVE('',#1097,#1089,#1101,.T.);
#1103=ORIENTED_EDGE('',*,*,#1102,.F.);
#1104=CARTESIAN_POINT('',(22.875986616,-11.3,-0.8));
#1105=VERTEX_POINT('',#1104);
#1106=CARTESIAN_POINT('',(37.124013384,-11.3,-0.8));
#1107=DIRECTION('',(-1.,0.,0.));
#1108=VECTOR('',#1107,14.248026768);
#1109=LINE('',#1106,#1108);
#1110=EDGE_CURVE('',#1097,#1105,#1109,.T.);
#1111=ORIENTED_EDGE('',*,*,#1110,.T.);
#1112=CARTESIAN_POINT('',(18.7,-7.124013384,-0.8));
#1113=VERTEX_POINT('',#1112);
#1114=CARTESIAN_POINT('',(22.875986616,-11.3,-0.8));
#1115=DIRECTION('',(-0.707106781,0.707106781,0.));
#1116=VECTOR('',#1115,5.905736908);
#1117=LINE('',#1114,#1116);
#1118=EDGE_CURVE('',#1105,#1113,#1117,.T.);
#1119=ORIENTED_EDGE('',*,*,#1118,.T.);
#1120=CARTESIAN_POINT('',(18.7,-7.124013384,-0.8));
#1121=DIRECTION('',(0.,1.,0.));
#1122=VECTOR('',#1121,0.058578644);
#1123=LINE('',#1120,#1122);
#1124=EDGE_CURVE('',#1113,#606,#1123,.T.);
#1125=ORIENTED_EDGE('',*,*,#1124,.T.);
#1126=ORIENTED_EDGE('',*,*,#611,.T.);
#1127=ORIENTED_EDGE('',*,*,#415,.T.);
#1128=ORIENTED_EDGE('',*,*,#774,.F.);
#1129=CARTESIAN_POINT('',(18.7,7.124013384,-0.8));
#1130=VERTEX_POINT('',#1129);
#1131=CARTESIAN_POINT('',(18.7,7.06543474,-0.8));
#1132=DIRECTION('',(0.,1.,0.));
#1133=VECTOR('',#1132,0.058578644);
#1134=LINE('',#1131,#1133);
#1135=EDGE_CURVE('',#763,#1130,#1134,.T.);
#1136=ORIENTED_EDGE('',*,*,#1135,.T.);
#1137=CARTESIAN_POINT('',(22.875986616,11.3,-0.8));
#1138=VERTEX_POINT('',#1137);
#1139=CARTESIAN_POINT('',(18.7,7.124013384,-0.8));
#1140=DIRECTION('',(0.707106781,0.707106781,0.));
#1141=VECTOR('',#1140,5.905736908);
#1142=LINE('',#1139,#1141);
#1143=EDGE_CURVE('',#1130,#1138,#1142,.T.);
#1144=ORIENTED_EDGE('',*,*,#1143,.T.);
#1145=CARTESIAN_POINT('',(37.124013384,11.3,-0.8));
#1146=VERTEX_POINT('',#1145);
#1147=CARTESIAN_POINT('',(22.875986616,11.3,-0.8));
#1148=DIRECTION('',(1.,0.,-0.));
#1149=VECTOR('',#1148,14.248026768);
#1150=LINE('',#1147,#1149);
#1151=EDGE_CURVE('',#1138,#1146,#1150,.T.);
#1152=ORIENTED_EDGE('',*,*,#1151,.T.);
#1153=CARTESIAN_POINT('',(37.124013384,11.3,-0.8));
#1154=DIRECTION('',(0.707106781,-0.707106781,-0.));
#1155=VECTOR('',#1154,5.905736908);
#1156=LINE('',#1153,#1155);
#1157=EDGE_CURVE('',#1146,#1064,#1156,.T.);
#1158=ORIENTED_EDGE('',*,*,#1157,.T.);
#1159=EDGE_LOOP('',(#1072,#1078,#1079,#1087,#1095,#1103,#1111,#1119,#1125,#1126,#1127,#1128,#1136,#1144,#1152,#1158));
#1160=FACE_BOUND('',#1159,.T.);
#1161=ADVANCED_FACE('',(#1160),#1062,.T.);
#1162=CARTESIAN_POINT('',(18.602,2.5,0.6));
#1163=DIRECTION('',(0.,-0.,1.));
#1164=DIRECTION('',(0.,-1.,-0.));
#1165=AXIS2_PLACEMENT_3D('',#1162,#1163,#1164);
#1166=PLANE('',#1165);
#1167=CARTESIAN_POINT('',(18.6,-5.,0.6));
#1168=DIRECTION('',(-1.,0.,0.));
#1169=VECTOR('',#1168,1.);
#1170=LINE('',#1167,#1169);
#1171=EDGE_CURVE('',#855,#437,#1170,.T.);
#1172=ORIENTED_EDGE('',*,*,#1171,.T.);
#1173=ORIENTED_EDGE('',*,*,#442,.T.);
#1174=ORIENTED_EDGE('',*,*,#281,.T.);
#1175=ORIENTED_EDGE('',*,*,#431,.T.);
#1176=CARTESIAN_POINT('',(18.6,5.,0.6));
#1177=DIRECTION('',(-1.,0.,0.));
#1178=VECTOR('',#1177,1.);
#1179=LINE('',#1176,#1178);
#1180=EDGE_CURVE('',#863,#426,#1179,.T.);
#1181=ORIENTED_EDGE('',*,*,#1180,.F.);
#1182=ORIENTED_EDGE('',*,*,#868,.F.);
#1183=EDGE_LOOP('',(#1172,#1173,#1174,#1175,#1181,#1182));
#1184=FACE_BOUND('',#1183,.T.);
#1185=ADVANCED_FACE('',(#1184),#1166,.F.);
#1186=CARTESIAN_POINT('',(18.602,5.,0.4));
#1187=DIRECTION('',(0.,1.,0.));
#1188=DIRECTION('',(0.,-0.,1.));
#1189=AXIS2_PLACEMENT_3D('',#1186,#1187,#1188);
#1190=PLANE('',#1189);
#1191=ORIENTED_EDGE('',*,*,#1052,.F.);
#1192=ORIENTED_EDGE('',*,*,#837,.T.);
#1193=ORIENTED_EDGE('',*,*,#874,.T.);
#1194=ORIENTED_EDGE('',*,*,#1180,.T.);
#1195=ORIENTED_EDGE('',*,*,#464,.T.);
#1196=EDGE_LOOP('',(#1191,#1192,#1193,#1194,#1195));
#1197=FACE_BOUND('',#1196,.T.);
#1198=ADVANCED_FACE('',(#1197),#1190,.F.);
#1199=CARTESIAN_POINT('',(18.602,-5.,0.4));
#1200=DIRECTION('',(0.,-1.,-0.));
#1201=DIRECTION('',(0.,0.,-1.));
#1202=AXIS2_PLACEMENT_3D('',#1199,#1200,#1201);
#1203=PLANE('',#1202);
#1204=ORIENTED_EDGE('',*,*,#860,.F.);
#1205=CARTESIAN_POINT('',(18.6,-5.,3.2));
#1206=DIRECTION('',(0.707106781,0.,-0.707106781));
#1207=VECTOR('',#1206,4.242640687);
#1208=LINE('',#1205,#1207);
#1209=EDGE_CURVE('',#700,#916,#1208,.T.);
#1210=ORIENTED_EDGE('',*,*,#1209,.T.);
#1211=ORIENTED_EDGE('',*,*,#921,.T.);
#1212=ORIENTED_EDGE('',*,*,#450,.T.);
#1213=ORIENTED_EDGE('',*,*,#1171,.F.);
#1214=EDGE_LOOP('',(#1204,#1210,#1211,#1212,#1213));
#1215=FACE_BOUND('',#1214,.T.);
#1216=ADVANCED_FACE('',(#1215),#1203,.F.);
#1217=CARTESIAN_POINT('',(41.398,-2.5,0.6));
#1218=DIRECTION('',(0.,-0.,1.));
#1219=DIRECTION('',(-0.,1.,0.));
#1220=AXIS2_PLACEMENT_3D('',#1217,#1218,#1219);
#1221=PLANE('',#1220);
#1222=CARTESIAN_POINT('',(41.4,5.,0.6));
#1223=DIRECTION('',(1.,0.,0.));
#1224=VECTOR('',#1223,1.);
#1225=LINE('',#1222,#1224);
#1226=EDGE_CURVE('',#886,#509,#1225,.T.);
#1227=ORIENTED_EDGE('',*,*,#1226,.T.);
#1228=ORIENTED_EDGE('',*,*,#514,.T.);
#1229=CARTESIAN_POINT('',(42.4,4.,0.6));
#1230=DIRECTION('',(0.,-1.,-0.));
#1231=VECTOR('',#1230,8.);
#1232=LINE('',#1229,#1231);
#1233=EDGE_CURVE('',#501,#475,#1232,.T.);
#1234=ORIENTED_EDGE('',*,*,#1233,.T.);
#1235=ORIENTED_EDGE('',*,*,#482,.T.);
#1236=CARTESIAN_POINT('',(41.4,-5.,0.6));
#1237=DIRECTION('',(1.,0.,0.));
#1238=VECTOR('',#1237,1.);
#1239=LINE('',#1236,#1238);
#1240=EDGE_CURVE('',#894,#477,#1239,.T.);
#1241=ORIENTED_EDGE('',*,*,#1240,.F.);
#1242=ORIENTED_EDGE('',*,*,#899,.F.);
#1243=EDGE_LOOP('',(#1227,#1228,#1234,#1235,#1241,#1242));
#1244=FACE_BOUND('',#1243,.T.);
#1245=ADVANCED_FACE('',(#1244),#1221,.F.);
#1246=CARTESIAN_POINT('',(41.398,-5.,0.4));
#1247=DIRECTION('',(0.,-1.,-0.));
#1248=DIRECTION('',(0.,-0.,1.));
#1249=AXIS2_PLACEMENT_3D('',#1246,#1247,#1248);
#1250=PLANE('',#1249);
#1251=ORIENTED_EDGE('',*,*,#990,.F.);
#1252=CARTESIAN_POINT('',(38.4,-5.,0.2));
#1253=DIRECTION('',(0.707106781,0.,0.707106781));
#1254=VECTOR('',#1253,4.242640687);
#1255=LINE('',#1252,#1254);
#1256=EDGE_CURVE('',#979,#644,#1255,.T.);
#1257=ORIENTED_EDGE('',*,*,#1256,.T.);
#1258=ORIENTED_EDGE('',*,*,#905,.T.);
#1259=ORIENTED_EDGE('',*,*,#1240,.T.);
#1260=ORIENTED_EDGE('',*,*,#536,.T.);
#1261=EDGE_LOOP('',(#1251,#1257,#1258,#1259,#1260));
#1262=FACE_BOUND('',#1261,.T.);
#1263=ADVANCED_FACE('',(#1262),#1250,.F.);
#1264=CARTESIAN_POINT('',(41.398,5.,0.4));
#1265=DIRECTION('',(-0.,1.,0.));
#1266=DIRECTION('',(0.,0.,-1.));
#1267=AXIS2_PLACEMENT_3D('',#1264,#1265,#1266);
#1268=PLANE('',#1267);
#1269=ORIENTED_EDGE('',*,*,#891,.F.);
#1270=ORIENTED_EDGE('',*,*,#813,.T.);
#1271=ORIENTED_EDGE('',*,*,#997,.T.);
#1272=ORIENTED_EDGE('',*,*,#522,.T.);
#1273=ORIENTED_EDGE('',*,*,#1226,.F.);
#1274=EDGE_LOOP('',(#1269,#1270,#1271,#1272,#1273));
#1275=FACE_BOUND('',#1274,.T.);
#1276=ADVANCED_FACE('',(#1275),#1268,.F.);
#1277=CARTESIAN_POINT('',(41.3,-7.094724062,-0.802));
#1278=DIRECTION('',(-1.,0.,0.));
#1279=DIRECTION('',(0.,0.,-1.));
#1280=AXIS2_PLACEMENT_3D('',#1277,#1278,#1279);
#1281=PLANE('',#1280);
#1282=CARTESIAN_POINT('',(41.3,-7.124013384,-0.8));
#1283=DIRECTION('',(0.,-0.,1.));
#1284=VECTOR('',#1283,1.);
#1285=LINE('',#1282,#1284);
#1286=EDGE_CURVE('',#1089,#955,#1285,.T.);
#1287=ORIENTED_EDGE('',*,*,#1286,.F.);
#1288=ORIENTED_EDGE('',*,*,#1094,.F.);
#1289=CARTESIAN_POINT('',(41.3,-7.06543474,-0.8));
#1290=DIRECTION('',(0.,-0.,1.));
#1291=VECTOR('',#1290,1.);
#1292=LINE('',#1289,#1291);
#1293=EDGE_CURVE('',#1081,#963,#1292,.T.);
#1294=ORIENTED_EDGE('',*,*,#1293,.T.);
#1295=ORIENTED_EDGE('',*,*,#968,.F.);
#1296=EDGE_LOOP('',(#1287,#1288,#1294,#1295));
#1297=FACE_BOUND('',#1296,.T.);
#1298=ADVANCED_FACE('',(#1297),#1281,.F.);
#1299=CARTESIAN_POINT('',(39.212006692,-9.212006692,-0.802));
#1300=DIRECTION('',(0.707106781,-0.707106781,-0.));
#1301=DIRECTION('',(-0.707106781,-0.707106781,-0.));
#1302=AXIS2_PLACEMENT_3D('',#1299,#1300,#1301);
#1303=PLANE('',#1302);
#1304=ORIENTED_EDGE('',*,*,#960,.T.);
#1305=CARTESIAN_POINT('',(37.124013384,-11.3,-0.8));
#1306=DIRECTION('',(0.,-0.,1.));
#1307=VECTOR('',#1306,1.);
#1308=LINE('',#1305,#1307);
#1309=EDGE_CURVE('',#1097,#947,#1308,.T.);
#1310=ORIENTED_EDGE('',*,*,#1309,.F.);
#1311=ORIENTED_EDGE('',*,*,#1102,.T.);
#1312=ORIENTED_EDGE('',*,*,#1286,.T.);
#1313=EDGE_LOOP('',(#1304,#1310,#1311,#1312));
#1314=FACE_BOUND('',#1313,.T.);
#1315=ADVANCED_FACE('',(#1314),#1303,.T.);
#1316=CARTESIAN_POINT('',(18.7,-7.094724062,-0.802));
#1317=DIRECTION('',(1.,0.,0.));
#1318=DIRECTION('',(0.,-0.,1.));
#1319=AXIS2_PLACEMENT_3D('',#1316,#1317,#1318);
#1320=PLANE('',#1319);
#1321=ORIENTED_EDGE('',*,*,#619,.F.);
#1322=ORIENTED_EDGE('',*,*,#1124,.F.);
#1323=CARTESIAN_POINT('',(18.7,-7.124013384,-0.8));
#1324=DIRECTION('',(0.,-0.,1.));
#1325=VECTOR('',#1324,1.);
#1326=LINE('',#1323,#1325);
#1327=EDGE_CURVE('',#1113,#931,#1326,.T.);
#1328=ORIENTED_EDGE('',*,*,#1327,.T.);
#1329=ORIENTED_EDGE('',*,*,#936,.F.);
#1330=EDGE_LOOP('',(#1321,#1322,#1328,#1329));
#1331=FACE_BOUND('',#1330,.T.);
#1332=ADVANCED_FACE('',(#1331),#1320,.F.);
#1333=CARTESIAN_POINT('',(30.,-11.3,-0.802));
#1334=DIRECTION('',(0.,1.,0.));
#1335=DIRECTION('',(0.,-0.,1.));
#1336=AXIS2_PLACEMENT_3D('',#1333,#1334,#1335);
#1337=PLANE('',#1336);
#1338=CARTESIAN_POINT('',(22.875986616,-11.3,-0.8));
#1339=DIRECTION('',(0.,-0.,1.));
#1340=VECTOR('',#1339,1.);
#1341=LINE('',#1338,#1340);
#1342=EDGE_CURVE('',#1105,#939,#1341,.T.);
#1343=ORIENTED_EDGE('',*,*,#1342,.F.);
#1344=ORIENTED_EDGE('',*,*,#1110,.F.);
#1345=ORIENTED_EDGE('',*,*,#1309,.T.);
#1346=ORIENTED_EDGE('',*,*,#952,.F.);
#1347=EDGE_LOOP('',(#1343,#1344,#1345,#1346));
#1348=FACE_BOUND('',#1347,.T.);
#1349=ADVANCED_FACE('',(#1348),#1337,.F.);
#1350=CARTESIAN_POINT('',(20.787993308,-9.212006692,-0.802));
#1351=DIRECTION('',(0.707106781,0.707106781,0.));
#1352=DIRECTION('',(0.707106781,-0.707106781,-0.));
#1353=AXIS2_PLACEMENT_3D('',#1350,#1351,#1352);
#1354=PLANE('',#1353);
#1355=ORIENTED_EDGE('',*,*,#1327,.F.);
#1356=ORIENTED_EDGE('',*,*,#1118,.F.);
#1357=ORIENTED_EDGE('',*,*,#1342,.T.);
#1358=ORIENTED_EDGE('',*,*,#944,.F.);
#1359=EDGE_LOOP('',(#1355,#1356,#1357,#1358));
#1360=FACE_BOUND('',#1359,.T.);
#1361=ADVANCED_FACE('',(#1360),#1354,.F.);
#1362=CARTESIAN_POINT('',(30.5,-7.06543474,-0.802));
#1363=DIRECTION('',(0.,-1.,-0.));
#1364=DIRECTION('',(0.,0.,-1.));
#1365=AXIS2_PLACEMENT_3D('',#1362,#1363,#1364);
#1366=PLANE('',#1365);
#1367=CARTESIAN_POINT('',(39.6,-7.06543474,1.4));
#1368=VERTEX_POINT('',#1367);
#1369=CARTESIAN_POINT('',(39.6,-7.06543474,1.4));
#1370=DIRECTION('',(1.,0.,-0.));
#1371=VECTOR('',#1370,2.8);
#1372=LINE('',#1369,#1371);
#1373=EDGE_CURVE('',#1368,#541,#1372,.T.);
#1374=ORIENTED_EDGE('',*,*,#1373,.F.);
#1375=CARTESIAN_POINT('',(39.6,-7.06543474,1.4));
#1376=DIRECTION('',(-0.707106781,0.,-0.707106781));
#1377=VECTOR('',#1376,1.697056275);
#1378=LINE('',#1375,#1377);
#1379=EDGE_CURVE('',#1368,#971,#1378,.T.);
#1380=ORIENTED_EDGE('',*,*,#1379,.T.);
#1381=ORIENTED_EDGE('',*,*,#976,.T.);
#1382=ORIENTED_EDGE('',*,*,#1293,.F.);
#1383=ORIENTED_EDGE('',*,*,#1086,.T.);
#1384=ORIENTED_EDGE('',*,*,#556,.T.);
#1385=EDGE_LOOP('',(#1374,#1380,#1381,#1382,#1383,#1384));
#1386=FACE_BOUND('',#1385,.T.);
#1387=ADVANCED_FACE('',(#1386),#1366,.T.);
#1388=CARTESIAN_POINT('',(18.7,7.094724062,-0.802));
#1389=DIRECTION('',(1.,0.,0.));
#1390=DIRECTION('',(0.,-0.,1.));
#1391=AXIS2_PLACEMENT_3D('',#1388,#1389,#1390);
#1392=PLANE('',#1391);
#1393=CARTESIAN_POINT('',(18.7,7.124013384,-0.8));
#1394=DIRECTION('',(0.,-0.,1.));
#1395=VECTOR('',#1394,1.);
#1396=LINE('',#1393,#1395);
#1397=EDGE_CURVE('',#1130,#1033,#1396,.T.);
#1398=ORIENTED_EDGE('',*,*,#1397,.F.);
#1399=ORIENTED_EDGE('',*,*,#1135,.F.);
#1400=ORIENTED_EDGE('',*,*,#768,.T.);
#1401=ORIENTED_EDGE('',*,*,#1044,.F.);
#1402=EDGE_LOOP('',(#1398,#1399,#1400,#1401));
#1403=FACE_BOUND('',#1402,.T.);
#1404=ADVANCED_FACE('',(#1403),#1392,.F.);
#1405=CARTESIAN_POINT('',(20.787993308,9.212006692,-0.802));
#1406=DIRECTION('',(0.707106781,-0.707106781,-0.));
#1407=DIRECTION('',(-0.707106781,-0.707106781,-0.));
#1408=AXIS2_PLACEMENT_3D('',#1405,#1406,#1407);
#1409=PLANE('',#1408);
#1410=CARTESIAN_POINT('',(22.875986616,11.3,-0.8));
#1411=DIRECTION('',(0.,-0.,1.));
#1412=VECTOR('',#1411,1.);
#1413=LINE('',#1410,#1412);
#1414=EDGE_CURVE('',#1138,#1025,#1413,.T.);
#1415=ORIENTED_EDGE('',*,*,#1414,.F.);
#1416=ORIENTED_EDGE('',*,*,#1143,.F.);
#1417=ORIENTED_EDGE('',*,*,#1397,.T.);
#1418=ORIENTED_EDGE('',*,*,#1038,.F.);
#1419=EDGE_LOOP('',(#1415,#1416,#1417,#1418));
#1420=FACE_BOUND('',#1419,.T.);
#1421=ADVANCED_FACE('',(#1420),#1409,.F.);
#1422=CARTESIAN_POINT('',(30.,11.3,-0.802));
#1423=DIRECTION('',(0.,-1.,-0.));
#1424=DIRECTION('',(0.,0.,-1.));
#1425=AXIS2_PLACEMENT_3D('',#1422,#1423,#1424);
#1426=PLANE('',#1425);
#1427=CARTESIAN_POINT('',(37.124013384,11.3,-0.8));
#1428=DIRECTION('',(0.,-0.,1.));
#1429=VECTOR('',#1428,1.);
#1430=LINE('',#1427,#1429);
#1431=EDGE_CURVE('',#1146,#1017,#1430,.T.);
#1432=ORIENTED_EDGE('',*,*,#1431,.F.);
#1433=ORIENTED_EDGE('',*,*,#1151,.F.);
#1434=ORIENTED_EDGE('',*,*,#1414,.T.);
#1435=ORIENTED_EDGE('',*,*,#1030,.F.);
#1436=EDGE_LOOP('',(#1432,#1433,#1434,#1435));
#1437=FACE_BOUND('',#1436,.T.);
#1438=ADVANCED_FACE('',(#1437),#1426,.F.);
#1439=CARTESIAN_POINT('',(39.212006692,9.212006692,-0.802));
#1440=DIRECTION('',(-0.707106781,-0.707106781,-0.));
#1441=DIRECTION('',(-0.707106781,0.707106781,0.));
#1442=AXIS2_PLACEMENT_3D('',#1439,#1440,#1441);
#1443=PLANE('',#1442);
#1444=CARTESIAN_POINT('',(41.3,7.124013384,-0.8));
#1445=DIRECTION('',(0.,-0.,1.));
#1446=VECTOR('',#1445,1.);
#1447=LINE('',#1444,#1446);
#1448=EDGE_CURVE('',#1064,#1009,#1447,.T.);
#1449=ORIENTED_EDGE('',*,*,#1448,.F.);
#1450=ORIENTED_EDGE('',*,*,#1157,.F.);
#1451=ORIENTED_EDGE('',*,*,#1431,.T.);
#1452=ORIENTED_EDGE('',*,*,#1022,.F.);
#1453=EDGE_LOOP('',(#1449,#1450,#1451,#1452));
#1454=FACE_BOUND('',#1453,.T.);
#1455=ADVANCED_FACE('',(#1454),#1443,.F.);
#1456=CARTESIAN_POINT('',(41.3,7.094724062,-0.802));
#1457=DIRECTION('',(-1.,0.,0.));
#1458=DIRECTION('',(0.,0.,-1.));
#1459=AXIS2_PLACEMENT_3D('',#1456,#1457,#1458);
#1460=PLANE('',#1459);
#1461=CARTESIAN_POINT('',(41.3,7.06543474,-0.8));
#1462=DIRECTION('',(0.,-0.,1.));
#1463=VECTOR('',#1462,1.);
#1464=LINE('',#1461,#1463);
#1465=EDGE_CURVE('',#1066,#1001,#1464,.T.);
#1466=ORIENTED_EDGE('',*,*,#1465,.F.);
#1467=ORIENTED_EDGE('',*,*,#1071,.F.);
#1468=ORIENTED_EDGE('',*,*,#1448,.T.);
#1469=ORIENTED_EDGE('',*,*,#1014,.F.);
#1470=EDGE_LOOP('',(#1466,#1467,#1468,#1469));
#1471=FACE_BOUND('',#1470,.T.);
#1472=ADVANCED_FACE('',(#1471),#1460,.F.);
#1473=CARTESIAN_POINT('',(30.5,7.06543474,-0.802));
#1474=DIRECTION('',(0.,-1.,-0.));
#1475=DIRECTION('',(-1.,-0.,-0.));
#1476=AXIS2_PLACEMENT_3D('',#1473,#1474,#1475);
#1477=PLANE('',#1476);
#1478=ORIENTED_EDGE('',*,*,#799,.T.);
#1479=CARTESIAN_POINT('',(39.6,7.06543474,1.4));
#1480=DIRECTION('',(1.,0.,-0.));
#1481=VECTOR('',#1480,2.8);
#1482=LINE('',#1479,#1481);
#1483=EDGE_CURVE('',#786,#567,#1482,.T.);
#1484=ORIENTED_EDGE('',*,*,#1483,.T.);
#1485=ORIENTED_EDGE('',*,*,#572,.F.);
#1486=ORIENTED_EDGE('',*,*,#1077,.F.);
#1487=ORIENTED_EDGE('',*,*,#1465,.T.);
#1488=ORIENTED_EDGE('',*,*,#1006,.F.);
#1489=EDGE_LOOP('',(#1478,#1484,#1485,#1486,#1487,#1488));
#1490=FACE_BOUND('',#1489,.T.);
#1491=ADVANCED_FACE('',(#1490),#1477,.F.);
#1492=CARTESIAN_POINT('',(38.4,-6.03271737,0.2));
#1493=DIRECTION('',(0.707106781,0.,-0.707106781));
#1494=DIRECTION('',(-0.,1.,0.));
#1495=AXIS2_PLACEMENT_3D('',#1492,#1493,#1494);
#1496=PLANE('',#1495);
#1497=CARTESIAN_POINT('',(41.4,-5.26543474,3.2));
#1498=DIRECTION('',(-0.577350269,-0.577350269,-0.577350269));
#1499=VECTOR('',#1498,3.117691454);
#1500=LINE('',#1497,#1499);
#1501=EDGE_CURVE('',#646,#1368,#1500,.T.);
#1502=ORIENTED_EDGE('',*,*,#1501,.F.);
#1503=ORIENTED_EDGE('',*,*,#651,.F.);
#1504=ORIENTED_EDGE('',*,*,#1256,.F.);
#1505=ORIENTED_EDGE('',*,*,#984,.T.);
#1506=ORIENTED_EDGE('',*,*,#1379,.F.);
#1507=EDGE_LOOP('',(#1502,#1503,#1504,#1505,#1506));
#1508=FACE_BOUND('',#1507,.T.);
#1509=ADVANCED_FACE('',(#1508),#1496,.F.);
#1510=CARTESIAN_POINT('',(18.6,0.,3.2));
#1511=DIRECTION('',(0.707106781,-0.,0.707106781));
#1512=DIRECTION('',(0.,-1.,-0.));
#1513=AXIS2_PLACEMENT_3D('',#1510,#1511,#1512);
#1514=PLANE('',#1513);
#1515=CARTESIAN_POINT('',(20.4,-7.06543474,1.4));
#1516=DIRECTION('',(-0.577350269,0.577350269,0.577350269));
#1517=VECTOR('',#1516,3.117691454);
#1518=LINE('',#1515,#1517);
#1519=EDGE_CURVE('',#597,#692,#1518,.T.);
#1520=ORIENTED_EDGE('',*,*,#1519,.F.);
#1521=ORIENTED_EDGE('',*,*,#633,.F.);
#1522=ORIENTED_EDGE('',*,*,#927,.F.);
#1523=ORIENTED_EDGE('',*,*,#1209,.F.);
#1524=ORIENTED_EDGE('',*,*,#705,.F.);
#1525=EDGE_LOOP('',(#1520,#1521,#1522,#1523,#1524));
#1526=FACE_BOUND('',#1525,.T.);
#1527=ADVANCED_FACE('',(#1526),#1514,.T.);
#1528=CARTESIAN_POINT('',(17.598,6.16543474,2.3));
#1529=DIRECTION('',(0.,0.707106781,0.707106781));
#1530=DIRECTION('',(0.,-0.707106781,0.707106781));
#1531=AXIS2_PLACEMENT_3D('',#1528,#1529,#1530);
#1532=PLANE('',#1531);
#1533=ORIENTED_EDGE('',*,*,#744,.F.);
#1534=ORIENTED_EDGE('',*,*,#399,.F.);
#1535=ORIENTED_EDGE('',*,*,#727,.T.);
#1536=ORIENTED_EDGE('',*,*,#828,.F.);
#1537=EDGE_LOOP('',(#1533,#1534,#1535,#1536));
#1538=FACE_BOUND('',#1537,.T.);
#1539=ADVANCED_FACE('',(#1538),#1532,.T.);
#1540=CARTESIAN_POINT('',(17.598,6.16543474,2.3));
#1541=DIRECTION('',(0.,0.707106781,0.707106781));
#1542=DIRECTION('',(0.,-0.707106781,0.707106781));
#1543=AXIS2_PLACEMENT_3D('',#1540,#1541,#1542);
#1544=PLANE('',#1543);
#1545=ORIENTED_EDGE('',*,*,#666,.T.);
#1546=ORIENTED_EDGE('',*,*,#580,.F.);
#1547=ORIENTED_EDGE('',*,*,#1483,.F.);
#1548=ORIENTED_EDGE('',*,*,#791,.F.);
#1549=EDGE_LOOP('',(#1545,#1546,#1547,#1548));
#1550=FACE_BOUND('',#1549,.T.);
#1551=ADVANCED_FACE('',(#1550),#1544,.T.);
#1552=CARTESIAN_POINT('',(17.598,-6.16543474,2.3));
#1553=DIRECTION('',(0.,0.707106781,-0.707106781));
#1554=DIRECTION('',(0.,0.707106781,0.707106781));
#1555=AXIS2_PLACEMENT_3D('',#1552,#1553,#1554);
#1556=PLANE('',#1555);
#1557=ORIENTED_EDGE('',*,*,#1519,.T.);
#1558=ORIENTED_EDGE('',*,*,#697,.F.);
#1559=ORIENTED_EDGE('',*,*,#383,.T.);
#1560=ORIENTED_EDGE('',*,*,#602,.T.);
#1561=EDGE_LOOP('',(#1557,#1558,#1559,#1560));
#1562=FACE_BOUND('',#1561,.T.);
#1563=ADVANCED_FACE('',(#1562),#1556,.F.);
#1564=CARTESIAN_POINT('',(17.598,-6.16543474,2.3));
#1565=DIRECTION('',(0.,0.707106781,-0.707106781));
#1566=DIRECTION('',(0.,0.707106781,0.707106781));
#1567=AXIS2_PLACEMENT_3D('',#1564,#1565,#1566);
#1568=PLANE('',#1567);
#1569=ORIENTED_EDGE('',*,*,#1501,.T.);
#1570=ORIENTED_EDGE('',*,*,#1373,.T.);
#1571=ORIENTED_EDGE('',*,*,#548,.T.);
#1572=ORIENTED_EDGE('',*,*,#657,.F.);
#1573=EDGE_LOOP('',(#1569,#1570,#1571,#1572));
#1574=FACE_BOUND('',#1573,.T.);
#1575=ADVANCED_FACE('',(#1574),#1568,.F.);
#1576=CARTESIAN_POINT('',(42.8,0.,2.4));
#1577=DIRECTION('',(1.,0.,0.));
#1578=DIRECTION('',(0.,-1.,-0.));
#1579=AXIS2_PLACEMENT_3D('',#1576,#1577,#1578);
#1580=PLANE('',#1579);
#1581=CARTESIAN_POINT('',(42.8,-0.514707296,1.2));
#1582=VERTEX_POINT('',#1581);
#1583=CARTESIAN_POINT('',(42.8,0.514707296,1.2));
#1584=VERTEX_POINT('',#1583);
#1585=CARTESIAN_POINT('',(42.8,-0.514707296,1.2));
#1586=DIRECTION('',(-0.,1.,0.));
#1587=VECTOR('',#1586,1.029414592);
#1588=LINE('',#1585,#1587);
#1589=EDGE_CURVE('',#1582,#1584,#1588,.T.);
#1590=ORIENTED_EDGE('',*,*,#1589,.T.);
#1591=CARTESIAN_POINT('',(42.8,0.514707296,1.8));
#1592=VERTEX_POINT('',#1591);
#1593=CARTESIAN_POINT('',(42.8,0.514707296,1.2));
#1594=DIRECTION('',(-0.,-0.,1.));
#1595=VECTOR('',#1594,0.6);
#1596=LINE('',#1593,#1595);
#1597=EDGE_CURVE('',#1584,#1592,#1596,.T.);
#1598=ORIENTED_EDGE('',*,*,#1597,.T.);
#1599=CARTESIAN_POINT('',(42.8,-0.514707296,1.8));
#1600=VERTEX_POINT('',#1599);
#1601=CARTESIAN_POINT('',(42.8,0.514707296,1.8));
#1602=DIRECTION('',(0.,-1.,-0.));
#1603=VECTOR('',#1602,1.029414592);
#1604=LINE('',#1601,#1603);
#1605=EDGE_CURVE('',#1592,#1600,#1604,.T.);
#1606=ORIENTED_EDGE('',*,*,#1605,.T.);
#1607=CARTESIAN_POINT('',(42.8,-0.514707296,1.8));
#1608=DIRECTION('',(0.,0.,-1.));
#1609=VECTOR('',#1608,0.6);
#1610=LINE('',#1607,#1609);
#1611=EDGE_CURVE('',#1600,#1582,#1610,.T.);
#1612=ORIENTED_EDGE('',*,*,#1611,.T.);
#1613=EDGE_LOOP('',(#1590,#1598,#1606,#1612));
#1614=FACE_BOUND('',#1613,.T.);
#1615=ADVANCED_FACE('',(#1614),#1580,.T.);
#1616=CARTESIAN_POINT('',(42.4,2.5,2.4));
#1617=DIRECTION('',(-0.832050294,0.,-0.554700196));
#1618=DIRECTION('',(-0.,1.,0.));
#1619=AXIS2_PLACEMENT_3D('',#1616,#1617,#1618);
#1620=PLANE('',#1619);
#1621=ORIENTED_EDGE('',*,*,#1605,.F.);
#1622=CARTESIAN_POINT('',(42.508710135,3.456449323,2.236934797));
#1623=VERTEX_POINT('',#1622);
#1624=CARTESIAN_POINT('',(42.8,0.514707296,1.8));
#1625=CARTESIAN_POINT('',(42.8,1.005367069,1.8));
#1626=CARTESIAN_POINT('',(42.797761057,1.269759516,1.803358414));
#1627=CARTESIAN_POINT('',(42.795806703,1.500545476,1.806289946));
#1628=CARTESIAN_POINT('',(42.791444523,1.647078709,1.812833216));
#1629=CARTESIAN_POINT('',(42.788348201,1.751089554,1.817477698));
#1630=CARTESIAN_POINT('',(42.783401285,1.835215596,1.824898073));
#1631=CARTESIAN_POINT('',(42.777721534,1.931804047,1.833417699));
#1632=CARTESIAN_POINT('',(42.768259232,2.021516996,1.847611152));
#1633=CARTESIAN_POINT('',(42.759218543,2.107232595,1.861172186));
#1634=CARTESIAN_POINT('',(42.744621066,2.205370753,1.883068401));
#1635=CARTESIAN_POINT('',(42.732732776,2.285295172,1.900900836));
#1636=CARTESIAN_POINT('',(42.715178662,2.386509109,1.927232007));
#1637=CARTESIAN_POINT('',(42.69080779,2.527027276,1.963788315));
#1638=CARTESIAN_POINT('',(42.649002692,2.74479635,2.026495962));
#1639=CARTESIAN_POINT('',(42.600281053,2.998594737,2.099578421));
#1640=CARTESIAN_POINT('',(42.508710135,3.456449323,2.236934797));
#1641=B_SPLINE_CURVE_WITH_KNOTS('',2,(#1624,#1625,#1626,#1627,#1628,#1629,#1630,#1631,#1632,#1633,#1634,#1635,#1636,#1637,#1638,#1639,#1640),.UNSPECIFIED.,.F.,.F.,(3,2,2,2,2,2,2,2,3),(0.,0.25,0.375,0.4375,0.5,0.5625,0.625,0.75,1.),.UNSPECIFIED.);
#1642=EDGE_CURVE('',#1592,#1623,#1641,.T.);
#1643=ORIENTED_EDGE('',*,*,#1642,.T.);
#1644=CARTESIAN_POINT('',(42.508710135,3.456449323,2.236934797));
#1645=DIRECTION('',(-0.188144174,0.940720868,0.282216261));
#1646=VECTOR('',#1645,0.577802295);
#1647=LINE('',#1644,#1646);
#1648=EDGE_CURVE('',#1623,#493,#1647,.T.);
#1649=ORIENTED_EDGE('',*,*,#1648,.T.);
#1650=ORIENTED_EDGE('',*,*,#498,.F.);
#1651=CARTESIAN_POINT('',(42.508710135,-3.456449323,2.236934797));
#1652=VERTEX_POINT('',#1651);
#1653=CARTESIAN_POINT('',(42.4,-4.,2.4));
#1654=DIRECTION('',(0.188144174,0.940720868,-0.282216261));
#1655=VECTOR('',#1654,0.577802295);
#1656=LINE('',#1653,#1655);
#1657=EDGE_CURVE('',#485,#1652,#1656,.T.);
#1658=ORIENTED_EDGE('',*,*,#1657,.T.);
#1659=CARTESIAN_POINT('',(42.508710135,-3.456449323,2.236934797));
#1660=CARTESIAN_POINT('',(42.600084505,-2.999577475,2.099873243));
#1661=CARTESIAN_POINT('',(42.648953108,-2.745054623,2.026570339));
#1662=CARTESIAN_POINT('',(42.690549675,-2.528406787,1.964175487));
#1663=CARTESIAN_POINT('',(42.71510734,-2.386920189,1.927338991));
#1664=CARTESIAN_POINT('',(42.73249556,-2.286739647,1.90125666));
#1665=CARTESIAN_POINT('',(42.744550497,-2.205844759,1.883174254));
#1666=CARTESIAN_POINT('',(42.759000659,-2.108876671,1.861499012));
#1667=CARTESIAN_POINT('',(42.76817255,-2.022336844,1.847741175));
#1668=CARTESIAN_POINT('',(42.777599169,-1.933393581,1.833601246));
#1669=CARTESIAN_POINT('',(42.783379614,-1.835583177,1.824930579));
#1670=CARTESIAN_POINT('',(42.788289667,-1.752500581,1.817565499));
#1671=CARTESIAN_POINT('',(42.791433418,-1.647450765,1.812849873));
#1672=CARTESIAN_POINT('',(42.795786737,-1.501982679,1.806319895));
#1673=CARTESIAN_POINT('',(42.797758924,-1.270010889,1.803361614));
#1674=CARTESIAN_POINT('',(42.8,-1.006412048,1.8));
#1675=CARTESIAN_POINT('',(42.8,-0.514707296,1.8));
#1676=B_SPLINE_CURVE_WITH_KNOTS('',2,(#1659,#1660,#1661,#1662,#1663,#1664,#1665,#1666,#1667,#1668,#1669,#1670,#1671,#1672,#1673,#1674,#1675),.UNSPECIFIED.,.F.,.F.,(3,2,2,2,2,2,2,2,3),(0.,0.25,0.375,0.4375,0.5,0.5625,0.625,0.75,1.),.UNSPECIFIED.);
#1677=EDGE_CURVE('',#1652,#1600,#1676,.T.);
#1678=ORIENTED_EDGE('',*,*,#1677,.T.);
#1679=EDGE_LOOP('',(#1621,#1643,#1649,#1650,#1658,#1678));
#1680=FACE_BOUND('',#1679,.T.);
#1681=ADVANCED_FACE('',(#1680),#1620,.F.);
#1682=CARTESIAN_POINT('',(42.4,-2.,0.6));
#1683=DIRECTION('',(-0.832050294,-0.,0.554700196));
#1684=DIRECTION('',(0.,-1.,-0.));
#1685=AXIS2_PLACEMENT_3D('',#1682,#1683,#1684);
#1686=PLANE('',#1685);
#1687=CARTESIAN_POINT('',(42.508710135,3.456449323,0.763065203));
#1688=VERTEX_POINT('',#1687);
#1689=CARTESIAN_POINT('',(42.4,4.,0.6));
#1690=DIRECTION('',(0.188144174,-0.940720868,0.282216261));
#1691=VECTOR('',#1690,0.577802295);
#1692=LINE('',#1689,#1691);
#1693=EDGE_CURVE('',#501,#1688,#1692,.T.);
#1694=ORIENTED_EDGE('',*,*,#1693,.T.);
#1695=CARTESIAN_POINT('',(42.508710135,3.456449323,0.763065203));
#1696=CARTESIAN_POINT('',(42.600084505,2.999577475,0.900126757));
#1697=CARTESIAN_POINT('',(42.648953108,2.745054623,0.973429661));
#1698=CARTESIAN_POINT('',(42.690549675,2.528406787,1.035824513));
#1699=CARTESIAN_POINT('',(42.71510734,2.386920189,1.072661009));
#1700=CARTESIAN_POINT('',(42.73249556,2.286739647,1.09874334));
#1701=CARTESIAN_POINT('',(42.744550497,2.205844759,1.116825746));
#1702=CARTESIAN_POINT('',(42.759000659,2.108876671,1.138500988));
#1703=CARTESIAN_POINT('',(42.76817255,2.022336844,1.152258825));
#1704=CARTESIAN_POINT('',(42.777599169,1.933393581,1.166398754));
#1705=CARTESIAN_POINT('',(42.783379614,1.835583177,1.175069421));
#1706=CARTESIAN_POINT('',(42.788289667,1.752500581,1.182434501));
#1707=CARTESIAN_POINT('',(42.791433418,1.647450765,1.187150127));
#1708=CARTESIAN_POINT('',(42.795786737,1.501982679,1.193680105));
#1709=CARTESIAN_POINT('',(42.797758924,1.270010889,1.196638386));
#1710=CARTESIAN_POINT('',(42.8,1.006412048,1.2));
#1711=CARTESIAN_POINT('',(42.8,0.514707296,1.2));
#1712=B_SPLINE_CURVE_WITH_KNOTS('',2,(#1695,#1696,#1697,#1698,#1699,#1700,#1701,#1702,#1703,#1704,#1705,#1706,#1707,#1708,#1709,#1710,#1711),.UNSPECIFIED.,.F.,.F.,(3,2,2,2,2,2,2,2,3),(0.,0.25,0.375,0.4375,0.5,0.5625,0.625,0.75,1.),.UNSPECIFIED.);
#1713=EDGE_CURVE('',#1688,#1584,#1712,.T.);
#1714=ORIENTED_EDGE('',*,*,#1713,.T.);
#1715=ORIENTED_EDGE('',*,*,#1589,.F.);
#1716=CARTESIAN_POINT('',(42.508710135,-3.456449323,0.763065203));
#1717=VERTEX_POINT('',#1716);
#1718=CARTESIAN_POINT('',(42.8,-0.514707296,1.2));
#1719=CARTESIAN_POINT('',(42.8,-1.005367069,1.2));
#1720=CARTESIAN_POINT('',(42.797761057,-1.269759516,1.196641586));
#1721=CARTESIAN_POINT('',(42.795806703,-1.500545476,1.193710054));
#1722=CARTESIAN_POINT('',(42.791444523,-1.647078709,1.187166784));
#1723=CARTESIAN_POINT('',(42.788348201,-1.751089554,1.182522302));
#1724=CARTESIAN_POINT('',(42.783401285,-1.835215596,1.175101927));
#1725=CARTESIAN_POINT('',(42.777721534,-1.931804047,1.166582301));
#1726=CARTESIAN_POINT('',(42.768259232,-2.021516996,1.152388848));
#1727=CARTESIAN_POINT('',(42.759218543,-2.107232595,1.138827814));
#1728=CARTESIAN_POINT('',(42.744621066,-2.205370753,1.116931599));
#1729=CARTESIAN_POINT('',(42.732732776,-2.285295172,1.099099164));
#1730=CARTESIAN_POINT('',(42.715178662,-2.386509109,1.072767993));
#1731=CARTESIAN_POINT('',(42.69080779,-2.527027276,1.036211685));
#1732=CARTESIAN_POINT('',(42.649002692,-2.74479635,0.973504038));
#1733=CARTESIAN_POINT('',(42.600281053,-2.998594737,0.900421579));
#1734=CARTESIAN_POINT('',(42.508710135,-3.456449323,0.763065203));
#1735=B_SPLINE_CURVE_WITH_KNOTS('',2,(#1718,#1719,#1720,#1721,#1722,#1723,#1724,#1725,#1726,#1727,#1728,#1729,#1730,#1731,#1732,#1733,#1734),.UNSPECIFIED.,.F.,.F.,(3,2,2,2,2,2,2,2,3),(0.,0.25,0.375,0.4375,0.5,0.5625,0.625,0.75,1.),.UNSPECIFIED.);
#1736=EDGE_CURVE('',#1582,#1717,#1735,.T.);
#1737=ORIENTED_EDGE('',*,*,#1736,.T.);
#1738=CARTESIAN_POINT('',(42.508710135,-3.456449323,0.763065203));
#1739=DIRECTION('',(-0.188144174,-0.940720868,-0.282216261));
#1740=VECTOR('',#1739,0.577802295);
#1741=LINE('',#1738,#1740);
#1742=EDGE_CURVE('',#1717,#475,#1741,.T.);
#1743=ORIENTED_EDGE('',*,*,#1742,.T.);
#1744=ORIENTED_EDGE('',*,*,#1233,.F.);
#1745=EDGE_LOOP('',(#1694,#1714,#1715,#1737,#1743,#1744));
#1746=FACE_BOUND('',#1745,.T.);
#1747=ADVANCED_FACE('',(#1746),#1686,.F.);
#1748=CARTESIAN_POINT('',(42.4,4.,1.5));
#1749=DIRECTION('',(-0.980580676,-0.196116135,-0.));
#1750=DIRECTION('',(-0.,0.,-1.));
#1751=AXIS2_PLACEMENT_3D('',#1748,#1749,#1750);
#1752=PLANE('',#1751);
#1753=ORIENTED_EDGE('',*,*,#1648,.F.);
#1754=CARTESIAN_POINT('',(42.508710135,3.456449323,2.236934797));
#1755=DIRECTION('',(-0.,0.,-1.));
#1756=VECTOR('',#1755,1.473869594);
#1757=LINE('',#1754,#1756);
#1758=EDGE_CURVE('',#1623,#1688,#1757,.T.);
#1759=ORIENTED_EDGE('',*,*,#1758,.T.);
#1760=ORIENTED_EDGE('',*,*,#1693,.F.);
#1761=ORIENTED_EDGE('',*,*,#506,.F.);
#1762=EDGE_LOOP('',(#1753,#1759,#1760,#1761));
#1763=FACE_BOUND('',#1762,.T.);
#1764=ADVANCED_FACE('',(#1763),#1752,.F.);
#1765=CARTESIAN_POINT('',(42.4,-4.,1.5));
#1766=DIRECTION('',(-0.980580676,0.196116135,0.));
#1767=DIRECTION('',(0.,-0.,1.));
#1768=AXIS2_PLACEMENT_3D('',#1765,#1766,#1767);
#1769=PLANE('',#1768);
#1770=ORIENTED_EDGE('',*,*,#1742,.F.);
#1771=CARTESIAN_POINT('',(42.508710135,-3.456449323,0.763065203));
#1772=DIRECTION('',(0.,-0.,1.));
#1773=VECTOR('',#1772,1.473869594);
#1774=LINE('',#1771,#1773);
#1775=EDGE_CURVE('',#1717,#1652,#1774,.T.);
#1776=ORIENTED_EDGE('',*,*,#1775,.T.);
#1777=ORIENTED_EDGE('',*,*,#1657,.F.);
#1778=ORIENTED_EDGE('',*,*,#490,.F.);
#1779=EDGE_LOOP('',(#1770,#1776,#1777,#1778));
#1780=FACE_BOUND('',#1779,.T.);
#1781=ADVANCED_FACE('',(#1780),#1769,.F.);
#1782=CARTESIAN_POINT('',(42.508710135,3.456449323,2.236934797));
#1783=CARTESIAN_POINT('',(42.508710135,3.456449323,1.745644932));
#1784=CARTESIAN_POINT('',(42.508710135,3.456449323,1.254355068));
#1785=CARTESIAN_POINT('',(42.508710135,3.456449323,0.763065203));
#1786=CARTESIAN_POINT('',(42.8,2.,2.236934797));
#1787=CARTESIAN_POINT('',(42.8,2.,1.745644932));
#1788=CARTESIAN_POINT('',(42.8,2.,1.254355068));
#1789=CARTESIAN_POINT('',(42.8,2.,0.763065203));
#1790=CARTESIAN_POINT('',(42.8,0.514707296,2.236934797));
#1791=CARTESIAN_POINT('',(42.8,0.514707296,1.745644932));
#1792=CARTESIAN_POINT('',(42.8,0.514707296,1.254355068));
#1793=CARTESIAN_POINT('',(42.8,0.514707296,0.763065203));
#1794=(BOUNDED_SURFACE()
B_SPLINE_SURFACE(2,3,((#1782,#1783,#1784,#1785),(#1786,#1787,#1788,#1789),(#1790,#1791,#1792,#1793)),.UNSPECIFIED.,.F.,.F.,.U.)
B_SPLINE_SURFACE_WITH_KNOTS((3,3),(4,4),(0.,1.),(0.000163065,0.001636935),.UNSPECIFIED.)
GEOMETRIC_REPRESENTATION_ITEM()
RATIONAL_B_SPLINE_SURFACE(((1.,1.,1.,1.),(3.980533307,3.980533307,3.980533307,3.980533307),(1.,1.,1.,1.)))
REPRESENTATION_ITEM('')
SURFACE()
);
#1795=ORIENTED_EDGE('',*,*,#1713,.F.);
#1796=ORIENTED_EDGE('',*,*,#1758,.F.);
#1797=ORIENTED_EDGE('',*,*,#1642,.F.);
#1798=ORIENTED_EDGE('',*,*,#1597,.F.);
#1799=EDGE_LOOP('',(#1795,#1796,#1797,#1798));
#1800=FACE_BOUND('',#1799,.T.);
#1801=ADVANCED_FACE('',(#1800),#1794,.T.);
#1802=CARTESIAN_POINT('',(42.508710135,-3.456449323,0.763065203));
#1803=CARTESIAN_POINT('',(42.508710135,-3.456449323,1.254355068));
#1804=CARTESIAN_POINT('',(42.508710135,-3.456449323,1.745644932));
#1805=CARTESIAN_POINT('',(42.508710135,-3.456449323,2.236934797));
#1806=CARTESIAN_POINT('',(42.8,-2.,0.763065203));
#1807=CARTESIAN_POINT('',(42.8,-2.,1.254355068));
#1808=CARTESIAN_POINT('',(42.8,-2.,1.745644932));
#1809=CARTESIAN_POINT('',(42.8,-2.,2.236934797));
#1810=CARTESIAN_POINT('',(42.8,-0.514707296,0.763065203));
#1811=CARTESIAN_POINT('',(42.8,-0.514707296,1.254355068));
#1812=CARTESIAN_POINT('',(42.8,-0.514707296,1.745644932));
#1813=CARTESIAN_POINT('',(42.8,-0.514707296,2.236934797));
#1814=(BOUNDED_SURFACE()
B_SPLINE_SURFACE(2,3,((#1802,#1803,#1804,#1805),(#1806,#1807,#1808,#1809),(#1810,#1811,#1812,#1813)),.UNSPECIFIED.,.F.,.F.,.U.)
B_SPLINE_SURFACE_WITH_KNOTS((3,3),(4,4),(0.,1.),(-0.001636935,-0.000163065),.UNSPECIFIED.)
GEOMETRIC_REPRESENTATION_ITEM()
RATIONAL_B_SPLINE_SURFACE(((1.,1.,1.,1.),(3.980533307,3.980533307,3.980533307,3.980533307),(1.,1.,1.,1.)))
REPRESENTATION_ITEM('')
SURFACE()
);
#1815=ORIENTED_EDGE('',*,*,#1677,.F.);
#1816=ORIENTED_EDGE('',*,*,#1775,.F.);
#1817=ORIENTED_EDGE('',*,*,#1736,.F.);
#1818=ORIENTED_EDGE('',*,*,#1611,.F.);
#1819=EDGE_LOOP('',(#1815,#1816,#1817,#1818));
#1820=FACE_BOUND('',#1819,.T.);
#1821=ADVANCED_FACE('',(#1820),#1814,.T.);
#1822=CLOSED_SHELL('',(#135,#210,#285,#307,#329,#349,#369,#468,#590,#637,#684,#731,#778,#817,#847,#878,#909,#1057,#1161,#1185,#1198,#1216,#1245,#1263,#1276,#1298,
#1315,#1332,#1349,#1361,#1387,#1404,#1421,#1438,#1455,#1472,#1491,#1509,#1527,#1539,#1551,#1563,#1575,#1615,#1681,#1747,#1764,#1781,#1801,#1821));
#1823=MANIFOLD_SOLID_BREP('Body 02 (1)',#1822);
#1824=COLOUR_RGB('',0.494117647,0.494117647,0.525490224);
#1825=FILL_AREA_STYLE_COLOUR('',#1824);
#1826=FILL_AREA_STYLE('',(#1825));
#1827=SURFACE_STYLE_FILL_AREA(#1826);
#1828=SURFACE_SIDE_STYLE('',(#1827));
#1829=SURFACE_STYLE_USAGE(.BOTH.,#1828);
#1830=PRESENTATION_STYLE_ASSIGNMENT((#1829));
#95=STYLED_ITEM('',(#1830),#1823);
#76=SHAPE_REPRESENTATION('Snap (1)',(#15),#74);
#77=ADVANCED_BREP_SHAPE_REPRESENTATION('Snap (1)',(#1823),#74);
#1838=SHAPE_REPRESENTATION_RELATIONSHIP('','',#76,#77);
#1839=CARTESIAN_POINT('',(0.,0.,0.));
#1840=DIRECTION('',(0.,0.,1.));
#1841=DIRECTION('',(1.,0.,0.));
#1842=AXIS2_PLACEMENT_3D('',#1839,#1840,#1841);
#1844=MAPPED_ITEM('',#1843,#1842);
#1843=REPRESENTATION_MAP(#1842,#76);
#84=PRODUCT('Snap (1)','Snap (1)','',(#62));
#1845=PRODUCT_RELATED_PRODUCT_CATEGORY('part','',(#84));
#1846=PRODUCT_DEFINITION_FORMATION_WITH_SPECIFIED_SOURCE('','',#84,.NOT_KNOWN.);
#85=PRODUCT_DEFINITION('design','',#1846,#63);
#83=PRODUCT_DEFINITION_SHAPE('','',#85);
#1847=SHAPE_DEFINITION_REPRESENTATION(#83,#76);
#75=DRAUGHTING_MODEL('',(#1844),#74);
#16=SHAPE_REPRESENTATION('openGrid Color/Cover Snap for Open Wall Mount',(#15,#48,#89),#10);
#1848=CARTESIAN_POINT('',(0.,0.,0.));
#1849=DIRECTION('',(0.,0.,1.));
#1850=DIRECTION('',(1.,0.,0.));
#1851=AXIS2_PLACEMENT_3D('',#1848,#1849,#1850);
#1853=MAPPED_ITEM('',#1852,#1851);
#1852=REPRESENTATION_MAP(#1851,#16);
#24=PRODUCT('openGrid Color/Cover Snap for Open Wall Mount','openGrid Color/Cover Snap for Open Wall Mount','',(#62));
#1854=PRODUCT_RELATED_PRODUCT_CATEGORY('part','',(#24));
#1855=PRODUCT_DEFINITION_FORMATION_WITH_SPECIFIED_SOURCE('','',#24,.NOT_KNOWN.);
#25=PRODUCT_DEFINITION('design','',#1855,#63);
#23=PRODUCT_DEFINITION_SHAPE('','',#25);
#1856=SHAPE_DEFINITION_REPRESENTATION(#23,#16);
#11=DRAUGHTING_MODEL('',(#1853),#10);
#1857=DESCRIPTIVE_REPRESENTATION_ITEM('KEY','/Users/ddanier/Library/Containers/com.shapr3d.shapr/Data/tmp/C4D50915-62ED-4BFF-BBA6-F3B6190A6BF6.tmp');
#1858=PROPERTY_DEFINITION('KEY','',#25);
#1859=REPRESENTATION('',(#1857),#10);
#1860=PROPERTY_DEFINITION_REPRESENTATION(#1858,#1859);
#1861=GENERAL_PROPERTY('','KEY','');
#1862=GENERAL_PROPERTY_ASSOCIATION('','',#1861,#1858);
#1=MECHANICAL_DESIGN_GEOMETRIC_PRESENTATION_REPRESENTATION('',(#95),#10);
ENDSEC;
END-ISO-10303-21;
