ISO-10303-21;
HEADER;

/* File generated by Shapr3D Version 5.800.0.8232 */

FILE_DESCRIPTION(('HOOPS Exchange Step'),'2;1');

FILE_NAME('/Users/ddanier/Library/Containers/com.shapr3d.shapr/Data/tmp/export/temp_export',
'2025-03-05T21:52:07+01:00',
('ddanier'),
('Shapr3D Limited'),
'HOOPS Exchange 2024.8',
'Shapr3D',
'Authorized');

FILE_SCHEMA( ('AP242_MANAGED_MODEL_BASED_3D_ENGINEERING_MIM_LF {1 0 10303 442 1 1 4}') );

ENDSEC;

DATA;
#3=(NAMED_UNIT(*)PLANE_ANGLE_UNIT()SI_UNIT($,.RADIAN.));
#4=PLANE_ANGLE_MEASURE_WITH_UNIT(PLANE_ANGLE_MEASURE(0.0174532925),#3);
#5=(CONVERSION_BASED_UNIT('DEGREE',#4)NAMED_UNIT(#6)PLANE_ANGLE_UNIT());
#6=DIMENSIONAL_EXPONENTS(0.,0.,0.,0.,0.,0.,0.);
#7=(NAMED_UNIT(*)SI_UNIT($,.STERADIAN.)SOLID_ANGLE_UNIT());
#8=(LENGTH_UNIT()NAMED_UNIT(*)SI_UNIT(.MILLI.,.METRE.));
#9=UNCERTAINTY_MEASURE_WITH_UNIT(LENGTH_MEASURE(1.000000E-05),#8,'DISTANCE_ACCURACY_VALUE','Maximum Tolerance applied to model');
#10=(GEOMETRIC_REPRESENTATION_CONTEXT(3)GLOBAL_UNCERTAINTY_ASSIGNED_CONTEXT((#9))GLOBAL_UNIT_ASSIGNED_CONTEXT((#8,#5,#7))REPRESENTATION_CONTEXT('','openGrid Color/Cover Snap'));
#12=CARTESIAN_POINT('',(0.,0.,0.));
#13=DIRECTION('',(0.,0.,1.));
#14=DIRECTION('',(1.,0.,0.));
#15=AXIS2_PLACEMENT_3D('TS3D_PRODUCT_CSYS',#12,#13,#14);
#27=CARTESIAN_POINT('',(-0.,12.4,-0.8));
#28=DIRECTION('',(0.,-1.,-0.));
#29=DIRECTION('',(0.,0.,-1.));
#30=AXIS2_PLACEMENT_3D('',#27,#28,#29);
#31=PLANE('',#30);
#32=CARTESIAN_POINT('',(-7.581623382,12.4,2.4));
#33=VERTEX_POINT('',#32);
#34=CARTESIAN_POINT('',(7.581623382,12.4,2.4));
#35=VERTEX_POINT('',#34);
#36=CARTESIAN_POINT('',(-7.581623382,12.4,2.4));
#37=DIRECTION('',(1.,0.,-0.));
#38=VECTOR('',#37,15.163246763);
#39=LINE('',#36,#38);
#40=EDGE_CURVE('',#33,#35,#39,.T.);
#41=ORIENTED_EDGE('',*,*,#40,.T.);
#42=CARTESIAN_POINT('',(7.581623382,12.4,0.7));
#43=VERTEX_POINT('',#42);
#44=CARTESIAN_POINT('',(7.581623382,12.4,0.7));
#45=DIRECTION('',(0.,-0.,1.));
#46=VECTOR('',#45,1.7);
#47=LINE('',#44,#46);
#48=EDGE_CURVE('',#43,#35,#47,.T.);
#49=ORIENTED_EDGE('',*,*,#48,.F.);
#50=CARTESIAN_POINT('',(9.1372583,12.4,-0.4));
#51=VERTEX_POINT('',#50);
#52=CARTESIAN_POINT('',(7.581623382,12.4,0.7));
#53=DIRECTION('',(0.816496581,0.,-0.577350269));
#54=VECTOR('',#53,1.905255888);
#55=LINE('',#52,#54);
#56=EDGE_CURVE('',#43,#51,#55,.T.);
#57=ORIENTED_EDGE('',*,*,#56,.T.);
#58=CARTESIAN_POINT('',(9.1372583,12.4,-0.8));
#59=VERTEX_POINT('',#58);
#60=CARTESIAN_POINT('',(9.1372583,12.4,-0.4));
#61=DIRECTION('',(0.,0.,-1.));
#62=VECTOR('',#61,0.4);
#63=LINE('',#60,#62);
#64=EDGE_CURVE('',#51,#59,#63,.T.);
#65=ORIENTED_EDGE('',*,*,#64,.T.);
#66=CARTESIAN_POINT('',(-9.1372583,12.4,-0.8));
#67=VERTEX_POINT('',#66);
#68=CARTESIAN_POINT('',(-9.1372583,12.4,-0.8));
#69=DIRECTION('',(1.,0.,-0.));
#70=VECTOR('',#69,18.2745166);
#71=LINE('',#68,#70);
#72=EDGE_CURVE('',#67,#59,#71,.T.);
#73=ORIENTED_EDGE('',*,*,#72,.F.);
#74=CARTESIAN_POINT('',(-9.1372583,12.4,-0.4));
#75=VERTEX_POINT('',#74);
#76=CARTESIAN_POINT('',(-9.1372583,12.4,-0.4));
#77=DIRECTION('',(0.,0.,-1.));
#78=VECTOR('',#77,0.4);
#79=LINE('',#76,#78);
#80=EDGE_CURVE('',#75,#67,#79,.T.);
#81=ORIENTED_EDGE('',*,*,#80,.F.);
#82=CARTESIAN_POINT('',(-7.581623382,12.4,0.7));
#83=VERTEX_POINT('',#82);
#84=CARTESIAN_POINT('',(-9.1372583,12.4,-0.4));
#85=DIRECTION('',(0.816496581,-0.,0.577350269));
#86=VECTOR('',#85,1.905255888);
#87=LINE('',#84,#86);
#88=EDGE_CURVE('',#75,#83,#87,.T.);
#89=ORIENTED_EDGE('',*,*,#88,.T.);
#90=CARTESIAN_POINT('',(-7.581623382,12.4,0.7));
#91=DIRECTION('',(0.,-0.,1.));
#92=VECTOR('',#91,1.7);
#93=LINE('',#90,#92);
#94=EDGE_CURVE('',#83,#33,#93,.T.);
#95=ORIENTED_EDGE('',*,*,#94,.T.);
#96=EDGE_LOOP('',(#41,#49,#57,#65,#73,#81,#89,#95));
#97=FACE_BOUND('',#96,.T.);
#98=ADVANCED_FACE('',(#97),#31,.F.);
#99=CARTESIAN_POINT('',(9.990811691,9.990811691,-0.8));
#100=DIRECTION('',(-0.707106781,-0.707106781,-0.));
#101=DIRECTION('',(-0.707106781,0.707106781,0.));
#102=AXIS2_PLACEMENT_3D('',#99,#100,#101);
#103=PLANE('',#102);
#104=CARTESIAN_POINT('',(12.4,7.581623382,0.7));
#105=VERTEX_POINT('',#104);
#106=CARTESIAN_POINT('',(12.4,7.581623382,2.4));
#107=VERTEX_POINT('',#106);
#108=CARTESIAN_POINT('',(12.4,7.581623382,0.7));
#109=DIRECTION('',(0.,-0.,1.));
#110=VECTOR('',#109,1.7);
#111=LINE('',#108,#110);
#112=EDGE_CURVE('',#105,#107,#111,.T.);
#113=ORIENTED_EDGE('',*,*,#112,.F.);
#114=CARTESIAN_POINT('',(12.4,7.581623382,0.7));
#115=DIRECTION('',(-0.707106781,0.707106781,0.));
#116=VECTOR('',#115,6.814213562);
#117=LINE('',#114,#116);
#118=EDGE_CURVE('',#105,#43,#117,.T.);
#119=ORIENTED_EDGE('',*,*,#118,.T.);
#120=ORIENTED_EDGE('',*,*,#48,.T.);
#121=CARTESIAN_POINT('',(7.581623382,12.4,2.4));
#122=DIRECTION('',(0.707106781,-0.707106781,-0.));
#123=VECTOR('',#122,6.814213562);
#124=LINE('',#121,#123);
#125=EDGE_CURVE('',#35,#107,#124,.T.);
#126=ORIENTED_EDGE('',*,*,#125,.T.);
#127=EDGE_LOOP('',(#113,#119,#120,#126));
#128=FACE_BOUND('',#127,.T.);
#129=ADVANCED_FACE('',(#128),#103,.F.);
#130=CARTESIAN_POINT('',(12.4,0.,-0.8));
#131=DIRECTION('',(-1.,0.,0.));
#132=DIRECTION('',(0.,0.,-1.));
#133=AXIS2_PLACEMENT_3D('',#130,#131,#132);
#134=PLANE('',#133);
#135=CARTESIAN_POINT('',(12.4,-4.,0.6));
#136=VERTEX_POINT('',#135);
#137=CARTESIAN_POINT('',(12.4,-5.,0.6));
#138=VERTEX_POINT('',#137);
#139=CARTESIAN_POINT('',(12.4,-4.,0.6));
#140=DIRECTION('',(0.,-1.,-0.));
#141=VECTOR('',#140,1.);
#142=LINE('',#139,#141);
#143=EDGE_CURVE('',#136,#138,#142,.T.);
#144=ORIENTED_EDGE('',*,*,#143,.F.);
#145=CARTESIAN_POINT('',(12.4,-4.,2.4));
#146=VERTEX_POINT('',#145);
#147=CARTESIAN_POINT('',(12.4,-4.,0.6));
#148=DIRECTION('',(0.,-0.,1.));
#149=VECTOR('',#148,1.8);
#150=LINE('',#147,#149);
#151=EDGE_CURVE('',#136,#146,#150,.T.);
#152=ORIENTED_EDGE('',*,*,#151,.T.);
#153=CARTESIAN_POINT('',(12.4,-7.581623382,2.4));
#154=VERTEX_POINT('',#153);
#155=CARTESIAN_POINT('',(12.4,-4.,2.4));
#156=DIRECTION('',(0.,-1.,-0.));
#157=VECTOR('',#156,3.581623382);
#158=LINE('',#155,#157);
#159=EDGE_CURVE('',#146,#154,#158,.T.);
#160=ORIENTED_EDGE('',*,*,#159,.T.);
#161=CARTESIAN_POINT('',(12.4,-7.581623382,0.7));
#162=VERTEX_POINT('',#161);
#163=CARTESIAN_POINT('',(12.4,-7.581623382,0.7));
#164=DIRECTION('',(0.,-0.,1.));
#165=VECTOR('',#164,1.7);
#166=LINE('',#163,#165);
#167=EDGE_CURVE('',#162,#154,#166,.T.);
#168=ORIENTED_EDGE('',*,*,#167,.F.);
#169=CARTESIAN_POINT('',(12.4,-9.1372583,-0.4));
#170=VERTEX_POINT('',#169);
#171=CARTESIAN_POINT('',(12.4,-7.581623382,0.7));
#172=DIRECTION('',(0.,-0.816496581,-0.577350269));
#173=VECTOR('',#172,1.905255888);
#174=LINE('',#171,#173);
#175=EDGE_CURVE('',#162,#170,#174,.T.);
#176=ORIENTED_EDGE('',*,*,#175,.T.);
#177=CARTESIAN_POINT('',(12.4,-9.1372583,-0.8));
#178=VERTEX_POINT('',#177);
#179=CARTESIAN_POINT('',(12.4,-9.1372583,-0.4));
#180=DIRECTION('',(0.,0.,-1.));
#181=VECTOR('',#180,0.4);
#182=LINE('',#179,#181);
#183=EDGE_CURVE('',#170,#178,#182,.T.);
#184=ORIENTED_EDGE('',*,*,#183,.T.);
#185=CARTESIAN_POINT('',(12.4,9.1372583,-0.8));
#186=VERTEX_POINT('',#185);
#187=CARTESIAN_POINT('',(12.4,9.1372583,-0.8));
#188=DIRECTION('',(0.,-1.,-0.));
#189=VECTOR('',#188,18.2745166);
#190=LINE('',#187,#189);
#191=EDGE_CURVE('',#186,#178,#190,.T.);
#192=ORIENTED_EDGE('',*,*,#191,.F.);
#193=CARTESIAN_POINT('',(12.4,9.1372583,-0.4));
#194=VERTEX_POINT('',#193);
#195=CARTESIAN_POINT('',(12.4,9.1372583,-0.4));
#196=DIRECTION('',(0.,0.,-1.));
#197=VECTOR('',#196,0.4);
#198=LINE('',#195,#197);
#199=EDGE_CURVE('',#194,#186,#198,.T.);
#200=ORIENTED_EDGE('',*,*,#199,.F.);
#201=CARTESIAN_POINT('',(12.4,9.1372583,-0.4));
#202=DIRECTION('',(0.,-0.816496581,0.577350269));
#203=VECTOR('',#202,1.905255888);
#204=LINE('',#201,#203);
#205=EDGE_CURVE('',#194,#105,#204,.T.);
#206=ORIENTED_EDGE('',*,*,#205,.T.);
#207=ORIENTED_EDGE('',*,*,#112,.T.);
#208=CARTESIAN_POINT('',(12.4,4.,2.4));
#209=VERTEX_POINT('',#208);
#210=CARTESIAN_POINT('',(12.4,7.581623382,2.4));
#211=DIRECTION('',(0.,-1.,-0.));
#212=VECTOR('',#211,3.581623382);
#213=LINE('',#210,#212);
#214=EDGE_CURVE('',#107,#209,#213,.T.);
#215=ORIENTED_EDGE('',*,*,#214,.T.);
#216=CARTESIAN_POINT('',(12.4,4.,0.6));
#217=VERTEX_POINT('',#216);
#218=CARTESIAN_POINT('',(12.4,4.,2.4));
#219=DIRECTION('',(-0.,0.,-1.));
#220=VECTOR('',#219,1.8);
#221=LINE('',#218,#220);
#222=EDGE_CURVE('',#209,#217,#221,.T.);
#223=ORIENTED_EDGE('',*,*,#222,.T.);
#224=CARTESIAN_POINT('',(12.4,5.,0.6));
#225=VERTEX_POINT('',#224);
#226=CARTESIAN_POINT('',(12.4,5.,0.6));
#227=DIRECTION('',(0.,-1.,-0.));
#228=VECTOR('',#227,1.);
#229=LINE('',#226,#228);
#230=EDGE_CURVE('',#225,#217,#229,.T.);
#231=ORIENTED_EDGE('',*,*,#230,.F.);
#232=CARTESIAN_POINT('',(12.4,5.,0.2));
#233=VERTEX_POINT('',#232);
#234=CARTESIAN_POINT('',(12.4,5.,0.2));
#235=DIRECTION('',(0.,-0.,1.));
#236=VECTOR('',#235,0.4);
#237=LINE('',#234,#236);
#238=EDGE_CURVE('',#233,#225,#237,.T.);
#239=ORIENTED_EDGE('',*,*,#238,.F.);
#240=CARTESIAN_POINT('',(12.4,-5.,0.2));
#241=VERTEX_POINT('',#240);
#242=CARTESIAN_POINT('',(12.4,-5.,0.2));
#243=DIRECTION('',(-0.,1.,0.));
#244=VECTOR('',#243,10.);
#245=LINE('',#242,#244);
#246=EDGE_CURVE('',#241,#233,#245,.T.);
#247=ORIENTED_EDGE('',*,*,#246,.F.);
#248=CARTESIAN_POINT('',(12.4,-5.,0.6));
#249=DIRECTION('',(0.,0.,-1.));
#250=VECTOR('',#249,0.4);
#251=LINE('',#248,#250);
#252=EDGE_CURVE('',#138,#241,#251,.T.);
#253=ORIENTED_EDGE('',*,*,#252,.F.);
#254=EDGE_LOOP('',(#144,#152,#160,#168,#176,#184,#192,#200,#206,#207,#215,#223,#231,#239,#247,#253));
#255=FACE_BOUND('',#254,.T.);
#256=ADVANCED_FACE('',(#255),#134,.F.);
#257=CARTESIAN_POINT('',(9.990811691,-9.990811691,-0.8));
#258=DIRECTION('',(-0.707106781,0.707106781,0.));
#259=DIRECTION('',(0.707106781,0.707106781,0.));
#260=AXIS2_PLACEMENT_3D('',#257,#258,#259);
#261=PLANE('',#260);
#262=CARTESIAN_POINT('',(7.581623382,-12.4,0.7));
#263=VERTEX_POINT('',#262);
#264=CARTESIAN_POINT('',(7.581623382,-12.4,2.4));
#265=VERTEX_POINT('',#264);
#266=CARTESIAN_POINT('',(7.581623382,-12.4,0.7));
#267=DIRECTION('',(0.,-0.,1.));
#268=VECTOR('',#267,1.7);
#269=LINE('',#266,#268);
#270=EDGE_CURVE('',#263,#265,#269,.T.);
#271=ORIENTED_EDGE('',*,*,#270,.F.);
#272=CARTESIAN_POINT('',(7.581623382,-12.4,0.7));
#273=DIRECTION('',(0.707106781,0.707106781,0.));
#274=VECTOR('',#273,6.814213562);
#275=LINE('',#272,#274);
#276=EDGE_CURVE('',#263,#162,#275,.T.);
#277=ORIENTED_EDGE('',*,*,#276,.T.);
#278=ORIENTED_EDGE('',*,*,#167,.T.);
#279=CARTESIAN_POINT('',(12.4,-7.581623382,2.4));
#280=DIRECTION('',(-0.707106781,-0.707106781,-0.));
#281=VECTOR('',#280,6.814213562);
#282=LINE('',#279,#281);
#283=EDGE_CURVE('',#154,#265,#282,.T.);
#284=ORIENTED_EDGE('',*,*,#283,.T.);
#285=EDGE_LOOP('',(#271,#277,#278,#284));
#286=FACE_BOUND('',#285,.T.);
#287=ADVANCED_FACE('',(#286),#261,.F.);
#288=CARTESIAN_POINT('',(-0.,-12.4,-0.8));
#289=DIRECTION('',(0.,1.,0.));
#290=DIRECTION('',(0.,-0.,1.));
#291=AXIS2_PLACEMENT_3D('',#288,#289,#290);
#292=PLANE('',#291);
#293=CARTESIAN_POINT('',(-7.581623382,-12.4,2.4));
#294=VERTEX_POINT('',#293);
#295=CARTESIAN_POINT('',(7.581623382,-12.4,2.4));
#296=DIRECTION('',(-1.,0.,0.));
#297=VECTOR('',#296,15.163246763);
#298=LINE('',#295,#297);
#299=EDGE_CURVE('',#265,#294,#298,.T.);
#300=ORIENTED_EDGE('',*,*,#299,.T.);
#301=CARTESIAN_POINT('',(-7.581623382,-12.4,0.7));
#302=VERTEX_POINT('',#301);
#303=CARTESIAN_POINT('',(-7.581623382,-12.4,0.7));
#304=DIRECTION('',(0.,-0.,1.));
#305=VECTOR('',#304,1.7);
#306=LINE('',#303,#305);
#307=EDGE_CURVE('',#302,#294,#306,.T.);
#308=ORIENTED_EDGE('',*,*,#307,.F.);
#309=CARTESIAN_POINT('',(-9.1372583,-12.4,-0.4));
#310=VERTEX_POINT('',#309);
#311=CARTESIAN_POINT('',(-7.581623382,-12.4,0.7));
#312=DIRECTION('',(-0.816496581,-0.,-0.577350269));
#313=VECTOR('',#312,1.905255888);
#314=LINE('',#311,#313);
#315=EDGE_CURVE('',#302,#310,#314,.T.);
#316=ORIENTED_EDGE('',*,*,#315,.T.);
#317=CARTESIAN_POINT('',(-9.1372583,-12.4,-0.8));
#318=VERTEX_POINT('',#317);
#319=CARTESIAN_POINT('',(-9.1372583,-12.4,-0.4));
#320=DIRECTION('',(0.,0.,-1.));
#321=VECTOR('',#320,0.4);
#322=LINE('',#319,#321);
#323=EDGE_CURVE('',#310,#318,#322,.T.);
#324=ORIENTED_EDGE('',*,*,#323,.T.);
#325=CARTESIAN_POINT('',(9.1372583,-12.4,-0.8));
#326=VERTEX_POINT('',#325);
#327=CARTESIAN_POINT('',(9.1372583,-12.4,-0.8));
#328=DIRECTION('',(-1.,0.,0.));
#329=VECTOR('',#328,18.2745166);
#330=LINE('',#327,#329);
#331=EDGE_CURVE('',#326,#318,#330,.T.);
#332=ORIENTED_EDGE('',*,*,#331,.F.);
#333=CARTESIAN_POINT('',(9.1372583,-12.4,-0.4));
#334=VERTEX_POINT('',#333);
#335=CARTESIAN_POINT('',(9.1372583,-12.4,-0.4));
#336=DIRECTION('',(0.,0.,-1.));
#337=VECTOR('',#336,0.4);
#338=LINE('',#335,#337);
#339=EDGE_CURVE('',#334,#326,#338,.T.);
#340=ORIENTED_EDGE('',*,*,#339,.F.);
#341=CARTESIAN_POINT('',(9.1372583,-12.4,-0.4));
#342=DIRECTION('',(-0.816496581,-0.,0.577350269));
#343=VECTOR('',#342,1.905255888);
#344=LINE('',#341,#343);
#345=EDGE_CURVE('',#334,#263,#344,.T.);
#346=ORIENTED_EDGE('',*,*,#345,.T.);
#347=ORIENTED_EDGE('',*,*,#270,.T.);
#348=EDGE_LOOP('',(#300,#308,#316,#324,#332,#340,#346,#347));
#349=FACE_BOUND('',#348,.T.);
#350=ADVANCED_FACE('',(#349),#292,.F.);
#351=CARTESIAN_POINT('',(-9.990811691,-9.990811691,-0.8));
#352=DIRECTION('',(0.707106781,0.707106781,0.));
#353=DIRECTION('',(0.707106781,-0.707106781,-0.));
#354=AXIS2_PLACEMENT_3D('',#351,#352,#353);
#355=PLANE('',#354);
#356=CARTESIAN_POINT('',(-12.4,-7.581623382,0.7));
#357=VERTEX_POINT('',#356);
#358=CARTESIAN_POINT('',(-12.4,-7.581623382,2.4));
#359=VERTEX_POINT('',#358);
#360=CARTESIAN_POINT('',(-12.4,-7.581623382,0.7));
#361=DIRECTION('',(0.,-0.,1.));
#362=VECTOR('',#361,1.7);
#363=LINE('',#360,#362);
#364=EDGE_CURVE('',#357,#359,#363,.T.);
#365=ORIENTED_EDGE('',*,*,#364,.F.);
#366=CARTESIAN_POINT('',(-12.4,-7.581623382,0.7));
#367=DIRECTION('',(0.707106781,-0.707106781,-0.));
#368=VECTOR('',#367,6.814213562);
#369=LINE('',#366,#368);
#370=EDGE_CURVE('',#357,#302,#369,.T.);
#371=ORIENTED_EDGE('',*,*,#370,.T.);
#372=ORIENTED_EDGE('',*,*,#307,.T.);
#373=CARTESIAN_POINT('',(-7.581623382,-12.4,2.4));
#374=DIRECTION('',(-0.707106781,0.707106781,0.));
#375=VECTOR('',#374,6.814213562);
#376=LINE('',#373,#375);
#377=EDGE_CURVE('',#294,#359,#376,.T.);
#378=ORIENTED_EDGE('',*,*,#377,.T.);
#379=EDGE_LOOP('',(#365,#371,#372,#378));
#380=FACE_BOUND('',#379,.T.);
#381=ADVANCED_FACE('',(#380),#355,.F.);
#382=CARTESIAN_POINT('',(-12.4,0.,-0.8));
#383=DIRECTION('',(1.,0.,0.));
#384=DIRECTION('',(0.,-0.,1.));
#385=AXIS2_PLACEMENT_3D('',#382,#383,#384);
#386=PLANE('',#385);
#387=CARTESIAN_POINT('',(-12.4,4.,0.6));
#388=VERTEX_POINT('',#387);
#389=CARTESIAN_POINT('',(-12.4,5.,0.6));
#390=VERTEX_POINT('',#389);
#391=CARTESIAN_POINT('',(-12.4,4.,0.6));
#392=DIRECTION('',(0.,1.,0.));
#393=VECTOR('',#392,1.);
#394=LINE('',#391,#393);
#395=EDGE_CURVE('',#388,#390,#394,.T.);
#396=ORIENTED_EDGE('',*,*,#395,.F.);
#397=CARTESIAN_POINT('',(-12.4,4.,2.4));
#398=VERTEX_POINT('',#397);
#399=CARTESIAN_POINT('',(-12.4,4.,0.6));
#400=DIRECTION('',(0.,-0.,1.));
#401=VECTOR('',#400,1.8);
#402=LINE('',#399,#401);
#403=EDGE_CURVE('',#388,#398,#402,.T.);
#404=ORIENTED_EDGE('',*,*,#403,.T.);
#405=CARTESIAN_POINT('',(-12.4,7.581623382,2.4));
#406=VERTEX_POINT('',#405);
#407=CARTESIAN_POINT('',(-12.4,4.,2.4));
#408=DIRECTION('',(0.,1.,0.));
#409=VECTOR('',#408,3.581623382);
#410=LINE('',#407,#409);
#411=EDGE_CURVE('',#398,#406,#410,.T.);
#412=ORIENTED_EDGE('',*,*,#411,.T.);
#413=CARTESIAN_POINT('',(-12.4,7.581623382,0.7));
#414=VERTEX_POINT('',#413);
#415=CARTESIAN_POINT('',(-12.4,7.581623382,0.7));
#416=DIRECTION('',(0.,-0.,1.));
#417=VECTOR('',#416,1.7);
#418=LINE('',#415,#417);
#419=EDGE_CURVE('',#414,#406,#418,.T.);
#420=ORIENTED_EDGE('',*,*,#419,.F.);
#421=CARTESIAN_POINT('',(-12.4,9.1372583,-0.4));
#422=VERTEX_POINT('',#421);
#423=CARTESIAN_POINT('',(-12.4,7.581623382,0.7));
#424=DIRECTION('',(-0.,0.816496581,-0.577350269));
#425=VECTOR('',#424,1.905255888);
#426=LINE('',#423,#425);
#427=EDGE_CURVE('',#414,#422,#426,.T.);
#428=ORIENTED_EDGE('',*,*,#427,.T.);
#429=CARTESIAN_POINT('',(-12.4,9.1372583,-0.8));
#430=VERTEX_POINT('',#429);
#431=CARTESIAN_POINT('',(-12.4,9.1372583,-0.4));
#432=DIRECTION('',(0.,0.,-1.));
#433=VECTOR('',#432,0.4);
#434=LINE('',#431,#433);
#435=EDGE_CURVE('',#422,#430,#434,.T.);
#436=ORIENTED_EDGE('',*,*,#435,.T.);
#437=CARTESIAN_POINT('',(-12.4,-9.1372583,-0.8));
#438=VERTEX_POINT('',#437);
#439=CARTESIAN_POINT('',(-12.4,-9.1372583,-0.8));
#440=DIRECTION('',(0.,1.,0.));
#441=VECTOR('',#440,18.2745166);
#442=LINE('',#439,#441);
#443=EDGE_CURVE('',#438,#430,#442,.T.);
#444=ORIENTED_EDGE('',*,*,#443,.F.);
#445=CARTESIAN_POINT('',(-12.4,-9.1372583,-0.4));
#446=VERTEX_POINT('',#445);
#447=CARTESIAN_POINT('',(-12.4,-9.1372583,-0.4));
#448=DIRECTION('',(0.,0.,-1.));
#449=VECTOR('',#448,0.4);
#450=LINE('',#447,#449);
#451=EDGE_CURVE('',#446,#438,#450,.T.);
#452=ORIENTED_EDGE('',*,*,#451,.F.);
#453=CARTESIAN_POINT('',(-12.4,-9.1372583,-0.4));
#454=DIRECTION('',(-0.,0.816496581,0.577350269));
#455=VECTOR('',#454,1.905255888);
#456=LINE('',#453,#455);
#457=EDGE_CURVE('',#446,#357,#456,.T.);
#458=ORIENTED_EDGE('',*,*,#457,.T.);
#459=ORIENTED_EDGE('',*,*,#364,.T.);
#460=CARTESIAN_POINT('',(-12.4,-4.,2.4));
#461=VERTEX_POINT('',#460);
#462=CARTESIAN_POINT('',(-12.4,-7.581623382,2.4));
#463=DIRECTION('',(0.,1.,0.));
#464=VECTOR('',#463,3.581623382);
#465=LINE('',#462,#464);
#466=EDGE_CURVE('',#359,#461,#465,.T.);
#467=ORIENTED_EDGE('',*,*,#466,.T.);
#468=CARTESIAN_POINT('',(-12.4,-4.,0.6));
#469=VERTEX_POINT('',#468);
#470=CARTESIAN_POINT('',(-12.4,-4.,2.4));
#471=DIRECTION('',(0.,-0.,-1.));
#472=VECTOR('',#471,1.8);
#473=LINE('',#470,#472);
#474=EDGE_CURVE('',#461,#469,#473,.T.);
#475=ORIENTED_EDGE('',*,*,#474,.T.);
#476=CARTESIAN_POINT('',(-12.4,-5.,0.6));
#477=VERTEX_POINT('',#476);
#478=CARTESIAN_POINT('',(-12.4,-5.,0.6));
#479=DIRECTION('',(0.,1.,0.));
#480=VECTOR('',#479,1.);
#481=LINE('',#478,#480);
#482=EDGE_CURVE('',#477,#469,#481,.T.);
#483=ORIENTED_EDGE('',*,*,#482,.F.);
#484=CARTESIAN_POINT('',(-12.4,-5.,0.2));
#485=VERTEX_POINT('',#484);
#486=CARTESIAN_POINT('',(-12.4,-5.,0.2));
#487=DIRECTION('',(0.,-0.,1.));
#488=VECTOR('',#487,0.4);
#489=LINE('',#486,#488);
#490=EDGE_CURVE('',#485,#477,#489,.T.);
#491=ORIENTED_EDGE('',*,*,#490,.F.);
#492=CARTESIAN_POINT('',(-12.4,5.,0.2));
#493=VERTEX_POINT('',#492);
#494=CARTESIAN_POINT('',(-12.4,5.,0.2));
#495=DIRECTION('',(0.,-1.,0.));
#496=VECTOR('',#495,10.);
#497=LINE('',#494,#496);
#498=EDGE_CURVE('',#493,#485,#497,.T.);
#499=ORIENTED_EDGE('',*,*,#498,.F.);
#500=CARTESIAN_POINT('',(-12.4,5.,0.6));
#501=DIRECTION('',(0.,0.,-1.));
#502=VECTOR('',#501,0.4);
#503=LINE('',#500,#502);
#504=EDGE_CURVE('',#390,#493,#503,.T.);
#505=ORIENTED_EDGE('',*,*,#504,.F.);
#506=EDGE_LOOP('',(#396,#404,#412,#420,#428,#436,#444,#452,#458,#459,#467,#475,#483,#491,#499,#505));
#507=FACE_BOUND('',#506,.T.);
#508=ADVANCED_FACE('',(#507),#386,.F.);
#509=CARTESIAN_POINT('',(-9.990811691,9.990811691,-0.8));
#510=DIRECTION('',(0.707106781,-0.707106781,-0.));
#511=DIRECTION('',(-0.707106781,-0.707106781,-0.));
#512=AXIS2_PLACEMENT_3D('',#509,#510,#511);
#513=PLANE('',#512);
#514=ORIENTED_EDGE('',*,*,#94,.F.);
#515=CARTESIAN_POINT('',(-7.581623382,12.4,0.7));
#516=DIRECTION('',(-0.707106781,-0.707106781,-0.));
#517=VECTOR('',#516,6.814213562);
#518=LINE('',#515,#517);
#519=EDGE_CURVE('',#83,#414,#518,.T.);
#520=ORIENTED_EDGE('',*,*,#519,.T.);
#521=ORIENTED_EDGE('',*,*,#419,.T.);
#522=CARTESIAN_POINT('',(-12.4,7.581623382,2.4));
#523=DIRECTION('',(0.707106781,0.707106781,0.));
#524=VECTOR('',#523,6.814213562);
#525=LINE('',#522,#524);
#526=EDGE_CURVE('',#406,#33,#525,.T.);
#527=ORIENTED_EDGE('',*,*,#526,.T.);
#528=EDGE_LOOP('',(#514,#520,#521,#527));
#529=FACE_BOUND('',#528,.T.);
#530=ADVANCED_FACE('',(#529),#513,.F.);
#531=CARTESIAN_POINT('',(0.,0.,-0.8));
#532=DIRECTION('',(0.,0.,-1.));
#533=DIRECTION('',(1.,0.,0.));
#534=AXIS2_PLACEMENT_3D('',#531,#532,#533);
#535=PLANE('',#534);
#536=ORIENTED_EDGE('',*,*,#72,.T.);
#537=CARTESIAN_POINT('',(9.1372583,12.4,-0.8));
#538=DIRECTION('',(0.707106781,-0.707106781,-0.));
#539=VECTOR('',#538,4.614213562);
#540=LINE('',#537,#539);
#541=EDGE_CURVE('',#59,#186,#540,.T.);
#542=ORIENTED_EDGE('',*,*,#541,.T.);
#543=ORIENTED_EDGE('',*,*,#191,.T.);
#544=CARTESIAN_POINT('',(12.4,-9.1372583,-0.8));
#545=DIRECTION('',(-0.707106781,-0.707106781,-0.));
#546=VECTOR('',#545,4.614213562);
#547=LINE('',#544,#546);
#548=EDGE_CURVE('',#178,#326,#547,.T.);
#549=ORIENTED_EDGE('',*,*,#548,.T.);
#550=ORIENTED_EDGE('',*,*,#331,.T.);
#551=CARTESIAN_POINT('',(-9.1372583,-12.4,-0.8));
#552=DIRECTION('',(-0.707106781,0.707106781,0.));
#553=VECTOR('',#552,4.614213562);
#554=LINE('',#551,#553);
#555=EDGE_CURVE('',#318,#438,#554,.T.);
#556=ORIENTED_EDGE('',*,*,#555,.T.);
#557=ORIENTED_EDGE('',*,*,#443,.T.);
#558=CARTESIAN_POINT('',(-12.4,9.1372583,-0.8));
#559=DIRECTION('',(0.707106781,0.707106781,0.));
#560=VECTOR('',#559,4.614213562);
#561=LINE('',#558,#560);
#562=EDGE_CURVE('',#430,#67,#561,.T.);
#563=ORIENTED_EDGE('',*,*,#562,.T.);
#564=EDGE_LOOP('',(#536,#542,#543,#549,#550,#556,#557,#563));
#565=FACE_BOUND('',#564,.T.);
#566=ADVANCED_FACE('',(#565),#535,.T.);
#567=CARTESIAN_POINT('',(0.,0.,2.4));
#568=DIRECTION('',(0.,0.,-1.));
#569=DIRECTION('',(1.,0.,0.));
#570=AXIS2_PLACEMENT_3D('',#567,#568,#569);
#571=PLANE('',#570);
#572=CARTESIAN_POINT('',(-11.4,7.16543474,2.4));
#573=VERTEX_POINT('',#572);
#574=CARTESIAN_POINT('',(-11.4,-7.16543474,2.4));
#575=VERTEX_POINT('',#574);
#576=CARTESIAN_POINT('',(-11.4,7.16543474,2.4));
#577=DIRECTION('',(0.,-1.,-0.));
#578=VECTOR('',#577,14.330869481);
#579=LINE('',#576,#578);
#580=EDGE_CURVE('',#573,#575,#579,.T.);
#581=ORIENTED_EDGE('',*,*,#580,.F.);
#582=CARTESIAN_POINT('',(-7.16543474,11.4,2.4));
#583=VERTEX_POINT('',#582);
#584=CARTESIAN_POINT('',(-7.16543474,11.4,2.4));
#585=DIRECTION('',(-0.707106781,-0.707106781,-0.));
#586=VECTOR('',#585,5.988579621);
#587=LINE('',#584,#586);
#588=EDGE_CURVE('',#583,#573,#587,.T.);
#589=ORIENTED_EDGE('',*,*,#588,.F.);
#590=CARTESIAN_POINT('',(7.16543474,11.4,2.4));
#591=VERTEX_POINT('',#590);
#592=CARTESIAN_POINT('',(-7.16543474,11.4,2.4));
#593=DIRECTION('',(1.,0.,-0.));
#594=VECTOR('',#593,14.330869481);
#595=LINE('',#592,#594);
#596=EDGE_CURVE('',#583,#591,#595,.T.);
#597=ORIENTED_EDGE('',*,*,#596,.T.);
#598=CARTESIAN_POINT('',(11.4,7.16543474,2.4));
#599=VERTEX_POINT('',#598);
#600=CARTESIAN_POINT('',(11.4,7.16543474,2.4));
#601=DIRECTION('',(-0.707106781,0.707106781,0.));
#602=VECTOR('',#601,5.988579621);
#603=LINE('',#600,#602);
#604=EDGE_CURVE('',#599,#591,#603,.T.);
#605=ORIENTED_EDGE('',*,*,#604,.F.);
#606=CARTESIAN_POINT('',(11.4,-7.16543474,2.4));
#607=VERTEX_POINT('',#606);
#608=CARTESIAN_POINT('',(11.4,-7.16543474,2.4));
#609=DIRECTION('',(0.,1.,0.));
#610=VECTOR('',#609,14.330869481);
#611=LINE('',#608,#610);
#612=EDGE_CURVE('',#607,#599,#611,.T.);
#613=ORIENTED_EDGE('',*,*,#612,.F.);
#614=CARTESIAN_POINT('',(7.16543474,-11.4,2.4));
#615=VERTEX_POINT('',#614);
#616=CARTESIAN_POINT('',(7.16543474,-11.4,2.4));
#617=DIRECTION('',(0.707106781,0.707106781,0.));
#618=VECTOR('',#617,5.988579621);
#619=LINE('',#616,#618);
#620=EDGE_CURVE('',#615,#607,#619,.T.);
#621=ORIENTED_EDGE('',*,*,#620,.F.);
#622=CARTESIAN_POINT('',(-7.16543474,-11.4,2.4));
#623=VERTEX_POINT('',#622);
#624=CARTESIAN_POINT('',(-7.16543474,-11.4,2.4));
#625=DIRECTION('',(1.,0.,-0.));
#626=VECTOR('',#625,14.330869481);
#627=LINE('',#624,#626);
#628=EDGE_CURVE('',#623,#615,#627,.T.);
#629=ORIENTED_EDGE('',*,*,#628,.F.);
#630=CARTESIAN_POINT('',(-11.4,-7.16543474,2.4));
#631=DIRECTION('',(0.707106781,-0.707106781,-0.));
#632=VECTOR('',#631,5.988579621);
#633=LINE('',#630,#632);
#634=EDGE_CURVE('',#575,#623,#633,.T.);
#635=ORIENTED_EDGE('',*,*,#634,.F.);
#636=EDGE_LOOP('',(#581,#589,#597,#605,#613,#621,#629,#635));
#637=FACE_BOUND('',#636,.T.);
#638=ORIENTED_EDGE('',*,*,#40,.F.);
#639=ORIENTED_EDGE('',*,*,#526,.F.);
#640=ORIENTED_EDGE('',*,*,#411,.F.);
#641=CARTESIAN_POINT('',(-12.4,4.,2.4));
#642=DIRECTION('',(0.,-1.,0.));
#643=VECTOR('',#642,8.);
#644=LINE('',#641,#643);
#645=EDGE_CURVE('',#398,#461,#644,.T.);
#646=ORIENTED_EDGE('',*,*,#645,.T.);
#647=ORIENTED_EDGE('',*,*,#466,.F.);
#648=ORIENTED_EDGE('',*,*,#377,.F.);
#649=ORIENTED_EDGE('',*,*,#299,.F.);
#650=ORIENTED_EDGE('',*,*,#283,.F.);
#651=ORIENTED_EDGE('',*,*,#159,.F.);
#652=CARTESIAN_POINT('',(12.4,-4.,2.4));
#653=DIRECTION('',(-0.,1.,0.));
#654=VECTOR('',#653,8.);
#655=LINE('',#652,#654);
#656=EDGE_CURVE('',#146,#209,#655,.T.);
#657=ORIENTED_EDGE('',*,*,#656,.T.);
#658=ORIENTED_EDGE('',*,*,#214,.F.);
#659=ORIENTED_EDGE('',*,*,#125,.F.);
#660=EDGE_LOOP('',(#638,#639,#640,#646,#647,#648,#649,#650,#651,#657,#658,#659));
#661=FACE_BOUND('',#660,.T.);
#662=ADVANCED_FACE('',(#637,#661),#571,.F.);
#663=CARTESIAN_POINT('',(0.,0.,0.2));
#664=DIRECTION('',(0.,0.,-1.));
#665=DIRECTION('',(1.,0.,0.));
#666=AXIS2_PLACEMENT_3D('',#663,#664,#665);
#667=PLANE('',#666);
#668=CARTESIAN_POINT('',(11.4,-7.16543474,0.2));
#669=VERTEX_POINT('',#668);
#670=CARTESIAN_POINT('',(11.4,-5.,0.2));
#671=VERTEX_POINT('',#670);
#672=CARTESIAN_POINT('',(11.4,-7.16543474,0.2));
#673=DIRECTION('',(0.,1.,0.));
#674=VECTOR('',#673,2.16543474);
#675=LINE('',#672,#674);
#676=EDGE_CURVE('',#669,#671,#675,.T.);
#677=ORIENTED_EDGE('',*,*,#676,.T.);
#678=CARTESIAN_POINT('',(11.4,-5.,0.2));
#679=DIRECTION('',(1.,0.,0.));
#680=VECTOR('',#679,1.);
#681=LINE('',#678,#680);
#682=EDGE_CURVE('',#671,#241,#681,.T.);
#683=ORIENTED_EDGE('',*,*,#682,.T.);
#684=ORIENTED_EDGE('',*,*,#246,.T.);
#685=CARTESIAN_POINT('',(11.4,5.,0.2));
#686=VERTEX_POINT('',#685);
#687=CARTESIAN_POINT('',(11.4,5.,0.2));
#688=DIRECTION('',(1.,0.,0.));
#689=VECTOR('',#688,1.);
#690=LINE('',#687,#689);
#691=EDGE_CURVE('',#686,#233,#690,.T.);
#692=ORIENTED_EDGE('',*,*,#691,.F.);
#693=CARTESIAN_POINT('',(11.4,7.16543474,0.2));
#694=VERTEX_POINT('',#693);
#695=CARTESIAN_POINT('',(11.4,5.,0.2));
#696=DIRECTION('',(0.,1.,0.));
#697=VECTOR('',#696,2.16543474);
#698=LINE('',#695,#697);
#699=EDGE_CURVE('',#686,#694,#698,.T.);
#700=ORIENTED_EDGE('',*,*,#699,.T.);
#701=CARTESIAN_POINT('',(7.16543474,11.4,0.2));
#702=VERTEX_POINT('',#701);
#703=CARTESIAN_POINT('',(11.4,7.16543474,0.2));
#704=DIRECTION('',(-0.707106781,0.707106781,0.));
#705=VECTOR('',#704,5.988579621);
#706=LINE('',#703,#705);
#707=EDGE_CURVE('',#694,#702,#706,.T.);
#708=ORIENTED_EDGE('',*,*,#707,.T.);
#709=CARTESIAN_POINT('',(-7.16543474,11.4,0.2));
#710=VERTEX_POINT('',#709);
#711=CARTESIAN_POINT('',(-7.16543474,11.4,0.2));
#712=DIRECTION('',(1.,0.,-0.));
#713=VECTOR('',#712,14.330869481);
#714=LINE('',#711,#713);
#715=EDGE_CURVE('',#710,#702,#714,.T.);
#716=ORIENTED_EDGE('',*,*,#715,.F.);
#717=CARTESIAN_POINT('',(-11.4,7.16543474,0.2));
#718=VERTEX_POINT('',#717);
#719=CARTESIAN_POINT('',(-7.16543474,11.4,0.2));
#720=DIRECTION('',(-0.707106781,-0.707106781,-0.));
#721=VECTOR('',#720,5.988579621);
#722=LINE('',#719,#721);
#723=EDGE_CURVE('',#710,#718,#722,.T.);
#724=ORIENTED_EDGE('',*,*,#723,.T.);
#725=CARTESIAN_POINT('',(-11.4,5.,0.2));
#726=VERTEX_POINT('',#725);
#727=CARTESIAN_POINT('',(-11.4,7.16543474,0.2));
#728=DIRECTION('',(0.,-1.,-0.));
#729=VECTOR('',#728,2.16543474);
#730=LINE('',#727,#729);
#731=EDGE_CURVE('',#718,#726,#730,.T.);
#732=ORIENTED_EDGE('',*,*,#731,.T.);
#733=CARTESIAN_POINT('',(-11.4,5.,0.2));
#734=DIRECTION('',(-1.,0.,0.));
#735=VECTOR('',#734,1.);
#736=LINE('',#733,#735);
#737=EDGE_CURVE('',#726,#493,#736,.T.);
#738=ORIENTED_EDGE('',*,*,#737,.T.);
#739=ORIENTED_EDGE('',*,*,#498,.T.);
#740=CARTESIAN_POINT('',(-11.4,-5.,0.2));
#741=VERTEX_POINT('',#740);
#742=CARTESIAN_POINT('',(-11.4,-5.,0.2));
#743=DIRECTION('',(-1.,0.,0.));
#744=VECTOR('',#743,1.);
#745=LINE('',#742,#744);
#746=EDGE_CURVE('',#741,#485,#745,.T.);
#747=ORIENTED_EDGE('',*,*,#746,.F.);
#748=CARTESIAN_POINT('',(-11.4,-7.16543474,0.2));
#749=VERTEX_POINT('',#748);
#750=CARTESIAN_POINT('',(-11.4,-5.,0.2));
#751=DIRECTION('',(0.,-1.,-0.));
#752=VECTOR('',#751,2.16543474);
#753=LINE('',#750,#752);
#754=EDGE_CURVE('',#741,#749,#753,.T.);
#755=ORIENTED_EDGE('',*,*,#754,.T.);
#756=CARTESIAN_POINT('',(-7.16543474,-11.4,0.2));
#757=VERTEX_POINT('',#756);
#758=CARTESIAN_POINT('',(-11.4,-7.16543474,0.2));
#759=DIRECTION('',(0.707106781,-0.707106781,-0.));
#760=VECTOR('',#759,5.988579621);
#761=LINE('',#758,#760);
#762=EDGE_CURVE('',#749,#757,#761,.T.);
#763=ORIENTED_EDGE('',*,*,#762,.T.);
#764=CARTESIAN_POINT('',(7.16543474,-11.4,0.2));
#765=VERTEX_POINT('',#764);
#766=CARTESIAN_POINT('',(-7.16543474,-11.4,0.2));
#767=DIRECTION('',(1.,0.,-0.));
#768=VECTOR('',#767,14.330869481);
#769=LINE('',#766,#768);
#770=EDGE_CURVE('',#757,#765,#769,.T.);
#771=ORIENTED_EDGE('',*,*,#770,.T.);
#772=CARTESIAN_POINT('',(7.16543474,-11.4,0.2));
#773=DIRECTION('',(0.707106781,0.707106781,0.));
#774=VECTOR('',#773,5.988579621);
#775=LINE('',#772,#774);
#776=EDGE_CURVE('',#765,#669,#775,.T.);
#777=ORIENTED_EDGE('',*,*,#776,.T.);
#778=EDGE_LOOP('',(#677,#683,#684,#692,#700,#708,#716,#724,#732,#738,#739,#747,#755,#763,#771,#777));
#779=FACE_BOUND('',#778,.T.);
#780=ADVANCED_FACE('',(#779),#667,.F.);
#781=CARTESIAN_POINT('',(-9.28271737,9.28271737,-0.802));
#782=DIRECTION('',(-0.707106781,0.707106781,0.));
#783=DIRECTION('',(0.707106781,0.707106781,0.));
#784=AXIS2_PLACEMENT_3D('',#781,#782,#783);
#785=PLANE('',#784);
#786=CARTESIAN_POINT('',(-7.16543474,11.4,0.2));
#787=DIRECTION('',(0.,-0.,1.));
#788=VECTOR('',#787,2.2);
#789=LINE('',#786,#788);
#790=EDGE_CURVE('',#710,#583,#789,.T.);
#791=ORIENTED_EDGE('',*,*,#790,.T.);
#792=ORIENTED_EDGE('',*,*,#588,.T.);
#793=CARTESIAN_POINT('',(-11.4,7.16543474,0.2));
#794=DIRECTION('',(0.,-0.,1.));
#795=VECTOR('',#794,2.2);
#796=LINE('',#793,#795);
#797=EDGE_CURVE('',#718,#573,#796,.T.);
#798=ORIENTED_EDGE('',*,*,#797,.F.);
#799=ORIENTED_EDGE('',*,*,#723,.F.);
#800=EDGE_LOOP('',(#791,#792,#798,#799));
#801=FACE_BOUND('',#800,.T.);
#802=ADVANCED_FACE('',(#801),#785,.F.);
#803=CARTESIAN_POINT('',(-11.4,0.,-0.802));
#804=DIRECTION('',(-1.,0.,0.));
#805=DIRECTION('',(0.,0.,-1.));
#806=AXIS2_PLACEMENT_3D('',#803,#804,#805);
#807=PLANE('',#806);
#808=CARTESIAN_POINT('',(-11.4,-5.,0.6));
#809=VERTEX_POINT('',#808);
#810=CARTESIAN_POINT('',(-11.4,5.,0.6));
#811=VERTEX_POINT('',#810);
#812=CARTESIAN_POINT('',(-11.4,-5.,0.6));
#813=DIRECTION('',(0.,1.,0.));
#814=VECTOR('',#813,10.);
#815=LINE('',#812,#814);
#816=EDGE_CURVE('',#809,#811,#815,.T.);
#817=ORIENTED_EDGE('',*,*,#816,.T.);
#818=CARTESIAN_POINT('',(-11.4,5.,0.6));
#819=DIRECTION('',(0.,0.,-1.));
#820=VECTOR('',#819,0.4);
#821=LINE('',#818,#820);
#822=EDGE_CURVE('',#811,#726,#821,.T.);
#823=ORIENTED_EDGE('',*,*,#822,.T.);
#824=ORIENTED_EDGE('',*,*,#731,.F.);
#825=ORIENTED_EDGE('',*,*,#797,.T.);
#826=ORIENTED_EDGE('',*,*,#580,.T.);
#827=CARTESIAN_POINT('',(-11.4,-7.16543474,0.2));
#828=DIRECTION('',(0.,-0.,1.));
#829=VECTOR('',#828,2.2);
#830=LINE('',#827,#829);
#831=EDGE_CURVE('',#749,#575,#830,.T.);
#832=ORIENTED_EDGE('',*,*,#831,.F.);
#833=ORIENTED_EDGE('',*,*,#754,.F.);
#834=CARTESIAN_POINT('',(-11.4,-5.,0.2));
#835=DIRECTION('',(0.,-0.,1.));
#836=VECTOR('',#835,0.4);
#837=LINE('',#834,#836);
#838=EDGE_CURVE('',#741,#809,#837,.T.);
#839=ORIENTED_EDGE('',*,*,#838,.T.);
#840=EDGE_LOOP('',(#817,#823,#824,#825,#826,#832,#833,#839));
#841=FACE_BOUND('',#840,.T.);
#842=ADVANCED_FACE('',(#841),#807,.F.);
#843=CARTESIAN_POINT('',(-9.28271737,-9.28271737,-0.802));
#844=DIRECTION('',(-0.707106781,-0.707106781,-0.));
#845=DIRECTION('',(-0.707106781,0.707106781,0.));
#846=AXIS2_PLACEMENT_3D('',#843,#844,#845);
#847=PLANE('',#846);
#848=ORIENTED_EDGE('',*,*,#831,.T.);
#849=ORIENTED_EDGE('',*,*,#634,.T.);
#850=CARTESIAN_POINT('',(-7.16543474,-11.4,0.2));
#851=DIRECTION('',(0.,-0.,1.));
#852=VECTOR('',#851,2.2);
#853=LINE('',#850,#852);
#854=EDGE_CURVE('',#757,#623,#853,.T.);
#855=ORIENTED_EDGE('',*,*,#854,.F.);
#856=ORIENTED_EDGE('',*,*,#762,.F.);
#857=EDGE_LOOP('',(#848,#849,#855,#856));
#858=FACE_BOUND('',#857,.T.);
#859=ADVANCED_FACE('',(#858),#847,.F.);
#860=CARTESIAN_POINT('',(0.,-11.4,-0.802));
#861=DIRECTION('',(0.,-1.,-0.));
#862=DIRECTION('',(0.,0.,-1.));
#863=AXIS2_PLACEMENT_3D('',#860,#861,#862);
#864=PLANE('',#863);
#865=ORIENTED_EDGE('',*,*,#854,.T.);
#866=ORIENTED_EDGE('',*,*,#628,.T.);
#867=CARTESIAN_POINT('',(7.16543474,-11.4,0.2));
#868=DIRECTION('',(0.,-0.,1.));
#869=VECTOR('',#868,2.2);
#870=LINE('',#867,#869);
#871=EDGE_CURVE('',#765,#615,#870,.T.);
#872=ORIENTED_EDGE('',*,*,#871,.F.);
#873=ORIENTED_EDGE('',*,*,#770,.F.);
#874=EDGE_LOOP('',(#865,#866,#872,#873));
#875=FACE_BOUND('',#874,.T.);
#876=ADVANCED_FACE('',(#875),#864,.F.);
#877=CARTESIAN_POINT('',(9.28271737,-9.28271737,-0.802));
#878=DIRECTION('',(0.707106781,-0.707106781,-0.));
#879=DIRECTION('',(-0.707106781,-0.707106781,-0.));
#880=AXIS2_PLACEMENT_3D('',#877,#878,#879);
#881=PLANE('',#880);
#882=ORIENTED_EDGE('',*,*,#871,.T.);
#883=ORIENTED_EDGE('',*,*,#620,.T.);
#884=CARTESIAN_POINT('',(11.4,-7.16543474,0.2));
#885=DIRECTION('',(0.,-0.,1.));
#886=VECTOR('',#885,2.2);
#887=LINE('',#884,#886);
#888=EDGE_CURVE('',#669,#607,#887,.T.);
#889=ORIENTED_EDGE('',*,*,#888,.F.);
#890=ORIENTED_EDGE('',*,*,#776,.F.);
#891=EDGE_LOOP('',(#882,#883,#889,#890));
#892=FACE_BOUND('',#891,.T.);
#893=ADVANCED_FACE('',(#892),#881,.F.);
#894=CARTESIAN_POINT('',(11.4,0.,-0.802));
#895=DIRECTION('',(1.,0.,0.));
#896=DIRECTION('',(0.,-0.,1.));
#897=AXIS2_PLACEMENT_3D('',#894,#895,#896);
#898=PLANE('',#897);
#899=CARTESIAN_POINT('',(11.4,5.,0.6));
#900=VERTEX_POINT('',#899);
#901=CARTESIAN_POINT('',(11.4,-5.,0.6));
#902=VERTEX_POINT('',#901);
#903=CARTESIAN_POINT('',(11.4,5.,0.6));
#904=DIRECTION('',(0.,-1.,-0.));
#905=VECTOR('',#904,10.);
#906=LINE('',#903,#905);
#907=EDGE_CURVE('',#900,#902,#906,.T.);
#908=ORIENTED_EDGE('',*,*,#907,.T.);
#909=CARTESIAN_POINT('',(11.4,-5.,0.6));
#910=DIRECTION('',(0.,0.,-1.));
#911=VECTOR('',#910,0.4);
#912=LINE('',#909,#911);
#913=EDGE_CURVE('',#902,#671,#912,.T.);
#914=ORIENTED_EDGE('',*,*,#913,.T.);
#915=ORIENTED_EDGE('',*,*,#676,.F.);
#916=ORIENTED_EDGE('',*,*,#888,.T.);
#917=ORIENTED_EDGE('',*,*,#612,.T.);
#918=CARTESIAN_POINT('',(11.4,7.16543474,0.2));
#919=DIRECTION('',(0.,-0.,1.));
#920=VECTOR('',#919,2.2);
#921=LINE('',#918,#920);
#922=EDGE_CURVE('',#694,#599,#921,.T.);
#923=ORIENTED_EDGE('',*,*,#922,.F.);
#924=ORIENTED_EDGE('',*,*,#699,.F.);
#925=CARTESIAN_POINT('',(11.4,5.,0.2));
#926=DIRECTION('',(0.,-0.,1.));
#927=VECTOR('',#926,0.4);
#928=LINE('',#925,#927);
#929=EDGE_CURVE('',#686,#900,#928,.T.);
#930=ORIENTED_EDGE('',*,*,#929,.T.);
#931=EDGE_LOOP('',(#908,#914,#915,#916,#917,#923,#924,#930));
#932=FACE_BOUND('',#931,.T.);
#933=ADVANCED_FACE('',(#932),#898,.F.);
#934=CARTESIAN_POINT('',(9.28271737,9.28271737,-0.802));
#935=DIRECTION('',(0.707106781,0.707106781,0.));
#936=DIRECTION('',(0.707106781,-0.707106781,-0.));
#937=AXIS2_PLACEMENT_3D('',#934,#935,#936);
#938=PLANE('',#937);
#939=ORIENTED_EDGE('',*,*,#922,.T.);
#940=ORIENTED_EDGE('',*,*,#604,.T.);
#941=CARTESIAN_POINT('',(7.16543474,11.4,0.2));
#942=DIRECTION('',(0.,-0.,1.));
#943=VECTOR('',#942,2.2);
#944=LINE('',#941,#943);
#945=EDGE_CURVE('',#702,#591,#944,.T.);
#946=ORIENTED_EDGE('',*,*,#945,.F.);
#947=ORIENTED_EDGE('',*,*,#707,.F.);
#948=EDGE_LOOP('',(#939,#940,#946,#947));
#949=FACE_BOUND('',#948,.T.);
#950=ADVANCED_FACE('',(#949),#938,.F.);
#951=CARTESIAN_POINT('',(0.,11.4,-0.802));
#952=DIRECTION('',(0.,-1.,-0.));
#953=DIRECTION('',(0.,0.,-1.));
#954=AXIS2_PLACEMENT_3D('',#951,#952,#953);
#955=PLANE('',#954);
#956=ORIENTED_EDGE('',*,*,#715,.T.);
#957=ORIENTED_EDGE('',*,*,#945,.T.);
#958=ORIENTED_EDGE('',*,*,#596,.F.);
#959=ORIENTED_EDGE('',*,*,#790,.F.);
#960=EDGE_LOOP('',(#956,#957,#958,#959));
#961=FACE_BOUND('',#960,.T.);
#962=ADVANCED_FACE('',(#961),#955,.T.);
#963=CARTESIAN_POINT('',(-11.398,2.5,0.6));
#964=DIRECTION('',(0.,-0.,1.));
#965=DIRECTION('',(0.,-1.,-0.));
#966=AXIS2_PLACEMENT_3D('',#963,#964,#965);
#967=PLANE('',#966);
#968=CARTESIAN_POINT('',(-11.4,-5.,0.6));
#969=DIRECTION('',(-1.,0.,0.));
#970=VECTOR('',#969,1.);
#971=LINE('',#968,#970);
#972=EDGE_CURVE('',#809,#477,#971,.T.);
#973=ORIENTED_EDGE('',*,*,#972,.T.);
#974=ORIENTED_EDGE('',*,*,#482,.T.);
#975=CARTESIAN_POINT('',(-12.4,-4.,0.6));
#976=DIRECTION('',(0.,1.,0.));
#977=VECTOR('',#976,8.);
#978=LINE('',#975,#977);
#979=EDGE_CURVE('',#469,#388,#978,.T.);
#980=ORIENTED_EDGE('',*,*,#979,.T.);
#981=ORIENTED_EDGE('',*,*,#395,.T.);
#982=CARTESIAN_POINT('',(-11.4,5.,0.6));
#983=DIRECTION('',(-1.,0.,0.));
#984=VECTOR('',#983,1.);
#985=LINE('',#982,#984);
#986=EDGE_CURVE('',#811,#390,#985,.T.);
#987=ORIENTED_EDGE('',*,*,#986,.F.);
#988=ORIENTED_EDGE('',*,*,#816,.F.);
#989=EDGE_LOOP('',(#973,#974,#980,#981,#987,#988));
#990=FACE_BOUND('',#989,.T.);
#991=ADVANCED_FACE('',(#990),#967,.F.);
#992=CARTESIAN_POINT('',(-11.398,5.,0.4));
#993=DIRECTION('',(0.,1.,0.));
#994=DIRECTION('',(0.,-0.,1.));
#995=AXIS2_PLACEMENT_3D('',#992,#993,#994);
#996=PLANE('',#995);
#997=ORIENTED_EDGE('',*,*,#986,.T.);
#998=ORIENTED_EDGE('',*,*,#504,.T.);
#999=ORIENTED_EDGE('',*,*,#737,.F.);
#1000=ORIENTED_EDGE('',*,*,#822,.F.);
#1001=EDGE_LOOP('',(#997,#998,#999,#1000));
#1002=FACE_BOUND('',#1001,.T.);
#1003=ADVANCED_FACE('',(#1002),#996,.F.);
#1004=CARTESIAN_POINT('',(-11.398,-5.,0.4));
#1005=DIRECTION('',(0.,-1.,-0.));
#1006=DIRECTION('',(0.,0.,-1.));
#1007=AXIS2_PLACEMENT_3D('',#1004,#1005,#1006);
#1008=PLANE('',#1007);
#1009=ORIENTED_EDGE('',*,*,#746,.T.);
#1010=ORIENTED_EDGE('',*,*,#490,.T.);
#1011=ORIENTED_EDGE('',*,*,#972,.F.);
#1012=ORIENTED_EDGE('',*,*,#838,.F.);
#1013=EDGE_LOOP('',(#1009,#1010,#1011,#1012));
#1014=FACE_BOUND('',#1013,.T.);
#1015=ADVANCED_FACE('',(#1014),#1008,.F.);
#1016=CARTESIAN_POINT('',(11.398,-2.5,0.6));
#1017=DIRECTION('',(0.,-0.,1.));
#1018=DIRECTION('',(-0.,1.,0.));
#1019=AXIS2_PLACEMENT_3D('',#1016,#1017,#1018);
#1020=PLANE('',#1019);
#1021=CARTESIAN_POINT('',(11.4,5.,0.6));
#1022=DIRECTION('',(1.,0.,0.));
#1023=VECTOR('',#1022,1.);
#1024=LINE('',#1021,#1023);
#1025=EDGE_CURVE('',#900,#225,#1024,.T.);
#1026=ORIENTED_EDGE('',*,*,#1025,.T.);
#1027=ORIENTED_EDGE('',*,*,#230,.T.);
#1028=CARTESIAN_POINT('',(12.4,4.,0.6));
#1029=DIRECTION('',(0.,-1.,-0.));
#1030=VECTOR('',#1029,8.);
#1031=LINE('',#1028,#1030);
#1032=EDGE_CURVE('',#217,#136,#1031,.T.);
#1033=ORIENTED_EDGE('',*,*,#1032,.T.);
#1034=ORIENTED_EDGE('',*,*,#143,.T.);
#1035=CARTESIAN_POINT('',(11.4,-5.,0.6));
#1036=DIRECTION('',(1.,0.,0.));
#1037=VECTOR('',#1036,1.);
#1038=LINE('',#1035,#1037);
#1039=EDGE_CURVE('',#902,#138,#1038,.T.);
#1040=ORIENTED_EDGE('',*,*,#1039,.F.);
#1041=ORIENTED_EDGE('',*,*,#907,.F.);
#1042=EDGE_LOOP('',(#1026,#1027,#1033,#1034,#1040,#1041));
#1043=FACE_BOUND('',#1042,.T.);
#1044=ADVANCED_FACE('',(#1043),#1020,.F.);
#1045=CARTESIAN_POINT('',(11.398,-5.,0.4));
#1046=DIRECTION('',(0.,-1.,-0.));
#1047=DIRECTION('',(0.,-0.,1.));
#1048=AXIS2_PLACEMENT_3D('',#1045,#1046,#1047);
#1049=PLANE('',#1048);
#1050=ORIENTED_EDGE('',*,*,#1039,.T.);
#1051=ORIENTED_EDGE('',*,*,#252,.T.);
#1052=ORIENTED_EDGE('',*,*,#682,.F.);
#1053=ORIENTED_EDGE('',*,*,#913,.F.);
#1054=EDGE_LOOP('',(#1050,#1051,#1052,#1053));
#1055=FACE_BOUND('',#1054,.T.);
#1056=ADVANCED_FACE('',(#1055),#1049,.F.);
#1057=CARTESIAN_POINT('',(11.398,5.,0.4));
#1058=DIRECTION('',(-0.,1.,0.));
#1059=DIRECTION('',(0.,0.,-1.));
#1060=AXIS2_PLACEMENT_3D('',#1057,#1058,#1059);
#1061=PLANE('',#1060);
#1062=ORIENTED_EDGE('',*,*,#691,.T.);
#1063=ORIENTED_EDGE('',*,*,#238,.T.);
#1064=ORIENTED_EDGE('',*,*,#1025,.F.);
#1065=ORIENTED_EDGE('',*,*,#929,.F.);
#1066=EDGE_LOOP('',(#1062,#1063,#1064,#1065));
#1067=FACE_BOUND('',#1066,.T.);
#1068=ADVANCED_FACE('',(#1067),#1061,.F.);
#1069=CARTESIAN_POINT('',(-12.8,0.,2.4));
#1070=DIRECTION('',(-1.,0.,0.));
#1071=DIRECTION('',(0.,1.,0.));
#1072=AXIS2_PLACEMENT_3D('',#1069,#1070,#1071);
#1073=PLANE('',#1072);
#1074=CARTESIAN_POINT('',(-12.8,0.514707296,1.2));
#1075=VERTEX_POINT('',#1074);
#1076=CARTESIAN_POINT('',(-12.8,-0.514707296,1.2));
#1077=VERTEX_POINT('',#1076);
#1078=CARTESIAN_POINT('',(-12.8,0.514707296,1.2));
#1079=DIRECTION('',(0.,-1.,-0.));
#1080=VECTOR('',#1079,1.029414592);
#1081=LINE('',#1078,#1080);
#1082=EDGE_CURVE('',#1075,#1077,#1081,.T.);
#1083=ORIENTED_EDGE('',*,*,#1082,.T.);
#1084=CARTESIAN_POINT('',(-12.8,-0.514707296,1.8));
#1085=VERTEX_POINT('',#1084);
#1086=CARTESIAN_POINT('',(-12.8,-0.514707296,1.2));
#1087=DIRECTION('',(-0.,-0.,1.));
#1088=VECTOR('',#1087,0.6);
#1089=LINE('',#1086,#1088);
#1090=EDGE_CURVE('',#1077,#1085,#1089,.T.);
#1091=ORIENTED_EDGE('',*,*,#1090,.T.);
#1092=CARTESIAN_POINT('',(-12.8,0.514707296,1.8));
#1093=VERTEX_POINT('',#1092);
#1094=CARTESIAN_POINT('',(-12.8,-0.514707296,1.8));
#1095=DIRECTION('',(0.,1.,-0.));
#1096=VECTOR('',#1095,1.029414592);
#1097=LINE('',#1094,#1096);
#1098=EDGE_CURVE('',#1085,#1093,#1097,.T.);
#1099=ORIENTED_EDGE('',*,*,#1098,.T.);
#1100=CARTESIAN_POINT('',(-12.8,0.514707296,1.8));
#1101=DIRECTION('',(0.,0.,-1.));
#1102=VECTOR('',#1101,0.6);
#1103=LINE('',#1100,#1102);
#1104=EDGE_CURVE('',#1093,#1075,#1103,.T.);
#1105=ORIENTED_EDGE('',*,*,#1104,.T.);
#1106=EDGE_LOOP('',(#1083,#1091,#1099,#1105));
#1107=FACE_BOUND('',#1106,.T.);
#1108=ADVANCED_FACE('',(#1107),#1073,.T.);
#1109=CARTESIAN_POINT('',(-12.4,-2.5,2.4));
#1110=DIRECTION('',(0.832050294,0.,-0.554700196));
#1111=DIRECTION('',(0.,-1.,0.));
#1112=AXIS2_PLACEMENT_3D('',#1109,#1110,#1111);
#1113=PLANE('',#1112);
#1114=ORIENTED_EDGE('',*,*,#1098,.F.);
#1115=CARTESIAN_POINT('',(-12.508710135,-3.456449323,2.236934797));
#1116=VERTEX_POINT('',#1115);
#1117=CARTESIAN_POINT('',(-12.8,-0.514707296,1.8));
#1118=CARTESIAN_POINT('',(-12.8,-1.005367069,1.8));
#1119=CARTESIAN_POINT('',(-12.797761057,-1.269759516,1.803358414));
#1120=CARTESIAN_POINT('',(-12.795806703,-1.500545476,1.806289946));
#1121=CARTESIAN_POINT('',(-12.791444523,-1.647078709,1.812833216));
#1122=CARTESIAN_POINT('',(-12.788348201,-1.751089554,1.817477698));
#1123=CARTESIAN_POINT('',(-12.783401285,-1.835215596,1.824898073));
#1124=CARTESIAN_POINT('',(-12.777721534,-1.931804047,1.833417699));
#1125=CARTESIAN_POINT('',(-12.768259232,-2.021516996,1.847611152));
#1126=CARTESIAN_POINT('',(-12.759218543,-2.107232595,1.861172186));
#1127=CARTESIAN_POINT('',(-12.744621066,-2.205370753,1.883068401));
#1128=CARTESIAN_POINT('',(-12.732732776,-2.285295172,1.900900836));
#1129=CARTESIAN_POINT('',(-12.715178662,-2.386509109,1.927232007));
#1130=CARTESIAN_POINT('',(-12.69080779,-2.527027276,1.963788315));
#1131=CARTESIAN_POINT('',(-12.649002692,-2.74479635,2.026495962));
#1132=CARTESIAN_POINT('',(-12.600281053,-2.998594737,2.099578421));
#1133=CARTESIAN_POINT('',(-12.508710135,-3.456449323,2.236934797));
#1134=B_SPLINE_CURVE_WITH_KNOTS('',2,(#1117,#1118,#1119,#1120,#1121,#1122,#1123,#1124,#1125,#1126,#1127,#1128,#1129,#1130,#1131,#1132,#1133),.UNSPECIFIED.,.F.,.F.,(3,2,2,2,2,2,2,2,3),(0.,0.25,0.375,0.4375,0.5,0.5625,0.625,0.75,1.),.UNSPECIFIED.);
#1135=EDGE_CURVE('',#1085,#1116,#1134,.T.);
#1136=ORIENTED_EDGE('',*,*,#1135,.T.);
#1137=CARTESIAN_POINT('',(-12.508710135,-3.456449323,2.236934797));
#1138=DIRECTION('',(0.188144174,-0.940720868,0.282216261));
#1139=VECTOR('',#1138,0.577802295);
#1140=LINE('',#1137,#1139);
#1141=EDGE_CURVE('',#1116,#461,#1140,.T.);
#1142=ORIENTED_EDGE('',*,*,#1141,.T.);
#1143=ORIENTED_EDGE('',*,*,#645,.F.);
#1144=CARTESIAN_POINT('',(-12.508710135,3.456449323,2.236934797));
#1145=VERTEX_POINT('',#1144);
#1146=CARTESIAN_POINT('',(-12.4,4.,2.4));
#1147=DIRECTION('',(-0.188144174,-0.940720868,-0.282216261));
#1148=VECTOR('',#1147,0.577802295);
#1149=LINE('',#1146,#1148);
#1150=EDGE_CURVE('',#398,#1145,#1149,.T.);
#1151=ORIENTED_EDGE('',*,*,#1150,.T.);
#1152=CARTESIAN_POINT('',(-12.508710135,3.456449323,2.236934797));
#1153=CARTESIAN_POINT('',(-12.600084505,2.999577475,2.099873243));
#1154=CARTESIAN_POINT('',(-12.648953108,2.745054623,2.026570339));
#1155=CARTESIAN_POINT('',(-12.690549675,2.528406787,1.964175487));
#1156=CARTESIAN_POINT('',(-12.71510734,2.386920189,1.927338991));
#1157=CARTESIAN_POINT('',(-12.73249556,2.286739647,1.90125666));
#1158=CARTESIAN_POINT('',(-12.744550497,2.205844759,1.883174254));
#1159=CARTESIAN_POINT('',(-12.759000659,2.108876671,1.861499012));
#1160=CARTESIAN_POINT('',(-12.76817255,2.022336844,1.847741175));
#1161=CARTESIAN_POINT('',(-12.777599169,1.933393581,1.833601246));
#1162=CARTESIAN_POINT('',(-12.783379614,1.835583177,1.824930579));
#1163=CARTESIAN_POINT('',(-12.788289667,1.752500581,1.817565499));
#1164=CARTESIAN_POINT('',(-12.791433418,1.647450765,1.812849873));
#1165=CARTESIAN_POINT('',(-12.795786737,1.501982679,1.806319895));
#1166=CARTESIAN_POINT('',(-12.797758924,1.270010889,1.803361614));
#1167=CARTESIAN_POINT('',(-12.8,1.006412048,1.8));
#1168=CARTESIAN_POINT('',(-12.8,0.514707296,1.8));
#1169=B_SPLINE_CURVE_WITH_KNOTS('',2,(#1152,#1153,#1154,#1155,#1156,#1157,#1158,#1159,#1160,#1161,#1162,#1163,#1164,#1165,#1166,#1167,#1168),.UNSPECIFIED.,.F.,.F.,(3,2,2,2,2,2,2,2,3),(0.,0.25,0.375,0.4375,0.5,0.5625,0.625,0.75,1.),.UNSPECIFIED.);
#1170=EDGE_CURVE('',#1145,#1093,#1169,.T.);
#1171=ORIENTED_EDGE('',*,*,#1170,.T.);
#1172=EDGE_LOOP('',(#1114,#1136,#1142,#1143,#1151,#1171));
#1173=FACE_BOUND('',#1172,.T.);
#1174=ADVANCED_FACE('',(#1173),#1113,.F.);
#1175=CARTESIAN_POINT('',(-12.4,2.,0.6));
#1176=DIRECTION('',(0.832050294,-0.,0.554700196));
#1177=DIRECTION('',(0.,1.,0.));
#1178=AXIS2_PLACEMENT_3D('',#1175,#1176,#1177);
#1179=PLANE('',#1178);
#1180=CARTESIAN_POINT('',(-12.508710135,-3.456449323,0.763065203));
#1181=VERTEX_POINT('',#1180);
#1182=CARTESIAN_POINT('',(-12.4,-4.,0.6));
#1183=DIRECTION('',(-0.188144174,0.940720868,0.282216261));
#1184=VECTOR('',#1183,0.577802295);
#1185=LINE('',#1182,#1184);
#1186=EDGE_CURVE('',#469,#1181,#1185,.T.);
#1187=ORIENTED_EDGE('',*,*,#1186,.T.);
#1188=CARTESIAN_POINT('',(-12.508710135,-3.456449323,0.763065203));
#1189=CARTESIAN_POINT('',(-12.600084505,-2.999577475,0.900126757));
#1190=CARTESIAN_POINT('',(-12.648953108,-2.745054623,0.973429661));
#1191=CARTESIAN_POINT('',(-12.690549675,-2.528406787,1.035824513));
#1192=CARTESIAN_POINT('',(-12.71510734,-2.386920189,1.072661009));
#1193=CARTESIAN_POINT('',(-12.73249556,-2.286739647,1.09874334));
#1194=CARTESIAN_POINT('',(-12.744550497,-2.205844759,1.116825746));
#1195=CARTESIAN_POINT('',(-12.759000659,-2.108876671,1.138500988));
#1196=CARTESIAN_POINT('',(-12.76817255,-2.022336844,1.152258825));
#1197=CARTESIAN_POINT('',(-12.777599169,-1.933393581,1.166398754));
#1198=CARTESIAN_POINT('',(-12.783379614,-1.835583177,1.175069421));
#1199=CARTESIAN_POINT('',(-12.788289667,-1.752500581,1.182434501));
#1200=CARTESIAN_POINT('',(-12.791433418,-1.647450765,1.187150127));
#1201=CARTESIAN_POINT('',(-12.795786737,-1.501982679,1.193680105));
#1202=CARTESIAN_POINT('',(-12.797758924,-1.270010889,1.196638386));
#1203=CARTESIAN_POINT('',(-12.8,-1.006412048,1.2));
#1204=CARTESIAN_POINT('',(-12.8,-0.514707296,1.2));
#1205=B_SPLINE_CURVE_WITH_KNOTS('',2,(#1188,#1189,#1190,#1191,#1192,#1193,#1194,#1195,#1196,#1197,#1198,#1199,#1200,#1201,#1202,#1203,#1204),.UNSPECIFIED.,.F.,.F.,(3,2,2,2,2,2,2,2,3),(0.,0.25,0.375,0.4375,0.5,0.5625,0.625,0.75,1.),.UNSPECIFIED.);
#1206=EDGE_CURVE('',#1181,#1077,#1205,.T.);
#1207=ORIENTED_EDGE('',*,*,#1206,.T.);
#1208=ORIENTED_EDGE('',*,*,#1082,.F.);
#1209=CARTESIAN_POINT('',(-12.508710135,3.456449323,0.763065203));
#1210=VERTEX_POINT('',#1209);
#1211=CARTESIAN_POINT('',(-12.8,0.514707296,1.2));
#1212=CARTESIAN_POINT('',(-12.8,1.005367069,1.2));
#1213=CARTESIAN_POINT('',(-12.797761057,1.269759516,1.196641586));
#1214=CARTESIAN_POINT('',(-12.795806703,1.500545476,1.193710054));
#1215=CARTESIAN_POINT('',(-12.791444523,1.647078709,1.187166784));
#1216=CARTESIAN_POINT('',(-12.788348201,1.751089554,1.182522302));
#1217=CARTESIAN_POINT('',(-12.783401285,1.835215596,1.175101927));
#1218=CARTESIAN_POINT('',(-12.777721534,1.931804047,1.166582301));
#1219=CARTESIAN_POINT('',(-12.768259232,2.021516996,1.152388848));
#1220=CARTESIAN_POINT('',(-12.759218543,2.107232595,1.138827814));
#1221=CARTESIAN_POINT('',(-12.744621066,2.205370753,1.116931599));
#1222=CARTESIAN_POINT('',(-12.732732776,2.285295172,1.099099164));
#1223=CARTESIAN_POINT('',(-12.715178662,2.386509109,1.072767993));
#1224=CARTESIAN_POINT('',(-12.69080779,2.527027276,1.036211685));
#1225=CARTESIAN_POINT('',(-12.649002692,2.74479635,0.973504038));
#1226=CARTESIAN_POINT('',(-12.600281053,2.998594737,0.900421579));
#1227=CARTESIAN_POINT('',(-12.508710135,3.456449323,0.763065203));
#1228=B_SPLINE_CURVE_WITH_KNOTS('',2,(#1211,#1212,#1213,#1214,#1215,#1216,#1217,#1218,#1219,#1220,#1221,#1222,#1223,#1224,#1225,#1226,#1227),.UNSPECIFIED.,.F.,.F.,(3,2,2,2,2,2,2,2,3),(0.,0.25,0.375,0.4375,0.5,0.5625,0.625,0.75,1.),.UNSPECIFIED.);
#1229=EDGE_CURVE('',#1075,#1210,#1228,.T.);
#1230=ORIENTED_EDGE('',*,*,#1229,.T.);
#1231=CARTESIAN_POINT('',(-12.508710135,3.456449323,0.763065203));
#1232=DIRECTION('',(0.188144174,0.940720868,-0.282216261));
#1233=VECTOR('',#1232,0.577802295);
#1234=LINE('',#1231,#1233);
#1235=EDGE_CURVE('',#1210,#388,#1234,.T.);
#1236=ORIENTED_EDGE('',*,*,#1235,.T.);
#1237=ORIENTED_EDGE('',*,*,#979,.F.);
#1238=EDGE_LOOP('',(#1187,#1207,#1208,#1230,#1236,#1237));
#1239=FACE_BOUND('',#1238,.T.);
#1240=ADVANCED_FACE('',(#1239),#1179,.F.);
#1241=CARTESIAN_POINT('',(-12.4,-4.,1.5));
#1242=DIRECTION('',(0.980580676,0.196116135,-0.));
#1243=DIRECTION('',(0.,-0.,-1.));
#1244=AXIS2_PLACEMENT_3D('',#1241,#1242,#1243);
#1245=PLANE('',#1244);
#1246=ORIENTED_EDGE('',*,*,#1141,.F.);
#1247=CARTESIAN_POINT('',(-12.508710135,-3.456449323,2.236934797));
#1248=DIRECTION('',(0.,-0.,-1.));
#1249=VECTOR('',#1248,1.473869594);
#1250=LINE('',#1247,#1249);
#1251=EDGE_CURVE('',#1116,#1181,#1250,.T.);
#1252=ORIENTED_EDGE('',*,*,#1251,.T.);
#1253=ORIENTED_EDGE('',*,*,#1186,.F.);
#1254=ORIENTED_EDGE('',*,*,#474,.F.);
#1255=EDGE_LOOP('',(#1246,#1252,#1253,#1254));
#1256=FACE_BOUND('',#1255,.T.);
#1257=ADVANCED_FACE('',(#1256),#1245,.F.);
#1258=CARTESIAN_POINT('',(-12.4,4.,1.5));
#1259=DIRECTION('',(0.980580676,-0.196116135,-0.));
#1260=DIRECTION('',(0.,-0.,1.));
#1261=AXIS2_PLACEMENT_3D('',#1258,#1259,#1260);
#1262=PLANE('',#1261);
#1263=ORIENTED_EDGE('',*,*,#1235,.F.);
#1264=CARTESIAN_POINT('',(-12.508710135,3.456449323,0.763065203));
#1265=DIRECTION('',(0.,-0.,1.));
#1266=VECTOR('',#1265,1.473869594);
#1267=LINE('',#1264,#1266);
#1268=EDGE_CURVE('',#1210,#1145,#1267,.T.);
#1269=ORIENTED_EDGE('',*,*,#1268,.T.);
#1270=ORIENTED_EDGE('',*,*,#1150,.F.);
#1271=ORIENTED_EDGE('',*,*,#403,.F.);
#1272=EDGE_LOOP('',(#1263,#1269,#1270,#1271));
#1273=FACE_BOUND('',#1272,.T.);
#1274=ADVANCED_FACE('',(#1273),#1262,.F.);
#1275=CARTESIAN_POINT('',(-12.508710135,-3.456449323,2.236934797));
#1276=CARTESIAN_POINT('',(-12.508710135,-3.456449323,1.745644932));
#1277=CARTESIAN_POINT('',(-12.508710135,-3.456449323,1.254355068));
#1278=CARTESIAN_POINT('',(-12.508710135,-3.456449323,0.763065203));
#1279=CARTESIAN_POINT('',(-12.8,-2.,2.236934797));
#1280=CARTESIAN_POINT('',(-12.8,-2.,1.745644932));
#1281=CARTESIAN_POINT('',(-12.8,-2.,1.254355068));
#1282=CARTESIAN_POINT('',(-12.8,-2.,0.763065203));
#1283=CARTESIAN_POINT('',(-12.8,-0.514707296,2.236934797));
#1284=CARTESIAN_POINT('',(-12.8,-0.514707296,1.745644932));
#1285=CARTESIAN_POINT('',(-12.8,-0.514707296,1.254355068));
#1286=CARTESIAN_POINT('',(-12.8,-0.514707296,0.763065203));
#1287=(BOUNDED_SURFACE()
B_SPLINE_SURFACE(2,3,((#1275,#1276,#1277,#1278),(#1279,#1280,#1281,#1282),(#1283,#1284,#1285,#1286)),.UNSPECIFIED.,.F.,.F.,.U.)
B_SPLINE_SURFACE_WITH_KNOTS((3,3),(4,4),(0.,1.),(0.000163065,0.001636935),.UNSPECIFIED.)
GEOMETRIC_REPRESENTATION_ITEM()
RATIONAL_B_SPLINE_SURFACE(((1.,1.,1.,1.),(3.980533307,3.980533307,3.980533307,3.980533307),(1.,1.,1.,1.)))
REPRESENTATION_ITEM('')
SURFACE()
);
#1288=ORIENTED_EDGE('',*,*,#1206,.F.);
#1289=ORIENTED_EDGE('',*,*,#1251,.F.);
#1290=ORIENTED_EDGE('',*,*,#1135,.F.);
#1291=ORIENTED_EDGE('',*,*,#1090,.F.);
#1292=EDGE_LOOP('',(#1288,#1289,#1290,#1291));
#1293=FACE_BOUND('',#1292,.T.);
#1294=ADVANCED_FACE('',(#1293),#1287,.T.);
#1295=CARTESIAN_POINT('',(-12.508710135,3.456449323,0.763065203));
#1296=CARTESIAN_POINT('',(-12.508710135,3.456449323,1.254355068));
#1297=CARTESIAN_POINT('',(-12.508710135,3.456449323,1.745644932));
#1298=CARTESIAN_POINT('',(-12.508710135,3.456449323,2.236934797));
#1299=CARTESIAN_POINT('',(-12.8,2.,0.763065203));
#1300=CARTESIAN_POINT('',(-12.8,2.,1.254355068));
#1301=CARTESIAN_POINT('',(-12.8,2.,1.745644932));
#1302=CARTESIAN_POINT('',(-12.8,2.,2.236934797));
#1303=CARTESIAN_POINT('',(-12.8,0.514707296,0.763065203));
#1304=CARTESIAN_POINT('',(-12.8,0.514707296,1.254355068));
#1305=CARTESIAN_POINT('',(-12.8,0.514707296,1.745644932));
#1306=CARTESIAN_POINT('',(-12.8,0.514707296,2.236934797));
#1307=(BOUNDED_SURFACE()
B_SPLINE_SURFACE(2,3,((#1295,#1296,#1297,#1298),(#1299,#1300,#1301,#1302),(#1303,#1304,#1305,#1306)),.UNSPECIFIED.,.F.,.F.,.U.)
B_SPLINE_SURFACE_WITH_KNOTS((3,3),(4,4),(0.,1.),(-0.001636935,-0.000163065),.UNSPECIFIED.)
GEOMETRIC_REPRESENTATION_ITEM()
RATIONAL_B_SPLINE_SURFACE(((1.,1.,1.,1.),(3.980533307,3.980533307,3.980533307,3.980533307),(1.,1.,1.,1.)))
REPRESENTATION_ITEM('')
SURFACE()
);
#1308=ORIENTED_EDGE('',*,*,#1170,.F.);
#1309=ORIENTED_EDGE('',*,*,#1268,.F.);
#1310=ORIENTED_EDGE('',*,*,#1229,.F.);
#1311=ORIENTED_EDGE('',*,*,#1104,.F.);
#1312=EDGE_LOOP('',(#1308,#1309,#1310,#1311));
#1313=FACE_BOUND('',#1312,.T.);
#1314=ADVANCED_FACE('',(#1313),#1307,.T.);
#1315=CARTESIAN_POINT('',(12.8,0.,2.4));
#1316=DIRECTION('',(1.,0.,0.));
#1317=DIRECTION('',(0.,-1.,-0.));
#1318=AXIS2_PLACEMENT_3D('',#1315,#1316,#1317);
#1319=PLANE('',#1318);
#1320=CARTESIAN_POINT('',(12.8,-0.514707296,1.2));
#1321=VERTEX_POINT('',#1320);
#1322=CARTESIAN_POINT('',(12.8,0.514707296,1.2));
#1323=VERTEX_POINT('',#1322);
#1324=CARTESIAN_POINT('',(12.8,-0.514707296,1.2));
#1325=DIRECTION('',(-0.,1.,0.));
#1326=VECTOR('',#1325,1.029414592);
#1327=LINE('',#1324,#1326);
#1328=EDGE_CURVE('',#1321,#1323,#1327,.T.);
#1329=ORIENTED_EDGE('',*,*,#1328,.T.);
#1330=CARTESIAN_POINT('',(12.8,0.514707296,1.8));
#1331=VERTEX_POINT('',#1330);
#1332=CARTESIAN_POINT('',(12.8,0.514707296,1.2));
#1333=DIRECTION('',(-0.,-0.,1.));
#1334=VECTOR('',#1333,0.6);
#1335=LINE('',#1332,#1334);
#1336=EDGE_CURVE('',#1323,#1331,#1335,.T.);
#1337=ORIENTED_EDGE('',*,*,#1336,.T.);
#1338=CARTESIAN_POINT('',(12.8,-0.514707296,1.8));
#1339=VERTEX_POINT('',#1338);
#1340=CARTESIAN_POINT('',(12.8,0.514707296,1.8));
#1341=DIRECTION('',(0.,-1.,-0.));
#1342=VECTOR('',#1341,1.029414592);
#1343=LINE('',#1340,#1342);
#1344=EDGE_CURVE('',#1331,#1339,#1343,.T.);
#1345=ORIENTED_EDGE('',*,*,#1344,.T.);
#1346=CARTESIAN_POINT('',(12.8,-0.514707296,1.8));
#1347=DIRECTION('',(0.,0.,-1.));
#1348=VECTOR('',#1347,0.6);
#1349=LINE('',#1346,#1348);
#1350=EDGE_CURVE('',#1339,#1321,#1349,.T.);
#1351=ORIENTED_EDGE('',*,*,#1350,.T.);
#1352=EDGE_LOOP('',(#1329,#1337,#1345,#1351));
#1353=FACE_BOUND('',#1352,.T.);
#1354=ADVANCED_FACE('',(#1353),#1319,.T.);
#1355=CARTESIAN_POINT('',(12.4,2.5,2.4));
#1356=DIRECTION('',(-0.832050294,0.,-0.554700196));
#1357=DIRECTION('',(-0.,1.,0.));
#1358=AXIS2_PLACEMENT_3D('',#1355,#1356,#1357);
#1359=PLANE('',#1358);
#1360=ORIENTED_EDGE('',*,*,#1344,.F.);
#1361=CARTESIAN_POINT('',(12.508710135,3.456449323,2.236934797));
#1362=VERTEX_POINT('',#1361);
#1363=CARTESIAN_POINT('',(12.8,0.514707296,1.8));
#1364=CARTESIAN_POINT('',(12.8,1.005367069,1.8));
#1365=CARTESIAN_POINT('',(12.797761057,1.269759516,1.803358414));
#1366=CARTESIAN_POINT('',(12.795806703,1.500545476,1.806289946));
#1367=CARTESIAN_POINT('',(12.791444523,1.647078709,1.812833216));
#1368=CARTESIAN_POINT('',(12.788348201,1.751089554,1.817477698));
#1369=CARTESIAN_POINT('',(12.783401285,1.835215596,1.824898073));
#1370=CARTESIAN_POINT('',(12.777721534,1.931804047,1.833417699));
#1371=CARTESIAN_POINT('',(12.768259232,2.021516996,1.847611152));
#1372=CARTESIAN_POINT('',(12.759218543,2.107232595,1.861172186));
#1373=CARTESIAN_POINT('',(12.744621066,2.205370753,1.883068401));
#1374=CARTESIAN_POINT('',(12.732732776,2.285295172,1.900900836));
#1375=CARTESIAN_POINT('',(12.715178662,2.386509109,1.927232007));
#1376=CARTESIAN_POINT('',(12.69080779,2.527027276,1.963788315));
#1377=CARTESIAN_POINT('',(12.649002692,2.74479635,2.026495962));
#1378=CARTESIAN_POINT('',(12.600281053,2.998594737,2.099578421));
#1379=CARTESIAN_POINT('',(12.508710135,3.456449323,2.236934797));
#1380=B_SPLINE_CURVE_WITH_KNOTS('',2,(#1363,#1364,#1365,#1366,#1367,#1368,#1369,#1370,#1371,#1372,#1373,#1374,#1375,#1376,#1377,#1378,#1379),.UNSPECIFIED.,.F.,.F.,(3,2,2,2,2,2,2,2,3),(0.,0.25,0.375,0.4375,0.5,0.5625,0.625,0.75,1.),.UNSPECIFIED.);
#1381=EDGE_CURVE('',#1331,#1362,#1380,.T.);
#1382=ORIENTED_EDGE('',*,*,#1381,.T.);
#1383=CARTESIAN_POINT('',(12.508710135,3.456449323,2.236934797));
#1384=DIRECTION('',(-0.188144174,0.940720868,0.282216261));
#1385=VECTOR('',#1384,0.577802295);
#1386=LINE('',#1383,#1385);
#1387=EDGE_CURVE('',#1362,#209,#1386,.T.);
#1388=ORIENTED_EDGE('',*,*,#1387,.T.);
#1389=ORIENTED_EDGE('',*,*,#656,.F.);
#1390=CARTESIAN_POINT('',(12.508710135,-3.456449323,2.236934797));
#1391=VERTEX_POINT('',#1390);
#1392=CARTESIAN_POINT('',(12.4,-4.,2.4));
#1393=DIRECTION('',(0.188144174,0.940720868,-0.282216261));
#1394=VECTOR('',#1393,0.577802295);
#1395=LINE('',#1392,#1394);
#1396=EDGE_CURVE('',#146,#1391,#1395,.T.);
#1397=ORIENTED_EDGE('',*,*,#1396,.T.);
#1398=CARTESIAN_POINT('',(12.508710135,-3.456449323,2.236934797));
#1399=CARTESIAN_POINT('',(12.600084505,-2.999577475,2.099873243));
#1400=CARTESIAN_POINT('',(12.648953108,-2.745054623,2.026570339));
#1401=CARTESIAN_POINT('',(12.690549675,-2.528406787,1.964175487));
#1402=CARTESIAN_POINT('',(12.71510734,-2.386920189,1.927338991));
#1403=CARTESIAN_POINT('',(12.73249556,-2.286739647,1.90125666));
#1404=CARTESIAN_POINT('',(12.744550497,-2.205844759,1.883174254));
#1405=CARTESIAN_POINT('',(12.759000659,-2.108876671,1.861499012));
#1406=CARTESIAN_POINT('',(12.76817255,-2.022336844,1.847741175));
#1407=CARTESIAN_POINT('',(12.777599169,-1.933393581,1.833601246));
#1408=CARTESIAN_POINT('',(12.783379614,-1.835583177,1.824930579));
#1409=CARTESIAN_POINT('',(12.788289667,-1.752500581,1.817565499));
#1410=CARTESIAN_POINT('',(12.791433418,-1.647450765,1.812849873));
#1411=CARTESIAN_POINT('',(12.795786737,-1.501982679,1.806319895));
#1412=CARTESIAN_POINT('',(12.797758924,-1.270010889,1.803361614));
#1413=CARTESIAN_POINT('',(12.8,-1.006412048,1.8));
#1414=CARTESIAN_POINT('',(12.8,-0.514707296,1.8));
#1415=B_SPLINE_CURVE_WITH_KNOTS('',2,(#1398,#1399,#1400,#1401,#1402,#1403,#1404,#1405,#1406,#1407,#1408,#1409,#1410,#1411,#1412,#1413,#1414),.UNSPECIFIED.,.F.,.F.,(3,2,2,2,2,2,2,2,3),(0.,0.25,0.375,0.4375,0.5,0.5625,0.625,0.75,1.),.UNSPECIFIED.);
#1416=EDGE_CURVE('',#1391,#1339,#1415,.T.);
#1417=ORIENTED_EDGE('',*,*,#1416,.T.);
#1418=EDGE_LOOP('',(#1360,#1382,#1388,#1389,#1397,#1417));
#1419=FACE_BOUND('',#1418,.T.);
#1420=ADVANCED_FACE('',(#1419),#1359,.F.);
#1421=CARTESIAN_POINT('',(12.4,-2.,0.6));
#1422=DIRECTION('',(-0.832050294,-0.,0.554700196));
#1423=DIRECTION('',(0.,-1.,-0.));
#1424=AXIS2_PLACEMENT_3D('',#1421,#1422,#1423);
#1425=PLANE('',#1424);
#1426=CARTESIAN_POINT('',(12.508710135,3.456449323,0.763065203));
#1427=VERTEX_POINT('',#1426);
#1428=CARTESIAN_POINT('',(12.4,4.,0.6));
#1429=DIRECTION('',(0.188144174,-0.940720868,0.282216261));
#1430=VECTOR('',#1429,0.577802295);
#1431=LINE('',#1428,#1430);
#1432=EDGE_CURVE('',#217,#1427,#1431,.T.);
#1433=ORIENTED_EDGE('',*,*,#1432,.T.);
#1434=CARTESIAN_POINT('',(12.508710135,3.456449323,0.763065203));
#1435=CARTESIAN_POINT('',(12.600084505,2.999577475,0.900126757));
#1436=CARTESIAN_POINT('',(12.648953108,2.745054623,0.973429661));
#1437=CARTESIAN_POINT('',(12.690549675,2.528406787,1.035824513));
#1438=CARTESIAN_POINT('',(12.71510734,2.386920189,1.072661009));
#1439=CARTESIAN_POINT('',(12.73249556,2.286739647,1.09874334));
#1440=CARTESIAN_POINT('',(12.744550497,2.205844759,1.116825746));
#1441=CARTESIAN_POINT('',(12.759000659,2.108876671,1.138500988));
#1442=CARTESIAN_POINT('',(12.76817255,2.022336844,1.152258825));
#1443=CARTESIAN_POINT('',(12.777599169,1.933393581,1.166398754));
#1444=CARTESIAN_POINT('',(12.783379614,1.835583177,1.175069421));
#1445=CARTESIAN_POINT('',(12.788289667,1.752500581,1.182434501));
#1446=CARTESIAN_POINT('',(12.791433418,1.647450765,1.187150127));
#1447=CARTESIAN_POINT('',(12.795786737,1.501982679,1.193680105));
#1448=CARTESIAN_POINT('',(12.797758924,1.270010889,1.196638386));
#1449=CARTESIAN_POINT('',(12.8,1.006412048,1.2));
#1450=CARTESIAN_POINT('',(12.8,0.514707296,1.2));
#1451=B_SPLINE_CURVE_WITH_KNOTS('',2,(#1434,#1435,#1436,#1437,#1438,#1439,#1440,#1441,#1442,#1443,#1444,#1445,#1446,#1447,#1448,#1449,#1450),.UNSPECIFIED.,.F.,.F.,(3,2,2,2,2,2,2,2,3),(0.,0.25,0.375,0.4375,0.5,0.5625,0.625,0.75,1.),.UNSPECIFIED.);
#1452=EDGE_CURVE('',#1427,#1323,#1451,.T.);
#1453=ORIENTED_EDGE('',*,*,#1452,.T.);
#1454=ORIENTED_EDGE('',*,*,#1328,.F.);
#1455=CARTESIAN_POINT('',(12.508710135,-3.456449323,0.763065203));
#1456=VERTEX_POINT('',#1455);
#1457=CARTESIAN_POINT('',(12.8,-0.514707296,1.2));
#1458=CARTESIAN_POINT('',(12.8,-1.005367069,1.2));
#1459=CARTESIAN_POINT('',(12.797761057,-1.269759516,1.196641586));
#1460=CARTESIAN_POINT('',(12.795806703,-1.500545476,1.193710054));
#1461=CARTESIAN_POINT('',(12.791444523,-1.647078709,1.187166784));
#1462=CARTESIAN_POINT('',(12.788348201,-1.751089554,1.182522302));
#1463=CARTESIAN_POINT('',(12.783401285,-1.835215596,1.175101927));
#1464=CARTESIAN_POINT('',(12.777721534,-1.931804047,1.166582301));
#1465=CARTESIAN_POINT('',(12.768259232,-2.021516996,1.152388848));
#1466=CARTESIAN_POINT('',(12.759218543,-2.107232595,1.138827814));
#1467=CARTESIAN_POINT('',(12.744621066,-2.205370753,1.116931599));
#1468=CARTESIAN_POINT('',(12.732732776,-2.285295172,1.099099164));
#1469=CARTESIAN_POINT('',(12.715178662,-2.386509109,1.072767993));
#1470=CARTESIAN_POINT('',(12.69080779,-2.527027276,1.036211685));
#1471=CARTESIAN_POINT('',(12.649002692,-2.74479635,0.973504038));
#1472=CARTESIAN_POINT('',(12.600281053,-2.998594737,0.900421579));
#1473=CARTESIAN_POINT('',(12.508710135,-3.456449323,0.763065203));
#1474=B_SPLINE_CURVE_WITH_KNOTS('',2,(#1457,#1458,#1459,#1460,#1461,#1462,#1463,#1464,#1465,#1466,#1467,#1468,#1469,#1470,#1471,#1472,#1473),.UNSPECIFIED.,.F.,.F.,(3,2,2,2,2,2,2,2,3),(0.,0.25,0.375,0.4375,0.5,0.5625,0.625,0.75,1.),.UNSPECIFIED.);
#1475=EDGE_CURVE('',#1321,#1456,#1474,.T.);
#1476=ORIENTED_EDGE('',*,*,#1475,.T.);
#1477=CARTESIAN_POINT('',(12.508710135,-3.456449323,0.763065203));
#1478=DIRECTION('',(-0.188144174,-0.940720868,-0.282216261));
#1479=VECTOR('',#1478,0.577802295);
#1480=LINE('',#1477,#1479);
#1481=EDGE_CURVE('',#1456,#136,#1480,.T.);
#1482=ORIENTED_EDGE('',*,*,#1481,.T.);
#1483=ORIENTED_EDGE('',*,*,#1032,.F.);
#1484=EDGE_LOOP('',(#1433,#1453,#1454,#1476,#1482,#1483));
#1485=FACE_BOUND('',#1484,.T.);
#1486=ADVANCED_FACE('',(#1485),#1425,.F.);
#1487=CARTESIAN_POINT('',(12.4,4.,1.5));
#1488=DIRECTION('',(-0.980580676,-0.196116135,-0.));
#1489=DIRECTION('',(-0.,0.,-1.));
#1490=AXIS2_PLACEMENT_3D('',#1487,#1488,#1489);
#1491=PLANE('',#1490);
#1492=ORIENTED_EDGE('',*,*,#1387,.F.);
#1493=CARTESIAN_POINT('',(12.508710135,3.456449323,2.236934797));
#1494=DIRECTION('',(-0.,0.,-1.));
#1495=VECTOR('',#1494,1.473869594);
#1496=LINE('',#1493,#1495);
#1497=EDGE_CURVE('',#1362,#1427,#1496,.T.);
#1498=ORIENTED_EDGE('',*,*,#1497,.T.);
#1499=ORIENTED_EDGE('',*,*,#1432,.F.);
#1500=ORIENTED_EDGE('',*,*,#222,.F.);
#1501=EDGE_LOOP('',(#1492,#1498,#1499,#1500));
#1502=FACE_BOUND('',#1501,.T.);
#1503=ADVANCED_FACE('',(#1502),#1491,.F.);
#1504=CARTESIAN_POINT('',(12.4,-4.,1.5));
#1505=DIRECTION('',(-0.980580676,0.196116135,0.));
#1506=DIRECTION('',(0.,-0.,1.));
#1507=AXIS2_PLACEMENT_3D('',#1504,#1505,#1506);
#1508=PLANE('',#1507);
#1509=ORIENTED_EDGE('',*,*,#1481,.F.);
#1510=CARTESIAN_POINT('',(12.508710135,-3.456449323,0.763065203));
#1511=DIRECTION('',(0.,-0.,1.));
#1512=VECTOR('',#1511,1.473869594);
#1513=LINE('',#1510,#1512);
#1514=EDGE_CURVE('',#1456,#1391,#1513,.T.);
#1515=ORIENTED_EDGE('',*,*,#1514,.T.);
#1516=ORIENTED_EDGE('',*,*,#1396,.F.);
#1517=ORIENTED_EDGE('',*,*,#151,.F.);
#1518=EDGE_LOOP('',(#1509,#1515,#1516,#1517));
#1519=FACE_BOUND('',#1518,.T.);
#1520=ADVANCED_FACE('',(#1519),#1508,.F.);
#1521=CARTESIAN_POINT('',(12.508710135,3.456449323,2.236934797));
#1522=CARTESIAN_POINT('',(12.508710135,3.456449323,1.745644932));
#1523=CARTESIAN_POINT('',(12.508710135,3.456449323,1.254355068));
#1524=CARTESIAN_POINT('',(12.508710135,3.456449323,0.763065203));
#1525=CARTESIAN_POINT('',(12.8,2.,2.236934797));
#1526=CARTESIAN_POINT('',(12.8,2.,1.745644932));
#1527=CARTESIAN_POINT('',(12.8,2.,1.254355068));
#1528=CARTESIAN_POINT('',(12.8,2.,0.763065203));
#1529=CARTESIAN_POINT('',(12.8,0.514707296,2.236934797));
#1530=CARTESIAN_POINT('',(12.8,0.514707296,1.745644932));
#1531=CARTESIAN_POINT('',(12.8,0.514707296,1.254355068));
#1532=CARTESIAN_POINT('',(12.8,0.514707296,0.763065203));
#1533=(BOUNDED_SURFACE()
B_SPLINE_SURFACE(2,3,((#1521,#1522,#1523,#1524),(#1525,#1526,#1527,#1528),(#1529,#1530,#1531,#1532)),.UNSPECIFIED.,.F.,.F.,.U.)
B_SPLINE_SURFACE_WITH_KNOTS((3,3),(4,4),(0.,1.),(0.000163065,0.001636935),.UNSPECIFIED.)
GEOMETRIC_REPRESENTATION_ITEM()
RATIONAL_B_SPLINE_SURFACE(((1.,1.,1.,1.),(3.980533307,3.980533307,3.980533307,3.980533307),(1.,1.,1.,1.)))
REPRESENTATION_ITEM('')
SURFACE()
);
#1534=ORIENTED_EDGE('',*,*,#1452,.F.);
#1535=ORIENTED_EDGE('',*,*,#1497,.F.);
#1536=ORIENTED_EDGE('',*,*,#1381,.F.);
#1537=ORIENTED_EDGE('',*,*,#1336,.F.);
#1538=EDGE_LOOP('',(#1534,#1535,#1536,#1537));
#1539=FACE_BOUND('',#1538,.T.);
#1540=ADVANCED_FACE('',(#1539),#1533,.T.);
#1541=CARTESIAN_POINT('',(12.508710135,-3.456449323,0.763065203));
#1542=CARTESIAN_POINT('',(12.508710135,-3.456449323,1.254355068));
#1543=CARTESIAN_POINT('',(12.508710135,-3.456449323,1.745644932));
#1544=CARTESIAN_POINT('',(12.508710135,-3.456449323,2.236934797));
#1545=CARTESIAN_POINT('',(12.8,-2.,0.763065203));
#1546=CARTESIAN_POINT('',(12.8,-2.,1.254355068));
#1547=CARTESIAN_POINT('',(12.8,-2.,1.745644932));
#1548=CARTESIAN_POINT('',(12.8,-2.,2.236934797));
#1549=CARTESIAN_POINT('',(12.8,-0.514707296,0.763065203));
#1550=CARTESIAN_POINT('',(12.8,-0.514707296,1.254355068));
#1551=CARTESIAN_POINT('',(12.8,-0.514707296,1.745644932));
#1552=CARTESIAN_POINT('',(12.8,-0.514707296,2.236934797));
#1553=(BOUNDED_SURFACE()
B_SPLINE_SURFACE(2,3,((#1541,#1542,#1543,#1544),(#1545,#1546,#1547,#1548),(#1549,#1550,#1551,#1552)),.UNSPECIFIED.,.F.,.F.,.U.)
B_SPLINE_SURFACE_WITH_KNOTS((3,3),(4,4),(0.,1.),(-0.001636935,-0.000163065),.UNSPECIFIED.)
GEOMETRIC_REPRESENTATION_ITEM()
RATIONAL_B_SPLINE_SURFACE(((1.,1.,1.,1.),(3.980533307,3.980533307,3.980533307,3.980533307),(1.,1.,1.,1.)))
REPRESENTATION_ITEM('')
SURFACE()
);
#1554=ORIENTED_EDGE('',*,*,#1416,.F.);
#1555=ORIENTED_EDGE('',*,*,#1514,.F.);
#1556=ORIENTED_EDGE('',*,*,#1475,.F.);
#1557=ORIENTED_EDGE('',*,*,#1350,.F.);
#1558=EDGE_LOOP('',(#1554,#1555,#1556,#1557));
#1559=FACE_BOUND('',#1558,.T.);
#1560=ADVANCED_FACE('',(#1559),#1553,.T.);
#1561=CARTESIAN_POINT('',(-10.76862915,10.76862915,2.4));
#1562=DIRECTION('',(-0.707106781,0.707106781,0.));
#1563=DIRECTION('',(0.707106781,0.707106781,0.));
#1564=AXIS2_PLACEMENT_3D('',#1561,#1562,#1563);
#1565=PLANE('',#1564);
#1566=ORIENTED_EDGE('',*,*,#435,.F.);
#1567=CARTESIAN_POINT('',(-12.4,9.1372583,-0.4));
#1568=DIRECTION('',(0.707106781,0.707106781,0.));
#1569=VECTOR('',#1568,4.614213562);
#1570=LINE('',#1567,#1569);
#1571=EDGE_CURVE('',#422,#75,#1570,.T.);
#1572=ORIENTED_EDGE('',*,*,#1571,.T.);
#1573=ORIENTED_EDGE('',*,*,#80,.T.);
#1574=ORIENTED_EDGE('',*,*,#562,.F.);
#1575=EDGE_LOOP('',(#1566,#1572,#1573,#1574));
#1576=FACE_BOUND('',#1575,.T.);
#1577=ADVANCED_FACE('',(#1576),#1565,.T.);
#1578=CARTESIAN_POINT('',(-9.990811691,9.990811691,0.7));
#1579=DIRECTION('',(0.5,-0.5,-0.707106781));
#1580=DIRECTION('',(-0.707106781,-0.707106781,-0.));
#1581=AXIS2_PLACEMENT_3D('',#1578,#1579,#1580);
#1582=PLANE('',#1581);
#1583=ORIENTED_EDGE('',*,*,#88,.F.);
#1584=ORIENTED_EDGE('',*,*,#1571,.F.);
#1585=ORIENTED_EDGE('',*,*,#427,.F.);
#1586=ORIENTED_EDGE('',*,*,#519,.F.);
#1587=EDGE_LOOP('',(#1583,#1584,#1585,#1586));
#1588=FACE_BOUND('',#1587,.T.);
#1589=ADVANCED_FACE('',(#1588),#1582,.F.);
#1590=CARTESIAN_POINT('',(10.76862915,10.76862915,2.4));
#1591=DIRECTION('',(0.707106781,0.707106781,0.));
#1592=DIRECTION('',(0.707106781,-0.707106781,-0.));
#1593=AXIS2_PLACEMENT_3D('',#1590,#1591,#1592);
#1594=PLANE('',#1593);
#1595=ORIENTED_EDGE('',*,*,#64,.F.);
#1596=CARTESIAN_POINT('',(9.1372583,12.4,-0.4));
#1597=DIRECTION('',(0.707106781,-0.707106781,-0.));
#1598=VECTOR('',#1597,4.614213562);
#1599=LINE('',#1596,#1598);
#1600=EDGE_CURVE('',#51,#194,#1599,.T.);
#1601=ORIENTED_EDGE('',*,*,#1600,.T.);
#1602=ORIENTED_EDGE('',*,*,#199,.T.);
#1603=ORIENTED_EDGE('',*,*,#541,.F.);
#1604=EDGE_LOOP('',(#1595,#1601,#1602,#1603));
#1605=FACE_BOUND('',#1604,.T.);
#1606=ADVANCED_FACE('',(#1605),#1594,.T.);
#1607=CARTESIAN_POINT('',(9.990811691,9.990811691,0.7));
#1608=DIRECTION('',(-0.5,-0.5,-0.707106781));
#1609=DIRECTION('',(-0.707106781,0.707106781,0.));
#1610=AXIS2_PLACEMENT_3D('',#1607,#1608,#1609);
#1611=PLANE('',#1610);
#1612=ORIENTED_EDGE('',*,*,#205,.F.);
#1613=ORIENTED_EDGE('',*,*,#1600,.F.);
#1614=ORIENTED_EDGE('',*,*,#56,.F.);
#1615=ORIENTED_EDGE('',*,*,#118,.F.);
#1616=EDGE_LOOP('',(#1612,#1613,#1614,#1615));
#1617=FACE_BOUND('',#1616,.T.);
#1618=ADVANCED_FACE('',(#1617),#1611,.F.);
#1619=CARTESIAN_POINT('',(10.76862915,-10.76862915,2.4));
#1620=DIRECTION('',(0.707106781,-0.707106781,-0.));
#1621=DIRECTION('',(-0.707106781,-0.707106781,-0.));
#1622=AXIS2_PLACEMENT_3D('',#1619,#1620,#1621);
#1623=PLANE('',#1622);
#1624=ORIENTED_EDGE('',*,*,#183,.F.);
#1625=CARTESIAN_POINT('',(12.4,-9.1372583,-0.4));
#1626=DIRECTION('',(-0.707106781,-0.707106781,-0.));
#1627=VECTOR('',#1626,4.614213562);
#1628=LINE('',#1625,#1627);
#1629=EDGE_CURVE('',#170,#334,#1628,.T.);
#1630=ORIENTED_EDGE('',*,*,#1629,.T.);
#1631=ORIENTED_EDGE('',*,*,#339,.T.);
#1632=ORIENTED_EDGE('',*,*,#548,.F.);
#1633=EDGE_LOOP('',(#1624,#1630,#1631,#1632));
#1634=FACE_BOUND('',#1633,.T.);
#1635=ADVANCED_FACE('',(#1634),#1623,.T.);
#1636=CARTESIAN_POINT('',(9.990811691,-9.990811691,0.7));
#1637=DIRECTION('',(-0.5,0.5,-0.707106781));
#1638=DIRECTION('',(0.707106781,0.707106781,0.));
#1639=AXIS2_PLACEMENT_3D('',#1636,#1637,#1638);
#1640=PLANE('',#1639);
#1641=ORIENTED_EDGE('',*,*,#345,.F.);
#1642=ORIENTED_EDGE('',*,*,#1629,.F.);
#1643=ORIENTED_EDGE('',*,*,#175,.F.);
#1644=ORIENTED_EDGE('',*,*,#276,.F.);
#1645=EDGE_LOOP('',(#1641,#1642,#1643,#1644));
#1646=FACE_BOUND('',#1645,.T.);
#1647=ADVANCED_FACE('',(#1646),#1640,.F.);
#1648=CARTESIAN_POINT('',(-10.76862915,-10.76862915,2.4));
#1649=DIRECTION('',(-0.707106781,-0.707106781,-0.));
#1650=DIRECTION('',(-0.707106781,0.707106781,0.));
#1651=AXIS2_PLACEMENT_3D('',#1648,#1649,#1650);
#1652=PLANE('',#1651);
#1653=ORIENTED_EDGE('',*,*,#323,.F.);
#1654=CARTESIAN_POINT('',(-9.1372583,-12.4,-0.4));
#1655=DIRECTION('',(-0.707106781,0.707106781,0.));
#1656=VECTOR('',#1655,4.614213562);
#1657=LINE('',#1654,#1656);
#1658=EDGE_CURVE('',#310,#446,#1657,.T.);
#1659=ORIENTED_EDGE('',*,*,#1658,.T.);
#1660=ORIENTED_EDGE('',*,*,#451,.T.);
#1661=ORIENTED_EDGE('',*,*,#555,.F.);
#1662=EDGE_LOOP('',(#1653,#1659,#1660,#1661));
#1663=FACE_BOUND('',#1662,.T.);
#1664=ADVANCED_FACE('',(#1663),#1652,.T.);
#1665=CARTESIAN_POINT('',(-9.990811691,-9.990811691,0.7));
#1666=DIRECTION('',(0.5,0.5,-0.707106781));
#1667=DIRECTION('',(0.707106781,-0.707106781,-0.));
#1668=AXIS2_PLACEMENT_3D('',#1665,#1666,#1667);
#1669=PLANE('',#1668);
#1670=ORIENTED_EDGE('',*,*,#457,.F.);
#1671=ORIENTED_EDGE('',*,*,#1658,.F.);
#1672=ORIENTED_EDGE('',*,*,#315,.F.);
#1673=ORIENTED_EDGE('',*,*,#370,.F.);
#1674=EDGE_LOOP('',(#1670,#1671,#1672,#1673));
#1675=FACE_BOUND('',#1674,.T.);
#1676=ADVANCED_FACE('',(#1675),#1669,.F.);
#1677=CLOSED_SHELL('',(#98,#129,#256,#287,#350,#381,#508,#530,#566,#662,#780,#802,#842,#859,#876,#893,#933,#950,#962,#991,#1003,#1015,#1044,#1056,#1068,#1108,
#1174,#1240,#1257,#1274,#1294,#1314,#1354,#1420,#1486,#1503,#1520,#1540,#1560,#1577,#1589,#1606,#1618,#1635,#1647,#1664,#1676));
#1678=MANIFOLD_SOLID_BREP('Inner',#1677);
#1679=COLOUR_RGB('',0.494117647,0.494117647,0.525490224);
#1680=FILL_AREA_STYLE_COLOUR('',#1679);
#1681=FILL_AREA_STYLE('',(#1680));
#1682=SURFACE_STYLE_FILL_AREA(#1681);
#1683=SURFACE_SIDE_STYLE('',(#1682));
#1684=SURFACE_STYLE_USAGE(.BOTH.,#1683);
#1685=PRESENTATION_STYLE_ASSIGNMENT((#1684));
#26=STYLED_ITEM('',(#1685),#1678);
#1686=(NAMED_UNIT(*)PLANE_ANGLE_UNIT()SI_UNIT($,.RADIAN.));
#1687=PLANE_ANGLE_MEASURE_WITH_UNIT(PLANE_ANGLE_MEASURE(0.0174532925),#1686);
#1688=(CONVERSION_BASED_UNIT('DEGREE',#1687)NAMED_UNIT(#1689)PLANE_ANGLE_UNIT());
#1689=DIMENSIONAL_EXPONENTS(0.,0.,0.,0.,0.,0.,0.);
#1690=(NAMED_UNIT(*)SI_UNIT($,.STERADIAN.)SOLID_ANGLE_UNIT());
#1691=(LENGTH_UNIT()NAMED_UNIT(*)SI_UNIT(.MILLI.,.METRE.));
#1692=UNCERTAINTY_MEASURE_WITH_UNIT(LENGTH_MEASURE(1.000000E-03),#1691,'DISTANCE_ACCURACY_VALUE','Maximum Tolerance applied to model');
#1693=(GEOMETRIC_REPRESENTATION_CONTEXT(3)GLOBAL_UNCERTAINTY_ASSIGNED_CONTEXT((#1692))GLOBAL_UNIT_ASSIGNED_CONTEXT((#1691,#1688,#1690))REPRESENTATION_CONTEXT('','Side Holders'));
#1705=CARTESIAN_POINT('',(0.,0.,0.));
#1706=DIRECTION('',(0.,0.,1.));
#1707=DIRECTION('',(1.,0.,-0.));
#1708=AXIS2_PLACEMENT_3D('',#1705,#1706,#1707);
#1709=ITEM_DEFINED_TRANSFORMATION('','',#1708,#15);
#1710=(REPRESENTATION_RELATIONSHIP('','',#1695,#16)REPRESENTATION_RELATIONSHIP_WITH_TRANSFORMATION(#1709)SHAPE_REPRESENTATION_RELATIONSHIP());
#1711=NEXT_ASSEMBLY_USAGE_OCCURRENCE('Side Holders_1','Side Holders','Side Holders',#25,#1704,$);
#1712=PRODUCT_DEFINITION_SHAPE('','',#1711);
#1713=CONTEXT_DEPENDENT_SHAPE_REPRESENTATION(#1710,#1712);
#1695=SHAPE_REPRESENTATION('Side Holders',(#15),#1693);
#1714=CARTESIAN_POINT('',(0.,0.,0.));
#1715=DIRECTION('',(0.,0.,1.));
#1716=DIRECTION('',(1.,0.,0.));
#1717=AXIS2_PLACEMENT_3D('',#1714,#1715,#1716);
#1719=MAPPED_ITEM('',#1718,#1717);
#1718=REPRESENTATION_MAP(#1717,#1695);
#1720=APPLICATION_CONTEXT('Managed model based 3d engineering');
#1721=APPLICATION_PROTOCOL_DEFINITION('international standard','ap242_managed_model_based_3d_engineering',2014,#1720);
#1722=PRODUCT_CONTEXT('',#1720,'mechanical');
#1723=PRODUCT_DEFINITION_CONTEXT('part definition',#1720,'design');
#1703=PRODUCT('Side Holders','Side Holders','',(#1722));
#1724=PRODUCT_RELATED_PRODUCT_CATEGORY('part','',(#1703));
#1725=PRODUCT_DEFINITION_FORMATION_WITH_SPECIFIED_SOURCE('','',#1703,.NOT_KNOWN.);
#1704=PRODUCT_DEFINITION('design','',#1725,#1723);
#1702=PRODUCT_DEFINITION_SHAPE('','',#1704);
#1726=SHAPE_DEFINITION_REPRESENTATION(#1702,#1695);
#1694=DRAUGHTING_MODEL('',(#1719),#1693);
#1727=(NAMED_UNIT(*)PLANE_ANGLE_UNIT()SI_UNIT($,.RADIAN.));
#1728=PLANE_ANGLE_MEASURE_WITH_UNIT(PLANE_ANGLE_MEASURE(0.0174532925),#1727);
#1729=(CONVERSION_BASED_UNIT('DEGREE',#1728)NAMED_UNIT(#1730)PLANE_ANGLE_UNIT());
#1730=DIMENSIONAL_EXPONENTS(0.,0.,0.,0.,0.,0.,0.);
#1731=(NAMED_UNIT(*)SI_UNIT($,.STERADIAN.)SOLID_ANGLE_UNIT());
#1732=(LENGTH_UNIT()NAMED_UNIT(*)SI_UNIT(.MILLI.,.METRE.));
#1733=UNCERTAINTY_MEASURE_WITH_UNIT(LENGTH_MEASURE(1.000000E-03),#1732,'DISTANCE_ACCURACY_VALUE','Maximum Tolerance applied to model');
#1734=(GEOMETRIC_REPRESENTATION_CONTEXT(3)GLOBAL_UNCERTAINTY_ASSIGNED_CONTEXT((#1733))GLOBAL_UNIT_ASSIGNED_CONTEXT((#1732,#1729,#1731))REPRESENTATION_CONTEXT('','Snap'));
#1746=CARTESIAN_POINT('',(0.,0.,0.));
#1747=DIRECTION('',(0.,0.,1.));
#1748=DIRECTION('',(1.,0.,-0.));
#1749=AXIS2_PLACEMENT_3D('',#1746,#1747,#1748);
#1750=ITEM_DEFINED_TRANSFORMATION('','',#1749,#15);
#1751=(REPRESENTATION_RELATIONSHIP('','',#1736,#16)REPRESENTATION_RELATIONSHIP_WITH_TRANSFORMATION(#1750)SHAPE_REPRESENTATION_RELATIONSHIP());
#1752=NEXT_ASSEMBLY_USAGE_OCCURRENCE('Snap_2','Snap','Snap',#25,#1745,$);
#1753=PRODUCT_DEFINITION_SHAPE('','',#1752);
#1754=CONTEXT_DEPENDENT_SHAPE_REPRESENTATION(#1751,#1753);
#1736=SHAPE_REPRESENTATION('Snap',(#15),#1734);
#1755=CARTESIAN_POINT('',(0.,0.,0.));
#1756=DIRECTION('',(0.,0.,1.));
#1757=DIRECTION('',(1.,0.,0.));
#1758=AXIS2_PLACEMENT_3D('',#1755,#1756,#1757);
#1760=MAPPED_ITEM('',#1759,#1758);
#1759=REPRESENTATION_MAP(#1758,#1736);
#1744=PRODUCT('Snap','Snap','',(#1722));
#1761=PRODUCT_RELATED_PRODUCT_CATEGORY('part','',(#1744));
#1762=PRODUCT_DEFINITION_FORMATION_WITH_SPECIFIED_SOURCE('','',#1744,.NOT_KNOWN.);
#1745=PRODUCT_DEFINITION('design','',#1762,#1723);
#1743=PRODUCT_DEFINITION_SHAPE('','',#1745);
#1763=SHAPE_DEFINITION_REPRESENTATION(#1743,#1736);
#1735=DRAUGHTING_MODEL('',(#1760),#1734);
#16=SHAPE_REPRESENTATION('openGrid Color/Cover Snap',(#15,#1708,#1749),#10);
#17=ADVANCED_BREP_SHAPE_REPRESENTATION('openGrid Color/Cover Snap',(#1678),#10);
#1771=SHAPE_REPRESENTATION_RELATIONSHIP('','',#16,#17);
#1772=CARTESIAN_POINT('',(0.,0.,0.));
#1773=DIRECTION('',(0.,0.,1.));
#1774=DIRECTION('',(1.,0.,0.));
#1775=AXIS2_PLACEMENT_3D('',#1772,#1773,#1774);
#1777=MAPPED_ITEM('',#1776,#1775);
#1776=REPRESENTATION_MAP(#1775,#16);
#24=PRODUCT('openGrid Color/Cover Snap','openGrid Color/Cover Snap','',(#1722));
#1778=PRODUCT_RELATED_PRODUCT_CATEGORY('part','',(#24));
#1779=PRODUCT_DEFINITION_FORMATION_WITH_SPECIFIED_SOURCE('','',#24,.NOT_KNOWN.);
#25=PRODUCT_DEFINITION('design','',#1779,#1723);
#23=PRODUCT_DEFINITION_SHAPE('','',#25);
#1780=SHAPE_DEFINITION_REPRESENTATION(#23,#16);
#11=DRAUGHTING_MODEL('',(#1777),#10);
#1781=DESCRIPTIVE_REPRESENTATION_ITEM('KEY','/Users/ddanier/Library/Containers/com.shapr3d.shapr/Data/tmp/7D082467-A73E-4A2B-825E-FD459B3D6FF3.tmp');
#1782=PROPERTY_DEFINITION('KEY','',#25);
#1783=REPRESENTATION('',(#1781),#10);
#1784=PROPERTY_DEFINITION_REPRESENTATION(#1782,#1783);
#1785=GENERAL_PROPERTY('','KEY','');
#1786=GENERAL_PROPERTY_ASSOCIATION('','',#1785,#1782);
#1=MECHANICAL_DESIGN_GEOMETRIC_PRESENTATION_REPRESENTATION('',(#26),#10);
ENDSEC;
END-ISO-10303-21;
