ISO-10303-21;
HEADER;

/* File generated by Shapr3D Version 5.800.0.8232 */

FILE_DESCRIPTION(('HOOPS Exchange Step'),'2;1');

FILE_NAME('/Users/ddanier/Library/Containers/com.shapr3d.shapr/Data/tmp/export/temp_export',
'2025-03-02T21:50:35+01:00',
('ddanier'),
('Shapr3D Limited'),
'HOOPS Exchange 2024.8',
'Shapr3D',
'Authorized');

FILE_SCHEMA( ('AP242_MANAGED_MODEL_BASED_3D_ENGINEERING_MIM_LF {1 0 10303 442 1 1 4}') );

ENDSEC;

DATA;
#3=(NAMED_UNIT(*)PLANE_ANGLE_UNIT()SI_UNIT($,.RADIAN.));
#4=PLANE_ANGLE_MEASURE_WITH_UNIT(PLANE_ANGLE_MEASURE(0.0174532925),#3);
#5=(CONVERSION_BASED_UNIT('DEGREE',#4)NAMED_UNIT(#6)PLANE_ANGLE_UNIT());
#6=DIMENSIONAL_EXPONENTS(0.,0.,0.,0.,0.,0.,0.);
#7=(NAMED_UNIT(*)SI_UNIT($,.STERADIAN.)SOLID_ANGLE_UNIT());
#8=(LENGTH_UNIT()NAMED_UNIT(*)SI_UNIT(.MILLI.,.METRE.));
#9=UNCERTAINTY_MEASURE_WITH_UNIT(LENGTH_MEASURE(1.000000E-05),#8,'DISTANCE_ACCURACY_VALUE','Maximum Tolerance applied to model');
#10=(GEOMETRIC_REPRESENTATION_CONTEXT(3)GLOBAL_UNCERTAINTY_ASSIGNED_CONTEXT((#9))GLOBAL_UNIT_ASSIGNED_CONTEXT((#8,#5,#7))REPRESENTATION_CONTEXT('','openGrid Connector'));
#12=CARTESIAN_POINT('',(0.,0.,0.));
#13=DIRECTION('',(0.,0.,1.));
#14=DIRECTION('',(1.,0.,0.));
#15=AXIS2_PLACEMENT_3D('TS3D_PRODUCT_CSYS',#12,#13,#14);
#27=CARTESIAN_POINT('',(0.,5.,2.2));
#28=DIRECTION('',(0.,0.,-1.));
#29=DIRECTION('',(-1.,0.,0.));
#30=AXIS2_PLACEMENT_3D('',#27,#28,#29);
#31=CYLINDRICAL_SURFACE('',#30,2.5);
#32=CARTESIAN_POINT('',(2.5,5.,0.));
#33=VERTEX_POINT('',#32);
#34=CARTESIAN_POINT('',(0.688256347,7.4033941,0.));
#35=VERTEX_POINT('',#34);
#36=CARTESIAN_POINT('',(0.,5.,0.));
#37=DIRECTION('',(0.,0.,1.));
#38=DIRECTION('',(1.,0.,-0.));
#39=AXIS2_PLACEMENT_3D('',#36,#37,#38);
#40=CIRCLE('',#39,2.5);
#41=EDGE_CURVE('',#33,#35,#40,.T.);
#42=ORIENTED_EDGE('',*,*,#41,.T.);
#43=CARTESIAN_POINT('',(0.688256347,7.4033941,2.2));
#44=VERTEX_POINT('',#43);
#45=CARTESIAN_POINT('',(0.688256347,7.4033941,0.));
#46=DIRECTION('',(-0.,-0.,1.));
#47=VECTOR('',#46,2.2);
#48=LINE('',#45,#47);
#49=EDGE_CURVE('',#35,#44,#48,.T.);
#50=ORIENTED_EDGE('',*,*,#49,.T.);
#51=CARTESIAN_POINT('',(2.5,5.,2.2));
#52=VERTEX_POINT('',#51);
#53=CARTESIAN_POINT('',(0.,5.,2.2));
#54=DIRECTION('',(0.,0.,1.));
#55=DIRECTION('',(1.,0.,-0.));
#56=AXIS2_PLACEMENT_3D('',#53,#54,#55);
#57=CIRCLE('',#56,2.5);
#58=EDGE_CURVE('',#52,#44,#57,.T.);
#59=ORIENTED_EDGE('',*,*,#58,.F.);
#60=CARTESIAN_POINT('',(2.5,5.,2.2));
#61=DIRECTION('',(0.,0.,-1.));
#62=VECTOR('',#61,2.2);
#63=LINE('',#60,#62);
#64=EDGE_CURVE('',#52,#33,#63,.T.);
#65=ORIENTED_EDGE('',*,*,#64,.T.);
#66=EDGE_LOOP('',(#42,#50,#59,#65));
#67=FACE_BOUND('',#66,.T.);
#68=ADVANCED_FACE('',(#67),#31,.T.);
#69=CARTESIAN_POINT('',(0.,0.,2.2));
#70=DIRECTION('',(0.,0.,1.));
#71=DIRECTION('',(1.,0.,0.));
#72=AXIS2_PLACEMENT_3D('',#69,#70,#71);
#73=PLANE('',#72);
#74=CARTESIAN_POINT('',(0.,6.9,2.2));
#75=VERTEX_POINT('',#74);
#76=CARTESIAN_POINT('',(-0.088665311,7.114056996,2.2));
#77=VERTEX_POINT('',#76);
#78=CARTESIAN_POINT('',(0.,6.9,2.2));
#79=DIRECTION('',(-0.382683432,0.923879533,0.));
#80=VECTOR('',#79,0.231693623);
#81=LINE('',#78,#80);
#82=EDGE_CURVE('',#75,#77,#81,.T.);
#83=ORIENTED_EDGE('',*,*,#82,.T.);
#84=CARTESIAN_POINT('',(-0.688256347,7.4033941,2.2));
#85=VERTEX_POINT('',#84);
#86=CARTESIAN_POINT('',(-0.550605077,6.92271528,2.2));
#87=DIRECTION('',(0.,0.,1.));
#88=DIRECTION('',(1.,0.,-0.));
#89=AXIS2_PLACEMENT_3D('',#86,#87,#88);
#90=CIRCLE('',#89,0.5);
#91=EDGE_CURVE('',#77,#85,#90,.T.);
#92=ORIENTED_EDGE('',*,*,#91,.T.);
#93=CARTESIAN_POINT('',(-2.5,5.,2.2));
#94=VERTEX_POINT('',#93);
#95=CARTESIAN_POINT('',(0.,5.,2.2));
#96=DIRECTION('',(0.,0.,1.));
#97=DIRECTION('',(1.,0.,-0.));
#98=AXIS2_PLACEMENT_3D('',#95,#96,#97);
#99=CIRCLE('',#98,2.5);
#100=EDGE_CURVE('',#85,#94,#99,.T.);
#101=ORIENTED_EDGE('',*,*,#100,.T.);
#102=CARTESIAN_POINT('',(-2.5,3.846291202,2.2));
#103=VERTEX_POINT('',#102);
#104=CARTESIAN_POINT('',(-2.5,3.846291202,2.2));
#105=DIRECTION('',(0.,1.,0.));
#106=VECTOR('',#105,1.153708798);
#107=LINE('',#104,#106);
#108=EDGE_CURVE('',#103,#94,#107,.T.);
#109=ORIENTED_EDGE('',*,*,#108,.F.);
#110=CARTESIAN_POINT('',(-2.466666667,3.666785708,2.2));
#111=VERTEX_POINT('',#110);
#112=CARTESIAN_POINT('',(-2.,3.846291202,2.2));
#113=DIRECTION('',(0.,0.,1.));
#114=DIRECTION('',(1.,0.,-0.));
#115=AXIS2_PLACEMENT_3D('',#112,#113,#114);
#116=CIRCLE('',#115,0.5);
#117=EDGE_CURVE('',#103,#111,#116,.T.);
#118=ORIENTED_EDGE('',*,*,#117,.T.);
#119=CARTESIAN_POINT('',(-2.466666667,1.333214292,2.2));
#120=VERTEX_POINT('',#119);
#121=CARTESIAN_POINT('',(-5.5,2.5,2.2));
#122=DIRECTION('',(0.,0.,1.));
#123=DIRECTION('',(1.,0.,-0.));
#124=AXIS2_PLACEMENT_3D('',#121,#122,#123);
#125=CIRCLE('',#124,3.25);
#126=EDGE_CURVE('',#120,#111,#125,.T.);
#127=ORIENTED_EDGE('',*,*,#126,.F.);
#128=CARTESIAN_POINT('',(-2.5,1.153708798,2.2));
#129=VERTEX_POINT('',#128);
#130=CARTESIAN_POINT('',(-2.,1.153708798,2.2));
#131=DIRECTION('',(0.,0.,1.));
#132=DIRECTION('',(1.,0.,-0.));
#133=AXIS2_PLACEMENT_3D('',#130,#131,#132);
#134=CIRCLE('',#133,0.5);
#135=EDGE_CURVE('',#120,#129,#134,.T.);
#136=ORIENTED_EDGE('',*,*,#135,.T.);
#137=CARTESIAN_POINT('',(-2.5,0.,2.2));
#138=VERTEX_POINT('',#137);
#139=CARTESIAN_POINT('',(-2.5,0.,2.2));
#140=DIRECTION('',(0.,1.,0.));
#141=VECTOR('',#140,1.153708798);
#142=LINE('',#139,#141);
#143=EDGE_CURVE('',#138,#129,#142,.T.);
#144=ORIENTED_EDGE('',*,*,#143,.F.);
#145=CARTESIAN_POINT('',(2.5,-0.,2.2));
#146=VERTEX_POINT('',#145);
#147=CARTESIAN_POINT('',(0.,0.,2.2));
#148=DIRECTION('',(0.,0.,1.));
#149=DIRECTION('',(1.,0.,-0.));
#150=AXIS2_PLACEMENT_3D('',#147,#148,#149);
#151=CIRCLE('',#150,2.5);
#152=EDGE_CURVE('',#138,#146,#151,.T.);
#153=ORIENTED_EDGE('',*,*,#152,.T.);
#154=CARTESIAN_POINT('',(2.5,1.153708798,2.2));
#155=VERTEX_POINT('',#154);
#156=CARTESIAN_POINT('',(2.5,1.153708798,2.2));
#157=DIRECTION('',(-0.,-1.,0.));
#158=VECTOR('',#157,1.153708798);
#159=LINE('',#156,#158);
#160=EDGE_CURVE('',#155,#146,#159,.T.);
#161=ORIENTED_EDGE('',*,*,#160,.F.);
#162=CARTESIAN_POINT('',(2.466666667,1.333214292,2.2));
#163=VERTEX_POINT('',#162);
#164=CARTESIAN_POINT('',(2.,1.153708798,2.2));
#165=DIRECTION('',(0.,0.,1.));
#166=DIRECTION('',(1.,0.,-0.));
#167=AXIS2_PLACEMENT_3D('',#164,#165,#166);
#168=CIRCLE('',#167,0.5);
#169=EDGE_CURVE('',#155,#163,#168,.T.);
#170=ORIENTED_EDGE('',*,*,#169,.T.);
#171=CARTESIAN_POINT('',(2.25,2.5,2.2));
#172=VERTEX_POINT('',#171);
#173=CARTESIAN_POINT('',(5.5,2.5,2.2));
#174=DIRECTION('',(0.,0.,1.));
#175=DIRECTION('',(1.,0.,-0.));
#176=AXIS2_PLACEMENT_3D('',#173,#174,#175);
#177=CIRCLE('',#176,3.25);
#178=EDGE_CURVE('',#172,#163,#177,.T.);
#179=ORIENTED_EDGE('',*,*,#178,.F.);
#180=CARTESIAN_POINT('',(2.466666667,3.666785708,2.2));
#181=VERTEX_POINT('',#180);
#182=CARTESIAN_POINT('',(5.5,2.5,2.2));
#183=DIRECTION('',(0.,0.,1.));
#184=DIRECTION('',(1.,0.,-0.));
#185=AXIS2_PLACEMENT_3D('',#182,#183,#184);
#186=CIRCLE('',#185,3.25);
#187=EDGE_CURVE('',#181,#172,#186,.T.);
#188=ORIENTED_EDGE('',*,*,#187,.F.);
#189=CARTESIAN_POINT('',(2.5,3.846291202,2.2));
#190=VERTEX_POINT('',#189);
#191=CARTESIAN_POINT('',(2.,3.846291202,2.2));
#192=DIRECTION('',(0.,0.,1.));
#193=DIRECTION('',(1.,0.,-0.));
#194=AXIS2_PLACEMENT_3D('',#191,#192,#193);
#195=CIRCLE('',#194,0.5);
#196=EDGE_CURVE('',#181,#190,#195,.T.);
#197=ORIENTED_EDGE('',*,*,#196,.T.);
#198=CARTESIAN_POINT('',(2.5,5.,2.2));
#199=DIRECTION('',(-0.,-1.,0.));
#200=VECTOR('',#199,1.153708798);
#201=LINE('',#198,#200);
#202=EDGE_CURVE('',#52,#190,#201,.T.);
#203=ORIENTED_EDGE('',*,*,#202,.F.);
#204=ORIENTED_EDGE('',*,*,#58,.T.);
#205=CARTESIAN_POINT('',(0.088665311,7.114056996,2.2));
#206=VERTEX_POINT('',#205);
#207=CARTESIAN_POINT('',(0.550605077,6.92271528,2.2));
#208=DIRECTION('',(0.,0.,1.));
#209=DIRECTION('',(1.,0.,-0.));
#210=AXIS2_PLACEMENT_3D('',#207,#208,#209);
#211=CIRCLE('',#210,0.5);
#212=EDGE_CURVE('',#44,#206,#211,.T.);
#213=ORIENTED_EDGE('',*,*,#212,.T.);
#214=CARTESIAN_POINT('',(0.,6.9,2.2));
#215=DIRECTION('',(0.382683432,0.923879533,0.));
#216=VECTOR('',#215,0.231693623);
#217=LINE('',#214,#216);
#218=EDGE_CURVE('',#75,#206,#217,.T.);
#219=ORIENTED_EDGE('',*,*,#218,.F.);
#220=EDGE_LOOP('',(#83,#92,#101,#109,#118,#127,#136,#144,#153,#161,#170,#179,#188,#197,#203,#204,#213,#219));
#221=FACE_BOUND('',#220,.T.);
#222=ADVANCED_FACE('',(#221),#73,.T.);
#223=CARTESIAN_POINT('',(0.,0.,0.));
#224=DIRECTION('',(0.,0.,1.));
#225=DIRECTION('',(1.,0.,0.));
#226=AXIS2_PLACEMENT_3D('',#223,#224,#225);
#227=PLANE('',#226);
#228=CARTESIAN_POINT('',(-0.688256347,7.4033941,0.));
#229=VERTEX_POINT('',#228);
#230=CARTESIAN_POINT('',(-2.5,5.,0.));
#231=VERTEX_POINT('',#230);
#232=CARTESIAN_POINT('',(0.,5.,0.));
#233=DIRECTION('',(0.,0.,1.));
#234=DIRECTION('',(1.,0.,-0.));
#235=AXIS2_PLACEMENT_3D('',#232,#233,#234);
#236=CIRCLE('',#235,2.5);
#237=EDGE_CURVE('',#229,#231,#236,.T.);
#238=ORIENTED_EDGE('',*,*,#237,.F.);
#239=CARTESIAN_POINT('',(-0.088665311,7.114056996,0.));
#240=VERTEX_POINT('',#239);
#241=CARTESIAN_POINT('',(-0.550605077,6.92271528,0.));
#242=DIRECTION('',(-0.,-0.,-1.));
#243=DIRECTION('',(1.,0.,-0.));
#244=AXIS2_PLACEMENT_3D('',#241,#242,#243);
#245=CIRCLE('',#244,0.5);
#246=EDGE_CURVE('',#229,#240,#245,.T.);
#247=ORIENTED_EDGE('',*,*,#246,.T.);
#248=CARTESIAN_POINT('',(0.,6.9,0.));
#249=VERTEX_POINT('',#248);
#250=CARTESIAN_POINT('',(0.,6.9,0.));
#251=DIRECTION('',(-0.382683432,0.923879533,0.));
#252=VECTOR('',#251,0.231693623);
#253=LINE('',#250,#252);
#254=EDGE_CURVE('',#249,#240,#253,.T.);
#255=ORIENTED_EDGE('',*,*,#254,.F.);
#256=CARTESIAN_POINT('',(0.088665311,7.114056996,0.));
#257=VERTEX_POINT('',#256);
#258=CARTESIAN_POINT('',(0.,6.9,0.));
#259=DIRECTION('',(0.382683432,0.923879533,0.));
#260=VECTOR('',#259,0.231693623);
#261=LINE('',#258,#260);
#262=EDGE_CURVE('',#249,#257,#261,.T.);
#263=ORIENTED_EDGE('',*,*,#262,.T.);
#264=CARTESIAN_POINT('',(0.550605077,6.92271528,0.));
#265=DIRECTION('',(-0.,-0.,-1.));
#266=DIRECTION('',(1.,0.,-0.));
#267=AXIS2_PLACEMENT_3D('',#264,#265,#266);
#268=CIRCLE('',#267,0.5);
#269=EDGE_CURVE('',#257,#35,#268,.T.);
#270=ORIENTED_EDGE('',*,*,#269,.T.);
#271=ORIENTED_EDGE('',*,*,#41,.F.);
#272=CARTESIAN_POINT('',(2.5,3.846291202,0.));
#273=VERTEX_POINT('',#272);
#274=CARTESIAN_POINT('',(2.5,5.,0.));
#275=DIRECTION('',(-0.,-1.,0.));
#276=VECTOR('',#275,1.153708798);
#277=LINE('',#274,#276);
#278=EDGE_CURVE('',#33,#273,#277,.T.);
#279=ORIENTED_EDGE('',*,*,#278,.T.);
#280=CARTESIAN_POINT('',(2.466666667,3.666785708,0.));
#281=VERTEX_POINT('',#280);
#282=CARTESIAN_POINT('',(2.,3.846291202,0.));
#283=DIRECTION('',(-0.,-0.,-1.));
#284=DIRECTION('',(1.,0.,-0.));
#285=AXIS2_PLACEMENT_3D('',#282,#283,#284);
#286=CIRCLE('',#285,0.5);
#287=EDGE_CURVE('',#273,#281,#286,.T.);
#288=ORIENTED_EDGE('',*,*,#287,.T.);
#289=CARTESIAN_POINT('',(2.25,2.5,0.));
#290=VERTEX_POINT('',#289);
#291=CARTESIAN_POINT('',(5.5,2.5,0.));
#292=DIRECTION('',(0.,0.,1.));
#293=DIRECTION('',(1.,0.,-0.));
#294=AXIS2_PLACEMENT_3D('',#291,#292,#293);
#295=CIRCLE('',#294,3.25);
#296=EDGE_CURVE('',#281,#290,#295,.T.);
#297=ORIENTED_EDGE('',*,*,#296,.T.);
#298=CARTESIAN_POINT('',(2.466666667,1.333214292,0.));
#299=VERTEX_POINT('',#298);
#300=CARTESIAN_POINT('',(5.5,2.5,0.));
#301=DIRECTION('',(0.,0.,1.));
#302=DIRECTION('',(1.,0.,-0.));
#303=AXIS2_PLACEMENT_3D('',#300,#301,#302);
#304=CIRCLE('',#303,3.25);
#305=EDGE_CURVE('',#290,#299,#304,.T.);
#306=ORIENTED_EDGE('',*,*,#305,.T.);
#307=CARTESIAN_POINT('',(2.5,1.153708798,0.));
#308=VERTEX_POINT('',#307);
#309=CARTESIAN_POINT('',(2.,1.153708798,0.));
#310=DIRECTION('',(-0.,-0.,-1.));
#311=DIRECTION('',(1.,0.,-0.));
#312=AXIS2_PLACEMENT_3D('',#309,#310,#311);
#313=CIRCLE('',#312,0.5);
#314=EDGE_CURVE('',#299,#308,#313,.T.);
#315=ORIENTED_EDGE('',*,*,#314,.T.);
#316=CARTESIAN_POINT('',(2.5,-0.,0.));
#317=VERTEX_POINT('',#316);
#318=CARTESIAN_POINT('',(2.5,1.153708798,0.));
#319=DIRECTION('',(-0.,-1.,0.));
#320=VECTOR('',#319,1.153708798);
#321=LINE('',#318,#320);
#322=EDGE_CURVE('',#308,#317,#321,.T.);
#323=ORIENTED_EDGE('',*,*,#322,.T.);
#324=CARTESIAN_POINT('',(-2.5,0.,0.));
#325=VERTEX_POINT('',#324);
#326=CARTESIAN_POINT('',(0.,0.,0.));
#327=DIRECTION('',(0.,0.,1.));
#328=DIRECTION('',(1.,0.,-0.));
#329=AXIS2_PLACEMENT_3D('',#326,#327,#328);
#330=CIRCLE('',#329,2.5);
#331=EDGE_CURVE('',#325,#317,#330,.T.);
#332=ORIENTED_EDGE('',*,*,#331,.F.);
#333=CARTESIAN_POINT('',(-2.5,1.153708798,0.));
#334=VERTEX_POINT('',#333);
#335=CARTESIAN_POINT('',(-2.5,0.,0.));
#336=DIRECTION('',(0.,1.,0.));
#337=VECTOR('',#336,1.153708798);
#338=LINE('',#335,#337);
#339=EDGE_CURVE('',#325,#334,#338,.T.);
#340=ORIENTED_EDGE('',*,*,#339,.T.);
#341=CARTESIAN_POINT('',(-2.466666667,1.333214292,0.));
#342=VERTEX_POINT('',#341);
#343=CARTESIAN_POINT('',(-2.,1.153708798,0.));
#344=DIRECTION('',(-0.,-0.,-1.));
#345=DIRECTION('',(1.,0.,-0.));
#346=AXIS2_PLACEMENT_3D('',#343,#344,#345);
#347=CIRCLE('',#346,0.5);
#348=EDGE_CURVE('',#334,#342,#347,.T.);
#349=ORIENTED_EDGE('',*,*,#348,.T.);
#350=CARTESIAN_POINT('',(-2.466666667,3.666785708,0.));
#351=VERTEX_POINT('',#350);
#352=CARTESIAN_POINT('',(-5.5,2.5,0.));
#353=DIRECTION('',(0.,0.,1.));
#354=DIRECTION('',(1.,0.,-0.));
#355=AXIS2_PLACEMENT_3D('',#352,#353,#354);
#356=CIRCLE('',#355,3.25);
#357=EDGE_CURVE('',#342,#351,#356,.T.);
#358=ORIENTED_EDGE('',*,*,#357,.T.);
#359=CARTESIAN_POINT('',(-2.5,3.846291202,0.));
#360=VERTEX_POINT('',#359);
#361=CARTESIAN_POINT('',(-2.,3.846291202,0.));
#362=DIRECTION('',(-0.,-0.,-1.));
#363=DIRECTION('',(1.,0.,-0.));
#364=AXIS2_PLACEMENT_3D('',#361,#362,#363);
#365=CIRCLE('',#364,0.5);
#366=EDGE_CURVE('',#351,#360,#365,.T.);
#367=ORIENTED_EDGE('',*,*,#366,.T.);
#368=CARTESIAN_POINT('',(-2.5,3.846291202,0.));
#369=DIRECTION('',(0.,1.,0.));
#370=VECTOR('',#369,1.153708798);
#371=LINE('',#368,#370);
#372=EDGE_CURVE('',#360,#231,#371,.T.);
#373=ORIENTED_EDGE('',*,*,#372,.T.);
#374=EDGE_LOOP('',(#238,#247,#255,#263,#270,#271,#279,#288,#297,#306,#315,#323,#332,#340,#349,#358,#367,#373));
#375=FACE_BOUND('',#374,.T.);
#376=ADVANCED_FACE('',(#375),#227,.F.);
#377=CARTESIAN_POINT('',(-2.5,0.625,2.2));
#378=DIRECTION('',(-1.,0.,0.));
#379=DIRECTION('',(-0.,-1.,0.));
#380=AXIS2_PLACEMENT_3D('',#377,#378,#379);
#381=PLANE('',#380);
#382=ORIENTED_EDGE('',*,*,#143,.T.);
#383=CARTESIAN_POINT('',(-2.5,1.153708798,2.2));
#384=DIRECTION('',(0.,0.,-1.));
#385=VECTOR('',#384,2.2);
#386=LINE('',#383,#385);
#387=EDGE_CURVE('',#129,#334,#386,.T.);
#388=ORIENTED_EDGE('',*,*,#387,.T.);
#389=ORIENTED_EDGE('',*,*,#339,.F.);
#390=CARTESIAN_POINT('',(-2.5,0.,2.2));
#391=DIRECTION('',(0.,0.,-1.));
#392=VECTOR('',#391,2.2);
#393=LINE('',#390,#392);
#394=EDGE_CURVE('',#138,#325,#393,.T.);
#395=ORIENTED_EDGE('',*,*,#394,.F.);
#396=EDGE_LOOP('',(#382,#388,#389,#395));
#397=FACE_BOUND('',#396,.T.);
#398=ADVANCED_FACE('',(#397),#381,.T.);
#399=CARTESIAN_POINT('',(0.,0.,2.2));
#400=DIRECTION('',(0.,0.,-1.));
#401=DIRECTION('',(-1.,0.,0.));
#402=AXIS2_PLACEMENT_3D('',#399,#400,#401);
#403=CYLINDRICAL_SURFACE('',#402,2.5);
#404=ORIENTED_EDGE('',*,*,#331,.T.);
#405=CARTESIAN_POINT('',(2.5,-0.,2.2));
#406=DIRECTION('',(0.,0.,-1.));
#407=VECTOR('',#406,2.2);
#408=LINE('',#405,#407);
#409=EDGE_CURVE('',#146,#317,#408,.T.);
#410=ORIENTED_EDGE('',*,*,#409,.F.);
#411=ORIENTED_EDGE('',*,*,#152,.F.);
#412=ORIENTED_EDGE('',*,*,#394,.T.);
#413=EDGE_LOOP('',(#404,#410,#411,#412));
#414=FACE_BOUND('',#413,.T.);
#415=ADVANCED_FACE('',(#414),#403,.T.);
#416=CARTESIAN_POINT('',(2.5,0.625,2.2));
#417=DIRECTION('',(1.,-0.,0.));
#418=DIRECTION('',(0.,1.,0.));
#419=AXIS2_PLACEMENT_3D('',#416,#417,#418);
#420=PLANE('',#419);
#421=ORIENTED_EDGE('',*,*,#322,.F.);
#422=CARTESIAN_POINT('',(2.5,1.153708798,0.));
#423=DIRECTION('',(-0.,-0.,1.));
#424=VECTOR('',#423,2.2);
#425=LINE('',#422,#424);
#426=EDGE_CURVE('',#308,#155,#425,.T.);
#427=ORIENTED_EDGE('',*,*,#426,.T.);
#428=ORIENTED_EDGE('',*,*,#160,.T.);
#429=ORIENTED_EDGE('',*,*,#409,.T.);
#430=EDGE_LOOP('',(#421,#427,#428,#429));
#431=FACE_BOUND('',#430,.T.);
#432=ADVANCED_FACE('',(#431),#420,.T.);
#433=CARTESIAN_POINT('',(5.5,2.5,2.2));
#434=DIRECTION('',(0.,0.,-1.));
#435=DIRECTION('',(-1.,0.,0.));
#436=AXIS2_PLACEMENT_3D('',#433,#434,#435);
#437=CYLINDRICAL_SURFACE('',#436,3.25);
#438=CARTESIAN_POINT('',(2.25,2.5,0.));
#439=DIRECTION('',(-0.,-0.,1.));
#440=VECTOR('',#439,2.2);
#441=LINE('',#438,#440);
#442=EDGE_CURVE('',#290,#172,#441,.T.);
#443=ORIENTED_EDGE('',*,*,#442,.F.);
#444=ORIENTED_EDGE('',*,*,#296,.F.);
#445=CARTESIAN_POINT('',(2.466666667,3.666785708,0.));
#446=DIRECTION('',(-0.,-0.,1.));
#447=VECTOR('',#446,2.2);
#448=LINE('',#445,#447);
#449=EDGE_CURVE('',#281,#181,#448,.T.);
#450=ORIENTED_EDGE('',*,*,#449,.T.);
#451=ORIENTED_EDGE('',*,*,#187,.T.);
#452=EDGE_LOOP('',(#443,#444,#450,#451));
#453=FACE_BOUND('',#452,.T.);
#454=ADVANCED_FACE('',(#453),#437,.F.);
#455=CARTESIAN_POINT('',(2.5,4.375,2.2));
#456=DIRECTION('',(1.,-0.,0.));
#457=DIRECTION('',(0.,1.,0.));
#458=AXIS2_PLACEMENT_3D('',#455,#456,#457);
#459=PLANE('',#458);
#460=ORIENTED_EDGE('',*,*,#202,.T.);
#461=CARTESIAN_POINT('',(2.5,3.846291202,2.2));
#462=DIRECTION('',(0.,0.,-1.));
#463=VECTOR('',#462,2.2);
#464=LINE('',#461,#463);
#465=EDGE_CURVE('',#190,#273,#464,.T.);
#466=ORIENTED_EDGE('',*,*,#465,.T.);
#467=ORIENTED_EDGE('',*,*,#278,.F.);
#468=ORIENTED_EDGE('',*,*,#64,.F.);
#469=EDGE_LOOP('',(#460,#466,#467,#468));
#470=FACE_BOUND('',#469,.T.);
#471=ADVANCED_FACE('',(#470),#459,.T.);
#472=CARTESIAN_POINT('',(0.,5.,2.2));
#473=DIRECTION('',(0.,0.,-1.));
#474=DIRECTION('',(-1.,0.,0.));
#475=AXIS2_PLACEMENT_3D('',#472,#473,#474);
#476=CYLINDRICAL_SURFACE('',#475,2.5);
#477=ORIENTED_EDGE('',*,*,#100,.F.);
#478=CARTESIAN_POINT('',(-0.688256347,7.4033941,2.2));
#479=DIRECTION('',(0.,0.,-1.));
#480=VECTOR('',#479,2.2);
#481=LINE('',#478,#480);
#482=EDGE_CURVE('',#85,#229,#481,.T.);
#483=ORIENTED_EDGE('',*,*,#482,.T.);
#484=ORIENTED_EDGE('',*,*,#237,.T.);
#485=CARTESIAN_POINT('',(-2.5,5.,2.2));
#486=DIRECTION('',(0.,0.,-1.));
#487=VECTOR('',#486,2.2);
#488=LINE('',#485,#487);
#489=EDGE_CURVE('',#94,#231,#488,.T.);
#490=ORIENTED_EDGE('',*,*,#489,.F.);
#491=EDGE_LOOP('',(#477,#483,#484,#490));
#492=FACE_BOUND('',#491,.T.);
#493=ADVANCED_FACE('',(#492),#476,.T.);
#494=CARTESIAN_POINT('',(-2.5,4.375,2.2));
#495=DIRECTION('',(-1.,0.,0.));
#496=DIRECTION('',(-0.,-1.,0.));
#497=AXIS2_PLACEMENT_3D('',#494,#495,#496);
#498=PLANE('',#497);
#499=ORIENTED_EDGE('',*,*,#372,.F.);
#500=CARTESIAN_POINT('',(-2.5,3.846291202,0.));
#501=DIRECTION('',(-0.,-0.,1.));
#502=VECTOR('',#501,2.2);
#503=LINE('',#500,#502);
#504=EDGE_CURVE('',#360,#103,#503,.T.);
#505=ORIENTED_EDGE('',*,*,#504,.T.);
#506=ORIENTED_EDGE('',*,*,#108,.T.);
#507=ORIENTED_EDGE('',*,*,#489,.T.);
#508=EDGE_LOOP('',(#499,#505,#506,#507));
#509=FACE_BOUND('',#508,.T.);
#510=ADVANCED_FACE('',(#509),#498,.T.);
#511=CARTESIAN_POINT('',(-5.5,2.5,2.2));
#512=DIRECTION('',(0.,0.,-1.));
#513=DIRECTION('',(-1.,0.,0.));
#514=AXIS2_PLACEMENT_3D('',#511,#512,#513);
#515=CYLINDRICAL_SURFACE('',#514,3.25);
#516=ORIENTED_EDGE('',*,*,#357,.F.);
#517=CARTESIAN_POINT('',(-2.466666667,1.333214292,0.));
#518=DIRECTION('',(-0.,-0.,1.));
#519=VECTOR('',#518,2.2);
#520=LINE('',#517,#519);
#521=EDGE_CURVE('',#342,#120,#520,.T.);
#522=ORIENTED_EDGE('',*,*,#521,.T.);
#523=ORIENTED_EDGE('',*,*,#126,.T.);
#524=CARTESIAN_POINT('',(-2.466666667,3.666785708,2.2));
#525=DIRECTION('',(0.,0.,-1.));
#526=VECTOR('',#525,2.2);
#527=LINE('',#524,#526);
#528=EDGE_CURVE('',#111,#351,#527,.T.);
#529=ORIENTED_EDGE('',*,*,#528,.T.);
#530=EDGE_LOOP('',(#516,#522,#523,#529));
#531=FACE_BOUND('',#530,.T.);
#532=ADVANCED_FACE('',(#531),#515,.F.);
#533=CARTESIAN_POINT('',(-2.,1.153708798,2.2));
#534=DIRECTION('',(0.,0.,-1.));
#535=DIRECTION('',(-1.,0.,0.));
#536=AXIS2_PLACEMENT_3D('',#533,#534,#535);
#537=CYLINDRICAL_SURFACE('',#536,0.5);
#538=ORIENTED_EDGE('',*,*,#135,.F.);
#539=ORIENTED_EDGE('',*,*,#521,.F.);
#540=ORIENTED_EDGE('',*,*,#348,.F.);
#541=ORIENTED_EDGE('',*,*,#387,.F.);
#542=EDGE_LOOP('',(#538,#539,#540,#541));
#543=FACE_BOUND('',#542,.T.);
#544=ADVANCED_FACE('',(#543),#537,.T.);
#545=CARTESIAN_POINT('',(2.,1.153708798,2.2));
#546=DIRECTION('',(0.,0.,-1.));
#547=DIRECTION('',(-1.,0.,0.));
#548=AXIS2_PLACEMENT_3D('',#545,#546,#547);
#549=CYLINDRICAL_SURFACE('',#548,0.5);
#550=ORIENTED_EDGE('',*,*,#169,.F.);
#551=ORIENTED_EDGE('',*,*,#426,.F.);
#552=ORIENTED_EDGE('',*,*,#314,.F.);
#553=CARTESIAN_POINT('',(2.466666667,1.333214292,2.2));
#554=DIRECTION('',(0.,0.,-1.));
#555=VECTOR('',#554,2.2);
#556=LINE('',#553,#555);
#557=EDGE_CURVE('',#163,#299,#556,.T.);
#558=ORIENTED_EDGE('',*,*,#557,.F.);
#559=EDGE_LOOP('',(#550,#551,#552,#558));
#560=FACE_BOUND('',#559,.T.);
#561=ADVANCED_FACE('',(#560),#549,.T.);
#562=CARTESIAN_POINT('',(-2.,3.846291202,2.2));
#563=DIRECTION('',(0.,0.,-1.));
#564=DIRECTION('',(-1.,0.,0.));
#565=AXIS2_PLACEMENT_3D('',#562,#563,#564);
#566=CYLINDRICAL_SURFACE('',#565,0.5);
#567=ORIENTED_EDGE('',*,*,#117,.F.);
#568=ORIENTED_EDGE('',*,*,#504,.F.);
#569=ORIENTED_EDGE('',*,*,#366,.F.);
#570=ORIENTED_EDGE('',*,*,#528,.F.);
#571=EDGE_LOOP('',(#567,#568,#569,#570));
#572=FACE_BOUND('',#571,.T.);
#573=ADVANCED_FACE('',(#572),#566,.T.);
#574=CARTESIAN_POINT('',(2.,3.846291202,2.2));
#575=DIRECTION('',(0.,0.,-1.));
#576=DIRECTION('',(-1.,0.,0.));
#577=AXIS2_PLACEMENT_3D('',#574,#575,#576);
#578=CYLINDRICAL_SURFACE('',#577,0.5);
#579=ORIENTED_EDGE('',*,*,#196,.F.);
#580=ORIENTED_EDGE('',*,*,#449,.F.);
#581=ORIENTED_EDGE('',*,*,#287,.F.);
#582=ORIENTED_EDGE('',*,*,#465,.F.);
#583=EDGE_LOOP('',(#579,#580,#581,#582));
#584=FACE_BOUND('',#583,.T.);
#585=ADVANCED_FACE('',(#584),#578,.T.);
#586=CARTESIAN_POINT('',(-0.121800215,7.19405173,2.202));
#587=DIRECTION('',(-0.923879533,-0.382683432,0.));
#588=DIRECTION('',(0.382683432,-0.923879533,0.));
#589=AXIS2_PLACEMENT_3D('',#586,#587,#588);
#590=PLANE('',#589);
#591=ORIENTED_EDGE('',*,*,#254,.T.);
#592=CARTESIAN_POINT('',(-0.088665311,7.114056996,0.));
#593=DIRECTION('',(-0.,-0.,1.));
#594=VECTOR('',#593,2.2);
#595=LINE('',#592,#594);
#596=EDGE_CURVE('',#240,#77,#595,.T.);
#597=ORIENTED_EDGE('',*,*,#596,.T.);
#598=ORIENTED_EDGE('',*,*,#82,.F.);
#599=CARTESIAN_POINT('',(0.,6.9,2.2));
#600=DIRECTION('',(0.,0.,-1.));
#601=VECTOR('',#600,2.2);
#602=LINE('',#599,#601);
#603=EDGE_CURVE('',#75,#249,#602,.T.);
#604=ORIENTED_EDGE('',*,*,#603,.T.);
#605=EDGE_LOOP('',(#591,#597,#598,#604));
#606=FACE_BOUND('',#605,.T.);
#607=ADVANCED_FACE('',(#606),#590,.F.);
#608=CARTESIAN_POINT('',(0.121800215,7.19405173,2.202));
#609=DIRECTION('',(-0.923879533,0.382683432,0.));
#610=DIRECTION('',(-0.382683432,-0.923879533,0.));
#611=AXIS2_PLACEMENT_3D('',#608,#609,#610);
#612=PLANE('',#611);
#613=ORIENTED_EDGE('',*,*,#218,.T.);
#614=CARTESIAN_POINT('',(0.088665311,7.114056996,2.2));
#615=DIRECTION('',(-0.,-0.,-1.));
#616=VECTOR('',#615,2.2);
#617=LINE('',#614,#616);
#618=EDGE_CURVE('',#206,#257,#617,.T.);
#619=ORIENTED_EDGE('',*,*,#618,.T.);
#620=ORIENTED_EDGE('',*,*,#262,.F.);
#621=ORIENTED_EDGE('',*,*,#603,.F.);
#622=EDGE_LOOP('',(#613,#619,#620,#621));
#623=FACE_BOUND('',#622,.T.);
#624=ADVANCED_FACE('',(#623),#612,.T.);
#625=CARTESIAN_POINT('',(-0.550605077,6.92271528,2.2));
#626=DIRECTION('',(0.,0.,-1.));
#627=DIRECTION('',(-1.,0.,0.));
#628=AXIS2_PLACEMENT_3D('',#625,#626,#627);
#629=CYLINDRICAL_SURFACE('',#628,0.5);
#630=ORIENTED_EDGE('',*,*,#91,.F.);
#631=ORIENTED_EDGE('',*,*,#596,.F.);
#632=ORIENTED_EDGE('',*,*,#246,.F.);
#633=ORIENTED_EDGE('',*,*,#482,.F.);
#634=EDGE_LOOP('',(#630,#631,#632,#633));
#635=FACE_BOUND('',#634,.T.);
#636=ADVANCED_FACE('',(#635),#629,.T.);
#637=CARTESIAN_POINT('',(0.550605077,6.92271528,2.2));
#638=DIRECTION('',(0.,0.,-1.));
#639=DIRECTION('',(-1.,0.,0.));
#640=AXIS2_PLACEMENT_3D('',#637,#638,#639);
#641=CYLINDRICAL_SURFACE('',#640,0.5);
#642=ORIENTED_EDGE('',*,*,#212,.F.);
#643=ORIENTED_EDGE('',*,*,#49,.F.);
#644=ORIENTED_EDGE('',*,*,#269,.F.);
#645=ORIENTED_EDGE('',*,*,#618,.F.);
#646=EDGE_LOOP('',(#642,#643,#644,#645));
#647=FACE_BOUND('',#646,.T.);
#648=ADVANCED_FACE('',(#647),#641,.T.);
#649=CARTESIAN_POINT('',(5.5,2.5,2.2));
#650=DIRECTION('',(0.,0.,-1.));
#651=DIRECTION('',(-1.,0.,0.));
#652=AXIS2_PLACEMENT_3D('',#649,#650,#651);
#653=CYLINDRICAL_SURFACE('',#652,3.25);
#654=ORIENTED_EDGE('',*,*,#442,.T.);
#655=ORIENTED_EDGE('',*,*,#178,.T.);
#656=ORIENTED_EDGE('',*,*,#557,.T.);
#657=ORIENTED_EDGE('',*,*,#305,.F.);
#658=EDGE_LOOP('',(#654,#655,#656,#657));
#659=FACE_BOUND('',#658,.T.);
#660=ADVANCED_FACE('',(#659),#653,.F.);
#661=CLOSED_SHELL('',(#68,#222,#376,#398,#415,#432,#454,#471,#493,#510,#532,#544,#561,#573,#585,#607,#624,#636,#648,#660));
#662=MANIFOLD_SOLID_BREP('openGrid Connector',#661);
#663=COLOUR_RGB('',0.494117647,0.494117647,0.525490224);
#664=FILL_AREA_STYLE_COLOUR('',#663);
#665=FILL_AREA_STYLE('',(#664));
#666=SURFACE_STYLE_FILL_AREA(#665);
#667=SURFACE_SIDE_STYLE('',(#666));
#668=SURFACE_STYLE_USAGE(.BOTH.,#667);
#669=PRESENTATION_STYLE_ASSIGNMENT((#668));
#26=STYLED_ITEM('',(#669),#662);
#16=SHAPE_REPRESENTATION('openGrid Connector',(#15),#10);
#17=ADVANCED_BREP_SHAPE_REPRESENTATION('openGrid Connector',(#662),#10);
#677=SHAPE_REPRESENTATION_RELATIONSHIP('','',#16,#17);
#678=CARTESIAN_POINT('',(0.,0.,0.));
#679=DIRECTION('',(0.,0.,1.));
#680=DIRECTION('',(1.,0.,0.));
#681=AXIS2_PLACEMENT_3D('',#678,#679,#680);
#683=MAPPED_ITEM('',#682,#681);
#682=REPRESENTATION_MAP(#681,#16);
#684=APPLICATION_CONTEXT('Managed model based 3d engineering');
#685=APPLICATION_PROTOCOL_DEFINITION('international standard','ap242_managed_model_based_3d_engineering',2014,#684);
#686=PRODUCT_CONTEXT('',#684,'mechanical');
#687=PRODUCT_DEFINITION_CONTEXT('part definition',#684,'design');
#24=PRODUCT('openGrid Connector','openGrid Connector','',(#686));
#688=PRODUCT_RELATED_PRODUCT_CATEGORY('part','',(#24));
#689=PRODUCT_DEFINITION_FORMATION_WITH_SPECIFIED_SOURCE('','',#24,.NOT_KNOWN.);
#25=PRODUCT_DEFINITION('design','',#689,#687);
#23=PRODUCT_DEFINITION_SHAPE('','',#25);
#690=SHAPE_DEFINITION_REPRESENTATION(#23,#16);
#11=DRAUGHTING_MODEL('',(#683),#10);
#691=DESCRIPTIVE_REPRESENTATION_ITEM('KEY','/Users/ddanier/Library/Containers/com.shapr3d.shapr/Data/tmp/2A8FB97A-5FE5-4DA7-BECC-86CAE18E3DE9.tmp');
#692=PROPERTY_DEFINITION('KEY','',#25);
#693=REPRESENTATION('',(#691),#10);
#694=PROPERTY_DEFINITION_REPRESENTATION(#692,#693);
#695=GENERAL_PROPERTY('','KEY','');
#696=GENERAL_PROPERTY_ASSOCIATION('','',#695,#692);
#1=MECHANICAL_DESIGN_GEOMETRIC_PRESENTATION_REPRESENTATION('',(#26),#10);
ENDSEC;
END-ISO-10303-21;
