ISO-10303-21;
HEADER;
/* Generated by software containing ST-Developer
 * from STEP Tools, Inc. (www.steptools.com) 
 */

FILE_DESCRIPTION(
/* description */ (''),
/* implementation_level */ '2;1');

FILE_NAME(
/* name */ 'Bento CMag Mid.step',
/* time_stamp */ '2023-11-23T16:05:33+08:00',
/* author */ (''),
/* organization */ (''),
/* preprocessor_version */ 'ST-DEVELOPER v20',
/* originating_system */ 'Autodesk Translation Framework v12.14.0.127',

/* authorisation */ '');

FILE_SCHEMA (('AUTOMOTIVE_DESIGN { 1 0 10303 214 3 1 1 }'));
ENDSEC;

DATA;
#10=MECHANICAL_DESIGN_GEOMETRIC_PRESENTATION_REPRESENTATION('',(#13),#583);
#11=SHAPE_REPRESENTATION_RELATIONSHIP('SRR','None',#589,#12);
#12=ADVANCED_BREP_SHAPE_REPRESENTATION('',(#14),#582);
#13=STYLED_ITEM('',(#598),#14);
#14=MANIFOLD_SOLID_BREP('\X2\5B9E4F53\X0\93',#343);
#15=PLANE('',#348);
#16=PLANE('',#349);
#17=PLANE('',#359);
#18=PLANE('',#362);
#19=PLANE('',#365);
#20=PLANE('',#368);
#21=PLANE('',#371);
#22=PLANE('',#374);
#23=PLANE('',#377);
#24=PLANE('',#378);
#25=FACE_OUTER_BOUND('',#43,.T.);
#26=FACE_OUTER_BOUND('',#44,.T.);
#27=FACE_OUTER_BOUND('',#45,.T.);
#28=FACE_OUTER_BOUND('',#46,.T.);
#29=FACE_OUTER_BOUND('',#47,.T.);
#30=FACE_OUTER_BOUND('',#48,.T.);
#31=FACE_OUTER_BOUND('',#49,.T.);
#32=FACE_OUTER_BOUND('',#50,.T.);
#33=FACE_OUTER_BOUND('',#51,.T.);
#34=FACE_OUTER_BOUND('',#52,.T.);
#35=FACE_OUTER_BOUND('',#53,.T.);
#36=FACE_OUTER_BOUND('',#54,.T.);
#37=FACE_OUTER_BOUND('',#55,.T.);
#38=FACE_OUTER_BOUND('',#56,.T.);
#39=FACE_OUTER_BOUND('',#57,.T.);
#40=FACE_OUTER_BOUND('',#58,.T.);
#41=FACE_OUTER_BOUND('',#59,.T.);
#42=FACE_OUTER_BOUND('',#60,.T.);
#43=EDGE_LOOP('',(#221,#222,#223,#224));
#44=EDGE_LOOP('',(#225,#226,#227,#228));
#45=EDGE_LOOP('',(#229,#230,#231,#232,#233,#234,#235,#236,#237,#238,#239,
#240,#241,#242,#243,#244));
#46=EDGE_LOOP('',(#245,#246,#247,#248));
#47=EDGE_LOOP('',(#249,#250,#251,#252));
#48=EDGE_LOOP('',(#253,#254,#255,#256));
#49=EDGE_LOOP('',(#257,#258,#259,#260));
#50=EDGE_LOOP('',(#261,#262,#263,#264));
#51=EDGE_LOOP('',(#265,#266,#267,#268));
#52=EDGE_LOOP('',(#269,#270,#271,#272));
#53=EDGE_LOOP('',(#273,#274,#275,#276));
#54=EDGE_LOOP('',(#277,#278,#279,#280));
#55=EDGE_LOOP('',(#281,#282,#283,#284));
#56=EDGE_LOOP('',(#285,#286,#287,#288));
#57=EDGE_LOOP('',(#289,#290,#291,#292));
#58=EDGE_LOOP('',(#293,#294,#295,#296));
#59=EDGE_LOOP('',(#297,#298,#299,#300));
#60=EDGE_LOOP('',(#301,#302,#303,#304,#305,#306,#307,#308,#309,#310,#311,
#312,#313,#314,#315,#316));
#61=LINE('',#487,#93);
#62=LINE('',#490,#94);
#63=LINE('',#493,#95);
#64=LINE('',#495,#96);
#65=LINE('',#496,#97);
#66=LINE('',#499,#98);
#67=LINE('',#503,#99);
#68=LINE('',#507,#100);
#69=LINE('',#511,#101);
#70=LINE('',#515,#102);
#71=LINE('',#519,#103);
#72=LINE('',#523,#104);
#73=LINE('',#528,#105);
#74=LINE('',#531,#106);
#75=LINE('',#532,#107);
#76=LINE('',#536,#108);
#77=LINE('',#539,#109);
#78=LINE('',#540,#110);
#79=LINE('',#544,#111);
#80=LINE('',#547,#112);
#81=LINE('',#548,#113);
#82=LINE('',#552,#114);
#83=LINE('',#555,#115);
#84=LINE('',#556,#116);
#85=LINE('',#560,#117);
#86=LINE('',#563,#118);
#87=LINE('',#564,#119);
#88=LINE('',#569,#120);
#89=LINE('',#570,#121);
#90=LINE('',#572,#122);
#91=LINE('',#576,#123);
#92=LINE('',#578,#124);
#93=VECTOR('',#385,10.);
#94=VECTOR('',#388,10.);
#95=VECTOR('',#391,10.);
#96=VECTOR('',#392,10.);
#97=VECTOR('',#393,10.);
#98=VECTOR('',#396,10.);
#99=VECTOR('',#399,10.);
#100=VECTOR('',#402,10.);
#101=VECTOR('',#405,10.);
#102=VECTOR('',#408,10.);
#103=VECTOR('',#411,10.);
#104=VECTOR('',#414,10.);
#105=VECTOR('',#421,10.);
#106=VECTOR('',#424,10.);
#107=VECTOR('',#425,10.);
#108=VECTOR('',#430,10.);
#109=VECTOR('',#433,10.);
#110=VECTOR('',#434,10.);
#111=VECTOR('',#439,10.);
#112=VECTOR('',#442,10.);
#113=VECTOR('',#443,10.);
#114=VECTOR('',#448,10.);
#115=VECTOR('',#451,10.);
#116=VECTOR('',#452,10.);
#117=VECTOR('',#457,10.);
#118=VECTOR('',#460,10.);
#119=VECTOR('',#461,10.);
#120=VECTOR('',#466,10.);
#121=VECTOR('',#467,10.);
#122=VECTOR('',#470,10.);
#123=VECTOR('',#475,10.);
#124=VECTOR('',#478,10.);
#125=CIRCLE('',#346,1.);
#126=CIRCLE('',#347,1.);
#127=CIRCLE('',#350,1.);
#128=CIRCLE('',#351,1.);
#129=CIRCLE('',#352,1.);
#130=CIRCLE('',#353,1.);
#131=CIRCLE('',#354,1.);
#132=CIRCLE('',#355,1.);
#133=CIRCLE('',#356,1.);
#134=CIRCLE('',#358,1.);
#135=CIRCLE('',#361,1.);
#136=CIRCLE('',#364,1.);
#137=CIRCLE('',#367,1.);
#138=CIRCLE('',#370,1.);
#139=CIRCLE('',#373,1.);
#140=CIRCLE('',#376,1.);
#141=VERTEX_POINT('',#483);
#142=VERTEX_POINT('',#484);
#143=VERTEX_POINT('',#486);
#144=VERTEX_POINT('',#488);
#145=VERTEX_POINT('',#492);
#146=VERTEX_POINT('',#494);
#147=VERTEX_POINT('',#498);
#148=VERTEX_POINT('',#500);
#149=VERTEX_POINT('',#502);
#150=VERTEX_POINT('',#504);
#151=VERTEX_POINT('',#506);
#152=VERTEX_POINT('',#508);
#153=VERTEX_POINT('',#510);
#154=VERTEX_POINT('',#512);
#155=VERTEX_POINT('',#514);
#156=VERTEX_POINT('',#516);
#157=VERTEX_POINT('',#518);
#158=VERTEX_POINT('',#520);
#159=VERTEX_POINT('',#522);
#160=VERTEX_POINT('',#526);
#161=VERTEX_POINT('',#530);
#162=VERTEX_POINT('',#534);
#163=VERTEX_POINT('',#538);
#164=VERTEX_POINT('',#542);
#165=VERTEX_POINT('',#546);
#166=VERTEX_POINT('',#550);
#167=VERTEX_POINT('',#554);
#168=VERTEX_POINT('',#558);
#169=VERTEX_POINT('',#562);
#170=VERTEX_POINT('',#566);
#171=VERTEX_POINT('',#567);
#172=VERTEX_POINT('',#574);
#173=EDGE_CURVE('',#141,#142,#125,.T.);
#174=EDGE_CURVE('',#142,#143,#61,.T.);
#175=EDGE_CURVE('',#143,#144,#126,.T.);
#176=EDGE_CURVE('',#144,#141,#62,.T.);
#177=EDGE_CURVE('',#144,#145,#63,.T.);
#178=EDGE_CURVE('',#146,#145,#64,.T.);
#179=EDGE_CURVE('',#141,#146,#65,.T.);
#180=EDGE_CURVE('',#147,#143,#66,.T.);
#181=EDGE_CURVE('',#148,#147,#127,.T.);
#182=EDGE_CURVE('',#148,#149,#67,.T.);
#183=EDGE_CURVE('',#150,#149,#128,.T.);
#184=EDGE_CURVE('',#151,#150,#68,.T.);
#185=EDGE_CURVE('',#152,#151,#129,.T.);
#186=EDGE_CURVE('',#152,#153,#69,.T.);
#187=EDGE_CURVE('',#154,#153,#130,.T.);
#188=EDGE_CURVE('',#155,#154,#70,.T.);
#189=EDGE_CURVE('',#156,#155,#131,.T.);
#190=EDGE_CURVE('',#157,#156,#71,.T.);
#191=EDGE_CURVE('',#158,#157,#132,.T.);
#192=EDGE_CURVE('',#159,#158,#72,.T.);
#193=EDGE_CURVE('',#145,#159,#133,.T.);
#194=EDGE_CURVE('',#160,#146,#134,.T.);
#195=EDGE_CURVE('',#159,#160,#73,.T.);
#196=EDGE_CURVE('',#161,#158,#74,.T.);
#197=EDGE_CURVE('',#160,#161,#75,.T.);
#198=EDGE_CURVE('',#162,#161,#135,.T.);
#199=EDGE_CURVE('',#157,#162,#76,.T.);
#200=EDGE_CURVE('',#163,#156,#77,.T.);
#201=EDGE_CURVE('',#162,#163,#78,.T.);
#202=EDGE_CURVE('',#164,#163,#136,.T.);
#203=EDGE_CURVE('',#155,#164,#79,.T.);
#204=EDGE_CURVE('',#165,#154,#80,.T.);
#205=EDGE_CURVE('',#164,#165,#81,.T.);
#206=EDGE_CURVE('',#166,#165,#137,.T.);
#207=EDGE_CURVE('',#153,#166,#82,.T.);
#208=EDGE_CURVE('',#167,#152,#83,.T.);
#209=EDGE_CURVE('',#166,#167,#84,.T.);
#210=EDGE_CURVE('',#168,#167,#138,.T.);
#211=EDGE_CURVE('',#151,#168,#85,.T.);
#212=EDGE_CURVE('',#169,#150,#86,.T.);
#213=EDGE_CURVE('',#168,#169,#87,.T.);
#214=EDGE_CURVE('',#170,#171,#139,.T.);
#215=EDGE_CURVE('',#171,#148,#88,.T.);
#216=EDGE_CURVE('',#147,#170,#89,.T.);
#217=EDGE_CURVE('',#170,#142,#90,.T.);
#218=EDGE_CURVE('',#172,#169,#140,.T.);
#219=EDGE_CURVE('',#149,#172,#91,.T.);
#220=EDGE_CURVE('',#172,#171,#92,.T.);
#221=ORIENTED_EDGE('',*,*,#173,.T.);
#222=ORIENTED_EDGE('',*,*,#174,.T.);
#223=ORIENTED_EDGE('',*,*,#175,.T.);
#224=ORIENTED_EDGE('',*,*,#176,.T.);
#225=ORIENTED_EDGE('',*,*,#176,.F.);
#226=ORIENTED_EDGE('',*,*,#177,.T.);
#227=ORIENTED_EDGE('',*,*,#178,.F.);
#228=ORIENTED_EDGE('',*,*,#179,.F.);
#229=ORIENTED_EDGE('',*,*,#175,.F.);
#230=ORIENTED_EDGE('',*,*,#180,.F.);
#231=ORIENTED_EDGE('',*,*,#181,.F.);
#232=ORIENTED_EDGE('',*,*,#182,.T.);
#233=ORIENTED_EDGE('',*,*,#183,.F.);
#234=ORIENTED_EDGE('',*,*,#184,.F.);
#235=ORIENTED_EDGE('',*,*,#185,.F.);
#236=ORIENTED_EDGE('',*,*,#186,.T.);
#237=ORIENTED_EDGE('',*,*,#187,.F.);
#238=ORIENTED_EDGE('',*,*,#188,.F.);
#239=ORIENTED_EDGE('',*,*,#189,.F.);
#240=ORIENTED_EDGE('',*,*,#190,.F.);
#241=ORIENTED_EDGE('',*,*,#191,.F.);
#242=ORIENTED_EDGE('',*,*,#192,.F.);
#243=ORIENTED_EDGE('',*,*,#193,.F.);
#244=ORIENTED_EDGE('',*,*,#177,.F.);
#245=ORIENTED_EDGE('',*,*,#194,.T.);
#246=ORIENTED_EDGE('',*,*,#178,.T.);
#247=ORIENTED_EDGE('',*,*,#193,.T.);
#248=ORIENTED_EDGE('',*,*,#195,.T.);
#249=ORIENTED_EDGE('',*,*,#195,.F.);
#250=ORIENTED_EDGE('',*,*,#192,.T.);
#251=ORIENTED_EDGE('',*,*,#196,.F.);
#252=ORIENTED_EDGE('',*,*,#197,.F.);
#253=ORIENTED_EDGE('',*,*,#198,.T.);
#254=ORIENTED_EDGE('',*,*,#196,.T.);
#255=ORIENTED_EDGE('',*,*,#191,.T.);
#256=ORIENTED_EDGE('',*,*,#199,.T.);
#257=ORIENTED_EDGE('',*,*,#199,.F.);
#258=ORIENTED_EDGE('',*,*,#190,.T.);
#259=ORIENTED_EDGE('',*,*,#200,.F.);
#260=ORIENTED_EDGE('',*,*,#201,.F.);
#261=ORIENTED_EDGE('',*,*,#202,.T.);
#262=ORIENTED_EDGE('',*,*,#200,.T.);
#263=ORIENTED_EDGE('',*,*,#189,.T.);
#264=ORIENTED_EDGE('',*,*,#203,.T.);
#265=ORIENTED_EDGE('',*,*,#203,.F.);
#266=ORIENTED_EDGE('',*,*,#188,.T.);
#267=ORIENTED_EDGE('',*,*,#204,.F.);
#268=ORIENTED_EDGE('',*,*,#205,.F.);
#269=ORIENTED_EDGE('',*,*,#206,.T.);
#270=ORIENTED_EDGE('',*,*,#204,.T.);
#271=ORIENTED_EDGE('',*,*,#187,.T.);
#272=ORIENTED_EDGE('',*,*,#207,.T.);
#273=ORIENTED_EDGE('',*,*,#207,.F.);
#274=ORIENTED_EDGE('',*,*,#186,.F.);
#275=ORIENTED_EDGE('',*,*,#208,.F.);
#276=ORIENTED_EDGE('',*,*,#209,.F.);
#277=ORIENTED_EDGE('',*,*,#210,.T.);
#278=ORIENTED_EDGE('',*,*,#208,.T.);
#279=ORIENTED_EDGE('',*,*,#185,.T.);
#280=ORIENTED_EDGE('',*,*,#211,.T.);
#281=ORIENTED_EDGE('',*,*,#211,.F.);
#282=ORIENTED_EDGE('',*,*,#184,.T.);
#283=ORIENTED_EDGE('',*,*,#212,.F.);
#284=ORIENTED_EDGE('',*,*,#213,.F.);
#285=ORIENTED_EDGE('',*,*,#214,.T.);
#286=ORIENTED_EDGE('',*,*,#215,.T.);
#287=ORIENTED_EDGE('',*,*,#181,.T.);
#288=ORIENTED_EDGE('',*,*,#216,.T.);
#289=ORIENTED_EDGE('',*,*,#174,.F.);
#290=ORIENTED_EDGE('',*,*,#217,.F.);
#291=ORIENTED_EDGE('',*,*,#216,.F.);
#292=ORIENTED_EDGE('',*,*,#180,.T.);
#293=ORIENTED_EDGE('',*,*,#218,.T.);
#294=ORIENTED_EDGE('',*,*,#212,.T.);
#295=ORIENTED_EDGE('',*,*,#183,.T.);
#296=ORIENTED_EDGE('',*,*,#219,.T.);
#297=ORIENTED_EDGE('',*,*,#215,.F.);
#298=ORIENTED_EDGE('',*,*,#220,.F.);
#299=ORIENTED_EDGE('',*,*,#219,.F.);
#300=ORIENTED_EDGE('',*,*,#182,.F.);
#301=ORIENTED_EDGE('',*,*,#173,.F.);
#302=ORIENTED_EDGE('',*,*,#179,.T.);
#303=ORIENTED_EDGE('',*,*,#194,.F.);
#304=ORIENTED_EDGE('',*,*,#197,.T.);
#305=ORIENTED_EDGE('',*,*,#198,.F.);
#306=ORIENTED_EDGE('',*,*,#201,.T.);
#307=ORIENTED_EDGE('',*,*,#202,.F.);
#308=ORIENTED_EDGE('',*,*,#205,.T.);
#309=ORIENTED_EDGE('',*,*,#206,.F.);
#310=ORIENTED_EDGE('',*,*,#209,.T.);
#311=ORIENTED_EDGE('',*,*,#210,.F.);
#312=ORIENTED_EDGE('',*,*,#213,.T.);
#313=ORIENTED_EDGE('',*,*,#218,.F.);
#314=ORIENTED_EDGE('',*,*,#220,.T.);
#315=ORIENTED_EDGE('',*,*,#214,.F.);
#316=ORIENTED_EDGE('',*,*,#217,.T.);
#317=CYLINDRICAL_SURFACE('',#345,1.);
#318=CYLINDRICAL_SURFACE('',#357,1.);
#319=CYLINDRICAL_SURFACE('',#360,1.);
#320=CYLINDRICAL_SURFACE('',#363,1.);
#321=CYLINDRICAL_SURFACE('',#366,1.);
#322=CYLINDRICAL_SURFACE('',#369,1.);
#323=CYLINDRICAL_SURFACE('',#372,1.);
#324=CYLINDRICAL_SURFACE('',#375,1.);
#325=ADVANCED_FACE('',(#25),#317,.T.);
#326=ADVANCED_FACE('',(#26),#15,.T.);
#327=ADVANCED_FACE('',(#27),#16,.F.);
#328=ADVANCED_FACE('',(#28),#318,.T.);
#329=ADVANCED_FACE('',(#29),#17,.T.);
#330=ADVANCED_FACE('',(#30),#319,.T.);
#331=ADVANCED_FACE('',(#31),#18,.T.);
#332=ADVANCED_FACE('',(#32),#320,.T.);
#333=ADVANCED_FACE('',(#33),#19,.T.);
#334=ADVANCED_FACE('',(#34),#321,.T.);
#335=ADVANCED_FACE('',(#35),#20,.T.);
#336=ADVANCED_FACE('',(#36),#322,.T.);
#337=ADVANCED_FACE('',(#37),#21,.T.);
#338=ADVANCED_FACE('',(#38),#323,.T.);
#339=ADVANCED_FACE('',(#39),#22,.T.);
#340=ADVANCED_FACE('',(#40),#324,.T.);
#341=ADVANCED_FACE('',(#41),#23,.T.);
#342=ADVANCED_FACE('',(#42),#24,.T.);
#343=CLOSED_SHELL('',(#325,#326,#327,#328,#329,#330,#331,#332,#333,#334,
#335,#336,#337,#338,#339,#340,#341,#342));
#344=AXIS2_PLACEMENT_3D('',#481,#379,#380);
#345=AXIS2_PLACEMENT_3D('',#482,#381,#382);
#346=AXIS2_PLACEMENT_3D('',#485,#383,#384);
#347=AXIS2_PLACEMENT_3D('',#489,#386,#387);
#348=AXIS2_PLACEMENT_3D('',#491,#389,#390);
#349=AXIS2_PLACEMENT_3D('',#497,#394,#395);
#350=AXIS2_PLACEMENT_3D('',#501,#397,#398);
#351=AXIS2_PLACEMENT_3D('',#505,#400,#401);
#352=AXIS2_PLACEMENT_3D('',#509,#403,#404);
#353=AXIS2_PLACEMENT_3D('',#513,#406,#407);
#354=AXIS2_PLACEMENT_3D('',#517,#409,#410);
#355=AXIS2_PLACEMENT_3D('',#521,#412,#413);
#356=AXIS2_PLACEMENT_3D('',#524,#415,#416);
#357=AXIS2_PLACEMENT_3D('',#525,#417,#418);
#358=AXIS2_PLACEMENT_3D('',#527,#419,#420);
#359=AXIS2_PLACEMENT_3D('',#529,#422,#423);
#360=AXIS2_PLACEMENT_3D('',#533,#426,#427);
#361=AXIS2_PLACEMENT_3D('',#535,#428,#429);
#362=AXIS2_PLACEMENT_3D('',#537,#431,#432);
#363=AXIS2_PLACEMENT_3D('',#541,#435,#436);
#364=AXIS2_PLACEMENT_3D('',#543,#437,#438);
#365=AXIS2_PLACEMENT_3D('',#545,#440,#441);
#366=AXIS2_PLACEMENT_3D('',#549,#444,#445);
#367=AXIS2_PLACEMENT_3D('',#551,#446,#447);
#368=AXIS2_PLACEMENT_3D('',#553,#449,#450);
#369=AXIS2_PLACEMENT_3D('',#557,#453,#454);
#370=AXIS2_PLACEMENT_3D('',#559,#455,#456);
#371=AXIS2_PLACEMENT_3D('',#561,#458,#459);
#372=AXIS2_PLACEMENT_3D('',#565,#462,#463);
#373=AXIS2_PLACEMENT_3D('',#568,#464,#465);
#374=AXIS2_PLACEMENT_3D('',#571,#468,#469);
#375=AXIS2_PLACEMENT_3D('',#573,#471,#472);
#376=AXIS2_PLACEMENT_3D('',#575,#473,#474);
#377=AXIS2_PLACEMENT_3D('',#577,#476,#477);
#378=AXIS2_PLACEMENT_3D('',#579,#479,#480);
#379=DIRECTION('axis',(0.,0.,1.));
#380=DIRECTION('refdir',(1.,0.,0.));
#381=DIRECTION('center_axis',(0.,0.,1.));
#382=DIRECTION('ref_axis',(0.923879532511287,0.38268343236509,0.));
#383=DIRECTION('center_axis',(0.,0.,-1.));
#384=DIRECTION('ref_axis',(0.923879532511287,0.38268343236509,0.));
#385=DIRECTION('',(0.,0.,-1.));
#386=DIRECTION('center_axis',(0.,0.,1.));
#387=DIRECTION('ref_axis',(0.923879532511287,0.38268343236509,0.));
#388=DIRECTION('',(0.,0.,1.));
#389=DIRECTION('center_axis',(0.707106781186548,0.707106781186548,0.));
#390=DIRECTION('ref_axis',(-0.707106781186548,0.707106781186548,0.));
#391=DIRECTION('',(-0.707106781186548,0.707106781186548,0.));
#392=DIRECTION('',(0.,0.,-1.));
#393=DIRECTION('',(-0.707106781186548,0.707106781186548,0.));
#394=DIRECTION('center_axis',(0.,0.,1.));
#395=DIRECTION('ref_axis',(1.,0.,0.));
#396=DIRECTION('',(0.,1.,0.));
#397=DIRECTION('center_axis',(0.,0.,1.));
#398=DIRECTION('ref_axis',(0.923879532511287,-0.38268343236509,0.));
#399=DIRECTION('',(-0.707106781186548,-0.707106781186548,0.));
#400=DIRECTION('center_axis',(0.,0.,1.));
#401=DIRECTION('ref_axis',(0.382683432365094,-0.923879532511285,0.));
#402=DIRECTION('',(1.,0.,0.));
#403=DIRECTION('center_axis',(0.,0.,1.));
#404=DIRECTION('ref_axis',(-0.382683432365087,-0.923879532511288,0.));
#405=DIRECTION('',(-0.707106781186548,0.707106781186548,0.));
#406=DIRECTION('center_axis',(0.,0.,1.));
#407=DIRECTION('ref_axis',(-0.923879532511285,-0.382683432365094,0.));
#408=DIRECTION('',(0.,-1.,0.));
#409=DIRECTION('center_axis',(0.,0.,1.));
#410=DIRECTION('ref_axis',(-0.923879532511288,0.382683432365087,0.));
#411=DIRECTION('',(-0.707106781186548,-0.707106781186548,0.));
#412=DIRECTION('center_axis',(0.,0.,1.));
#413=DIRECTION('ref_axis',(-0.382683432365088,0.923879532511287,0.));
#414=DIRECTION('',(-1.,0.,0.));
#415=DIRECTION('center_axis',(0.,0.,1.));
#416=DIRECTION('ref_axis',(0.38268343236509,0.923879532511287,0.));
#417=DIRECTION('center_axis',(0.,0.,1.));
#418=DIRECTION('ref_axis',(0.38268343236509,0.923879532511287,0.));
#419=DIRECTION('center_axis',(0.,0.,-1.));
#420=DIRECTION('ref_axis',(0.38268343236509,0.923879532511287,0.));
#421=DIRECTION('',(0.,0.,1.));
#422=DIRECTION('center_axis',(0.,1.,0.));
#423=DIRECTION('ref_axis',(-1.,0.,0.));
#424=DIRECTION('',(0.,0.,-1.));
#425=DIRECTION('',(-1.,0.,0.));
#426=DIRECTION('center_axis',(0.,0.,1.));
#427=DIRECTION('ref_axis',(-0.382683432365088,0.923879532511287,0.));
#428=DIRECTION('center_axis',(0.,0.,-1.));
#429=DIRECTION('ref_axis',(-0.382683432365088,0.923879532511287,0.));
#430=DIRECTION('',(0.,0.,1.));
#431=DIRECTION('center_axis',(-0.707106781186548,0.707106781186548,0.));
#432=DIRECTION('ref_axis',(-0.707106781186548,-0.707106781186548,0.));
#433=DIRECTION('',(0.,0.,-1.));
#434=DIRECTION('',(-0.707106781186548,-0.707106781186548,0.));
#435=DIRECTION('center_axis',(0.,0.,1.));
#436=DIRECTION('ref_axis',(-0.923879532511288,0.382683432365087,0.));
#437=DIRECTION('center_axis',(0.,0.,-1.));
#438=DIRECTION('ref_axis',(-0.923879532511288,0.382683432365087,0.));
#439=DIRECTION('',(0.,0.,1.));
#440=DIRECTION('center_axis',(-1.,0.,0.));
#441=DIRECTION('ref_axis',(0.,-1.,0.));
#442=DIRECTION('',(0.,0.,-1.));
#443=DIRECTION('',(0.,-1.,0.));
#444=DIRECTION('center_axis',(0.,0.,1.));
#445=DIRECTION('ref_axis',(-0.923879532511285,-0.382683432365094,0.));
#446=DIRECTION('center_axis',(0.,0.,-1.));
#447=DIRECTION('ref_axis',(-0.923879532511285,-0.382683432365094,0.));
#448=DIRECTION('',(0.,0.,1.));
#449=DIRECTION('center_axis',(-0.707106781186548,-0.707106781186548,0.));
#450=DIRECTION('ref_axis',(0.707106781186548,-0.707106781186548,0.));
#451=DIRECTION('',(0.,0.,-1.));
#452=DIRECTION('',(0.707106781186548,-0.707106781186548,0.));
#453=DIRECTION('center_axis',(0.,0.,1.));
#454=DIRECTION('ref_axis',(-0.382683432365087,-0.923879532511288,0.));
#455=DIRECTION('center_axis',(0.,0.,-1.));
#456=DIRECTION('ref_axis',(-0.382683432365087,-0.923879532511288,0.));
#457=DIRECTION('',(0.,0.,1.));
#458=DIRECTION('center_axis',(0.,-1.,0.));
#459=DIRECTION('ref_axis',(1.,0.,0.));
#460=DIRECTION('',(0.,0.,-1.));
#461=DIRECTION('',(1.,0.,0.));
#462=DIRECTION('center_axis',(0.,0.,1.));
#463=DIRECTION('ref_axis',(0.923879532511287,-0.38268343236509,0.));
#464=DIRECTION('center_axis',(0.,0.,-1.));
#465=DIRECTION('ref_axis',(0.923879532511287,-0.38268343236509,0.));
#466=DIRECTION('',(0.,0.,-1.));
#467=DIRECTION('',(0.,0.,1.));
#468=DIRECTION('center_axis',(1.,0.,0.));
#469=DIRECTION('ref_axis',(0.,1.,0.));
#470=DIRECTION('',(0.,1.,0.));
#471=DIRECTION('center_axis',(0.,0.,1.));
#472=DIRECTION('ref_axis',(0.382683432365094,-0.923879532511285,0.));
#473=DIRECTION('center_axis',(0.,0.,-1.));
#474=DIRECTION('ref_axis',(0.382683432365094,-0.923879532511285,0.));
#475=DIRECTION('',(0.,0.,1.));
#476=DIRECTION('center_axis',(0.707106781186548,-0.707106781186548,0.));
#477=DIRECTION('ref_axis',(0.707106781186548,0.707106781186548,0.));
#478=DIRECTION('',(0.707106781186548,0.707106781186548,0.));
#479=DIRECTION('center_axis',(0.,0.,1.));
#480=DIRECTION('ref_axis',(1.,0.,0.));
#481=CARTESIAN_POINT('',(0.,0.,0.));
#482=CARTESIAN_POINT('Origin',(-71.,-14.6142135623731,0.));
#483=CARTESIAN_POINT('',(-70.2928932188134,-13.9071067811865,1.4));
#484=CARTESIAN_POINT('',(-70.,-14.6142135623731,1.4));
#485=CARTESIAN_POINT('Origin',(-71.,-14.6142135623731,1.4));
#486=CARTESIAN_POINT('',(-70.,-14.6142135623731,0.));
#487=CARTESIAN_POINT('',(-70.,-14.6142135623731,0.));
#488=CARTESIAN_POINT('',(-70.2928932188134,-13.9071067811865,0.));
#489=CARTESIAN_POINT('Origin',(-71.,-14.6142135623731,0.));
#490=CARTESIAN_POINT('',(-70.2928932188134,-13.9071067811865,0.));
#491=CARTESIAN_POINT('Origin',(-70.,-14.2,0.));
#492=CARTESIAN_POINT('',(-73.9071067811865,-10.2928932188135,0.));
#493=CARTESIAN_POINT('',(-70.,-14.2,0.));
#494=CARTESIAN_POINT('',(-73.9071067811865,-10.2928932188135,1.4));
#495=CARTESIAN_POINT('',(-73.9071067811865,-10.2928932188135,0.));
#496=CARTESIAN_POINT('',(-70.,-14.2,1.4));
#497=CARTESIAN_POINT('Origin',(-88.4,-58.4,0.));
#498=CARTESIAN_POINT('',(-70.,-102.185786437627,0.));
#499=CARTESIAN_POINT('',(-70.,-102.6,0.));
#500=CARTESIAN_POINT('',(-70.2928932188134,-102.892893218813,0.));
#501=CARTESIAN_POINT('Origin',(-71.,-102.185786437627,0.));
#502=CARTESIAN_POINT('',(-73.9071067811866,-106.507106781187,0.));
#503=CARTESIAN_POINT('',(-70.,-102.6,0.));
#504=CARTESIAN_POINT('',(-74.6142135623731,-106.8,0.));
#505=CARTESIAN_POINT('Origin',(-74.6142135623731,-105.8,0.));
#506=CARTESIAN_POINT('',(-102.185786437627,-106.8,0.));
#507=CARTESIAN_POINT('',(-102.6,-106.8,0.));
#508=CARTESIAN_POINT('',(-102.892893218813,-106.507106781187,0.));
#509=CARTESIAN_POINT('Origin',(-102.185786437627,-105.8,0.));
#510=CARTESIAN_POINT('',(-106.507106781187,-102.892893218813,0.));
#511=CARTESIAN_POINT('',(-102.6,-106.8,0.));
#512=CARTESIAN_POINT('',(-106.8,-102.185786437627,0.));
#513=CARTESIAN_POINT('Origin',(-105.8,-102.185786437627,0.));
#514=CARTESIAN_POINT('',(-106.8,-14.6142135623731,0.));
#515=CARTESIAN_POINT('',(-106.8,-14.2,0.));
#516=CARTESIAN_POINT('',(-106.507106781187,-13.9071067811865,0.));
#517=CARTESIAN_POINT('Origin',(-105.8,-14.6142135623731,0.));
#518=CARTESIAN_POINT('',(-102.892893218813,-10.2928932188135,0.));
#519=CARTESIAN_POINT('',(-102.6,-10.,0.));
#520=CARTESIAN_POINT('',(-102.185786437627,-10.,0.));
#521=CARTESIAN_POINT('Origin',(-102.185786437627,-11.,0.));
#522=CARTESIAN_POINT('',(-74.6142135623731,-10.,0.));
#523=CARTESIAN_POINT('',(-74.2,-10.,0.));
#524=CARTESIAN_POINT('Origin',(-74.6142135623731,-11.,0.));
#525=CARTESIAN_POINT('Origin',(-74.6142135623731,-11.,0.));
#526=CARTESIAN_POINT('',(-74.6142135623731,-10.,1.4));
#527=CARTESIAN_POINT('Origin',(-74.6142135623731,-11.,1.4));
#528=CARTESIAN_POINT('',(-74.6142135623731,-10.,0.));
#529=CARTESIAN_POINT('Origin',(-74.2,-10.,0.));
#530=CARTESIAN_POINT('',(-102.185786437627,-10.,1.4));
#531=CARTESIAN_POINT('',(-102.185786437627,-10.,0.));
#532=CARTESIAN_POINT('',(-74.2,-10.,1.4));
#533=CARTESIAN_POINT('Origin',(-102.185786437627,-11.,0.));
#534=CARTESIAN_POINT('',(-102.892893218813,-10.2928932188135,1.4));
#535=CARTESIAN_POINT('Origin',(-102.185786437627,-11.,1.4));
#536=CARTESIAN_POINT('',(-102.892893218813,-10.2928932188135,0.));
#537=CARTESIAN_POINT('Origin',(-102.6,-10.,0.));
#538=CARTESIAN_POINT('',(-106.507106781187,-13.9071067811865,1.4));
#539=CARTESIAN_POINT('',(-106.507106781187,-13.9071067811865,0.));
#540=CARTESIAN_POINT('',(-102.6,-10.,1.4));
#541=CARTESIAN_POINT('Origin',(-105.8,-14.6142135623731,0.));
#542=CARTESIAN_POINT('',(-106.8,-14.6142135623731,1.4));
#543=CARTESIAN_POINT('Origin',(-105.8,-14.6142135623731,1.4));
#544=CARTESIAN_POINT('',(-106.8,-14.6142135623731,0.));
#545=CARTESIAN_POINT('Origin',(-106.8,-14.2,0.));
#546=CARTESIAN_POINT('',(-106.8,-102.185786437627,1.4));
#547=CARTESIAN_POINT('',(-106.8,-102.185786437627,0.));
#548=CARTESIAN_POINT('',(-106.8,-14.2,1.4));
#549=CARTESIAN_POINT('Origin',(-105.8,-102.185786437627,0.));
#550=CARTESIAN_POINT('',(-106.507106781187,-102.892893218813,1.4));
#551=CARTESIAN_POINT('Origin',(-105.8,-102.185786437627,1.4));
#552=CARTESIAN_POINT('',(-106.507106781187,-102.892893218813,0.));
#553=CARTESIAN_POINT('Origin',(-106.8,-102.6,0.));
#554=CARTESIAN_POINT('',(-102.892893218813,-106.507106781187,1.4));
#555=CARTESIAN_POINT('',(-102.892893218813,-106.507106781187,0.));
#556=CARTESIAN_POINT('',(-102.6,-106.8,1.4));
#557=CARTESIAN_POINT('Origin',(-102.185786437627,-105.8,0.));
#558=CARTESIAN_POINT('',(-102.185786437627,-106.8,1.4));
#559=CARTESIAN_POINT('Origin',(-102.185786437627,-105.8,1.4));
#560=CARTESIAN_POINT('',(-102.185786437627,-106.8,0.));
#561=CARTESIAN_POINT('Origin',(-102.6,-106.8,0.));
#562=CARTESIAN_POINT('',(-74.6142135623731,-106.8,1.4));
#563=CARTESIAN_POINT('',(-74.6142135623731,-106.8,0.));
#564=CARTESIAN_POINT('',(-102.6,-106.8,1.4));
#565=CARTESIAN_POINT('Origin',(-71.,-102.185786437627,0.));
#566=CARTESIAN_POINT('',(-70.,-102.185786437627,1.4));
#567=CARTESIAN_POINT('',(-70.2928932188134,-102.892893218813,1.4));
#568=CARTESIAN_POINT('Origin',(-71.,-102.185786437627,1.4));
#569=CARTESIAN_POINT('',(-70.2928932188134,-102.892893218813,0.));
#570=CARTESIAN_POINT('',(-70.,-102.185786437627,0.));
#571=CARTESIAN_POINT('Origin',(-70.,-102.6,0.));
#572=CARTESIAN_POINT('',(-70.,-102.6,1.4));
#573=CARTESIAN_POINT('Origin',(-74.6142135623731,-105.8,0.));
#574=CARTESIAN_POINT('',(-73.9071067811866,-106.507106781187,1.4));
#575=CARTESIAN_POINT('Origin',(-74.6142135623731,-105.8,1.4));
#576=CARTESIAN_POINT('',(-73.9071067811866,-106.507106781187,0.));
#577=CARTESIAN_POINT('Origin',(-74.2,-106.8,0.));
#578=CARTESIAN_POINT('',(-70.,-102.6,1.4));
#579=CARTESIAN_POINT('Origin',(-88.4,-58.4,1.4));
#580=UNCERTAINTY_MEASURE_WITH_UNIT(LENGTH_MEASURE(0.01),#584,
'DISTANCE_ACCURACY_VALUE',
'Maximum model space distance between geometric entities at asserted c
onnectivities');
#581=UNCERTAINTY_MEASURE_WITH_UNIT(LENGTH_MEASURE(0.01),#584,
'DISTANCE_ACCURACY_VALUE',
'Maximum model space distance between geometric entities at asserted c
onnectivities');
#582=(
GEOMETRIC_REPRESENTATION_CONTEXT(3)
GLOBAL_UNCERTAINTY_ASSIGNED_CONTEXT((#580))
GLOBAL_UNIT_ASSIGNED_CONTEXT((#584,#585,#586))
REPRESENTATION_CONTEXT('','3D')
);
#583=(
GEOMETRIC_REPRESENTATION_CONTEXT(3)
GLOBAL_UNCERTAINTY_ASSIGNED_CONTEXT((#581))
GLOBAL_UNIT_ASSIGNED_CONTEXT((#584,#585,#586))
REPRESENTATION_CONTEXT('','3D')
);
#584=(
LENGTH_UNIT()
NAMED_UNIT(*)
SI_UNIT(.MILLI.,.METRE.)
);
#585=(
NAMED_UNIT(*)
PLANE_ANGLE_UNIT()
SI_UNIT($,.RADIAN.)
);
#586=(
NAMED_UNIT(*)
SI_UNIT($,.STERADIAN.)
SOLID_ANGLE_UNIT()
);
#587=SHAPE_DEFINITION_REPRESENTATION(#588,#589);
#588=PRODUCT_DEFINITION_SHAPE('',$,#591);
#589=SHAPE_REPRESENTATION('',(#344),#582);
#590=PRODUCT_DEFINITION_CONTEXT('part definition',#595,'design');
#591=PRODUCT_DEFINITION('HEPA','HEPA v8',#592,#590);
#592=PRODUCT_DEFINITION_FORMATION('',$,#597);
#593=PRODUCT_RELATED_PRODUCT_CATEGORY('HEPA v8','HEPA v8',(#597));
#594=APPLICATION_PROTOCOL_DEFINITION('international standard',
'automotive_design',2009,#595);
#595=APPLICATION_CONTEXT(
'Core Data for Automotive Mechanical Design Process');
#596=PRODUCT_CONTEXT('part definition',#595,'mechanical');
#597=PRODUCT('HEPA','HEPA v8',$,(#596));
#598=PRESENTATION_STYLE_ASSIGNMENT((#599));
#599=SURFACE_STYLE_USAGE(.BOTH.,#600);
#600=SURFACE_SIDE_STYLE('',(#601));
#601=SURFACE_STYLE_FILL_AREA(#602);
#602=FILL_AREA_STYLE('\X2\94A2\X0\ - \X2\7F0E5149\X0\',(#603));
#603=FILL_AREA_STYLE_COLOUR('\X2\94A2\X0\ - \X2\7F0E5149\X0\',#604);
#604=COLOUR_RGB('\X2\94A2\X0\ - \X2\7F0E5149\X0\',0.627450980392157,0.627450980392157,
0.627450980392157);
ENDSEC;
END-ISO-10303-21;
