ISO-10303-21;
HEADER;

/* File generated by Shapr3D Version 5.921.0.9321 */

FILE_DESCRIPTION(('HOOPS Exchange Step'),'2;1');

FILE_NAME('/Users/ddanier/Library/Containers/com.shapr3d.shapr/Data/tmp/export/temp_export',
'2025-08-14T08:29:16+02:00',
('ddanier'),
('Shapr3D Limited'),
'HOOPS Exchange 2025.5',
'Shapr3D',
'Authorized');

FILE_SCHEMA( ('AP242_MANAGED_MODEL_BASED_3D_ENGINEERING_MIM_LF {1 0 10303 442 1 1 4}') );

ENDSEC;

DATA;
#3=(NAMED_UNIT(*)PLANE_ANGLE_UNIT()SI_UNIT($,.RADIAN.));
#4=PLANE_ANGLE_MEASURE_WITH_UNIT(PLANE_ANGLE_MEASURE(0.0174532925),#3);
#5=(CONVERSION_BASED_UNIT('DEGREE',#4)NAMED_UNIT(#6)PLANE_ANGLE_UNIT());
#6=DIMENSIONAL_EXPONENTS(0.,0.,0.,0.,0.,0.,0.);
#7=(NAMED_UNIT(*)SI_UNIT($,.STERADIAN.)SOLID_ANGLE_UNIT());
#8=(LENGTH_UNIT()NAMED_UNIT(*)SI_UNIT(.MILLI.,.METRE.));
#9=UNCERTAINTY_MEASURE_WITH_UNIT(LENGTH_MEASURE(1.000000E-05),#8,'DISTANCE_ACCURACY_VALUE','Maximum Tolerance applied to model');
#10=(GEOMETRIC_REPRESENTATION_CONTEXT(3)GLOBAL_UNCERTAINTY_ASSIGNED_CONTEXT((#9))GLOBAL_UNIT_ASSIGNED_CONTEXT((#8,#5,#7))REPRESENTATION_CONTEXT('','Connector Insert Tool'));
#12=CARTESIAN_POINT('',(0.,0.,0.));
#13=DIRECTION('',(0.,0.,1.));
#14=DIRECTION('',(1.,0.,0.));
#15=AXIS2_PLACEMENT_3D('TS3D_PRODUCT_CSYS',#12,#13,#14);
#27=CARTESIAN_POINT('',(-0.,-6.3,-5.));
#28=DIRECTION('',(0.,-1.,0.));
#29=DIRECTION('',(0.,0.,-1.));
#30=AXIS2_PLACEMENT_3D('',#27,#28,#29);
#31=PLANE('',#30);
#32=CARTESIAN_POINT('',(-5.2,-6.3,5.));
#33=VERTEX_POINT('',#32);
#34=CARTESIAN_POINT('',(-5.2,-6.3,-4.));
#35=VERTEX_POINT('',#34);
#36=CARTESIAN_POINT('',(-5.2,-6.3,5.));
#37=DIRECTION('',(-0.,-0.,-1.));
#38=VECTOR('',#37,9.);
#39=LINE('',#36,#38);
#40=EDGE_CURVE('',#33,#35,#39,.T.);
#41=ORIENTED_EDGE('',*,*,#40,.T.);
#42=CARTESIAN_POINT('',(5.2,-6.3,-4.));
#43=VERTEX_POINT('',#42);
#44=CARTESIAN_POINT('',(-5.2,-6.3,-4.));
#45=DIRECTION('',(1.,0.,-0.));
#46=VECTOR('',#45,10.4);
#47=LINE('',#44,#46);
#48=EDGE_CURVE('',#35,#43,#47,.T.);
#49=ORIENTED_EDGE('',*,*,#48,.T.);
#50=CARTESIAN_POINT('',(5.2,-6.3,5.));
#51=VERTEX_POINT('',#50);
#52=CARTESIAN_POINT('',(5.2,-6.3,-4.));
#53=DIRECTION('',(0.,0.,1.));
#54=VECTOR('',#53,9.);
#55=LINE('',#52,#54);
#56=EDGE_CURVE('',#43,#51,#55,.T.);
#57=ORIENTED_EDGE('',*,*,#56,.T.);
#58=CARTESIAN_POINT('',(-5.2,-6.3,5.));
#59=DIRECTION('',(1.,0.,-0.));
#60=VECTOR('',#59,10.4);
#61=LINE('',#58,#60);
#62=EDGE_CURVE('',#33,#51,#61,.T.);
#63=ORIENTED_EDGE('',*,*,#62,.F.);
#64=EDGE_LOOP('',(#41,#49,#57,#63));
#65=FACE_BOUND('',#64,.T.);
#66=ADVANCED_FACE('',(#65),#31,.T.);
#67=CARTESIAN_POINT('',(7.7,0.,-5.));
#68=DIRECTION('',(1.,0.,0.));
#69=DIRECTION('',(0.,0.,-1.));
#70=AXIS2_PLACEMENT_3D('',#67,#68,#69);
#71=PLANE('',#70);
#72=CARTESIAN_POINT('',(7.7,-3.8,5.));
#73=VERTEX_POINT('',#72);
#74=CARTESIAN_POINT('',(7.7,-3.8,-4.));
#75=VERTEX_POINT('',#74);
#76=CARTESIAN_POINT('',(7.7,-3.8,5.));
#77=DIRECTION('',(-0.,-0.,-1.));
#78=VECTOR('',#77,9.);
#79=LINE('',#76,#78);
#80=EDGE_CURVE('',#73,#75,#79,.T.);
#81=ORIENTED_EDGE('',*,*,#80,.T.);
#82=CARTESIAN_POINT('',(7.7,3.8,-4.));
#83=VERTEX_POINT('',#82);
#84=CARTESIAN_POINT('',(7.7,-3.8,-4.));
#85=DIRECTION('',(0.,1.,0.));
#86=VECTOR('',#85,7.6);
#87=LINE('',#84,#86);
#88=EDGE_CURVE('',#75,#83,#87,.T.);
#89=ORIENTED_EDGE('',*,*,#88,.T.);
#90=CARTESIAN_POINT('',(7.7,3.8,5.));
#91=VERTEX_POINT('',#90);
#92=CARTESIAN_POINT('',(7.7,3.8,-4.));
#93=DIRECTION('',(0.,0.,1.));
#94=VECTOR('',#93,9.);
#95=LINE('',#92,#94);
#96=EDGE_CURVE('',#83,#91,#95,.T.);
#97=ORIENTED_EDGE('',*,*,#96,.T.);
#98=CARTESIAN_POINT('',(7.7,-3.8,5.));
#99=DIRECTION('',(0.,1.,0.));
#100=VECTOR('',#99,7.6);
#101=LINE('',#98,#100);
#102=EDGE_CURVE('',#73,#91,#101,.T.);
#103=ORIENTED_EDGE('',*,*,#102,.F.);
#104=EDGE_LOOP('',(#81,#89,#97,#103));
#105=FACE_BOUND('',#104,.T.);
#106=ADVANCED_FACE('',(#105),#71,.T.);
#107=CARTESIAN_POINT('',(0.,6.3,-5.));
#108=DIRECTION('',(0.,1.,0.));
#109=DIRECTION('',(0.,0.,1.));
#110=AXIS2_PLACEMENT_3D('',#107,#108,#109);
#111=PLANE('',#110);
#112=CARTESIAN_POINT('',(5.2,6.3,5.));
#113=VERTEX_POINT('',#112);
#114=CARTESIAN_POINT('',(5.2,6.3,-4.));
#115=VERTEX_POINT('',#114);
#116=CARTESIAN_POINT('',(5.2,6.3,5.));
#117=DIRECTION('',(-0.,-0.,-1.));
#118=VECTOR('',#117,9.);
#119=LINE('',#116,#118);
#120=EDGE_CURVE('',#113,#115,#119,.T.);
#121=ORIENTED_EDGE('',*,*,#120,.T.);
#122=CARTESIAN_POINT('',(-5.2,6.3,-4.));
#123=VERTEX_POINT('',#122);
#124=CARTESIAN_POINT('',(5.2,6.3,-4.));
#125=DIRECTION('',(-1.,0.,0.));
#126=VECTOR('',#125,10.4);
#127=LINE('',#124,#126);
#128=EDGE_CURVE('',#115,#123,#127,.T.);
#129=ORIENTED_EDGE('',*,*,#128,.T.);
#130=CARTESIAN_POINT('',(-5.2,6.3,5.));
#131=VERTEX_POINT('',#130);
#132=CARTESIAN_POINT('',(-5.2,6.3,-4.));
#133=DIRECTION('',(0.,0.,1.));
#134=VECTOR('',#133,9.);
#135=LINE('',#132,#134);
#136=EDGE_CURVE('',#123,#131,#135,.T.);
#137=ORIENTED_EDGE('',*,*,#136,.T.);
#138=CARTESIAN_POINT('',(5.2,6.3,5.));
#139=DIRECTION('',(-1.,0.,0.));
#140=VECTOR('',#139,10.4);
#141=LINE('',#138,#140);
#142=EDGE_CURVE('',#113,#131,#141,.T.);
#143=ORIENTED_EDGE('',*,*,#142,.F.);
#144=EDGE_LOOP('',(#121,#129,#137,#143));
#145=FACE_BOUND('',#144,.T.);
#146=ADVANCED_FACE('',(#145),#111,.T.);
#147=CARTESIAN_POINT('',(-7.7,0.,-5.));
#148=DIRECTION('',(-1.,0.,0.));
#149=DIRECTION('',(0.,0.,1.));
#150=AXIS2_PLACEMENT_3D('',#147,#148,#149);
#151=PLANE('',#150);
#152=CARTESIAN_POINT('',(-7.7,3.8,5.));
#153=VERTEX_POINT('',#152);
#154=CARTESIAN_POINT('',(-7.7,3.8,-4.));
#155=VERTEX_POINT('',#154);
#156=CARTESIAN_POINT('',(-7.7,3.8,5.));
#157=DIRECTION('',(-0.,-0.,-1.));
#158=VECTOR('',#157,9.);
#159=LINE('',#156,#158);
#160=EDGE_CURVE('',#153,#155,#159,.T.);
#161=ORIENTED_EDGE('',*,*,#160,.T.);
#162=CARTESIAN_POINT('',(-7.7,-3.8,-4.));
#163=VERTEX_POINT('',#162);
#164=CARTESIAN_POINT('',(-7.7,3.8,-4.));
#165=DIRECTION('',(0.,-1.,0.));
#166=VECTOR('',#165,7.6);
#167=LINE('',#164,#166);
#168=EDGE_CURVE('',#155,#163,#167,.T.);
#169=ORIENTED_EDGE('',*,*,#168,.T.);
#170=CARTESIAN_POINT('',(-7.7,-3.8,5.));
#171=VERTEX_POINT('',#170);
#172=CARTESIAN_POINT('',(-7.7,-3.8,-4.));
#173=DIRECTION('',(0.,0.,1.));
#174=VECTOR('',#173,9.);
#175=LINE('',#172,#174);
#176=EDGE_CURVE('',#163,#171,#175,.T.);
#177=ORIENTED_EDGE('',*,*,#176,.T.);
#178=CARTESIAN_POINT('',(-7.7,3.8,5.));
#179=DIRECTION('',(0.,-1.,0.));
#180=VECTOR('',#179,7.6);
#181=LINE('',#178,#180);
#182=EDGE_CURVE('',#153,#171,#181,.T.);
#183=ORIENTED_EDGE('',*,*,#182,.F.);
#184=EDGE_LOOP('',(#161,#169,#177,#183));
#185=FACE_BOUND('',#184,.T.);
#186=ADVANCED_FACE('',(#185),#151,.T.);
#187=CARTESIAN_POINT('',(0.,0.,-5.));
#188=DIRECTION('',(0.,0.,1.));
#189=DIRECTION('',(1.,0.,0.));
#190=AXIS2_PLACEMENT_3D('',#187,#188,#189);
#191=PLANE('',#190);
#192=CARTESIAN_POINT('',(-5.2,5.3,-5.));
#193=VERTEX_POINT('',#192);
#194=CARTESIAN_POINT('',(5.2,5.3,-5.));
#195=VERTEX_POINT('',#194);
#196=CARTESIAN_POINT('',(-5.2,5.3,-5.));
#197=DIRECTION('',(1.,0.,-0.));
#198=VECTOR('',#197,10.4);
#199=LINE('',#196,#198);
#200=EDGE_CURVE('',#193,#195,#199,.T.);
#201=ORIENTED_EDGE('',*,*,#200,.T.);
#202=CARTESIAN_POINT('',(6.7,3.8,-5.));
#203=VERTEX_POINT('',#202);
#204=CARTESIAN_POINT('',(5.2,3.8,-5.));
#205=DIRECTION('',(-0.,-0.,-1.));
#206=DIRECTION('',(1.,0.,-0.));
#207=AXIS2_PLACEMENT_3D('',#204,#205,#206);
#208=CIRCLE('',#207,1.5);
#209=EDGE_CURVE('',#195,#203,#208,.T.);
#210=ORIENTED_EDGE('',*,*,#209,.T.);
#211=CARTESIAN_POINT('',(6.7,-3.8,-5.));
#212=VERTEX_POINT('',#211);
#213=CARTESIAN_POINT('',(6.7,3.8,-5.));
#214=DIRECTION('',(0.,-1.,0.));
#215=VECTOR('',#214,7.6);
#216=LINE('',#213,#215);
#217=EDGE_CURVE('',#203,#212,#216,.T.);
#218=ORIENTED_EDGE('',*,*,#217,.T.);
#219=CARTESIAN_POINT('',(5.2,-5.3,-5.));
#220=VERTEX_POINT('',#219);
#221=CARTESIAN_POINT('',(5.2,-3.8,-5.));
#222=DIRECTION('',(-0.,-0.,-1.));
#223=DIRECTION('',(1.,0.,-0.));
#224=AXIS2_PLACEMENT_3D('',#221,#222,#223);
#225=CIRCLE('',#224,1.5);
#226=EDGE_CURVE('',#212,#220,#225,.T.);
#227=ORIENTED_EDGE('',*,*,#226,.T.);
#228=CARTESIAN_POINT('',(-5.2,-5.3,-5.));
#229=VERTEX_POINT('',#228);
#230=CARTESIAN_POINT('',(5.2,-5.3,-5.));
#231=DIRECTION('',(-1.,0.,0.));
#232=VECTOR('',#231,10.4);
#233=LINE('',#230,#232);
#234=EDGE_CURVE('',#220,#229,#233,.T.);
#235=ORIENTED_EDGE('',*,*,#234,.T.);
#236=CARTESIAN_POINT('',(-6.7,-3.8,-5.));
#237=VERTEX_POINT('',#236);
#238=CARTESIAN_POINT('',(-5.2,-3.8,-5.));
#239=DIRECTION('',(-0.,-0.,-1.));
#240=DIRECTION('',(1.,0.,-0.));
#241=AXIS2_PLACEMENT_3D('',#238,#239,#240);
#242=CIRCLE('',#241,1.5);
#243=EDGE_CURVE('',#229,#237,#242,.T.);
#244=ORIENTED_EDGE('',*,*,#243,.T.);
#245=CARTESIAN_POINT('',(-6.7,3.8,-5.));
#246=VERTEX_POINT('',#245);
#247=CARTESIAN_POINT('',(-6.7,-3.8,-5.));
#248=DIRECTION('',(0.,1.,0.));
#249=VECTOR('',#248,7.6);
#250=LINE('',#247,#249);
#251=EDGE_CURVE('',#237,#246,#250,.T.);
#252=ORIENTED_EDGE('',*,*,#251,.T.);
#253=CARTESIAN_POINT('',(-5.2,3.8,-5.));
#254=DIRECTION('',(-0.,-0.,-1.));
#255=DIRECTION('',(1.,0.,-0.));
#256=AXIS2_PLACEMENT_3D('',#253,#254,#255);
#257=CIRCLE('',#256,1.5);
#258=EDGE_CURVE('',#246,#193,#257,.T.);
#259=ORIENTED_EDGE('',*,*,#258,.T.);
#260=EDGE_LOOP('',(#201,#210,#218,#227,#235,#244,#252,#259));
#261=FACE_BOUND('',#260,.T.);
#262=ADVANCED_FACE('',(#261),#191,.F.);
#263=CARTESIAN_POINT('',(2.7,-0.,5.));
#264=DIRECTION('',(-1.,-0.,0.));
#265=DIRECTION('',(0.,-1.,0.));
#266=AXIS2_PLACEMENT_3D('',#263,#264,#265);
#267=PLANE('',#266);
#268=CARTESIAN_POINT('',(2.7,-1.3,0.));
#269=VERTEX_POINT('',#268);
#270=CARTESIAN_POINT('',(2.7,1.3,0.));
#271=VERTEX_POINT('',#270);
#272=CARTESIAN_POINT('',(2.7,-1.3,0.));
#273=DIRECTION('',(-0.,1.,0.));
#274=VECTOR('',#273,2.6);
#275=LINE('',#272,#274);
#276=EDGE_CURVE('',#269,#271,#275,.T.);
#277=ORIENTED_EDGE('',*,*,#276,.F.);
#278=CARTESIAN_POINT('',(2.7,-1.3,5.));
#279=VERTEX_POINT('',#278);
#280=CARTESIAN_POINT('',(2.7,-1.3,5.));
#281=DIRECTION('',(0.,0.,-1.));
#282=VECTOR('',#281,5.);
#283=LINE('',#280,#282);
#284=EDGE_CURVE('',#279,#269,#283,.T.);
#285=ORIENTED_EDGE('',*,*,#284,.F.);
#286=CARTESIAN_POINT('',(2.7,1.3,5.));
#287=VERTEX_POINT('',#286);
#288=CARTESIAN_POINT('',(2.7,-1.3,5.));
#289=DIRECTION('',(-0.,1.,0.));
#290=VECTOR('',#289,2.6);
#291=LINE('',#288,#290);
#292=EDGE_CURVE('',#279,#287,#291,.T.);
#293=ORIENTED_EDGE('',*,*,#292,.T.);
#294=CARTESIAN_POINT('',(2.7,1.3,5.));
#295=DIRECTION('',(0.,0.,-1.));
#296=VECTOR('',#295,5.);
#297=LINE('',#294,#296);
#298=EDGE_CURVE('',#287,#271,#297,.T.);
#299=ORIENTED_EDGE('',*,*,#298,.T.);
#300=EDGE_LOOP('',(#277,#285,#293,#299));
#301=FACE_BOUND('',#300,.T.);
#302=ADVANCED_FACE('',(#301),#267,.T.);
#303=CARTESIAN_POINT('',(-0.,-1.3,5.));
#304=DIRECTION('',(-0.,1.,0.));
#305=DIRECTION('',(-1.,-0.,0.));
#306=AXIS2_PLACEMENT_3D('',#303,#304,#305);
#307=PLANE('',#306);
#308=CARTESIAN_POINT('',(-2.7,-1.3,0.));
#309=VERTEX_POINT('',#308);
#310=CARTESIAN_POINT('',(-2.7,-1.3,0.));
#311=DIRECTION('',(1.,0.,0.));
#312=VECTOR('',#311,5.4);
#313=LINE('',#310,#312);
#314=EDGE_CURVE('',#309,#269,#313,.T.);
#315=ORIENTED_EDGE('',*,*,#314,.F.);
#316=CARTESIAN_POINT('',(-2.7,-1.3,5.));
#317=VERTEX_POINT('',#316);
#318=CARTESIAN_POINT('',(-2.7,-1.3,5.));
#319=DIRECTION('',(0.,0.,-1.));
#320=VECTOR('',#319,5.);
#321=LINE('',#318,#320);
#322=EDGE_CURVE('',#317,#309,#321,.T.);
#323=ORIENTED_EDGE('',*,*,#322,.F.);
#324=CARTESIAN_POINT('',(-2.7,-1.3,5.));
#325=DIRECTION('',(1.,0.,0.));
#326=VECTOR('',#325,5.4);
#327=LINE('',#324,#326);
#328=EDGE_CURVE('',#317,#279,#327,.T.);
#329=ORIENTED_EDGE('',*,*,#328,.T.);
#330=ORIENTED_EDGE('',*,*,#284,.T.);
#331=EDGE_LOOP('',(#315,#323,#329,#330));
#332=FACE_BOUND('',#331,.T.);
#333=ADVANCED_FACE('',(#332),#307,.T.);
#334=CARTESIAN_POINT('',(-2.7,-0.,5.));
#335=DIRECTION('',(1.,0.,0.));
#336=DIRECTION('',(-0.,1.,0.));
#337=AXIS2_PLACEMENT_3D('',#334,#335,#336);
#338=PLANE('',#337);
#339=CARTESIAN_POINT('',(-2.7,1.3,0.));
#340=VERTEX_POINT('',#339);
#341=CARTESIAN_POINT('',(-2.7,1.3,0.));
#342=DIRECTION('',(0.,-1.,0.));
#343=VECTOR('',#342,2.6);
#344=LINE('',#341,#343);
#345=EDGE_CURVE('',#340,#309,#344,.T.);
#346=ORIENTED_EDGE('',*,*,#345,.F.);
#347=CARTESIAN_POINT('',(-2.7,1.3,5.));
#348=VERTEX_POINT('',#347);
#349=CARTESIAN_POINT('',(-2.7,1.3,5.));
#350=DIRECTION('',(0.,0.,-1.));
#351=VECTOR('',#350,5.);
#352=LINE('',#349,#351);
#353=EDGE_CURVE('',#348,#340,#352,.T.);
#354=ORIENTED_EDGE('',*,*,#353,.F.);
#355=CARTESIAN_POINT('',(-2.7,1.3,5.));
#356=DIRECTION('',(0.,-1.,0.));
#357=VECTOR('',#356,2.6);
#358=LINE('',#355,#357);
#359=EDGE_CURVE('',#348,#317,#358,.T.);
#360=ORIENTED_EDGE('',*,*,#359,.T.);
#361=ORIENTED_EDGE('',*,*,#322,.T.);
#362=EDGE_LOOP('',(#346,#354,#360,#361));
#363=FACE_BOUND('',#362,.T.);
#364=ADVANCED_FACE('',(#363),#338,.T.);
#365=CARTESIAN_POINT('',(-0.,1.3,5.));
#366=DIRECTION('',(0.,-1.,0.));
#367=DIRECTION('',(1.,0.,0.));
#368=AXIS2_PLACEMENT_3D('',#365,#366,#367);
#369=PLANE('',#368);
#370=CARTESIAN_POINT('',(2.7,1.3,0.));
#371=DIRECTION('',(-1.,-0.,0.));
#372=VECTOR('',#371,5.4);
#373=LINE('',#370,#372);
#374=EDGE_CURVE('',#271,#340,#373,.T.);
#375=ORIENTED_EDGE('',*,*,#374,.F.);
#376=ORIENTED_EDGE('',*,*,#298,.F.);
#377=CARTESIAN_POINT('',(2.7,1.3,5.));
#378=DIRECTION('',(-1.,-0.,0.));
#379=VECTOR('',#378,5.4);
#380=LINE('',#377,#379);
#381=EDGE_CURVE('',#287,#348,#380,.T.);
#382=ORIENTED_EDGE('',*,*,#381,.T.);
#383=ORIENTED_EDGE('',*,*,#353,.T.);
#384=EDGE_LOOP('',(#375,#376,#382,#383));
#385=FACE_BOUND('',#384,.T.);
#386=ADVANCED_FACE('',(#385),#369,.T.);
#387=CARTESIAN_POINT('',(0.,0.,5.));
#388=DIRECTION('',(0.,0.,1.));
#389=DIRECTION('',(1.,0.,0.));
#390=AXIS2_PLACEMENT_3D('',#387,#388,#389);
#391=PLANE('',#390);
#392=ORIENTED_EDGE('',*,*,#292,.F.);
#393=ORIENTED_EDGE('',*,*,#328,.F.);
#394=ORIENTED_EDGE('',*,*,#359,.F.);
#395=ORIENTED_EDGE('',*,*,#381,.F.);
#396=EDGE_LOOP('',(#392,#393,#394,#395));
#397=FACE_BOUND('',#396,.T.);
#398=ORIENTED_EDGE('',*,*,#182,.T.);
#399=CARTESIAN_POINT('',(-5.2,-3.8,5.));
#400=DIRECTION('',(0.,0.,1.));
#401=DIRECTION('',(1.,0.,-0.));
#402=AXIS2_PLACEMENT_3D('',#399,#400,#401);
#403=CIRCLE('',#402,2.5);
#404=EDGE_CURVE('',#171,#33,#403,.T.);
#405=ORIENTED_EDGE('',*,*,#404,.T.);
#406=ORIENTED_EDGE('',*,*,#62,.T.);
#407=CARTESIAN_POINT('',(5.2,-3.8,5.));
#408=DIRECTION('',(0.,0.,1.));
#409=DIRECTION('',(1.,0.,-0.));
#410=AXIS2_PLACEMENT_3D('',#407,#408,#409);
#411=CIRCLE('',#410,2.5);
#412=EDGE_CURVE('',#51,#73,#411,.T.);
#413=ORIENTED_EDGE('',*,*,#412,.T.);
#414=ORIENTED_EDGE('',*,*,#102,.T.);
#415=CARTESIAN_POINT('',(5.2,3.8,5.));
#416=DIRECTION('',(0.,0.,1.));
#417=DIRECTION('',(1.,0.,-0.));
#418=AXIS2_PLACEMENT_3D('',#415,#416,#417);
#419=CIRCLE('',#418,2.5);
#420=EDGE_CURVE('',#91,#113,#419,.T.);
#421=ORIENTED_EDGE('',*,*,#420,.T.);
#422=ORIENTED_EDGE('',*,*,#142,.T.);
#423=CARTESIAN_POINT('',(-5.2,3.8,5.));
#424=DIRECTION('',(0.,0.,1.));
#425=DIRECTION('',(1.,0.,-0.));
#426=AXIS2_PLACEMENT_3D('',#423,#424,#425);
#427=CIRCLE('',#426,2.5);
#428=EDGE_CURVE('',#131,#153,#427,.T.);
#429=ORIENTED_EDGE('',*,*,#428,.T.);
#430=EDGE_LOOP('',(#398,#405,#406,#413,#414,#421,#422,#429));
#431=FACE_BOUND('',#430,.T.);
#432=ADVANCED_FACE('',(#397,#431),#391,.T.);
#433=CARTESIAN_POINT('',(0.,0.,0.));
#434=DIRECTION('',(0.,0.,1.));
#435=DIRECTION('',(1.,0.,0.));
#436=AXIS2_PLACEMENT_3D('',#433,#434,#435);
#437=PLANE('',#436);
#438=ORIENTED_EDGE('',*,*,#314,.T.);
#439=ORIENTED_EDGE('',*,*,#276,.T.);
#440=ORIENTED_EDGE('',*,*,#374,.T.);
#441=ORIENTED_EDGE('',*,*,#345,.T.);
#442=EDGE_LOOP('',(#438,#439,#440,#441));
#443=FACE_BOUND('',#442,.T.);
#444=ADVANCED_FACE('',(#443),#437,.T.);
#445=CARTESIAN_POINT('',(-5.2,-3.8,-5.));
#446=DIRECTION('',(0.,0.,1.));
#447=DIRECTION('',(1.,0.,-0.));
#448=AXIS2_PLACEMENT_3D('',#445,#446,#447);
#449=CYLINDRICAL_SURFACE('',#448,2.5);
#450=ORIENTED_EDGE('',*,*,#176,.F.);
#451=CARTESIAN_POINT('',(-5.2,-3.8,-4.));
#452=DIRECTION('',(0.,0.,1.));
#453=DIRECTION('',(1.,0.,-0.));
#454=AXIS2_PLACEMENT_3D('',#451,#452,#453);
#455=CIRCLE('',#454,2.5);
#456=EDGE_CURVE('',#163,#35,#455,.T.);
#457=ORIENTED_EDGE('',*,*,#456,.T.);
#458=ORIENTED_EDGE('',*,*,#40,.F.);
#459=ORIENTED_EDGE('',*,*,#404,.F.);
#460=EDGE_LOOP('',(#450,#457,#458,#459));
#461=FACE_BOUND('',#460,.T.);
#462=ADVANCED_FACE('',(#461),#449,.T.);
#463=CARTESIAN_POINT('',(-5.2,3.8,-5.));
#464=DIRECTION('',(0.,0.,1.));
#465=DIRECTION('',(1.,0.,-0.));
#466=AXIS2_PLACEMENT_3D('',#463,#464,#465);
#467=CYLINDRICAL_SURFACE('',#466,2.5);
#468=ORIENTED_EDGE('',*,*,#136,.F.);
#469=CARTESIAN_POINT('',(-5.2,3.8,-4.));
#470=DIRECTION('',(0.,0.,1.));
#471=DIRECTION('',(1.,0.,-0.));
#472=AXIS2_PLACEMENT_3D('',#469,#470,#471);
#473=CIRCLE('',#472,2.5);
#474=EDGE_CURVE('',#123,#155,#473,.T.);
#475=ORIENTED_EDGE('',*,*,#474,.T.);
#476=ORIENTED_EDGE('',*,*,#160,.F.);
#477=ORIENTED_EDGE('',*,*,#428,.F.);
#478=EDGE_LOOP('',(#468,#475,#476,#477));
#479=FACE_BOUND('',#478,.T.);
#480=ADVANCED_FACE('',(#479),#467,.T.);
#481=CARTESIAN_POINT('',(5.2,-3.8,-5.));
#482=DIRECTION('',(0.,0.,1.));
#483=DIRECTION('',(1.,0.,-0.));
#484=AXIS2_PLACEMENT_3D('',#481,#482,#483);
#485=CYLINDRICAL_SURFACE('',#484,2.5);
#486=ORIENTED_EDGE('',*,*,#56,.F.);
#487=CARTESIAN_POINT('',(5.2,-3.8,-4.));
#488=DIRECTION('',(0.,0.,1.));
#489=DIRECTION('',(1.,0.,-0.));
#490=AXIS2_PLACEMENT_3D('',#487,#488,#489);
#491=CIRCLE('',#490,2.5);
#492=EDGE_CURVE('',#43,#75,#491,.T.);
#493=ORIENTED_EDGE('',*,*,#492,.T.);
#494=ORIENTED_EDGE('',*,*,#80,.F.);
#495=ORIENTED_EDGE('',*,*,#412,.F.);
#496=EDGE_LOOP('',(#486,#493,#494,#495));
#497=FACE_BOUND('',#496,.T.);
#498=ADVANCED_FACE('',(#497),#485,.T.);
#499=CARTESIAN_POINT('',(5.2,3.8,-5.));
#500=DIRECTION('',(0.,0.,1.));
#501=DIRECTION('',(1.,0.,-0.));
#502=AXIS2_PLACEMENT_3D('',#499,#500,#501);
#503=CYLINDRICAL_SURFACE('',#502,2.5);
#504=ORIENTED_EDGE('',*,*,#96,.F.);
#505=CARTESIAN_POINT('',(5.2,3.8,-4.));
#506=DIRECTION('',(0.,0.,1.));
#507=DIRECTION('',(1.,0.,-0.));
#508=AXIS2_PLACEMENT_3D('',#505,#506,#507);
#509=CIRCLE('',#508,2.5);
#510=EDGE_CURVE('',#83,#115,#509,.T.);
#511=ORIENTED_EDGE('',*,*,#510,.T.);
#512=ORIENTED_EDGE('',*,*,#120,.F.);
#513=ORIENTED_EDGE('',*,*,#420,.F.);
#514=EDGE_LOOP('',(#504,#511,#512,#513));
#515=FACE_BOUND('',#514,.T.);
#516=ADVANCED_FACE('',(#515),#503,.T.);
#517=CARTESIAN_POINT('',(-5.2,-3.8,-5.));
#518=DIRECTION('',(0.,0.,1.));
#519=DIRECTION('',(1.,0.,-0.));
#520=AXIS2_PLACEMENT_3D('',#517,#518,#519);
#521=CONICAL_SURFACE('',#520,1.5,45.);
#522=CARTESIAN_POINT('',(-5.2,-6.3,-4.));
#523=DIRECTION('',(0.,0.707106781,-0.707106781));
#524=VECTOR('',#523,1.414213562);
#525=LINE('',#522,#524);
#526=EDGE_CURVE('',#35,#229,#525,.T.);
#527=ORIENTED_EDGE('',*,*,#526,.F.);
#528=ORIENTED_EDGE('',*,*,#456,.F.);
#529=CARTESIAN_POINT('',(-6.7,-3.8,-5.));
#530=DIRECTION('',(-0.707106781,0.,0.707106781));
#531=VECTOR('',#530,1.414213562);
#532=LINE('',#529,#531);
#533=EDGE_CURVE('',#237,#163,#532,.T.);
#534=ORIENTED_EDGE('',*,*,#533,.F.);
#535=ORIENTED_EDGE('',*,*,#243,.F.);
#536=EDGE_LOOP('',(#527,#528,#534,#535));
#537=FACE_BOUND('',#536,.T.);
#538=ADVANCED_FACE('',(#537),#521,.T.);
#539=CARTESIAN_POINT('',(-7.7,0.,-4.));
#540=DIRECTION('',(-0.707106781,0.,-0.707106781));
#541=DIRECTION('',(0.,1.,0.));
#542=AXIS2_PLACEMENT_3D('',#539,#540,#541);
#543=PLANE('',#542);
#544=ORIENTED_EDGE('',*,*,#533,.T.);
#545=ORIENTED_EDGE('',*,*,#168,.F.);
#546=CARTESIAN_POINT('',(-6.7,3.8,-5.));
#547=DIRECTION('',(-0.707106781,0.,0.707106781));
#548=VECTOR('',#547,1.414213562);
#549=LINE('',#546,#548);
#550=EDGE_CURVE('',#246,#155,#549,.T.);
#551=ORIENTED_EDGE('',*,*,#550,.F.);
#552=ORIENTED_EDGE('',*,*,#251,.F.);
#553=EDGE_LOOP('',(#544,#545,#551,#552));
#554=FACE_BOUND('',#553,.T.);
#555=ADVANCED_FACE('',(#554),#543,.T.);
#556=CARTESIAN_POINT('',(-0.,-6.3,-4.));
#557=DIRECTION('',(0.,-0.707106781,-0.707106781));
#558=DIRECTION('',(-1.,0.,0.));
#559=AXIS2_PLACEMENT_3D('',#556,#557,#558);
#560=PLANE('',#559);
#561=ORIENTED_EDGE('',*,*,#526,.T.);
#562=ORIENTED_EDGE('',*,*,#234,.F.);
#563=CARTESIAN_POINT('',(5.2,-6.3,-4.));
#564=DIRECTION('',(0.,0.707106781,-0.707106781));
#565=VECTOR('',#564,1.414213562);
#566=LINE('',#563,#565);
#567=EDGE_CURVE('',#43,#220,#566,.T.);
#568=ORIENTED_EDGE('',*,*,#567,.F.);
#569=ORIENTED_EDGE('',*,*,#48,.F.);
#570=EDGE_LOOP('',(#561,#562,#568,#569));
#571=FACE_BOUND('',#570,.T.);
#572=ADVANCED_FACE('',(#571),#560,.T.);
#573=CARTESIAN_POINT('',(-5.2,3.8,-5.));
#574=DIRECTION('',(0.,0.,1.));
#575=DIRECTION('',(1.,0.,-0.));
#576=AXIS2_PLACEMENT_3D('',#573,#574,#575);
#577=CONICAL_SURFACE('',#576,1.5,45.);
#578=ORIENTED_EDGE('',*,*,#550,.T.);
#579=ORIENTED_EDGE('',*,*,#474,.F.);
#580=CARTESIAN_POINT('',(-5.2,5.3,-5.));
#581=DIRECTION('',(0.,0.707106781,0.707106781));
#582=VECTOR('',#581,1.414213562);
#583=LINE('',#580,#582);
#584=EDGE_CURVE('',#193,#123,#583,.T.);
#585=ORIENTED_EDGE('',*,*,#584,.F.);
#586=ORIENTED_EDGE('',*,*,#258,.F.);
#587=EDGE_LOOP('',(#578,#579,#585,#586));
#588=FACE_BOUND('',#587,.T.);
#589=ADVANCED_FACE('',(#588),#577,.T.);
#590=CARTESIAN_POINT('',(5.2,-3.8,-5.));
#591=DIRECTION('',(0.,0.,1.));
#592=DIRECTION('',(1.,0.,-0.));
#593=AXIS2_PLACEMENT_3D('',#590,#591,#592);
#594=CONICAL_SURFACE('',#593,1.5,45.);
#595=ORIENTED_EDGE('',*,*,#567,.T.);
#596=ORIENTED_EDGE('',*,*,#226,.F.);
#597=CARTESIAN_POINT('',(7.7,-3.8,-4.));
#598=DIRECTION('',(-0.707106781,0.,-0.707106781));
#599=VECTOR('',#598,1.414213562);
#600=LINE('',#597,#599);
#601=EDGE_CURVE('',#75,#212,#600,.T.);
#602=ORIENTED_EDGE('',*,*,#601,.F.);
#603=ORIENTED_EDGE('',*,*,#492,.F.);
#604=EDGE_LOOP('',(#595,#596,#602,#603));
#605=FACE_BOUND('',#604,.T.);
#606=ADVANCED_FACE('',(#605),#594,.T.);
#607=CARTESIAN_POINT('',(0.,6.3,-4.));
#608=DIRECTION('',(0.,0.707106781,-0.707106781));
#609=DIRECTION('',(1.,0.,0.));
#610=AXIS2_PLACEMENT_3D('',#607,#608,#609);
#611=PLANE('',#610);
#612=ORIENTED_EDGE('',*,*,#584,.T.);
#613=ORIENTED_EDGE('',*,*,#128,.F.);
#614=CARTESIAN_POINT('',(5.2,5.3,-5.));
#615=DIRECTION('',(0.,0.707106781,0.707106781));
#616=VECTOR('',#615,1.414213562);
#617=LINE('',#614,#616);
#618=EDGE_CURVE('',#195,#115,#617,.T.);
#619=ORIENTED_EDGE('',*,*,#618,.F.);
#620=ORIENTED_EDGE('',*,*,#200,.F.);
#621=EDGE_LOOP('',(#612,#613,#619,#620));
#622=FACE_BOUND('',#621,.T.);
#623=ADVANCED_FACE('',(#622),#611,.T.);
#624=CARTESIAN_POINT('',(7.7,0.,-4.));
#625=DIRECTION('',(0.707106781,0.,-0.707106781));
#626=DIRECTION('',(0.,-1.,0.));
#627=AXIS2_PLACEMENT_3D('',#624,#625,#626);
#628=PLANE('',#627);
#629=ORIENTED_EDGE('',*,*,#601,.T.);
#630=ORIENTED_EDGE('',*,*,#217,.F.);
#631=CARTESIAN_POINT('',(7.7,3.8,-4.));
#632=DIRECTION('',(-0.707106781,0.,-0.707106781));
#633=VECTOR('',#632,1.414213562);
#634=LINE('',#631,#633);
#635=EDGE_CURVE('',#83,#203,#634,.T.);
#636=ORIENTED_EDGE('',*,*,#635,.F.);
#637=ORIENTED_EDGE('',*,*,#88,.F.);
#638=EDGE_LOOP('',(#629,#630,#636,#637));
#639=FACE_BOUND('',#638,.T.);
#640=ADVANCED_FACE('',(#639),#628,.T.);
#641=CARTESIAN_POINT('',(5.2,3.8,-5.));
#642=DIRECTION('',(0.,0.,1.));
#643=DIRECTION('',(1.,0.,-0.));
#644=AXIS2_PLACEMENT_3D('',#641,#642,#643);
#645=CONICAL_SURFACE('',#644,1.5,45.);
#646=ORIENTED_EDGE('',*,*,#618,.T.);
#647=ORIENTED_EDGE('',*,*,#510,.F.);
#648=ORIENTED_EDGE('',*,*,#635,.T.);
#649=ORIENTED_EDGE('',*,*,#209,.F.);
#650=EDGE_LOOP('',(#646,#647,#648,#649));
#651=FACE_BOUND('',#650,.T.);
#652=ADVANCED_FACE('',(#651),#645,.T.);
#653=CLOSED_SHELL('',(#66,#106,#146,#186,#262,#302,#333,#364,#386,#432,#444,#462,#480,#498,#516,#538,#555,#572,#589,#606,#623,#640,#652));
#654=MANIFOLD_SOLID_BREP('Connector Insert Tool',#653);
#655=COLOUR_RGB('',0.627451003,0.627451003,0.643137276);
#656=FILL_AREA_STYLE_COLOUR('',#655);
#657=FILL_AREA_STYLE('',(#656));
#658=SURFACE_STYLE_FILL_AREA(#657);
#659=SURFACE_SIDE_STYLE('',(#658));
#660=SURFACE_STYLE_USAGE(.BOTH.,#659);
#661=PRESENTATION_STYLE_ASSIGNMENT((#660));
#26=STYLED_ITEM('',(#661),#654);
#16=SHAPE_REPRESENTATION('Connector Insert Tool',(#15),#10);
#17=ADVANCED_BREP_SHAPE_REPRESENTATION('Connector Insert Tool',(#654),#10);
#669=SHAPE_REPRESENTATION_RELATIONSHIP('','',#16,#17);
#670=CARTESIAN_POINT('',(0.,0.,0.));
#671=DIRECTION('',(0.,0.,1.));
#672=DIRECTION('',(1.,0.,0.));
#673=AXIS2_PLACEMENT_3D('',#670,#671,#672);
#675=MAPPED_ITEM('',#674,#673);
#674=REPRESENTATION_MAP(#673,#16);
#676=APPLICATION_CONTEXT('Managed model based 3d engineering');
#677=APPLICATION_PROTOCOL_DEFINITION('international standard','ap242_managed_model_based_3d_engineering',2014,#676);
#678=PRODUCT_CONTEXT('',#676,'mechanical');
#679=PRODUCT_DEFINITION_CONTEXT('part definition',#676,'design');
#24=PRODUCT('Connector Insert Tool','Connector Insert Tool','',(#678));
#680=PRODUCT_RELATED_PRODUCT_CATEGORY('part','',(#24));
#681=PRODUCT_DEFINITION_FORMATION_WITH_SPECIFIED_SOURCE('','',#24,.NOT_KNOWN.);
#25=PRODUCT_DEFINITION('design','',#681,#679);
#23=PRODUCT_DEFINITION_SHAPE('','',#25);
#682=SHAPE_DEFINITION_REPRESENTATION(#23,#16);
#11=DRAUGHTING_MODEL('',(#675),#10);
#683=DESCRIPTIVE_REPRESENTATION_ITEM('KEY','/Users/ddanier/Library/Containers/com.shapr3d.shapr/Data/tmp/FEEB4301-6E45-4ACF-A416-36C40FF47C37.tmp');
#684=PROPERTY_DEFINITION('KEY','',#25);
#685=REPRESENTATION('',(#683),#10);
#686=PROPERTY_DEFINITION_REPRESENTATION(#684,#685);
#687=GENERAL_PROPERTY('','KEY','');
#688=GENERAL_PROPERTY_ASSOCIATION('','',#687,#684);
#1=MECHANICAL_DESIGN_GEOMETRIC_PRESENTATION_REPRESENTATION('',(#26),#10);
ENDSEC;
END-ISO-10303-21;
