solid OpenSCAD_Model
  facet normal 0.161124 0.810023 -0.563827
    outer loop
      vertex -33.3342 49.8882 45
      vertex 49.8882 33.3342 45
      vertex 60 0 0
    endloop
  endfacet
  facet normal -0.92136 0.18327 0.342795
    outer loop
      vertex -60 0 0
      vertex -49.8882 -33.3342 45
      vertex -33.3342 49.8882 45
    endloop
  endfacet
  facet normal -0.161124 -0.810023 -0.563827
    outer loop
      vertex 33.3342 -49.8882 45
      vertex -49.8882 -33.3342 45
      vertex -60 0 0
    endloop
  endfacet
  facet normal 0.92136 -0.18327 0.342795
    outer loop
      vertex 60 0 0
      vertex 49.8882 33.3342 45
      vertex 33.3342 -49.8882 45
    endloop
  endfacet
  facet normal -0.359497 0.867902 0.342795
    outer loop
      vertex -33.3342 49.8882 45
      vertex -55.4328 22.961 90
      vertex 22.961 55.4328 90
    endloop
  endfacet
  facet normal -0.763025 -0.316055 -0.563827
    outer loop
      vertex -22.961 -55.4328 90
      vertex -55.4328 22.961 90
      vertex -33.3342 49.8882 45
    endloop
  endfacet
  facet normal 0.359497 -0.867902 0.342795
    outer loop
      vertex 33.3342 -49.8882 45
      vertex 55.4328 -22.961 90
      vertex -22.961 -55.4328 90
    endloop
  endfacet
  facet normal 0.763025 0.316055 -0.563827
    outer loop
      vertex 22.961 55.4328 90
      vertex 55.4328 -22.961 90
      vertex 33.3342 -49.8882 45
    endloop
  endfacet
  facet normal -0.686705 0.458841 -0.563827
    outer loop
      vertex -58.8471 -11.7054 135
      vertex -11.7054 58.8471 135
      vertex 22.961 55.4328 90
    endloop
  endfacet
  facet normal -0.521908 -0.781091 0.342795
    outer loop
      vertex -22.961 -55.4328 90
      vertex 11.7054 -58.8471 135
      vertex -58.8471 -11.7054 135
    endloop
  endfacet
  facet normal 0.686705 -0.458841 -0.563827
    outer loop
      vertex 58.8471 11.7054 135
      vertex 11.7054 -58.8471 135
      vertex -22.961 -55.4328 90
    endloop
  endfacet
  facet normal 0.521908 0.781091 0.342795
    outer loop
      vertex 22.961 55.4328 90
      vertex -11.7054 58.8471 135
      vertex 58.8471 11.7054 135
    endloop
  endfacet
  facet normal -0.93941 0 0.342795
    outer loop
      vertex -58.8471 -11.7054 135
      vertex -42.4264 -42.4264 180
      vertex -42.4264 42.4264 180
    endloop
  endfacet
  facet normal -0 -0.825893 -0.563827
    outer loop
      vertex 42.4264 -42.4264 180
      vertex -42.4264 -42.4264 180
      vertex -58.8471 -11.7054 135
    endloop
  endfacet
  facet normal 0.93941 0 0.342795
    outer loop
      vertex 58.8471 11.7054 135
      vertex 42.4264 42.4264 180
      vertex 42.4264 -42.4264 180
    endloop
  endfacet
  facet normal 0 0.825893 -0.563827
    outer loop
      vertex -42.4264 42.4264 180
      vertex 42.4264 42.4264 180
      vertex 58.8471 11.7054 135
    endloop
  endfacet
  facet normal 0.583994 0.583994 0.563827
    outer loop
      vertex 60 0 0
      vertex 0 60 0
      vertex -33.3342 49.8882 45
    endloop
  endfacet
  facet normal -0.664263 0.664263 -0.342795
    outer loop
      vertex -33.3342 49.8882 45
      vertex 0 60 0
      vertex -60 0 0
    endloop
  endfacet
  facet normal -0.583994 -0.583994 0.563827
    outer loop
      vertex -60 0 0
      vertex 0 -60 0
      vertex 33.3342 -49.8882 45
    endloop
  endfacet
  facet normal 0.664263 -0.664263 -0.342795
    outer loop
      vertex 33.3342 -49.8882 45
      vertex 0 -60 0
      vertex 60 0 0
    endloop
  endfacet
  facet normal 0.18327 0.92136 -0.342795
    outer loop
      vertex 22.961 55.4328 90
      vertex 49.8882 33.3342 45
      vertex -33.3342 49.8882 45
    endloop
  endfacet
  facet normal -0.810023 0.161124 0.563827
    outer loop
      vertex -33.3342 49.8882 45
      vertex -49.8882 -33.3342 45
      vertex -22.961 -55.4328 90
    endloop
  endfacet
  facet normal -0.18327 -0.92136 -0.342795
    outer loop
      vertex -22.961 -55.4328 90
      vertex -49.8882 -33.3342 45
      vertex 33.3342 -49.8882 45
    endloop
  endfacet
  facet normal 0.810023 -0.161124 0.563827
    outer loop
      vertex 33.3342 -49.8882 45
      vertex 49.8882 33.3342 45
      vertex 22.961 55.4328 90
    endloop
  endfacet
  facet normal -0.316055 0.763025 0.563827
    outer loop
      vertex 22.961 55.4328 90
      vertex -55.4328 22.961 90
      vertex -58.8471 -11.7054 135
    endloop
  endfacet
  facet normal -0.867902 -0.359497 -0.342795
    outer loop
      vertex -58.8471 -11.7054 135
      vertex -55.4328 22.961 90
      vertex -22.961 -55.4328 90
    endloop
  endfacet
  facet normal 0.316055 -0.763025 0.563827
    outer loop
      vertex -22.961 -55.4328 90
      vertex 55.4328 -22.961 90
      vertex 58.8471 11.7054 135
    endloop
  endfacet
  facet normal 0.867902 0.359497 -0.342795
    outer loop
      vertex 58.8471 11.7054 135
      vertex 55.4328 -22.961 90
      vertex 22.961 55.4328 90
    endloop
  endfacet
  facet normal -0.781091 0.521908 -0.342795
    outer loop
      vertex -42.4264 42.4264 180
      vertex -11.7054 58.8471 135
      vertex -58.8471 -11.7054 135
    endloop
  endfacet
  facet normal -0.458841 -0.686705 0.563827
    outer loop
      vertex -58.8471 -11.7054 135
      vertex 11.7054 -58.8471 135
      vertex 42.4264 -42.4264 180
    endloop
  endfacet
  facet normal 0.781091 -0.521908 -0.342795
    outer loop
      vertex 42.4264 -42.4264 180
      vertex 11.7054 -58.8471 135
      vertex 58.8471 11.7054 135
    endloop
  endfacet
  facet normal 0.458841 0.686705 0.563827
    outer loop
      vertex 58.8471 11.7054 135
      vertex -11.7054 58.8471 135
      vertex -42.4264 42.4264 180
    endloop
  endfacet
  facet normal -0 0 1
    outer loop
      vertex -42.4264 42.4264 180
      vertex 42.4264 -42.4264 180
      vertex 42.4264 42.4264 180
    endloop
  endfacet
  facet normal 0 0 1
    outer loop
      vertex 42.4264 -42.4264 180
      vertex -42.4264 42.4264 180
      vertex -42.4264 -42.4264 180
    endloop
  endfacet
  facet normal 0 0 -1
    outer loop
      vertex 0 -60 0
      vertex 0 60 0
      vertex 60 0 0
    endloop
  endfacet
  facet normal 0 -0 -1
    outer loop
      vertex 0 60 0
      vertex 0 -60 0
      vertex -60 0 0
    endloop
  endfacet
endsolid OpenSCAD_Model
