ISO-10303-21;
HEADER;

/* File generated by Shapr3D Version 5.911.0.9224 */

FILE_DESCRIPTION(('HOOPS Exchange Step'),'2;1');

FILE_NAME('/Users/ddanier/Library/Containers/com.shapr3d.shapr/Data/tmp/export/temp_export',
'2025-08-07T20:11:00+02:00',
('ddanier'),
('Shapr3D Limited'),
'HOOPS Exchange 2024.8',
'Shapr3D',
'Authorized');

FILE_SCHEMA( ('AP242_MANAGED_MODEL_BASED_3D_ENGINEERING_MIM_LF {1 0 10303 442 1 1 4}') );

ENDSEC;

DATA;
#3=(NAMED_UNIT(*)PLANE_ANGLE_UNIT()SI_UNIT($,.RADIAN.));
#4=PLANE_ANGLE_MEASURE_WITH_UNIT(PLANE_ANGLE_MEASURE(0.0174532925),#3);
#5=(CONVERSION_BASED_UNIT('DEGREE',#4)NAMED_UNIT(#6)PLANE_ANGLE_UNIT());
#6=DIMENSIONAL_EXPONENTS(0.,0.,0.,0.,0.,0.,0.);
#7=(NAMED_UNIT(*)SI_UNIT($,.STERADIAN.)SOLID_ANGLE_UNIT());
#8=(LENGTH_UNIT()NAMED_UNIT(*)SI_UNIT(.MILLI.,.METRE.));
#9=UNCERTAINTY_MEASURE_WITH_UNIT(LENGTH_MEASURE(1.000000E-05),#8,'DISTANCE_ACCURACY_VALUE','Maximum Tolerance applied to model');
#10=(GEOMETRIC_REPRESENTATION_CONTEXT(3)GLOBAL_UNCERTAINTY_ASSIGNED_CONTEXT((#9))GLOBAL_UNIT_ASSIGNED_CONTEXT((#8,#5,#7))REPRESENTATION_CONTEXT('','openGrid Lite Multiconnect'));
#12=CARTESIAN_POINT('',(0.,0.,0.));
#13=DIRECTION('',(0.,0.,1.));
#14=DIRECTION('',(1.,0.,0.));
#15=AXIS2_PLACEMENT_3D('TS3D_PRODUCT_CSYS',#12,#13,#14);
#27=CARTESIAN_POINT('',(3.75,0.,4.));
#28=DIRECTION('',(0.,0.,-1.));
#29=DIRECTION('',(-1.,0.,0.));
#30=AXIS2_PLACEMENT_3D('',#27,#28,#29);
#31=PLANE('',#30);
#32=CARTESIAN_POINT('',(-3.500871988,-6.061674301,4.));
#33=VERTEX_POINT('',#32);
#34=CARTESIAN_POINT('',(3.750933679,-6.494651379,4.));
#35=VERTEX_POINT('',#34);
#36=CARTESIAN_POINT('',(-3.500871988,-6.061674301,4.));
#37=CARTESIAN_POINT('',(-2.969701595,-6.418864056,4.));
#38=CARTESIAN_POINT('',(-2.402399332,-6.695851386,4.));
#39=CARTESIAN_POINT('',(-1.800866942,-6.896857615,4.));
#40=CARTESIAN_POINT('',(-1.500100747,-6.99736073,4.));
#41=CARTESIAN_POINT('',(-1.18877312,-7.078486838,4.));
#42=CARTESIAN_POINT('',(-0.877236692,-7.137855959,4.));
#43=CARTESIAN_POINT('',(-0.565700263,-7.197225081,4.));
#44=CARTESIAN_POINT('',(-0.25226321,-7.235817505,4.));
#45=CARTESIAN_POINT('',(0.063050967,-7.253890122,4.));
#46=CARTESIAN_POINT('',(0.693679321,-7.290035357,4.));
#47=CARTESIAN_POINT('',(1.338411682,-7.241598517,4.));
#48=CARTESIAN_POINT('',(1.956911756,-7.113896035,4.));
#49=CARTESIAN_POINT('',(2.266161793,-7.050044794,4.));
#50=CARTESIAN_POINT('',(2.57065085,-6.966542402,4.));
#51=CARTESIAN_POINT('',(2.870323854,-6.863161547,4.));
#52=CARTESIAN_POINT('',(3.169996858,-6.759780692,4.));
#53=CARTESIAN_POINT('',(3.46656829,-6.635547664,4.));
#54=CARTESIAN_POINT('',(3.750933679,-6.494651379,4.));
#55=B_SPLINE_CURVE_WITH_KNOTS('',3,(#36,#37,#38,#39,#40,#41,#42,#43,#44,#45,#46,#47,#48,#49,#50,#51,#52,#53,#54),.UNSPECIFIED.,.F.,.F.,(4,3,3,3,3,3,4),(0.,0.001893028,0.002839542,0.003786056,0.005679083,0.006625597,0.007572111),.UNSPECIFIED.);
#56=EDGE_CURVE('',#33,#35,#55,.T.);
#57=ORIENTED_EDGE('',*,*,#56,.F.);
#58=CARTESIAN_POINT('',(-7.,-0.,4.));
#59=VERTEX_POINT('',#58);
#60=CARTESIAN_POINT('',(0.,-0.,4.));
#61=DIRECTION('',(0.,0.,-1.));
#62=DIRECTION('',(-1.,0.,-0.));
#63=AXIS2_PLACEMENT_3D('',#60,#61,#62);
#64=CIRCLE('',#63,7.);
#65=EDGE_CURVE('',#33,#59,#64,.T.);
#66=ORIENTED_EDGE('',*,*,#65,.T.);
#67=CARTESIAN_POINT('',(-3.750933764,6.49465133,4.));
#68=VERTEX_POINT('',#67);
#69=CARTESIAN_POINT('',(-7.,0.000000184,4.));
#70=CARTESIAN_POINT('',(-7.043246709,0.638375154,4.));
#71=CARTESIAN_POINT('',(-7.00019882,1.268007692,4.));
#72=CARTESIAN_POINT('',(-6.87322466,1.88913773,4.));
#73=CARTESIAN_POINT('',(-6.80973758,2.199702749,4.));
#74=CARTESIAN_POINT('',(-6.724369345,2.509798573,4.));
#75=CARTESIAN_POINT('',(-6.62017663,2.809268715,4.));
#76=CARTESIAN_POINT('',(-6.515983915,3.108738857,4.));
#77=CARTESIAN_POINT('',(-6.392745622,3.399385667,4.));
#78=CARTESIAN_POINT('',(-6.250713133,3.681325604,4.));
#79=CARTESIAN_POINT('',(-5.966648154,4.245205479,4.));
#80=CARTESIAN_POINT('',(-5.60281911,4.779421541,4.));
#81=CARTESIAN_POINT('',(-5.183143924,5.250976076,4.));
#82=CARTESIAN_POINT('',(-4.973306331,5.486753343,4.));
#83=CARTESIAN_POINT('',(-4.748714708,5.708410818,4.));
#84=CARTESIAN_POINT('',(-4.509613508,5.916182449,4.));
#85=CARTESIAN_POINT('',(-4.270512309,6.123954079,4.));
#86=CARTESIAN_POINT('',(-4.015011488,6.318805248,4.));
#87=CARTESIAN_POINT('',(-3.750933764,6.49465133,4.));
#88=B_SPLINE_CURVE_WITH_KNOTS('',3,(#69,#70,#71,#72,#73,#74,#75,#76,#77,#78,#79,#80,#81,#82,#83,#84,#85,#86,#87),.UNSPECIFIED.,.F.,.F.,(4,3,3,3,3,3,4),(0.,0.001892295,0.002838443,0.00378459,0.005676885,0.006623033,0.00756918),.UNSPECIFIED.);
#89=EDGE_CURVE('',#59,#68,#88,.T.);
#90=ORIENTED_EDGE('',*,*,#89,.T.);
#91=CARTESIAN_POINT('',(0.,0.,4.));
#92=DIRECTION('',(0.,0.,1.));
#93=DIRECTION('',(1.,0.,-0.));
#94=AXIS2_PLACEMENT_3D('',#91,#92,#93);
#95=CIRCLE('',#94,7.5);
#96=EDGE_CURVE('',#68,#35,#95,.T.);
#97=ORIENTED_EDGE('',*,*,#96,.T.);
#98=EDGE_LOOP('',(#57,#66,#90,#97));
#99=FACE_BOUND('',#98,.T.);
#100=ADVANCED_FACE('',(#99),#31,.F.);
#101=CARTESIAN_POINT('',(5.,0.,0.));
#102=DIRECTION('',(0.,0.,1.));
#103=DIRECTION('',(1.,0.,0.));
#104=AXIS2_PLACEMENT_3D('',#101,#102,#103);
#105=PLANE('',#104);
#106=CARTESIAN_POINT('',(-7.,-1.2,0.));
#107=VERTEX_POINT('',#106);
#108=CARTESIAN_POINT('',(-7.,1.2,0.));
#109=VERTEX_POINT('',#108);
#110=CARTESIAN_POINT('',(-7.,-1.2,0.));
#111=DIRECTION('',(0.,1.,0.));
#112=VECTOR('',#111,2.4);
#113=LINE('',#110,#112);
#114=EDGE_CURVE('',#107,#109,#113,.T.);
#115=ORIENTED_EDGE('',*,*,#114,.F.);
#116=CARTESIAN_POINT('',(7.,-1.2,0.));
#117=VERTEX_POINT('',#116);
#118=CARTESIAN_POINT('',(7.,-1.2,0.));
#119=DIRECTION('',(-1.,0.,0.));
#120=VECTOR('',#119,14.);
#121=LINE('',#118,#120);
#122=EDGE_CURVE('',#117,#107,#121,.T.);
#123=ORIENTED_EDGE('',*,*,#122,.F.);
#124=CARTESIAN_POINT('',(7.,1.2,0.));
#125=VERTEX_POINT('',#124);
#126=CARTESIAN_POINT('',(7.,1.2,0.));
#127=DIRECTION('',(-0.,-1.,-0.));
#128=VECTOR('',#127,2.4);
#129=LINE('',#126,#128);
#130=EDGE_CURVE('',#125,#117,#129,.T.);
#131=ORIENTED_EDGE('',*,*,#130,.F.);
#132=CARTESIAN_POINT('',(-7.,1.2,0.));
#133=DIRECTION('',(1.,-0.,0.));
#134=VECTOR('',#133,14.);
#135=LINE('',#132,#134);
#136=EDGE_CURVE('',#109,#125,#135,.T.);
#137=ORIENTED_EDGE('',*,*,#136,.F.);
#138=EDGE_LOOP('',(#115,#123,#131,#137));
#139=FACE_BOUND('',#138,.T.);
#140=CARTESIAN_POINT('',(10.,-0.,0.));
#141=VERTEX_POINT('',#140);
#142=CARTESIAN_POINT('',(0.,0.,0.));
#143=DIRECTION('',(0.,0.,1.));
#144=DIRECTION('',(1.,0.,0.));
#145=AXIS2_PLACEMENT_3D('',#142,#143,#144);
#146=CIRCLE('',#145,10.);
#147=EDGE_CURVE('',#141,#141,#146,.T.);
#148=ORIENTED_EDGE('',*,*,#147,.F.);
#149=EDGE_LOOP('',(#148));
#150=FACE_BOUND('',#149,.T.);
#151=ADVANCED_FACE('',(#139,#150),#105,.F.);
#152=CARTESIAN_POINT('',(0.,0.,0.));
#153=DIRECTION('',(0.,0.,1.));
#154=DIRECTION('',(1.,0.,0.));
#155=AXIS2_PLACEMENT_3D('',#152,#153,#154);
#156=CYLINDRICAL_SURFACE('',#155,10.);
#157=CARTESIAN_POINT('',(10.,0.,1.));
#158=VERTEX_POINT('',#157);
#159=CARTESIAN_POINT('',(10.,0.,1.));
#160=DIRECTION('',(-0.,-0.,-1.));
#161=VECTOR('',#160,1.);
#162=LINE('',#159,#161);
#163=EDGE_CURVE('',#158,#141,#162,.T.);
#164=ORIENTED_EDGE('',*,*,#163,.T.);
#165=ORIENTED_EDGE('',*,*,#147,.T.);
#166=ORIENTED_EDGE('',*,*,#163,.F.);
#167=CARTESIAN_POINT('',(-10.,-0.,1.));
#168=VERTEX_POINT('',#167);
#169=CARTESIAN_POINT('',(0.,0.,1.));
#170=DIRECTION('',(-0.,-0.,1.));
#171=DIRECTION('',(-1.,0.,0.));
#172=AXIS2_PLACEMENT_3D('',#169,#170,#171);
#173=CIRCLE('',#172,10.);
#174=EDGE_CURVE('',#168,#158,#173,.T.);
#175=ORIENTED_EDGE('',*,*,#174,.F.);
#176=CARTESIAN_POINT('',(0.,0.,1.));
#177=DIRECTION('',(-0.,-0.,1.));
#178=DIRECTION('',(-1.,0.,0.));
#179=AXIS2_PLACEMENT_3D('',#176,#177,#178);
#180=CIRCLE('',#179,10.);
#181=EDGE_CURVE('',#158,#168,#180,.T.);
#182=ORIENTED_EDGE('',*,*,#181,.F.);
#183=EDGE_LOOP('',(#164,#165,#166,#175,#182));
#184=FACE_BOUND('',#183,.T.);
#185=ADVANCED_FACE('',(#184),#156,.T.);
#186=CARTESIAN_POINT('',(0.,0.,1.));
#187=DIRECTION('',(0.,0.,-1.));
#188=DIRECTION('',(-1.,0.,0.));
#189=AXIS2_PLACEMENT_3D('',#186,#187,#188);
#190=CONICAL_SURFACE('',#189,10.,44.999999949);
#191=CARTESIAN_POINT('',(-7.5,0.,3.5));
#192=VERTEX_POINT('',#191);
#193=CARTESIAN_POINT('',(-10.,0.,1.));
#194=DIRECTION('',(0.707106781,-0.,0.707106782));
#195=VECTOR('',#194,3.535533906);
#196=LINE('',#193,#195);
#197=EDGE_CURVE('',#168,#192,#196,.T.);
#198=ORIENTED_EDGE('',*,*,#197,.T.);
#199=CARTESIAN_POINT('',(7.5,-0.,3.5));
#200=VERTEX_POINT('',#199);
#201=CARTESIAN_POINT('',(0.,0.,3.5));
#202=DIRECTION('',(0.,0.,1.));
#203=DIRECTION('',(1.,0.,-0.));
#204=AXIS2_PLACEMENT_3D('',#201,#202,#203);
#205=CIRCLE('',#204,7.5);
#206=EDGE_CURVE('',#200,#192,#205,.T.);
#207=ORIENTED_EDGE('',*,*,#206,.F.);
#208=CARTESIAN_POINT('',(0.,0.,3.5));
#209=DIRECTION('',(0.,0.,1.));
#210=DIRECTION('',(1.,0.,-0.));
#211=AXIS2_PLACEMENT_3D('',#208,#209,#210);
#212=CIRCLE('',#211,7.5);
#213=EDGE_CURVE('',#192,#200,#212,.T.);
#214=ORIENTED_EDGE('',*,*,#213,.F.);
#215=ORIENTED_EDGE('',*,*,#197,.F.);
#216=ORIENTED_EDGE('',*,*,#174,.T.);
#217=ORIENTED_EDGE('',*,*,#181,.T.);
#218=EDGE_LOOP('',(#198,#207,#214,#215,#216,#217));
#219=FACE_BOUND('',#218,.T.);
#220=ADVANCED_FACE('',(#219),#190,.T.);
#221=CARTESIAN_POINT('',(0.,0.,0.));
#222=DIRECTION('',(0.,0.,1.));
#223=DIRECTION('',(1.,0.,0.));
#224=AXIS2_PLACEMENT_3D('',#221,#222,#223);
#225=CYLINDRICAL_SURFACE('',#224,7.5);
#226=CARTESIAN_POINT('',(7.5,-0.,4.));
#227=VERTEX_POINT('',#226);
#228=CARTESIAN_POINT('',(7.5,0.,4.));
#229=DIRECTION('',(-0.,-0.,-1.));
#230=VECTOR('',#229,0.5);
#231=LINE('',#228,#230);
#232=EDGE_CURVE('',#227,#200,#231,.T.);
#233=ORIENTED_EDGE('',*,*,#232,.T.);
#234=ORIENTED_EDGE('',*,*,#206,.T.);
#235=ORIENTED_EDGE('',*,*,#213,.T.);
#236=ORIENTED_EDGE('',*,*,#232,.F.);
#237=CARTESIAN_POINT('',(0.,0.,4.));
#238=DIRECTION('',(0.,0.,1.));
#239=DIRECTION('',(1.,0.,-0.));
#240=AXIS2_PLACEMENT_3D('',#237,#238,#239);
#241=CIRCLE('',#240,7.5);
#242=EDGE_CURVE('',#35,#227,#241,.T.);
#243=ORIENTED_EDGE('',*,*,#242,.F.);
#244=ORIENTED_EDGE('',*,*,#96,.F.);
#245=CARTESIAN_POINT('',(0.,0.,4.));
#246=DIRECTION('',(0.,0.,1.));
#247=DIRECTION('',(1.,0.,-0.));
#248=AXIS2_PLACEMENT_3D('',#245,#246,#247);
#249=CIRCLE('',#248,7.5);
#250=EDGE_CURVE('',#227,#68,#249,.T.);
#251=ORIENTED_EDGE('',*,*,#250,.F.);
#252=EDGE_LOOP('',(#233,#234,#235,#236,#243,#244,#251));
#253=FACE_BOUND('',#252,.T.);
#254=ADVANCED_FACE('',(#253),#225,.T.);
#255=CARTESIAN_POINT('',(0.,-1.2,3.));
#256=DIRECTION('',(-0.,-1.,0.));
#257=DIRECTION('',(1.,-0.,0.));
#258=AXIS2_PLACEMENT_3D('',#255,#256,#257);
#259=PLANE('',#258);
#260=CARTESIAN_POINT('',(0.000000047,-1.2,2.989933632));
#261=VERTEX_POINT('',#260);
#262=CARTESIAN_POINT('',(-7.,-1.2,0.));
#263=CARTESIAN_POINT('',(-6.546057127,-1.2,0.400339984));
#264=CARTESIAN_POINT('',(-6.164503692,-1.2,0.717696493));
#265=CARTESIAN_POINT('',(-5.694793208,-1.2,1.108377499));
#266=CARTESIAN_POINT('',(-5.301171931,-1.2,1.400855418));
#267=CARTESIAN_POINT('',(-4.98501991,-1.2,1.635770272));
#268=CARTESIAN_POINT('',(-4.698916883,-1.2,1.821481579));
#269=CARTESIAN_POINT('',(-4.541310076,-1.2,1.923785167));
#270=CARTESIAN_POINT('',(-4.388633117,-1.2,2.0138368));
#271=CARTESIAN_POINT('',(-4.146162761,-1.2,2.156850203));
#272=CARTESIAN_POINT('',(-3.909720441,-1.2,2.272236139));
#273=CARTESIAN_POINT('',(-3.662783037,-1.2,2.392743769));
#274=CARTESIAN_POINT('',(-3.411718803,-1.2,2.487985826));
#275=CARTESIAN_POINT('',(-3.160165991,-1.2,2.583413227));
#276=CARTESIAN_POINT('',(-2.893019143,-1.2,2.657490806));
#277=CARTESIAN_POINT('',(-2.636775751,-1.2,2.728544949));
#278=CARTESIAN_POINT('',(-2.355028728,-1.2,2.782788079));
#279=CARTESIAN_POINT('',(-1.870890444,-1.2,2.875996433));
#280=CARTESIAN_POINT('',(-1.262730303,-1.2,2.927032457));
#281=CARTESIAN_POINT('',(-0.775480651,-1.2,2.967921826));
#282=CARTESIAN_POINT('',(-0.164317496,-1.2,2.985636626));
#283=CARTESIAN_POINT('',(-0.083623718,-1.2,2.987975566));
#284=CARTESIAN_POINT('',(0.000000047,-1.2,2.989933632));
#285=B_SPLINE_CURVE_WITH_KNOTS('',2,(#262,#263,#264,#265,#266,#267,#268,#269,#270,#271,#272,#273,#274,#275,#276,#277,#278,#279,#280,#281,#282,#283,#284),.UNSPECIFIED.,.F.,.F.,(3,2,2,2,2,2,2,2,2,2,2,3),(0.,0.125,0.25,0.333333333,0.375,0.4375,0.5,0.5625,0.625,0.75,0.875,0.895355073),.UNSPECIFIED.);
#286=EDGE_CURVE('',#107,#261,#285,.T.);
#287=ORIENTED_EDGE('',*,*,#286,.T.);
#288=CARTESIAN_POINT('',(-0.000000141,-1.2,2.989929613));
#289=CARTESIAN_POINT('',(0.083480925,-1.2,2.987976047));
#290=CARTESIAN_POINT('',(0.164079907,-1.2,2.985643507));
#291=CARTESIAN_POINT('',(0.774773966,-1.2,2.967969979));
#292=CARTESIAN_POINT('',(1.263445883,-1.2,2.926972415));
#293=CARTESIAN_POINT('',(1.655941469,-1.2,2.894043651));
#294=CARTESIAN_POINT('',(1.993355224,-1.2,2.844087766));
#295=CARTESIAN_POINT('',(2.179227792,-1.2,2.816568353));
#296=CARTESIAN_POINT('',(2.353299067,-1.2,2.783120761));
#297=CARTESIAN_POINT('',(2.629746309,-1.2,2.730001748));
#298=CARTESIAN_POINT('',(2.883398673,-1.2,2.660149306));
#299=CARTESIAN_POINT('',(3.14831003,-1.2,2.587196288));
#300=CARTESIAN_POINT('',(3.399604905,-1.2,2.492564449));
#301=CARTESIAN_POINT('',(3.651388807,-1.2,2.397748454));
#302=CARTESIAN_POINT('',(3.900746656,-1.2,2.276605608));
#303=CARTESIAN_POINT('',(4.139927098,-1.2,2.160407142));
#304=CARTESIAN_POINT('',(4.387115824,-1.2,2.014731351));
#305=CARTESIAN_POINT('',(4.811871067,-1.2,1.764410242));
#306=CARTESIAN_POINT('',(5.30174833,-1.2,1.400427137));
#307=CARTESIAN_POINT('',(5.694231344,-1.2,1.108808812));
#308=CARTESIAN_POINT('',(6.164320949,-1.2,0.717848483));
#309=CARTESIAN_POINT('',(6.545475292,-1.2,0.400853114));
#310=CARTESIAN_POINT('',(7.,-1.2,0.));
#311=B_SPLINE_CURVE_WITH_KNOTS('',2,(#288,#289,#290,#291,#292,#293,#294,#295,#296,#297,#298,#299,#300,#301,#302,#303,#304,#305,#306,#307,#308,#309,#310),.UNSPECIFIED.,.F.,.F.,(3,2,2,2,2,2,2,2,2,2,2,3),(0.104690896,0.125,0.25,0.333333333,0.375,0.4375,0.5,0.5625,0.625,0.75,0.875,1.),.UNSPECIFIED.);
#312=EDGE_CURVE('',#261,#117,#311,.T.);
#313=ORIENTED_EDGE('',*,*,#312,.T.);
#314=ORIENTED_EDGE('',*,*,#122,.T.);
#315=EDGE_LOOP('',(#287,#313,#314));
#316=FACE_BOUND('',#315,.T.);
#317=ADVANCED_FACE('',(#316),#259,.F.);
#318=CARTESIAN_POINT('',(0.,1.2,3.));
#319=DIRECTION('',(0.,1.,0.));
#320=DIRECTION('',(-1.,0.,0.));
#321=AXIS2_PLACEMENT_3D('',#318,#319,#320);
#322=PLANE('',#321);
#323=ORIENTED_EDGE('',*,*,#136,.T.);
#324=CARTESIAN_POINT('',(0.000000141,1.2,2.989929613));
#325=VERTEX_POINT('',#324);
#326=CARTESIAN_POINT('',(7.,1.2,0.));
#327=CARTESIAN_POINT('',(6.546057127,1.2,0.400339984));
#328=CARTESIAN_POINT('',(6.164503692,1.2,0.717696493));
#329=CARTESIAN_POINT('',(5.694793208,1.2,1.108377499));
#330=CARTESIAN_POINT('',(5.301171931,1.2,1.400855418));
#331=CARTESIAN_POINT('',(4.98501991,1.2,1.635770272));
#332=CARTESIAN_POINT('',(4.698916883,1.2,1.821481579));
#333=CARTESIAN_POINT('',(4.541310076,1.2,1.923785167));
#334=CARTESIAN_POINT('',(4.388633117,1.2,2.0138368));
#335=CARTESIAN_POINT('',(4.146162761,1.2,2.156850203));
#336=CARTESIAN_POINT('',(3.909720441,1.2,2.272236139));
#337=CARTESIAN_POINT('',(3.662783037,1.2,2.392743769));
#338=CARTESIAN_POINT('',(3.411718803,1.2,2.487985826));
#339=CARTESIAN_POINT('',(3.160165991,1.2,2.583413227));
#340=CARTESIAN_POINT('',(2.893019143,1.2,2.657490806));
#341=CARTESIAN_POINT('',(2.636775751,1.2,2.728544949));
#342=CARTESIAN_POINT('',(2.355028728,1.2,2.782788079));
#343=CARTESIAN_POINT('',(1.870890444,1.2,2.875996433));
#344=CARTESIAN_POINT('',(1.262730303,1.2,2.927032457));
#345=CARTESIAN_POINT('',(0.775480651,1.2,2.967921826));
#346=CARTESIAN_POINT('',(0.164317496,1.2,2.985636626));
#347=CARTESIAN_POINT('',(0.083623718,1.2,2.987975566));
#348=CARTESIAN_POINT('',(-0.000000047,1.2,2.989933632));
#349=B_SPLINE_CURVE_WITH_KNOTS('',2,(#326,#327,#328,#329,#330,#331,#332,#333,#334,#335,#336,#337,#338,#339,#340,#341,#342,#343,#344,#345,#346,#347,#348),.UNSPECIFIED.,.F.,.F.,(3,2,2,2,2,2,2,2,2,2,2,3),(0.,0.125,0.25,0.333333333,0.375,0.4375,0.5,0.5625,0.625,0.75,0.875,0.895355073),.UNSPECIFIED.);
#350=EDGE_CURVE('',#125,#325,#349,.T.);
#351=ORIENTED_EDGE('',*,*,#350,.T.);
#352=CARTESIAN_POINT('',(0.000000141,1.2,2.989929613));
#353=CARTESIAN_POINT('',(-0.083480925,1.2,2.987976047));
#354=CARTESIAN_POINT('',(-0.164079907,1.2,2.985643507));
#355=CARTESIAN_POINT('',(-0.774773966,1.2,2.967969979));
#356=CARTESIAN_POINT('',(-1.263445883,1.2,2.926972415));
#357=CARTESIAN_POINT('',(-1.655941469,1.2,2.894043651));
#358=CARTESIAN_POINT('',(-1.993355224,1.2,2.844087766));
#359=CARTESIAN_POINT('',(-2.179227792,1.2,2.816568353));
#360=CARTESIAN_POINT('',(-2.353299067,1.2,2.783120761));
#361=CARTESIAN_POINT('',(-2.629746309,1.2,2.730001748));
#362=CARTESIAN_POINT('',(-2.883398673,1.2,2.660149306));
#363=CARTESIAN_POINT('',(-3.14831003,1.2,2.587196288));
#364=CARTESIAN_POINT('',(-3.399604905,1.2,2.492564449));
#365=CARTESIAN_POINT('',(-3.651388807,1.2,2.397748454));
#366=CARTESIAN_POINT('',(-3.900746656,1.2,2.276605608));
#367=CARTESIAN_POINT('',(-4.139927098,1.2,2.160407142));
#368=CARTESIAN_POINT('',(-4.387115824,1.2,2.014731351));
#369=CARTESIAN_POINT('',(-4.811871067,1.2,1.764410242));
#370=CARTESIAN_POINT('',(-5.30174833,1.2,1.400427137));
#371=CARTESIAN_POINT('',(-5.694231344,1.2,1.108808812));
#372=CARTESIAN_POINT('',(-6.164320949,1.2,0.717848483));
#373=CARTESIAN_POINT('',(-6.545475292,1.2,0.400853114));
#374=CARTESIAN_POINT('',(-7.,1.2,0.));
#375=B_SPLINE_CURVE_WITH_KNOTS('',2,(#352,#353,#354,#355,#356,#357,#358,#359,#360,#361,#362,#363,#364,#365,#366,#367,#368,#369,#370,#371,#372,#373,#374),.UNSPECIFIED.,.F.,.F.,(3,2,2,2,2,2,2,2,2,2,2,3),(0.104690896,0.125,0.25,0.333333333,0.375,0.4375,0.5,0.5625,0.625,0.75,0.875,1.),.UNSPECIFIED.);
#376=EDGE_CURVE('',#325,#109,#375,.T.);
#377=ORIENTED_EDGE('',*,*,#376,.T.);
#378=EDGE_LOOP('',(#323,#351,#377));
#379=FACE_BOUND('',#378,.T.);
#380=ADVANCED_FACE('',(#379),#322,.F.);
#381=CARTESIAN_POINT('',(0.,-1.2,2.989935655));
#382=CARTESIAN_POINT('',(0.,-0.4,2.989935655));
#383=CARTESIAN_POINT('',(0.,0.4,2.989935655));
#384=CARTESIAN_POINT('',(0.,1.2,2.989935655));
#385=CARTESIAN_POINT('',(-3.708322513,-1.2,2.902986676));
#386=CARTESIAN_POINT('',(-3.708322513,-0.4,2.902986676));
#387=CARTESIAN_POINT('',(-3.708322513,0.4,2.902986676));
#388=CARTESIAN_POINT('',(-3.708322513,1.2,2.902986676));
#389=CARTESIAN_POINT('',(-7.,-1.2,0.));
#390=CARTESIAN_POINT('',(-7.,-0.4,0.));
#391=CARTESIAN_POINT('',(-7.,0.4,0.));
#392=CARTESIAN_POINT('',(-7.,1.2,0.));
#393=(BOUNDED_SURFACE()
B_SPLINE_SURFACE(2,3,((#381,#382,#383,#384),(#385,#386,#387,#388),(#389,#390,#391,#392)),.UNSPECIFIED.,.F.,.F.,.U.)
B_SPLINE_SURFACE_WITH_KNOTS((3,3),(4,4),(0.06096658,1.),(-0.0012,0.0012),.UNSPECIFIED.)
GEOMETRIC_REPRESENTATION_ITEM()
RATIONAL_B_SPLINE_SURFACE(((1.107948078,1.107948078,1.107948078,1.107948078),(1.885305349,1.885305349,1.885305349,1.885305349),(1.,1.,1.,1.)))
REPRESENTATION_ITEM('')
SURFACE()
);
#394=ORIENTED_EDGE('',*,*,#114,.T.);
#395=ORIENTED_EDGE('',*,*,#376,.F.);
#396=CARTESIAN_POINT('',(0.,-1.2,2.989935655));
#397=CARTESIAN_POINT('',(0.,-0.4,2.989935655));
#398=CARTESIAN_POINT('',(0.,0.4,2.989935655));
#399=CARTESIAN_POINT('',(0.,1.2,2.989935655));
#400=B_SPLINE_CURVE_WITH_KNOTS('',3,(#396,#397,#398,#399),.UNSPECIFIED.,.F.,.F.,(4,4),(0.,1.),.UNSPECIFIED.);
#401=EDGE_CURVE('',#261,#325,#400,.T.);
#402=ORIENTED_EDGE('',*,*,#401,.F.);
#403=ORIENTED_EDGE('',*,*,#286,.F.);
#404=EDGE_LOOP('',(#394,#395,#402,#403));
#405=FACE_BOUND('',#404,.T.);
#406=ADVANCED_FACE('',(#405),#393,.T.);
#407=CARTESIAN_POINT('',(-0.,1.2,2.989935655));
#408=CARTESIAN_POINT('',(-0.,0.4,2.989935655));
#409=CARTESIAN_POINT('',(-0.,-0.4,2.989935655));
#410=CARTESIAN_POINT('',(-0.,-1.2,2.989935655));
#411=CARTESIAN_POINT('',(3.708322513,1.2,2.902986676));
#412=CARTESIAN_POINT('',(3.708322513,0.4,2.902986676));
#413=CARTESIAN_POINT('',(3.708322513,-0.4,2.902986676));
#414=CARTESIAN_POINT('',(3.708322513,-1.2,2.902986676));
#415=CARTESIAN_POINT('',(7.,1.2,0.));
#416=CARTESIAN_POINT('',(7.,0.4,0.));
#417=CARTESIAN_POINT('',(7.,-0.4,0.));
#418=CARTESIAN_POINT('',(7.,-1.2,0.));
#419=(BOUNDED_SURFACE()
B_SPLINE_SURFACE(2,3,((#407,#408,#409,#410),(#411,#412,#413,#414),(#415,#416,#417,#418)),.UNSPECIFIED.,.F.,.F.,.U.)
B_SPLINE_SURFACE_WITH_KNOTS((3,3),(4,4),(0.06096658,1.),(-0.0012,0.0012),.UNSPECIFIED.)
GEOMETRIC_REPRESENTATION_ITEM()
RATIONAL_B_SPLINE_SURFACE(((1.107948078,1.107948078,1.107948078,1.107948078),(1.885305349,1.885305349,1.885305349,1.885305349),(1.,1.,1.,1.)))
REPRESENTATION_ITEM('')
SURFACE()
);
#420=ORIENTED_EDGE('',*,*,#350,.F.);
#421=ORIENTED_EDGE('',*,*,#130,.T.);
#422=ORIENTED_EDGE('',*,*,#312,.F.);
#423=ORIENTED_EDGE('',*,*,#401,.T.);
#424=EDGE_LOOP('',(#420,#421,#422,#423));
#425=FACE_BOUND('',#424,.T.);
#426=ADVANCED_FACE('',(#425),#419,.T.);
#427=CARTESIAN_POINT('',(0.,-0.,-42.));
#428=DIRECTION('',(-0.,0.,1.));
#429=DIRECTION('',(1.,0.,0.));
#430=AXIS2_PLACEMENT_3D('',#427,#428,#429);
#431=CYLINDRICAL_SURFACE('',#430,7.);
#432=CARTESIAN_POINT('',(7.,-0.,5.500000006));
#433=VERTEX_POINT('',#432);
#434=CARTESIAN_POINT('',(7.,-0.,5.000000019));
#435=VERTEX_POINT('',#434);
#436=CARTESIAN_POINT('',(7.,-0.,5.500000006));
#437=DIRECTION('',(0.,-0.,-1.));
#438=VECTOR('',#437,0.499999988);
#439=LINE('',#436,#438);
#440=EDGE_CURVE('',#433,#435,#439,.T.);
#441=ORIENTED_EDGE('',*,*,#440,.T.);
#442=CARTESIAN_POINT('',(-3.500871829,-6.061674392,7.));
#443=VERTEX_POINT('',#442);
#444=CARTESIAN_POINT('',(-3.500873363,-6.061673506,6.999999879));
#445=CARTESIAN_POINT('',(-4.079252361,-5.727635122,6.954338486));
#446=CARTESIAN_POINT('',(-4.584025138,-5.29024702,6.90909092));
#447=CARTESIAN_POINT('',(-5.344647829,-4.631163707,6.840909102));
#448=CARTESIAN_POINT('',(-5.88877473,-3.784485722,6.772727284));
#449=CARTESIAN_POINT('',(-6.432901631,-2.937807738,6.704545466));
#450=CARTESIAN_POINT('',(-6.716450815,-1.972127898,6.636363648));
#451=CARTESIAN_POINT('',(-7.,-1.006448058,6.56818183));
#452=CARTESIAN_POINT('',(-7.,-0.,6.500000012));
#453=CARTESIAN_POINT('',(-7.,1.006448058,6.431818195));
#454=CARTESIAN_POINT('',(-6.716450815,1.972127898,6.363636377));
#455=CARTESIAN_POINT('',(-6.432901631,2.937807738,6.295454559));
#456=CARTESIAN_POINT('',(-5.88877473,3.784485722,6.227272741));
#457=CARTESIAN_POINT('',(-5.344647829,4.631163707,6.159090923));
#458=CARTESIAN_POINT('',(-4.584025138,5.29024702,6.090909105));
#459=CARTESIAN_POINT('',(-3.823402446,5.949330334,6.022727287));
#460=CARTESIAN_POINT('',(-2.907905091,6.367423967,5.954545469));
#461=CARTESIAN_POINT('',(-1.992407736,6.785517601,5.886363651));
#462=CARTESIAN_POINT('',(-0.996203868,6.928750093,5.818181834));
#463=CARTESIAN_POINT('',(-0.,7.071982586,5.750000016));
#464=CARTESIAN_POINT('',(0.996203868,6.928750093,5.681818198));
#465=CARTESIAN_POINT('',(1.992407736,6.785517601,5.61363638));
#466=CARTESIAN_POINT('',(2.907905091,6.367423967,5.545454562));
#467=CARTESIAN_POINT('',(3.823402446,5.949330334,5.477272744));
#468=CARTESIAN_POINT('',(4.584025138,5.29024702,5.409090926));
#469=CARTESIAN_POINT('',(5.344647829,4.631163707,5.340909108));
#470=CARTESIAN_POINT('',(5.88877473,3.784485722,5.27272729));
#471=CARTESIAN_POINT('',(6.432901631,2.937807738,5.204545472));
#472=CARTESIAN_POINT('',(6.716450815,1.972127898,5.136363655));
#473=CARTESIAN_POINT('',(7.,1.006448058,5.068181837));
#474=CARTESIAN_POINT('',(7.,-0.,5.000000019));
#475=CARTESIAN_POINT('',(7.,-1.006448058,4.931818201));
#476=CARTESIAN_POINT('',(6.716450815,-1.972127898,4.863636383));
#477=CARTESIAN_POINT('',(6.432901631,-2.937807738,4.795454565));
#478=CARTESIAN_POINT('',(5.88877473,-3.784485722,4.727272747));
#479=CARTESIAN_POINT('',(5.344647829,-4.631163707,4.659090929));
#480=CARTESIAN_POINT('',(4.584025138,-5.29024702,4.590909111));
#481=CARTESIAN_POINT('',(3.823402446,-5.949330334,4.522727293));
#482=CARTESIAN_POINT('',(2.907905091,-6.367423967,4.454545476));
#483=CARTESIAN_POINT('',(1.992407736,-6.785517601,4.386363658));
#484=CARTESIAN_POINT('',(0.996203868,-6.928750093,4.31818184));
#485=CARTESIAN_POINT('',(0.,-7.071982586,4.250000022));
#486=CARTESIAN_POINT('',(-0.996203868,-6.928750093,4.181818204));
#487=CARTESIAN_POINT('',(-1.992407736,-6.785517601,4.113636386));
#488=CARTESIAN_POINT('',(-2.907905091,-6.367423967,4.045454568));
#489=CARTESIAN_POINT('',(-3.211682693,-6.228693385,4.022830681));
#490=CARTESIAN_POINT('',(-3.500873521,-6.061673415,3.999999879));
#491=(BOUNDED_CURVE()
B_SPLINE_CURVE(2,(#444,#445,#446,#447,#448,#449,#450,#451,#452,#453,#454,#455,#456,#457,#458,#459,#460,#461,#462,#463,#464,#465,#466,#467,#468,#469,
#470,#471,#472,#473,#474,#475,#476,#477,#478,#479,#480,#481,#482,#483,#484,#485,#486,#487,#488,#489,#490),.UNSPECIFIED.,.F.,.F.)
B_SPLINE_CURVE_WITH_KNOTS((3,2,2,2,2,2,2,2,2,2,2,2,2,2,2,2,2,2,2,2,2,2,2,3),(0.043861457,0.045454545,0.04784689,0.050239234,0.052631579,0.055023923,0.057416268,0.059808612,0.062200957,0.064593301,0.066985646,0.06937799,0.071770335,0.074162679,0.076555024,0.078947368,0.081339713,0.083732057,0.086124402,0.088516746,0.090909091,0.093301435,0.09569378,0.096493036),.UNSPECIFIED.)
CURVE()
GEOMETRIC_REPRESENTATION_ITEM()
RATIONAL_B_SPLINE_CURVE((0.99547108,0.993221987,1.,0.989821442,1.,0.989821442,1.,0.989821442,1.,0.989821442,1.,0.989821442,1.,0.989821442,1.,0.989821442,1.,0.989821442,1.,0.989821442,1.,0.989821442,1.,0.989821442,1.,0.989821442,
1.,0.989821442,1.,0.989821442,1.,0.989821442,1.,0.989821442,1.,0.989821442,1.,0.989821442,1.,0.989821442,1.,0.989821442,1.,0.989821442,1.,0.996599454,0.995471079))
REPRESENTATION_ITEM(''));
#492=EDGE_CURVE('',#443,#435,#491,.T.);
#493=ORIENTED_EDGE('',*,*,#492,.F.);
#494=CARTESIAN_POINT('',(-7.,-0.,7.));
#495=VERTEX_POINT('',#494);
#496=CARTESIAN_POINT('',(0.,-0.,7.));
#497=DIRECTION('',(0.,0.,-1.));
#498=DIRECTION('',(-1.,0.,-0.));
#499=AXIS2_PLACEMENT_3D('',#496,#497,#498);
#500=CIRCLE('',#499,7.);
#501=EDGE_CURVE('',#443,#495,#500,.T.);
#502=ORIENTED_EDGE('',*,*,#501,.T.);
#503=CARTESIAN_POINT('',(-7.,-0.,7.));
#504=CARTESIAN_POINT('',(-7.,1.006448058,6.931818182));
#505=CARTESIAN_POINT('',(-6.716450815,1.972127898,6.863636364));
#506=CARTESIAN_POINT('',(-6.432901631,2.937807738,6.795454546));
#507=CARTESIAN_POINT('',(-5.88877473,3.784485722,6.727272728));
#508=CARTESIAN_POINT('',(-5.344647829,4.631163707,6.659090911));
#509=CARTESIAN_POINT('',(-4.584025138,5.29024702,6.590909093));
#510=CARTESIAN_POINT('',(-3.823402446,5.949330334,6.522727275));
#511=CARTESIAN_POINT('',(-2.907905091,6.367423967,6.454545457));
#512=CARTESIAN_POINT('',(-1.992407736,6.785517601,6.386363639));
#513=CARTESIAN_POINT('',(-0.996203868,6.928750093,6.318181821));
#514=CARTESIAN_POINT('',(0.,7.071982586,6.250000003));
#515=CARTESIAN_POINT('',(0.996203868,6.928750093,6.181818185));
#516=CARTESIAN_POINT('',(1.992407736,6.785517601,6.113636367));
#517=CARTESIAN_POINT('',(2.907905091,6.367423967,6.045454549));
#518=CARTESIAN_POINT('',(3.823402446,5.949330334,5.977272732));
#519=CARTESIAN_POINT('',(4.584025138,5.29024702,5.909090914));
#520=CARTESIAN_POINT('',(5.344647829,4.631163707,5.840909096));
#521=CARTESIAN_POINT('',(5.88877473,3.784485722,5.772727278));
#522=CARTESIAN_POINT('',(6.432901631,2.937807738,5.70454546));
#523=CARTESIAN_POINT('',(6.716450815,1.972127898,5.636363642));
#524=CARTESIAN_POINT('',(7.,1.006448058,5.568181824));
#525=CARTESIAN_POINT('',(7.,-0.,5.500000006));
#526=CARTESIAN_POINT('',(7.,-1.006448058,5.431818188));
#527=CARTESIAN_POINT('',(6.716450815,-1.972127898,5.36363637));
#528=CARTESIAN_POINT('',(6.432901631,-2.937807738,5.295454553));
#529=CARTESIAN_POINT('',(5.88877473,-3.784485722,5.227272735));
#530=CARTESIAN_POINT('',(5.344647829,-4.631163707,5.159090917));
#531=CARTESIAN_POINT('',(4.584025138,-5.29024702,5.090909099));
#532=CARTESIAN_POINT('',(3.823402446,-5.949330334,5.022727281));
#533=CARTESIAN_POINT('',(2.907905091,-6.367423967,4.954545463));
#534=CARTESIAN_POINT('',(1.992407736,-6.785517601,4.886363645));
#535=CARTESIAN_POINT('',(0.996203868,-6.928750093,4.818181827));
#536=CARTESIAN_POINT('',(0.,-7.071982586,4.750000009));
#537=CARTESIAN_POINT('',(-0.996203868,-6.928750093,4.681818191));
#538=CARTESIAN_POINT('',(-1.992407736,-6.785517601,4.613636374));
#539=CARTESIAN_POINT('',(-2.907905091,-6.367423967,4.545454556));
#540=CARTESIAN_POINT('',(-3.823402446,-5.949330334,4.477272738));
#541=CARTESIAN_POINT('',(-4.584025138,-5.29024702,4.40909092));
#542=CARTESIAN_POINT('',(-5.344647829,-4.631163707,4.340909102));
#543=CARTESIAN_POINT('',(-5.88877473,-3.784485722,4.272727284));
#544=CARTESIAN_POINT('',(-6.432901631,-2.937807738,4.204545466));
#545=CARTESIAN_POINT('',(-6.716450815,-1.972127898,4.136363648));
#546=CARTESIAN_POINT('',(-7.,-1.006448058,4.06818183));
#547=CARTESIAN_POINT('',(-7.,-0.,4.000000012));
#548=(BOUNDED_CURVE()
B_SPLINE_CURVE(2,(#503,#504,#505,#506,#507,#508,#509,#510,#511,#512,#513,#514,#515,#516,#517,#518,#519,#520,#521,#522,#523,#524,#525,#526,#527,#528,
#529,#530,#531,#532,#533,#534,#535,#536,#537,#538,#539,#540,#541,#542,#543,#544,#545,#546,#547),.UNSPECIFIED.,.F.,.F.)
B_SPLINE_CURVE_WITH_KNOTS((3,2,2,2,2,2,2,2,2,2,2,2,2,2,2,2,2,2,2,2,2,2,3),(0.,0.002392344,0.004784689,0.007177033,0.009569378,0.011961722,0.014354067,0.016746411,0.019138756,0.0215311,0.023923445,0.026315789,0.028708134,0.031100478,0.033492823,0.035885167,0.038277512,0.040669856,0.043062201,0.045454545,0.04784689,0.050239234,0.052631579),.UNSPECIFIED.)
CURVE()
GEOMETRIC_REPRESENTATION_ITEM()
RATIONAL_B_SPLINE_CURVE((1.,0.989821442,1.,0.989821442,1.,0.989821442,1.,0.989821442,1.,0.989821442,1.,0.989821442,1.,0.989821442,1.,0.989821442,1.,0.989821442,1.,0.989821442,1.,0.989821442,1.,0.989821442,1.,0.989821442,
1.,0.989821442,1.,0.989821442,1.,0.989821442,1.,0.989821442,1.,0.989821442,1.,0.989821442,1.,0.989821442,1.,0.989821442,1.,0.989821442,1.))
REPRESENTATION_ITEM(''));
#549=EDGE_CURVE('',#495,#433,#548,.T.);
#550=ORIENTED_EDGE('',*,*,#549,.T.);
#551=EDGE_LOOP('',(#441,#493,#502,#550));
#552=FACE_BOUND('',#551,.T.);
#553=ADVANCED_FACE('',(#552),#431,.T.);
#554=CARTESIAN_POINT('',(0.,-0.,8.));
#555=DIRECTION('',(0.,0.,-1.));
#556=DIRECTION('',(-1.,0.,-0.));
#557=AXIS2_PLACEMENT_3D('',#554,#555,#556);
#558=CONICAL_SURFACE('',#557,6.,45.);
#559=CARTESIAN_POINT('',(-6.6,-0.,7.4));
#560=VERTEX_POINT('',#559);
#561=CARTESIAN_POINT('',(-7.,-0.,7.));
#562=DIRECTION('',(0.707106781,-0.,0.707106781));
#563=VECTOR('',#562,0.565685425);
#564=LINE('',#561,#563);
#565=EDGE_CURVE('',#495,#560,#564,.T.);
#566=ORIENTED_EDGE('',*,*,#565,.T.);
#567=CARTESIAN_POINT('',(6.6,-0.,7.4));
#568=VERTEX_POINT('',#567);
#569=CARTESIAN_POINT('',(0.,-0.,7.4));
#570=DIRECTION('',(-0.,0.,1.));
#571=DIRECTION('',(1.,0.,0.));
#572=AXIS2_PLACEMENT_3D('',#569,#570,#571);
#573=CIRCLE('',#572,6.6);
#574=EDGE_CURVE('',#568,#560,#573,.T.);
#575=ORIENTED_EDGE('',*,*,#574,.F.);
#576=CARTESIAN_POINT('',(0.,-0.,7.4));
#577=DIRECTION('',(-0.,0.,1.));
#578=DIRECTION('',(1.,0.,0.));
#579=AXIS2_PLACEMENT_3D('',#576,#577,#578);
#580=CIRCLE('',#579,6.6);
#581=EDGE_CURVE('',#560,#568,#580,.T.);
#582=ORIENTED_EDGE('',*,*,#581,.F.);
#583=ORIENTED_EDGE('',*,*,#565,.F.);
#584=ORIENTED_EDGE('',*,*,#501,.F.);
#585=CARTESIAN_POINT('',(-4.000996376,-6.927627877,6.));
#586=VERTEX_POINT('',#585);
#587=CARTESIAN_POINT('',(-3.500871829,-6.061674392,7.));
#588=CARTESIAN_POINT('',(-3.667580085,-6.350325511,6.666666667));
#589=CARTESIAN_POINT('',(-3.834288194,-6.638976715,6.333333333));
#590=CARTESIAN_POINT('',(-4.000996376,-6.927627877,6.));
#591=B_SPLINE_CURVE_WITH_KNOTS('',3,(#587,#588,#589,#590),.UNSPECIFIED.,.F.,.F.,(4,4),(0.,0.001414214),.UNSPECIFIED.);
#592=EDGE_CURVE('',#443,#586,#591,.T.);
#593=ORIENTED_EDGE('',*,*,#592,.T.);
#594=CARTESIAN_POINT('',(4.000996105,-6.927628033,6.));
#595=VERTEX_POINT('',#594);
#596=CARTESIAN_POINT('',(0.,-0.,6.));
#597=DIRECTION('',(0.,0.,-1.));
#598=DIRECTION('',(-1.,0.,-0.));
#599=AXIS2_PLACEMENT_3D('',#596,#597,#598);
#600=CIRCLE('',#599,8.);
#601=EDGE_CURVE('',#595,#586,#600,.T.);
#602=ORIENTED_EDGE('',*,*,#601,.F.);
#603=CARTESIAN_POINT('',(4.000996105,-6.927628033,6.));
#604=CARTESIAN_POINT('',(4.563004803,-6.58023403,6.019752728));
#605=CARTESIAN_POINT('',(5.070972385,-6.17153842,6.039075241));
#606=CARTESIAN_POINT('',(5.526226889,-5.703080376,6.058695989));
#607=CARTESIAN_POINT('',(5.640040514,-5.585965865,6.063601176));
#608=CARTESIAN_POINT('',(5.75050495,-5.46505475,6.068535765));
#609=CARTESIAN_POINT('',(5.857551915,-5.340269637,6.073500506));
#610=CARTESIAN_POINT('',(5.964598879,-5.215484523,6.078465247));
#611=CARTESIAN_POINT('',(6.068465113,-5.086464819,6.083473151));
#612=CARTESIAN_POINT('',(6.167498709,-4.955266892,6.088444509));
#613=CARTESIAN_POINT('',(6.365565901,-4.692871036,6.098387224));
#614=CARTESIAN_POINT('',(6.545670155,-4.420481415,6.108199297));
#615=CARTESIAN_POINT('',(6.708203522,-4.138320716,6.118014664));
#616=CARTESIAN_POINT('',(6.870736888,-3.856160016,6.127830031));
#617=CARTESIAN_POINT('',(7.01562678,-3.564190711,6.137730146));
#618=CARTESIAN_POINT('',(7.142558355,-3.262237813,6.147717822));
#619=CARTESIAN_POINT('',(7.269489931,-2.960284914,6.157705497));
#620=CARTESIAN_POINT('',(7.378726231,-2.646580652,6.167833956));
#621=CARTESIAN_POINT('',(7.466790387,-2.3311308,6.17777976));
#622=CARTESIAN_POINT('',(7.642918699,-1.700231097,6.197671368));
#623=CARTESIAN_POINT('',(7.738473793,-1.055857819,6.217586085));
#624=CARTESIAN_POINT('',(7.751996663,-0.397775726,6.237804576));
#625=CARTESIAN_POINT('',(7.755377381,-0.233255203,6.242859199));
#626=CARTESIAN_POINT('',(7.753522067,-0.067634116,6.247921707));
#627=CARTESIAN_POINT('',(7.746443315,0.096488333,6.252955787));
#628=CARTESIAN_POINT('',(7.739364563,0.260610782,6.257989868));
#629=CARTESIAN_POINT('',(7.727077816,0.423809034,6.263028376));
#630=CARTESIAN_POINT('',(7.709682536,0.586100731,6.268071465));
#631=CARTESIAN_POINT('',(7.674891974,0.910684126,6.278157645));
#632=CARTESIAN_POINT('',(7.619727516,1.231651989,6.288262214));
#633=CARTESIAN_POINT('',(7.54423131,1.549011783,6.298385652));
#634=CARTESIAN_POINT('',(7.468735104,1.866371577,6.308509091));
#635=CARTESIAN_POINT('',(7.372463447,2.181461069,6.318631816));
#636=CARTESIAN_POINT('',(7.255831423,2.489802297,6.328871979));
#637=CARTESIAN_POINT('',(7.1391994,2.798143525,6.339112142));
#638=CARTESIAN_POINT('',(7.003882684,3.095862855,6.34933403));
#639=CARTESIAN_POINT('',(6.850527913,3.383327851,6.359539278));
#640=CARTESIAN_POINT('',(6.697173143,3.670792847,6.369744527));
#641=CARTESIAN_POINT('',(6.525809516,3.948021478,6.379895279));
#642=CARTESIAN_POINT('',(6.336073534,4.214802722,6.390112365));
#643=CARTESIAN_POINT('',(6.146337553,4.481583966,6.400329451));
#644=CARTESIAN_POINT('',(5.936552838,4.739283572,6.410784889));
#645=CARTESIAN_POINT('',(5.713550472,4.979407486,6.421137426));
#646=CARTESIAN_POINT('',(5.267545741,5.459655315,6.4418425));
#647=CARTESIAN_POINT('',(4.766669132,5.876422841,6.462107976));
#648=CARTESIAN_POINT('',(4.20932333,6.227805462,6.483088149));
#649=CARTESIAN_POINT('',(4.069986879,6.315651118,6.488333192));
#650=CARTESIAN_POINT('',(3.927096879,6.399273305,6.493611798));
#651=CARTESIAN_POINT('',(3.782761148,6.477500505,6.498847109));
#652=CARTESIAN_POINT('',(3.638425417,6.555727706,6.504082419));
#653=CARTESIAN_POINT('',(3.492121483,6.628903352,6.509294319));
#654=CARTESIAN_POINT('',(3.343884839,6.69711855,6.514483138));
#655=CARTESIAN_POINT('',(3.047411551,6.833548947,6.524860776));
#656=CARTESIAN_POINT('',(2.743222306,6.950173256,6.535174464));
#657=CARTESIAN_POINT('',(2.431224143,7.046732551,6.545652914));
#658=CARTESIAN_POINT('',(2.275225062,7.095012199,6.550892139));
#659=CARTESIAN_POINT('',(2.117272762,7.138274414,6.556157169));
#660=CARTESIAN_POINT('',(1.957326346,7.176414132,6.561448648));
#661=CARTESIAN_POINT('',(1.79737993,7.214553849,6.566740128));
#662=CARTESIAN_POINT('',(1.634952004,7.247622955,6.572073726));
#663=CARTESIAN_POINT('',(1.472800492,7.275057444,6.577358819));
#664=CARTESIAN_POINT('',(1.148497468,7.32992642,6.587929006));
#665=CARTESIAN_POINT('',(0.823531867,7.362915105,6.598332442));
#666=CARTESIAN_POINT('',(0.497922913,7.37434661,6.608862391));
#667=CARTESIAN_POINT('',(0.17231396,7.385778115,6.619392341));
#668=CARTESIAN_POINT('',(-0.153938451,7.375714699,6.629987997));
#669=CARTESIAN_POINT('',(-0.48085028,7.343622524,6.640651608));
#670=CARTESIAN_POINT('',(-0.644306194,7.327576436,6.645983413));
#671=CARTESIAN_POINT('',(-0.808552307,7.305884632,6.651352731));
#672=CARTESIAN_POINT('',(-0.970994969,7.278845726,6.656674709));
#673=CARTESIAN_POINT('',(-1.133437631,7.25180682,6.661996687));
#674=CARTESIAN_POINT('',(-1.294166051,7.219441306,6.667297986));
#675=CARTESIAN_POINT('',(-1.453205694,7.181832506,6.672618139));
#676=CARTESIAN_POINT('',(-1.77128498,7.106614905,6.683258445));
#677=CARTESIAN_POINT('',(-2.082647701,7.010538767,6.693926457));
#678=CARTESIAN_POINT('',(-2.387326946,6.893706958,6.704623));
#679=CARTESIAN_POINT('',(-2.539666569,6.835291054,6.709971272));
#680=CARTESIAN_POINT('',(-2.690329771,6.771668985,6.715326664));
#681=CARTESIAN_POINT('',(-2.8392864,6.702747102,6.720689183));
#682=CARTESIAN_POINT('',(-2.988243028,6.633825219,6.726051702));
#683=CARTESIAN_POINT('',(-3.136045592,6.559298256,6.73143472));
#684=CARTESIAN_POINT('',(-3.280569658,6.480074928,6.736838955));
#685=CARTESIAN_POINT('',(-3.858665923,6.163181619,6.758455896));
#686=CARTESIAN_POINT('',(-4.382473857,5.775320172,6.779887006));
#687=CARTESIAN_POINT('',(-4.852427751,5.317082039,6.80156847));
#688=CARTESIAN_POINT('',(-4.969916224,5.202522506,6.806988836));
#689=CARTESIAN_POINT('',(-5.084365123,5.082993663,6.812480016));
#690=CARTESIAN_POINT('',(-5.194189484,4.960036335,6.817969309));
#691=CARTESIAN_POINT('',(-5.304013844,4.837079008,6.823458603));
#692=CARTESIAN_POINT('',(-5.409018078,4.710989029,6.828934188));
#693=CARTESIAN_POINT('',(-5.509318904,4.581842259,6.834396517));
#694=CARTESIAN_POINT('',(-5.709920557,4.323548721,6.845321175));
#695=CARTESIAN_POINT('',(-5.891804587,4.053088921,6.856155665));
#696=CARTESIAN_POINT('',(-6.054990027,3.770479974,6.867018613));
#697=CARTESIAN_POINT('',(-6.136582747,3.629175501,6.872450087));
#698=CARTESIAN_POINT('',(-6.213456582,3.484806313,6.87792158));
#699=CARTESIAN_POINT('',(-6.285525309,3.337316426,6.883434162));
#700=CARTESIAN_POINT('',(-6.357594035,3.189826538,6.888946743));
#701=CARTESIAN_POINT('',(-6.42509249,3.03860671,6.894522433));
#702=CARTESIAN_POINT('',(-6.486967566,2.885848241,6.9000797));
#703=CARTESIAN_POINT('',(-6.610717717,2.580331303,6.911194233));
#704=CARTESIAN_POINT('',(-6.712011558,2.269439046,6.922194684));
#705=CARTESIAN_POINT('',(-6.791543897,1.953339491,6.933133391));
#706=CARTESIAN_POINT('',(-6.871076236,1.637239936,6.944072098));
#707=CARTESIAN_POINT('',(-6.928668306,1.315896678,6.955131114));
#708=CARTESIAN_POINT('',(-6.963780383,0.989180804,6.966315626));
#709=CARTESIAN_POINT('',(-6.99889246,0.662464929,6.977500138));
#710=CARTESIAN_POINT('',(-7.011197014,0.330563662,6.988802986));
#711=CARTESIAN_POINT('',(-7.,-0.,7.));
#712=B_SPLINE_CURVE_WITH_KNOTS('',3,(#603,#604,#605,#606,#607,#608,#609,#610,#611,#612,#613,#614,#615,#616,#617,#618,#619,#620,#621,#622,#623,#624,#625,#626,#627,#628,
#629,#630,#631,#632,#633,#634,#635,#636,#637,#638,#639,#640,#641,#642,#643,#644,#645,#646,#647,#648,#649,#650,#651,#652,#653,
#654,#655,#656,#657,#658,#659,#660,#661,#662,#663,#664,#665,#666,#667,#668,#669,#670,#671,#672,#673,#674,#675,#676,#677,#678,
#679,#680,#681,#682,#683,#684,#685,#686,#687,#688,#689,#690,#691,#692,#693,#694,#695,#696,#697,#698,#699,#700,#701,#702,#703,
#704,#705,#706,#707,#708,#709,#710,#711),.UNSPECIFIED.,.F.,.F.,(4,3,3,3,3,3,3,3,3,3,3,3,3,3,3,3,3,3,3,3,3,3,3,3,3,3,
3,3,3,3,3,3,3,3,3,3,4),(0.,0.00195477,0.002443463,0.002932156,0.003909541,0.004886926,0.005864311,0.007819082,0.008307774,0.008796467,0.009773852,0.010751237,0.011728622,0.012706008,0.013683393,0.015638163,0.016126856,0.016615549,0.017592934,0.018081626,0.018570319,0.019547704,0.020525089,0.021013782,0.021502475,0.02247986,
0.022968552,0.023457245,0.025412015,0.025900708,0.026389401,0.027366786,0.027855478,0.028344171,0.029321556,0.030298941,0.031276327),.UNSPECIFIED.);
#713=EDGE_CURVE('',#595,#495,#712,.T.);
#714=ORIENTED_EDGE('',*,*,#713,.T.);
#715=EDGE_LOOP('',(#566,#575,#582,#583,#584,#593,#602,#714));
#716=FACE_BOUND('',#715,.T.);
#717=ADVANCED_FACE('',(#716),#558,.T.);
#718=CARTESIAN_POINT('',(-20.,-0.,4.));
#719=DIRECTION('',(0.,0.,-1.));
#720=DIRECTION('',(-1.,0.,-0.));
#721=AXIS2_PLACEMENT_3D('',#718,#719,#720);
#722=PLANE('',#721);
#723=CARTESIAN_POINT('',(8.,-0.000000316,4.));
#724=VERTEX_POINT('',#723);
#725=CARTESIAN_POINT('',(3.750933679,-6.494651379,4.));
#726=CARTESIAN_POINT('',(4.358542657,-6.193595585,4.));
#727=CARTESIAN_POINT('',(4.917079393,-5.815576829,4.));
#728=CARTESIAN_POINT('',(5.42656203,-5.360623566,4.));
#729=CARTESIAN_POINT('',(5.936044668,-4.905670303,4.));
#730=CARTESIAN_POINT('',(6.374740729,-4.392492104,4.));
#731=CARTESIAN_POINT('',(6.744340024,-3.825153183,4.));
#732=CARTESIAN_POINT('',(6.929139671,-3.541483722,4.));
#733=CARTESIAN_POINT('',(7.097364496,-3.2420686,4.));
#734=CARTESIAN_POINT('',(7.243585431,-2.936492268,4.));
#735=CARTESIAN_POINT('',(7.389806367,-2.630915936,4.));
#736=CARTESIAN_POINT('',(7.515059985,-2.317865981,4.));
#737=CARTESIAN_POINT('',(7.620036447,-1.997588407,4.));
#738=CARTESIAN_POINT('',(7.725012909,-1.677310832,4.));
#739=CARTESIAN_POINT('',(7.809796779,-1.349835779,4.));
#740=CARTESIAN_POINT('',(7.873675321,-1.0149092,4.));
#741=CARTESIAN_POINT('',(7.937553863,-0.67998262,4.));
#742=CARTESIAN_POINT('',(7.979789874,-0.340944871,4.));
#743=CARTESIAN_POINT('',(8.,-0.000000316,4.));
#744=B_SPLINE_CURVE_WITH_KNOTS('',3,(#725,#726,#727,#728,#729,#730,#731,#732,#733,#734,#735,#736,#737,#738,#739,#740,#741,#742,#743),.UNSPECIFIED.,.F.,.F.,(4,3,3,3,3,3,4),(0.007572111,0.009594545,0.01161698,0.012628197,0.013639414,0.014650631,0.015661849),.UNSPECIFIED.);
#745=EDGE_CURVE('',#35,#724,#744,.T.);
#746=ORIENTED_EDGE('',*,*,#745,.F.);
#747=ORIENTED_EDGE('',*,*,#242,.T.);
#748=ORIENTED_EDGE('',*,*,#250,.T.);
#749=CARTESIAN_POINT('',(4.000996467,6.927627824,4.));
#750=VERTEX_POINT('',#749);
#751=CARTESIAN_POINT('',(4.000996467,6.927627824,4.));
#752=CARTESIAN_POINT('',(3.389110705,7.233836497,4.));
#753=CARTESIAN_POINT('',(2.751804117,7.456434288,4.));
#754=CARTESIAN_POINT('',(2.089265914,7.596043524,4.));
#755=CARTESIAN_POINT('',(1.923631363,7.630945833,4.));
#756=CARTESIAN_POINT('',(1.756404273,7.660610171,4.));
#757=CARTESIAN_POINT('',(1.587546944,7.684912535,4.));
#758=CARTESIAN_POINT('',(1.418689615,7.7092149,4.));
#759=CARTESIAN_POINT('',(1.24844305,7.728081877,4.));
#760=CARTESIAN_POINT('',(1.079076555,7.741296494,4.));
#761=CARTESIAN_POINT('',(0.740343565,7.767725726,4.));
#762=CARTESIAN_POINT('',(0.402678726,7.771720405,4.));
#763=CARTESIAN_POINT('',(0.066057307,7.753800005,4.));
#764=CARTESIAN_POINT('',(-0.270564112,7.735879604,4.));
#765=CARTESIAN_POINT('',(-0.60614215,7.696044928,4.));
#766=CARTESIAN_POINT('',(-0.940647067,7.633671328,4.));
#767=CARTESIAN_POINT('',(-1.107899526,7.602484527,4.));
#768=CARTESIAN_POINT('',(-1.275453768,7.565465622,4.));
#769=CARTESIAN_POINT('',(-1.440407515,7.523108606,4.));
#770=CARTESIAN_POINT('',(-1.605361262,7.48075159,4.));
#771=CARTESIAN_POINT('',(-1.768100403,7.433059812,4.));
#772=CARTESIAN_POINT('',(-1.928672748,7.380148439,4.));
#773=CARTESIAN_POINT('',(-2.249817437,7.274325692,4.));
#774=CARTESIAN_POINT('',(-2.562322976,7.1476921,4.));
#775=CARTESIAN_POINT('',(-2.866218578,7.000318034,4.));
#776=CARTESIAN_POINT('',(-3.018166379,6.926631001,4.));
#777=CARTESIAN_POINT('',(-3.167967393,6.847772573,4.));
#778=CARTESIAN_POINT('',(-3.315523674,6.76350681,4.));
#779=CARTESIAN_POINT('',(-3.463079954,6.679241046,4.));
#780=CARTESIAN_POINT('',(-3.60895408,6.589193851,4.));
#781=CARTESIAN_POINT('',(-3.750933764,6.49465133,4.));
#782=B_SPLINE_CURVE_WITH_KNOTS('',3,(#751,#752,#753,#754,#755,#756,#757,#758,#759,#760,#761,#762,#763,#764,#765,#766,#767,#768,#769,#770,#771,#772,#773,#774,#775,#776,
#777,#778,#779,#780,#781),.UNSPECIFIED.,.F.,.F.,(4,3,3,3,3,3,3,3,3,3,4),(0.,0.002023496,0.00252937,0.003035244,0.004046992,0.00505874,0.005564614,0.006070488,0.007082236,0.00758811,0.008093984),.UNSPECIFIED.);
#783=EDGE_CURVE('',#750,#68,#782,.T.);
#784=ORIENTED_EDGE('',*,*,#783,.F.);
#785=CARTESIAN_POINT('',(0.,-0.,4.));
#786=DIRECTION('',(-0.,-0.,1.));
#787=DIRECTION('',(-1.,0.,-0.));
#788=AXIS2_PLACEMENT_3D('',#785,#786,#787);
#789=CIRCLE('',#788,8.);
#790=EDGE_CURVE('',#724,#750,#789,.T.);
#791=ORIENTED_EDGE('',*,*,#790,.F.);
#792=EDGE_LOOP('',(#746,#747,#748,#784,#791));
#793=FACE_BOUND('',#792,.T.);
#794=ADVANCED_FACE('',(#793),#722,.T.);
#795=CARTESIAN_POINT('',(-20.,-0.,7.4));
#796=DIRECTION('',(-0.,0.,1.));
#797=DIRECTION('',(1.,0.,0.));
#798=AXIS2_PLACEMENT_3D('',#795,#796,#797);
#799=PLANE('',#798);
#800=ORIENTED_EDGE('',*,*,#574,.T.);
#801=ORIENTED_EDGE('',*,*,#581,.T.);
#802=EDGE_LOOP('',(#800,#801));
#803=FACE_BOUND('',#802,.T.);
#804=ADVANCED_FACE('',(#803),#799,.T.);
#805=CARTESIAN_POINT('',(0.,-0.,8.));
#806=DIRECTION('',(-0.,0.,-1.));
#807=DIRECTION('',(-1.,0.,0.));
#808=AXIS2_PLACEMENT_3D('',#805,#806,#807);
#809=CYLINDRICAL_SURFACE('',#808,8.);
#810=CARTESIAN_POINT('',(-8.,-0.,5.000000012));
#811=VERTEX_POINT('',#810);
#812=CARTESIAN_POINT('',(-8.,-0.,5.500000012));
#813=VERTEX_POINT('',#812);
#814=CARTESIAN_POINT('',(-8.,-0.,5.000000012));
#815=DIRECTION('',(0.,-0.,1.));
#816=VECTOR('',#815,0.5);
#817=LINE('',#814,#816);
#818=EDGE_CURVE('',#811,#813,#817,.T.);
#819=ORIENTED_EDGE('',*,*,#818,.T.);
#820=CARTESIAN_POINT('',(-4.000998125,-6.927626866,5.999999879));
#821=CARTESIAN_POINT('',(-4.662002696,-6.545868712,5.954338486));
#822=CARTESIAN_POINT('',(-5.238885872,-6.045996595,5.90909092));
#823=CARTESIAN_POINT('',(-6.108168947,-5.292758522,5.840909102));
#824=CARTESIAN_POINT('',(-6.730028263,-4.32512654,5.772727284));
#825=CARTESIAN_POINT('',(-7.351887578,-3.357494558,5.704545466));
#826=CARTESIAN_POINT('',(-7.675943789,-2.253860455,5.636363648));
#827=CARTESIAN_POINT('',(-8.,-1.150226352,5.56818183));
#828=CARTESIAN_POINT('',(-8.,-0.,5.500000012));
#829=CARTESIAN_POINT('',(-8.,1.150226352,5.431818195));
#830=CARTESIAN_POINT('',(-7.675943789,2.253860455,5.363636377));
#831=CARTESIAN_POINT('',(-7.351887578,3.357494558,5.295454559));
#832=CARTESIAN_POINT('',(-6.730028263,4.32512654,5.227272741));
#833=CARTESIAN_POINT('',(-6.108168947,5.292758522,5.159090923));
#834=CARTESIAN_POINT('',(-5.238885872,6.045996595,5.090909105));
#835=CARTESIAN_POINT('',(-4.369602796,6.799234668,5.022727287));
#836=CARTESIAN_POINT('',(-3.323320104,7.277055963,4.954545469));
#837=CARTESIAN_POINT('',(-2.277037412,7.754877258,4.886363651));
#838=CARTESIAN_POINT('',(-1.138518706,7.918571535,4.818181834));
#839=CARTESIAN_POINT('',(-0.,8.082265812,4.750000016));
#840=CARTESIAN_POINT('',(1.138518706,7.918571535,4.681818198));
#841=CARTESIAN_POINT('',(2.277037412,7.754877258,4.61363638));
#842=CARTESIAN_POINT('',(3.323320104,7.277055963,4.545454562));
#843=CARTESIAN_POINT('',(4.369602796,6.799234668,4.477272744));
#844=CARTESIAN_POINT('',(5.238885872,6.045996595,4.409090926));
#845=CARTESIAN_POINT('',(6.108168947,5.292758522,4.340909108));
#846=CARTESIAN_POINT('',(6.730028263,4.32512654,4.27272729));
#847=CARTESIAN_POINT('',(7.351887578,3.357494558,4.204545472));
#848=CARTESIAN_POINT('',(7.675943789,2.253860455,4.136363655));
#849=CARTESIAN_POINT('',(8.,1.150226352,4.068181837));
#850=CARTESIAN_POINT('',(8.,-0.000000316,4.));
#851=(BOUNDED_CURVE()
B_SPLINE_CURVE(2,(#820,#821,#822,#823,#824,#825,#826,#827,#828,#829,#830,#831,#832,#833,#834,#835,#836,#837,#838,#839,#840,#841,#842,#843,#844,#845,
#846,#847,#848,#849,#850),.UNSPECIFIED.,.F.,.F.)
B_SPLINE_CURVE_WITH_KNOTS((3,2,2,2,2,2,2,2,2,2,2,2,2,2,2,3),(0.043861457,0.045454545,0.04784689,0.050239235,0.052631579,0.055023924,0.057416268,0.059808613,0.062200957,0.064593302,0.066985646,0.069377991,0.071770335,0.07416268,0.076555024,0.078947369),.UNSPECIFIED.)
CURVE()
GEOMETRIC_REPRESENTATION_ITEM()
RATIONAL_B_SPLINE_CURVE((0.99547108,0.993221987,1.,0.989821442,1.,0.989821442,1.,0.989821442,1.,0.989821442,1.,0.989821442,1.,0.989821442,1.,0.989821442,1.,0.989821442,1.,0.989821442,1.,0.989821442,1.,0.989821442,1.,0.989821442,
1.,0.989821442,1.,0.989821442,1.))
REPRESENTATION_ITEM(''));
#852=EDGE_CURVE('',#813,#724,#851,.T.);
#853=ORIENTED_EDGE('',*,*,#852,.T.);
#854=ORIENTED_EDGE('',*,*,#790,.T.);
#855=CARTESIAN_POINT('',(4.000997854,-6.927627023,6.000000121));
#856=CARTESIAN_POINT('',(3.670494266,-7.118506836,5.977169335));
#857=CARTESIAN_POINT('',(3.323320104,-7.277055963,5.954545463));
#858=CARTESIAN_POINT('',(2.277037412,-7.754877258,5.886363645));
#859=CARTESIAN_POINT('',(1.138518706,-7.918571535,5.818181827));
#860=CARTESIAN_POINT('',(0.,-8.082265812,5.750000009));
#861=CARTESIAN_POINT('',(-1.138518706,-7.918571535,5.681818191));
#862=CARTESIAN_POINT('',(-2.277037412,-7.754877258,5.613636374));
#863=CARTESIAN_POINT('',(-3.323320104,-7.277055963,5.545454556));
#864=CARTESIAN_POINT('',(-4.369602796,-6.799234668,5.477272738));
#865=CARTESIAN_POINT('',(-5.238885872,-6.045996595,5.40909092));
#866=CARTESIAN_POINT('',(-6.108168947,-5.292758522,5.340909102));
#867=CARTESIAN_POINT('',(-6.730028263,-4.32512654,5.272727284));
#868=CARTESIAN_POINT('',(-7.351887578,-3.357494558,5.204545466));
#869=CARTESIAN_POINT('',(-7.675943789,-2.253860455,5.136363648));
#870=CARTESIAN_POINT('',(-8.,-1.150226352,5.06818183));
#871=CARTESIAN_POINT('',(-8.,-0.,5.000000012));
#872=CARTESIAN_POINT('',(-8.,1.150226352,4.931818195));
#873=CARTESIAN_POINT('',(-7.675943789,2.253860455,4.863636377));
#874=CARTESIAN_POINT('',(-7.351887578,3.357494558,4.795454559));
#875=CARTESIAN_POINT('',(-6.730028263,4.32512654,4.727272741));
#876=CARTESIAN_POINT('',(-6.108168947,5.292758522,4.659090923));
#877=CARTESIAN_POINT('',(-5.238885872,6.045996595,4.590909105));
#878=CARTESIAN_POINT('',(-4.369602796,6.799234668,4.522727287));
#879=CARTESIAN_POINT('',(-3.323320104,7.277055963,4.454545469));
#880=CARTESIAN_POINT('',(-2.277037412,7.754877258,4.386363651));
#881=CARTESIAN_POINT('',(-1.138518706,7.918571535,4.318181834));
#882=CARTESIAN_POINT('',(-0.,8.082265812,4.250000016));
#883=CARTESIAN_POINT('',(1.138518706,7.918571535,4.181818198));
#884=CARTESIAN_POINT('',(2.277037412,7.754877258,4.11363638));
#885=CARTESIAN_POINT('',(3.323320104,7.277055963,4.045454562));
#886=CARTESIAN_POINT('',(3.670494456,7.118506749,4.022830678));
#887=CARTESIAN_POINT('',(4.000998216,6.927626814,3.999999879));
#888=(BOUNDED_CURVE()
B_SPLINE_CURVE(2,(#855,#856,#857,#858,#859,#860,#861,#862,#863,#864,#865,#866,#867,#868,#869,#870,#871,#872,#873,#874,#875,#876,#877,#878,#879,#880,
#881,#882,#883,#884,#885,#886,#887),.UNSPECIFIED.,.F.,.F.)
B_SPLINE_CURVE_WITH_KNOTS((3,2,2,2,2,2,2,2,2,2,2,2,2,2,2,2,3),(0.035085912,0.035885167,0.038277512,0.040669856,0.043062201,0.045454545,0.04784689,0.050239234,0.052631579,0.055023923,0.057416268,0.059808612,0.062200957,0.064593301,0.066985646,0.06937799,0.070177247),.UNSPECIFIED.)
CURVE()
GEOMETRIC_REPRESENTATION_ITEM()
RATIONAL_B_SPLINE_CURVE((0.99547108,0.996599456,1.,0.989821442,1.,0.989821442,1.,0.989821442,1.,0.989821442,1.,0.989821442,1.,0.989821442,1.,0.989821442,1.,0.989821442,1.,0.989821442,1.,0.989821442,1.,0.989821442,1.,0.989821442,
1.,0.989821442,1.,0.989821442,1.,0.996599454,0.995471079))
REPRESENTATION_ITEM(''));
#889=EDGE_CURVE('',#811,#750,#888,.T.);
#890=ORIENTED_EDGE('',*,*,#889,.F.);
#891=EDGE_LOOP('',(#819,#853,#854,#890));
#892=FACE_BOUND('',#891,.T.);
#893=ADVANCED_FACE('',(#892),#809,.T.);
#894=CARTESIAN_POINT('',(-4.000996376,-6.927627877,6.));
#895=CARTESIAN_POINT('',(-4.662001926,-6.545869379,5.954338547));
#896=CARTESIAN_POINT('',(-5.238885872,-6.045996595,5.90909092));
#897=CARTESIAN_POINT('',(-6.108168947,-5.292758522,5.840909102));
#898=CARTESIAN_POINT('',(-6.730028263,-4.32512654,5.772727284));
#899=CARTESIAN_POINT('',(-7.351887578,-3.357494558,5.704545466));
#900=CARTESIAN_POINT('',(-7.675943789,-2.253860455,5.636363648));
#901=CARTESIAN_POINT('',(-8.,-1.150226352,5.56818183));
#902=CARTESIAN_POINT('',(-8.,-0.,5.500000012));
#903=CARTESIAN_POINT('',(-8.,1.150226352,5.431818195));
#904=CARTESIAN_POINT('',(-7.675943789,2.253860455,5.363636377));
#905=CARTESIAN_POINT('',(-7.351887578,3.357494558,5.295454559));
#906=CARTESIAN_POINT('',(-6.730028263,4.32512654,5.227272741));
#907=CARTESIAN_POINT('',(-6.108168947,5.292758522,5.159090923));
#908=CARTESIAN_POINT('',(-5.238885872,6.045996595,5.090909105));
#909=CARTESIAN_POINT('',(-4.369602796,6.799234668,5.022727287));
#910=CARTESIAN_POINT('',(-3.323320104,7.277055963,4.954545469));
#911=CARTESIAN_POINT('',(-2.277037412,7.754877258,4.886363651));
#912=CARTESIAN_POINT('',(-1.138518706,7.918571535,4.818181834));
#913=CARTESIAN_POINT('',(0.,8.082265812,4.750000016));
#914=CARTESIAN_POINT('',(1.138518706,7.918571535,4.681818198));
#915=CARTESIAN_POINT('',(2.277037412,7.754877258,4.61363638));
#916=CARTESIAN_POINT('',(3.323320104,7.277055963,4.545454562));
#917=CARTESIAN_POINT('',(4.369602796,6.799234668,4.477272744));
#918=CARTESIAN_POINT('',(5.238885872,6.045996595,4.409090926));
#919=CARTESIAN_POINT('',(6.108168947,5.292758522,4.340909108));
#920=CARTESIAN_POINT('',(6.730028263,4.32512654,4.27272729));
#921=CARTESIAN_POINT('',(7.351887578,3.357494558,4.204545472));
#922=CARTESIAN_POINT('',(7.675943789,2.253860455,4.136363655));
#923=CARTESIAN_POINT('',(8.,1.150226352,4.068181837));
#924=CARTESIAN_POINT('',(8.,-0.,4.000000019));
#925=CARTESIAN_POINT('',(8.,-1.150226352,3.931818201));
#926=CARTESIAN_POINT('',(7.675943789,-2.253860455,3.863636383));
#927=CARTESIAN_POINT('',(7.351887578,-3.357494558,3.795454565));
#928=CARTESIAN_POINT('',(6.730028263,-4.32512654,3.727272747));
#929=CARTESIAN_POINT('',(6.108168947,-5.292758522,3.659090929));
#930=CARTESIAN_POINT('',(5.238885872,-6.045996595,3.590909111));
#931=CARTESIAN_POINT('',(4.369602796,-6.799234668,3.522727293));
#932=CARTESIAN_POINT('',(3.323320104,-7.277055963,3.454545476));
#933=CARTESIAN_POINT('',(2.277037412,-7.754877258,3.386363658));
#934=CARTESIAN_POINT('',(1.138518706,-7.918571535,3.31818184));
#935=CARTESIAN_POINT('',(0.,-8.082265812,3.250000022));
#936=CARTESIAN_POINT('',(-1.138518706,-7.918571535,3.181818204));
#937=CARTESIAN_POINT('',(-2.277037412,-7.754877258,3.113636386));
#938=CARTESIAN_POINT('',(-3.323320104,-7.277055963,3.045454568));
#939=CARTESIAN_POINT('',(-3.670493583,-7.118507147,3.022830741));
#940=CARTESIAN_POINT('',(-4.000996557,-6.927627772,3.));
#941=CARTESIAN_POINT('',(-3.500871829,-6.061674392,7.));
#942=CARTESIAN_POINT('',(-4.079251685,-5.727635707,6.954338547));
#943=CARTESIAN_POINT('',(-4.584025138,-5.29024702,6.90909092));
#944=CARTESIAN_POINT('',(-5.344647829,-4.631163707,6.840909102));
#945=CARTESIAN_POINT('',(-5.88877473,-3.784485722,6.772727284));
#946=CARTESIAN_POINT('',(-6.432901631,-2.937807738,6.704545466));
#947=CARTESIAN_POINT('',(-6.716450815,-1.972127898,6.636363648));
#948=CARTESIAN_POINT('',(-7.,-1.006448058,6.56818183));
#949=CARTESIAN_POINT('',(-7.,-0.,6.500000012));
#950=CARTESIAN_POINT('',(-7.,1.006448058,6.431818195));
#951=CARTESIAN_POINT('',(-6.716450815,1.972127898,6.363636377));
#952=CARTESIAN_POINT('',(-6.432901631,2.937807738,6.295454559));
#953=CARTESIAN_POINT('',(-5.88877473,3.784485722,6.227272741));
#954=CARTESIAN_POINT('',(-5.344647829,4.631163707,6.159090923));
#955=CARTESIAN_POINT('',(-4.584025138,5.29024702,6.090909105));
#956=CARTESIAN_POINT('',(-3.823402446,5.949330334,6.022727287));
#957=CARTESIAN_POINT('',(-2.907905091,6.367423967,5.954545469));
#958=CARTESIAN_POINT('',(-1.992407736,6.785517601,5.886363651));
#959=CARTESIAN_POINT('',(-0.996203868,6.928750093,5.818181834));
#960=CARTESIAN_POINT('',(0.,7.071982586,5.750000016));
#961=CARTESIAN_POINT('',(0.996203868,6.928750093,5.681818198));
#962=CARTESIAN_POINT('',(1.992407736,6.785517601,5.61363638));
#963=CARTESIAN_POINT('',(2.907905091,6.367423967,5.545454562));
#964=CARTESIAN_POINT('',(3.823402446,5.949330334,5.477272744));
#965=CARTESIAN_POINT('',(4.584025138,5.29024702,5.409090926));
#966=CARTESIAN_POINT('',(5.344647829,4.631163707,5.340909108));
#967=CARTESIAN_POINT('',(5.88877473,3.784485722,5.27272729));
#968=CARTESIAN_POINT('',(6.432901631,2.937807738,5.204545472));
#969=CARTESIAN_POINT('',(6.716450815,1.972127898,5.136363655));
#970=CARTESIAN_POINT('',(7.,1.006448058,5.068181837));
#971=CARTESIAN_POINT('',(7.,-0.,5.000000019));
#972=CARTESIAN_POINT('',(7.,-1.006448058,4.931818201));
#973=CARTESIAN_POINT('',(6.716450815,-1.972127898,4.863636383));
#974=CARTESIAN_POINT('',(6.432901631,-2.937807738,4.795454565));
#975=CARTESIAN_POINT('',(5.88877473,-3.784485722,4.727272747));
#976=CARTESIAN_POINT('',(5.344647829,-4.631163707,4.659090929));
#977=CARTESIAN_POINT('',(4.584025138,-5.29024702,4.590909111));
#978=CARTESIAN_POINT('',(3.823402446,-5.949330334,4.522727293));
#979=CARTESIAN_POINT('',(2.907905091,-6.367423967,4.454545476));
#980=CARTESIAN_POINT('',(1.992407736,-6.785517601,4.386363658));
#981=CARTESIAN_POINT('',(0.996203868,-6.928750093,4.31818184));
#982=CARTESIAN_POINT('',(0.,-7.071982586,4.250000022));
#983=CARTESIAN_POINT('',(-0.996203868,-6.928750093,4.181818204));
#984=CARTESIAN_POINT('',(-1.992407736,-6.785517601,4.113636386));
#985=CARTESIAN_POINT('',(-2.907905091,-6.367423967,4.045454568));
#986=CARTESIAN_POINT('',(-3.211681885,-6.228693754,4.022830741));
#987=CARTESIAN_POINT('',(-3.500871988,-6.061674301,4.));
#988=(BOUNDED_SURFACE()
B_SPLINE_SURFACE(1,2,((#894,#895,#896,#897,#898,#899,#900,#901,#902,#903,#904,#905,#906,#907,#908,#909,#910,#911,#912,#913,#914,#915,#916,#917,#918,#919,
#920,#921,#922,#923,#924,#925,#926,#927,#928,#929,#930,#931,#932,#933,#934,#935,#936,#937,#938,#939,#940),(#941,#942,#943,#944,#945,#946,#947,#948,#949,#950,#951,#952,#953,#954,#955,#956,#957,#958,#959,#960,#961,#962,#963,#964,#965,#966,
#967,#968,#969,#970,#971,#972,#973,#974,#975,#976,#977,#978,#979,#980,#981,#982,#983,#984,#985,#986,#987)),.UNSPECIFIED.,.F.,.F.,.U.)
B_SPLINE_SURFACE_WITH_KNOTS((2,2),(3,2,2,2,2,2,2,2,2,2,2,2,2,2,2,2,2,2,2,2,2,2,2,3),(0.,1.),(0.043861455,0.045454545,0.04784689,0.050239234,0.052631579,0.055023923,0.057416268,0.059808612,0.062200957,0.064593301,0.066985646,0.06937799,0.071770335,0.074162679,0.076555024,0.078947368,0.081339713,0.083732057,0.086124402,0.088516746,0.090909091,0.093301435,0.09569378,0.096493034),.UNSPECIFIED.)
GEOMETRIC_REPRESENTATION_ITEM()
RATIONAL_B_SPLINE_SURFACE(((0.995471085,0.993221978,1.,0.989821442,1.,0.989821442,1.,0.989821442,1.,0.989821442,1.,0.989821442,1.,0.989821442,1.,0.989821442,1.,0.989821442,1.,0.989821442,1.,0.989821442,1.,0.989821442,1.,0.989821442,
1.,0.989821442,1.,0.989821442,1.,0.989821442,1.,0.989821442,1.,0.989821442,1.,0.989821442,1.,0.989821442,1.,0.989821442,1.,0.989821442,1.,0.996599463,0.995471085),(0.995471085,0.993221978,1.,0.989821442,1.,0.989821442,1.,0.989821442,1.,0.989821442,1.,0.989821442,1.,0.989821442,1.,0.989821442,1.,0.989821442,1.,0.989821442,1.,0.989821442,1.,0.989821442,1.,0.989821442,
1.,0.989821442,1.,0.989821442,1.,0.989821442,1.,0.989821442,1.,0.989821442,1.,0.989821442,1.,0.989821442,1.,0.989821442,1.,0.989821442,1.,0.996599463,0.995471085)))
REPRESENTATION_ITEM('')
SURFACE()
);
#989=ORIENTED_EDGE('',*,*,#492,.T.);
#990=CARTESIAN_POINT('',(-3.500873363,-6.061673506,6.999999879));
#991=CARTESIAN_POINT('',(-4.079252361,-5.727635122,6.954338486));
#992=CARTESIAN_POINT('',(-4.584025138,-5.29024702,6.90909092));
#993=CARTESIAN_POINT('',(-5.344647829,-4.631163707,6.840909102));
#994=CARTESIAN_POINT('',(-5.88877473,-3.784485722,6.772727284));
#995=CARTESIAN_POINT('',(-6.432901631,-2.937807738,6.704545466));
#996=CARTESIAN_POINT('',(-6.716450815,-1.972127898,6.636363648));
#997=CARTESIAN_POINT('',(-7.,-1.006448058,6.56818183));
#998=CARTESIAN_POINT('',(-7.,-0.,6.500000012));
#999=CARTESIAN_POINT('',(-7.,1.006448058,6.431818195));
#1000=CARTESIAN_POINT('',(-6.716450815,1.972127898,6.363636377));
#1001=CARTESIAN_POINT('',(-6.432901631,2.937807738,6.295454559));
#1002=CARTESIAN_POINT('',(-5.88877473,3.784485722,6.227272741));
#1003=CARTESIAN_POINT('',(-5.344647829,4.631163707,6.159090923));
#1004=CARTESIAN_POINT('',(-4.584025138,5.29024702,6.090909105));
#1005=CARTESIAN_POINT('',(-3.823402446,5.949330334,6.022727287));
#1006=CARTESIAN_POINT('',(-2.907905091,6.367423967,5.954545469));
#1007=CARTESIAN_POINT('',(-1.992407736,6.785517601,5.886363651));
#1008=CARTESIAN_POINT('',(-0.996203868,6.928750093,5.818181834));
#1009=CARTESIAN_POINT('',(-0.,7.071982586,5.750000016));
#1010=CARTESIAN_POINT('',(0.996203868,6.928750093,5.681818198));
#1011=CARTESIAN_POINT('',(1.992407736,6.785517601,5.61363638));
#1012=CARTESIAN_POINT('',(2.907905091,6.367423967,5.545454562));
#1013=CARTESIAN_POINT('',(3.823402446,5.949330334,5.477272744));
#1014=CARTESIAN_POINT('',(4.584025138,5.29024702,5.409090926));
#1015=CARTESIAN_POINT('',(5.344647829,4.631163707,5.340909108));
#1016=CARTESIAN_POINT('',(5.88877473,3.784485722,5.27272729));
#1017=CARTESIAN_POINT('',(6.432901631,2.937807738,5.204545472));
#1018=CARTESIAN_POINT('',(6.716450815,1.972127898,5.136363655));
#1019=CARTESIAN_POINT('',(7.,1.006448058,5.068181837));
#1020=CARTESIAN_POINT('',(7.,-0.,5.000000019));
#1021=CARTESIAN_POINT('',(7.,-1.006448058,4.931818201));
#1022=CARTESIAN_POINT('',(6.716450815,-1.972127898,4.863636383));
#1023=CARTESIAN_POINT('',(6.432901631,-2.937807738,4.795454565));
#1024=CARTESIAN_POINT('',(5.88877473,-3.784485722,4.727272747));
#1025=CARTESIAN_POINT('',(5.344647829,-4.631163707,4.659090929));
#1026=CARTESIAN_POINT('',(4.584025138,-5.29024702,4.590909111));
#1027=CARTESIAN_POINT('',(3.823402446,-5.949330334,4.522727293));
#1028=CARTESIAN_POINT('',(2.907905091,-6.367423967,4.454545476));
#1029=CARTESIAN_POINT('',(1.992407736,-6.785517601,4.386363658));
#1030=CARTESIAN_POINT('',(0.996203868,-6.928750093,4.31818184));
#1031=CARTESIAN_POINT('',(0.,-7.071982586,4.250000022));
#1032=CARTESIAN_POINT('',(-0.996203868,-6.928750093,4.181818204));
#1033=CARTESIAN_POINT('',(-1.992407736,-6.785517601,4.113636386));
#1034=CARTESIAN_POINT('',(-2.907905091,-6.367423967,4.045454568));
#1035=CARTESIAN_POINT('',(-3.211682693,-6.228693385,4.022830681));
#1036=CARTESIAN_POINT('',(-3.500873521,-6.061673415,3.999999879));
#1037=(BOUNDED_CURVE()
B_SPLINE_CURVE(2,(#990,#991,#992,#993,#994,#995,#996,#997,#998,#999,#1000,#1001,#1002,#1003,#1004,#1005,#1006,#1007,#1008,#1009,#1010,#1011,#1012,#1013,#1014,#1015,
#1016,#1017,#1018,#1019,#1020,#1021,#1022,#1023,#1024,#1025,#1026,#1027,#1028,#1029,#1030,#1031,#1032,#1033,#1034,#1035,#1036),.UNSPECIFIED.,.F.,.F.)
B_SPLINE_CURVE_WITH_KNOTS((3,2,2,2,2,2,2,2,2,2,2,2,2,2,2,2,2,2,2,2,2,2,2,3),(0.043861457,0.045454545,0.04784689,0.050239234,0.052631579,0.055023923,0.057416268,0.059808612,0.062200957,0.064593301,0.066985646,0.06937799,0.071770335,0.074162679,0.076555024,0.078947368,0.081339713,0.083732057,0.086124402,0.088516746,0.090909091,0.093301435,0.09569378,0.096493036),.UNSPECIFIED.)
CURVE()
GEOMETRIC_REPRESENTATION_ITEM()
RATIONAL_B_SPLINE_CURVE((0.99547108,0.993221987,1.,0.989821442,1.,0.989821442,1.,0.989821442,1.,0.989821442,1.,0.989821442,1.,0.989821442,1.,0.989821442,1.,0.989821442,1.,0.989821442,1.,0.989821442,1.,0.989821442,1.,0.989821442,
1.,0.989821442,1.,0.989821442,1.,0.989821442,1.,0.989821442,1.,0.989821442,1.,0.989821442,1.,0.989821442,1.,0.989821442,1.,0.989821442,1.,0.996599454,0.995471079))
REPRESENTATION_ITEM(''));
#1038=EDGE_CURVE('',#435,#33,#1037,.T.);
#1039=ORIENTED_EDGE('',*,*,#1038,.T.);
#1040=ORIENTED_EDGE('',*,*,#56,.T.);
#1041=ORIENTED_EDGE('',*,*,#745,.T.);
#1042=ORIENTED_EDGE('',*,*,#852,.F.);
#1043=CARTESIAN_POINT('',(-4.000998125,-6.927626866,5.999999879));
#1044=CARTESIAN_POINT('',(-4.662002696,-6.545868712,5.954338486));
#1045=CARTESIAN_POINT('',(-5.238885872,-6.045996595,5.90909092));
#1046=CARTESIAN_POINT('',(-6.108168947,-5.292758522,5.840909102));
#1047=CARTESIAN_POINT('',(-6.730028263,-4.32512654,5.772727284));
#1048=CARTESIAN_POINT('',(-7.351887578,-3.357494558,5.704545466));
#1049=CARTESIAN_POINT('',(-7.675943789,-2.253860455,5.636363648));
#1050=CARTESIAN_POINT('',(-8.,-1.150226352,5.56818183));
#1051=CARTESIAN_POINT('',(-8.,-0.,5.500000012));
#1052=CARTESIAN_POINT('',(-8.,1.150226352,5.431818195));
#1053=CARTESIAN_POINT('',(-7.675943789,2.253860455,5.363636377));
#1054=CARTESIAN_POINT('',(-7.351887578,3.357494558,5.295454559));
#1055=CARTESIAN_POINT('',(-6.730028263,4.32512654,5.227272741));
#1056=CARTESIAN_POINT('',(-6.108168947,5.292758522,5.159090923));
#1057=CARTESIAN_POINT('',(-5.238885872,6.045996595,5.090909105));
#1058=CARTESIAN_POINT('',(-4.369602796,6.799234668,5.022727287));
#1059=CARTESIAN_POINT('',(-3.323320104,7.277055963,4.954545469));
#1060=CARTESIAN_POINT('',(-2.277037412,7.754877258,4.886363651));
#1061=CARTESIAN_POINT('',(-1.138518706,7.918571535,4.818181834));
#1062=CARTESIAN_POINT('',(-0.,8.082265812,4.750000016));
#1063=CARTESIAN_POINT('',(1.138518706,7.918571535,4.681818198));
#1064=CARTESIAN_POINT('',(2.277037412,7.754877258,4.61363638));
#1065=CARTESIAN_POINT('',(3.323320104,7.277055963,4.545454562));
#1066=CARTESIAN_POINT('',(4.369602796,6.799234668,4.477272744));
#1067=CARTESIAN_POINT('',(5.238885872,6.045996595,4.409090926));
#1068=CARTESIAN_POINT('',(6.108168947,5.292758522,4.340909108));
#1069=CARTESIAN_POINT('',(6.730028263,4.32512654,4.27272729));
#1070=CARTESIAN_POINT('',(7.351887578,3.357494558,4.204545472));
#1071=CARTESIAN_POINT('',(7.675943789,2.253860455,4.136363655));
#1072=CARTESIAN_POINT('',(8.,1.150226352,4.068181837));
#1073=CARTESIAN_POINT('',(8.,-0.000000316,4.));
#1074=(BOUNDED_CURVE()
B_SPLINE_CURVE(2,(#1043,#1044,#1045,#1046,#1047,#1048,#1049,#1050,#1051,#1052,#1053,#1054,#1055,#1056,#1057,#1058,#1059,#1060,#1061,#1062,#1063,#1064,#1065,#1066,#1067,#1068,
#1069,#1070,#1071,#1072,#1073),.UNSPECIFIED.,.F.,.F.)
B_SPLINE_CURVE_WITH_KNOTS((3,2,2,2,2,2,2,2,2,2,2,2,2,2,2,3),(0.043861457,0.045454545,0.04784689,0.050239235,0.052631579,0.055023924,0.057416268,0.059808613,0.062200957,0.064593302,0.066985646,0.069377991,0.071770335,0.07416268,0.076555024,0.078947369),.UNSPECIFIED.)
CURVE()
GEOMETRIC_REPRESENTATION_ITEM()
RATIONAL_B_SPLINE_CURVE((0.99547108,0.993221987,1.,0.989821442,1.,0.989821442,1.,0.989821442,1.,0.989821442,1.,0.989821442,1.,0.989821442,1.,0.989821442,1.,0.989821442,1.,0.989821442,1.,0.989821442,1.,0.989821442,1.,0.989821442,
1.,0.989821442,1.,0.989821442,1.))
REPRESENTATION_ITEM(''));
#1075=EDGE_CURVE('',#586,#813,#1074,.T.);
#1076=ORIENTED_EDGE('',*,*,#1075,.F.);
#1077=ORIENTED_EDGE('',*,*,#592,.F.);
#1078=EDGE_LOOP('',(#989,#1039,#1040,#1041,#1042,#1076,#1077));
#1079=FACE_BOUND('',#1078,.T.);
#1080=ADVANCED_FACE('',(#1079),#988,.T.);
#1081=CARTESIAN_POINT('',(-7.,0.00000076,6.999999948));
#1082=CARTESIAN_POINT('',(-6.999999891,1.00644843,6.931818156));
#1083=CARTESIAN_POINT('',(-6.716450815,1.972127898,6.863636364));
#1084=CARTESIAN_POINT('',(-6.432901631,2.937807738,6.795454546));
#1085=CARTESIAN_POINT('',(-5.88877473,3.784485722,6.727272728));
#1086=CARTESIAN_POINT('',(-5.344647829,4.631163707,6.659090911));
#1087=CARTESIAN_POINT('',(-4.584025138,5.29024702,6.590909093));
#1088=CARTESIAN_POINT('',(-3.823402446,5.949330334,6.522727275));
#1089=CARTESIAN_POINT('',(-2.907905091,6.367423967,6.454545457));
#1090=CARTESIAN_POINT('',(-1.992407736,6.785517601,6.386363639));
#1091=CARTESIAN_POINT('',(-0.996203868,6.928750093,6.318181821));
#1092=CARTESIAN_POINT('',(0.,7.071982586,6.250000003));
#1093=CARTESIAN_POINT('',(0.996203868,6.928750093,6.181818185));
#1094=CARTESIAN_POINT('',(1.992407736,6.785517601,6.113636367));
#1095=CARTESIAN_POINT('',(2.907905091,6.367423967,6.045454549));
#1096=CARTESIAN_POINT('',(3.823402446,5.949330334,5.977272732));
#1097=CARTESIAN_POINT('',(4.584025138,5.29024702,5.909090914));
#1098=CARTESIAN_POINT('',(5.344647829,4.631163707,5.840909096));
#1099=CARTESIAN_POINT('',(5.88877473,3.784485722,5.772727278));
#1100=CARTESIAN_POINT('',(6.432901631,2.937807738,5.70454546));
#1101=CARTESIAN_POINT('',(6.716450815,1.972127898,5.636363642));
#1102=CARTESIAN_POINT('',(7.,1.006448058,5.568181824));
#1103=CARTESIAN_POINT('',(7.,-0.,5.500000006));
#1104=CARTESIAN_POINT('',(7.,-1.006448058,5.431818188));
#1105=CARTESIAN_POINT('',(6.716450815,-1.972127898,5.36363637));
#1106=CARTESIAN_POINT('',(6.432901631,-2.937807738,5.295454553));
#1107=CARTESIAN_POINT('',(5.88877473,-3.784485722,5.227272735));
#1108=CARTESIAN_POINT('',(5.344647829,-4.631163707,5.159090917));
#1109=CARTESIAN_POINT('',(4.584025138,-5.29024702,5.090909099));
#1110=CARTESIAN_POINT('',(3.823402446,-5.949330334,5.022727281));
#1111=CARTESIAN_POINT('',(2.907905091,-6.367423967,4.954545463));
#1112=CARTESIAN_POINT('',(1.992407736,-6.785517601,4.886363645));
#1113=CARTESIAN_POINT('',(0.996203868,-6.928750093,4.818181827));
#1114=CARTESIAN_POINT('',(0.,-7.071982586,4.750000009));
#1115=CARTESIAN_POINT('',(-0.996203868,-6.928750093,4.681818191));
#1116=CARTESIAN_POINT('',(-1.992407736,-6.785517601,4.613636374));
#1117=CARTESIAN_POINT('',(-2.907905091,-6.367423967,4.545454556));
#1118=CARTESIAN_POINT('',(-3.823402446,-5.949330334,4.477272738));
#1119=CARTESIAN_POINT('',(-4.584025138,-5.29024702,4.40909092));
#1120=CARTESIAN_POINT('',(-5.344647829,-4.631163707,4.340909102));
#1121=CARTESIAN_POINT('',(-5.88877473,-3.784485722,4.272727284));
#1122=CARTESIAN_POINT('',(-6.432901631,-2.937807738,4.204545466));
#1123=CARTESIAN_POINT('',(-6.716450815,-1.972127898,4.136363648));
#1124=CARTESIAN_POINT('',(-7.,-1.006448058,4.06818183));
#1125=CARTESIAN_POINT('',(-7.,-0.,4.000000012));
#1126=CARTESIAN_POINT('',(-7.,1.006448058,3.931818195));
#1127=CARTESIAN_POINT('',(-6.716450815,1.972127898,3.863636377));
#1128=CARTESIAN_POINT('',(-6.432901631,2.937807738,3.795454559));
#1129=CARTESIAN_POINT('',(-5.88877473,3.784485722,3.727272741));
#1130=CARTESIAN_POINT('',(-5.344647829,4.631163707,3.659090923));
#1131=CARTESIAN_POINT('',(-4.584025138,5.29024702,3.590909105));
#1132=CARTESIAN_POINT('',(-3.823402446,5.949330334,3.522727287));
#1133=CARTESIAN_POINT('',(-2.907905091,6.367423967,3.454545469));
#1134=CARTESIAN_POINT('',(-1.992407736,6.785517601,3.386363651));
#1135=CARTESIAN_POINT('',(-0.996203868,6.928750093,3.318181834));
#1136=CARTESIAN_POINT('',(0.,7.071982586,3.250000016));
#1137=CARTESIAN_POINT('',(0.996203868,6.928750093,3.181818198));
#1138=CARTESIAN_POINT('',(1.992407736,6.785517601,3.11363638));
#1139=CARTESIAN_POINT('',(2.907905091,6.367423967,3.045454562));
#1140=CARTESIAN_POINT('',(3.211681844,6.228693773,3.022830738));
#1141=CARTESIAN_POINT('',(3.500871909,6.061674346,3.));
#1142=CARTESIAN_POINT('',(-8.,0.000000869,7.999999948));
#1143=CARTESIAN_POINT('',(-7.999999875,1.150226777,7.931818156));
#1144=CARTESIAN_POINT('',(-7.675943789,2.253860455,7.863636364));
#1145=CARTESIAN_POINT('',(-7.351887578,3.357494558,7.795454546));
#1146=CARTESIAN_POINT('',(-6.730028263,4.32512654,7.727272728));
#1147=CARTESIAN_POINT('',(-6.108168947,5.292758522,7.659090911));
#1148=CARTESIAN_POINT('',(-5.238885872,6.045996595,7.590909093));
#1149=CARTESIAN_POINT('',(-4.369602796,6.799234668,7.522727275));
#1150=CARTESIAN_POINT('',(-3.323320104,7.277055963,7.454545457));
#1151=CARTESIAN_POINT('',(-2.277037412,7.754877258,7.386363639));
#1152=CARTESIAN_POINT('',(-1.138518706,7.918571535,7.318181821));
#1153=CARTESIAN_POINT('',(0.,8.082265812,7.250000003));
#1154=CARTESIAN_POINT('',(1.138518706,7.918571535,7.181818185));
#1155=CARTESIAN_POINT('',(2.277037412,7.754877258,7.113636367));
#1156=CARTESIAN_POINT('',(3.323320104,7.277055963,7.045454549));
#1157=CARTESIAN_POINT('',(4.369602796,6.799234668,6.977272732));
#1158=CARTESIAN_POINT('',(5.238885872,6.045996595,6.909090914));
#1159=CARTESIAN_POINT('',(6.108168947,5.292758522,6.840909096));
#1160=CARTESIAN_POINT('',(6.730028263,4.32512654,6.772727278));
#1161=CARTESIAN_POINT('',(7.351887578,3.357494558,6.70454546));
#1162=CARTESIAN_POINT('',(7.675943789,2.253860455,6.636363642));
#1163=CARTESIAN_POINT('',(8.,1.150226352,6.568181824));
#1164=CARTESIAN_POINT('',(8.,-0.,6.500000006));
#1165=CARTESIAN_POINT('',(8.,-1.150226352,6.431818188));
#1166=CARTESIAN_POINT('',(7.675943789,-2.253860455,6.36363637));
#1167=CARTESIAN_POINT('',(7.351887578,-3.357494558,6.295454553));
#1168=CARTESIAN_POINT('',(6.730028263,-4.32512654,6.227272735));
#1169=CARTESIAN_POINT('',(6.108168947,-5.292758522,6.159090917));
#1170=CARTESIAN_POINT('',(5.238885872,-6.045996595,6.090909099));
#1171=CARTESIAN_POINT('',(4.369602796,-6.799234668,6.022727281));
#1172=CARTESIAN_POINT('',(3.323320104,-7.277055963,5.954545463));
#1173=CARTESIAN_POINT('',(2.277037412,-7.754877258,5.886363645));
#1174=CARTESIAN_POINT('',(1.138518706,-7.918571535,5.818181827));
#1175=CARTESIAN_POINT('',(0.,-8.082265812,5.750000009));
#1176=CARTESIAN_POINT('',(-1.138518706,-7.918571535,5.681818191));
#1177=CARTESIAN_POINT('',(-2.277037412,-7.754877258,5.613636374));
#1178=CARTESIAN_POINT('',(-3.323320104,-7.277055963,5.545454556));
#1179=CARTESIAN_POINT('',(-4.369602796,-6.799234668,5.477272738));
#1180=CARTESIAN_POINT('',(-5.238885872,-6.045996595,5.40909092));
#1181=CARTESIAN_POINT('',(-6.108168947,-5.292758522,5.340909102));
#1182=CARTESIAN_POINT('',(-6.730028263,-4.32512654,5.272727284));
#1183=CARTESIAN_POINT('',(-7.351887578,-3.357494558,5.204545466));
#1184=CARTESIAN_POINT('',(-7.675943789,-2.253860455,5.136363648));
#1185=CARTESIAN_POINT('',(-8.,-1.150226352,5.06818183));
#1186=CARTESIAN_POINT('',(-8.,-0.,5.000000012));
#1187=CARTESIAN_POINT('',(-8.,1.150226352,4.931818195));
#1188=CARTESIAN_POINT('',(-7.675943789,2.253860455,4.863636377));
#1189=CARTESIAN_POINT('',(-7.351887578,3.357494558,4.795454559));
#1190=CARTESIAN_POINT('',(-6.730028263,4.32512654,4.727272741));
#1191=CARTESIAN_POINT('',(-6.108168947,5.292758522,4.659090923));
#1192=CARTESIAN_POINT('',(-5.238885872,6.045996595,4.590909105));
#1193=CARTESIAN_POINT('',(-4.369602796,6.799234668,4.522727287));
#1194=CARTESIAN_POINT('',(-3.323320104,7.277055963,4.454545469));
#1195=CARTESIAN_POINT('',(-2.277037412,7.754877258,4.386363651));
#1196=CARTESIAN_POINT('',(-1.138518706,7.918571535,4.318181834));
#1197=CARTESIAN_POINT('',(0.,8.082265812,4.250000016));
#1198=CARTESIAN_POINT('',(1.138518706,7.918571535,4.181818198));
#1199=CARTESIAN_POINT('',(2.277037412,7.754877258,4.11363638));
#1200=CARTESIAN_POINT('',(3.323320104,7.277055963,4.045454562));
#1201=CARTESIAN_POINT('',(3.670493536,7.118507169,4.022830738));
#1202=CARTESIAN_POINT('',(4.000996467,6.927627824,4.));
#1203=(BOUNDED_SURFACE()
B_SPLINE_SURFACE(1,2,((#1081,#1082,#1083,#1084,#1085,#1086,#1087,#1088,#1089,#1090,#1091,#1092,#1093,#1094,#1095,#1096,#1097,#1098,#1099,#1100,#1101,#1102,#1103,#1104,#1105,#1106,
#1107,#1108,#1109,#1110,#1111,#1112,#1113,#1114,#1115,#1116,#1117,#1118,#1119,#1120,#1121,#1122,#1123,#1124,#1125,#1126,#1127,#1128,#1129,#1130,#1131,
#1132,#1133,#1134,#1135,#1136,#1137,#1138,#1139,#1140,#1141),(#1142,#1143,#1144,#1145,#1146,#1147,#1148,#1149,#1150,#1151,#1152,#1153,#1154,#1155,#1156,#1157,#1158,#1159,#1160,#1161,#1162,#1163,#1164,#1165,#1166,#1167,
#1168,#1169,#1170,#1171,#1172,#1173,#1174,#1175,#1176,#1177,#1178,#1179,#1180,#1181,#1182,#1183,#1184,#1185,#1186,#1187,#1188,#1189,#1190,#1191,#1192,
#1193,#1194,#1195,#1196,#1197,#1198,#1199,#1200,#1201,#1202)),.UNSPECIFIED.,.F.,.F.,.U.)
B_SPLINE_SURFACE_WITH_KNOTS((2,2),(3,2,2,2,2,2,2,2,2,2,2,2,2,2,2,2,2,2,2,2,2,2,2,2,2,2,
2,2,2,2,3),(0.,1.),(0.000000001,0.002392344,0.004784689,0.007177033,0.009569378,0.011961722,0.014354067,0.016746411,0.019138756,0.0215311,0.023923445,0.026315789,0.028708134,0.031100478,0.033492823,0.035885167,0.038277512,0.040669856,0.043062201,0.045454545,0.04784689,0.050239234,0.052631579,0.055023923,0.057416268,0.059808612,
0.062200957,0.064593301,0.066985646,0.06937799,0.070177245),.UNSPECIFIED.)
GEOMETRIC_REPRESENTATION_ITEM()
RATIONAL_B_SPLINE_SURFACE(((0.999999992,0.989821446,1.,0.989821442,1.,0.989821442,1.,0.989821442,1.,0.989821442,1.,0.989821442,1.,0.989821442,1.,0.989821442,1.,0.989821442,1.,0.989821442,1.,0.989821442,1.,0.989821442,1.,0.989821442,
1.,0.989821442,1.,0.989821442,1.,0.989821442,1.,0.989821442,1.,0.989821442,1.,0.989821442,1.,0.989821442,1.,0.989821442,1.,0.989821442,1.,0.989821442,1.,0.989821442,1.,0.989821442,1.,
0.989821442,1.,0.989821442,1.,0.989821442,1.,0.989821442,1.,0.996599463,0.995471085),(0.999999992,0.989821446,1.,0.989821442,1.,0.989821442,1.,0.989821442,1.,0.989821442,1.,0.989821442,1.,0.989821442,1.,0.989821442,1.,0.989821442,1.,0.989821442,1.,0.989821442,1.,0.989821442,1.,0.989821442,
1.,0.989821442,1.,0.989821442,1.,0.989821442,1.,0.989821442,1.,0.989821442,1.,0.989821442,1.,0.989821442,1.,0.989821442,1.,0.989821442,1.,0.989821442,1.,0.989821442,1.,0.989821442,1.,
0.989821442,1.,0.989821442,1.,0.989821442,1.,0.989821442,1.,0.996599463,0.995471085)))
REPRESENTATION_ITEM('')
SURFACE()
);
#1204=CARTESIAN_POINT('',(4.000997854,-6.927627023,6.000000121));
#1205=CARTESIAN_POINT('',(3.670494266,-7.118506836,5.977169335));
#1206=CARTESIAN_POINT('',(3.323320104,-7.277055963,5.954545463));
#1207=CARTESIAN_POINT('',(2.277037412,-7.754877258,5.886363645));
#1208=CARTESIAN_POINT('',(1.138518706,-7.918571535,5.818181827));
#1209=CARTESIAN_POINT('',(0.,-8.082265812,5.750000009));
#1210=CARTESIAN_POINT('',(-1.138518706,-7.918571535,5.681818191));
#1211=CARTESIAN_POINT('',(-2.277037412,-7.754877258,5.613636374));
#1212=CARTESIAN_POINT('',(-3.323320104,-7.277055963,5.545454556));
#1213=CARTESIAN_POINT('',(-4.369602796,-6.799234668,5.477272738));
#1214=CARTESIAN_POINT('',(-5.238885872,-6.045996595,5.40909092));
#1215=CARTESIAN_POINT('',(-6.108168947,-5.292758522,5.340909102));
#1216=CARTESIAN_POINT('',(-6.730028263,-4.32512654,5.272727284));
#1217=CARTESIAN_POINT('',(-7.351887578,-3.357494558,5.204545466));
#1218=CARTESIAN_POINT('',(-7.675943789,-2.253860455,5.136363648));
#1219=CARTESIAN_POINT('',(-8.,-1.150226352,5.06818183));
#1220=CARTESIAN_POINT('',(-8.,-0.,5.000000012));
#1221=CARTESIAN_POINT('',(-8.,1.150226352,4.931818195));
#1222=CARTESIAN_POINT('',(-7.675943789,2.253860455,4.863636377));
#1223=CARTESIAN_POINT('',(-7.351887578,3.357494558,4.795454559));
#1224=CARTESIAN_POINT('',(-6.730028263,4.32512654,4.727272741));
#1225=CARTESIAN_POINT('',(-6.108168947,5.292758522,4.659090923));
#1226=CARTESIAN_POINT('',(-5.238885872,6.045996595,4.590909105));
#1227=CARTESIAN_POINT('',(-4.369602796,6.799234668,4.522727287));
#1228=CARTESIAN_POINT('',(-3.323320104,7.277055963,4.454545469));
#1229=CARTESIAN_POINT('',(-2.277037412,7.754877258,4.386363651));
#1230=CARTESIAN_POINT('',(-1.138518706,7.918571535,4.318181834));
#1231=CARTESIAN_POINT('',(-0.,8.082265812,4.250000016));
#1232=CARTESIAN_POINT('',(1.138518706,7.918571535,4.181818198));
#1233=CARTESIAN_POINT('',(2.277037412,7.754877258,4.11363638));
#1234=CARTESIAN_POINT('',(3.323320104,7.277055963,4.045454562));
#1235=CARTESIAN_POINT('',(3.670494456,7.118506749,4.022830678));
#1236=CARTESIAN_POINT('',(4.000998216,6.927626814,3.999999879));
#1237=(BOUNDED_CURVE()
B_SPLINE_CURVE(2,(#1204,#1205,#1206,#1207,#1208,#1209,#1210,#1211,#1212,#1213,#1214,#1215,#1216,#1217,#1218,#1219,#1220,#1221,#1222,#1223,#1224,#1225,#1226,#1227,#1228,#1229,
#1230,#1231,#1232,#1233,#1234,#1235,#1236),.UNSPECIFIED.,.F.,.F.)
B_SPLINE_CURVE_WITH_KNOTS((3,2,2,2,2,2,2,2,2,2,2,2,2,2,2,2,3),(0.035085912,0.035885167,0.038277512,0.040669856,0.043062201,0.045454545,0.04784689,0.050239234,0.052631579,0.055023923,0.057416268,0.059808612,0.062200957,0.064593301,0.066985646,0.06937799,0.070177247),.UNSPECIFIED.)
CURVE()
GEOMETRIC_REPRESENTATION_ITEM()
RATIONAL_B_SPLINE_CURVE((0.99547108,0.996599456,1.,0.989821442,1.,0.989821442,1.,0.989821442,1.,0.989821442,1.,0.989821442,1.,0.989821442,1.,0.989821442,1.,0.989821442,1.,0.989821442,1.,0.989821442,1.,0.989821442,1.,0.989821442,
1.,0.989821442,1.,0.989821442,1.,0.996599454,0.995471079))
REPRESENTATION_ITEM(''));
#1238=EDGE_CURVE('',#595,#811,#1237,.T.);
#1239=ORIENTED_EDGE('',*,*,#1238,.T.);
#1240=ORIENTED_EDGE('',*,*,#889,.T.);
#1241=ORIENTED_EDGE('',*,*,#783,.T.);
#1242=ORIENTED_EDGE('',*,*,#89,.F.);
#1243=CARTESIAN_POINT('',(-7.,-0.,7.));
#1244=CARTESIAN_POINT('',(-7.,1.006448058,6.931818182));
#1245=CARTESIAN_POINT('',(-6.716450815,1.972127898,6.863636364));
#1246=CARTESIAN_POINT('',(-6.432901631,2.937807738,6.795454546));
#1247=CARTESIAN_POINT('',(-5.88877473,3.784485722,6.727272728));
#1248=CARTESIAN_POINT('',(-5.344647829,4.631163707,6.659090911));
#1249=CARTESIAN_POINT('',(-4.584025138,5.29024702,6.590909093));
#1250=CARTESIAN_POINT('',(-3.823402446,5.949330334,6.522727275));
#1251=CARTESIAN_POINT('',(-2.907905091,6.367423967,6.454545457));
#1252=CARTESIAN_POINT('',(-1.992407736,6.785517601,6.386363639));
#1253=CARTESIAN_POINT('',(-0.996203868,6.928750093,6.318181821));
#1254=CARTESIAN_POINT('',(0.,7.071982586,6.250000003));
#1255=CARTESIAN_POINT('',(0.996203868,6.928750093,6.181818185));
#1256=CARTESIAN_POINT('',(1.992407736,6.785517601,6.113636367));
#1257=CARTESIAN_POINT('',(2.907905091,6.367423967,6.045454549));
#1258=CARTESIAN_POINT('',(3.823402446,5.949330334,5.977272732));
#1259=CARTESIAN_POINT('',(4.584025138,5.29024702,5.909090914));
#1260=CARTESIAN_POINT('',(5.344647829,4.631163707,5.840909096));
#1261=CARTESIAN_POINT('',(5.88877473,3.784485722,5.772727278));
#1262=CARTESIAN_POINT('',(6.432901631,2.937807738,5.70454546));
#1263=CARTESIAN_POINT('',(6.716450815,1.972127898,5.636363642));
#1264=CARTESIAN_POINT('',(7.,1.006448058,5.568181824));
#1265=CARTESIAN_POINT('',(7.,-0.,5.500000006));
#1266=CARTESIAN_POINT('',(7.,-1.006448058,5.431818188));
#1267=CARTESIAN_POINT('',(6.716450815,-1.972127898,5.36363637));
#1268=CARTESIAN_POINT('',(6.432901631,-2.937807738,5.295454553));
#1269=CARTESIAN_POINT('',(5.88877473,-3.784485722,5.227272735));
#1270=CARTESIAN_POINT('',(5.344647829,-4.631163707,5.159090917));
#1271=CARTESIAN_POINT('',(4.584025138,-5.29024702,5.090909099));
#1272=CARTESIAN_POINT('',(3.823402446,-5.949330334,5.022727281));
#1273=CARTESIAN_POINT('',(2.907905091,-6.367423967,4.954545463));
#1274=CARTESIAN_POINT('',(1.992407736,-6.785517601,4.886363645));
#1275=CARTESIAN_POINT('',(0.996203868,-6.928750093,4.818181827));
#1276=CARTESIAN_POINT('',(0.,-7.071982586,4.750000009));
#1277=CARTESIAN_POINT('',(-0.996203868,-6.928750093,4.681818191));
#1278=CARTESIAN_POINT('',(-1.992407736,-6.785517601,4.613636374));
#1279=CARTESIAN_POINT('',(-2.907905091,-6.367423967,4.545454556));
#1280=CARTESIAN_POINT('',(-3.823402446,-5.949330334,4.477272738));
#1281=CARTESIAN_POINT('',(-4.584025138,-5.29024702,4.40909092));
#1282=CARTESIAN_POINT('',(-5.344647829,-4.631163707,4.340909102));
#1283=CARTESIAN_POINT('',(-5.88877473,-3.784485722,4.272727284));
#1284=CARTESIAN_POINT('',(-6.432901631,-2.937807738,4.204545466));
#1285=CARTESIAN_POINT('',(-6.716450815,-1.972127898,4.136363648));
#1286=CARTESIAN_POINT('',(-7.,-1.006448058,4.06818183));
#1287=CARTESIAN_POINT('',(-7.,-0.,4.000000012));
#1288=(BOUNDED_CURVE()
B_SPLINE_CURVE(2,(#1243,#1244,#1245,#1246,#1247,#1248,#1249,#1250,#1251,#1252,#1253,#1254,#1255,#1256,#1257,#1258,#1259,#1260,#1261,#1262,#1263,#1264,#1265,#1266,#1267,#1268,
#1269,#1270,#1271,#1272,#1273,#1274,#1275,#1276,#1277,#1278,#1279,#1280,#1281,#1282,#1283,#1284,#1285,#1286,#1287),.UNSPECIFIED.,.F.,.F.)
B_SPLINE_CURVE_WITH_KNOTS((3,2,2,2,2,2,2,2,2,2,2,2,2,2,2,2,2,2,2,2,2,2,3),(0.,0.002392344,0.004784689,0.007177033,0.009569378,0.011961722,0.014354067,0.016746411,0.019138756,0.0215311,0.023923445,0.026315789,0.028708134,0.031100478,0.033492823,0.035885167,0.038277512,0.040669856,0.043062201,0.045454545,0.04784689,0.050239234,0.052631579),.UNSPECIFIED.)
CURVE()
GEOMETRIC_REPRESENTATION_ITEM()
RATIONAL_B_SPLINE_CURVE((1.,0.989821442,1.,0.989821442,1.,0.989821442,1.,0.989821442,1.,0.989821442,1.,0.989821442,1.,0.989821442,1.,0.989821442,1.,0.989821442,1.,0.989821442,1.,0.989821442,1.,0.989821442,1.,0.989821442,
1.,0.989821442,1.,0.989821442,1.,0.989821442,1.,0.989821442,1.,0.989821442,1.,0.989821442,1.,0.989821442,1.,0.989821442,1.,0.989821442,1.))
REPRESENTATION_ITEM(''));
#1289=EDGE_CURVE('',#433,#59,#1288,.T.);
#1290=ORIENTED_EDGE('',*,*,#1289,.F.);
#1291=ORIENTED_EDGE('',*,*,#549,.F.);
#1292=ORIENTED_EDGE('',*,*,#713,.F.);
#1293=EDGE_LOOP('',(#1239,#1240,#1241,#1242,#1290,#1291,#1292));
#1294=FACE_BOUND('',#1293,.T.);
#1295=ADVANCED_FACE('',(#1294),#1203,.T.);
#1296=CARTESIAN_POINT('',(0.,-0.,-42.));
#1297=DIRECTION('',(-0.,0.,1.));
#1298=DIRECTION('',(1.,0.,0.));
#1299=AXIS2_PLACEMENT_3D('',#1296,#1297,#1298);
#1300=CYLINDRICAL_SURFACE('',#1299,7.);
#1301=ORIENTED_EDGE('',*,*,#440,.F.);
#1302=ORIENTED_EDGE('',*,*,#1289,.T.);
#1303=ORIENTED_EDGE('',*,*,#65,.F.);
#1304=ORIENTED_EDGE('',*,*,#1038,.F.);
#1305=EDGE_LOOP('',(#1301,#1302,#1303,#1304));
#1306=FACE_BOUND('',#1305,.T.);
#1307=ADVANCED_FACE('',(#1306),#1300,.T.);
#1308=CARTESIAN_POINT('',(0.,-0.,8.));
#1309=DIRECTION('',(-0.,0.,-1.));
#1310=DIRECTION('',(-1.,0.,0.));
#1311=AXIS2_PLACEMENT_3D('',#1308,#1309,#1310);
#1312=CYLINDRICAL_SURFACE('',#1311,8.);
#1313=ORIENTED_EDGE('',*,*,#818,.F.);
#1314=ORIENTED_EDGE('',*,*,#1238,.F.);
#1315=ORIENTED_EDGE('',*,*,#601,.T.);
#1316=ORIENTED_EDGE('',*,*,#1075,.T.);
#1317=EDGE_LOOP('',(#1313,#1314,#1315,#1316));
#1318=FACE_BOUND('',#1317,.T.);
#1319=ADVANCED_FACE('',(#1318),#1312,.T.);
#1320=CLOSED_SHELL('',(#100,#151,#185,#220,#254,#317,#380,#406,#426,#553,#717,#794,#804,#893,#1080,#1295,#1307,#1319));
#1321=MANIFOLD_SOLID_BREP('Body 05 (1)',#1320);
#1322=COLOUR_RGB('',0.494117647,0.494117647,0.525490224);
#1323=FILL_AREA_STYLE_COLOUR('',#1322);
#1324=FILL_AREA_STYLE('',(#1323));
#1325=SURFACE_STYLE_FILL_AREA(#1324);
#1326=SURFACE_SIDE_STYLE('',(#1325));
#1327=SURFACE_STYLE_USAGE(.BOTH.,#1326);
#1328=PRESENTATION_STYLE_ASSIGNMENT((#1327));
#26=STYLED_ITEM('',(#1328),#1321);
#16=SHAPE_REPRESENTATION('openGrid Lite Multiconnect',(#15),#10);
#17=ADVANCED_BREP_SHAPE_REPRESENTATION('openGrid Lite Multiconnect',(#1321),#10);
#1336=SHAPE_REPRESENTATION_RELATIONSHIP('','',#16,#17);
#1337=CARTESIAN_POINT('',(0.,0.,0.));
#1338=DIRECTION('',(0.,0.,1.));
#1339=DIRECTION('',(1.,0.,0.));
#1340=AXIS2_PLACEMENT_3D('',#1337,#1338,#1339);
#1342=MAPPED_ITEM('',#1341,#1340);
#1341=REPRESENTATION_MAP(#1340,#16);
#1343=APPLICATION_CONTEXT('Managed model based 3d engineering');
#1344=APPLICATION_PROTOCOL_DEFINITION('international standard','ap242_managed_model_based_3d_engineering',2014,#1343);
#1345=PRODUCT_CONTEXT('',#1343,'mechanical');
#1346=PRODUCT_DEFINITION_CONTEXT('part definition',#1343,'design');
#24=PRODUCT('openGrid Lite Multiconnect','openGrid Lite Multiconnect','',(#1345));
#1347=PRODUCT_RELATED_PRODUCT_CATEGORY('part','',(#24));
#1348=PRODUCT_DEFINITION_FORMATION_WITH_SPECIFIED_SOURCE('','',#24,.NOT_KNOWN.);
#25=PRODUCT_DEFINITION('design','',#1348,#1346);
#23=PRODUCT_DEFINITION_SHAPE('','',#25);
#1349=SHAPE_DEFINITION_REPRESENTATION(#23,#16);
#11=DRAUGHTING_MODEL('',(#1342),#10);
#1350=DESCRIPTIVE_REPRESENTATION_ITEM('KEY','/Users/ddanier/Library/Containers/com.shapr3d.shapr/Data/tmp/893C30BA-DB2E-4BD2-8714-D4FA2564D9E9.tmp');
#1351=PROPERTY_DEFINITION('KEY','',#25);
#1352=REPRESENTATION('',(#1350),#10);
#1353=PROPERTY_DEFINITION_REPRESENTATION(#1351,#1352);
#1354=GENERAL_PROPERTY('','KEY','');
#1355=GENERAL_PROPERTY_ASSOCIATION('','',#1354,#1351);
#1=MECHANICAL_DESIGN_GEOMETRIC_PRESENTATION_REPRESENTATION('',(#26),#10);
ENDSEC;
END-ISO-10303-21;
