ISO-10303-21;
HEADER;

/* File generated by Shapr3D Version 5.970.0.9661 */

FILE_DESCRIPTION(('HOOPS Exchange Step'),'2;1');

FILE_NAME('/Users/ddanier/Library/Containers/com.shapr3d.shapr/Data/tmp/export/temp_export',
'2025-10-20T16:28:40+02:00',
('ddanier'),
('Shapr3D Limited'),
'HOOPS Exchange 2025.6',
'Shapr3D',
'Authorized');

FILE_SCHEMA( ('AP242_MANAGED_MODEL_BASED_3D_ENGINEERING_MIM_LF {1 0 10303 442 1 1 4}') );

ENDSEC;

DATA;
#3=(NAMED_UNIT(*)PLANE_ANGLE_UNIT()SI_UNIT($,.RADIAN.));
#4=PLANE_ANGLE_MEASURE_WITH_UNIT(PLANE_ANGLE_MEASURE(0.0174532925),#3);
#5=(CONVERSION_BASED_UNIT('DEGREE',#4)NAMED_UNIT(#6)PLANE_ANGLE_UNIT());
#6=DIMENSIONAL_EXPONENTS(0.,0.,0.,0.,0.,0.,0.);
#7=(NAMED_UNIT(*)SI_UNIT($,.STERADIAN.)SOLID_ANGLE_UNIT());
#8=(LENGTH_UNIT()NAMED_UNIT(*)SI_UNIT(.MILLI.,.METRE.));
#9=UNCERTAINTY_MEASURE_WITH_UNIT(LENGTH_MEASURE(1.000000E-05),#8,'DISTANCE_ACCURACY_VALUE','Maximum Tolerance applied to model');
#10=(GEOMETRIC_REPRESENTATION_CONTEXT(3)GLOBAL_UNCERTAINTY_ASSIGNED_CONTEXT((#9))GLOBAL_UNIT_ASSIGNED_CONTEXT((#8,#5,#7))REPRESENTATION_CONTEXT('','OpenGrid Edge Connector Negative'));
#12=CARTESIAN_POINT('',(0.,0.,0.));
#13=DIRECTION('',(0.,0.,1.));
#14=DIRECTION('',(1.,0.,0.));
#15=AXIS2_PLACEMENT_3D('',#12,#13,#14);
#27=CARTESIAN_POINT('',(1.13706751,-2.1,2.4));
#28=DIRECTION('',(0.,0.,-1.));
#29=DIRECTION('',(-1.,0.,0.));
#30=AXIS2_PLACEMENT_3D('',#27,#28,#29);
#31=CYLINDRICAL_SURFACE('',#30,0.5);
#32=CARTESIAN_POINT('',(1.13706751,-2.6,2.4));
#33=VERTEX_POINT('',#32);
#34=CARTESIAN_POINT('',(1.343880461,-2.555223465,2.4));
#35=VERTEX_POINT('',#34);
#36=CARTESIAN_POINT('',(1.13706751,-2.1,2.4));
#37=DIRECTION('',(0.,0.,1.));
#38=DIRECTION('',(1.,0.,-0.));
#39=AXIS2_PLACEMENT_3D('',#36,#37,#38);
#40=CIRCLE('',#39,0.5);
#41=EDGE_CURVE('',#33,#35,#40,.T.);
#42=ORIENTED_EDGE('',*,*,#41,.F.);
#43=CARTESIAN_POINT('',(1.13706751,-2.6,-0.));
#44=VERTEX_POINT('',#43);
#45=CARTESIAN_POINT('',(1.13706751,-2.6,-0.));
#46=DIRECTION('',(0.,0.,1.));
#47=VECTOR('',#46,2.4);
#48=LINE('',#45,#47);
#49=EDGE_CURVE('',#44,#33,#48,.T.);
#50=ORIENTED_EDGE('',*,*,#49,.F.);
#51=CARTESIAN_POINT('',(1.343880461,-2.555223465,-0.));
#52=VERTEX_POINT('',#51);
#53=CARTESIAN_POINT('',(1.13706751,-2.1,-0.));
#54=DIRECTION('',(-0.,-0.,-1.));
#55=DIRECTION('',(1.,0.,-0.));
#56=AXIS2_PLACEMENT_3D('',#53,#54,#55);
#57=CIRCLE('',#56,0.5);
#58=EDGE_CURVE('',#52,#44,#57,.T.);
#59=ORIENTED_EDGE('',*,*,#58,.F.);
#60=CARTESIAN_POINT('',(1.343880461,-2.555223465,2.4));
#61=DIRECTION('',(0.,0.,-1.));
#62=VECTOR('',#61,2.4);
#63=LINE('',#60,#62);
#64=EDGE_CURVE('',#35,#52,#63,.T.);
#65=ORIENTED_EDGE('',*,*,#64,.F.);
#66=EDGE_LOOP('',(#42,#50,#59,#65));
#67=FACE_BOUND('',#66,.T.);
#68=ADVANCED_FACE('',(#67),#31,.T.);
#69=CARTESIAN_POINT('',(0.625,-2.6,2.4));
#70=DIRECTION('',(0.,1.,0.));
#71=DIRECTION('',(0.,0.,1.));
#72=AXIS2_PLACEMENT_3D('',#69,#70,#71);
#73=PLANE('',#72);
#74=CARTESIAN_POINT('',(0.,-2.6,-0.));
#75=VERTEX_POINT('',#74);
#76=CARTESIAN_POINT('',(0.,-2.6,-0.));
#77=DIRECTION('',(1.,0.,-0.));
#78=VECTOR('',#77,1.13706751);
#79=LINE('',#76,#78);
#80=EDGE_CURVE('',#75,#44,#79,.T.);
#81=ORIENTED_EDGE('',*,*,#80,.T.);
#82=ORIENTED_EDGE('',*,*,#49,.T.);
#83=CARTESIAN_POINT('',(0.,-2.6,2.4));
#84=VERTEX_POINT('',#83);
#85=CARTESIAN_POINT('',(0.,-2.6,2.4));
#86=DIRECTION('',(1.,0.,-0.));
#87=VECTOR('',#86,1.13706751);
#88=LINE('',#85,#87);
#89=EDGE_CURVE('',#84,#33,#88,.T.);
#90=ORIENTED_EDGE('',*,*,#89,.F.);
#91=CARTESIAN_POINT('',(0.,-2.6,2.4));
#92=DIRECTION('',(0.,0.,-1.));
#93=VECTOR('',#92,2.4);
#94=LINE('',#91,#93);
#95=EDGE_CURVE('',#84,#75,#94,.T.);
#96=ORIENTED_EDGE('',*,*,#95,.T.);
#97=EDGE_LOOP('',(#81,#82,#90,#96));
#98=FACE_BOUND('',#97,.T.);
#99=ADVANCED_FACE('',(#98),#73,.F.);
#100=CARTESIAN_POINT('',(-0.,-0.,2.4));
#101=DIRECTION('',(0.,0.,-1.));
#102=DIRECTION('',(-1.,0.,0.));
#103=AXIS2_PLACEMENT_3D('',#100,#101,#102);
#104=CYLINDRICAL_SURFACE('',#103,2.6);
#105=CARTESIAN_POINT('',(-2.6,0.,-0.));
#106=VERTEX_POINT('',#105);
#107=CARTESIAN_POINT('',(-2.6,0.,2.4));
#108=VERTEX_POINT('',#107);
#109=CARTESIAN_POINT('',(-2.6,-0.,-0.));
#110=DIRECTION('',(-0.,-0.,1.));
#111=VECTOR('',#110,2.4);
#112=LINE('',#109,#111);
#113=EDGE_CURVE('',#106,#108,#112,.T.);
#114=ORIENTED_EDGE('',*,*,#113,.T.);
#115=CARTESIAN_POINT('',(-0.,2.6,2.4));
#116=VERTEX_POINT('',#115);
#117=CARTESIAN_POINT('',(-0.,-0.,2.4));
#118=DIRECTION('',(0.,0.,1.));
#119=DIRECTION('',(1.,0.,-0.));
#120=AXIS2_PLACEMENT_3D('',#117,#118,#119);
#121=CIRCLE('',#120,2.6);
#122=EDGE_CURVE('',#116,#108,#121,.T.);
#123=ORIENTED_EDGE('',*,*,#122,.F.);
#124=CARTESIAN_POINT('',(-0.,2.6,-0.));
#125=VERTEX_POINT('',#124);
#126=CARTESIAN_POINT('',(-0.,2.6,2.4));
#127=DIRECTION('',(0.,0.,-1.));
#128=VECTOR('',#127,2.4);
#129=LINE('',#126,#128);
#130=EDGE_CURVE('',#116,#125,#129,.T.);
#131=ORIENTED_EDGE('',*,*,#130,.T.);
#132=CARTESIAN_POINT('',(-0.,-0.,-0.));
#133=DIRECTION('',(0.,0.,1.));
#134=DIRECTION('',(1.,0.,-0.));
#135=AXIS2_PLACEMENT_3D('',#132,#133,#134);
#136=CIRCLE('',#135,2.6);
#137=EDGE_CURVE('',#125,#106,#136,.T.);
#138=ORIENTED_EDGE('',*,*,#137,.T.);
#139=EDGE_LOOP('',(#114,#123,#131,#138));
#140=FACE_BOUND('',#139,.T.);
#141=ADVANCED_FACE('',(#140),#104,.T.);
#142=CARTESIAN_POINT('',(0.625,2.6,2.4));
#143=DIRECTION('',(0.,1.,0.));
#144=DIRECTION('',(0.,0.,1.));
#145=AXIS2_PLACEMENT_3D('',#142,#143,#144);
#146=PLANE('',#145);
#147=CARTESIAN_POINT('',(1.13706751,2.6,2.4));
#148=VERTEX_POINT('',#147);
#149=CARTESIAN_POINT('',(-0.,2.6,2.4));
#150=DIRECTION('',(1.,0.,-0.));
#151=VECTOR('',#150,1.13706751);
#152=LINE('',#149,#151);
#153=EDGE_CURVE('',#116,#148,#152,.T.);
#154=ORIENTED_EDGE('',*,*,#153,.T.);
#155=CARTESIAN_POINT('',(1.13706751,2.6,-0.));
#156=VERTEX_POINT('',#155);
#157=CARTESIAN_POINT('',(1.13706751,2.6,2.4));
#158=DIRECTION('',(0.,0.,-1.));
#159=VECTOR('',#158,2.4);
#160=LINE('',#157,#159);
#161=EDGE_CURVE('',#148,#156,#160,.T.);
#162=ORIENTED_EDGE('',*,*,#161,.T.);
#163=CARTESIAN_POINT('',(-0.,2.6,-0.));
#164=DIRECTION('',(1.,0.,-0.));
#165=VECTOR('',#164,1.13706751);
#166=LINE('',#163,#165);
#167=EDGE_CURVE('',#125,#156,#166,.T.);
#168=ORIENTED_EDGE('',*,*,#167,.F.);
#169=ORIENTED_EDGE('',*,*,#130,.F.);
#170=EDGE_LOOP('',(#154,#162,#168,#169));
#171=FACE_BOUND('',#170,.T.);
#172=ADVANCED_FACE('',(#171),#146,.T.);
#173=CARTESIAN_POINT('',(1.13706751,2.1,2.4));
#174=DIRECTION('',(0.,0.,-1.));
#175=DIRECTION('',(-1.,0.,0.));
#176=AXIS2_PLACEMENT_3D('',#173,#174,#175);
#177=CYLINDRICAL_SURFACE('',#176,0.5);
#178=CARTESIAN_POINT('',(1.343880461,2.555223465,2.4));
#179=VERTEX_POINT('',#178);
#180=CARTESIAN_POINT('',(1.13706751,2.1,2.4));
#181=DIRECTION('',(0.,0.,1.));
#182=DIRECTION('',(1.,0.,-0.));
#183=AXIS2_PLACEMENT_3D('',#180,#181,#182);
#184=CIRCLE('',#183,0.5);
#185=EDGE_CURVE('',#179,#148,#184,.T.);
#186=ORIENTED_EDGE('',*,*,#185,.F.);
#187=CARTESIAN_POINT('',(1.343880461,2.555223465,-0.));
#188=VERTEX_POINT('',#187);
#189=CARTESIAN_POINT('',(1.343880461,2.555223465,-0.));
#190=DIRECTION('',(-0.,-0.,1.));
#191=VECTOR('',#190,2.4);
#192=LINE('',#189,#191);
#193=EDGE_CURVE('',#188,#179,#192,.T.);
#194=ORIENTED_EDGE('',*,*,#193,.F.);
#195=CARTESIAN_POINT('',(1.13706751,2.1,-0.));
#196=DIRECTION('',(-0.,-0.,-1.));
#197=DIRECTION('',(1.,0.,-0.));
#198=AXIS2_PLACEMENT_3D('',#195,#196,#197);
#199=CIRCLE('',#198,0.5);
#200=EDGE_CURVE('',#156,#188,#199,.T.);
#201=ORIENTED_EDGE('',*,*,#200,.F.);
#202=ORIENTED_EDGE('',*,*,#161,.F.);
#203=EDGE_LOOP('',(#186,#194,#201,#202));
#204=FACE_BOUND('',#203,.T.);
#205=ADVANCED_FACE('',(#204),#177,.T.);
#206=CARTESIAN_POINT('',(2.5,5.1,2.4));
#207=DIRECTION('',(0.,0.,-1.));
#208=DIRECTION('',(-1.,0.,0.));
#209=AXIS2_PLACEMENT_3D('',#206,#207,#208);
#210=CYLINDRICAL_SURFACE('',#209,2.795084972);
#211=CARTESIAN_POINT('',(2.225442863,2.318432388,-0.));
#212=VERTEX_POINT('',#211);
#213=CARTESIAN_POINT('',(2.5,5.1,-0.));
#214=DIRECTION('',(0.,0.,1.));
#215=DIRECTION('',(1.,0.,-0.));
#216=AXIS2_PLACEMENT_3D('',#213,#214,#215);
#217=CIRCLE('',#216,2.795084972);
#218=EDGE_CURVE('',#188,#212,#217,.T.);
#219=ORIENTED_EDGE('',*,*,#218,.F.);
#220=ORIENTED_EDGE('',*,*,#193,.T.);
#221=CARTESIAN_POINT('',(2.225442863,2.318432388,2.4));
#222=VERTEX_POINT('',#221);
#223=CARTESIAN_POINT('',(2.5,5.1,2.4));
#224=DIRECTION('',(0.,0.,1.));
#225=DIRECTION('',(1.,0.,-0.));
#226=AXIS2_PLACEMENT_3D('',#223,#224,#225);
#227=CIRCLE('',#226,2.795084972);
#228=EDGE_CURVE('',#179,#222,#227,.T.);
#229=ORIENTED_EDGE('',*,*,#228,.T.);
#230=CARTESIAN_POINT('',(2.225442863,2.318432388,2.4));
#231=DIRECTION('',(0.,0.,-1.));
#232=VECTOR('',#231,2.4);
#233=LINE('',#230,#232);
#234=EDGE_CURVE('',#222,#212,#233,.T.);
#235=ORIENTED_EDGE('',*,*,#234,.T.);
#236=EDGE_LOOP('',(#219,#220,#229,#235));
#237=FACE_BOUND('',#236,.T.);
#238=ADVANCED_FACE('',(#237),#210,.F.);
#239=CARTESIAN_POINT('',(2.5,-5.1,2.4));
#240=DIRECTION('',(0.,0.,-1.));
#241=DIRECTION('',(-1.,0.,0.));
#242=AXIS2_PLACEMENT_3D('',#239,#240,#241);
#243=CYLINDRICAL_SURFACE('',#242,2.795084972);
#244=CARTESIAN_POINT('',(2.225442863,-2.318432388,2.4));
#245=VERTEX_POINT('',#244);
#246=CARTESIAN_POINT('',(2.5,-5.1,2.4));
#247=DIRECTION('',(0.,0.,1.));
#248=DIRECTION('',(1.,0.,-0.));
#249=AXIS2_PLACEMENT_3D('',#246,#247,#248);
#250=CIRCLE('',#249,2.795084972);
#251=EDGE_CURVE('',#245,#35,#250,.T.);
#252=ORIENTED_EDGE('',*,*,#251,.T.);
#253=ORIENTED_EDGE('',*,*,#64,.T.);
#254=CARTESIAN_POINT('',(2.225442863,-2.318432388,-0.));
#255=VERTEX_POINT('',#254);
#256=CARTESIAN_POINT('',(2.5,-5.1,-0.));
#257=DIRECTION('',(0.,0.,1.));
#258=DIRECTION('',(1.,0.,-0.));
#259=AXIS2_PLACEMENT_3D('',#256,#257,#258);
#260=CIRCLE('',#259,2.795084972);
#261=EDGE_CURVE('',#255,#52,#260,.T.);
#262=ORIENTED_EDGE('',*,*,#261,.F.);
#263=CARTESIAN_POINT('',(2.225442863,-2.318432388,-0.));
#264=DIRECTION('',(-0.,-0.,1.));
#265=VECTOR('',#264,2.4);
#266=LINE('',#263,#265);
#267=EDGE_CURVE('',#255,#245,#266,.T.);
#268=ORIENTED_EDGE('',*,*,#267,.T.);
#269=EDGE_LOOP('',(#252,#253,#262,#268));
#270=FACE_BOUND('',#269,.T.);
#271=ADVANCED_FACE('',(#270),#243,.F.);
#272=CARTESIAN_POINT('',(2.25,2.567223359,2.4));
#273=DIRECTION('',(0.,0.,-1.));
#274=DIRECTION('',(-1.,0.,0.));
#275=AXIS2_PLACEMENT_3D('',#272,#273,#274);
#276=CYLINDRICAL_SURFACE('',#275,0.25);
#277=CARTESIAN_POINT('',(2.5,2.567223359,2.4));
#278=VERTEX_POINT('',#277);
#279=CARTESIAN_POINT('',(2.25,2.567223359,2.4));
#280=DIRECTION('',(-0.,-0.,-1.));
#281=DIRECTION('',(1.,0.,-0.));
#282=AXIS2_PLACEMENT_3D('',#279,#280,#281);
#283=CIRCLE('',#282,0.25);
#284=EDGE_CURVE('',#278,#222,#283,.T.);
#285=ORIENTED_EDGE('',*,*,#284,.F.);
#286=CARTESIAN_POINT('',(2.5,2.567223359,-0.));
#287=VERTEX_POINT('',#286);
#288=CARTESIAN_POINT('',(2.5,2.567223359,-0.));
#289=DIRECTION('',(0.,0.,1.));
#290=VECTOR('',#289,2.4);
#291=LINE('',#288,#290);
#292=EDGE_CURVE('',#287,#278,#291,.T.);
#293=ORIENTED_EDGE('',*,*,#292,.F.);
#294=CARTESIAN_POINT('',(2.25,2.567223359,-0.));
#295=DIRECTION('',(0.,0.,1.));
#296=DIRECTION('',(1.,0.,-0.));
#297=AXIS2_PLACEMENT_3D('',#294,#295,#296);
#298=CIRCLE('',#297,0.25);
#299=EDGE_CURVE('',#212,#287,#298,.T.);
#300=ORIENTED_EDGE('',*,*,#299,.F.);
#301=ORIENTED_EDGE('',*,*,#234,.F.);
#302=EDGE_LOOP('',(#285,#293,#300,#301));
#303=FACE_BOUND('',#302,.T.);
#304=ADVANCED_FACE('',(#303),#276,.F.);
#305=CARTESIAN_POINT('',(2.25,-2.567223359,2.4));
#306=DIRECTION('',(0.,0.,-1.));
#307=DIRECTION('',(-1.,0.,0.));
#308=AXIS2_PLACEMENT_3D('',#305,#306,#307);
#309=CYLINDRICAL_SURFACE('',#308,0.25);
#310=CARTESIAN_POINT('',(2.5,-2.567223359,2.4));
#311=VERTEX_POINT('',#310);
#312=CARTESIAN_POINT('',(2.25,-2.567223359,2.4));
#313=DIRECTION('',(-0.,-0.,-1.));
#314=DIRECTION('',(1.,0.,-0.));
#315=AXIS2_PLACEMENT_3D('',#312,#313,#314);
#316=CIRCLE('',#315,0.25);
#317=EDGE_CURVE('',#245,#311,#316,.T.);
#318=ORIENTED_EDGE('',*,*,#317,.F.);
#319=ORIENTED_EDGE('',*,*,#267,.F.);
#320=CARTESIAN_POINT('',(2.5,-2.567223359,-0.));
#321=VERTEX_POINT('',#320);
#322=CARTESIAN_POINT('',(2.25,-2.567223359,-0.));
#323=DIRECTION('',(0.,0.,1.));
#324=DIRECTION('',(1.,0.,-0.));
#325=AXIS2_PLACEMENT_3D('',#322,#323,#324);
#326=CIRCLE('',#325,0.25);
#327=EDGE_CURVE('',#321,#255,#326,.T.);
#328=ORIENTED_EDGE('',*,*,#327,.F.);
#329=CARTESIAN_POINT('',(2.5,-2.567223359,2.4));
#330=DIRECTION('',(-0.,-0.,-1.));
#331=VECTOR('',#330,2.4);
#332=LINE('',#329,#331);
#333=EDGE_CURVE('',#311,#321,#332,.T.);
#334=ORIENTED_EDGE('',*,*,#333,.F.);
#335=EDGE_LOOP('',(#318,#319,#328,#334));
#336=FACE_BOUND('',#335,.T.);
#337=ADVANCED_FACE('',(#336),#309,.F.);
#338=CARTESIAN_POINT('',(0.,0.,2.4));
#339=DIRECTION('',(0.,0.,1.));
#340=DIRECTION('',(1.,0.,0.));
#341=AXIS2_PLACEMENT_3D('',#338,#339,#340);
#342=PLANE('',#341);
#343=ORIENTED_EDGE('',*,*,#228,.F.);
#344=ORIENTED_EDGE('',*,*,#185,.T.);
#345=ORIENTED_EDGE('',*,*,#153,.F.);
#346=ORIENTED_EDGE('',*,*,#122,.T.);
#347=CARTESIAN_POINT('',(-0.,-0.,2.4));
#348=DIRECTION('',(0.,0.,1.));
#349=DIRECTION('',(1.,0.,-0.));
#350=AXIS2_PLACEMENT_3D('',#347,#348,#349);
#351=CIRCLE('',#350,2.6);
#352=EDGE_CURVE('',#108,#84,#351,.T.);
#353=ORIENTED_EDGE('',*,*,#352,.T.);
#354=ORIENTED_EDGE('',*,*,#89,.T.);
#355=ORIENTED_EDGE('',*,*,#41,.T.);
#356=ORIENTED_EDGE('',*,*,#251,.F.);
#357=ORIENTED_EDGE('',*,*,#317,.T.);
#358=CARTESIAN_POINT('',(2.5,-2.567223359,2.4));
#359=DIRECTION('',(0.,1.,0.));
#360=VECTOR('',#359,5.134446718);
#361=LINE('',#358,#360);
#362=EDGE_CURVE('',#311,#278,#361,.T.);
#363=ORIENTED_EDGE('',*,*,#362,.T.);
#364=ORIENTED_EDGE('',*,*,#284,.T.);
#365=EDGE_LOOP('',(#343,#344,#345,#346,#353,#354,#355,#356,#357,#363,#364));
#366=FACE_BOUND('',#365,.T.);
#367=ADVANCED_FACE('',(#366),#342,.T.);
#368=CARTESIAN_POINT('',(0.,0.,-0.));
#369=DIRECTION('',(0.,0.,1.));
#370=DIRECTION('',(1.,0.,0.));
#371=AXIS2_PLACEMENT_3D('',#368,#369,#370);
#372=PLANE('',#371);
#373=ORIENTED_EDGE('',*,*,#167,.T.);
#374=ORIENTED_EDGE('',*,*,#200,.T.);
#375=ORIENTED_EDGE('',*,*,#218,.T.);
#376=ORIENTED_EDGE('',*,*,#299,.T.);
#377=CARTESIAN_POINT('',(2.5,-2.567223359,-0.));
#378=DIRECTION('',(0.,1.,0.));
#379=VECTOR('',#378,5.134446718);
#380=LINE('',#377,#379);
#381=EDGE_CURVE('',#321,#287,#380,.T.);
#382=ORIENTED_EDGE('',*,*,#381,.F.);
#383=ORIENTED_EDGE('',*,*,#327,.T.);
#384=ORIENTED_EDGE('',*,*,#261,.T.);
#385=ORIENTED_EDGE('',*,*,#58,.T.);
#386=ORIENTED_EDGE('',*,*,#80,.F.);
#387=CARTESIAN_POINT('',(-0.,-0.,-0.));
#388=DIRECTION('',(0.,0.,1.));
#389=DIRECTION('',(1.,0.,-0.));
#390=AXIS2_PLACEMENT_3D('',#387,#388,#389);
#391=CIRCLE('',#390,2.6);
#392=EDGE_CURVE('',#106,#75,#391,.T.);
#393=ORIENTED_EDGE('',*,*,#392,.F.);
#394=ORIENTED_EDGE('',*,*,#137,.F.);
#395=EDGE_LOOP('',(#373,#374,#375,#376,#382,#383,#384,#385,#386,#393,#394));
#396=FACE_BOUND('',#395,.T.);
#397=ADVANCED_FACE('',(#396),#372,.F.);
#398=CARTESIAN_POINT('',(2.5,0.,2.4));
#399=DIRECTION('',(-1.,0.,0.));
#400=DIRECTION('',(0.,0.,1.));
#401=AXIS2_PLACEMENT_3D('',#398,#399,#400);
#402=PLANE('',#401);
#403=ORIENTED_EDGE('',*,*,#381,.T.);
#404=ORIENTED_EDGE('',*,*,#292,.T.);
#405=ORIENTED_EDGE('',*,*,#362,.F.);
#406=ORIENTED_EDGE('',*,*,#333,.T.);
#407=EDGE_LOOP('',(#403,#404,#405,#406));
#408=FACE_BOUND('',#407,.T.);
#409=ADVANCED_FACE('',(#408),#402,.F.);
#410=CARTESIAN_POINT('',(-0.,-0.,2.4));
#411=DIRECTION('',(0.,0.,-1.));
#412=DIRECTION('',(-1.,0.,0.));
#413=AXIS2_PLACEMENT_3D('',#410,#411,#412);
#414=CYLINDRICAL_SURFACE('',#413,2.6);
#415=ORIENTED_EDGE('',*,*,#113,.F.);
#416=ORIENTED_EDGE('',*,*,#392,.T.);
#417=ORIENTED_EDGE('',*,*,#95,.F.);
#418=ORIENTED_EDGE('',*,*,#352,.F.);
#419=EDGE_LOOP('',(#415,#416,#417,#418));
#420=FACE_BOUND('',#419,.T.);
#421=ADVANCED_FACE('',(#420),#414,.T.);
#422=CLOSED_SHELL('',(#68,#99,#141,#172,#205,#238,#271,#304,#337,#367,#397,#409,#421));
#423=MANIFOLD_SOLID_BREP('OpenGrid Edge Connector Negative',#422);
#424=COLOUR_RGB('',0.494117647,0.494117647,0.525490224);
#425=FILL_AREA_STYLE_COLOUR('',#424);
#426=FILL_AREA_STYLE('',(#425));
#427=SURFACE_STYLE_FILL_AREA(#426);
#428=SURFACE_SIDE_STYLE('',(#427));
#429=SURFACE_STYLE_USAGE(.BOTH.,#428);
#430=PRESENTATION_STYLE_ASSIGNMENT((#429));
#26=STYLED_ITEM('',(#430),#423);
#16=SHAPE_REPRESENTATION('OpenGrid Edge Connector Negative',(#15),#10);
#17=ADVANCED_BREP_SHAPE_REPRESENTATION('OpenGrid Edge Connector Negative',(#423),#10);
#438=SHAPE_REPRESENTATION_RELATIONSHIP('','',#16,#17);
#439=CARTESIAN_POINT('',(0.,0.,0.));
#440=DIRECTION('',(0.,0.,1.));
#441=DIRECTION('',(1.,0.,0.));
#442=AXIS2_PLACEMENT_3D('',#439,#440,#441);
#444=MAPPED_ITEM('',#443,#442);
#443=REPRESENTATION_MAP(#442,#16);
#445=APPLICATION_CONTEXT('Managed model based 3d engineering');
#446=APPLICATION_PROTOCOL_DEFINITION('international standard','ap242_managed_model_based_3d_engineering',2014,#445);
#447=PRODUCT_CONTEXT('',#445,'mechanical');
#448=PRODUCT_DEFINITION_CONTEXT('part definition',#445,'design');
#24=PRODUCT('OpenGrid Edge Connector Negative','OpenGrid Edge Connector Negative','',(#447));
#449=PRODUCT_RELATED_PRODUCT_CATEGORY('part','',(#24));
#450=PRODUCT_DEFINITION_FORMATION_WITH_SPECIFIED_SOURCE('','',#24,.NOT_KNOWN.);
#25=PRODUCT_DEFINITION('design','',#450,#448);
#23=PRODUCT_DEFINITION_SHAPE('','',#25);
#451=SHAPE_DEFINITION_REPRESENTATION(#23,#16);
#11=DRAUGHTING_MODEL('',(#444),#10);
#452=DESCRIPTIVE_REPRESENTATION_ITEM('KEY','/Users/ddanier/Library/Containers/com.shapr3d.shapr/Data/tmp/DBFA7395-00DE-484A-A017-252BB664D67C.tmp');
#453=PROPERTY_DEFINITION('KEY','',#25);
#454=REPRESENTATION('',(#452),#10);
#455=PROPERTY_DEFINITION_REPRESENTATION(#453,#454);
#456=GENERAL_PROPERTY('','KEY','');
#457=GENERAL_PROPERTY_ASSOCIATION('','',#456,#453);
#1=MECHANICAL_DESIGN_GEOMETRIC_PRESENTATION_REPRESENTATION('',(#26),#10);
ENDSEC;
END-ISO-10303-21;
