ISO-10303-21;
HEADER;

/* File generated by Shapr3D Version 5.800.0.8232 */

FILE_DESCRIPTION(('HOOPS Exchange Step'),'2;1');

FILE_NAME('/Users/ddanier/Library/Containers/com.shapr3d.shapr/Data/tmp/export/temp_export',
'2025-03-02T21:50:35+01:00',
('ddanier'),
('Shapr3D Limited'),
'HOOPS Exchange 2024.8',
'Shapr3D',
'Authorized');

FILE_SCHEMA( ('AP242_MANAGED_MODEL_BASED_3D_ENGINEERING_MIM_LF {1 0 10303 442 1 1 4}') );

ENDSEC;

DATA;
#3=(NAMED_UNIT(*)PLANE_ANGLE_UNIT()SI_UNIT($,.RADIAN.));
#4=PLANE_ANGLE_MEASURE_WITH_UNIT(PLANE_ANGLE_MEASURE(0.0174532925),#3);
#5=(CONVERSION_BASED_UNIT('DEGREE',#4)NAMED_UNIT(#6)PLANE_ANGLE_UNIT());
#6=DIMENSIONAL_EXPONENTS(0.,0.,0.,0.,0.,0.,0.);
#7=(NAMED_UNIT(*)SI_UNIT($,.STERADIAN.)SOLID_ANGLE_UNIT());
#8=(LENGTH_UNIT()NAMED_UNIT(*)SI_UNIT(.MILLI.,.METRE.));
#9=UNCERTAINTY_MEASURE_WITH_UNIT(LENGTH_MEASURE(1.000000E-05),#8,'DISTANCE_ACCURACY_VALUE','Maximum Tolerance applied to model');
#10=(GEOMETRIC_REPRESENTATION_CONTEXT(3)GLOBAL_UNCERTAINTY_ASSIGNED_CONTEXT((#9))GLOBAL_UNIT_ASSIGNED_CONTEXT((#8,#5,#7))REPRESENTATION_CONTEXT('','openGrid Lite Connector'));
#12=CARTESIAN_POINT('',(0.,0.,0.));
#13=DIRECTION('',(0.,0.,1.));
#14=DIRECTION('',(1.,0.,0.));
#15=AXIS2_PLACEMENT_3D('TS3D_PRODUCT_CSYS',#12,#13,#14);
#27=CARTESIAN_POINT('',(13.,2.5,2.2));
#28=DIRECTION('',(0.,0.,-1.));
#29=DIRECTION('',(-1.,0.,0.));
#30=AXIS2_PLACEMENT_3D('',#27,#28,#29);
#31=CYLINDRICAL_SURFACE('',#30,4.05);
#32=CARTESIAN_POINT('',(9.070137114,1.520879121,2.2));
#33=VERTEX_POINT('',#32);
#34=CARTESIAN_POINT('',(9.172527473,1.176008289,2.2));
#35=VERTEX_POINT('',#34);
#36=CARTESIAN_POINT('',(13.,2.5,2.2));
#37=DIRECTION('',(0.,0.,1.));
#38=DIRECTION('',(1.,0.,-0.));
#39=AXIS2_PLACEMENT_3D('',#36,#37,#38);
#40=CIRCLE('',#39,4.05);
#41=EDGE_CURVE('',#33,#35,#40,.T.);
#42=ORIENTED_EDGE('',*,*,#41,.F.);
#43=CARTESIAN_POINT('',(9.070137114,1.520879121,0.));
#44=VERTEX_POINT('',#43);
#45=CARTESIAN_POINT('',(9.070137114,1.520879121,2.2));
#46=DIRECTION('',(0.,0.,-1.));
#47=VECTOR('',#46,2.2);
#48=LINE('',#45,#47);
#49=EDGE_CURVE('',#33,#44,#48,.T.);
#50=ORIENTED_EDGE('',*,*,#49,.T.);
#51=CARTESIAN_POINT('',(9.172527473,1.176008289,0.));
#52=VERTEX_POINT('',#51);
#53=CARTESIAN_POINT('',(13.,2.5,0.));
#54=DIRECTION('',(0.,0.,1.));
#55=DIRECTION('',(1.,0.,-0.));
#56=AXIS2_PLACEMENT_3D('',#53,#54,#55);
#57=CIRCLE('',#56,4.05);
#58=EDGE_CURVE('',#44,#52,#57,.T.);
#59=ORIENTED_EDGE('',*,*,#58,.T.);
#60=CARTESIAN_POINT('',(9.172527473,1.176008289,0.));
#61=DIRECTION('',(-0.,-0.,1.));
#62=VECTOR('',#61,2.2);
#63=LINE('',#60,#62);
#64=EDGE_CURVE('',#52,#35,#63,.T.);
#65=ORIENTED_EDGE('',*,*,#64,.T.);
#66=EDGE_LOOP('',(#42,#50,#59,#65));
#67=FACE_BOUND('',#66,.T.);
#68=ADVANCED_FACE('',(#67),#31,.T.);
#69=CARTESIAN_POINT('',(2.,2.5,2.2));
#70=DIRECTION('',(0.,0.,-1.));
#71=DIRECTION('',(-1.,0.,0.));
#72=AXIS2_PLACEMENT_3D('',#69,#70,#71);
#73=CYLINDRICAL_SURFACE('',#72,4.05);
#74=CARTESIAN_POINT('',(5.929862886,3.479120879,2.2));
#75=VERTEX_POINT('',#74);
#76=CARTESIAN_POINT('',(5.827472527,3.823991711,2.2));
#77=VERTEX_POINT('',#76);
#78=CARTESIAN_POINT('',(2.,2.5,2.2));
#79=DIRECTION('',(0.,0.,1.));
#80=DIRECTION('',(1.,0.,-0.));
#81=AXIS2_PLACEMENT_3D('',#78,#79,#80);
#82=CIRCLE('',#81,4.05);
#83=EDGE_CURVE('',#75,#77,#82,.T.);
#84=ORIENTED_EDGE('',*,*,#83,.F.);
#85=CARTESIAN_POINT('',(5.929862886,3.479120879,0.));
#86=VERTEX_POINT('',#85);
#87=CARTESIAN_POINT('',(5.929862886,3.479120879,2.2));
#88=DIRECTION('',(0.,0.,-1.));
#89=VECTOR('',#88,2.2);
#90=LINE('',#87,#89);
#91=EDGE_CURVE('',#75,#86,#90,.T.);
#92=ORIENTED_EDGE('',*,*,#91,.T.);
#93=CARTESIAN_POINT('',(5.827472527,3.823991711,0.));
#94=VERTEX_POINT('',#93);
#95=CARTESIAN_POINT('',(2.,2.5,0.));
#96=DIRECTION('',(0.,0.,1.));
#97=DIRECTION('',(1.,0.,-0.));
#98=AXIS2_PLACEMENT_3D('',#95,#96,#97);
#99=CIRCLE('',#98,4.05);
#100=EDGE_CURVE('',#86,#94,#99,.T.);
#101=ORIENTED_EDGE('',*,*,#100,.T.);
#102=CARTESIAN_POINT('',(5.827472527,3.823991711,0.));
#103=DIRECTION('',(-0.,-0.,1.));
#104=VECTOR('',#103,2.2);
#105=LINE('',#102,#104);
#106=EDGE_CURVE('',#94,#77,#105,.T.);
#107=ORIENTED_EDGE('',*,*,#106,.T.);
#108=EDGE_LOOP('',(#84,#92,#101,#107));
#109=FACE_BOUND('',#108,.T.);
#110=ADVANCED_FACE('',(#109),#73,.T.);
#111=CARTESIAN_POINT('',(7.5,0.,0.));
#112=DIRECTION('',(0.,0.,1.));
#113=DIRECTION('',(1.,0.,0.));
#114=AXIS2_PLACEMENT_3D('',#111,#112,#113);
#115=PLANE('',#114);
#116=ORIENTED_EDGE('',*,*,#100,.F.);
#117=CARTESIAN_POINT('',(6.415031144,3.1,0.));
#118=VERTEX_POINT('',#117);
#119=CARTESIAN_POINT('',(6.415031144,3.6,0.));
#120=DIRECTION('',(0.,0.,1.));
#121=DIRECTION('',(1.,0.,-0.));
#122=AXIS2_PLACEMENT_3D('',#119,#120,#121);
#123=CIRCLE('',#122,0.5);
#124=EDGE_CURVE('',#86,#118,#123,.T.);
#125=ORIENTED_EDGE('',*,*,#124,.T.);
#126=CARTESIAN_POINT('',(8.584968856,3.1,0.));
#127=VERTEX_POINT('',#126);
#128=CARTESIAN_POINT('',(6.415031144,3.1,0.));
#129=DIRECTION('',(1.,0.,0.));
#130=VECTOR('',#129,2.169937713);
#131=LINE('',#128,#130);
#132=EDGE_CURVE('',#118,#127,#131,.T.);
#133=ORIENTED_EDGE('',*,*,#132,.T.);
#134=CARTESIAN_POINT('',(9.070137114,3.479120879,0.));
#135=VERTEX_POINT('',#134);
#136=CARTESIAN_POINT('',(8.584968856,3.6,0.));
#137=DIRECTION('',(0.,0.,1.));
#138=DIRECTION('',(1.,0.,-0.));
#139=AXIS2_PLACEMENT_3D('',#136,#137,#138);
#140=CIRCLE('',#139,0.5);
#141=EDGE_CURVE('',#127,#135,#140,.T.);
#142=ORIENTED_EDGE('',*,*,#141,.T.);
#143=CARTESIAN_POINT('',(9.172527473,3.823991711,0.));
#144=VERTEX_POINT('',#143);
#145=CARTESIAN_POINT('',(13.,2.5,0.));
#146=DIRECTION('',(0.,0.,1.));
#147=DIRECTION('',(1.,0.,-0.));
#148=AXIS2_PLACEMENT_3D('',#145,#146,#147);
#149=CIRCLE('',#148,4.05);
#150=EDGE_CURVE('',#144,#135,#149,.T.);
#151=ORIENTED_EDGE('',*,*,#150,.F.);
#152=CARTESIAN_POINT('',(9.2,3.987447478,0.));
#153=VERTEX_POINT('',#152);
#154=CARTESIAN_POINT('',(8.7,3.987447478,0.));
#155=DIRECTION('',(0.,0.,1.));
#156=DIRECTION('',(1.,0.,-0.));
#157=AXIS2_PLACEMENT_3D('',#154,#155,#156);
#158=CIRCLE('',#157,0.5);
#159=EDGE_CURVE('',#144,#153,#158,.T.);
#160=ORIENTED_EDGE('',*,*,#159,.T.);
#161=CARTESIAN_POINT('',(9.2,5.,0.));
#162=VERTEX_POINT('',#161);
#163=CARTESIAN_POINT('',(9.2,5.,0.));
#164=DIRECTION('',(-0.,-1.,0.));
#165=VECTOR('',#164,1.012552522);
#166=LINE('',#163,#165);
#167=EDGE_CURVE('',#162,#153,#166,.T.);
#168=ORIENTED_EDGE('',*,*,#167,.F.);
#169=CARTESIAN_POINT('',(5.8,5.,0.));
#170=VERTEX_POINT('',#169);
#171=CARTESIAN_POINT('',(7.5,5.,0.));
#172=DIRECTION('',(0.,0.,1.));
#173=DIRECTION('',(1.,0.,-0.));
#174=AXIS2_PLACEMENT_3D('',#171,#172,#173);
#175=CIRCLE('',#174,1.7);
#176=EDGE_CURVE('',#162,#170,#175,.T.);
#177=ORIENTED_EDGE('',*,*,#176,.T.);
#178=CARTESIAN_POINT('',(5.8,3.987447478,0.));
#179=VERTEX_POINT('',#178);
#180=CARTESIAN_POINT('',(5.8,3.987447478,0.));
#181=DIRECTION('',(0.,1.,0.));
#182=VECTOR('',#181,1.012552522);
#183=LINE('',#180,#182);
#184=EDGE_CURVE('',#179,#170,#183,.T.);
#185=ORIENTED_EDGE('',*,*,#184,.F.);
#186=CARTESIAN_POINT('',(6.3,3.987447478,0.));
#187=DIRECTION('',(0.,0.,1.));
#188=DIRECTION('',(1.,0.,-0.));
#189=AXIS2_PLACEMENT_3D('',#186,#187,#188);
#190=CIRCLE('',#189,0.5);
#191=EDGE_CURVE('',#179,#94,#190,.T.);
#192=ORIENTED_EDGE('',*,*,#191,.T.);
#193=EDGE_LOOP('',(#116,#125,#133,#142,#151,#160,#168,#177,#185,#192));
#194=FACE_BOUND('',#193,.T.);
#195=CARTESIAN_POINT('',(5.,0.,0.));
#196=VERTEX_POINT('',#195);
#197=CARTESIAN_POINT('',(5.,1.153708798,0.));
#198=VERTEX_POINT('',#197);
#199=CARTESIAN_POINT('',(5.,0.,0.));
#200=DIRECTION('',(0.,1.,0.));
#201=VECTOR('',#200,1.153708798);
#202=LINE('',#199,#201);
#203=EDGE_CURVE('',#196,#198,#202,.T.);
#204=ORIENTED_EDGE('',*,*,#203,.T.);
#205=CARTESIAN_POINT('',(5.033333333,1.333214292,0.));
#206=VERTEX_POINT('',#205);
#207=CARTESIAN_POINT('',(5.5,1.153708798,0.));
#208=DIRECTION('',(-0.,-0.,-1.));
#209=DIRECTION('',(1.,0.,-0.));
#210=AXIS2_PLACEMENT_3D('',#207,#208,#209);
#211=CIRCLE('',#210,0.5);
#212=EDGE_CURVE('',#198,#206,#211,.T.);
#213=ORIENTED_EDGE('',*,*,#212,.T.);
#214=CARTESIAN_POINT('',(5.033333333,3.666785708,0.));
#215=VERTEX_POINT('',#214);
#216=CARTESIAN_POINT('',(2.,2.5,0.));
#217=DIRECTION('',(0.,0.,1.));
#218=DIRECTION('',(1.,0.,-0.));
#219=AXIS2_PLACEMENT_3D('',#216,#217,#218);
#220=CIRCLE('',#219,3.25);
#221=EDGE_CURVE('',#206,#215,#220,.T.);
#222=ORIENTED_EDGE('',*,*,#221,.T.);
#223=CARTESIAN_POINT('',(5.,3.846291202,0.));
#224=VERTEX_POINT('',#223);
#225=CARTESIAN_POINT('',(5.5,3.846291202,0.));
#226=DIRECTION('',(-0.,-0.,-1.));
#227=DIRECTION('',(1.,0.,-0.));
#228=AXIS2_PLACEMENT_3D('',#225,#226,#227);
#229=CIRCLE('',#228,0.5);
#230=EDGE_CURVE('',#215,#224,#229,.T.);
#231=ORIENTED_EDGE('',*,*,#230,.T.);
#232=CARTESIAN_POINT('',(5.,5.,0.));
#233=VERTEX_POINT('',#232);
#234=CARTESIAN_POINT('',(5.,3.846291202,0.));
#235=DIRECTION('',(0.,1.,0.));
#236=VECTOR('',#235,1.153708798);
#237=LINE('',#234,#236);
#238=EDGE_CURVE('',#224,#233,#237,.T.);
#239=ORIENTED_EDGE('',*,*,#238,.T.);
#240=CARTESIAN_POINT('',(10.,5.,0.));
#241=VERTEX_POINT('',#240);
#242=CARTESIAN_POINT('',(7.5,5.,0.));
#243=DIRECTION('',(0.,0.,1.));
#244=DIRECTION('',(1.,0.,-0.));
#245=AXIS2_PLACEMENT_3D('',#242,#243,#244);
#246=CIRCLE('',#245,2.5);
#247=EDGE_CURVE('',#241,#233,#246,.T.);
#248=ORIENTED_EDGE('',*,*,#247,.F.);
#249=CARTESIAN_POINT('',(10.,3.846291202,0.));
#250=VERTEX_POINT('',#249);
#251=CARTESIAN_POINT('',(10.,5.,0.));
#252=DIRECTION('',(-0.,-1.,0.));
#253=VECTOR('',#252,1.153708798);
#254=LINE('',#251,#253);
#255=EDGE_CURVE('',#241,#250,#254,.T.);
#256=ORIENTED_EDGE('',*,*,#255,.T.);
#257=CARTESIAN_POINT('',(9.966666667,3.666785708,0.));
#258=VERTEX_POINT('',#257);
#259=CARTESIAN_POINT('',(9.5,3.846291202,0.));
#260=DIRECTION('',(-0.,-0.,-1.));
#261=DIRECTION('',(1.,0.,-0.));
#262=AXIS2_PLACEMENT_3D('',#259,#260,#261);
#263=CIRCLE('',#262,0.5);
#264=EDGE_CURVE('',#250,#258,#263,.T.);
#265=ORIENTED_EDGE('',*,*,#264,.T.);
#266=CARTESIAN_POINT('',(9.75,2.5,0.));
#267=VERTEX_POINT('',#266);
#268=CARTESIAN_POINT('',(13.,2.5,0.));
#269=DIRECTION('',(0.,0.,1.));
#270=DIRECTION('',(1.,0.,-0.));
#271=AXIS2_PLACEMENT_3D('',#268,#269,#270);
#272=CIRCLE('',#271,3.25);
#273=EDGE_CURVE('',#258,#267,#272,.T.);
#274=ORIENTED_EDGE('',*,*,#273,.T.);
#275=CARTESIAN_POINT('',(9.966666667,1.333214292,0.));
#276=VERTEX_POINT('',#275);
#277=CARTESIAN_POINT('',(13.,2.5,0.));
#278=DIRECTION('',(0.,0.,1.));
#279=DIRECTION('',(1.,0.,-0.));
#280=AXIS2_PLACEMENT_3D('',#277,#278,#279);
#281=CIRCLE('',#280,3.25);
#282=EDGE_CURVE('',#267,#276,#281,.T.);
#283=ORIENTED_EDGE('',*,*,#282,.T.);
#284=CARTESIAN_POINT('',(10.,1.153708798,0.));
#285=VERTEX_POINT('',#284);
#286=CARTESIAN_POINT('',(9.5,1.153708798,0.));
#287=DIRECTION('',(-0.,-0.,-1.));
#288=DIRECTION('',(1.,0.,-0.));
#289=AXIS2_PLACEMENT_3D('',#286,#287,#288);
#290=CIRCLE('',#289,0.5);
#291=EDGE_CURVE('',#276,#285,#290,.T.);
#292=ORIENTED_EDGE('',*,*,#291,.T.);
#293=CARTESIAN_POINT('',(10.,-0.,0.));
#294=VERTEX_POINT('',#293);
#295=CARTESIAN_POINT('',(10.,1.153708798,0.));
#296=DIRECTION('',(-0.,-1.,0.));
#297=VECTOR('',#296,1.153708798);
#298=LINE('',#295,#297);
#299=EDGE_CURVE('',#285,#294,#298,.T.);
#300=ORIENTED_EDGE('',*,*,#299,.T.);
#301=CARTESIAN_POINT('',(7.5,0.,0.));
#302=DIRECTION('',(0.,0.,1.));
#303=DIRECTION('',(1.,0.,-0.));
#304=AXIS2_PLACEMENT_3D('',#301,#302,#303);
#305=CIRCLE('',#304,2.5);
#306=EDGE_CURVE('',#196,#294,#305,.T.);
#307=ORIENTED_EDGE('',*,*,#306,.F.);
#308=EDGE_LOOP('',(#204,#213,#222,#231,#239,#248,#256,#265,#274,#283,#292,#300,#307));
#309=FACE_BOUND('',#308,.T.);
#310=CARTESIAN_POINT('',(5.8,0.,0.));
#311=VERTEX_POINT('',#310);
#312=CARTESIAN_POINT('',(5.8,1.012552522,0.));
#313=VERTEX_POINT('',#312);
#314=CARTESIAN_POINT('',(5.8,0.,0.));
#315=DIRECTION('',(0.,1.,0.));
#316=VECTOR('',#315,1.012552522);
#317=LINE('',#314,#316);
#318=EDGE_CURVE('',#311,#313,#317,.T.);
#319=ORIENTED_EDGE('',*,*,#318,.F.);
#320=CARTESIAN_POINT('',(9.2,-0.,0.));
#321=VERTEX_POINT('',#320);
#322=CARTESIAN_POINT('',(7.5,0.,0.));
#323=DIRECTION('',(0.,0.,1.));
#324=DIRECTION('',(1.,0.,-0.));
#325=AXIS2_PLACEMENT_3D('',#322,#323,#324);
#326=CIRCLE('',#325,1.7);
#327=EDGE_CURVE('',#311,#321,#326,.T.);
#328=ORIENTED_EDGE('',*,*,#327,.T.);
#329=CARTESIAN_POINT('',(9.2,1.012552522,0.));
#330=VERTEX_POINT('',#329);
#331=CARTESIAN_POINT('',(9.2,1.012552522,0.));
#332=DIRECTION('',(-0.,-1.,0.));
#333=VECTOR('',#332,1.012552522);
#334=LINE('',#331,#333);
#335=EDGE_CURVE('',#330,#321,#334,.T.);
#336=ORIENTED_EDGE('',*,*,#335,.F.);
#337=CARTESIAN_POINT('',(8.7,1.012552522,0.));
#338=DIRECTION('',(0.,0.,1.));
#339=DIRECTION('',(1.,0.,-0.));
#340=AXIS2_PLACEMENT_3D('',#337,#338,#339);
#341=CIRCLE('',#340,0.5);
#342=EDGE_CURVE('',#330,#52,#341,.T.);
#343=ORIENTED_EDGE('',*,*,#342,.T.);
#344=ORIENTED_EDGE('',*,*,#58,.F.);
#345=CARTESIAN_POINT('',(8.584968856,1.9,0.));
#346=VERTEX_POINT('',#345);
#347=CARTESIAN_POINT('',(8.584968856,1.4,0.));
#348=DIRECTION('',(0.,0.,1.));
#349=DIRECTION('',(1.,0.,-0.));
#350=AXIS2_PLACEMENT_3D('',#347,#348,#349);
#351=CIRCLE('',#350,0.5);
#352=EDGE_CURVE('',#44,#346,#351,.T.);
#353=ORIENTED_EDGE('',*,*,#352,.T.);
#354=CARTESIAN_POINT('',(6.415031144,1.9,0.));
#355=VERTEX_POINT('',#354);
#356=CARTESIAN_POINT('',(8.584968856,1.9,0.));
#357=DIRECTION('',(-1.,0.,0.));
#358=VECTOR('',#357,2.169937713);
#359=LINE('',#356,#358);
#360=EDGE_CURVE('',#346,#355,#359,.T.);
#361=ORIENTED_EDGE('',*,*,#360,.T.);
#362=CARTESIAN_POINT('',(5.929862886,1.520879121,0.));
#363=VERTEX_POINT('',#362);
#364=CARTESIAN_POINT('',(6.415031144,1.4,0.));
#365=DIRECTION('',(0.,0.,1.));
#366=DIRECTION('',(1.,0.,-0.));
#367=AXIS2_PLACEMENT_3D('',#364,#365,#366);
#368=CIRCLE('',#367,0.5);
#369=EDGE_CURVE('',#355,#363,#368,.T.);
#370=ORIENTED_EDGE('',*,*,#369,.T.);
#371=CARTESIAN_POINT('',(5.827472527,1.176008289,0.));
#372=VERTEX_POINT('',#371);
#373=CARTESIAN_POINT('',(2.,2.5,0.));
#374=DIRECTION('',(0.,0.,1.));
#375=DIRECTION('',(1.,0.,-0.));
#376=AXIS2_PLACEMENT_3D('',#373,#374,#375);
#377=CIRCLE('',#376,4.05);
#378=EDGE_CURVE('',#372,#363,#377,.T.);
#379=ORIENTED_EDGE('',*,*,#378,.F.);
#380=CARTESIAN_POINT('',(6.3,1.012552522,0.));
#381=DIRECTION('',(0.,0.,1.));
#382=DIRECTION('',(1.,0.,-0.));
#383=AXIS2_PLACEMENT_3D('',#380,#381,#382);
#384=CIRCLE('',#383,0.5);
#385=EDGE_CURVE('',#372,#313,#384,.T.);
#386=ORIENTED_EDGE('',*,*,#385,.T.);
#387=EDGE_LOOP('',(#319,#328,#336,#343,#344,#353,#361,#370,#379,#386));
#388=FACE_BOUND('',#387,.T.);
#389=ADVANCED_FACE('',(#194,#309,#388),#115,.F.);
#390=CARTESIAN_POINT('',(7.5,0.,2.2));
#391=DIRECTION('',(0.,0.,1.));
#392=DIRECTION('',(1.,0.,0.));
#393=AXIS2_PLACEMENT_3D('',#390,#391,#392);
#394=PLANE('',#393);
#395=CARTESIAN_POINT('',(9.172527473,3.823991711,2.2));
#396=VERTEX_POINT('',#395);
#397=CARTESIAN_POINT('',(9.070137114,3.479120879,2.2));
#398=VERTEX_POINT('',#397);
#399=CARTESIAN_POINT('',(13.,2.5,2.2));
#400=DIRECTION('',(0.,0.,1.));
#401=DIRECTION('',(1.,0.,-0.));
#402=AXIS2_PLACEMENT_3D('',#399,#400,#401);
#403=CIRCLE('',#402,4.05);
#404=EDGE_CURVE('',#396,#398,#403,.T.);
#405=ORIENTED_EDGE('',*,*,#404,.T.);
#406=CARTESIAN_POINT('',(8.584968856,3.1,2.2));
#407=VERTEX_POINT('',#406);
#408=CARTESIAN_POINT('',(8.584968856,3.6,2.2));
#409=DIRECTION('',(-0.,-0.,-1.));
#410=DIRECTION('',(1.,0.,-0.));
#411=AXIS2_PLACEMENT_3D('',#408,#409,#410);
#412=CIRCLE('',#411,0.5);
#413=EDGE_CURVE('',#398,#407,#412,.T.);
#414=ORIENTED_EDGE('',*,*,#413,.T.);
#415=CARTESIAN_POINT('',(6.415031144,3.1,2.2));
#416=VERTEX_POINT('',#415);
#417=CARTESIAN_POINT('',(8.584968856,3.1,2.2));
#418=DIRECTION('',(-1.,-0.,0.));
#419=VECTOR('',#418,2.169937713);
#420=LINE('',#417,#419);
#421=EDGE_CURVE('',#407,#416,#420,.T.);
#422=ORIENTED_EDGE('',*,*,#421,.T.);
#423=CARTESIAN_POINT('',(6.415031144,3.6,2.2));
#424=DIRECTION('',(-0.,-0.,-1.));
#425=DIRECTION('',(1.,0.,-0.));
#426=AXIS2_PLACEMENT_3D('',#423,#424,#425);
#427=CIRCLE('',#426,0.5);
#428=EDGE_CURVE('',#416,#75,#427,.T.);
#429=ORIENTED_EDGE('',*,*,#428,.T.);
#430=ORIENTED_EDGE('',*,*,#83,.T.);
#431=CARTESIAN_POINT('',(5.8,3.987447478,2.2));
#432=VERTEX_POINT('',#431);
#433=CARTESIAN_POINT('',(6.3,3.987447478,2.2));
#434=DIRECTION('',(-0.,-0.,-1.));
#435=DIRECTION('',(1.,0.,-0.));
#436=AXIS2_PLACEMENT_3D('',#433,#434,#435);
#437=CIRCLE('',#436,0.5);
#438=EDGE_CURVE('',#77,#432,#437,.T.);
#439=ORIENTED_EDGE('',*,*,#438,.T.);
#440=CARTESIAN_POINT('',(5.8,5.,2.2));
#441=VERTEX_POINT('',#440);
#442=CARTESIAN_POINT('',(5.8,3.987447478,2.2));
#443=DIRECTION('',(0.,1.,0.));
#444=VECTOR('',#443,1.012552522);
#445=LINE('',#442,#444);
#446=EDGE_CURVE('',#432,#441,#445,.T.);
#447=ORIENTED_EDGE('',*,*,#446,.T.);
#448=CARTESIAN_POINT('',(9.2,5.,2.2));
#449=VERTEX_POINT('',#448);
#450=CARTESIAN_POINT('',(7.5,5.,2.2));
#451=DIRECTION('',(0.,0.,1.));
#452=DIRECTION('',(1.,0.,-0.));
#453=AXIS2_PLACEMENT_3D('',#450,#451,#452);
#454=CIRCLE('',#453,1.7);
#455=EDGE_CURVE('',#449,#441,#454,.T.);
#456=ORIENTED_EDGE('',*,*,#455,.F.);
#457=CARTESIAN_POINT('',(9.2,3.987447478,2.2));
#458=VERTEX_POINT('',#457);
#459=CARTESIAN_POINT('',(9.2,5.,2.2));
#460=DIRECTION('',(-0.,-1.,0.));
#461=VECTOR('',#460,1.012552522);
#462=LINE('',#459,#461);
#463=EDGE_CURVE('',#449,#458,#462,.T.);
#464=ORIENTED_EDGE('',*,*,#463,.T.);
#465=CARTESIAN_POINT('',(8.7,3.987447478,2.2));
#466=DIRECTION('',(-0.,-0.,-1.));
#467=DIRECTION('',(1.,0.,-0.));
#468=AXIS2_PLACEMENT_3D('',#465,#466,#467);
#469=CIRCLE('',#468,0.5);
#470=EDGE_CURVE('',#458,#396,#469,.T.);
#471=ORIENTED_EDGE('',*,*,#470,.T.);
#472=EDGE_LOOP('',(#405,#414,#422,#429,#430,#439,#447,#456,#464,#471));
#473=FACE_BOUND('',#472,.T.);
#474=CARTESIAN_POINT('',(5.033333333,1.333214292,2.2));
#475=VERTEX_POINT('',#474);
#476=CARTESIAN_POINT('',(5.033333333,3.666785708,2.2));
#477=VERTEX_POINT('',#476);
#478=CARTESIAN_POINT('',(2.,2.5,2.2));
#479=DIRECTION('',(0.,0.,1.));
#480=DIRECTION('',(1.,0.,-0.));
#481=AXIS2_PLACEMENT_3D('',#478,#479,#480);
#482=CIRCLE('',#481,3.25);
#483=EDGE_CURVE('',#475,#477,#482,.T.);
#484=ORIENTED_EDGE('',*,*,#483,.F.);
#485=CARTESIAN_POINT('',(5.,1.153708798,2.2));
#486=VERTEX_POINT('',#485);
#487=CARTESIAN_POINT('',(5.5,1.153708798,2.2));
#488=DIRECTION('',(0.,0.,1.));
#489=DIRECTION('',(1.,0.,-0.));
#490=AXIS2_PLACEMENT_3D('',#487,#488,#489);
#491=CIRCLE('',#490,0.5);
#492=EDGE_CURVE('',#475,#486,#491,.T.);
#493=ORIENTED_EDGE('',*,*,#492,.T.);
#494=CARTESIAN_POINT('',(5.,0.,2.2));
#495=VERTEX_POINT('',#494);
#496=CARTESIAN_POINT('',(5.,0.,2.2));
#497=DIRECTION('',(0.,1.,0.));
#498=VECTOR('',#497,1.153708798);
#499=LINE('',#496,#498);
#500=EDGE_CURVE('',#495,#486,#499,.T.);
#501=ORIENTED_EDGE('',*,*,#500,.F.);
#502=CARTESIAN_POINT('',(10.,-0.,2.2));
#503=VERTEX_POINT('',#502);
#504=CARTESIAN_POINT('',(7.5,0.,2.2));
#505=DIRECTION('',(0.,0.,1.));
#506=DIRECTION('',(1.,0.,-0.));
#507=AXIS2_PLACEMENT_3D('',#504,#505,#506);
#508=CIRCLE('',#507,2.5);
#509=EDGE_CURVE('',#495,#503,#508,.T.);
#510=ORIENTED_EDGE('',*,*,#509,.T.);
#511=CARTESIAN_POINT('',(10.,1.153708798,2.2));
#512=VERTEX_POINT('',#511);
#513=CARTESIAN_POINT('',(10.,1.153708798,2.2));
#514=DIRECTION('',(-0.,-1.,0.));
#515=VECTOR('',#514,1.153708798);
#516=LINE('',#513,#515);
#517=EDGE_CURVE('',#512,#503,#516,.T.);
#518=ORIENTED_EDGE('',*,*,#517,.F.);
#519=CARTESIAN_POINT('',(9.966666667,1.333214292,2.2));
#520=VERTEX_POINT('',#519);
#521=CARTESIAN_POINT('',(9.5,1.153708798,2.2));
#522=DIRECTION('',(0.,0.,1.));
#523=DIRECTION('',(1.,0.,-0.));
#524=AXIS2_PLACEMENT_3D('',#521,#522,#523);
#525=CIRCLE('',#524,0.5);
#526=EDGE_CURVE('',#512,#520,#525,.T.);
#527=ORIENTED_EDGE('',*,*,#526,.T.);
#528=CARTESIAN_POINT('',(9.75,2.5,2.2));
#529=VERTEX_POINT('',#528);
#530=CARTESIAN_POINT('',(13.,2.5,2.2));
#531=DIRECTION('',(0.,0.,1.));
#532=DIRECTION('',(1.,0.,-0.));
#533=AXIS2_PLACEMENT_3D('',#530,#531,#532);
#534=CIRCLE('',#533,3.25);
#535=EDGE_CURVE('',#529,#520,#534,.T.);
#536=ORIENTED_EDGE('',*,*,#535,.F.);
#537=CARTESIAN_POINT('',(9.966666667,3.666785708,2.2));
#538=VERTEX_POINT('',#537);
#539=CARTESIAN_POINT('',(13.,2.5,2.2));
#540=DIRECTION('',(0.,0.,1.));
#541=DIRECTION('',(1.,0.,-0.));
#542=AXIS2_PLACEMENT_3D('',#539,#540,#541);
#543=CIRCLE('',#542,3.25);
#544=EDGE_CURVE('',#538,#529,#543,.T.);
#545=ORIENTED_EDGE('',*,*,#544,.F.);
#546=CARTESIAN_POINT('',(10.,3.846291202,2.2));
#547=VERTEX_POINT('',#546);
#548=CARTESIAN_POINT('',(9.5,3.846291202,2.2));
#549=DIRECTION('',(0.,0.,1.));
#550=DIRECTION('',(1.,0.,-0.));
#551=AXIS2_PLACEMENT_3D('',#548,#549,#550);
#552=CIRCLE('',#551,0.5);
#553=EDGE_CURVE('',#538,#547,#552,.T.);
#554=ORIENTED_EDGE('',*,*,#553,.T.);
#555=CARTESIAN_POINT('',(10.,5.,2.2));
#556=VERTEX_POINT('',#555);
#557=CARTESIAN_POINT('',(10.,5.,2.2));
#558=DIRECTION('',(-0.,-1.,0.));
#559=VECTOR('',#558,1.153708798);
#560=LINE('',#557,#559);
#561=EDGE_CURVE('',#556,#547,#560,.T.);
#562=ORIENTED_EDGE('',*,*,#561,.F.);
#563=CARTESIAN_POINT('',(5.,5.,2.2));
#564=VERTEX_POINT('',#563);
#565=CARTESIAN_POINT('',(7.5,5.,2.2));
#566=DIRECTION('',(0.,0.,1.));
#567=DIRECTION('',(1.,0.,-0.));
#568=AXIS2_PLACEMENT_3D('',#565,#566,#567);
#569=CIRCLE('',#568,2.5);
#570=EDGE_CURVE('',#556,#564,#569,.T.);
#571=ORIENTED_EDGE('',*,*,#570,.T.);
#572=CARTESIAN_POINT('',(5.,3.846291202,2.2));
#573=VERTEX_POINT('',#572);
#574=CARTESIAN_POINT('',(5.,3.846291202,2.2));
#575=DIRECTION('',(0.,1.,0.));
#576=VECTOR('',#575,1.153708798);
#577=LINE('',#574,#576);
#578=EDGE_CURVE('',#573,#564,#577,.T.);
#579=ORIENTED_EDGE('',*,*,#578,.F.);
#580=CARTESIAN_POINT('',(5.5,3.846291202,2.2));
#581=DIRECTION('',(0.,0.,1.));
#582=DIRECTION('',(1.,0.,-0.));
#583=AXIS2_PLACEMENT_3D('',#580,#581,#582);
#584=CIRCLE('',#583,0.5);
#585=EDGE_CURVE('',#573,#477,#584,.T.);
#586=ORIENTED_EDGE('',*,*,#585,.T.);
#587=EDGE_LOOP('',(#484,#493,#501,#510,#518,#527,#536,#545,#554,#562,#571,#579,#586));
#588=FACE_BOUND('',#587,.T.);
#589=CARTESIAN_POINT('',(5.8,0.,2.2));
#590=VERTEX_POINT('',#589);
#591=CARTESIAN_POINT('',(5.8,1.012552522,2.2));
#592=VERTEX_POINT('',#591);
#593=CARTESIAN_POINT('',(5.8,0.,2.2));
#594=DIRECTION('',(0.,1.,0.));
#595=VECTOR('',#594,1.012552522);
#596=LINE('',#593,#595);
#597=EDGE_CURVE('',#590,#592,#596,.T.);
#598=ORIENTED_EDGE('',*,*,#597,.T.);
#599=CARTESIAN_POINT('',(5.827472527,1.176008289,2.2));
#600=VERTEX_POINT('',#599);
#601=CARTESIAN_POINT('',(6.3,1.012552522,2.2));
#602=DIRECTION('',(-0.,-0.,-1.));
#603=DIRECTION('',(1.,0.,-0.));
#604=AXIS2_PLACEMENT_3D('',#601,#602,#603);
#605=CIRCLE('',#604,0.5);
#606=EDGE_CURVE('',#592,#600,#605,.T.);
#607=ORIENTED_EDGE('',*,*,#606,.T.);
#608=CARTESIAN_POINT('',(5.929862886,1.520879121,2.2));
#609=VERTEX_POINT('',#608);
#610=CARTESIAN_POINT('',(2.,2.5,2.2));
#611=DIRECTION('',(0.,0.,1.));
#612=DIRECTION('',(1.,0.,-0.));
#613=AXIS2_PLACEMENT_3D('',#610,#611,#612);
#614=CIRCLE('',#613,4.05);
#615=EDGE_CURVE('',#600,#609,#614,.T.);
#616=ORIENTED_EDGE('',*,*,#615,.T.);
#617=CARTESIAN_POINT('',(6.415031144,1.9,2.2));
#618=VERTEX_POINT('',#617);
#619=CARTESIAN_POINT('',(6.415031144,1.4,2.2));
#620=DIRECTION('',(-0.,-0.,-1.));
#621=DIRECTION('',(1.,0.,-0.));
#622=AXIS2_PLACEMENT_3D('',#619,#620,#621);
#623=CIRCLE('',#622,0.5);
#624=EDGE_CURVE('',#609,#618,#623,.T.);
#625=ORIENTED_EDGE('',*,*,#624,.T.);
#626=CARTESIAN_POINT('',(8.584968856,1.9,2.2));
#627=VERTEX_POINT('',#626);
#628=CARTESIAN_POINT('',(6.415031144,1.9,2.2));
#629=DIRECTION('',(1.,0.,-0.));
#630=VECTOR('',#629,2.169937713);
#631=LINE('',#628,#630);
#632=EDGE_CURVE('',#618,#627,#631,.T.);
#633=ORIENTED_EDGE('',*,*,#632,.T.);
#634=CARTESIAN_POINT('',(8.584968856,1.4,2.2));
#635=DIRECTION('',(-0.,-0.,-1.));
#636=DIRECTION('',(1.,0.,-0.));
#637=AXIS2_PLACEMENT_3D('',#634,#635,#636);
#638=CIRCLE('',#637,0.5);
#639=EDGE_CURVE('',#627,#33,#638,.T.);
#640=ORIENTED_EDGE('',*,*,#639,.T.);
#641=ORIENTED_EDGE('',*,*,#41,.T.);
#642=CARTESIAN_POINT('',(9.2,1.012552522,2.2));
#643=VERTEX_POINT('',#642);
#644=CARTESIAN_POINT('',(8.7,1.012552522,2.2));
#645=DIRECTION('',(-0.,-0.,-1.));
#646=DIRECTION('',(1.,0.,-0.));
#647=AXIS2_PLACEMENT_3D('',#644,#645,#646);
#648=CIRCLE('',#647,0.5);
#649=EDGE_CURVE('',#35,#643,#648,.T.);
#650=ORIENTED_EDGE('',*,*,#649,.T.);
#651=CARTESIAN_POINT('',(9.2,-0.,2.2));
#652=VERTEX_POINT('',#651);
#653=CARTESIAN_POINT('',(9.2,1.012552522,2.2));
#654=DIRECTION('',(-0.,-1.,0.));
#655=VECTOR('',#654,1.012552522);
#656=LINE('',#653,#655);
#657=EDGE_CURVE('',#643,#652,#656,.T.);
#658=ORIENTED_EDGE('',*,*,#657,.T.);
#659=CARTESIAN_POINT('',(7.5,0.,2.2));
#660=DIRECTION('',(0.,0.,1.));
#661=DIRECTION('',(1.,0.,-0.));
#662=AXIS2_PLACEMENT_3D('',#659,#660,#661);
#663=CIRCLE('',#662,1.7);
#664=EDGE_CURVE('',#590,#652,#663,.T.);
#665=ORIENTED_EDGE('',*,*,#664,.F.);
#666=EDGE_LOOP('',(#598,#607,#616,#625,#633,#640,#641,#650,#658,#665));
#667=FACE_BOUND('',#666,.T.);
#668=ADVANCED_FACE('',(#473,#588,#667),#394,.T.);
#669=CARTESIAN_POINT('',(5.,0.625,2.2));
#670=DIRECTION('',(-1.,0.,0.));
#671=DIRECTION('',(-0.,-1.,0.));
#672=AXIS2_PLACEMENT_3D('',#669,#670,#671);
#673=PLANE('',#672);
#674=ORIENTED_EDGE('',*,*,#500,.T.);
#675=CARTESIAN_POINT('',(5.,1.153708798,2.2));
#676=DIRECTION('',(0.,0.,-1.));
#677=VECTOR('',#676,2.2);
#678=LINE('',#675,#677);
#679=EDGE_CURVE('',#486,#198,#678,.T.);
#680=ORIENTED_EDGE('',*,*,#679,.T.);
#681=ORIENTED_EDGE('',*,*,#203,.F.);
#682=CARTESIAN_POINT('',(5.,0.,2.2));
#683=DIRECTION('',(0.,0.,-1.));
#684=VECTOR('',#683,2.2);
#685=LINE('',#682,#684);
#686=EDGE_CURVE('',#495,#196,#685,.T.);
#687=ORIENTED_EDGE('',*,*,#686,.F.);
#688=EDGE_LOOP('',(#674,#680,#681,#687));
#689=FACE_BOUND('',#688,.T.);
#690=ADVANCED_FACE('',(#689),#673,.T.);
#691=CARTESIAN_POINT('',(7.5,0.,2.2));
#692=DIRECTION('',(0.,0.,-1.));
#693=DIRECTION('',(-1.,0.,0.));
#694=AXIS2_PLACEMENT_3D('',#691,#692,#693);
#695=CYLINDRICAL_SURFACE('',#694,2.5);
#696=ORIENTED_EDGE('',*,*,#306,.T.);
#697=CARTESIAN_POINT('',(10.,-0.,2.2));
#698=DIRECTION('',(0.,0.,-1.));
#699=VECTOR('',#698,2.2);
#700=LINE('',#697,#699);
#701=EDGE_CURVE('',#503,#294,#700,.T.);
#702=ORIENTED_EDGE('',*,*,#701,.F.);
#703=ORIENTED_EDGE('',*,*,#509,.F.);
#704=ORIENTED_EDGE('',*,*,#686,.T.);
#705=EDGE_LOOP('',(#696,#702,#703,#704));
#706=FACE_BOUND('',#705,.T.);
#707=ADVANCED_FACE('',(#706),#695,.T.);
#708=CARTESIAN_POINT('',(10.,0.625,2.2));
#709=DIRECTION('',(1.,-0.,0.));
#710=DIRECTION('',(0.,1.,0.));
#711=AXIS2_PLACEMENT_3D('',#708,#709,#710);
#712=PLANE('',#711);
#713=ORIENTED_EDGE('',*,*,#299,.F.);
#714=CARTESIAN_POINT('',(10.,1.153708798,0.));
#715=DIRECTION('',(-0.,-0.,1.));
#716=VECTOR('',#715,2.2);
#717=LINE('',#714,#716);
#718=EDGE_CURVE('',#285,#512,#717,.T.);
#719=ORIENTED_EDGE('',*,*,#718,.T.);
#720=ORIENTED_EDGE('',*,*,#517,.T.);
#721=ORIENTED_EDGE('',*,*,#701,.T.);
#722=EDGE_LOOP('',(#713,#719,#720,#721));
#723=FACE_BOUND('',#722,.T.);
#724=ADVANCED_FACE('',(#723),#712,.T.);
#725=CARTESIAN_POINT('',(13.,2.5,2.2));
#726=DIRECTION('',(0.,0.,-1.));
#727=DIRECTION('',(-1.,0.,0.));
#728=AXIS2_PLACEMENT_3D('',#725,#726,#727);
#729=CYLINDRICAL_SURFACE('',#728,3.25);
#730=CARTESIAN_POINT('',(9.75,2.5,0.));
#731=DIRECTION('',(-0.,-0.,1.));
#732=VECTOR('',#731,2.2);
#733=LINE('',#730,#732);
#734=EDGE_CURVE('',#267,#529,#733,.T.);
#735=ORIENTED_EDGE('',*,*,#734,.F.);
#736=ORIENTED_EDGE('',*,*,#273,.F.);
#737=CARTESIAN_POINT('',(9.966666667,3.666785708,0.));
#738=DIRECTION('',(-0.,-0.,1.));
#739=VECTOR('',#738,2.2);
#740=LINE('',#737,#739);
#741=EDGE_CURVE('',#258,#538,#740,.T.);
#742=ORIENTED_EDGE('',*,*,#741,.T.);
#743=ORIENTED_EDGE('',*,*,#544,.T.);
#744=EDGE_LOOP('',(#735,#736,#742,#743));
#745=FACE_BOUND('',#744,.T.);
#746=ADVANCED_FACE('',(#745),#729,.F.);
#747=CARTESIAN_POINT('',(10.,4.375,2.2));
#748=DIRECTION('',(1.,-0.,0.));
#749=DIRECTION('',(0.,1.,0.));
#750=AXIS2_PLACEMENT_3D('',#747,#748,#749);
#751=PLANE('',#750);
#752=ORIENTED_EDGE('',*,*,#561,.T.);
#753=CARTESIAN_POINT('',(10.,3.846291202,2.2));
#754=DIRECTION('',(0.,0.,-1.));
#755=VECTOR('',#754,2.2);
#756=LINE('',#753,#755);
#757=EDGE_CURVE('',#547,#250,#756,.T.);
#758=ORIENTED_EDGE('',*,*,#757,.T.);
#759=ORIENTED_EDGE('',*,*,#255,.F.);
#760=CARTESIAN_POINT('',(10.,5.,2.2));
#761=DIRECTION('',(0.,0.,-1.));
#762=VECTOR('',#761,2.2);
#763=LINE('',#760,#762);
#764=EDGE_CURVE('',#556,#241,#763,.T.);
#765=ORIENTED_EDGE('',*,*,#764,.F.);
#766=EDGE_LOOP('',(#752,#758,#759,#765));
#767=FACE_BOUND('',#766,.T.);
#768=ADVANCED_FACE('',(#767),#751,.T.);
#769=CARTESIAN_POINT('',(7.5,5.,2.2));
#770=DIRECTION('',(0.,0.,-1.));
#771=DIRECTION('',(-1.,0.,0.));
#772=AXIS2_PLACEMENT_3D('',#769,#770,#771);
#773=CYLINDRICAL_SURFACE('',#772,2.5);
#774=ORIENTED_EDGE('',*,*,#247,.T.);
#775=CARTESIAN_POINT('',(5.,5.,2.2));
#776=DIRECTION('',(0.,0.,-1.));
#777=VECTOR('',#776,2.2);
#778=LINE('',#775,#777);
#779=EDGE_CURVE('',#564,#233,#778,.T.);
#780=ORIENTED_EDGE('',*,*,#779,.F.);
#781=ORIENTED_EDGE('',*,*,#570,.F.);
#782=ORIENTED_EDGE('',*,*,#764,.T.);
#783=EDGE_LOOP('',(#774,#780,#781,#782));
#784=FACE_BOUND('',#783,.T.);
#785=ADVANCED_FACE('',(#784),#773,.T.);
#786=CARTESIAN_POINT('',(5.,4.375,2.2));
#787=DIRECTION('',(-1.,0.,0.));
#788=DIRECTION('',(-0.,-1.,0.));
#789=AXIS2_PLACEMENT_3D('',#786,#787,#788);
#790=PLANE('',#789);
#791=ORIENTED_EDGE('',*,*,#238,.F.);
#792=CARTESIAN_POINT('',(5.,3.846291202,0.));
#793=DIRECTION('',(-0.,-0.,1.));
#794=VECTOR('',#793,2.2);
#795=LINE('',#792,#794);
#796=EDGE_CURVE('',#224,#573,#795,.T.);
#797=ORIENTED_EDGE('',*,*,#796,.T.);
#798=ORIENTED_EDGE('',*,*,#578,.T.);
#799=ORIENTED_EDGE('',*,*,#779,.T.);
#800=EDGE_LOOP('',(#791,#797,#798,#799));
#801=FACE_BOUND('',#800,.T.);
#802=ADVANCED_FACE('',(#801),#790,.T.);
#803=CARTESIAN_POINT('',(2.,2.5,2.2));
#804=DIRECTION('',(0.,0.,-1.));
#805=DIRECTION('',(-1.,0.,0.));
#806=AXIS2_PLACEMENT_3D('',#803,#804,#805);
#807=CYLINDRICAL_SURFACE('',#806,3.25);
#808=ORIENTED_EDGE('',*,*,#221,.F.);
#809=CARTESIAN_POINT('',(5.033333333,1.333214292,0.));
#810=DIRECTION('',(-0.,-0.,1.));
#811=VECTOR('',#810,2.2);
#812=LINE('',#809,#811);
#813=EDGE_CURVE('',#206,#475,#812,.T.);
#814=ORIENTED_EDGE('',*,*,#813,.T.);
#815=ORIENTED_EDGE('',*,*,#483,.T.);
#816=CARTESIAN_POINT('',(5.033333333,3.666785708,2.2));
#817=DIRECTION('',(0.,0.,-1.));
#818=VECTOR('',#817,2.2);
#819=LINE('',#816,#818);
#820=EDGE_CURVE('',#477,#215,#819,.T.);
#821=ORIENTED_EDGE('',*,*,#820,.T.);
#822=EDGE_LOOP('',(#808,#814,#815,#821));
#823=FACE_BOUND('',#822,.T.);
#824=ADVANCED_FACE('',(#823),#807,.F.);
#825=CARTESIAN_POINT('',(5.5,1.153708798,2.2));
#826=DIRECTION('',(0.,0.,-1.));
#827=DIRECTION('',(-1.,0.,0.));
#828=AXIS2_PLACEMENT_3D('',#825,#826,#827);
#829=CYLINDRICAL_SURFACE('',#828,0.5);
#830=ORIENTED_EDGE('',*,*,#492,.F.);
#831=ORIENTED_EDGE('',*,*,#813,.F.);
#832=ORIENTED_EDGE('',*,*,#212,.F.);
#833=ORIENTED_EDGE('',*,*,#679,.F.);
#834=EDGE_LOOP('',(#830,#831,#832,#833));
#835=FACE_BOUND('',#834,.T.);
#836=ADVANCED_FACE('',(#835),#829,.T.);
#837=CARTESIAN_POINT('',(9.5,1.153708798,2.2));
#838=DIRECTION('',(0.,0.,-1.));
#839=DIRECTION('',(-1.,0.,0.));
#840=AXIS2_PLACEMENT_3D('',#837,#838,#839);
#841=CYLINDRICAL_SURFACE('',#840,0.5);
#842=ORIENTED_EDGE('',*,*,#526,.F.);
#843=ORIENTED_EDGE('',*,*,#718,.F.);
#844=ORIENTED_EDGE('',*,*,#291,.F.);
#845=CARTESIAN_POINT('',(9.966666667,1.333214292,2.2));
#846=DIRECTION('',(0.,0.,-1.));
#847=VECTOR('',#846,2.2);
#848=LINE('',#845,#847);
#849=EDGE_CURVE('',#520,#276,#848,.T.);
#850=ORIENTED_EDGE('',*,*,#849,.F.);
#851=EDGE_LOOP('',(#842,#843,#844,#850));
#852=FACE_BOUND('',#851,.T.);
#853=ADVANCED_FACE('',(#852),#841,.T.);
#854=CARTESIAN_POINT('',(5.5,3.846291202,2.2));
#855=DIRECTION('',(0.,0.,-1.));
#856=DIRECTION('',(-1.,0.,0.));
#857=AXIS2_PLACEMENT_3D('',#854,#855,#856);
#858=CYLINDRICAL_SURFACE('',#857,0.5);
#859=ORIENTED_EDGE('',*,*,#585,.F.);
#860=ORIENTED_EDGE('',*,*,#796,.F.);
#861=ORIENTED_EDGE('',*,*,#230,.F.);
#862=ORIENTED_EDGE('',*,*,#820,.F.);
#863=EDGE_LOOP('',(#859,#860,#861,#862));
#864=FACE_BOUND('',#863,.T.);
#865=ADVANCED_FACE('',(#864),#858,.T.);
#866=CARTESIAN_POINT('',(9.5,3.846291202,2.2));
#867=DIRECTION('',(0.,0.,-1.));
#868=DIRECTION('',(-1.,0.,0.));
#869=AXIS2_PLACEMENT_3D('',#866,#867,#868);
#870=CYLINDRICAL_SURFACE('',#869,0.5);
#871=ORIENTED_EDGE('',*,*,#553,.F.);
#872=ORIENTED_EDGE('',*,*,#741,.F.);
#873=ORIENTED_EDGE('',*,*,#264,.F.);
#874=ORIENTED_EDGE('',*,*,#757,.F.);
#875=EDGE_LOOP('',(#871,#872,#873,#874));
#876=FACE_BOUND('',#875,.T.);
#877=ADVANCED_FACE('',(#876),#870,.T.);
#878=CARTESIAN_POINT('',(5.8,0.625,2.2));
#879=DIRECTION('',(-1.,0.,0.));
#880=DIRECTION('',(-0.,-1.,0.));
#881=AXIS2_PLACEMENT_3D('',#878,#879,#880);
#882=PLANE('',#881);
#883=ORIENTED_EDGE('',*,*,#318,.T.);
#884=CARTESIAN_POINT('',(5.8,1.012552522,0.));
#885=DIRECTION('',(0.,0.,1.));
#886=VECTOR('',#885,2.2);
#887=LINE('',#884,#886);
#888=EDGE_CURVE('',#313,#592,#887,.T.);
#889=ORIENTED_EDGE('',*,*,#888,.T.);
#890=ORIENTED_EDGE('',*,*,#597,.F.);
#891=CARTESIAN_POINT('',(5.8,0.,2.2));
#892=DIRECTION('',(0.,0.,-1.));
#893=VECTOR('',#892,2.2);
#894=LINE('',#891,#893);
#895=EDGE_CURVE('',#590,#311,#894,.T.);
#896=ORIENTED_EDGE('',*,*,#895,.T.);
#897=EDGE_LOOP('',(#883,#889,#890,#896));
#898=FACE_BOUND('',#897,.T.);
#899=ADVANCED_FACE('',(#898),#882,.F.);
#900=CARTESIAN_POINT('',(7.5,0.,2.2));
#901=DIRECTION('',(0.,0.,-1.));
#902=DIRECTION('',(-1.,0.,0.));
#903=AXIS2_PLACEMENT_3D('',#900,#901,#902);
#904=CYLINDRICAL_SURFACE('',#903,1.7);
#905=ORIENTED_EDGE('',*,*,#327,.F.);
#906=ORIENTED_EDGE('',*,*,#895,.F.);
#907=ORIENTED_EDGE('',*,*,#664,.T.);
#908=CARTESIAN_POINT('',(9.2,-0.,2.2));
#909=DIRECTION('',(-0.,-0.,-1.));
#910=VECTOR('',#909,2.2);
#911=LINE('',#908,#910);
#912=EDGE_CURVE('',#652,#321,#911,.T.);
#913=ORIENTED_EDGE('',*,*,#912,.T.);
#914=EDGE_LOOP('',(#905,#906,#907,#913));
#915=FACE_BOUND('',#914,.T.);
#916=ADVANCED_FACE('',(#915),#904,.F.);
#917=CARTESIAN_POINT('',(9.2,0.625,2.2));
#918=DIRECTION('',(1.,-0.,0.));
#919=DIRECTION('',(0.,1.,0.));
#920=AXIS2_PLACEMENT_3D('',#917,#918,#919);
#921=PLANE('',#920);
#922=ORIENTED_EDGE('',*,*,#657,.F.);
#923=CARTESIAN_POINT('',(9.2,1.012552522,2.2));
#924=DIRECTION('',(-0.,-0.,-1.));
#925=VECTOR('',#924,2.2);
#926=LINE('',#923,#925);
#927=EDGE_CURVE('',#643,#330,#926,.T.);
#928=ORIENTED_EDGE('',*,*,#927,.T.);
#929=ORIENTED_EDGE('',*,*,#335,.T.);
#930=ORIENTED_EDGE('',*,*,#912,.F.);
#931=EDGE_LOOP('',(#922,#928,#929,#930));
#932=FACE_BOUND('',#931,.T.);
#933=ADVANCED_FACE('',(#932),#921,.F.);
#934=CARTESIAN_POINT('',(13.,2.5,2.2));
#935=DIRECTION('',(0.,0.,-1.));
#936=DIRECTION('',(-1.,0.,0.));
#937=AXIS2_PLACEMENT_3D('',#934,#935,#936);
#938=CYLINDRICAL_SURFACE('',#937,4.05);
#939=ORIENTED_EDGE('',*,*,#404,.F.);
#940=CARTESIAN_POINT('',(9.172527473,3.823991711,2.2));
#941=DIRECTION('',(0.,0.,-1.));
#942=VECTOR('',#941,2.2);
#943=LINE('',#940,#942);
#944=EDGE_CURVE('',#396,#144,#943,.T.);
#945=ORIENTED_EDGE('',*,*,#944,.T.);
#946=ORIENTED_EDGE('',*,*,#150,.T.);
#947=CARTESIAN_POINT('',(9.070137114,3.479120879,0.));
#948=DIRECTION('',(-0.,-0.,1.));
#949=VECTOR('',#948,2.2);
#950=LINE('',#947,#949);
#951=EDGE_CURVE('',#135,#398,#950,.T.);
#952=ORIENTED_EDGE('',*,*,#951,.T.);
#953=EDGE_LOOP('',(#939,#945,#946,#952));
#954=FACE_BOUND('',#953,.T.);
#955=ADVANCED_FACE('',(#954),#938,.T.);
#956=CARTESIAN_POINT('',(9.2,4.375,2.2));
#957=DIRECTION('',(1.,-0.,0.));
#958=DIRECTION('',(0.,1.,0.));
#959=AXIS2_PLACEMENT_3D('',#956,#957,#958);
#960=PLANE('',#959);
#961=ORIENTED_EDGE('',*,*,#167,.T.);
#962=CARTESIAN_POINT('',(9.2,3.987447478,0.));
#963=DIRECTION('',(0.,0.,1.));
#964=VECTOR('',#963,2.2);
#965=LINE('',#962,#964);
#966=EDGE_CURVE('',#153,#458,#965,.T.);
#967=ORIENTED_EDGE('',*,*,#966,.T.);
#968=ORIENTED_EDGE('',*,*,#463,.F.);
#969=CARTESIAN_POINT('',(9.2,5.,2.2));
#970=DIRECTION('',(0.,0.,-1.));
#971=VECTOR('',#970,2.2);
#972=LINE('',#969,#971);
#973=EDGE_CURVE('',#449,#162,#972,.T.);
#974=ORIENTED_EDGE('',*,*,#973,.T.);
#975=EDGE_LOOP('',(#961,#967,#968,#974));
#976=FACE_BOUND('',#975,.T.);
#977=ADVANCED_FACE('',(#976),#960,.F.);
#978=CARTESIAN_POINT('',(7.5,5.,2.2));
#979=DIRECTION('',(0.,0.,-1.));
#980=DIRECTION('',(-1.,0.,0.));
#981=AXIS2_PLACEMENT_3D('',#978,#979,#980);
#982=CYLINDRICAL_SURFACE('',#981,1.7);
#983=ORIENTED_EDGE('',*,*,#176,.F.);
#984=ORIENTED_EDGE('',*,*,#973,.F.);
#985=ORIENTED_EDGE('',*,*,#455,.T.);
#986=CARTESIAN_POINT('',(5.8,5.,2.2));
#987=DIRECTION('',(-0.,-0.,-1.));
#988=VECTOR('',#987,2.2);
#989=LINE('',#986,#988);
#990=EDGE_CURVE('',#441,#170,#989,.T.);
#991=ORIENTED_EDGE('',*,*,#990,.T.);
#992=EDGE_LOOP('',(#983,#984,#985,#991));
#993=FACE_BOUND('',#992,.T.);
#994=ADVANCED_FACE('',(#993),#982,.F.);
#995=CARTESIAN_POINT('',(5.8,4.375,2.2));
#996=DIRECTION('',(-1.,0.,0.));
#997=DIRECTION('',(-0.,-1.,0.));
#998=AXIS2_PLACEMENT_3D('',#995,#996,#997);
#999=PLANE('',#998);
#1000=ORIENTED_EDGE('',*,*,#446,.F.);
#1001=CARTESIAN_POINT('',(5.8,3.987447478,2.2));
#1002=DIRECTION('',(-0.,-0.,-1.));
#1003=VECTOR('',#1002,2.2);
#1004=LINE('',#1001,#1003);
#1005=EDGE_CURVE('',#432,#179,#1004,.T.);
#1006=ORIENTED_EDGE('',*,*,#1005,.T.);
#1007=ORIENTED_EDGE('',*,*,#184,.T.);
#1008=ORIENTED_EDGE('',*,*,#990,.F.);
#1009=EDGE_LOOP('',(#1000,#1006,#1007,#1008));
#1010=FACE_BOUND('',#1009,.T.);
#1011=ADVANCED_FACE('',(#1010),#999,.F.);
#1012=CARTESIAN_POINT('',(2.,2.5,2.2));
#1013=DIRECTION('',(0.,0.,-1.));
#1014=DIRECTION('',(-1.,0.,0.));
#1015=AXIS2_PLACEMENT_3D('',#1012,#1013,#1014);
#1016=CYLINDRICAL_SURFACE('',#1015,4.05);
#1017=ORIENTED_EDGE('',*,*,#378,.T.);
#1018=CARTESIAN_POINT('',(5.929862886,1.520879121,0.));
#1019=DIRECTION('',(-0.,-0.,1.));
#1020=VECTOR('',#1019,2.2);
#1021=LINE('',#1018,#1020);
#1022=EDGE_CURVE('',#363,#609,#1021,.T.);
#1023=ORIENTED_EDGE('',*,*,#1022,.T.);
#1024=ORIENTED_EDGE('',*,*,#615,.F.);
#1025=CARTESIAN_POINT('',(5.827472527,1.176008289,2.2));
#1026=DIRECTION('',(0.,0.,-1.));
#1027=VECTOR('',#1026,2.2);
#1028=LINE('',#1025,#1027);
#1029=EDGE_CURVE('',#600,#372,#1028,.T.);
#1030=ORIENTED_EDGE('',*,*,#1029,.T.);
#1031=EDGE_LOOP('',(#1017,#1023,#1024,#1030));
#1032=FACE_BOUND('',#1031,.T.);
#1033=ADVANCED_FACE('',(#1032),#1016,.T.);
#1034=CARTESIAN_POINT('',(7.5,3.1,-0.002));
#1035=DIRECTION('',(-0.,1.,0.));
#1036=DIRECTION('',(-1.,-0.,0.));
#1037=AXIS2_PLACEMENT_3D('',#1034,#1035,#1036);
#1038=PLANE('',#1037);
#1039=ORIENTED_EDGE('',*,*,#132,.F.);
#1040=CARTESIAN_POINT('',(6.415031144,3.1,-0.));
#1041=DIRECTION('',(-0.,-0.,1.));
#1042=VECTOR('',#1041,2.2);
#1043=LINE('',#1040,#1042);
#1044=EDGE_CURVE('',#118,#416,#1043,.T.);
#1045=ORIENTED_EDGE('',*,*,#1044,.T.);
#1046=ORIENTED_EDGE('',*,*,#421,.F.);
#1047=CARTESIAN_POINT('',(8.584968856,3.1,2.2));
#1048=DIRECTION('',(0.,0.,-1.));
#1049=VECTOR('',#1048,2.2);
#1050=LINE('',#1047,#1049);
#1051=EDGE_CURVE('',#407,#127,#1050,.T.);
#1052=ORIENTED_EDGE('',*,*,#1051,.T.);
#1053=EDGE_LOOP('',(#1039,#1045,#1046,#1052));
#1054=FACE_BOUND('',#1053,.T.);
#1055=ADVANCED_FACE('',(#1054),#1038,.T.);
#1056=CARTESIAN_POINT('',(7.5,1.9,-0.002));
#1057=DIRECTION('',(0.,-1.,0.));
#1058=DIRECTION('',(0.,0.,-1.));
#1059=AXIS2_PLACEMENT_3D('',#1056,#1057,#1058);
#1060=PLANE('',#1059);
#1061=ORIENTED_EDGE('',*,*,#632,.F.);
#1062=CARTESIAN_POINT('',(6.415031144,1.9,2.2));
#1063=DIRECTION('',(0.,0.,-1.));
#1064=VECTOR('',#1063,2.2);
#1065=LINE('',#1062,#1064);
#1066=EDGE_CURVE('',#618,#355,#1065,.T.);
#1067=ORIENTED_EDGE('',*,*,#1066,.T.);
#1068=ORIENTED_EDGE('',*,*,#360,.F.);
#1069=CARTESIAN_POINT('',(8.584968856,1.9,-0.));
#1070=DIRECTION('',(-0.,-0.,1.));
#1071=VECTOR('',#1070,2.2);
#1072=LINE('',#1069,#1071);
#1073=EDGE_CURVE('',#346,#627,#1072,.T.);
#1074=ORIENTED_EDGE('',*,*,#1073,.T.);
#1075=EDGE_LOOP('',(#1061,#1067,#1068,#1074));
#1076=FACE_BOUND('',#1075,.T.);
#1077=ADVANCED_FACE('',(#1076),#1060,.T.);
#1078=CARTESIAN_POINT('',(6.415031144,1.4,2.2));
#1079=DIRECTION('',(0.,0.,-1.));
#1080=DIRECTION('',(-1.,0.,0.));
#1081=AXIS2_PLACEMENT_3D('',#1078,#1079,#1080);
#1082=CYLINDRICAL_SURFACE('',#1081,0.5);
#1083=ORIENTED_EDGE('',*,*,#369,.F.);
#1084=ORIENTED_EDGE('',*,*,#1066,.F.);
#1085=ORIENTED_EDGE('',*,*,#624,.F.);
#1086=ORIENTED_EDGE('',*,*,#1022,.F.);
#1087=EDGE_LOOP('',(#1083,#1084,#1085,#1086));
#1088=FACE_BOUND('',#1087,.T.);
#1089=ADVANCED_FACE('',(#1088),#1082,.F.);
#1090=CARTESIAN_POINT('',(8.584968856,1.4,2.2));
#1091=DIRECTION('',(0.,0.,-1.));
#1092=DIRECTION('',(-1.,0.,0.));
#1093=AXIS2_PLACEMENT_3D('',#1090,#1091,#1092);
#1094=CYLINDRICAL_SURFACE('',#1093,0.5);
#1095=ORIENTED_EDGE('',*,*,#352,.F.);
#1096=ORIENTED_EDGE('',*,*,#49,.F.);
#1097=ORIENTED_EDGE('',*,*,#639,.F.);
#1098=ORIENTED_EDGE('',*,*,#1073,.F.);
#1099=EDGE_LOOP('',(#1095,#1096,#1097,#1098));
#1100=FACE_BOUND('',#1099,.T.);
#1101=ADVANCED_FACE('',(#1100),#1094,.F.);
#1102=CARTESIAN_POINT('',(8.7,1.012552522,2.2));
#1103=DIRECTION('',(0.,0.,-1.));
#1104=DIRECTION('',(-1.,0.,0.));
#1105=AXIS2_PLACEMENT_3D('',#1102,#1103,#1104);
#1106=CYLINDRICAL_SURFACE('',#1105,0.5);
#1107=ORIENTED_EDGE('',*,*,#342,.F.);
#1108=ORIENTED_EDGE('',*,*,#927,.F.);
#1109=ORIENTED_EDGE('',*,*,#649,.F.);
#1110=ORIENTED_EDGE('',*,*,#64,.F.);
#1111=EDGE_LOOP('',(#1107,#1108,#1109,#1110));
#1112=FACE_BOUND('',#1111,.T.);
#1113=ADVANCED_FACE('',(#1112),#1106,.F.);
#1114=CARTESIAN_POINT('',(8.7,3.987447478,2.2));
#1115=DIRECTION('',(0.,0.,-1.));
#1116=DIRECTION('',(-1.,0.,0.));
#1117=AXIS2_PLACEMENT_3D('',#1114,#1115,#1116);
#1118=CYLINDRICAL_SURFACE('',#1117,0.5);
#1119=ORIENTED_EDGE('',*,*,#159,.F.);
#1120=ORIENTED_EDGE('',*,*,#944,.F.);
#1121=ORIENTED_EDGE('',*,*,#470,.F.);
#1122=ORIENTED_EDGE('',*,*,#966,.F.);
#1123=EDGE_LOOP('',(#1119,#1120,#1121,#1122));
#1124=FACE_BOUND('',#1123,.T.);
#1125=ADVANCED_FACE('',(#1124),#1118,.F.);
#1126=CARTESIAN_POINT('',(6.415031144,3.6,2.2));
#1127=DIRECTION('',(0.,0.,-1.));
#1128=DIRECTION('',(-1.,0.,0.));
#1129=AXIS2_PLACEMENT_3D('',#1126,#1127,#1128);
#1130=CYLINDRICAL_SURFACE('',#1129,0.5);
#1131=ORIENTED_EDGE('',*,*,#124,.F.);
#1132=ORIENTED_EDGE('',*,*,#91,.F.);
#1133=ORIENTED_EDGE('',*,*,#428,.F.);
#1134=ORIENTED_EDGE('',*,*,#1044,.F.);
#1135=EDGE_LOOP('',(#1131,#1132,#1133,#1134));
#1136=FACE_BOUND('',#1135,.T.);
#1137=ADVANCED_FACE('',(#1136),#1130,.F.);
#1138=CARTESIAN_POINT('',(6.3,3.987447478,2.2));
#1139=DIRECTION('',(0.,0.,-1.));
#1140=DIRECTION('',(-1.,0.,0.));
#1141=AXIS2_PLACEMENT_3D('',#1138,#1139,#1140);
#1142=CYLINDRICAL_SURFACE('',#1141,0.5);
#1143=ORIENTED_EDGE('',*,*,#191,.F.);
#1144=ORIENTED_EDGE('',*,*,#1005,.F.);
#1145=ORIENTED_EDGE('',*,*,#438,.F.);
#1146=ORIENTED_EDGE('',*,*,#106,.F.);
#1147=EDGE_LOOP('',(#1143,#1144,#1145,#1146));
#1148=FACE_BOUND('',#1147,.T.);
#1149=ADVANCED_FACE('',(#1148),#1142,.F.);
#1150=CARTESIAN_POINT('',(6.3,1.012552522,2.2));
#1151=DIRECTION('',(0.,0.,-1.));
#1152=DIRECTION('',(-1.,0.,0.));
#1153=AXIS2_PLACEMENT_3D('',#1150,#1151,#1152);
#1154=CYLINDRICAL_SURFACE('',#1153,0.5);
#1155=ORIENTED_EDGE('',*,*,#385,.F.);
#1156=ORIENTED_EDGE('',*,*,#1029,.F.);
#1157=ORIENTED_EDGE('',*,*,#606,.F.);
#1158=ORIENTED_EDGE('',*,*,#888,.F.);
#1159=EDGE_LOOP('',(#1155,#1156,#1157,#1158));
#1160=FACE_BOUND('',#1159,.T.);
#1161=ADVANCED_FACE('',(#1160),#1154,.F.);
#1162=CARTESIAN_POINT('',(8.584968856,3.6,2.2));
#1163=DIRECTION('',(0.,0.,-1.));
#1164=DIRECTION('',(-1.,0.,0.));
#1165=AXIS2_PLACEMENT_3D('',#1162,#1163,#1164);
#1166=CYLINDRICAL_SURFACE('',#1165,0.5);
#1167=ORIENTED_EDGE('',*,*,#141,.F.);
#1168=ORIENTED_EDGE('',*,*,#1051,.F.);
#1169=ORIENTED_EDGE('',*,*,#413,.F.);
#1170=ORIENTED_EDGE('',*,*,#951,.F.);
#1171=EDGE_LOOP('',(#1167,#1168,#1169,#1170));
#1172=FACE_BOUND('',#1171,.T.);
#1173=ADVANCED_FACE('',(#1172),#1166,.F.);
#1174=CARTESIAN_POINT('',(13.,2.5,2.2));
#1175=DIRECTION('',(0.,0.,-1.));
#1176=DIRECTION('',(-1.,0.,0.));
#1177=AXIS2_PLACEMENT_3D('',#1174,#1175,#1176);
#1178=CYLINDRICAL_SURFACE('',#1177,3.25);
#1179=ORIENTED_EDGE('',*,*,#734,.T.);
#1180=ORIENTED_EDGE('',*,*,#535,.T.);
#1181=ORIENTED_EDGE('',*,*,#849,.T.);
#1182=ORIENTED_EDGE('',*,*,#282,.F.);
#1183=EDGE_LOOP('',(#1179,#1180,#1181,#1182));
#1184=FACE_BOUND('',#1183,.T.);
#1185=ADVANCED_FACE('',(#1184),#1178,.F.);
#1186=CLOSED_SHELL('',(#68,#110,#389,#668,#690,#707,#724,#746,#768,#785,#802,#824,#836,#853,#865,#877,#899,#916,#933,#955,#977,#994,#1011,#1033,#1055,#1077,
#1089,#1101,#1113,#1125,#1137,#1149,#1161,#1173,#1185));
#1187=MANIFOLD_SOLID_BREP('openGrid Lite Connector',#1186);
#1188=COLOUR_RGB('',0.494117647,0.494117647,0.525490224);
#1189=FILL_AREA_STYLE_COLOUR('',#1188);
#1190=FILL_AREA_STYLE('',(#1189));
#1191=SURFACE_STYLE_FILL_AREA(#1190);
#1192=SURFACE_SIDE_STYLE('',(#1191));
#1193=SURFACE_STYLE_USAGE(.BOTH.,#1192);
#1194=PRESENTATION_STYLE_ASSIGNMENT((#1193));
#26=STYLED_ITEM('',(#1194),#1187);
#16=SHAPE_REPRESENTATION('openGrid Lite Connector',(#15),#10);
#17=ADVANCED_BREP_SHAPE_REPRESENTATION('openGrid Lite Connector',(#1187),#10);
#1202=SHAPE_REPRESENTATION_RELATIONSHIP('','',#16,#17);
#1203=CARTESIAN_POINT('',(0.,0.,0.));
#1204=DIRECTION('',(0.,0.,1.));
#1205=DIRECTION('',(1.,0.,0.));
#1206=AXIS2_PLACEMENT_3D('',#1203,#1204,#1205);
#1208=MAPPED_ITEM('',#1207,#1206);
#1207=REPRESENTATION_MAP(#1206,#16);
#1209=APPLICATION_CONTEXT('Managed model based 3d engineering');
#1210=APPLICATION_PROTOCOL_DEFINITION('international standard','ap242_managed_model_based_3d_engineering',2014,#1209);
#1211=PRODUCT_CONTEXT('',#1209,'mechanical');
#1212=PRODUCT_DEFINITION_CONTEXT('part definition',#1209,'design');
#24=PRODUCT('openGrid Lite Connector','openGrid Lite Connector','',(#1211));
#1213=PRODUCT_RELATED_PRODUCT_CATEGORY('part','',(#24));
#1214=PRODUCT_DEFINITION_FORMATION_WITH_SPECIFIED_SOURCE('','',#24,.NOT_KNOWN.);
#25=PRODUCT_DEFINITION('design','',#1214,#1212);
#23=PRODUCT_DEFINITION_SHAPE('','',#25);
#1215=SHAPE_DEFINITION_REPRESENTATION(#23,#16);
#11=DRAUGHTING_MODEL('',(#1208),#10);
#1216=DESCRIPTIVE_REPRESENTATION_ITEM('KEY','/Users/ddanier/Library/Containers/com.shapr3d.shapr/Data/tmp/021AC3DC-FC33-43C8-985D-69C9F1F04C56.tmp');
#1217=PROPERTY_DEFINITION('KEY','',#25);
#1218=REPRESENTATION('',(#1216),#10);
#1219=PROPERTY_DEFINITION_REPRESENTATION(#1217,#1218);
#1220=GENERAL_PROPERTY('','KEY','');
#1221=GENERAL_PROPERTY_ASSOCIATION('','',#1220,#1217);
#1=MECHANICAL_DESIGN_GEOMETRIC_PRESENTATION_REPRESENTATION('',(#26),#10);
ENDSEC;
END-ISO-10303-21;
