ISO-10303-21;
HEADER;
/* Generated by software containing ST-Developer
 * from STEP Tools, Inc. (www.steptools.com) 
 */

FILE_DESCRIPTION(
/* description */ (''),
/* implementation_level */ '2;1');

FILE_NAME(
/* name */ 'R01 Gauge.stp',
/* time_stamp */ '2025-04-23T18:43:29+10:00',
/* author */ (''),
/* organization */ (''),
/* preprocessor_version */ 'ST-DEVELOPER v20.1',
/* originating_system */ 'Autodesk Translation Framework v14.4.0.0',
/* authorisation */ '');

FILE_SCHEMA (('AUTOMOTIVE_DESIGN { 1 0 10303 214 3 1 1 }'));
ENDSEC;

DATA;
#10=MECHANICAL_DESIGN_GEOMETRIC_PRESENTATION_REPRESENTATION('',(#13),#1692);
#11=SHAPE_REPRESENTATION_RELATIONSHIP('SRR','None',#1699,#12);
#12=ADVANCED_BREP_SHAPE_REPRESENTATION('',(#14),#1691);
#13=STYLED_ITEM('',(#1708),#14);
#14=MANIFOLD_SOLID_BREP('Body1',#904);
#15=CYLINDRICAL_SURFACE('',#943,1.);
#16=B_SPLINE_SURFACE_WITH_KNOTS('',3,1,((#1255,#1256),(#1257,#1258),(#1259,
#1260),(#1261,#1262),(#1263,#1264)),.UNSPECIFIED.,.F.,.F.,.F.,(4,1,4),(2,
2),(0.,0.0292683046402059,0.0877278816271959),(0.,0.04),.UNSPECIFIED.);
#17=B_SPLINE_SURFACE_WITH_KNOTS('',3,1,((#1278,#1279),(#1280,#1281),(#1282,
#1283),(#1284,#1285),(#1286,#1287)),.UNSPECIFIED.,.F.,.F.,.F.,(4,1,4),(2,
2),(0.,0.0245137084432334,0.0517312719764843),(0.,0.04),.UNSPECIFIED.);
#18=B_SPLINE_SURFACE_WITH_KNOTS('',3,1,((#1301,#1302),(#1303,#1304),(#1305,
#1306),(#1307,#1308),(#1309,#1310)),.UNSPECIFIED.,.F.,.F.,.F.,(4,1,4),(2,
2),(0.,0.0274425680625578,0.0519583922673294),(0.,0.04),.UNSPECIFIED.);
#19=B_SPLINE_SURFACE_WITH_KNOTS('',3,1,((#1324,#1325),(#1326,#1327),(#1328,
#1329),(#1330,#1331),(#1332,#1333)),.UNSPECIFIED.,.F.,.F.,.F.,(4,1,4),(2,
2),(0.,0.0220732232643195,0.0468214363530435),(0.,0.04),.UNSPECIFIED.);
#20=B_SPLINE_SURFACE_WITH_KNOTS('',3,1,((#1347,#1348),(#1349,#1350),(#1351,
#1352),(#1353,#1354),(#1355,#1356)),.UNSPECIFIED.,.F.,.F.,.F.,(4,1,4),(2,
2),(0.,0.0216065502965852,0.0426391915051792),(0.,0.04),.UNSPECIFIED.);
#21=B_SPLINE_SURFACE_WITH_KNOTS('',3,1,((#1370,#1371),(#1372,#1373),(#1374,
#1375),(#1376,#1377),(#1378,#1379)),.UNSPECIFIED.,.F.,.F.,.F.,(4,1,4),(2,
2),(0.,0.0702538216177741,0.108403218828905),(0.,0.04),.UNSPECIFIED.);
#22=B_SPLINE_SURFACE_WITH_KNOTS('',3,1,((#1412,#1413),(#1414,#1415),(#1416,
#1417),(#1418,#1419),(#1420,#1421)),.UNSPECIFIED.,.F.,.F.,.F.,(4,1,4),(2,
2),(0.,0.0251681682852492,0.0610327282194378),(0.,0.04),.UNSPECIFIED.);
#23=B_SPLINE_SURFACE_WITH_KNOTS('',3,1,((#1429,#1430),(#1431,#1432),(#1433,
#1434),(#1435,#1436),(#1437,#1438)),.UNSPECIFIED.,.F.,.F.,.F.,(4,1,4),(2,
2),(0.,0.0232381939306405,0.0441174517585879),(0.,0.04),.UNSPECIFIED.);
#24=B_SPLINE_SURFACE_WITH_KNOTS('',3,1,((#1446,#1447),(#1448,#1449),(#1450,
#1451),(#1452,#1453),(#1454,#1455)),.UNSPECIFIED.,.F.,.F.,.F.,(4,1,4),(2,
2),(0.,0.0687027131930971,0.108050995604873),(0.,0.04),.UNSPECIFIED.);
#25=B_SPLINE_SURFACE_WITH_KNOTS('',3,1,((#1475,#1476),(#1477,#1478),(#1479,
#1480),(#1481,#1482),(#1483,#1484)),.UNSPECIFIED.,.F.,.F.,.F.,(4,1,4),(2,
2),(0.,0.048089486218889,0.118489257737085),(0.,0.04),.UNSPECIFIED.);
#26=B_SPLINE_SURFACE_WITH_KNOTS('',3,1,((#1492,#1493),(#1494,#1495),(#1496,
#1497),(#1498,#1499),(#1500,#1501)),.UNSPECIFIED.,.F.,.F.,.F.,(4,1,4),(2,
2),(0.,0.0428271087353407,0.081661699097431),(0.,0.04),.UNSPECIFIED.);
#27=B_SPLINE_SURFACE_WITH_KNOTS('',3,1,((#1509,#1510),(#1511,#1512),(#1513,
#1514),(#1515,#1516),(#1517,#1518)),.UNSPECIFIED.,.F.,.F.,.F.,(4,1,4),(2,
2),(0.,0.0606478741289087,0.131953803512571),(0.,0.04),.UNSPECIFIED.);
#28=B_SPLINE_SURFACE_WITH_KNOTS('',3,1,((#1526,#1527),(#1528,#1529),(#1530,
#1531),(#1532,#1533),(#1534,#1535)),.UNSPECIFIED.,.F.,.F.,.F.,(4,1,4),(2,
2),(0.,0.0619341756070439,0.119554039611203),(0.,0.04),.UNSPECIFIED.);
#29=B_SPLINE_SURFACE_WITH_KNOTS('',3,1,((#1543,#1544),(#1545,#1546),(#1547,
#1548),(#1549,#1550),(#1551,#1552)),.UNSPECIFIED.,.F.,.F.,.F.,(4,1,4),(2,
2),(0.,0.0480709378532739,0.0983233220010378),(0.,0.04),.UNSPECIFIED.);
#30=B_SPLINE_SURFACE_WITH_KNOTS('',3,1,((#1560,#1561),(#1562,#1563),(#1564,
#1565),(#1566,#1567),(#1568,#1569)),.UNSPECIFIED.,.F.,.F.,.F.,(4,1,4),(2,
2),(0.,0.0448451320081345,0.0909536372865049),(0.,0.04),.UNSPECIFIED.);
#31=B_SPLINE_SURFACE_WITH_KNOTS('',3,1,((#1577,#1578),(#1579,#1580),(#1581,
#1582),(#1583,#1584),(#1585,#1586)),.UNSPECIFIED.,.F.,.F.,.F.,(4,1,4),(2,
2),(0.,0.0824554494320585,0.140001490706005),(0.,0.04),.UNSPECIFIED.);
#32=B_SPLINE_SURFACE_WITH_KNOTS('',3,1,((#1611,#1612),(#1613,#1614),(#1615,
#1616),(#1617,#1618),(#1619,#1620)),.UNSPECIFIED.,.F.,.F.,.F.,(4,1,4),(2,
2),(0.,0.0624698689678472,0.120508064374643),(0.,0.04),.UNSPECIFIED.);
#33=B_SPLINE_SURFACE_WITH_KNOTS('',3,1,((#1628,#1629),(#1630,#1631),(#1632,
#1633),(#1634,#1635),(#1636,#1637)),.UNSPECIFIED.,.F.,.F.,.F.,(4,1,4),(2,
2),(0.,0.0511640383340466,0.112134491171033),(0.,0.04),.UNSPECIFIED.);
#34=B_SPLINE_SURFACE_WITH_KNOTS('',3,1,((#1649,#1650),(#1651,#1652),(#1653,
#1654),(#1655,#1656),(#1657,#1658)),.UNSPECIFIED.,.F.,.F.,.F.,(4,1,4),(2,
2),(0.,0.0849866684587009,0.171886046490542),(0.,0.04),.UNSPECIFIED.);
#35=FACE_BOUND('',#129,.T.);
#36=FACE_BOUND('',#130,.T.);
#37=FACE_BOUND('',#162,.T.);
#38=B_SPLINE_CURVE_WITH_KNOTS('',3,(#1140,#1141,#1142,#1143,#1144),
 .UNSPECIFIED.,.F.,.F.,(4,1,4),(0.,0.0824554494320585,0.140001490706005),
 .UNSPECIFIED.);
#39=B_SPLINE_CURVE_WITH_KNOTS('',3,(#1146,#1147,#1148,#1149,#1150),
 .UNSPECIFIED.,.F.,.F.,(4,1,4),(0.,0.0448451320081345,0.0909536372865049),
 .UNSPECIFIED.);
#40=B_SPLINE_CURVE_WITH_KNOTS('',3,(#1152,#1153,#1154,#1155,#1156),
 .UNSPECIFIED.,.F.,.F.,(4,1,4),(0.,0.0480709378532739,0.0983233220010378),
 .UNSPECIFIED.);
#41=B_SPLINE_CURVE_WITH_KNOTS('',3,(#1158,#1159,#1160,#1161,#1162),
 .UNSPECIFIED.,.F.,.F.,(4,1,4),(0.,0.0619341756070439,0.119554039611203),
 .UNSPECIFIED.);
#42=B_SPLINE_CURVE_WITH_KNOTS('',3,(#1164,#1165,#1166,#1167,#1168),
 .UNSPECIFIED.,.F.,.F.,(4,1,4),(0.,0.0606478741289087,0.131953803512571),
 .UNSPECIFIED.);
#43=B_SPLINE_CURVE_WITH_KNOTS('',3,(#1170,#1171,#1172,#1173,#1174),
 .UNSPECIFIED.,.F.,.F.,(4,1,4),(0.,0.0428271087353407,0.081661699097431),
 .UNSPECIFIED.);
#44=B_SPLINE_CURVE_WITH_KNOTS('',3,(#1176,#1177,#1178,#1179,#1180),
 .UNSPECIFIED.,.F.,.F.,(4,1,4),(0.,0.048089486218889,0.118489257737085),
 .UNSPECIFIED.);
#45=B_SPLINE_CURVE_WITH_KNOTS('',3,(#1188,#1189,#1190,#1191,#1192),
 .UNSPECIFIED.,.F.,.F.,(4,1,4),(0.,0.0687027131930971,0.108050995604873),
 .UNSPECIFIED.);
#46=B_SPLINE_CURVE_WITH_KNOTS('',3,(#1194,#1195,#1196,#1197,#1198),
 .UNSPECIFIED.,.F.,.F.,(4,1,4),(0.,0.0232381939306405,0.0441174517585879),
 .UNSPECIFIED.);
#47=B_SPLINE_CURVE_WITH_KNOTS('',3,(#1200,#1201,#1202,#1203,#1204),
 .UNSPECIFIED.,.F.,.F.,(4,1,4),(0.,0.0251681682852492,0.0610327282194378),
 .UNSPECIFIED.);
#48=B_SPLINE_CURVE_WITH_KNOTS('',3,(#1216,#1217,#1218,#1219,#1220),
 .UNSPECIFIED.,.F.,.F.,(4,1,4),(0.,0.0849866684587009,0.171886046490542),
 .UNSPECIFIED.);
#49=B_SPLINE_CURVE_WITH_KNOTS('',3,(#1224,#1225,#1226,#1227,#1228),
 .UNSPECIFIED.,.F.,.F.,(4,1,4),(0.,0.0511640383340466,0.112134491171033),
 .UNSPECIFIED.);
#50=B_SPLINE_CURVE_WITH_KNOTS('',3,(#1229,#1230,#1231,#1232,#1233),
 .UNSPECIFIED.,.F.,.F.,(4,1,4),(0.,0.0624698689678472,0.120508064374643),
 .UNSPECIFIED.);
#51=B_SPLINE_CURVE_WITH_KNOTS('',3,(#1266,#1267,#1268,#1269,#1270),
 .UNSPECIFIED.,.F.,.F.,(4,1,4),(0.,0.0292683046402059,0.0877278816271959),
 .UNSPECIFIED.);
#52=B_SPLINE_CURVE_WITH_KNOTS('',3,(#1273,#1274,#1275,#1276,#1277),
 .UNSPECIFIED.,.F.,.F.,(4,1,4),(0.,0.0292683046402059,0.0877278816271959),
 .UNSPECIFIED.);
#53=B_SPLINE_CURVE_WITH_KNOTS('',3,(#1289,#1290,#1291,#1292,#1293),
 .UNSPECIFIED.,.F.,.F.,(4,1,4),(0.,0.0245137084432334,0.0517312719764843),
 .UNSPECIFIED.);
#54=B_SPLINE_CURVE_WITH_KNOTS('',3,(#1296,#1297,#1298,#1299,#1300),
 .UNSPECIFIED.,.F.,.F.,(4,1,4),(0.,0.0245137084432334,0.0517312719764843),
 .UNSPECIFIED.);
#55=B_SPLINE_CURVE_WITH_KNOTS('',3,(#1312,#1313,#1314,#1315,#1316),
 .UNSPECIFIED.,.F.,.F.,(4,1,4),(0.,0.0274425680625578,0.0519583922673294),
 .UNSPECIFIED.);
#56=B_SPLINE_CURVE_WITH_KNOTS('',3,(#1319,#1320,#1321,#1322,#1323),
 .UNSPECIFIED.,.F.,.F.,(4,1,4),(0.,0.0274425680625578,0.0519583922673294),
 .UNSPECIFIED.);
#57=B_SPLINE_CURVE_WITH_KNOTS('',3,(#1335,#1336,#1337,#1338,#1339),
 .UNSPECIFIED.,.F.,.F.,(4,1,4),(0.,0.0220732232643195,0.0468214363530435),
 .UNSPECIFIED.);
#58=B_SPLINE_CURVE_WITH_KNOTS('',3,(#1342,#1343,#1344,#1345,#1346),
 .UNSPECIFIED.,.F.,.F.,(4,1,4),(0.,0.0220732232643195,0.0468214363530435),
 .UNSPECIFIED.);
#59=B_SPLINE_CURVE_WITH_KNOTS('',3,(#1358,#1359,#1360,#1361,#1362),
 .UNSPECIFIED.,.F.,.F.,(4,1,4),(0.,0.0216065502965852,0.0426391915051792),
 .UNSPECIFIED.);
#60=B_SPLINE_CURVE_WITH_KNOTS('',3,(#1365,#1366,#1367,#1368,#1369),
 .UNSPECIFIED.,.F.,.F.,(4,1,4),(0.,0.0216065502965852,0.0426391915051792),
 .UNSPECIFIED.);
#61=B_SPLINE_CURVE_WITH_KNOTS('',3,(#1381,#1382,#1383,#1384,#1385),
 .UNSPECIFIED.,.F.,.F.,(4,1,4),(0.,0.0702538216177741,0.108403218828905),
 .UNSPECIFIED.);
#62=B_SPLINE_CURVE_WITH_KNOTS('',3,(#1388,#1389,#1390,#1391,#1392),
 .UNSPECIFIED.,.F.,.F.,(4,1,4),(0.,0.0702538216177741,0.108403218828905),
 .UNSPECIFIED.);
#63=B_SPLINE_CURVE_WITH_KNOTS('',3,(#1424,#1425,#1426,#1427,#1428),
 .UNSPECIFIED.,.F.,.F.,(4,1,4),(0.,0.0251681682852492,0.0610327282194378),
 .UNSPECIFIED.);
#64=B_SPLINE_CURVE_WITH_KNOTS('',3,(#1441,#1442,#1443,#1444,#1445),
 .UNSPECIFIED.,.F.,.F.,(4,1,4),(0.,0.0232381939306405,0.0441174517585879),
 .UNSPECIFIED.);
#65=B_SPLINE_CURVE_WITH_KNOTS('',3,(#1458,#1459,#1460,#1461,#1462),
 .UNSPECIFIED.,.F.,.F.,(4,1,4),(0.,0.0687027131930971,0.108050995604873),
 .UNSPECIFIED.);
#66=B_SPLINE_CURVE_WITH_KNOTS('',3,(#1487,#1488,#1489,#1490,#1491),
 .UNSPECIFIED.,.F.,.F.,(4,1,4),(0.,0.048089486218889,0.118489257737085),
 .UNSPECIFIED.);
#67=B_SPLINE_CURVE_WITH_KNOTS('',3,(#1504,#1505,#1506,#1507,#1508),
 .UNSPECIFIED.,.F.,.F.,(4,1,4),(0.,0.0428271087353407,0.081661699097431),
 .UNSPECIFIED.);
#68=B_SPLINE_CURVE_WITH_KNOTS('',3,(#1521,#1522,#1523,#1524,#1525),
 .UNSPECIFIED.,.F.,.F.,(4,1,4),(0.,0.0606478741289087,0.131953803512571),
 .UNSPECIFIED.);
#69=B_SPLINE_CURVE_WITH_KNOTS('',3,(#1538,#1539,#1540,#1541,#1542),
 .UNSPECIFIED.,.F.,.F.,(4,1,4),(0.,0.0619341756070439,0.119554039611203),
 .UNSPECIFIED.);
#70=B_SPLINE_CURVE_WITH_KNOTS('',3,(#1555,#1556,#1557,#1558,#1559),
 .UNSPECIFIED.,.F.,.F.,(4,1,4),(0.,0.0480709378532739,0.0983233220010378),
 .UNSPECIFIED.);
#71=B_SPLINE_CURVE_WITH_KNOTS('',3,(#1572,#1573,#1574,#1575,#1576),
 .UNSPECIFIED.,.F.,.F.,(4,1,4),(0.,0.0448451320081345,0.0909536372865049),
 .UNSPECIFIED.);
#72=B_SPLINE_CURVE_WITH_KNOTS('',3,(#1589,#1590,#1591,#1592,#1593),
 .UNSPECIFIED.,.F.,.F.,(4,1,4),(0.,0.0824554494320585,0.140001490706005),
 .UNSPECIFIED.);
#73=B_SPLINE_CURVE_WITH_KNOTS('',3,(#1623,#1624,#1625,#1626,#1627),
 .UNSPECIFIED.,.F.,.F.,(4,1,4),(0.,0.0624698689678472,0.120508064374643),
 .UNSPECIFIED.);
#74=B_SPLINE_CURVE_WITH_KNOTS('',3,(#1640,#1641,#1642,#1643,#1644),
 .UNSPECIFIED.,.F.,.F.,(4,1,4),(0.,0.0511640383340466,0.112134491171033),
 .UNSPECIFIED.);
#75=B_SPLINE_CURVE_WITH_KNOTS('',3,(#1661,#1662,#1663,#1664,#1665),
 .UNSPECIFIED.,.F.,.F.,(4,1,4),(0.,0.0849866684587009,0.171886046490542),
 .UNSPECIFIED.);
#76=CIRCLE('',#921,1.);
#77=CIRCLE('',#944,1.);
#78=FACE_OUTER_BOUND('',#126,.T.);
#79=FACE_OUTER_BOUND('',#127,.T.);
#80=FACE_OUTER_BOUND('',#128,.T.);
#81=FACE_OUTER_BOUND('',#131,.T.);
#82=FACE_OUTER_BOUND('',#132,.T.);
#83=FACE_OUTER_BOUND('',#133,.T.);
#84=FACE_OUTER_BOUND('',#134,.T.);
#85=FACE_OUTER_BOUND('',#135,.T.);
#86=FACE_OUTER_BOUND('',#136,.T.);
#87=FACE_OUTER_BOUND('',#137,.T.);
#88=FACE_OUTER_BOUND('',#138,.T.);
#89=FACE_OUTER_BOUND('',#139,.T.);
#90=FACE_OUTER_BOUND('',#140,.T.);
#91=FACE_OUTER_BOUND('',#141,.T.);
#92=FACE_OUTER_BOUND('',#142,.T.);
#93=FACE_OUTER_BOUND('',#143,.T.);
#94=FACE_OUTER_BOUND('',#144,.T.);
#95=FACE_OUTER_BOUND('',#145,.T.);
#96=FACE_OUTER_BOUND('',#146,.T.);
#97=FACE_OUTER_BOUND('',#147,.T.);
#98=FACE_OUTER_BOUND('',#148,.T.);
#99=FACE_OUTER_BOUND('',#149,.T.);
#100=FACE_OUTER_BOUND('',#150,.T.);
#101=FACE_OUTER_BOUND('',#151,.T.);
#102=FACE_OUTER_BOUND('',#152,.T.);
#103=FACE_OUTER_BOUND('',#153,.T.);
#104=FACE_OUTER_BOUND('',#154,.T.);
#105=FACE_OUTER_BOUND('',#155,.T.);
#106=FACE_OUTER_BOUND('',#156,.T.);
#107=FACE_OUTER_BOUND('',#157,.T.);
#108=FACE_OUTER_BOUND('',#158,.T.);
#109=FACE_OUTER_BOUND('',#159,.T.);
#110=FACE_OUTER_BOUND('',#160,.T.);
#111=FACE_OUTER_BOUND('',#161,.T.);
#112=FACE_OUTER_BOUND('',#163,.T.);
#113=FACE_OUTER_BOUND('',#164,.T.);
#114=FACE_OUTER_BOUND('',#165,.T.);
#115=FACE_OUTER_BOUND('',#166,.T.);
#116=FACE_OUTER_BOUND('',#167,.T.);
#117=FACE_OUTER_BOUND('',#168,.T.);
#118=FACE_OUTER_BOUND('',#169,.T.);
#119=FACE_OUTER_BOUND('',#170,.T.);
#120=FACE_OUTER_BOUND('',#171,.T.);
#121=FACE_OUTER_BOUND('',#172,.T.);
#122=FACE_OUTER_BOUND('',#173,.T.);
#123=FACE_OUTER_BOUND('',#174,.T.);
#124=FACE_OUTER_BOUND('',#175,.T.);
#125=FACE_OUTER_BOUND('',#176,.T.);
#126=EDGE_LOOP('',(#570,#571,#572,#573));
#127=EDGE_LOOP('',(#574,#575,#576,#577));
#128=EDGE_LOOP('',(#578,#579,#580,#581,#582,#583,#584,#585));
#129=EDGE_LOOP('',(#586,#587,#588,#589,#590,#591,#592,#593,#594,#595,#596,
#597,#598,#599,#600,#601,#602,#603));
#130=EDGE_LOOP('',(#604,#605,#606,#607,#608,#609,#610,#611));
#131=EDGE_LOOP('',(#612,#613,#614,#615));
#132=EDGE_LOOP('',(#616,#617,#618,#619));
#133=EDGE_LOOP('',(#620,#621,#622,#623));
#134=EDGE_LOOP('',(#624,#625,#626,#627));
#135=EDGE_LOOP('',(#628,#629,#630,#631));
#136=EDGE_LOOP('',(#632,#633,#634,#635));
#137=EDGE_LOOP('',(#636,#637,#638,#639));
#138=EDGE_LOOP('',(#640,#641,#642,#643));
#139=EDGE_LOOP('',(#644,#645,#646,#647));
#140=EDGE_LOOP('',(#648,#649,#650,#651));
#141=EDGE_LOOP('',(#652,#653,#654,#655));
#142=EDGE_LOOP('',(#656,#657,#658,#659));
#143=EDGE_LOOP('',(#660,#661,#662,#663));
#144=EDGE_LOOP('',(#664,#665,#666,#667));
#145=EDGE_LOOP('',(#668,#669,#670,#671));
#146=EDGE_LOOP('',(#672,#673,#674,#675));
#147=EDGE_LOOP('',(#676,#677,#678,#679));
#148=EDGE_LOOP('',(#680,#681,#682,#683));
#149=EDGE_LOOP('',(#684,#685,#686,#687));
#150=EDGE_LOOP('',(#688,#689,#690,#691));
#151=EDGE_LOOP('',(#692,#693,#694,#695));
#152=EDGE_LOOP('',(#696,#697,#698,#699));
#153=EDGE_LOOP('',(#700,#701,#702,#703));
#154=EDGE_LOOP('',(#704,#705,#706,#707));
#155=EDGE_LOOP('',(#708,#709,#710,#711));
#156=EDGE_LOOP('',(#712,#713,#714,#715));
#157=EDGE_LOOP('',(#716,#717,#718,#719));
#158=EDGE_LOOP('',(#720,#721,#722,#723));
#159=EDGE_LOOP('',(#724,#725,#726,#727));
#160=EDGE_LOOP('',(#728,#729,#730,#731));
#161=EDGE_LOOP('',(#732,#733,#734,#735,#736,#737,#738,#739,#740,#741,#742,
#743,#744,#745,#746,#747,#748,#749));
#162=EDGE_LOOP('',(#750,#751,#752,#753,#754,#755,#756,#757,#758));
#163=EDGE_LOOP('',(#759,#760,#761,#762));
#164=EDGE_LOOP('',(#763,#764,#765,#766));
#165=EDGE_LOOP('',(#767,#768,#769,#770));
#166=EDGE_LOOP('',(#771,#772,#773,#774));
#167=EDGE_LOOP('',(#775,#776,#777,#778));
#168=EDGE_LOOP('',(#779,#780,#781,#782));
#169=EDGE_LOOP('',(#783,#784,#785,#786));
#170=EDGE_LOOP('',(#787,#788,#789,#790));
#171=EDGE_LOOP('',(#791,#792,#793,#794,#795,#796,#797,#798));
#172=EDGE_LOOP('',(#799,#800,#801,#802));
#173=EDGE_LOOP('',(#803,#804,#805,#806));
#174=EDGE_LOOP('',(#807,#808,#809,#810));
#175=EDGE_LOOP('',(#811,#812,#813,#814,#815,#816,#817,#818,#819));
#176=EDGE_LOOP('',(#820,#821,#822,#823,#824,#825,#826,#827));
#177=LINE('',#1106,#266);
#178=LINE('',#1108,#267);
#179=LINE('',#1110,#268);
#180=LINE('',#1111,#269);
#181=LINE('',#1114,#270);
#182=LINE('',#1116,#271);
#183=LINE('',#1117,#272);
#184=LINE('',#1120,#273);
#185=LINE('',#1124,#274);
#186=LINE('',#1126,#275);
#187=LINE('',#1128,#276);
#188=LINE('',#1129,#277);
#189=LINE('',#1132,#278);
#190=LINE('',#1134,#279);
#191=LINE('',#1136,#280);
#192=LINE('',#1138,#281);
#193=LINE('',#1182,#282);
#194=LINE('',#1184,#283);
#195=LINE('',#1186,#284);
#196=LINE('',#1205,#285);
#197=LINE('',#1208,#286);
#198=LINE('',#1210,#287);
#199=LINE('',#1212,#288);
#200=LINE('',#1214,#289);
#201=LINE('',#1222,#290);
#202=LINE('',#1237,#291);
#203=LINE('',#1238,#292);
#204=LINE('',#1239,#293);
#205=LINE('',#1242,#294);
#206=LINE('',#1243,#295);
#207=LINE('',#1245,#296);
#208=LINE('',#1249,#297);
#209=LINE('',#1251,#298);
#210=LINE('',#1253,#299);
#211=LINE('',#1254,#300);
#212=LINE('',#1272,#301);
#213=LINE('',#1295,#302);
#214=LINE('',#1318,#303);
#215=LINE('',#1341,#304);
#216=LINE('',#1364,#305);
#217=LINE('',#1387,#306);
#218=LINE('',#1395,#307);
#219=LINE('',#1397,#308);
#220=LINE('',#1398,#309);
#221=LINE('',#1400,#310);
#222=LINE('',#1401,#311);
#223=LINE('',#1404,#312);
#224=LINE('',#1406,#313);
#225=LINE('',#1407,#314);
#226=LINE('',#1410,#315);
#227=LINE('',#1411,#316);
#228=LINE('',#1423,#317);
#229=LINE('',#1440,#318);
#230=LINE('',#1457,#319);
#231=LINE('',#1465,#320);
#232=LINE('',#1466,#321);
#233=LINE('',#1469,#322);
#234=LINE('',#1470,#323);
#235=LINE('',#1473,#324);
#236=LINE('',#1474,#325);
#237=LINE('',#1486,#326);
#238=LINE('',#1503,#327);
#239=LINE('',#1520,#328);
#240=LINE('',#1537,#329);
#241=LINE('',#1554,#330);
#242=LINE('',#1571,#331);
#243=LINE('',#1588,#332);
#244=LINE('',#1596,#333);
#245=LINE('',#1597,#334);
#246=LINE('',#1600,#335);
#247=LINE('',#1601,#336);
#248=LINE('',#1603,#337);
#249=LINE('',#1607,#338);
#250=LINE('',#1609,#339);
#251=LINE('',#1610,#340);
#252=LINE('',#1622,#341);
#253=LINE('',#1639,#342);
#254=LINE('',#1647,#343);
#255=LINE('',#1648,#344);
#256=LINE('',#1660,#345);
#257=LINE('',#1668,#346);
#258=LINE('',#1669,#347);
#259=LINE('',#1672,#348);
#260=LINE('',#1673,#349);
#261=LINE('',#1675,#350);
#262=LINE('',#1679,#351);
#263=LINE('',#1682,#352);
#264=LINE('',#1684,#353);
#265=LINE('',#1686,#354);
#266=VECTOR('',#953,10.);
#267=VECTOR('',#954,10.);
#268=VECTOR('',#955,10.);
#269=VECTOR('',#956,10.);
#270=VECTOR('',#959,10.);
#271=VECTOR('',#960,10.);
#272=VECTOR('',#961,10.);
#273=VECTOR('',#964,10.);
#274=VECTOR('',#967,10.);
#275=VECTOR('',#968,10.);
#276=VECTOR('',#969,10.);
#277=VECTOR('',#970,10.);
#278=VECTOR('',#971,10.);
#279=VECTOR('',#972,10.);
#280=VECTOR('',#973,10.);
#281=VECTOR('',#974,10.);
#282=VECTOR('',#975,10.);
#283=VECTOR('',#976,10.);
#284=VECTOR('',#977,10.);
#285=VECTOR('',#978,10.);
#286=VECTOR('',#979,10.);
#287=VECTOR('',#980,10.);
#288=VECTOR('',#981,10.);
#289=VECTOR('',#982,10.);
#290=VECTOR('',#983,10.);
#291=VECTOR('',#986,10.);
#292=VECTOR('',#987,10.);
#293=VECTOR('',#988,10.);
#294=VECTOR('',#991,10.);
#295=VECTOR('',#992,10.);
#296=VECTOR('',#995,10.);
#297=VECTOR('',#998,10.);
#298=VECTOR('',#999,10.);
#299=VECTOR('',#1000,10.);
#300=VECTOR('',#1001,10.);
#301=VECTOR('',#1002,10.);
#302=VECTOR('',#1003,10.);
#303=VECTOR('',#1004,10.);
#304=VECTOR('',#1005,10.);
#305=VECTOR('',#1006,10.);
#306=VECTOR('',#1007,10.);
#307=VECTOR('',#1010,10.);
#308=VECTOR('',#1011,10.);
#309=VECTOR('',#1012,10.);
#310=VECTOR('',#1015,10.);
#311=VECTOR('',#1016,10.);
#312=VECTOR('',#1019,10.);
#313=VECTOR('',#1020,10.);
#314=VECTOR('',#1021,10.);
#315=VECTOR('',#1024,10.);
#316=VECTOR('',#1025,10.);
#317=VECTOR('',#1026,10.);
#318=VECTOR('',#1027,10.);
#319=VECTOR('',#1028,10.);
#320=VECTOR('',#1031,10.);
#321=VECTOR('',#1032,10.);
#322=VECTOR('',#1035,10.);
#323=VECTOR('',#1036,10.);
#324=VECTOR('',#1039,10.);
#325=VECTOR('',#1040,10.);
#326=VECTOR('',#1041,10.);
#327=VECTOR('',#1042,10.);
#328=VECTOR('',#1043,10.);
#329=VECTOR('',#1044,10.);
#330=VECTOR('',#1045,10.);
#331=VECTOR('',#1046,10.);
#332=VECTOR('',#1047,10.);
#333=VECTOR('',#1050,10.);
#334=VECTOR('',#1051,10.);
#335=VECTOR('',#1054,10.);
#336=VECTOR('',#1055,10.);
#337=VECTOR('',#1058,10.);
#338=VECTOR('',#1063,10.);
#339=VECTOR('',#1064,10.);
#340=VECTOR('',#1065,10.);
#341=VECTOR('',#1066,10.);
#342=VECTOR('',#1067,10.);
#343=VECTOR('',#1070,10.);
#344=VECTOR('',#1071,10.);
#345=VECTOR('',#1072,10.);
#346=VECTOR('',#1075,10.);
#347=VECTOR('',#1076,10.);
#348=VECTOR('',#1079,10.);
#349=VECTOR('',#1080,10.);
#350=VECTOR('',#1083,10.);
#351=VECTOR('',#1088,10.);
#352=VECTOR('',#1091,10.);
#353=VECTOR('',#1094,10.);
#354=VECTOR('',#1097,10.);
#355=VERTEX_POINT('',#1104);
#356=VERTEX_POINT('',#1105);
#357=VERTEX_POINT('',#1107);
#358=VERTEX_POINT('',#1109);
#359=VERTEX_POINT('',#1113);
#360=VERTEX_POINT('',#1115);
#361=VERTEX_POINT('',#1119);
#362=VERTEX_POINT('',#1121);
#363=VERTEX_POINT('',#1123);
#364=VERTEX_POINT('',#1125);
#365=VERTEX_POINT('',#1127);
#366=VERTEX_POINT('',#1130);
#367=VERTEX_POINT('',#1131);
#368=VERTEX_POINT('',#1133);
#369=VERTEX_POINT('',#1135);
#370=VERTEX_POINT('',#1137);
#371=VERTEX_POINT('',#1139);
#372=VERTEX_POINT('',#1145);
#373=VERTEX_POINT('',#1151);
#374=VERTEX_POINT('',#1157);
#375=VERTEX_POINT('',#1163);
#376=VERTEX_POINT('',#1169);
#377=VERTEX_POINT('',#1175);
#378=VERTEX_POINT('',#1181);
#379=VERTEX_POINT('',#1183);
#380=VERTEX_POINT('',#1185);
#381=VERTEX_POINT('',#1187);
#382=VERTEX_POINT('',#1193);
#383=VERTEX_POINT('',#1199);
#384=VERTEX_POINT('',#1206);
#385=VERTEX_POINT('',#1207);
#386=VERTEX_POINT('',#1209);
#387=VERTEX_POINT('',#1211);
#388=VERTEX_POINT('',#1213);
#389=VERTEX_POINT('',#1215);
#390=VERTEX_POINT('',#1221);
#391=VERTEX_POINT('',#1223);
#392=VERTEX_POINT('',#1235);
#393=VERTEX_POINT('',#1236);
#394=VERTEX_POINT('',#1241);
#395=VERTEX_POINT('',#1247);
#396=VERTEX_POINT('',#1248);
#397=VERTEX_POINT('',#1250);
#398=VERTEX_POINT('',#1252);
#399=VERTEX_POINT('',#1265);
#400=VERTEX_POINT('',#1271);
#401=VERTEX_POINT('',#1288);
#402=VERTEX_POINT('',#1294);
#403=VERTEX_POINT('',#1311);
#404=VERTEX_POINT('',#1317);
#405=VERTEX_POINT('',#1334);
#406=VERTEX_POINT('',#1340);
#407=VERTEX_POINT('',#1357);
#408=VERTEX_POINT('',#1363);
#409=VERTEX_POINT('',#1380);
#410=VERTEX_POINT('',#1386);
#411=VERTEX_POINT('',#1394);
#412=VERTEX_POINT('',#1396);
#413=VERTEX_POINT('',#1403);
#414=VERTEX_POINT('',#1405);
#415=VERTEX_POINT('',#1409);
#416=VERTEX_POINT('',#1422);
#417=VERTEX_POINT('',#1439);
#418=VERTEX_POINT('',#1456);
#419=VERTEX_POINT('',#1464);
#420=VERTEX_POINT('',#1468);
#421=VERTEX_POINT('',#1472);
#422=VERTEX_POINT('',#1485);
#423=VERTEX_POINT('',#1502);
#424=VERTEX_POINT('',#1519);
#425=VERTEX_POINT('',#1536);
#426=VERTEX_POINT('',#1553);
#427=VERTEX_POINT('',#1570);
#428=VERTEX_POINT('',#1587);
#429=VERTEX_POINT('',#1595);
#430=VERTEX_POINT('',#1599);
#431=VERTEX_POINT('',#1606);
#432=VERTEX_POINT('',#1608);
#433=VERTEX_POINT('',#1621);
#434=VERTEX_POINT('',#1638);
#435=VERTEX_POINT('',#1646);
#436=VERTEX_POINT('',#1659);
#437=VERTEX_POINT('',#1667);
#438=VERTEX_POINT('',#1671);
#439=VERTEX_POINT('',#1678);
#440=VERTEX_POINT('',#1680);
#441=EDGE_CURVE('',#355,#356,#177,.T.);
#442=EDGE_CURVE('',#356,#357,#178,.T.);
#443=EDGE_CURVE('',#357,#358,#179,.T.);
#444=EDGE_CURVE('',#358,#355,#180,.T.);
#445=EDGE_CURVE('',#358,#359,#181,.T.);
#446=EDGE_CURVE('',#360,#359,#182,.T.);
#447=EDGE_CURVE('',#355,#360,#183,.T.);
#448=EDGE_CURVE('',#361,#357,#184,.T.);
#449=EDGE_CURVE('',#361,#362,#76,.T.);
#450=EDGE_CURVE('',#363,#362,#185,.T.);
#451=EDGE_CURVE('',#364,#363,#186,.T.);
#452=EDGE_CURVE('',#365,#364,#187,.T.);
#453=EDGE_CURVE('',#359,#365,#188,.T.);
#454=EDGE_CURVE('',#366,#367,#189,.T.);
#455=EDGE_CURVE('',#367,#368,#190,.T.);
#456=EDGE_CURVE('',#368,#369,#191,.T.);
#457=EDGE_CURVE('',#369,#370,#192,.T.);
#458=EDGE_CURVE('',#370,#371,#38,.T.);
#459=EDGE_CURVE('',#371,#372,#39,.T.);
#460=EDGE_CURVE('',#372,#373,#40,.T.);
#461=EDGE_CURVE('',#373,#374,#41,.T.);
#462=EDGE_CURVE('',#374,#375,#42,.T.);
#463=EDGE_CURVE('',#375,#376,#43,.T.);
#464=EDGE_CURVE('',#376,#377,#44,.T.);
#465=EDGE_CURVE('',#377,#378,#193,.T.);
#466=EDGE_CURVE('',#378,#379,#194,.T.);
#467=EDGE_CURVE('',#379,#380,#195,.T.);
#468=EDGE_CURVE('',#380,#381,#45,.T.);
#469=EDGE_CURVE('',#381,#382,#46,.T.);
#470=EDGE_CURVE('',#382,#383,#47,.T.);
#471=EDGE_CURVE('',#383,#366,#196,.T.);
#472=EDGE_CURVE('',#384,#385,#197,.T.);
#473=EDGE_CURVE('',#385,#386,#198,.T.);
#474=EDGE_CURVE('',#386,#387,#199,.T.);
#475=EDGE_CURVE('',#387,#388,#200,.T.);
#476=EDGE_CURVE('',#388,#389,#48,.T.);
#477=EDGE_CURVE('',#389,#390,#201,.T.);
#478=EDGE_CURVE('',#390,#391,#49,.T.);
#479=EDGE_CURVE('',#391,#384,#50,.T.);
#480=EDGE_CURVE('',#392,#393,#202,.T.);
#481=EDGE_CURVE('',#393,#364,#203,.T.);
#482=EDGE_CURVE('',#363,#392,#204,.T.);
#483=EDGE_CURVE('',#394,#393,#205,.T.);
#484=EDGE_CURVE('',#365,#394,#206,.T.);
#485=EDGE_CURVE('',#394,#360,#207,.T.);
#486=EDGE_CURVE('',#395,#396,#208,.T.);
#487=EDGE_CURVE('',#395,#397,#209,.T.);
#488=EDGE_CURVE('',#397,#398,#210,.T.);
#489=EDGE_CURVE('',#396,#398,#211,.T.);
#490=EDGE_CURVE('',#399,#395,#51,.T.);
#491=EDGE_CURVE('',#399,#400,#212,.T.);
#492=EDGE_CURVE('',#400,#397,#52,.T.);
#493=EDGE_CURVE('',#401,#399,#53,.T.);
#494=EDGE_CURVE('',#401,#402,#213,.T.);
#495=EDGE_CURVE('',#402,#400,#54,.T.);
#496=EDGE_CURVE('',#403,#401,#55,.T.);
#497=EDGE_CURVE('',#403,#404,#214,.T.);
#498=EDGE_CURVE('',#404,#402,#56,.T.);
#499=EDGE_CURVE('',#405,#403,#57,.T.);
#500=EDGE_CURVE('',#405,#406,#215,.T.);
#501=EDGE_CURVE('',#406,#404,#58,.T.);
#502=EDGE_CURVE('',#407,#405,#59,.T.);
#503=EDGE_CURVE('',#407,#408,#216,.T.);
#504=EDGE_CURVE('',#408,#406,#60,.T.);
#505=EDGE_CURVE('',#409,#407,#61,.T.);
#506=EDGE_CURVE('',#409,#410,#217,.T.);
#507=EDGE_CURVE('',#410,#408,#62,.T.);
#508=EDGE_CURVE('',#411,#409,#218,.T.);
#509=EDGE_CURVE('',#411,#412,#219,.T.);
#510=EDGE_CURVE('',#412,#410,#220,.T.);
#511=EDGE_CURVE('',#396,#411,#221,.T.);
#512=EDGE_CURVE('',#398,#412,#222,.T.);
#513=EDGE_CURVE('',#366,#413,#223,.T.);
#514=EDGE_CURVE('',#413,#414,#224,.T.);
#515=EDGE_CURVE('',#367,#414,#225,.T.);
#516=EDGE_CURVE('',#383,#415,#226,.T.);
#517=EDGE_CURVE('',#415,#413,#227,.T.);
#518=EDGE_CURVE('',#382,#416,#228,.T.);
#519=EDGE_CURVE('',#416,#415,#63,.T.);
#520=EDGE_CURVE('',#381,#417,#229,.T.);
#521=EDGE_CURVE('',#417,#416,#64,.T.);
#522=EDGE_CURVE('',#380,#418,#230,.T.);
#523=EDGE_CURVE('',#418,#417,#65,.T.);
#524=EDGE_CURVE('',#379,#419,#231,.T.);
#525=EDGE_CURVE('',#419,#418,#232,.T.);
#526=EDGE_CURVE('',#378,#420,#233,.T.);
#527=EDGE_CURVE('',#420,#419,#234,.T.);
#528=EDGE_CURVE('',#377,#421,#235,.T.);
#529=EDGE_CURVE('',#421,#420,#236,.T.);
#530=EDGE_CURVE('',#376,#422,#237,.T.);
#531=EDGE_CURVE('',#422,#421,#66,.T.);
#532=EDGE_CURVE('',#375,#423,#238,.T.);
#533=EDGE_CURVE('',#423,#422,#67,.T.);
#534=EDGE_CURVE('',#374,#424,#239,.T.);
#535=EDGE_CURVE('',#424,#423,#68,.T.);
#536=EDGE_CURVE('',#373,#425,#240,.T.);
#537=EDGE_CURVE('',#425,#424,#69,.T.);
#538=EDGE_CURVE('',#372,#426,#241,.T.);
#539=EDGE_CURVE('',#426,#425,#70,.T.);
#540=EDGE_CURVE('',#371,#427,#242,.T.);
#541=EDGE_CURVE('',#427,#426,#71,.T.);
#542=EDGE_CURVE('',#370,#428,#243,.T.);
#543=EDGE_CURVE('',#428,#427,#72,.T.);
#544=EDGE_CURVE('',#369,#429,#244,.T.);
#545=EDGE_CURVE('',#429,#428,#245,.T.);
#546=EDGE_CURVE('',#368,#430,#246,.T.);
#547=EDGE_CURVE('',#430,#429,#247,.T.);
#548=EDGE_CURVE('',#414,#430,#248,.T.);
#549=EDGE_CURVE('',#384,#431,#249,.T.);
#550=EDGE_CURVE('',#431,#432,#250,.T.);
#551=EDGE_CURVE('',#385,#432,#251,.T.);
#552=EDGE_CURVE('',#391,#433,#252,.T.);
#553=EDGE_CURVE('',#433,#431,#73,.T.);
#554=EDGE_CURVE('',#390,#434,#253,.T.);
#555=EDGE_CURVE('',#434,#433,#74,.T.);
#556=EDGE_CURVE('',#389,#435,#254,.T.);
#557=EDGE_CURVE('',#435,#434,#255,.T.);
#558=EDGE_CURVE('',#388,#436,#256,.T.);
#559=EDGE_CURVE('',#436,#435,#75,.T.);
#560=EDGE_CURVE('',#387,#437,#257,.T.);
#561=EDGE_CURVE('',#437,#436,#258,.T.);
#562=EDGE_CURVE('',#386,#438,#259,.T.);
#563=EDGE_CURVE('',#438,#437,#260,.T.);
#564=EDGE_CURVE('',#432,#438,#261,.T.);
#565=EDGE_CURVE('',#361,#439,#262,.T.);
#566=EDGE_CURVE('',#440,#439,#77,.T.);
#567=EDGE_CURVE('',#362,#440,#263,.T.);
#568=EDGE_CURVE('',#392,#440,#264,.T.);
#569=EDGE_CURVE('',#439,#356,#265,.T.);
#570=ORIENTED_EDGE('',*,*,#441,.T.);
#571=ORIENTED_EDGE('',*,*,#442,.T.);
#572=ORIENTED_EDGE('',*,*,#443,.T.);
#573=ORIENTED_EDGE('',*,*,#444,.T.);
#574=ORIENTED_EDGE('',*,*,#444,.F.);
#575=ORIENTED_EDGE('',*,*,#445,.T.);
#576=ORIENTED_EDGE('',*,*,#446,.F.);
#577=ORIENTED_EDGE('',*,*,#447,.F.);
#578=ORIENTED_EDGE('',*,*,#443,.F.);
#579=ORIENTED_EDGE('',*,*,#448,.F.);
#580=ORIENTED_EDGE('',*,*,#449,.T.);
#581=ORIENTED_EDGE('',*,*,#450,.F.);
#582=ORIENTED_EDGE('',*,*,#451,.F.);
#583=ORIENTED_EDGE('',*,*,#452,.F.);
#584=ORIENTED_EDGE('',*,*,#453,.F.);
#585=ORIENTED_EDGE('',*,*,#445,.F.);
#586=ORIENTED_EDGE('',*,*,#454,.T.);
#587=ORIENTED_EDGE('',*,*,#455,.T.);
#588=ORIENTED_EDGE('',*,*,#456,.T.);
#589=ORIENTED_EDGE('',*,*,#457,.T.);
#590=ORIENTED_EDGE('',*,*,#458,.T.);
#591=ORIENTED_EDGE('',*,*,#459,.T.);
#592=ORIENTED_EDGE('',*,*,#460,.T.);
#593=ORIENTED_EDGE('',*,*,#461,.T.);
#594=ORIENTED_EDGE('',*,*,#462,.T.);
#595=ORIENTED_EDGE('',*,*,#463,.T.);
#596=ORIENTED_EDGE('',*,*,#464,.T.);
#597=ORIENTED_EDGE('',*,*,#465,.T.);
#598=ORIENTED_EDGE('',*,*,#466,.T.);
#599=ORIENTED_EDGE('',*,*,#467,.T.);
#600=ORIENTED_EDGE('',*,*,#468,.T.);
#601=ORIENTED_EDGE('',*,*,#469,.T.);
#602=ORIENTED_EDGE('',*,*,#470,.T.);
#603=ORIENTED_EDGE('',*,*,#471,.T.);
#604=ORIENTED_EDGE('',*,*,#472,.T.);
#605=ORIENTED_EDGE('',*,*,#473,.T.);
#606=ORIENTED_EDGE('',*,*,#474,.T.);
#607=ORIENTED_EDGE('',*,*,#475,.T.);
#608=ORIENTED_EDGE('',*,*,#476,.T.);
#609=ORIENTED_EDGE('',*,*,#477,.T.);
#610=ORIENTED_EDGE('',*,*,#478,.T.);
#611=ORIENTED_EDGE('',*,*,#479,.T.);
#612=ORIENTED_EDGE('',*,*,#480,.T.);
#613=ORIENTED_EDGE('',*,*,#481,.T.);
#614=ORIENTED_EDGE('',*,*,#451,.T.);
#615=ORIENTED_EDGE('',*,*,#482,.T.);
#616=ORIENTED_EDGE('',*,*,#481,.F.);
#617=ORIENTED_EDGE('',*,*,#483,.F.);
#618=ORIENTED_EDGE('',*,*,#484,.F.);
#619=ORIENTED_EDGE('',*,*,#452,.T.);
#620=ORIENTED_EDGE('',*,*,#485,.T.);
#621=ORIENTED_EDGE('',*,*,#446,.T.);
#622=ORIENTED_EDGE('',*,*,#453,.T.);
#623=ORIENTED_EDGE('',*,*,#484,.T.);
#624=ORIENTED_EDGE('',*,*,#486,.F.);
#625=ORIENTED_EDGE('',*,*,#487,.T.);
#626=ORIENTED_EDGE('',*,*,#488,.T.);
#627=ORIENTED_EDGE('',*,*,#489,.F.);
#628=ORIENTED_EDGE('',*,*,#490,.F.);
#629=ORIENTED_EDGE('',*,*,#491,.T.);
#630=ORIENTED_EDGE('',*,*,#492,.T.);
#631=ORIENTED_EDGE('',*,*,#487,.F.);
#632=ORIENTED_EDGE('',*,*,#493,.F.);
#633=ORIENTED_EDGE('',*,*,#494,.T.);
#634=ORIENTED_EDGE('',*,*,#495,.T.);
#635=ORIENTED_EDGE('',*,*,#491,.F.);
#636=ORIENTED_EDGE('',*,*,#496,.F.);
#637=ORIENTED_EDGE('',*,*,#497,.T.);
#638=ORIENTED_EDGE('',*,*,#498,.T.);
#639=ORIENTED_EDGE('',*,*,#494,.F.);
#640=ORIENTED_EDGE('',*,*,#499,.F.);
#641=ORIENTED_EDGE('',*,*,#500,.T.);
#642=ORIENTED_EDGE('',*,*,#501,.T.);
#643=ORIENTED_EDGE('',*,*,#497,.F.);
#644=ORIENTED_EDGE('',*,*,#502,.F.);
#645=ORIENTED_EDGE('',*,*,#503,.T.);
#646=ORIENTED_EDGE('',*,*,#504,.T.);
#647=ORIENTED_EDGE('',*,*,#500,.F.);
#648=ORIENTED_EDGE('',*,*,#505,.F.);
#649=ORIENTED_EDGE('',*,*,#506,.T.);
#650=ORIENTED_EDGE('',*,*,#507,.T.);
#651=ORIENTED_EDGE('',*,*,#503,.F.);
#652=ORIENTED_EDGE('',*,*,#508,.F.);
#653=ORIENTED_EDGE('',*,*,#509,.T.);
#654=ORIENTED_EDGE('',*,*,#510,.T.);
#655=ORIENTED_EDGE('',*,*,#506,.F.);
#656=ORIENTED_EDGE('',*,*,#511,.F.);
#657=ORIENTED_EDGE('',*,*,#489,.T.);
#658=ORIENTED_EDGE('',*,*,#512,.T.);
#659=ORIENTED_EDGE('',*,*,#509,.F.);
#660=ORIENTED_EDGE('',*,*,#454,.F.);
#661=ORIENTED_EDGE('',*,*,#513,.T.);
#662=ORIENTED_EDGE('',*,*,#514,.T.);
#663=ORIENTED_EDGE('',*,*,#515,.F.);
#664=ORIENTED_EDGE('',*,*,#471,.F.);
#665=ORIENTED_EDGE('',*,*,#516,.T.);
#666=ORIENTED_EDGE('',*,*,#517,.T.);
#667=ORIENTED_EDGE('',*,*,#513,.F.);
#668=ORIENTED_EDGE('',*,*,#470,.F.);
#669=ORIENTED_EDGE('',*,*,#518,.T.);
#670=ORIENTED_EDGE('',*,*,#519,.T.);
#671=ORIENTED_EDGE('',*,*,#516,.F.);
#672=ORIENTED_EDGE('',*,*,#469,.F.);
#673=ORIENTED_EDGE('',*,*,#520,.T.);
#674=ORIENTED_EDGE('',*,*,#521,.T.);
#675=ORIENTED_EDGE('',*,*,#518,.F.);
#676=ORIENTED_EDGE('',*,*,#468,.F.);
#677=ORIENTED_EDGE('',*,*,#522,.T.);
#678=ORIENTED_EDGE('',*,*,#523,.T.);
#679=ORIENTED_EDGE('',*,*,#520,.F.);
#680=ORIENTED_EDGE('',*,*,#467,.F.);
#681=ORIENTED_EDGE('',*,*,#524,.T.);
#682=ORIENTED_EDGE('',*,*,#525,.T.);
#683=ORIENTED_EDGE('',*,*,#522,.F.);
#684=ORIENTED_EDGE('',*,*,#466,.F.);
#685=ORIENTED_EDGE('',*,*,#526,.T.);
#686=ORIENTED_EDGE('',*,*,#527,.T.);
#687=ORIENTED_EDGE('',*,*,#524,.F.);
#688=ORIENTED_EDGE('',*,*,#465,.F.);
#689=ORIENTED_EDGE('',*,*,#528,.T.);
#690=ORIENTED_EDGE('',*,*,#529,.T.);
#691=ORIENTED_EDGE('',*,*,#526,.F.);
#692=ORIENTED_EDGE('',*,*,#464,.F.);
#693=ORIENTED_EDGE('',*,*,#530,.T.);
#694=ORIENTED_EDGE('',*,*,#531,.T.);
#695=ORIENTED_EDGE('',*,*,#528,.F.);
#696=ORIENTED_EDGE('',*,*,#463,.F.);
#697=ORIENTED_EDGE('',*,*,#532,.T.);
#698=ORIENTED_EDGE('',*,*,#533,.T.);
#699=ORIENTED_EDGE('',*,*,#530,.F.);
#700=ORIENTED_EDGE('',*,*,#462,.F.);
#701=ORIENTED_EDGE('',*,*,#534,.T.);
#702=ORIENTED_EDGE('',*,*,#535,.T.);
#703=ORIENTED_EDGE('',*,*,#532,.F.);
#704=ORIENTED_EDGE('',*,*,#461,.F.);
#705=ORIENTED_EDGE('',*,*,#536,.T.);
#706=ORIENTED_EDGE('',*,*,#537,.T.);
#707=ORIENTED_EDGE('',*,*,#534,.F.);
#708=ORIENTED_EDGE('',*,*,#460,.F.);
#709=ORIENTED_EDGE('',*,*,#538,.T.);
#710=ORIENTED_EDGE('',*,*,#539,.T.);
#711=ORIENTED_EDGE('',*,*,#536,.F.);
#712=ORIENTED_EDGE('',*,*,#459,.F.);
#713=ORIENTED_EDGE('',*,*,#540,.T.);
#714=ORIENTED_EDGE('',*,*,#541,.T.);
#715=ORIENTED_EDGE('',*,*,#538,.F.);
#716=ORIENTED_EDGE('',*,*,#458,.F.);
#717=ORIENTED_EDGE('',*,*,#542,.T.);
#718=ORIENTED_EDGE('',*,*,#543,.T.);
#719=ORIENTED_EDGE('',*,*,#540,.F.);
#720=ORIENTED_EDGE('',*,*,#457,.F.);
#721=ORIENTED_EDGE('',*,*,#544,.T.);
#722=ORIENTED_EDGE('',*,*,#545,.T.);
#723=ORIENTED_EDGE('',*,*,#542,.F.);
#724=ORIENTED_EDGE('',*,*,#456,.F.);
#725=ORIENTED_EDGE('',*,*,#546,.T.);
#726=ORIENTED_EDGE('',*,*,#547,.T.);
#727=ORIENTED_EDGE('',*,*,#544,.F.);
#728=ORIENTED_EDGE('',*,*,#455,.F.);
#729=ORIENTED_EDGE('',*,*,#515,.T.);
#730=ORIENTED_EDGE('',*,*,#548,.T.);
#731=ORIENTED_EDGE('',*,*,#546,.F.);
#732=ORIENTED_EDGE('',*,*,#548,.F.);
#733=ORIENTED_EDGE('',*,*,#514,.F.);
#734=ORIENTED_EDGE('',*,*,#517,.F.);
#735=ORIENTED_EDGE('',*,*,#519,.F.);
#736=ORIENTED_EDGE('',*,*,#521,.F.);
#737=ORIENTED_EDGE('',*,*,#523,.F.);
#738=ORIENTED_EDGE('',*,*,#525,.F.);
#739=ORIENTED_EDGE('',*,*,#527,.F.);
#740=ORIENTED_EDGE('',*,*,#529,.F.);
#741=ORIENTED_EDGE('',*,*,#531,.F.);
#742=ORIENTED_EDGE('',*,*,#533,.F.);
#743=ORIENTED_EDGE('',*,*,#535,.F.);
#744=ORIENTED_EDGE('',*,*,#537,.F.);
#745=ORIENTED_EDGE('',*,*,#539,.F.);
#746=ORIENTED_EDGE('',*,*,#541,.F.);
#747=ORIENTED_EDGE('',*,*,#543,.F.);
#748=ORIENTED_EDGE('',*,*,#545,.F.);
#749=ORIENTED_EDGE('',*,*,#547,.F.);
#750=ORIENTED_EDGE('',*,*,#512,.F.);
#751=ORIENTED_EDGE('',*,*,#488,.F.);
#752=ORIENTED_EDGE('',*,*,#492,.F.);
#753=ORIENTED_EDGE('',*,*,#495,.F.);
#754=ORIENTED_EDGE('',*,*,#498,.F.);
#755=ORIENTED_EDGE('',*,*,#501,.F.);
#756=ORIENTED_EDGE('',*,*,#504,.F.);
#757=ORIENTED_EDGE('',*,*,#507,.F.);
#758=ORIENTED_EDGE('',*,*,#510,.F.);
#759=ORIENTED_EDGE('',*,*,#472,.F.);
#760=ORIENTED_EDGE('',*,*,#549,.T.);
#761=ORIENTED_EDGE('',*,*,#550,.T.);
#762=ORIENTED_EDGE('',*,*,#551,.F.);
#763=ORIENTED_EDGE('',*,*,#479,.F.);
#764=ORIENTED_EDGE('',*,*,#552,.T.);
#765=ORIENTED_EDGE('',*,*,#553,.T.);
#766=ORIENTED_EDGE('',*,*,#549,.F.);
#767=ORIENTED_EDGE('',*,*,#478,.F.);
#768=ORIENTED_EDGE('',*,*,#554,.T.);
#769=ORIENTED_EDGE('',*,*,#555,.T.);
#770=ORIENTED_EDGE('',*,*,#552,.F.);
#771=ORIENTED_EDGE('',*,*,#477,.F.);
#772=ORIENTED_EDGE('',*,*,#556,.T.);
#773=ORIENTED_EDGE('',*,*,#557,.T.);
#774=ORIENTED_EDGE('',*,*,#554,.F.);
#775=ORIENTED_EDGE('',*,*,#476,.F.);
#776=ORIENTED_EDGE('',*,*,#558,.T.);
#777=ORIENTED_EDGE('',*,*,#559,.T.);
#778=ORIENTED_EDGE('',*,*,#556,.F.);
#779=ORIENTED_EDGE('',*,*,#475,.F.);
#780=ORIENTED_EDGE('',*,*,#560,.T.);
#781=ORIENTED_EDGE('',*,*,#561,.T.);
#782=ORIENTED_EDGE('',*,*,#558,.F.);
#783=ORIENTED_EDGE('',*,*,#474,.F.);
#784=ORIENTED_EDGE('',*,*,#562,.T.);
#785=ORIENTED_EDGE('',*,*,#563,.T.);
#786=ORIENTED_EDGE('',*,*,#560,.F.);
#787=ORIENTED_EDGE('',*,*,#473,.F.);
#788=ORIENTED_EDGE('',*,*,#551,.T.);
#789=ORIENTED_EDGE('',*,*,#564,.T.);
#790=ORIENTED_EDGE('',*,*,#562,.F.);
#791=ORIENTED_EDGE('',*,*,#564,.F.);
#792=ORIENTED_EDGE('',*,*,#550,.F.);
#793=ORIENTED_EDGE('',*,*,#553,.F.);
#794=ORIENTED_EDGE('',*,*,#555,.F.);
#795=ORIENTED_EDGE('',*,*,#557,.F.);
#796=ORIENTED_EDGE('',*,*,#559,.F.);
#797=ORIENTED_EDGE('',*,*,#561,.F.);
#798=ORIENTED_EDGE('',*,*,#563,.F.);
#799=ORIENTED_EDGE('',*,*,#449,.F.);
#800=ORIENTED_EDGE('',*,*,#565,.T.);
#801=ORIENTED_EDGE('',*,*,#566,.F.);
#802=ORIENTED_EDGE('',*,*,#567,.F.);
#803=ORIENTED_EDGE('',*,*,#482,.F.);
#804=ORIENTED_EDGE('',*,*,#450,.T.);
#805=ORIENTED_EDGE('',*,*,#567,.T.);
#806=ORIENTED_EDGE('',*,*,#568,.F.);
#807=ORIENTED_EDGE('',*,*,#442,.F.);
#808=ORIENTED_EDGE('',*,*,#569,.F.);
#809=ORIENTED_EDGE('',*,*,#565,.F.);
#810=ORIENTED_EDGE('',*,*,#448,.T.);
#811=ORIENTED_EDGE('',*,*,#486,.T.);
#812=ORIENTED_EDGE('',*,*,#511,.T.);
#813=ORIENTED_EDGE('',*,*,#508,.T.);
#814=ORIENTED_EDGE('',*,*,#505,.T.);
#815=ORIENTED_EDGE('',*,*,#502,.T.);
#816=ORIENTED_EDGE('',*,*,#499,.T.);
#817=ORIENTED_EDGE('',*,*,#496,.T.);
#818=ORIENTED_EDGE('',*,*,#493,.T.);
#819=ORIENTED_EDGE('',*,*,#490,.T.);
#820=ORIENTED_EDGE('',*,*,#441,.F.);
#821=ORIENTED_EDGE('',*,*,#447,.T.);
#822=ORIENTED_EDGE('',*,*,#485,.F.);
#823=ORIENTED_EDGE('',*,*,#483,.T.);
#824=ORIENTED_EDGE('',*,*,#480,.F.);
#825=ORIENTED_EDGE('',*,*,#568,.T.);
#826=ORIENTED_EDGE('',*,*,#566,.T.);
#827=ORIENTED_EDGE('',*,*,#569,.T.);
#828=PLANE('',#918);
#829=PLANE('',#919);
#830=PLANE('',#920);
#831=PLANE('',#922);
#832=PLANE('',#923);
#833=PLANE('',#924);
#834=PLANE('',#925);
#835=PLANE('',#926);
#836=PLANE('',#927);
#837=PLANE('',#928);
#838=PLANE('',#929);
#839=PLANE('',#930);
#840=PLANE('',#931);
#841=PLANE('',#932);
#842=PLANE('',#933);
#843=PLANE('',#934);
#844=PLANE('',#935);
#845=PLANE('',#936);
#846=PLANE('',#937);
#847=PLANE('',#938);
#848=PLANE('',#939);
#849=PLANE('',#940);
#850=PLANE('',#941);
#851=PLANE('',#942);
#852=PLANE('',#945);
#853=PLANE('',#946);
#854=PLANE('',#947);
#855=PLANE('',#948);
#856=ADVANCED_FACE('',(#78),#828,.T.);
#857=ADVANCED_FACE('',(#79),#829,.T.);
#858=ADVANCED_FACE('',(#80,#35,#36),#830,.T.);
#859=ADVANCED_FACE('',(#81),#831,.T.);
#860=ADVANCED_FACE('',(#82),#832,.T.);
#861=ADVANCED_FACE('',(#83),#833,.T.);
#862=ADVANCED_FACE('',(#84),#834,.F.);
#863=ADVANCED_FACE('',(#85),#16,.F.);
#864=ADVANCED_FACE('',(#86),#17,.F.);
#865=ADVANCED_FACE('',(#87),#18,.F.);
#866=ADVANCED_FACE('',(#88),#19,.F.);
#867=ADVANCED_FACE('',(#89),#20,.F.);
#868=ADVANCED_FACE('',(#90),#21,.F.);
#869=ADVANCED_FACE('',(#91),#835,.F.);
#870=ADVANCED_FACE('',(#92),#836,.F.);
#871=ADVANCED_FACE('',(#93),#837,.F.);
#872=ADVANCED_FACE('',(#94),#838,.F.);
#873=ADVANCED_FACE('',(#95),#22,.F.);
#874=ADVANCED_FACE('',(#96),#23,.F.);
#875=ADVANCED_FACE('',(#97),#24,.F.);
#876=ADVANCED_FACE('',(#98),#839,.F.);
#877=ADVANCED_FACE('',(#99),#840,.F.);
#878=ADVANCED_FACE('',(#100),#841,.F.);
#879=ADVANCED_FACE('',(#101),#25,.F.);
#880=ADVANCED_FACE('',(#102),#26,.F.);
#881=ADVANCED_FACE('',(#103),#27,.F.);
#882=ADVANCED_FACE('',(#104),#28,.F.);
#883=ADVANCED_FACE('',(#105),#29,.F.);
#884=ADVANCED_FACE('',(#106),#30,.F.);
#885=ADVANCED_FACE('',(#107),#31,.F.);
#886=ADVANCED_FACE('',(#108),#842,.F.);
#887=ADVANCED_FACE('',(#109),#843,.F.);
#888=ADVANCED_FACE('',(#110),#844,.F.);
#889=ADVANCED_FACE('',(#111,#37),#845,.T.);
#890=ADVANCED_FACE('',(#112),#846,.F.);
#891=ADVANCED_FACE('',(#113),#32,.F.);
#892=ADVANCED_FACE('',(#114),#33,.F.);
#893=ADVANCED_FACE('',(#115),#847,.F.);
#894=ADVANCED_FACE('',(#116),#34,.F.);
#895=ADVANCED_FACE('',(#117),#848,.F.);
#896=ADVANCED_FACE('',(#118),#849,.F.);
#897=ADVANCED_FACE('',(#119),#850,.F.);
#898=ADVANCED_FACE('',(#120),#851,.T.);
#899=ADVANCED_FACE('',(#121),#15,.T.);
#900=ADVANCED_FACE('',(#122),#852,.T.);
#901=ADVANCED_FACE('',(#123),#853,.T.);
#902=ADVANCED_FACE('',(#124),#854,.T.);
#903=ADVANCED_FACE('',(#125),#855,.F.);
#904=CLOSED_SHELL('',(#856,#857,#858,#859,#860,#861,#862,#863,#864,#865,
#866,#867,#868,#869,#870,#871,#872,#873,#874,#875,#876,#877,#878,#879,#880,
#881,#882,#883,#884,#885,#886,#887,#888,#889,#890,#891,#892,#893,#894,#895,
#896,#897,#898,#899,#900,#901,#902,#903));
#905=DERIVED_UNIT_ELEMENT(#907,1.);
#906=DERIVED_UNIT_ELEMENT(#1694,-3.);
#907=(
MASS_UNIT()
NAMED_UNIT(*)
SI_UNIT(.KILO.,.GRAM.)
);
#908=DERIVED_UNIT((#905,#906));
#909=MEASURE_REPRESENTATION_ITEM('density measure',
POSITIVE_RATIO_MEASURE(7850.),#908);
#910=PROPERTY_DEFINITION_REPRESENTATION(#915,#912);
#911=PROPERTY_DEFINITION_REPRESENTATION(#916,#913);
#912=REPRESENTATION('material name',(#914),#1691);
#913=REPRESENTATION('density',(#909),#1691);
#914=DESCRIPTIVE_REPRESENTATION_ITEM('Steel','Steel');
#915=PROPERTY_DEFINITION('material property','material name',#1701);
#916=PROPERTY_DEFINITION('material property','density of part',#1701);
#917=AXIS2_PLACEMENT_3D('',#1102,#949,#950);
#918=AXIS2_PLACEMENT_3D('',#1103,#951,#952);
#919=AXIS2_PLACEMENT_3D('',#1112,#957,#958);
#920=AXIS2_PLACEMENT_3D('',#1118,#962,#963);
#921=AXIS2_PLACEMENT_3D('',#1122,#965,#966);
#922=AXIS2_PLACEMENT_3D('',#1234,#984,#985);
#923=AXIS2_PLACEMENT_3D('',#1240,#989,#990);
#924=AXIS2_PLACEMENT_3D('',#1244,#993,#994);
#925=AXIS2_PLACEMENT_3D('',#1246,#996,#997);
#926=AXIS2_PLACEMENT_3D('',#1393,#1008,#1009);
#927=AXIS2_PLACEMENT_3D('',#1399,#1013,#1014);
#928=AXIS2_PLACEMENT_3D('',#1402,#1017,#1018);
#929=AXIS2_PLACEMENT_3D('',#1408,#1022,#1023);
#930=AXIS2_PLACEMENT_3D('',#1463,#1029,#1030);
#931=AXIS2_PLACEMENT_3D('',#1467,#1033,#1034);
#932=AXIS2_PLACEMENT_3D('',#1471,#1037,#1038);
#933=AXIS2_PLACEMENT_3D('',#1594,#1048,#1049);
#934=AXIS2_PLACEMENT_3D('',#1598,#1052,#1053);
#935=AXIS2_PLACEMENT_3D('',#1602,#1056,#1057);
#936=AXIS2_PLACEMENT_3D('',#1604,#1059,#1060);
#937=AXIS2_PLACEMENT_3D('',#1605,#1061,#1062);
#938=AXIS2_PLACEMENT_3D('',#1645,#1068,#1069);
#939=AXIS2_PLACEMENT_3D('',#1666,#1073,#1074);
#940=AXIS2_PLACEMENT_3D('',#1670,#1077,#1078);
#941=AXIS2_PLACEMENT_3D('',#1674,#1081,#1082);
#942=AXIS2_PLACEMENT_3D('',#1676,#1084,#1085);
#943=AXIS2_PLACEMENT_3D('',#1677,#1086,#1087);
#944=AXIS2_PLACEMENT_3D('',#1681,#1089,#1090);
#945=AXIS2_PLACEMENT_3D('',#1683,#1092,#1093);
#946=AXIS2_PLACEMENT_3D('',#1685,#1095,#1096);
#947=AXIS2_PLACEMENT_3D('',#1687,#1098,#1099);
#948=AXIS2_PLACEMENT_3D('',#1688,#1100,#1101);
#949=DIRECTION('axis',(0.,0.,1.));
#950=DIRECTION('refdir',(1.,0.,0.));
#951=DIRECTION('center_axis',(0.707106781186546,0.707106781186549,0.));
#952=DIRECTION('ref_axis',(0.,0.,-1.));
#953=DIRECTION('',(-0.707106781186549,0.707106781186546,0.));
#954=DIRECTION('',(0.,0.,1.));
#955=DIRECTION('',(0.707106781186549,-0.707106781186546,0.));
#956=DIRECTION('',(0.,0.,-1.));
#957=DIRECTION('center_axis',(1.,0.,0.));
#958=DIRECTION('ref_axis',(0.,-1.,0.));
#959=DIRECTION('',(0.,-1.,0.));
#960=DIRECTION('',(0.,0.,1.));
#961=DIRECTION('',(0.,-1.,0.));
#962=DIRECTION('center_axis',(0.,0.,1.));
#963=DIRECTION('ref_axis',(1.,0.,0.));
#964=DIRECTION('',(1.,0.,0.));
#965=DIRECTION('center_axis',(0.,0.,1.));
#966=DIRECTION('ref_axis',(-4.44089209850062E-15,1.,0.));
#967=DIRECTION('',(0.,1.,0.));
#968=DIRECTION('',(-0.707106781186548,0.707106781186547,0.));
#969=DIRECTION('',(-1.,0.,0.));
#970=DIRECTION('',(-0.707106781186547,-0.707106781186548,0.));
#971=DIRECTION('',(-0.00362015454037838,-0.999993447219082,0.));
#972=DIRECTION('',(-0.999993447219082,0.00362015454037839,0.));
#973=DIRECTION('',(0.00362015454037841,0.999993447219082,0.));
#974=DIRECTION('',(0.999993447219082,-0.00362015454037848,0.));
#975=DIRECTION('',(0.52745952721964,-0.84958015934062,0.));
#976=DIRECTION('',(-0.999993447219082,0.00362015454037869,0.));
#977=DIRECTION('',(-0.554090951440179,0.832456135500314,0.));
#978=DIRECTION('',(-0.999993447219082,0.003620154540377,0.));
#979=DIRECTION('',(0.999993447219082,-0.00362015454037905,0.));
#980=DIRECTION('',(-0.00362015454037837,-0.999993447219082,0.));
#981=DIRECTION('',(-0.999993447219082,0.00362015454037858,0.));
#982=DIRECTION('',(0.00362015454037828,0.999993447219082,0.));
#983=DIRECTION('',(0.00362015454037773,0.999993447219082,0.));
#984=DIRECTION('center_axis',(-0.707106781186547,-0.707106781186548,0.));
#985=DIRECTION('ref_axis',(0.,0.,1.));
#986=DIRECTION('',(0.707106781186548,-0.707106781186547,0.));
#987=DIRECTION('',(0.,0.,1.));
#988=DIRECTION('',(0.,0.,-1.));
#989=DIRECTION('center_axis',(0.,-1.,0.));
#990=DIRECTION('ref_axis',(-1.,0.,0.));
#991=DIRECTION('',(-1.,0.,0.));
#992=DIRECTION('',(0.,0.,-1.));
#993=DIRECTION('center_axis',(0.707106781186548,-0.707106781186547,0.));
#994=DIRECTION('ref_axis',(0.,0.,-1.));
#995=DIRECTION('',(0.707106781186547,0.707106781186548,0.));
#996=DIRECTION('center_axis',(-0.0036201545403791,-0.999993447219082,0.));
#997=DIRECTION('ref_axis',(-0.999993447219082,0.0036201545403791,0.));
#998=DIRECTION('',(-0.999993447219082,0.0036201545403791,0.));
#999=DIRECTION('',(0.,0.,-1.));
#1000=DIRECTION('',(-0.999993447219082,0.0036201545403791,0.));
#1001=DIRECTION('',(0.,0.,-1.));
#1002=DIRECTION('',(0.,0.,-1.));
#1003=DIRECTION('',(0.,0.,-1.));
#1004=DIRECTION('',(0.,0.,-1.));
#1005=DIRECTION('',(0.,0.,-1.));
#1006=DIRECTION('',(0.,0.,-1.));
#1007=DIRECTION('',(0.,0.,-1.));
#1008=DIRECTION('center_axis',(0.00362015454037866,0.999993447219082,0.));
#1009=DIRECTION('ref_axis',(0.999993447219082,-0.00362015454037866,0.));
#1010=DIRECTION('',(0.999993447219082,-0.00362015454037866,0.));
#1011=DIRECTION('',(0.,0.,-1.));
#1012=DIRECTION('',(0.999993447219082,-0.00362015454037866,0.));
#1013=DIRECTION('center_axis',(0.999993447219082,-0.00362015454037793,0.));
#1014=DIRECTION('ref_axis',(-0.00362015454037793,-0.999993447219082,0.));
#1015=DIRECTION('',(-0.00362015454037793,-0.999993447219082,0.));
#1016=DIRECTION('',(-0.00362015454037793,-0.999993447219082,0.));
#1017=DIRECTION('center_axis',(0.999993447219082,-0.00362015454037838,0.));
#1018=DIRECTION('ref_axis',(-0.00362015454037838,-0.999993447219082,0.));
#1019=DIRECTION('',(0.,0.,-1.));
#1020=DIRECTION('',(-0.00362015454037838,-0.999993447219082,0.));
#1021=DIRECTION('',(0.,0.,-1.));
#1022=DIRECTION('center_axis',(-0.003620154540377,-0.999993447219082,0.));
#1023=DIRECTION('ref_axis',(-0.999993447219082,0.003620154540377,0.));
#1024=DIRECTION('',(0.,0.,-1.));
#1025=DIRECTION('',(-0.999993447219082,0.003620154540377,0.));
#1026=DIRECTION('',(0.,0.,-1.));
#1027=DIRECTION('',(0.,0.,-1.));
#1028=DIRECTION('',(0.,0.,-1.));
#1029=DIRECTION('center_axis',(-0.832456135500314,-0.554090951440179,0.));
#1030=DIRECTION('ref_axis',(-0.554090951440179,0.832456135500314,0.));
#1031=DIRECTION('',(0.,0.,-1.));
#1032=DIRECTION('',(-0.554090951440179,0.832456135500314,0.));
#1033=DIRECTION('center_axis',(-0.00362015454037869,-0.999993447219082,
0.));
#1034=DIRECTION('ref_axis',(-0.999993447219082,0.00362015454037869,0.));
#1035=DIRECTION('',(0.,0.,-1.));
#1036=DIRECTION('',(-0.999993447219082,0.00362015454037869,0.));
#1037=DIRECTION('center_axis',(0.84958015934062,0.52745952721964,0.));
#1038=DIRECTION('ref_axis',(0.52745952721964,-0.84958015934062,0.));
#1039=DIRECTION('',(0.,0.,-1.));
#1040=DIRECTION('',(0.52745952721964,-0.84958015934062,0.));
#1041=DIRECTION('',(0.,0.,-1.));
#1042=DIRECTION('',(0.,0.,-1.));
#1043=DIRECTION('',(0.,0.,-1.));
#1044=DIRECTION('',(0.,0.,-1.));
#1045=DIRECTION('',(0.,0.,-1.));
#1046=DIRECTION('',(0.,0.,-1.));
#1047=DIRECTION('',(0.,0.,-1.));
#1048=DIRECTION('center_axis',(0.00362015454037848,0.999993447219082,0.));
#1049=DIRECTION('ref_axis',(0.999993447219082,-0.00362015454037848,0.));
#1050=DIRECTION('',(0.,0.,-1.));
#1051=DIRECTION('',(0.999993447219082,-0.00362015454037848,0.));
#1052=DIRECTION('center_axis',(-0.999993447219082,0.00362015454037841,0.));
#1053=DIRECTION('ref_axis',(0.00362015454037841,0.999993447219082,0.));
#1054=DIRECTION('',(0.,0.,-1.));
#1055=DIRECTION('',(0.00362015454037841,0.999993447219082,0.));
#1056=DIRECTION('center_axis',(-0.00362015454037839,-0.999993447219082,
0.));
#1057=DIRECTION('ref_axis',(-0.999993447219082,0.00362015454037839,0.));
#1058=DIRECTION('',(-0.999993447219082,0.00362015454037839,0.));
#1059=DIRECTION('center_axis',(0.,0.,1.));
#1060=DIRECTION('ref_axis',(1.,0.,0.));
#1061=DIRECTION('center_axis',(0.00362015454037905,0.999993447219082,0.));
#1062=DIRECTION('ref_axis',(0.999993447219082,-0.00362015454037905,0.));
#1063=DIRECTION('',(0.,0.,-1.));
#1064=DIRECTION('',(0.999993447219082,-0.00362015454037905,0.));
#1065=DIRECTION('',(0.,0.,-1.));
#1066=DIRECTION('',(0.,0.,-1.));
#1067=DIRECTION('',(0.,0.,-1.));
#1068=DIRECTION('center_axis',(-0.999993447219082,0.00362015454037773,0.));
#1069=DIRECTION('ref_axis',(0.00362015454037773,0.999993447219082,0.));
#1070=DIRECTION('',(0.,0.,-1.));
#1071=DIRECTION('',(0.00362015454037773,0.999993447219082,0.));
#1072=DIRECTION('',(0.,0.,-1.));
#1073=DIRECTION('center_axis',(-0.999993447219082,0.00362015454037828,0.));
#1074=DIRECTION('ref_axis',(0.00362015454037828,0.999993447219082,0.));
#1075=DIRECTION('',(0.,0.,-1.));
#1076=DIRECTION('',(0.00362015454037828,0.999993447219082,0.));
#1077=DIRECTION('center_axis',(-0.00362015454037858,-0.999993447219082,
0.));
#1078=DIRECTION('ref_axis',(-0.999993447219082,0.00362015454037858,0.));
#1079=DIRECTION('',(0.,0.,-1.));
#1080=DIRECTION('',(-0.999993447219082,0.00362015454037858,0.));
#1081=DIRECTION('center_axis',(0.999993447219082,-0.00362015454037837,0.));
#1082=DIRECTION('ref_axis',(-0.00362015454037837,-0.999993447219082,0.));
#1083=DIRECTION('',(-0.00362015454037837,-0.999993447219082,0.));
#1084=DIRECTION('center_axis',(0.,0.,1.));
#1085=DIRECTION('ref_axis',(1.,0.,0.));
#1086=DIRECTION('center_axis',(0.,0.,-1.));
#1087=DIRECTION('ref_axis',(-4.44089209850062E-15,1.,0.));
#1088=DIRECTION('',(0.,0.,-1.));
#1089=DIRECTION('center_axis',(0.,0.,-1.));
#1090=DIRECTION('ref_axis',(-4.44089209850062E-15,1.,0.));
#1091=DIRECTION('',(0.,0.,-1.));
#1092=DIRECTION('center_axis',(-1.,0.,0.));
#1093=DIRECTION('ref_axis',(0.,1.,0.));
#1094=DIRECTION('',(0.,1.,0.));
#1095=DIRECTION('center_axis',(0.,1.,0.));
#1096=DIRECTION('ref_axis',(1.,0.,0.));
#1097=DIRECTION('',(1.,0.,0.));
#1098=DIRECTION('center_axis',(0.,0.,1.));
#1099=DIRECTION('ref_axis',(1.,0.,0.));
#1100=DIRECTION('center_axis',(0.,0.,1.));
#1101=DIRECTION('ref_axis',(1.,0.,0.));
#1102=CARTESIAN_POINT('',(0.,0.,0.));
#1103=CARTESIAN_POINT('Origin',(-0.5,34.5,0.));
#1104=CARTESIAN_POINT('',(0.,34.,-2.));
#1105=CARTESIAN_POINT('',(-1.,35.,-2.));
#1106=CARTESIAN_POINT('',(-0.500000000000016,34.5,-2.));
#1107=CARTESIAN_POINT('',(-1.,35.,0.));
#1108=CARTESIAN_POINT('',(-1.,35.,0.));
#1109=CARTESIAN_POINT('',(0.,34.,0.));
#1110=CARTESIAN_POINT('',(-0.500000000000016,34.5,0.));
#1111=CARTESIAN_POINT('',(0.,34.,0.));
#1112=CARTESIAN_POINT('Origin',(0.,35.,0.));
#1113=CARTESIAN_POINT('',(0.,1.,0.));
#1114=CARTESIAN_POINT('',(0.,35.,0.));
#1115=CARTESIAN_POINT('',(0.,1.,-2.));
#1116=CARTESIAN_POINT('',(0.,1.,0.));
#1117=CARTESIAN_POINT('',(0.,35.,-2.));
#1118=CARTESIAN_POINT('Origin',(-17.5,17.5,0.));
#1119=CARTESIAN_POINT('',(-34.,35.,0.));
#1120=CARTESIAN_POINT('',(-34.,35.,0.));
#1121=CARTESIAN_POINT('',(-35.,34.,0.));
#1122=CARTESIAN_POINT('Origin',(-34.,34.,0.));
#1123=CARTESIAN_POINT('',(-35.,1.,0.));
#1124=CARTESIAN_POINT('',(-35.,0.,0.));
#1125=CARTESIAN_POINT('',(-34.,0.,0.));
#1126=CARTESIAN_POINT('',(-34.5,0.499999999999995,0.));
#1127=CARTESIAN_POINT('',(-1.,0.,0.));
#1128=CARTESIAN_POINT('',(0.,0.,0.));
#1129=CARTESIAN_POINT('',(-0.499999999999997,0.500000000000005,0.));
#1130=CARTESIAN_POINT('',(-15.8312027303608,5.90119163467797,0.));
#1131=CARTESIAN_POINT('',(-15.8401967813848,3.4167694953166,0.));
#1132=CARTESIAN_POINT('',(-15.8102190637784,11.6974991809252,0.));
#1133=CARTESIAN_POINT('',(-17.0418127718788,3.42111955940539,0.));
#1134=CARTESIAN_POINT('',(-16.6955790827868,3.41986613173036,0.));
#1135=CARTESIAN_POINT('',(-17.0202681991536,9.37236592417989,0.));
#1136=CARTESIAN_POINT('',(-17.0163320797844,10.4596381753333,0.));
#1137=CARTESIAN_POINT('',(-14.491191558368,9.36321021590043,0.));
#1138=CARTESIAN_POINT('',(-17.2748425053086,9.37328752854925,0.));
#1139=CARTESIAN_POINT('',(-13.1054483296109,9.19784113202468,0.));
#1140=CARTESIAN_POINT('Ctrl Pts',(-14.491191558368,9.36321021590043,0.));
#1141=CARTESIAN_POINT('Ctrl Pts',(-14.2149767463002,9.36182767210644,0.));
#1142=CARTESIAN_POINT('Ctrl Pts',(-13.7459903335049,9.35948024457486,0.));
#1143=CARTESIAN_POINT('Ctrl Pts',(-13.2920396589196,9.24492696979278,0.));
#1144=CARTESIAN_POINT('Ctrl Pts',(-13.1054483296109,9.19784113202468,0.));
#1145=CARTESIAN_POINT('',(-12.4153655945037,8.62497338544868,0.));
#1146=CARTESIAN_POINT('Ctrl Pts',(-13.1054483296109,9.19784113202468,0.));
#1147=CARTESIAN_POINT('Ctrl Pts',(-12.9681765788187,9.13256336688472,0.));
#1148=CARTESIAN_POINT('Ctrl Pts',(-12.6897658690683,9.00016883692021,0.));
#1149=CARTESIAN_POINT('Ctrl Pts',(-12.5076754495182,8.75119132667492,0.));
#1150=CARTESIAN_POINT('Ctrl Pts',(-12.4153655945037,8.62497338544868,0.));
#1151=CARTESIAN_POINT('',(-12.1589520199344,7.68628535990198,0.));
#1152=CARTESIAN_POINT('Ctrl Pts',(-12.4153655945037,8.62497338544868,0.));
#1153=CARTESIAN_POINT('Ctrl Pts',(-12.3401178041366,8.48125217039315,0.));
#1154=CARTESIAN_POINT('Ctrl Pts',(-12.1862074988143,8.18728771000718,0.));
#1155=CARTESIAN_POINT('Ctrl Pts',(-12.1681705714076,7.85573811371359,0.));
#1156=CARTESIAN_POINT('Ctrl Pts',(-12.1589520199344,7.68628535990198,0.));
#1157=CARTESIAN_POINT('',(-12.5567292493002,6.58149347938074,0.));
#1158=CARTESIAN_POINT('Ctrl Pts',(-12.1589520199344,7.68628535990198,0.));
#1159=CARTESIAN_POINT('Ctrl Pts',(-12.1736205798988,7.47563601024323,0.));
#1160=CARTESIAN_POINT('Ctrl Pts',(-12.2019358934043,7.06901106615803,0.));
#1161=CARTESIAN_POINT('Ctrl Pts',(-12.4413446215467,6.7400422073623,0.));
#1162=CARTESIAN_POINT('Ctrl Pts',(-12.5567292493002,6.58149347938074,0.));
#1163=CARTESIAN_POINT('',(-13.7359797001803,6.03569154696008,0.));
#1164=CARTESIAN_POINT('Ctrl Pts',(-12.5567292493002,6.58149347938074,0.));
#1165=CARTESIAN_POINT('Ctrl Pts',(-12.7138737793242,6.44890286597119,0.));
#1166=CARTESIAN_POINT('Ctrl Pts',(-13.0557788953022,6.1604206066876,0.));
#1167=CARTESIAN_POINT('Ctrl Pts',(-13.4973571758453,6.07944798311343,0.));
#1168=CARTESIAN_POINT('Ctrl Pts',(-13.7359797001803,6.03569154696008,0.));
#1169=CARTESIAN_POINT('',(-13.0943543372804,5.53404216832301,0.));
#1170=CARTESIAN_POINT('Ctrl Pts',(-13.7359797001803,6.03569154696008,0.));
#1171=CARTESIAN_POINT('Ctrl Pts',(-13.6143223743151,5.96004663227764,0.));
#1172=CARTESIAN_POINT('Ctrl Pts',(-13.3823491164613,5.81580873148396,0.));
#1173=CARTESIAN_POINT('Ctrl Pts',(-13.1871717951962,5.62485234270407,0.));
#1174=CARTESIAN_POINT('Ctrl Pts',(-13.0943543372804,5.53404216832301,0.));
#1175=CARTESIAN_POINT('',(-12.4138237698157,4.56540116897722,0.));
#1176=CARTESIAN_POINT('Ctrl Pts',(-13.0943543372804,5.53404216832301,0.));
#1177=CARTESIAN_POINT('Ctrl Pts',(-12.9932095889902,5.40949040901798,0.));
#1178=CARTESIAN_POINT('Ctrl Pts',(-12.7439957360002,5.10260325612292,0.));
#1179=CARTESIAN_POINT('Ctrl Pts',(-12.5368803129763,4.765618748279,0.));
#1180=CARTESIAN_POINT('Ctrl Pts',(-12.4138237698157,4.56540116897722,0.));
#1181=CARTESIAN_POINT('',(-11.6913741229564,3.40175001771312,0.));
#1182=CARTESIAN_POINT('',(-16.0194660611159,10.373016719151,0.));
#1183=CARTESIAN_POINT('',(-13.1284419303588,3.40695245935138,0.));
#1184=CARTESIAN_POINT('',(-14.6211677535726,3.41235639292862,0.));
#1185=CARTESIAN_POINT('',(-13.9924897342131,4.70508211444599,0.));
#1186=CARTESIAN_POINT('',(-17.0497670492558,9.29827976948477,0.));
#1187=CARTESIAN_POINT('',(-14.6226068845848,5.58220006390735,0.));
#1188=CARTESIAN_POINT('Ctrl Pts',(-13.9924897342131,4.70508211444599,0.));
#1189=CARTESIAN_POINT('Ctrl Pts',(-14.1179325153597,4.8969157588529,0.));
#1190=CARTESIAN_POINT('Ctrl Pts',(-14.3152204646178,5.19861878199873,0.));
#1191=CARTESIAN_POINT('Ctrl Pts',(-14.5405499856287,5.47980292321914,0.));
#1192=CARTESIAN_POINT('Ctrl Pts',(-14.6226068845848,5.58220006390735,0.));
#1193=CARTESIAN_POINT('',(-14.9830069708851,5.83113806819682,0.));
#1194=CARTESIAN_POINT('Ctrl Pts',(-14.6226068845848,5.58220006390735,0.));
#1195=CARTESIAN_POINT('Ctrl Pts',(-14.6782001398671,5.63718906394071,0.));
#1196=CARTESIAN_POINT('Ctrl Pts',(-14.7837433144072,5.74158506663635,0.));
#1197=CARTESIAN_POINT('Ctrl Pts',(-14.9189963881063,5.80237045487082,0.));
#1198=CARTESIAN_POINT('Ctrl Pts',(-14.9830069708851,5.83113806819682,0.));
#1199=CARTESIAN_POINT('',(-15.5876318827139,5.90030986478992,0.));
#1200=CARTESIAN_POINT('Ctrl Pts',(-14.9830069708851,5.83113806819682,0.));
#1201=CARTESIAN_POINT('Ctrl Pts',(-15.0648126392393,5.85082516507084,0.));
#1202=CARTESIAN_POINT('Ctrl Pts',(-15.2631911253843,5.89856631251248,0.));
#1203=CARTESIAN_POINT('Ctrl Pts',(-15.4675467368026,5.89966452438521,0.));
#1204=CARTESIAN_POINT('Ctrl Pts',(-15.5876318827139,5.90030986478992,0.));
#1205=CARTESIAN_POINT('',(-16.5647996079393,5.90384738614771,0.));
#1206=CARTESIAN_POINT('',(-9.27462905558671,9.36868292741977,0.));
#1207=CARTESIAN_POINT('',(-8.34905962591392,9.36533220108992,0.));
#1208=CARTESIAN_POINT('',(-13.4019788446801,9.38362466940844,0.));
#1209=CARTESIAN_POINT('',(-8.37069237632922,3.38972855783692,0.));
#1210=CARTESIAN_POINT('',(-8.33439530902719,13.4160489953914,0.));
#1211=CARTESIAN_POINT('',(-9.51141587842745,3.39385818026287,0.));
#1212=CARTESIAN_POINT('',(-12.960826880259,3.40634566299052,0.));
#1213=CARTESIAN_POINT('',(-9.4958526434366,7.69288266520953,0.));
#1214=CARTESIAN_POINT('',(-9.48593518633307,10.4323767961908,0.));
#1215=CARTESIAN_POINT('',(-10.9725860546188,6.83354113774861,0.));
#1216=CARTESIAN_POINT('Ctrl Pts',(-9.4958526434366,7.69288266520953,0.));
#1217=CARTESIAN_POINT('Ctrl Pts',(-9.71574656942006,7.51100068227868,0.));
#1218=CARTESIAN_POINT('Ctrl Pts',(-10.1604833530833,7.14314328133776,0.));
#1219=CARTESIAN_POINT('Ctrl Pts',(-10.6998843760306,6.93750461932752,0.));
#1220=CARTESIAN_POINT('Ctrl Pts',(-10.9725860546188,6.83354113774861,0.));
#1221=CARTESIAN_POINT('',(-10.9688385329992,7.86871712848961,0.));
#1222=CARTESIAN_POINT('',(-10.9533218389676,12.1548856279415,0.));
#1223=CARTESIAN_POINT('',(-9.99660876135992,8.41932850965632,0.));
#1224=CARTESIAN_POINT('Ctrl Pts',(-10.9688385329992,7.86871712848961,0.));
#1225=CARTESIAN_POINT('Ctrl Pts',(-10.8100910464259,7.93291094046331,0.));
#1226=CARTESIAN_POINT('Ctrl Pts',(-10.4621695529083,8.07360234552799,0.));
#1227=CARTESIAN_POINT('Ctrl Pts',(-10.160587048904,8.29755797961576,0.));
#1228=CARTESIAN_POINT('Ctrl Pts',(-9.99660876135992,8.41932850965632,0.));
#1229=CARTESIAN_POINT('Ctrl Pts',(-9.99660876135992,8.41932850965632,0.));
#1230=CARTESIAN_POINT('Ctrl Pts',(-9.83657460818533,8.55683825536164,0.));
#1231=CARTESIAN_POINT('Ctrl Pts',(-9.52785928107571,8.82210267101339,0.));
#1232=CARTESIAN_POINT('Ctrl Pts',(-9.35694399921997,9.1910117078398,0.));
#1233=CARTESIAN_POINT('Ctrl Pts',(-9.27462905558671,9.36868292741977,0.));
#1234=CARTESIAN_POINT('Origin',(-34.5,0.5,0.));
#1235=CARTESIAN_POINT('',(-35.,1.,-2.));
#1236=CARTESIAN_POINT('',(-34.,0.,-2.));
#1237=CARTESIAN_POINT('',(-34.5,0.499999999999995,-2.));
#1238=CARTESIAN_POINT('',(-34.,0.,0.));
#1239=CARTESIAN_POINT('',(-35.,1.,0.));
#1240=CARTESIAN_POINT('Origin',(0.,0.,0.));
#1241=CARTESIAN_POINT('',(-1.,0.,-2.));
#1242=CARTESIAN_POINT('',(0.,0.,-2.));
#1243=CARTESIAN_POINT('',(-1.,0.,0.));
#1244=CARTESIAN_POINT('Origin',(-0.5,0.5,0.));
#1245=CARTESIAN_POINT('',(-0.499999999999997,0.500000000000005,-2.));
#1246=CARTESIAN_POINT('Origin',(-14.8845493830784,8.35786198056501,0.));
#1247=CARTESIAN_POINT('',(-14.8845493830784,8.35786198056501,0.));
#1248=CARTESIAN_POINT('',(-15.8222968559479,8.36125679358211,0.));
#1249=CARTESIAN_POINT('',(-16.2088054209151,8.36265602348732,0.));
#1250=CARTESIAN_POINT('',(-14.8845493830784,8.35786198056501,-0.4));
#1251=CARTESIAN_POINT('',(-14.8845493830784,8.35786198056501,0.));
#1252=CARTESIAN_POINT('',(-15.8222968559479,8.36125679358211,-0.4));
#1253=CARTESIAN_POINT('',(-14.8845493830784,8.35786198056501,-0.4));
#1254=CARTESIAN_POINT('',(-15.8222968559479,8.36125679358211,0.));
#1255=CARTESIAN_POINT('Ctrl Pts',(-14.0077679914114,8.33438997689034,0.));
#1256=CARTESIAN_POINT('Ctrl Pts',(-14.0077679914114,8.33438997689034,-0.4));
#1257=CARTESIAN_POINT('Ctrl Pts',(-14.105153971646,8.34052222729334,0.));
#1258=CARTESIAN_POINT('Ctrl Pts',(-14.105153971646,8.34052222729334,-0.4));
#1259=CARTESIAN_POINT('Ctrl Pts',(-14.3970555987198,8.35890283881409,0.));
#1260=CARTESIAN_POINT('Ctrl Pts',(-14.3970555987198,8.35890283881409,-0.4));
#1261=CARTESIAN_POINT('Ctrl Pts',(-14.6896032455126,8.35827821417029,0.));
#1262=CARTESIAN_POINT('Ctrl Pts',(-14.6896032455126,8.35827821417029,-0.4));
#1263=CARTESIAN_POINT('Ctrl Pts',(-14.8845493830784,8.35786198056501,0.));
#1264=CARTESIAN_POINT('Ctrl Pts',(-14.8845493830784,8.35786198056501,-0.4));
#1265=CARTESIAN_POINT('',(-14.0077679914114,8.33438997689034,0.));
#1266=CARTESIAN_POINT('Ctrl Pts',(-14.0077679914114,8.33438997689034,0.));
#1267=CARTESIAN_POINT('Ctrl Pts',(-14.105153971646,8.34052222729334,0.));
#1268=CARTESIAN_POINT('Ctrl Pts',(-14.3970555987198,8.35890283881409,0.));
#1269=CARTESIAN_POINT('Ctrl Pts',(-14.6896032455126,8.35827821417029,0.));
#1270=CARTESIAN_POINT('Ctrl Pts',(-14.8845493830784,8.35786198056501,0.));
#1271=CARTESIAN_POINT('',(-14.0077679914114,8.33438997689034,-0.4));
#1272=CARTESIAN_POINT('',(-14.0077679914114,8.33438997689034,0.));
#1273=CARTESIAN_POINT('Ctrl Pts',(-14.0077679914114,8.33438997689034,-0.4));
#1274=CARTESIAN_POINT('Ctrl Pts',(-14.105153971646,8.34052222729334,-0.4));
#1275=CARTESIAN_POINT('Ctrl Pts',(-14.3970555987198,8.35890283881409,-0.4));
#1276=CARTESIAN_POINT('Ctrl Pts',(-14.6896032455126,8.35827821417029,-0.4));
#1277=CARTESIAN_POINT('Ctrl Pts',(-14.8845493830784,8.35786198056501,-0.4));
#1278=CARTESIAN_POINT('Ctrl Pts',(-13.555977419783,8.09932947305501,0.));
#1279=CARTESIAN_POINT('Ctrl Pts',(-13.555977419783,8.09932947305501,-0.4));
#1280=CARTESIAN_POINT('Ctrl Pts',(-13.6170429669528,8.15580691388351,0.));
#1281=CARTESIAN_POINT('Ctrl Pts',(-13.6170429669528,8.15580691388351,-0.4));
#1282=CARTESIAN_POINT('Ctrl Pts',(-13.745909573829,8.27499124124878,0.));
#1283=CARTESIAN_POINT('Ctrl Pts',(-13.745909573829,8.27499124124878,-0.4));
#1284=CARTESIAN_POINT('Ctrl Pts',(-13.9174924595274,8.31391229852206,0.));
#1285=CARTESIAN_POINT('Ctrl Pts',(-13.9174924595274,8.31391229852206,-0.4));
#1286=CARTESIAN_POINT('Ctrl Pts',(-14.0077679914114,8.33438997689034,0.));
#1287=CARTESIAN_POINT('Ctrl Pts',(-14.0077679914114,8.33438997689034,-0.4));
#1288=CARTESIAN_POINT('',(-13.555977419783,8.09932947305501,0.));
#1289=CARTESIAN_POINT('Ctrl Pts',(-13.555977419783,8.09932947305501,0.));
#1290=CARTESIAN_POINT('Ctrl Pts',(-13.6170429669528,8.15580691388351,0.));
#1291=CARTESIAN_POINT('Ctrl Pts',(-13.745909573829,8.27499124124878,0.));
#1292=CARTESIAN_POINT('Ctrl Pts',(-13.9174924595274,8.31391229852206,0.));
#1293=CARTESIAN_POINT('Ctrl Pts',(-14.0077679914114,8.33438997689034,0.));
#1294=CARTESIAN_POINT('',(-13.555977419783,8.09932947305501,-0.4));
#1295=CARTESIAN_POINT('',(-13.555977419783,8.09932947305501,0.));
#1296=CARTESIAN_POINT('Ctrl Pts',(-13.555977419783,8.09932947305501,-0.4));
#1297=CARTESIAN_POINT('Ctrl Pts',(-13.6170429669528,8.15580691388351,-0.4));
#1298=CARTESIAN_POINT('Ctrl Pts',(-13.745909573829,8.27499124124878,-0.4));
#1299=CARTESIAN_POINT('Ctrl Pts',(-13.9174924595274,8.31391229852206,-0.4));
#1300=CARTESIAN_POINT('Ctrl Pts',(-14.0077679914114,8.33438997689034,-0.4));
#1301=CARTESIAN_POINT('Ctrl Pts',(-13.3973826703365,7.61363710164749,0.));
#1302=CARTESIAN_POINT('Ctrl Pts',(-13.3973826703365,7.61363710164749,-0.4));
#1303=CARTESIAN_POINT('Ctrl Pts',(-13.4020858719467,7.706995922665,0.));
#1304=CARTESIAN_POINT('Ctrl Pts',(-13.4020858719467,7.706995922665,-0.4));
#1305=CARTESIAN_POINT('Ctrl Pts',(-13.4109906797481,7.88375686693906,0.));
#1306=CARTESIAN_POINT('Ctrl Pts',(-13.4109906797481,7.88375686693906,-0.4));
#1307=CARTESIAN_POINT('Ctrl Pts',(-13.509498101724,8.0302219965916,0.));
#1308=CARTESIAN_POINT('Ctrl Pts',(-13.509498101724,8.0302219965916,-0.4));
#1309=CARTESIAN_POINT('Ctrl Pts',(-13.555977419783,8.09932947305501,0.));
#1310=CARTESIAN_POINT('Ctrl Pts',(-13.555977419783,8.09932947305501,-0.4));
#1311=CARTESIAN_POINT('',(-13.3973826703365,7.61363710164749,0.));
#1312=CARTESIAN_POINT('Ctrl Pts',(-13.3973826703365,7.61363710164749,0.));
#1313=CARTESIAN_POINT('Ctrl Pts',(-13.4020858719467,7.706995922665,0.));
#1314=CARTESIAN_POINT('Ctrl Pts',(-13.4109906797481,7.88375686693906,0.));
#1315=CARTESIAN_POINT('Ctrl Pts',(-13.509498101724,8.0302219965916,0.));
#1316=CARTESIAN_POINT('Ctrl Pts',(-13.555977419783,8.09932947305501,0.));
#1317=CARTESIAN_POINT('',(-13.3973826703365,7.61363710164749,-0.4));
#1318=CARTESIAN_POINT('',(-13.3973826703365,7.61363710164749,0.));
#1319=CARTESIAN_POINT('Ctrl Pts',(-13.3973826703365,7.61363710164749,-0.4));
#1320=CARTESIAN_POINT('Ctrl Pts',(-13.4020858719467,7.706995922665,-0.4));
#1321=CARTESIAN_POINT('Ctrl Pts',(-13.4109906797481,7.88375686693906,-0.4));
#1322=CARTESIAN_POINT('Ctrl Pts',(-13.509498101724,8.0302219965916,-0.4));
#1323=CARTESIAN_POINT('Ctrl Pts',(-13.555977419783,8.09932947305501,-0.4));
#1324=CARTESIAN_POINT('Ctrl Pts',(-13.5207847463438,7.16753155701761,0.));
#1325=CARTESIAN_POINT('Ctrl Pts',(-13.5207847463438,7.16753155701761,-0.4));
#1326=CARTESIAN_POINT('Ctrl Pts',(-13.4850580117575,7.23296225285577,0.));
#1327=CARTESIAN_POINT('Ctrl Pts',(-13.4850580117575,7.23296225285577,-0.4));
#1328=CARTESIAN_POINT('Ctrl Pts',(-13.4092749233749,7.37175300054298,0.));
#1329=CARTESIAN_POINT('Ctrl Pts',(-13.4092749233749,7.37175300054298,-0.4));
#1330=CARTESIAN_POINT('Ctrl Pts',(-13.4014949164435,7.52999551162155,0.));
#1331=CARTESIAN_POINT('Ctrl Pts',(-13.4014949164435,7.52999551162155,-0.4));
#1332=CARTESIAN_POINT('Ctrl Pts',(-13.3973826703365,7.61363710164749,0.));
#1333=CARTESIAN_POINT('Ctrl Pts',(-13.3973826703365,7.61363710164749,-0.4));
#1334=CARTESIAN_POINT('',(-13.5207847463438,7.16753155701761,0.));
#1335=CARTESIAN_POINT('Ctrl Pts',(-13.5207847463438,7.16753155701761,0.));
#1336=CARTESIAN_POINT('Ctrl Pts',(-13.4850580117575,7.23296225285577,0.));
#1337=CARTESIAN_POINT('Ctrl Pts',(-13.4092749233749,7.37175300054298,0.));
#1338=CARTESIAN_POINT('Ctrl Pts',(-13.4014949164435,7.52999551162155,0.));
#1339=CARTESIAN_POINT('Ctrl Pts',(-13.3973826703365,7.61363710164749,0.));
#1340=CARTESIAN_POINT('',(-13.5207847463438,7.16753155701761,-0.4));
#1341=CARTESIAN_POINT('',(-13.5207847463438,7.16753155701761,0.));
#1342=CARTESIAN_POINT('Ctrl Pts',(-13.5207847463438,7.16753155701761,-0.4));
#1343=CARTESIAN_POINT('Ctrl Pts',(-13.4850580117575,7.23296225285577,-0.4));
#1344=CARTESIAN_POINT('Ctrl Pts',(-13.4092749233749,7.37175300054298,-0.4));
#1345=CARTESIAN_POINT('Ctrl Pts',(-13.4014949164435,7.52999551162155,-0.4));
#1346=CARTESIAN_POINT('Ctrl Pts',(-13.3973826703365,7.61363710164749,-0.4));
#1347=CARTESIAN_POINT('Ctrl Pts',(-13.8586354797292,6.91706134818427,0.));
#1348=CARTESIAN_POINT('Ctrl Pts',(-13.8586354797292,6.91706134818427,-0.4));
#1349=CARTESIAN_POINT('Ctrl Pts',(-13.7909873191015,6.9451616667956,0.));
#1350=CARTESIAN_POINT('Ctrl Pts',(-13.7909873191015,6.9451616667956,-0.4));
#1351=CARTESIAN_POINT('Ctrl Pts',(-13.6574878554491,7.00061590868884,0.));
#1352=CARTESIAN_POINT('Ctrl Pts',(-13.6574878554491,7.00061590868884,-0.4));
#1353=CARTESIAN_POINT('Ctrl Pts',(-13.5659417227235,7.11239450828241,0.));
#1354=CARTESIAN_POINT('Ctrl Pts',(-13.5659417227235,7.11239450828241,-0.4));
#1355=CARTESIAN_POINT('Ctrl Pts',(-13.5207847463438,7.16753155701761,0.));
#1356=CARTESIAN_POINT('Ctrl Pts',(-13.5207847463438,7.16753155701761,-0.4));
#1357=CARTESIAN_POINT('',(-13.8586354797292,6.91706134818427,0.));
#1358=CARTESIAN_POINT('Ctrl Pts',(-13.8586354797292,6.91706134818427,0.));
#1359=CARTESIAN_POINT('Ctrl Pts',(-13.7909873191015,6.9451616667956,0.));
#1360=CARTESIAN_POINT('Ctrl Pts',(-13.6574878554491,7.00061590868884,0.));
#1361=CARTESIAN_POINT('Ctrl Pts',(-13.5659417227235,7.11239450828241,0.));
#1362=CARTESIAN_POINT('Ctrl Pts',(-13.5207847463438,7.16753155701761,0.));
#1363=CARTESIAN_POINT('',(-13.8586354797292,6.91706134818427,-0.4));
#1364=CARTESIAN_POINT('',(-13.8586354797292,6.91706134818427,0.));
#1365=CARTESIAN_POINT('Ctrl Pts',(-13.8586354797292,6.91706134818427,-0.4));
#1366=CARTESIAN_POINT('Ctrl Pts',(-13.7909873191015,6.9451616667956,-0.4));
#1367=CARTESIAN_POINT('Ctrl Pts',(-13.6574878554491,7.00061590868884,-0.4));
#1368=CARTESIAN_POINT('Ctrl Pts',(-13.5659417227235,7.11239450828241,-0.4));
#1369=CARTESIAN_POINT('Ctrl Pts',(-13.5207847463438,7.16753155701761,-0.4));
#1370=CARTESIAN_POINT('Ctrl Pts',(-14.9387306145649,6.84789928807091,0.));
#1371=CARTESIAN_POINT('Ctrl Pts',(-14.9387306145649,6.84789928807091,-0.4));
#1372=CARTESIAN_POINT('Ctrl Pts',(-14.7038807825871,6.84421048083876,0.));
#1373=CARTESIAN_POINT('Ctrl Pts',(-14.7038807825871,6.84421048083876,-0.4));
#1374=CARTESIAN_POINT('Ctrl Pts',(-14.3415022366009,6.83851856873495,0.));
#1375=CARTESIAN_POINT('Ctrl Pts',(-14.3415022366009,6.83851856873495,-0.4));
#1376=CARTESIAN_POINT('Ctrl Pts',(-13.9843314666429,6.89661572413304,0.));
#1377=CARTESIAN_POINT('Ctrl Pts',(-13.9843314666429,6.89661572413304,-0.4));
#1378=CARTESIAN_POINT('Ctrl Pts',(-13.8586354797292,6.91706134818427,0.));
#1379=CARTESIAN_POINT('Ctrl Pts',(-13.8586354797292,6.91706134818427,-0.4));
#1380=CARTESIAN_POINT('',(-14.9387306145649,6.84789928807091,0.));
#1381=CARTESIAN_POINT('Ctrl Pts',(-14.9387306145649,6.84789928807091,0.));
#1382=CARTESIAN_POINT('Ctrl Pts',(-14.7038807825871,6.84421048083876,0.));
#1383=CARTESIAN_POINT('Ctrl Pts',(-14.3415022366009,6.83851856873495,0.));
#1384=CARTESIAN_POINT('Ctrl Pts',(-13.9843314666429,6.89661572413304,0.));
#1385=CARTESIAN_POINT('Ctrl Pts',(-13.8586354797292,6.91706134818427,0.));
#1386=CARTESIAN_POINT('',(-14.9387306145649,6.84789928807091,-0.4));
#1387=CARTESIAN_POINT('',(-14.9387306145649,6.84789928807091,0.));
#1388=CARTESIAN_POINT('Ctrl Pts',(-14.9387306145649,6.84789928807091,-0.4));
#1389=CARTESIAN_POINT('Ctrl Pts',(-14.7038807825871,6.84421048083876,-0.4));
#1390=CARTESIAN_POINT('Ctrl Pts',(-14.3415022366009,6.83851856873495,-0.4));
#1391=CARTESIAN_POINT('Ctrl Pts',(-13.9843314666429,6.89661572413304,-0.4));
#1392=CARTESIAN_POINT('Ctrl Pts',(-13.8586354797292,6.91706134818427,-0.4));
#1393=CARTESIAN_POINT('Origin',(-15.8277638284986,6.85111774678674,0.));
#1394=CARTESIAN_POINT('',(-15.8277638284986,6.85111774678674,0.));
#1395=CARTESIAN_POINT('',(-16.6831461299006,6.8542143832005,0.));
#1396=CARTESIAN_POINT('',(-15.8277638284986,6.85111774678674,-0.4));
#1397=CARTESIAN_POINT('',(-15.8277638284986,6.85111774678674,0.));
#1398=CARTESIAN_POINT('',(-15.8277638284986,6.85111774678674,-0.4));
#1399=CARTESIAN_POINT('Origin',(-15.8222968559479,8.36125679358211,0.));
#1400=CARTESIAN_POINT('',(-15.805766126572,12.9275317603773,0.));
#1401=CARTESIAN_POINT('',(-15.8222968559479,8.36125679358211,-0.4));
#1402=CARTESIAN_POINT('Origin',(-15.8312027303608,5.90119163467797,0.));
#1403=CARTESIAN_POINT('',(-15.8312027303608,5.90119163467797,-0.4));
#1404=CARTESIAN_POINT('',(-15.8312027303608,5.90119163467797,0.));
#1405=CARTESIAN_POINT('',(-15.8401967813848,3.4167694953166,-0.4));
#1406=CARTESIAN_POINT('',(-15.8312027303608,5.90119163467798,-0.4));
#1407=CARTESIAN_POINT('',(-15.8401967813848,3.4167694953166,0.));
#1408=CARTESIAN_POINT('Origin',(-15.5876318827139,5.90030986478992,0.));
#1409=CARTESIAN_POINT('',(-15.5876318827139,5.90030986478992,-0.4));
#1410=CARTESIAN_POINT('',(-15.5876318827139,5.90030986478992,0.));
#1411=CARTESIAN_POINT('',(-15.5876318827139,5.90030986478992,-0.4));
#1412=CARTESIAN_POINT('Ctrl Pts',(-14.9830069708851,5.83113806819682,0.));
#1413=CARTESIAN_POINT('Ctrl Pts',(-14.9830069708851,5.83113806819682,-0.4));
#1414=CARTESIAN_POINT('Ctrl Pts',(-15.0648126392393,5.85082516507084,0.));
#1415=CARTESIAN_POINT('Ctrl Pts',(-15.0648126392393,5.85082516507084,-0.4));
#1416=CARTESIAN_POINT('Ctrl Pts',(-15.2631911253843,5.89856631251248,0.));
#1417=CARTESIAN_POINT('Ctrl Pts',(-15.2631911253843,5.89856631251248,-0.4));
#1418=CARTESIAN_POINT('Ctrl Pts',(-15.4675467368026,5.89966452438521,0.));
#1419=CARTESIAN_POINT('Ctrl Pts',(-15.4675467368026,5.89966452438521,-0.4));
#1420=CARTESIAN_POINT('Ctrl Pts',(-15.5876318827139,5.90030986478992,0.));
#1421=CARTESIAN_POINT('Ctrl Pts',(-15.5876318827139,5.90030986478992,-0.4));
#1422=CARTESIAN_POINT('',(-14.9830069708851,5.83113806819682,-0.4));
#1423=CARTESIAN_POINT('',(-14.9830069708851,5.83113806819682,0.));
#1424=CARTESIAN_POINT('Ctrl Pts',(-14.9830069708851,5.83113806819682,-0.4));
#1425=CARTESIAN_POINT('Ctrl Pts',(-15.0648126392393,5.85082516507084,-0.4));
#1426=CARTESIAN_POINT('Ctrl Pts',(-15.2631911253843,5.89856631251248,-0.4));
#1427=CARTESIAN_POINT('Ctrl Pts',(-15.4675467368026,5.89966452438521,-0.4));
#1428=CARTESIAN_POINT('Ctrl Pts',(-15.5876318827139,5.90030986478992,-0.4));
#1429=CARTESIAN_POINT('Ctrl Pts',(-14.6226068845848,5.58220006390735,0.));
#1430=CARTESIAN_POINT('Ctrl Pts',(-14.6226068845848,5.58220006390735,-0.4));
#1431=CARTESIAN_POINT('Ctrl Pts',(-14.6782001398671,5.63718906394071,0.));
#1432=CARTESIAN_POINT('Ctrl Pts',(-14.6782001398671,5.63718906394071,-0.4));
#1433=CARTESIAN_POINT('Ctrl Pts',(-14.7837433144072,5.74158506663635,0.));
#1434=CARTESIAN_POINT('Ctrl Pts',(-14.7837433144072,5.74158506663635,-0.4));
#1435=CARTESIAN_POINT('Ctrl Pts',(-14.9189963881063,5.80237045487082,0.));
#1436=CARTESIAN_POINT('Ctrl Pts',(-14.9189963881063,5.80237045487082,-0.4));
#1437=CARTESIAN_POINT('Ctrl Pts',(-14.9830069708851,5.83113806819682,0.));
#1438=CARTESIAN_POINT('Ctrl Pts',(-14.9830069708851,5.83113806819682,-0.4));
#1439=CARTESIAN_POINT('',(-14.6226068845848,5.58220006390735,-0.4));
#1440=CARTESIAN_POINT('',(-14.6226068845848,5.58220006390735,0.));
#1441=CARTESIAN_POINT('Ctrl Pts',(-14.6226068845848,5.58220006390735,-0.4));
#1442=CARTESIAN_POINT('Ctrl Pts',(-14.6782001398671,5.63718906394071,-0.4));
#1443=CARTESIAN_POINT('Ctrl Pts',(-14.7837433144072,5.74158506663635,-0.4));
#1444=CARTESIAN_POINT('Ctrl Pts',(-14.9189963881063,5.80237045487082,-0.4));
#1445=CARTESIAN_POINT('Ctrl Pts',(-14.9830069708851,5.83113806819682,-0.4));
#1446=CARTESIAN_POINT('Ctrl Pts',(-13.9924897342131,4.70508211444599,0.));
#1447=CARTESIAN_POINT('Ctrl Pts',(-13.9924897342131,4.70508211444599,-0.4));
#1448=CARTESIAN_POINT('Ctrl Pts',(-14.1179325153597,4.8969157588529,0.));
#1449=CARTESIAN_POINT('Ctrl Pts',(-14.1179325153597,4.8969157588529,-0.4));
#1450=CARTESIAN_POINT('Ctrl Pts',(-14.3152204646178,5.19861878199873,0.));
#1451=CARTESIAN_POINT('Ctrl Pts',(-14.3152204646178,5.19861878199873,-0.4));
#1452=CARTESIAN_POINT('Ctrl Pts',(-14.5405499856287,5.47980292321914,0.));
#1453=CARTESIAN_POINT('Ctrl Pts',(-14.5405499856287,5.47980292321914,-0.4));
#1454=CARTESIAN_POINT('Ctrl Pts',(-14.6226068845848,5.58220006390735,0.));
#1455=CARTESIAN_POINT('Ctrl Pts',(-14.6226068845848,5.58220006390735,-0.4));
#1456=CARTESIAN_POINT('',(-13.9924897342131,4.70508211444599,-0.4));
#1457=CARTESIAN_POINT('',(-13.9924897342131,4.70508211444599,0.));
#1458=CARTESIAN_POINT('Ctrl Pts',(-13.9924897342131,4.70508211444599,-0.4));
#1459=CARTESIAN_POINT('Ctrl Pts',(-14.1179325153597,4.8969157588529,-0.4));
#1460=CARTESIAN_POINT('Ctrl Pts',(-14.3152204646178,5.19861878199873,-0.4));
#1461=CARTESIAN_POINT('Ctrl Pts',(-14.5405499856287,5.47980292321914,-0.4));
#1462=CARTESIAN_POINT('Ctrl Pts',(-14.6226068845848,5.58220006390735,-0.4));
#1463=CARTESIAN_POINT('Origin',(-13.1284419303588,3.40695245935138,0.));
#1464=CARTESIAN_POINT('',(-13.1284419303588,3.40695245935138,-0.4));
#1465=CARTESIAN_POINT('',(-13.1284419303588,3.40695245935138,0.));
#1466=CARTESIAN_POINT('',(-13.1284419303588,3.40695245935138,-0.4));
#1467=CARTESIAN_POINT('Origin',(-11.6913741229564,3.40175001771312,0.));
#1468=CARTESIAN_POINT('',(-11.6913741229564,3.40175001771312,-0.4));
#1469=CARTESIAN_POINT('',(-11.6913741229564,3.40175001771312,0.));
#1470=CARTESIAN_POINT('',(-11.6913741229564,3.40175001771312,-0.4));
#1471=CARTESIAN_POINT('Origin',(-12.4138237698157,4.56540116897722,0.));
#1472=CARTESIAN_POINT('',(-12.4138237698157,4.56540116897722,-0.4));
#1473=CARTESIAN_POINT('',(-12.4138237698157,4.56540116897722,0.));
#1474=CARTESIAN_POINT('',(-12.4138237698157,4.56540116897722,-0.4));
#1475=CARTESIAN_POINT('Ctrl Pts',(-13.0943543372804,5.53404216832301,0.));
#1476=CARTESIAN_POINT('Ctrl Pts',(-13.0943543372804,5.53404216832301,-0.4));
#1477=CARTESIAN_POINT('Ctrl Pts',(-12.9932095889902,5.40949040901798,0.));
#1478=CARTESIAN_POINT('Ctrl Pts',(-12.9932095889902,5.40949040901798,-0.4));
#1479=CARTESIAN_POINT('Ctrl Pts',(-12.7439957360002,5.10260325612292,0.));
#1480=CARTESIAN_POINT('Ctrl Pts',(-12.7439957360002,5.10260325612292,-0.4));
#1481=CARTESIAN_POINT('Ctrl Pts',(-12.5368803129763,4.765618748279,0.));
#1482=CARTESIAN_POINT('Ctrl Pts',(-12.5368803129763,4.765618748279,-0.4));
#1483=CARTESIAN_POINT('Ctrl Pts',(-12.4138237698157,4.56540116897722,0.));
#1484=CARTESIAN_POINT('Ctrl Pts',(-12.4138237698157,4.56540116897722,-0.4));
#1485=CARTESIAN_POINT('',(-13.0943543372804,5.53404216832301,-0.4));
#1486=CARTESIAN_POINT('',(-13.0943543372804,5.53404216832301,0.));
#1487=CARTESIAN_POINT('Ctrl Pts',(-13.0943543372804,5.53404216832301,-0.4));
#1488=CARTESIAN_POINT('Ctrl Pts',(-12.9932095889902,5.40949040901798,-0.4));
#1489=CARTESIAN_POINT('Ctrl Pts',(-12.7439957360002,5.10260325612292,-0.4));
#1490=CARTESIAN_POINT('Ctrl Pts',(-12.5368803129763,4.765618748279,-0.4));
#1491=CARTESIAN_POINT('Ctrl Pts',(-12.4138237698157,4.56540116897722,-0.4));
#1492=CARTESIAN_POINT('Ctrl Pts',(-13.7359797001803,6.03569154696008,0.));
#1493=CARTESIAN_POINT('Ctrl Pts',(-13.7359797001803,6.03569154696008,-0.4));
#1494=CARTESIAN_POINT('Ctrl Pts',(-13.6143223743151,5.96004663227764,0.));
#1495=CARTESIAN_POINT('Ctrl Pts',(-13.6143223743151,5.96004663227764,-0.4));
#1496=CARTESIAN_POINT('Ctrl Pts',(-13.3823491164613,5.81580873148396,0.));
#1497=CARTESIAN_POINT('Ctrl Pts',(-13.3823491164613,5.81580873148396,-0.4));
#1498=CARTESIAN_POINT('Ctrl Pts',(-13.1871717951962,5.62485234270407,0.));
#1499=CARTESIAN_POINT('Ctrl Pts',(-13.1871717951962,5.62485234270407,-0.4));
#1500=CARTESIAN_POINT('Ctrl Pts',(-13.0943543372804,5.53404216832301,0.));
#1501=CARTESIAN_POINT('Ctrl Pts',(-13.0943543372804,5.53404216832301,-0.4));
#1502=CARTESIAN_POINT('',(-13.7359797001803,6.03569154696008,-0.4));
#1503=CARTESIAN_POINT('',(-13.7359797001803,6.03569154696008,0.));
#1504=CARTESIAN_POINT('Ctrl Pts',(-13.7359797001803,6.03569154696008,-0.4));
#1505=CARTESIAN_POINT('Ctrl Pts',(-13.6143223743151,5.96004663227764,-0.4));
#1506=CARTESIAN_POINT('Ctrl Pts',(-13.3823491164613,5.81580873148396,-0.4));
#1507=CARTESIAN_POINT('Ctrl Pts',(-13.1871717951962,5.62485234270407,-0.4));
#1508=CARTESIAN_POINT('Ctrl Pts',(-13.0943543372804,5.53404216832301,-0.4));
#1509=CARTESIAN_POINT('Ctrl Pts',(-12.5567292493002,6.58149347938074,0.));
#1510=CARTESIAN_POINT('Ctrl Pts',(-12.5567292493002,6.58149347938074,-0.4));
#1511=CARTESIAN_POINT('Ctrl Pts',(-12.7138737793242,6.44890286597119,0.));
#1512=CARTESIAN_POINT('Ctrl Pts',(-12.7138737793242,6.44890286597119,-0.4));
#1513=CARTESIAN_POINT('Ctrl Pts',(-13.0557788953022,6.1604206066876,0.));
#1514=CARTESIAN_POINT('Ctrl Pts',(-13.0557788953022,6.1604206066876,-0.4));
#1515=CARTESIAN_POINT('Ctrl Pts',(-13.4973571758453,6.07944798311343,0.));
#1516=CARTESIAN_POINT('Ctrl Pts',(-13.4973571758453,6.07944798311343,-0.4));
#1517=CARTESIAN_POINT('Ctrl Pts',(-13.7359797001803,6.03569154696008,0.));
#1518=CARTESIAN_POINT('Ctrl Pts',(-13.7359797001803,6.03569154696008,-0.4));
#1519=CARTESIAN_POINT('',(-12.5567292493002,6.58149347938074,-0.4));
#1520=CARTESIAN_POINT('',(-12.5567292493002,6.58149347938074,0.));
#1521=CARTESIAN_POINT('Ctrl Pts',(-12.5567292493002,6.58149347938074,-0.4));
#1522=CARTESIAN_POINT('Ctrl Pts',(-12.7138737793242,6.44890286597119,-0.4));
#1523=CARTESIAN_POINT('Ctrl Pts',(-13.0557788953022,6.1604206066876,-0.4));
#1524=CARTESIAN_POINT('Ctrl Pts',(-13.4973571758453,6.07944798311343,-0.4));
#1525=CARTESIAN_POINT('Ctrl Pts',(-13.7359797001803,6.03569154696008,-0.4));
#1526=CARTESIAN_POINT('Ctrl Pts',(-12.1589520199344,7.68628535990198,0.));
#1527=CARTESIAN_POINT('Ctrl Pts',(-12.1589520199344,7.68628535990198,-0.4));
#1528=CARTESIAN_POINT('Ctrl Pts',(-12.1736205798988,7.47563601024323,0.));
#1529=CARTESIAN_POINT('Ctrl Pts',(-12.1736205798988,7.47563601024323,-0.4));
#1530=CARTESIAN_POINT('Ctrl Pts',(-12.2019358934043,7.06901106615803,0.));
#1531=CARTESIAN_POINT('Ctrl Pts',(-12.2019358934043,7.06901106615803,-0.4));
#1532=CARTESIAN_POINT('Ctrl Pts',(-12.4413446215467,6.7400422073623,0.));
#1533=CARTESIAN_POINT('Ctrl Pts',(-12.4413446215467,6.7400422073623,-0.4));
#1534=CARTESIAN_POINT('Ctrl Pts',(-12.5567292493002,6.58149347938074,0.));
#1535=CARTESIAN_POINT('Ctrl Pts',(-12.5567292493002,6.58149347938074,-0.4));
#1536=CARTESIAN_POINT('',(-12.1589520199344,7.68628535990198,-0.4));
#1537=CARTESIAN_POINT('',(-12.1589520199344,7.68628535990198,0.));
#1538=CARTESIAN_POINT('Ctrl Pts',(-12.1589520199344,7.68628535990198,-0.4));
#1539=CARTESIAN_POINT('Ctrl Pts',(-12.1736205798988,7.47563601024323,-0.4));
#1540=CARTESIAN_POINT('Ctrl Pts',(-12.2019358934043,7.06901106615803,-0.4));
#1541=CARTESIAN_POINT('Ctrl Pts',(-12.4413446215467,6.7400422073623,-0.4));
#1542=CARTESIAN_POINT('Ctrl Pts',(-12.5567292493002,6.58149347938074,-0.4));
#1543=CARTESIAN_POINT('Ctrl Pts',(-12.4153655945037,8.62497338544868,0.));
#1544=CARTESIAN_POINT('Ctrl Pts',(-12.4153655945037,8.62497338544868,-0.4));
#1545=CARTESIAN_POINT('Ctrl Pts',(-12.3401178041366,8.48125217039315,0.));
#1546=CARTESIAN_POINT('Ctrl Pts',(-12.3401178041366,8.48125217039315,-0.4));
#1547=CARTESIAN_POINT('Ctrl Pts',(-12.1862074988143,8.18728771000718,0.));
#1548=CARTESIAN_POINT('Ctrl Pts',(-12.1862074988143,8.18728771000718,-0.4));
#1549=CARTESIAN_POINT('Ctrl Pts',(-12.1681705714076,7.85573811371359,0.));
#1550=CARTESIAN_POINT('Ctrl Pts',(-12.1681705714076,7.85573811371359,-0.4));
#1551=CARTESIAN_POINT('Ctrl Pts',(-12.1589520199344,7.68628535990198,0.));
#1552=CARTESIAN_POINT('Ctrl Pts',(-12.1589520199344,7.68628535990198,-0.4));
#1553=CARTESIAN_POINT('',(-12.4153655945037,8.62497338544868,-0.4));
#1554=CARTESIAN_POINT('',(-12.4153655945037,8.62497338544868,0.));
#1555=CARTESIAN_POINT('Ctrl Pts',(-12.4153655945037,8.62497338544868,-0.4));
#1556=CARTESIAN_POINT('Ctrl Pts',(-12.3401178041366,8.48125217039315,-0.4));
#1557=CARTESIAN_POINT('Ctrl Pts',(-12.1862074988143,8.18728771000718,-0.4));
#1558=CARTESIAN_POINT('Ctrl Pts',(-12.1681705714076,7.85573811371359,-0.4));
#1559=CARTESIAN_POINT('Ctrl Pts',(-12.1589520199344,7.68628535990198,-0.4));
#1560=CARTESIAN_POINT('Ctrl Pts',(-13.1054483296109,9.19784113202468,0.));
#1561=CARTESIAN_POINT('Ctrl Pts',(-13.1054483296109,9.19784113202468,-0.4));
#1562=CARTESIAN_POINT('Ctrl Pts',(-12.9681765788187,9.13256336688472,0.));
#1563=CARTESIAN_POINT('Ctrl Pts',(-12.9681765788187,9.13256336688472,-0.4));
#1564=CARTESIAN_POINT('Ctrl Pts',(-12.6897658690683,9.00016883692021,0.));
#1565=CARTESIAN_POINT('Ctrl Pts',(-12.6897658690683,9.00016883692021,-0.4));
#1566=CARTESIAN_POINT('Ctrl Pts',(-12.5076754495182,8.75119132667492,0.));
#1567=CARTESIAN_POINT('Ctrl Pts',(-12.5076754495182,8.75119132667492,-0.4));
#1568=CARTESIAN_POINT('Ctrl Pts',(-12.4153655945037,8.62497338544868,0.));
#1569=CARTESIAN_POINT('Ctrl Pts',(-12.4153655945037,8.62497338544868,-0.4));
#1570=CARTESIAN_POINT('',(-13.1054483296109,9.19784113202468,-0.4));
#1571=CARTESIAN_POINT('',(-13.1054483296109,9.19784113202468,0.));
#1572=CARTESIAN_POINT('Ctrl Pts',(-13.1054483296109,9.19784113202468,-0.4));
#1573=CARTESIAN_POINT('Ctrl Pts',(-12.9681765788187,9.13256336688472,-0.4));
#1574=CARTESIAN_POINT('Ctrl Pts',(-12.6897658690683,9.00016883692021,-0.4));
#1575=CARTESIAN_POINT('Ctrl Pts',(-12.5076754495182,8.75119132667492,-0.4));
#1576=CARTESIAN_POINT('Ctrl Pts',(-12.4153655945037,8.62497338544868,-0.4));
#1577=CARTESIAN_POINT('Ctrl Pts',(-14.491191558368,9.36321021590043,0.));
#1578=CARTESIAN_POINT('Ctrl Pts',(-14.491191558368,9.36321021590043,-0.4));
#1579=CARTESIAN_POINT('Ctrl Pts',(-14.2149767463002,9.36182767210644,0.));
#1580=CARTESIAN_POINT('Ctrl Pts',(-14.2149767463002,9.36182767210644,-0.4));
#1581=CARTESIAN_POINT('Ctrl Pts',(-13.7459903335049,9.35948024457486,0.));
#1582=CARTESIAN_POINT('Ctrl Pts',(-13.7459903335049,9.35948024457486,-0.4));
#1583=CARTESIAN_POINT('Ctrl Pts',(-13.2920396589196,9.24492696979278,0.));
#1584=CARTESIAN_POINT('Ctrl Pts',(-13.2920396589196,9.24492696979278,-0.4));
#1585=CARTESIAN_POINT('Ctrl Pts',(-13.1054483296109,9.19784113202468,0.));
#1586=CARTESIAN_POINT('Ctrl Pts',(-13.1054483296109,9.19784113202468,-0.4));
#1587=CARTESIAN_POINT('',(-14.491191558368,9.36321021590043,-0.4));
#1588=CARTESIAN_POINT('',(-14.491191558368,9.36321021590043,0.));
#1589=CARTESIAN_POINT('Ctrl Pts',(-14.491191558368,9.36321021590043,-0.4));
#1590=CARTESIAN_POINT('Ctrl Pts',(-14.2149767463002,9.36182767210644,-0.4));
#1591=CARTESIAN_POINT('Ctrl Pts',(-13.7459903335049,9.35948024457486,-0.4));
#1592=CARTESIAN_POINT('Ctrl Pts',(-13.2920396589196,9.24492696979278,-0.4));
#1593=CARTESIAN_POINT('Ctrl Pts',(-13.1054483296109,9.19784113202468,-0.4));
#1594=CARTESIAN_POINT('Origin',(-17.0202681991536,9.37236592417989,0.));
#1595=CARTESIAN_POINT('',(-17.0202681991536,9.37236592417989,-0.4));
#1596=CARTESIAN_POINT('',(-17.0202681991536,9.37236592417989,0.));
#1597=CARTESIAN_POINT('',(-17.0202681991536,9.37236592417989,-0.4));
#1598=CARTESIAN_POINT('Origin',(-17.0418127718788,3.42111955940539,0.));
#1599=CARTESIAN_POINT('',(-17.0418127718788,3.42111955940539,-0.4));
#1600=CARTESIAN_POINT('',(-17.0418127718788,3.42111955940539,0.));
#1601=CARTESIAN_POINT('',(-17.0418127718788,3.42111955940539,-0.4));
#1602=CARTESIAN_POINT('Origin',(-15.8401967813848,3.4167694953166,0.));
#1603=CARTESIAN_POINT('',(-15.8401967813848,3.4167694953166,-0.4));
#1604=CARTESIAN_POINT('Origin',(-12.6954361988964,6.3810472410084,-0.4));
#1605=CARTESIAN_POINT('Origin',(-9.27462905558671,9.36868292741977,0.));
#1606=CARTESIAN_POINT('',(-9.27462905558671,9.36868292741977,-0.4));
#1607=CARTESIAN_POINT('',(-9.27462905558671,9.36868292741977,0.));
#1608=CARTESIAN_POINT('',(-8.34905962591392,9.36533220108992,-0.4));
#1609=CARTESIAN_POINT('',(-9.27462905558671,9.36868292741977,-0.4));
#1610=CARTESIAN_POINT('',(-8.34905962591392,9.36533220108992,0.));
#1611=CARTESIAN_POINT('Ctrl Pts',(-9.99660876135992,8.41932850965632,0.));
#1612=CARTESIAN_POINT('Ctrl Pts',(-9.99660876135992,8.41932850965632,-0.4));
#1613=CARTESIAN_POINT('Ctrl Pts',(-9.83657460818533,8.55683825536164,0.));
#1614=CARTESIAN_POINT('Ctrl Pts',(-9.83657460818533,8.55683825536164,-0.4));
#1615=CARTESIAN_POINT('Ctrl Pts',(-9.52785928107571,8.82210267101339,0.));
#1616=CARTESIAN_POINT('Ctrl Pts',(-9.52785928107571,8.82210267101339,-0.4));
#1617=CARTESIAN_POINT('Ctrl Pts',(-9.35694399921997,9.1910117078398,0.));
#1618=CARTESIAN_POINT('Ctrl Pts',(-9.35694399921997,9.1910117078398,-0.4));
#1619=CARTESIAN_POINT('Ctrl Pts',(-9.27462905558671,9.36868292741977,0.));
#1620=CARTESIAN_POINT('Ctrl Pts',(-9.27462905558671,9.36868292741977,-0.4));
#1621=CARTESIAN_POINT('',(-9.99660876135992,8.41932850965632,-0.4));
#1622=CARTESIAN_POINT('',(-9.99660876135992,8.41932850965632,0.));
#1623=CARTESIAN_POINT('Ctrl Pts',(-9.99660876135992,8.41932850965632,-0.4));
#1624=CARTESIAN_POINT('Ctrl Pts',(-9.83657460818533,8.55683825536164,-0.4));
#1625=CARTESIAN_POINT('Ctrl Pts',(-9.52785928107571,8.82210267101339,-0.4));
#1626=CARTESIAN_POINT('Ctrl Pts',(-9.35694399921997,9.1910117078398,-0.4));
#1627=CARTESIAN_POINT('Ctrl Pts',(-9.27462905558671,9.36868292741977,-0.4));
#1628=CARTESIAN_POINT('Ctrl Pts',(-10.9688385329992,7.86871712848961,0.));
#1629=CARTESIAN_POINT('Ctrl Pts',(-10.9688385329992,7.86871712848961,-0.4));
#1630=CARTESIAN_POINT('Ctrl Pts',(-10.8100910464259,7.93291094046331,0.));
#1631=CARTESIAN_POINT('Ctrl Pts',(-10.8100910464259,7.93291094046331,-0.4));
#1632=CARTESIAN_POINT('Ctrl Pts',(-10.4621695529083,8.07360234552799,0.));
#1633=CARTESIAN_POINT('Ctrl Pts',(-10.4621695529083,8.07360234552799,-0.4));
#1634=CARTESIAN_POINT('Ctrl Pts',(-10.160587048904,8.29755797961576,0.));
#1635=CARTESIAN_POINT('Ctrl Pts',(-10.160587048904,8.29755797961576,-0.4));
#1636=CARTESIAN_POINT('Ctrl Pts',(-9.99660876135992,8.41932850965632,0.));
#1637=CARTESIAN_POINT('Ctrl Pts',(-9.99660876135992,8.41932850965632,-0.4));
#1638=CARTESIAN_POINT('',(-10.9688385329992,7.86871712848961,-0.4));
#1639=CARTESIAN_POINT('',(-10.9688385329992,7.86871712848961,0.));
#1640=CARTESIAN_POINT('Ctrl Pts',(-10.9688385329992,7.86871712848961,-0.4));
#1641=CARTESIAN_POINT('Ctrl Pts',(-10.8100910464259,7.93291094046331,-0.4));
#1642=CARTESIAN_POINT('Ctrl Pts',(-10.4621695529083,8.07360234552799,-0.4));
#1643=CARTESIAN_POINT('Ctrl Pts',(-10.160587048904,8.29755797961576,-0.4));
#1644=CARTESIAN_POINT('Ctrl Pts',(-9.99660876135992,8.41932850965632,-0.4));
#1645=CARTESIAN_POINT('Origin',(-10.9725860546188,6.83354113774861,0.));
#1646=CARTESIAN_POINT('',(-10.9725860546188,6.83354113774861,-0.4));
#1647=CARTESIAN_POINT('',(-10.9725860546188,6.83354113774861,0.));
#1648=CARTESIAN_POINT('',(-10.9725860546188,6.83354113774861,-0.4));
#1649=CARTESIAN_POINT('Ctrl Pts',(-9.4958526434366,7.69288266520953,0.));
#1650=CARTESIAN_POINT('Ctrl Pts',(-9.4958526434366,7.69288266520953,-0.4));
#1651=CARTESIAN_POINT('Ctrl Pts',(-9.71574656942006,7.51100068227868,0.));
#1652=CARTESIAN_POINT('Ctrl Pts',(-9.71574656942006,7.51100068227868,-0.4));
#1653=CARTESIAN_POINT('Ctrl Pts',(-10.1604833530833,7.14314328133776,0.));
#1654=CARTESIAN_POINT('Ctrl Pts',(-10.1604833530833,7.14314328133776,-0.4));
#1655=CARTESIAN_POINT('Ctrl Pts',(-10.6998843760306,6.93750461932752,0.));
#1656=CARTESIAN_POINT('Ctrl Pts',(-10.6998843760306,6.93750461932752,-0.4));
#1657=CARTESIAN_POINT('Ctrl Pts',(-10.9725860546188,6.83354113774861,0.));
#1658=CARTESIAN_POINT('Ctrl Pts',(-10.9725860546188,6.83354113774861,-0.4));
#1659=CARTESIAN_POINT('',(-9.4958526434366,7.69288266520953,-0.4));
#1660=CARTESIAN_POINT('',(-9.4958526434366,7.69288266520953,0.));
#1661=CARTESIAN_POINT('Ctrl Pts',(-9.4958526434366,7.69288266520953,-0.4));
#1662=CARTESIAN_POINT('Ctrl Pts',(-9.71574656942006,7.51100068227868,-0.4));
#1663=CARTESIAN_POINT('Ctrl Pts',(-10.1604833530833,7.14314328133776,-0.4));
#1664=CARTESIAN_POINT('Ctrl Pts',(-10.6998843760306,6.93750461932752,-0.4));
#1665=CARTESIAN_POINT('Ctrl Pts',(-10.9725860546188,6.83354113774861,-0.4));
#1666=CARTESIAN_POINT('Origin',(-9.51141587842745,3.39385818026287,0.));
#1667=CARTESIAN_POINT('',(-9.51141587842745,3.39385818026287,-0.4));
#1668=CARTESIAN_POINT('',(-9.51141587842745,3.39385818026287,0.));
#1669=CARTESIAN_POINT('',(-9.51141587842745,3.39385818026287,-0.4));
#1670=CARTESIAN_POINT('Origin',(-8.37069237632922,3.38972855783692,0.));
#1671=CARTESIAN_POINT('',(-8.37069237632922,3.38972855783692,-0.4));
#1672=CARTESIAN_POINT('',(-8.37069237632922,3.38972855783692,0.));
#1673=CARTESIAN_POINT('',(-8.37069237632922,3.38972855783692,-0.4));
#1674=CARTESIAN_POINT('Origin',(-8.34905962591392,9.36533220108992,0.));
#1675=CARTESIAN_POINT('',(-8.34905962591392,9.36533220108992,-0.4));
#1676=CARTESIAN_POINT('Origin',(-12.6954361988964,6.3810472410084,-0.4));
#1677=CARTESIAN_POINT('Origin',(-34.,34.,0.));
#1678=CARTESIAN_POINT('',(-34.,35.,-2.));
#1679=CARTESIAN_POINT('',(-34.,35.,0.));
#1680=CARTESIAN_POINT('',(-35.,34.,-2.));
#1681=CARTESIAN_POINT('Origin',(-34.,34.,-2.));
#1682=CARTESIAN_POINT('',(-35.,34.,0.));
#1683=CARTESIAN_POINT('Origin',(-35.,0.,0.));
#1684=CARTESIAN_POINT('',(-35.,0.,-2.));
#1685=CARTESIAN_POINT('Origin',(-34.,35.,0.));
#1686=CARTESIAN_POINT('',(-34.,35.,-2.));
#1687=CARTESIAN_POINT('Origin',(-17.5,17.5,0.));
#1688=CARTESIAN_POINT('Origin',(-17.5,17.5,-2.));
#1689=UNCERTAINTY_MEASURE_WITH_UNIT(LENGTH_MEASURE(0.01),#1693,
'DISTANCE_ACCURACY_VALUE',
'Maximum model space distance between geometric entities at asserted c
onnectivities');
#1690=UNCERTAINTY_MEASURE_WITH_UNIT(LENGTH_MEASURE(0.01),#1693,
'DISTANCE_ACCURACY_VALUE',
'Maximum model space distance between geometric entities at asserted c
onnectivities');
#1691=(
GEOMETRIC_REPRESENTATION_CONTEXT(3)
GLOBAL_UNCERTAINTY_ASSIGNED_CONTEXT((#1689))
GLOBAL_UNIT_ASSIGNED_CONTEXT((#1693,#1695,#1696))
REPRESENTATION_CONTEXT('','3D')
);
#1692=(
GEOMETRIC_REPRESENTATION_CONTEXT(3)
GLOBAL_UNCERTAINTY_ASSIGNED_CONTEXT((#1690))
GLOBAL_UNIT_ASSIGNED_CONTEXT((#1693,#1695,#1696))
REPRESENTATION_CONTEXT('','3D')
);
#1693=(
LENGTH_UNIT()
NAMED_UNIT(*)
SI_UNIT(.MILLI.,.METRE.)
);
#1694=(
LENGTH_UNIT()
NAMED_UNIT(*)
SI_UNIT($,.METRE.)
);
#1695=(
NAMED_UNIT(*)
PLANE_ANGLE_UNIT()
SI_UNIT($,.RADIAN.)
);
#1696=(
NAMED_UNIT(*)
SI_UNIT($,.STERADIAN.)
SOLID_ANGLE_UNIT()
);
#1697=SHAPE_DEFINITION_REPRESENTATION(#1698,#1699);
#1698=PRODUCT_DEFINITION_SHAPE('',$,#1701);
#1699=SHAPE_REPRESENTATION('',(#917),#1691);
#1700=PRODUCT_DEFINITION_CONTEXT('part definition',#1705,'design');
#1701=PRODUCT_DEFINITION('Fillet Chips','Fillet Chips v3',#1702,#1700);
#1702=PRODUCT_DEFINITION_FORMATION('',$,#1707);
#1703=PRODUCT_RELATED_PRODUCT_CATEGORY('Fillet Chips v3',
'Fillet Chips v3',(#1707));
#1704=APPLICATION_PROTOCOL_DEFINITION('international standard',
'automotive_design',2009,#1705);
#1705=APPLICATION_CONTEXT(
'Core Data for Automotive Mechanical Design Process');
#1706=PRODUCT_CONTEXT('part definition',#1705,'mechanical');
#1707=PRODUCT('Fillet Chips','Fillet Chips v3',$,(#1706));
#1708=PRESENTATION_STYLE_ASSIGNMENT((#1709));
#1709=SURFACE_STYLE_USAGE(.BOTH.,#1710);
#1710=SURFACE_SIDE_STYLE('',(#1711));
#1711=SURFACE_STYLE_FILL_AREA(#1712);
#1712=FILL_AREA_STYLE('Steel - Satin',(#1713));
#1713=FILL_AREA_STYLE_COLOUR('Steel - Satin',#1714);
#1714=COLOUR_RGB('Steel - Satin',0.627450980392157,0.627450980392157,0.627450980392157);
ENDSEC;
END-ISO-10303-21;
