ISO-10303-21;
HEADER;
/* Generated by software containing ST-Developer
 * from STEP Tools, Inc. (www.steptools.com) 
 */
/* OPTION: using custom renumber hook */

FILE_DESCRIPTION(
/* description */ ('STEP AP242',
'CAx-IF Rec.Pracs.---Representation and Presentation of Product Manufa
cturing Information (PMI)---4.0---2014-10-13',
'CAx-IF Rec.Pracs.---3D Tessellated Geometry---0.4---2014-09-14','2;1'),

/* implementation_level */ '2;1');

FILE_NAME(
/* name */ '68fa6dc459a0d2a239e73667',
/* time_stamp */ '2025-10-23T18:02:45Z',
/* author */ (''),
/* organization */ (''),
/* preprocessor_version */ 'ST-DEVELOPER v20',
/* originating_system */ 'ONSHAPE BY PTC INC, 1.205',
/* authorisation */ '  ');

FILE_SCHEMA (('AP242_MANAGED_MODEL_BASED_3D_ENGINEERING_MIM_LF { 1 0 10303 442 1 1 4 }'));
ENDSEC;

DATA;
#10=SHAPE_REPRESENTATION_RELATIONSHIP('','',#191,#11);
#11=ADVANCED_BREP_SHAPE_REPRESENTATION('',(#189),#317);
#12=CIRCLE('',#195,0.0185714285714286);
#13=CIRCLE('',#196,0.0185714285714286);
#14=CIRCLE('',#199,0.001);
#15=CIRCLE('',#200,0.001);
#16=CIRCLE('',#203,0.0205714285714286);
#17=CIRCLE('',#204,0.0205714285714286);
#18=CIRCLE('',#207,0.001);
#19=CIRCLE('',#208,0.001);
#20=CYLINDRICAL_SURFACE('',#194,0.0185714285714286);
#21=CYLINDRICAL_SURFACE('',#198,0.001);
#22=CYLINDRICAL_SURFACE('',#202,0.0205714285714286);
#23=CYLINDRICAL_SURFACE('',#206,0.001);
#24=ORIENTED_EDGE('',*,*,#72,.T.);
#25=ORIENTED_EDGE('',*,*,#73,.F.);
#26=ORIENTED_EDGE('',*,*,#74,.F.);
#27=ORIENTED_EDGE('',*,*,#75,.T.);
#28=ORIENTED_EDGE('',*,*,#76,.F.);
#29=ORIENTED_EDGE('',*,*,#77,.F.);
#30=ORIENTED_EDGE('',*,*,#78,.T.);
#31=ORIENTED_EDGE('',*,*,#73,.T.);
#32=ORIENTED_EDGE('',*,*,#79,.F.);
#33=ORIENTED_EDGE('',*,*,#80,.F.);
#34=ORIENTED_EDGE('',*,*,#81,.T.);
#35=ORIENTED_EDGE('',*,*,#77,.T.);
#36=ORIENTED_EDGE('',*,*,#82,.F.);
#37=ORIENTED_EDGE('',*,*,#83,.F.);
#38=ORIENTED_EDGE('',*,*,#84,.T.);
#39=ORIENTED_EDGE('',*,*,#80,.T.);
#40=ORIENTED_EDGE('',*,*,#85,.T.);
#41=ORIENTED_EDGE('',*,*,#86,.F.);
#42=ORIENTED_EDGE('',*,*,#87,.F.);
#43=ORIENTED_EDGE('',*,*,#83,.T.);
#44=ORIENTED_EDGE('',*,*,#88,.T.);
#45=ORIENTED_EDGE('',*,*,#89,.F.);
#46=ORIENTED_EDGE('',*,*,#90,.F.);
#47=ORIENTED_EDGE('',*,*,#86,.T.);
#48=ORIENTED_EDGE('',*,*,#91,.F.);
#49=ORIENTED_EDGE('',*,*,#92,.F.);
#50=ORIENTED_EDGE('',*,*,#93,.T.);
#51=ORIENTED_EDGE('',*,*,#89,.T.);
#52=ORIENTED_EDGE('',*,*,#94,.F.);
#53=ORIENTED_EDGE('',*,*,#75,.F.);
#54=ORIENTED_EDGE('',*,*,#95,.T.);
#55=ORIENTED_EDGE('',*,*,#92,.T.);
#56=ORIENTED_EDGE('',*,*,#74,.T.);
#57=ORIENTED_EDGE('',*,*,#78,.F.);
#58=ORIENTED_EDGE('',*,*,#81,.F.);
#59=ORIENTED_EDGE('',*,*,#84,.F.);
#60=ORIENTED_EDGE('',*,*,#87,.T.);
#61=ORIENTED_EDGE('',*,*,#90,.T.);
#62=ORIENTED_EDGE('',*,*,#93,.F.);
#63=ORIENTED_EDGE('',*,*,#95,.F.);
#64=ORIENTED_EDGE('',*,*,#72,.F.);
#65=ORIENTED_EDGE('',*,*,#94,.T.);
#66=ORIENTED_EDGE('',*,*,#91,.T.);
#67=ORIENTED_EDGE('',*,*,#88,.F.);
#68=ORIENTED_EDGE('',*,*,#85,.F.);
#69=ORIENTED_EDGE('',*,*,#82,.T.);
#70=ORIENTED_EDGE('',*,*,#79,.T.);
#71=ORIENTED_EDGE('',*,*,#76,.T.);
#72=EDGE_CURVE('',#96,#97,#112,.T.);
#73=EDGE_CURVE('',#98,#97,#113,.T.);
#74=EDGE_CURVE('',#99,#98,#114,.T.);
#75=EDGE_CURVE('',#99,#96,#115,.T.);
#76=EDGE_CURVE('',#100,#97,#12,.T.);
#77=EDGE_CURVE('',#101,#100,#116,.T.);
#78=EDGE_CURVE('',#101,#98,#13,.T.);
#79=EDGE_CURVE('',#102,#100,#117,.T.);
#80=EDGE_CURVE('',#103,#102,#118,.T.);
#81=EDGE_CURVE('',#103,#101,#119,.T.);
#82=EDGE_CURVE('',#104,#102,#14,.T.);
#83=EDGE_CURVE('',#105,#104,#120,.T.);
#84=EDGE_CURVE('',#105,#103,#15,.T.);
#85=EDGE_CURVE('',#104,#106,#121,.T.);
#86=EDGE_CURVE('',#107,#106,#122,.T.);
#87=EDGE_CURVE('',#105,#107,#123,.T.);
#88=EDGE_CURVE('',#106,#108,#16,.T.);
#89=EDGE_CURVE('',#109,#108,#124,.T.);
#90=EDGE_CURVE('',#107,#109,#17,.T.);
#91=EDGE_CURVE('',#110,#108,#125,.T.);
#92=EDGE_CURVE('',#111,#110,#126,.T.);
#93=EDGE_CURVE('',#111,#109,#127,.T.);
#94=EDGE_CURVE('',#96,#110,#18,.T.);
#95=EDGE_CURVE('',#99,#111,#19,.T.);
#96=VERTEX_POINT('',#268);
#97=VERTEX_POINT('',#269);
#98=VERTEX_POINT('',#271);
#99=VERTEX_POINT('',#273);
#100=VERTEX_POINT('',#277);
#101=VERTEX_POINT('',#279);
#102=VERTEX_POINT('',#283);
#103=VERTEX_POINT('',#285);
#104=VERTEX_POINT('',#289);
#105=VERTEX_POINT('',#291);
#106=VERTEX_POINT('',#295);
#107=VERTEX_POINT('',#297);
#108=VERTEX_POINT('',#301);
#109=VERTEX_POINT('',#303);
#110=VERTEX_POINT('',#307);
#111=VERTEX_POINT('',#309);
#112=LINE('',#267,#128);
#113=LINE('',#270,#129);
#114=LINE('',#272,#130);
#115=LINE('',#274,#131);
#116=LINE('',#278,#132);
#117=LINE('',#282,#133);
#118=LINE('',#284,#134);
#119=LINE('',#286,#135);
#120=LINE('',#290,#136);
#121=LINE('',#294,#137);
#122=LINE('',#296,#138);
#123=LINE('',#298,#139);
#124=LINE('',#302,#140);
#125=LINE('',#306,#141);
#126=LINE('',#308,#142);
#127=LINE('',#310,#143);
#128=VECTOR('',#215,1.);
#129=VECTOR('',#216,1.);
#130=VECTOR('',#217,1.);
#131=VECTOR('',#218,1.);
#132=VECTOR('',#223,1.);
#133=VECTOR('',#228,1.);
#134=VECTOR('',#229,1.);
#135=VECTOR('',#230,1.);
#136=VECTOR('',#235,1.);
#137=VECTOR('',#240,1.);
#138=VECTOR('',#241,1.);
#139=VECTOR('',#242,1.);
#140=VECTOR('',#247,1.);
#141=VECTOR('',#252,1.);
#142=VECTOR('',#253,1.);
#143=VECTOR('',#254,1.);
#144=EDGE_LOOP('',(#24,#25,#26,#27));
#145=EDGE_LOOP('',(#28,#29,#30,#31));
#146=EDGE_LOOP('',(#32,#33,#34,#35));
#147=EDGE_LOOP('',(#36,#37,#38,#39));
#148=EDGE_LOOP('',(#40,#41,#42,#43));
#149=EDGE_LOOP('',(#44,#45,#46,#47));
#150=EDGE_LOOP('',(#48,#49,#50,#51));
#151=EDGE_LOOP('',(#52,#53,#54,#55));
#152=EDGE_LOOP('',(#56,#57,#58,#59,#60,#61,#62,#63));
#153=EDGE_LOOP('',(#64,#65,#66,#67,#68,#69,#70,#71));
#154=FACE_BOUND('',#144,.T.);
#155=FACE_BOUND('',#145,.T.);
#156=FACE_BOUND('',#146,.T.);
#157=FACE_BOUND('',#147,.T.);
#158=FACE_BOUND('',#148,.T.);
#159=FACE_BOUND('',#149,.T.);
#160=FACE_BOUND('',#150,.T.);
#161=FACE_BOUND('',#151,.T.);
#162=FACE_BOUND('',#152,.T.);
#163=FACE_BOUND('',#153,.T.);
#164=PLANE('',#193);
#165=PLANE('',#197);
#166=PLANE('',#201);
#167=PLANE('',#205);
#168=PLANE('',#209);
#169=PLANE('',#210);
#170=ADVANCED_FACE('',(#154),#164,.F.);
#171=ADVANCED_FACE('',(#155),#20,.F.);
#172=ADVANCED_FACE('',(#156),#165,.T.);
#173=ADVANCED_FACE('',(#157),#21,.T.);
#174=ADVANCED_FACE('',(#158),#166,.F.);
#175=ADVANCED_FACE('',(#159),#22,.T.);
#176=ADVANCED_FACE('',(#160),#167,.T.);
#177=ADVANCED_FACE('',(#161),#23,.T.);
#178=ADVANCED_FACE('',(#162),#168,.T.);
#179=ADVANCED_FACE('',(#163),#169,.F.);
#180=CLOSED_SHELL('',(#170,#171,#172,#173,#174,#175,#176,#177,#178,#179));
#181=STYLED_ITEM('',(#182),#189);
#182=PRESENTATION_STYLE_ASSIGNMENT((#183));
#183=SURFACE_STYLE_USAGE(.BOTH.,#184);
#184=SURFACE_SIDE_STYLE('',(#185));
#185=SURFACE_STYLE_FILL_AREA(#186);
#186=FILL_AREA_STYLE('',(#187));
#187=FILL_AREA_STYLE_COLOUR('',#188);
#188=COLOUR_RGB('',0.615686274509804,0.811764705882353,0.929411764705882);
#189=MANIFOLD_SOLID_BREP('Part 1',#180);
#190=SHAPE_DEFINITION_REPRESENTATION(#322,#191);
#191=SHAPE_REPRESENTATION('Part 1',(#192),#317);
#192=AXIS2_PLACEMENT_3D('',#265,#211,#212);
#193=AXIS2_PLACEMENT_3D('',#266,#213,#214);
#194=AXIS2_PLACEMENT_3D('',#275,#219,#220);
#195=AXIS2_PLACEMENT_3D('',#276,#221,#222);
#196=AXIS2_PLACEMENT_3D('',#280,#224,#225);
#197=AXIS2_PLACEMENT_3D('',#281,#226,#227);
#198=AXIS2_PLACEMENT_3D('',#287,#231,#232);
#199=AXIS2_PLACEMENT_3D('',#288,#233,#234);
#200=AXIS2_PLACEMENT_3D('',#292,#236,#237);
#201=AXIS2_PLACEMENT_3D('',#293,#238,#239);
#202=AXIS2_PLACEMENT_3D('',#299,#243,#244);
#203=AXIS2_PLACEMENT_3D('',#300,#245,#246);
#204=AXIS2_PLACEMENT_3D('',#304,#248,#249);
#205=AXIS2_PLACEMENT_3D('',#305,#250,#251);
#206=AXIS2_PLACEMENT_3D('',#311,#255,#256);
#207=AXIS2_PLACEMENT_3D('',#312,#257,#258);
#208=AXIS2_PLACEMENT_3D('',#313,#259,#260);
#209=AXIS2_PLACEMENT_3D('',#314,#261,#262);
#210=AXIS2_PLACEMENT_3D('',#315,#263,#264);
#211=DIRECTION('',(0.,0.,1.));
#212=DIRECTION('',(1.,0.,0.));
#213=DIRECTION('',(-0.716197009397067,0.,-0.697898161432381));
#214=DIRECTION('',(-0.697898161432381,0.,0.716197009397067));
#215=DIRECTION('',(0.697898161432381,0.,-0.716197009397067));
#216=DIRECTION('',(0.,-1.,0.));
#217=DIRECTION('',(0.697898161432381,0.,-0.716197009397067));
#218=DIRECTION('',(0.,-1.,0.));
#219=DIRECTION('',(0.,-1.,0.));
#220=DIRECTION('',(-1.,0.,0.));
#221=DIRECTION('',(0.,1.,0.));
#222=DIRECTION('',(1.,0.,0.));
#223=DIRECTION('',(0.,-1.,0.));
#224=DIRECTION('',(0.,1.,0.));
#225=DIRECTION('',(1.,0.,0.));
#226=DIRECTION('',(-0.716197009397068,0.,0.697898161432381));
#227=DIRECTION('',(0.697898161432381,0.,0.716197009397067));
#228=DIRECTION('',(-0.697898161432381,0.,-0.716197009397067));
#229=DIRECTION('',(0.,-1.,0.));
#230=DIRECTION('',(-0.697898161432381,0.,-0.716197009397067));
#231=DIRECTION('',(0.,-1.,0.));
#232=DIRECTION('',(-1.,0.,0.));
#233=DIRECTION('',(0.,-1.,0.));
#234=DIRECTION('',(1.,0.,0.));
#235=DIRECTION('',(0.,-1.,0.));
#236=DIRECTION('',(0.,-1.,0.));
#237=DIRECTION('',(1.,0.,0.));
#238=DIRECTION('',(-0.716197009397067,0.,0.697898161432381));
#239=DIRECTION('',(0.697898161432381,0.,0.716197009397067));
#240=DIRECTION('',(-0.697898161432381,0.,-0.716197009397067));
#241=DIRECTION('',(0.,-1.,0.));
#242=DIRECTION('',(-0.697898161432381,0.,-0.716197009397067));
#243=DIRECTION('',(0.,-1.,0.));
#244=DIRECTION('',(-1.,0.,0.));
#245=DIRECTION('',(0.,1.,0.));
#246=DIRECTION('',(1.,0.,0.));
#247=DIRECTION('',(0.,-1.,0.));
#248=DIRECTION('',(0.,1.,0.));
#249=DIRECTION('',(1.,0.,0.));
#250=DIRECTION('',(-0.716197009397067,0.,-0.697898161432381));
#251=DIRECTION('',(-0.697898161432381,0.,0.716197009397067));
#252=DIRECTION('',(0.697898161432381,0.,-0.716197009397067));
#253=DIRECTION('',(0.,-1.,0.));
#254=DIRECTION('',(0.697898161432381,0.,-0.716197009397067));
#255=DIRECTION('',(0.,-1.,0.));
#256=DIRECTION('',(-1.,0.,0.));
#257=DIRECTION('',(0.,-1.,0.));
#258=DIRECTION('',(1.,0.,0.));
#259=DIRECTION('',(0.,-1.,0.));
#260=DIRECTION('',(1.,0.,0.));
#261=DIRECTION('',(0.,1.,0.));
#262=DIRECTION('',(1.,0.,0.));
#263=DIRECTION('',(0.,1.,0.));
#264=DIRECTION('',(1.,0.,0.));
#265=CARTESIAN_POINT('',(0.,0.,0.));
#266=CARTESIAN_POINT('',(-0.0139259871983864,0.004,0.000252040640392402));
#267=CARTESIAN_POINT('',(-0.0139259871983864,0.,0.000252040640392402));
#268=CARTESIAN_POINT('',(-0.017283802990603,0.,0.00369789816143238));
#269=CARTESIAN_POINT('',(-0.0133008016030884,0.,-0.000389537283744223));
#270=CARTESIAN_POINT('',(-0.0133008016030884,0.004,-0.000389537283744223));
#271=CARTESIAN_POINT('',(-0.0133008016030884,0.004,-0.000389537283744223));
#272=CARTESIAN_POINT('',(-0.0139259871983864,0.004,0.000252040640392402));
#273=CARTESIAN_POINT('',(-0.017283802990603,0.004,0.00369789816143238));
#274=CARTESIAN_POINT('',(-0.017283802990603,0.004,0.00369789816143238));
#275=CARTESIAN_POINT('',(2.60208521396521E-18,0.004,0.0125714285714286));
#276=CARTESIAN_POINT('',(2.60208521396521E-18,0.,0.0125714285714286));
#277=CARTESIAN_POINT('',(0.0133008016030884,0.,-0.000389537283744227));
#278=CARTESIAN_POINT('',(0.0133008016030884,0.004,-0.000389537283744227));
#279=CARTESIAN_POINT('',(0.0133008016030884,0.004,-0.000389537283744227));
#280=CARTESIAN_POINT('',(2.60208521396521E-18,0.004,0.0125714285714286));
#281=CARTESIAN_POINT('',(0.0139259871983864,0.004,0.000252040640392401));
#282=CARTESIAN_POINT('',(0.0139259871983864,0.,0.000252040640392401));
#283=CARTESIAN_POINT('',(0.017283802990603,0.,0.00369789816143238));
#284=CARTESIAN_POINT('',(0.017283802990603,0.004,0.00369789816143238));
#285=CARTESIAN_POINT('',(0.017283802990603,0.004,0.00369789816143238));
#286=CARTESIAN_POINT('',(0.0139259871983864,0.004,0.000252040640392401));
#287=CARTESIAN_POINT('',(0.018,0.004,0.003));
#288=CARTESIAN_POINT('',(0.018,0.,0.003));
#289=CARTESIAN_POINT('',(0.0187161970093971,0.,0.00230210183856761));
#290=CARTESIAN_POINT('',(0.0187161970093971,0.004,0.00230210183856761));
#291=CARTESIAN_POINT('',(0.0187161970093971,0.004,0.00230210183856761));
#292=CARTESIAN_POINT('',(0.018,0.004,0.003));
#293=CARTESIAN_POINT('',(0.0167246963156398,0.004,0.000258384115979305));
#294=CARTESIAN_POINT('',(0.0167246963156398,0.,0.000258384115979305));
#295=CARTESIAN_POINT('',(0.0147331956218825,0.,-0.001785333606609));
#296=CARTESIAN_POINT('',(0.0147331956218825,0.004,-0.001785333606609));
#297=CARTESIAN_POINT('',(0.0147331956218825,0.004,-0.001785333606609));
#298=CARTESIAN_POINT('',(0.0167246963156398,0.004,0.000258384115979305));
#299=CARTESIAN_POINT('',(-1.7347234759768E-18,0.004,0.0125714285714286));
#300=CARTESIAN_POINT('',(-1.7347234759768E-18,0.,0.0125714285714286));
#301=CARTESIAN_POINT('',(-0.0147331956218825,0.,-0.00178533360660899));
#302=CARTESIAN_POINT('',(-0.0147331956218825,0.004,-0.00178533360660899));
#303=CARTESIAN_POINT('',(-0.0147331956218825,0.004,-0.00178533360660899));
#304=CARTESIAN_POINT('',(-1.7347234759768E-18,0.004,0.0125714285714286));
#305=CARTESIAN_POINT('',(-0.0167246963156398,0.004,0.000258384115979328));
#306=CARTESIAN_POINT('',(-0.0167246963156398,0.,0.000258384115979328));
#307=CARTESIAN_POINT('',(-0.0187161970093971,0.,0.00230210183856763));
#308=CARTESIAN_POINT('',(-0.0187161970093971,0.004,0.00230210183856763));
#309=CARTESIAN_POINT('',(-0.0187161970093971,0.004,0.00230210183856763));
#310=CARTESIAN_POINT('',(-0.0167246963156398,0.004,0.000258384115979328));
#311=CARTESIAN_POINT('',(-0.018,0.004,0.003));
#312=CARTESIAN_POINT('',(-0.018,0.,0.003));
#313=CARTESIAN_POINT('',(-0.018,0.004,0.003));
#314=CARTESIAN_POINT('',(0.,0.004,-0.0005));
#315=CARTESIAN_POINT('',(0.,0.,-0.0005));
#316=MECHANICAL_DESIGN_GEOMETRIC_PRESENTATION_REPRESENTATION('',(#181),
#317);
#317=(
GEOMETRIC_REPRESENTATION_CONTEXT(3)
GLOBAL_UNCERTAINTY_ASSIGNED_CONTEXT((#318))
GLOBAL_UNIT_ASSIGNED_CONTEXT((#321,#320,#319))
REPRESENTATION_CONTEXT('Part 1','TOP_LEVEL_ASSEMBLY_PART')
);
#318=UNCERTAINTY_MEASURE_WITH_UNIT(LENGTH_MEASURE(1.E-8),#321,
'DISTANCE_ACCURACY_VALUE','Maximum Tolerance applied to model');
#319=(
NAMED_UNIT(*)
SI_UNIT($,.STERADIAN.)
SOLID_ANGLE_UNIT()
);
#320=(
NAMED_UNIT(*)
PLANE_ANGLE_UNIT()
SI_UNIT($,.RADIAN.)
);
#321=(
LENGTH_UNIT()
NAMED_UNIT(*)
SI_UNIT($,.METRE.)
);
#322=PRODUCT_DEFINITION_SHAPE('','',#323);
#323=PRODUCT_DEFINITION('','',#325,#324);
#324=PRODUCT_DEFINITION_CONTEXT('',#331,'design');
#325=PRODUCT_DEFINITION_FORMATION_WITH_SPECIFIED_SOURCE('','',#327,
 .NOT_KNOWN.);
#326=PRODUCT_RELATED_PRODUCT_CATEGORY('','',(#327));
#327=PRODUCT('Part 1','Part 1','Part 1',(#329));
#328=PRODUCT_CATEGORY('','');
#329=PRODUCT_CONTEXT('',#331,'mechanical');
#330=APPLICATION_PROTOCOL_DEFINITION('international standard',
'ap242_managed_model_based_3d_engineering',2011,#331);
#331=APPLICATION_CONTEXT('managed model based 3d engineering');
ENDSEC;
END-ISO-10303-21;
