<?xml version="1.0" encoding="UTF-8" standalone="no"?>
<!-- Created with Inkscape (http://www.inkscape.org/) -->

<svg
   xmlns:dc="http://purl.org/dc/elements/1.1/"
   xmlns:cc="http://creativecommons.org/ns#"
   xmlns:rdf="http://www.w3.org/1999/02/22-rdf-syntax-ns#"
   xmlns:svg="http://www.w3.org/2000/svg"
   xmlns="http://www.w3.org/2000/svg"
   xmlns:sodipodi="http://sodipodi.sourceforge.net/DTD/sodipodi-0.dtd"
   xmlns:inkscape="http://www.inkscape.org/namespaces/inkscape"
   width="2125.9841"
   height="1062.9921"
   id="svg2"
   version="1.1"
   inkscape:version="0.48.5 r10040"
   sodipodi:docname="New document 2">
  <defs
     id="defs4" />
  <sodipodi:namedview
     id="base"
     pagecolor="#ffffff"
     bordercolor="#666666"
     borderopacity="1.0"
     inkscape:pageopacity="0.0"
     inkscape:pageshadow="2"
     inkscape:zoom="0.49497475"
     inkscape:cx="1077.005"
     inkscape:cy="479.20804"
     inkscape:document-units="mm"
     inkscape:current-layer="layer1"
     showgrid="false"
     units="mm"
     inkscape:window-width="1920"
     inkscape:window-height="1018"
     inkscape:window-x="-8"
     inkscape:window-y="-8"
     inkscape:window-maximized="1" />
  <metadata
     id="metadata7">
    <rdf:RDF>
      <cc:Work
         rdf:about="">
        <dc:format>image/svg+xml</dc:format>
        <dc:type
           rdf:resource="http://purl.org/dc/dcmitype/StillImage" />
        <dc:title></dc:title>
      </cc:Work>
    </rdf:RDF>
  </metadata>
  <g
     inkscape:label="Layer 1"
     inkscape:groupmode="layer"
     id="layer1"
     transform="translate(0,10.629915)">
    <g
       id="g10305">
      <rect
         transform="matrix(0,-1,-1,0,0,0)"
         ry="10.629921"
         rx="10.629921"
         y="-198.71704"
         x="-1034.3538"
         height="177.16536"
         width="60.236221"
         id="rect4075"
         style="fill:none;stroke:#ff0000;stroke-width:0.35433072;stroke-miterlimit:9.29090881;stroke-opacity:1;stroke-dasharray:none" />
      <rect
         transform="scale(1,-1)"
         ry="10.629921"
         rx="10.629921"
         y="-963.48761"
         x="21.55167"
         height="35.433071"
         width="70.866142"
         id="rect4077"
         style="fill:none;stroke:#ff0000;stroke-width:0.35433072;stroke-miterlimit:9.29090881;stroke-opacity:1;stroke-dasharray:none" />
      <rect
         transform="matrix(0,-1,-1,0,0,0)"
         style="fill:none;stroke:#ff0000;stroke-width:0.35433072;stroke-miterlimit:9.29090881;stroke-opacity:1;stroke-dasharray:none"
         id="rect4087"
         width="60.236221"
         height="60.236221"
         x="-1034.3538"
         y="-269.58325"
         rx="10.629921"
         ry="10.629921" />
      <rect
         transform="matrix(0,-1,-1,0,0,0)"
         ry="10.629921"
         rx="10.629921"
         y="-327.73056"
         x="-1034.318"
         height="47.48175"
         width="47.48175"
         id="rect4089"
         style="fill:none;stroke:#ff0000;stroke-width:0.35433072;stroke-miterlimit:9.29090881;stroke-opacity:1;stroke-dasharray:none" />
      <path
         id="path3793"
         style="fill:none;stroke:#ff0000;stroke-width:0.35433072;stroke-linecap:butt;stroke-linejoin:miter;stroke-miterlimit:9.29090881;stroke-opacity:1;stroke-dasharray:none"
         d="m 875.72891,957.28331 0,-47.185 m 10.63,47.185 -10.63,0 m 10.63,47.71649 0,-47.71649 m 0,47.71649 -10.63,0 m 0,47.1851 0,-47.1851 M 0.177165,957.63769 l 0,-47.53939 m 10.629999,47.53939 -10.629999,0 m 10.629999,47.00781 0,-47.00781 m 0,47.00781 -10.629999,0 m 0,47.5395 0,-47.5395 m 850.556745,-94.54719 24.995,0 m -24.995,0 0,10.62987 m -35.0925,0 35.0925,0 m -35.0925,-10.62987 0,10.62987 m -35.8025,-10.62987 35.8025,0 m -35.8025,0 0,10.62987 m -35.0925,0 35.0925,0 m -35.0925,-10.62987 0,10.62987 m -35.80125,-10.62987 35.80125,0 m -35.80125,0 0,10.62987 m -35.09375,0 35.09375,0 m -35.09375,-10.62987 0,10.62987 m -35.80125,-10.62987 35.80125,0 m -35.80125,0 0,10.62987 m -35.0925,0 35.0925,0 m -35.0925,-10.62987 0,10.62987 m -35.80125,-10.62987 35.80125,0 m -35.80125,0 0,10.62987 m -35.09375,0 35.09375,0 m -35.09375,-10.62987 0,10.62987 m -35.80125,-10.62987 35.80125,0 m -35.80125,0 0,10.62987 m -35.0925,0 35.0925,0 m -35.0925,-10.62987 0,10.62987 m -35.8025,-10.62987 35.8025,0 m -35.8025,0 0,10.62987 m -35.0925,0 35.0925,0 m -35.0925,-10.62987 0,10.62987 m -35.80125,-10.62987 35.80125,0 m -35.80125,0 0,10.62987 m -35.0925,0 35.0925,0 m -35.0925,-10.62987 0,10.62987 m -35.8025,-10.62987 35.8025,0 m -35.8025,0 0,10.62987 m -35.0925,0 35.0925,0 m -35.0925,-10.62987 0,10.62987 m -35.80125,-10.62987 35.80125,0 m -35.80125,0 0,10.62987 m -35.09375,0 35.09375,0 m -35.09375,-10.62987 0,10.62987 m -35.80125,-10.62987 35.80125,0 m -35.80125,0 0,10.62987 m -35.0925,0 35.0925,0 m -35.0925,-10.62987 0,10.62987 m -35.8025,-10.62987 35.8025,0 m -35.8025,0 0,10.62987 m -35.092371,0 35.092371,0 m -35.092371,-10.62987 0,10.62987 m -35.624374,-10.62987 35.624374,0 m 814.932371,142.08669 24.995,0 m -24.995,-10.6302 0,10.6302 m -35.0925,-10.6302 35.0925,0 m -35.0925,0 0,10.6302 m -35.8025,0 35.8025,0 m -35.8025,-10.6302 0,10.6302 m -35.0925,-10.6302 35.0925,0 m -35.0925,0 0,10.6302 m -35.80125,0 35.80125,0 m -35.80125,-10.6302 0,10.6302 m -35.09375,-10.6302 35.09375,0 m -35.09375,0 0,10.6302 m -35.80125,0 35.80125,0 m -35.80125,-10.6302 0,10.6302 m -35.0925,-10.6302 35.0925,0 m -35.0925,0 0,10.6302 m -35.80125,0 35.80125,0 m -35.80125,-10.6302 0,10.6302 m -35.09375,-10.6302 35.09375,0 m -35.09375,0 0,10.6302 m -35.80125,0 35.80125,0 m -35.80125,-10.6302 0,10.6302 m -35.0925,-10.6302 35.0925,0 m -35.0925,0 0,10.6302 m -35.8025,0 35.8025,0 m -35.8025,-10.6302 0,10.6302 m -35.0925,-10.6302 35.0925,0 m -35.0925,0 0,10.6302 m -35.80125,0 35.80125,0 m -35.80125,-10.6302 0,10.6302 m -35.0925,-10.6302 35.0925,0 m -35.0925,0 0,10.6302 m -35.8025,0 35.8025,0 m -35.8025,-10.6302 0,10.6302 m -35.0925,-10.6302 35.0925,0 m -35.0925,0 0,10.6302 m -35.80125,0 35.80125,0 m -35.80125,-10.6302 0,10.6302 m -35.09375,-10.6302 35.09375,0 m -35.09375,0 0,10.6302 m -35.80125,0 35.80125,0 m -35.80125,-10.6302 0,10.6302 m -35.0925,-10.6302 35.0925,0 m -35.0925,0 0,10.6302 m -35.8025,0 35.8025,0 m -35.8025,-10.6302 0,10.6302 m -35.092371,-10.6302 35.092371,0 m -35.092371,0 0,10.6302 m -35.624374,0 35.624374,0"
         inkscape:connector-curvature="0" />
      <rect
         style="fill:none;stroke:#ff0000;stroke-width:0.35433072;stroke-miterlimit:9.29090881;stroke-opacity:1;stroke-dasharray:none"
         id="rect5888"
         width="70.866142"
         height="35.433071"
         x="103.04773"
         y="-963.48761"
         rx="10.629921"
         ry="10.629921"
         transform="scale(1,-1)" />
      <rect
         ry="10.629921"
         rx="10.629921"
         y="-963.48346"
         x="183.13068"
         height="35.070381"
         width="35.070381"
         id="rect5890"
         style="fill:none;stroke:#ff0000;stroke-width:0.35433072;stroke-miterlimit:9.29090881;stroke-opacity:1;stroke-dasharray:none"
         transform="scale(1,-1)" />
      <rect
         style="fill:none;stroke:#ff0000;stroke-width:0.35433072;stroke-miterlimit:9.29090881;stroke-opacity:1;stroke-dasharray:none"
         id="rect6660"
         width="105.94398"
         height="105.94398"
         x="-1034.2196"
         y="-503.22031"
         rx="10.629921"
         ry="10.629921"
         transform="matrix(0,-1,-1,0,0,0)" />
      <rect
         transform="matrix(0,-1,-1,0,0,0)"
         ry="10.629921"
         rx="10.629921"
         y="-620.14948"
         x="-1034.2196"
         height="105.94398"
         width="105.94398"
         id="rect6662"
         style="fill:none;stroke:#ff0000;stroke-width:0.35433072;stroke-miterlimit:9.29090881;stroke-opacity:1;stroke-dasharray:none" />
      <rect
         style="fill:none;stroke:#ff0000;stroke-width:0.35433072;stroke-miterlimit:9.29090881;stroke-opacity:1;stroke-dasharray:none"
         id="rect6664"
         width="105.94398"
         height="105.94398"
         x="-1034.2196"
         y="-737.07861"
         rx="10.629921"
         ry="10.629921"
         transform="matrix(0,-1,-1,0,0,0)" />
      <rect
         transform="matrix(0,-1,-1,0,0,0)"
         ry="10.629921"
         rx="10.629921"
         y="-854.00775"
         x="-1034.2196"
         height="105.94398"
         width="105.94398"
         id="rect6666"
         style="fill:none;stroke:#ff0000;stroke-width:0.35433072;stroke-miterlimit:9.29090881;stroke-opacity:1;stroke-dasharray:none" />
      <rect
         style="fill:none;stroke:#ff0000;stroke-width:0.35433072;stroke-miterlimit:9.29090881;stroke-opacity:1;stroke-dasharray:none"
         id="rect6670"
         width="47.48175"
         height="47.48175"
         x="-1034.318"
         y="-386.19513"
         rx="10.629921"
         ry="10.629921"
         transform="matrix(0,-1,-1,0,0,0)" />
      <rect
         style="fill:none;stroke:#ff0000;stroke-width:0.35433072;stroke-miterlimit:9.29090881;stroke-opacity:1;stroke-dasharray:none"
         id="rect6672"
         width="47.48175"
         height="47.48175"
         x="-975.85352"
         y="-327.73056"
         rx="10.629921"
         ry="10.629921"
         transform="matrix(0,-1,-1,0,0,0)" />
      <rect
         transform="matrix(0,-1,-1,0,0,0)"
         ry="10.629921"
         rx="10.629921"
         y="-386.19513"
         x="-975.85352"
         height="47.48175"
         width="47.48175"
         id="rect6674"
         style="fill:none;stroke:#ff0000;stroke-width:0.35433072;stroke-miterlimit:9.29090881;stroke-opacity:1;stroke-dasharray:none" />
      <rect
         transform="scale(1,-1)"
         style="fill:none;stroke:#ff0000;stroke-width:0.35433072;stroke-miterlimit:9.29090881;stroke-opacity:1;stroke-dasharray:none"
         id="rect6678"
         width="35.070381"
         height="35.070381"
         x="229.19366"
         y="-963.48346"
         rx="10.629921"
         ry="10.629921" />
    </g>
    <g
       id="g10288"
       transform="translate(0,17.716896)">
      <path
         id="path3345"
         style="fill:none;stroke:#ff0000;stroke-width:0.35433072;stroke-linecap:butt;stroke-linejoin:miter;stroke-miterlimit:9.29090881;stroke-opacity:1;stroke-dasharray:none"
         d="m 70.89454,743.56287 0,0 0,-10.63 0,0 35.80149,0 0,0 0,10.63 0,0 35.09288,0 0,0 0,-10.63 0,0 35.80162,0 0,0 0,10.63 0,0 35.09288,0 0,0 0,-10.63 0,0 35.80162,0 0,0 0,10.63 0,0 35.09288,0 0,0 0,-10.63 0,0 35.80162,0 0,0 0,10.63 0,0 35.09288,0 0,0 0,-10.63 0,0 35.80162,0 0,0 0,10.63 0,0 35.09288,0 0,0 0,-10.63 0,0 35.80162,0 0,0 0,10.63 0,0 35.09288,0 0,0 0,-10.63 0,0 35.80162,0 0,0 0,10.63 0,0 35.09288,0 0,0 0,-10.63 0,0 35.8015,0 0,0 0,10.63 0,0 35.093,0 0,0 0,-10.63 0,0 35.8015,0 0,0 0,10.63 0,0 35.093,0 0,0 0,-10.63 0,0 35.8015,0 0,0 0,10.63 0,0 35.093,0 0,-10.63 35.80152,0 0,10.62875 c 25.22077,0 30.75853,0 60.08869,0 0,57.08092 0,77.45276 0,120.82678 -26.42958,0 -36.95483,10e-4 -60.08869,10e-4 l 0,0 0,10.62987 0,0 -35.80152,0 0,0 0,-10.62987 0,0 -35.093,0 0,0 0,10.62987 0,0 -35.8015,0 0,0 0,-10.62987 0,0 -35.093,0 0,0 0,10.62987 0,0 -35.8015,0 0,0 0,-10.62987 0,0 -35.093,0 0,0 0,10.62987 0,0 -35.8015,0 0,0 0,-10.62987 0,0 -35.09288,0 0,0 0,10.62987 0,0 -35.80162,0 0,0 0,-10.62987 0,0 -35.09288,0 0,0 0,10.62987 0,0 -35.80162,0 0,0 0,-10.62987 0,0 -35.09288,0 0,0 0,10.62987 0,0 -35.80162,0 0,0 0,-10.62987 0,0 -35.09288,0 0,0 0,10.62987 0,0 -35.80162,0 0,0 0,-10.62987 0,0 -35.09288,0 0,0 0,10.62987 0,0 -35.80162,0 0,0 0,-10.62987 0,0 -35.09288,0 0,0 0,10.62987 0,0 -35.80162,0 0,0 0,-10.62987 0,0 -35.09288,0 0,0 0,10.62987 0,0 -35.80149,0 0,0 0,-10.62987 0,-10e-4 c -27.54893,0 -33.542126,0 -60.087501,0 l 0,0 c 0,-73.63965 0,-61.19737 0,-120.82688 l 0,0 z"
         inkscape:connector-curvature="0"
         sodipodi:nodetypes="ccccccccccccccccccccccccccccccccccccccccccccccccccccccccccccccccccccccccccccccccccccccccccccccccccccccccccccccccccccccccccccccccccccccccccccccccccccccccccccccccccccccccccccccccccc" />
      <rect
         style="fill:none;stroke:#ff0000;stroke-width:0.35433072;stroke-miterlimit:9.29090881;stroke-opacity:1;stroke-dasharray:none"
         id="rect6680"
         width="60.236221"
         height="177.16536"
         x="-857.18842"
         y="-198.71704"
         rx="10.629921"
         ry="10.629921"
         transform="matrix(0,-1,-1,0,0,0)" />
      <rect
         style="fill:none;stroke:#ff0000;stroke-width:0.35433072;stroke-miterlimit:9.29090881;stroke-opacity:1;stroke-dasharray:none"
         id="rect6682"
         width="70.866142"
         height="35.433071"
         x="21.55167"
         y="-786.32227"
         rx="10.629921"
         ry="10.629921"
         transform="scale(1,-1)" />
      <rect
         ry="10.629921"
         rx="10.629921"
         y="-269.58325"
         x="-857.18842"
         height="60.236221"
         width="60.236221"
         id="rect6684"
         style="fill:none;stroke:#ff0000;stroke-width:0.35433072;stroke-miterlimit:9.29090881;stroke-opacity:1;stroke-dasharray:none"
         transform="matrix(0,-1,-1,0,0,0)" />
      <rect
         style="fill:none;stroke:#ff0000;stroke-width:0.35433072;stroke-miterlimit:9.29090881;stroke-opacity:1;stroke-dasharray:none"
         id="rect6686"
         width="47.48175"
         height="47.48175"
         x="-857.15265"
         y="-327.73056"
         rx="10.629921"
         ry="10.629921"
         transform="matrix(0,-1,-1,0,0,0)" />
      <rect
         transform="scale(1,-1)"
         ry="10.629921"
         rx="10.629921"
         y="-786.32227"
         x="103.04773"
         height="35.433071"
         width="70.866142"
         id="rect6688"
         style="fill:none;stroke:#ff0000;stroke-width:0.35433072;stroke-miterlimit:9.29090881;stroke-opacity:1;stroke-dasharray:none" />
      <rect
         transform="scale(1,-1)"
         style="fill:none;stroke:#ff0000;stroke-width:0.35433072;stroke-miterlimit:9.29090881;stroke-opacity:1;stroke-dasharray:none"
         id="rect6690"
         width="35.070381"
         height="35.070381"
         x="183.13068"
         y="-786.31812"
         rx="10.629921"
         ry="10.629921" />
      <rect
         transform="matrix(0,-1,-1,0,0,0)"
         ry="10.629921"
         rx="10.629921"
         y="-494.36203"
         x="-848.19604"
         height="88.58268"
         width="88.58268"
         id="rect6692"
         style="fill:none;stroke:#ff0000;stroke-width:0.35433072;stroke-miterlimit:9.29090881;stroke-opacity:1;stroke-dasharray:none" />
      <rect
         transform="matrix(0,-1,-1,0,0,0)"
         ry="10.629921"
         rx="10.629921"
         y="-386.19513"
         x="-857.15265"
         height="47.48175"
         width="47.48175"
         id="rect6700"
         style="fill:none;stroke:#ff0000;stroke-width:0.35433072;stroke-miterlimit:9.29090881;stroke-opacity:1;stroke-dasharray:none" />
      <rect
         transform="matrix(0,-1,-1,0,0,0)"
         ry="10.629921"
         rx="10.629921"
         y="-327.73056"
         x="-798.68817"
         height="47.48175"
         width="47.48175"
         id="rect6702"
         style="fill:none;stroke:#ff0000;stroke-width:0.35433072;stroke-miterlimit:9.29090881;stroke-opacity:1;stroke-dasharray:none" />
      <rect
         style="fill:none;stroke:#ff0000;stroke-width:0.35433072;stroke-miterlimit:9.29090881;stroke-opacity:1;stroke-dasharray:none"
         id="rect6704"
         width="47.48175"
         height="47.48175"
         x="-798.68817"
         y="-386.19513"
         rx="10.629921"
         ry="10.629921"
         transform="matrix(0,-1,-1,0,0,0)" />
      <rect
         ry="10.629921"
         rx="10.629921"
         y="-786.31812"
         x="229.19366"
         height="35.070381"
         width="35.070381"
         id="rect6706"
         style="fill:none;stroke:#ff0000;stroke-width:0.35433072;stroke-miterlimit:9.29090881;stroke-opacity:1;stroke-dasharray:none"
         transform="scale(1,-1)" />
      <rect
         style="fill:none;stroke:#ff0000;stroke-width:0.35433072;stroke-miterlimit:9.29090881;stroke-opacity:1;stroke-dasharray:none"
         id="rect6708"
         width="88.58268"
         height="88.58268"
         x="-848.19604"
         y="-611.2912"
         rx="10.629921"
         ry="10.629921"
         transform="matrix(0,-1,-1,0,0,0)" />
      <rect
         transform="matrix(0,-1,-1,0,0,0)"
         ry="10.629921"
         rx="10.629921"
         y="-728.22034"
         x="-848.19604"
         height="88.58268"
         width="88.58268"
         id="rect6710"
         style="fill:none;stroke:#ff0000;stroke-width:0.35433072;stroke-miterlimit:9.29090881;stroke-opacity:1;stroke-dasharray:none" />
      <rect
         style="fill:none;stroke:#ff0000;stroke-width:0.35433072;stroke-miterlimit:9.29090881;stroke-opacity:1;stroke-dasharray:none"
         id="rect6712"
         width="88.58268"
         height="88.58268"
         x="-848.19604"
         y="-845.14948"
         rx="10.629921"
         ry="10.629921"
         transform="matrix(0,-1,-1,0,0,0)" />
    </g>
    <path
       inkscape:connector-curvature="0"
       d="m 1137.1596,956.91323 0,-47.185 m 10.63,47.185 -10.63,0 m 10.63,47.71647 0,-47.71647 m 0,47.71647 -10.63,0 m 0,47.1852 0,-47.1852 m -237.7558,-47.36209 0,-47.53938 m 10.6299,47.53938 -10.6299,0 m 10.6299,47.00789 0,-47.00789 m 0,47.00789 -10.6299,0 m 0,47.5394 0,-47.5394 m 212.725,-94.54727 25.0308,0 m -25.0308,0 0,10.62987 m -35.1294,0 35.1294,0 m -35.1294,-10.62987 0,10.62987 m -35.838,-10.62987 35.838,0 m -35.838,0 0,10.62987 m -35.1294,0 35.1294,0 m -35.1294,-10.62987 0,10.62987 m -35.838,-10.62987 35.838,0 m -35.838,0 0,10.62987 m -35.1293,0 35.1293,0 m -35.1293,-10.62987 0,10.62987 m -35.6609,-10.62987 35.6609,0 m 177.0641,142.08667 25.0308,0 m -25.0308,-10.63 0,10.63 m -35.1294,-10.63 35.1294,0 m -35.1294,0 0,10.63 m -35.838,0 35.838,0 m -35.838,-10.63 0,10.63 m -35.1294,-10.63 35.1294,0 m -35.1294,0 0,10.63 m -35.838,0 35.838,0 m -35.838,-10.63 0,10.63 m -35.1293,-10.63 35.1293,0 m -35.1293,0 0,10.63 m -35.6609,0 35.6609,0"
       style="fill:none;stroke:#ff0000;stroke-width:0.35433072;stroke-linecap:butt;stroke-linejoin:miter;stroke-miterlimit:10;stroke-opacity:1;stroke-dasharray:none"
       id="path8145" />
    <path
       inkscape:connector-curvature="0"
       d="m 1155.0255,872.90593 47.185,0 m -47.185,10.63001 0,-10.63001 m -47.7165,10.63001 47.7165,0 m -47.7165,0 0,-10.63001 m -47.1852,0 47.1852,0 m 47.3621,-237.7559 47.5394,0 m -47.5394,10.6296 0,-10.6296 m -47.0079,10.6296 47.0079,0 m -47.0079,0 0,-10.6296 m -47.5394,0 47.5394,0 m 94.5473,212.7246 0,25.0313 m 0,-25.0313 -10.6299,0 m 0,-35.1287 0,35.1287 m 10.6299,-35.1287 -10.6299,0 m 10.6299,-35.8388 0,35.8388 m 0,-35.8388 -10.6299,0 m 0,-35.1287 0,35.1287 m 10.6299,-35.1287 -10.6299,0 m 10.6299,-35.8388 0,35.8388 m 0,-35.8388 -10.6299,0 m 0,-35.1287 0,35.1287 m 10.6299,-35.1287 -10.6299,0 m 10.6299,-35.6609 0,35.6609 m -142.0867,177.0637 0,25.0313 m 10.63,-25.0313 -10.63,0 m 10.63,-35.1287 0,35.1287 m 0,-35.1287 -10.63,0 m 0,-35.8388 0,35.8388 m 10.63,-35.8388 -10.63,0 m 10.63,-35.1287 0,35.1287 m 0,-35.1287 -10.63,0 m 0,-35.8388 0,35.8388 m 10.63,-35.8388 -10.63,0 m 10.63,-35.1287 0,35.1287 m 0,-35.1287 -10.63,0 m 0,-35.6609 0,35.6609"
       style="fill:none;stroke:#ff0000;stroke-width:0.35433072;stroke-linecap:butt;stroke-linejoin:miter;stroke-miterlimit:10;stroke-opacity:1;stroke-dasharray:none"
       id="path8465" />
    <path
       inkscape:connector-curvature="0"
       d="m 1004.269,883.34457 47.185,0 m -47.185,10.63 0,-10.63 m -47.71674,10.63 47.71674,0 m -47.71674,0 0,-10.63 m -47.185,0 47.185,0 m 47.71674,-875.5511 47.185,0 m -47.185,10.6299 0,-10.6299 m -47.71674,10.6299 47.71674,0 m -47.71674,0 0,-10.6299 m -47.185,0 47.185,0 m 94.90174,850.5568 0,24.9943 m 0,-24.9943 -10.6299,0 m 0,-35.093 0,35.093 m 10.6299,-35.093 -10.6299,0 m 10.6299,-35.8015 0,35.8015 m 0,-35.8015 -10.6299,0 m 0,-35.093 0,35.093 m 10.6299,-35.093 -10.6299,0 m 10.6299,-35.8015 0,35.8015 m 0,-35.8015 -10.6299,0 m 0,-35.093 0,35.093 m 10.6299,-35.093 -10.6299,0 m 10.6299,-35.8015 0,35.8015 m 0,-35.8015 -10.6299,0 m 0,-35.0929 0,35.0929 m 10.6299,-35.0929 -10.6299,0 m 10.6299,-35.8016 0,35.8016 m 0,-35.8016 -10.6299,0 m 0,-35.0929 0,35.0929 m 10.6299,-35.0929 -10.6299,0 m 10.6299,-35.8016 0,35.8016 m 0,-35.8016 -10.6299,0 m 0,-35.0929 0,35.0929 m 10.6299,-35.0929 -10.6299,0 m 10.6299,-35.8016 0,35.8016 m 0,-35.8016 -10.6299,0 m 0,-35.0929 0,35.0929 m 10.6299,-35.0929 -10.6299,0 m 10.6299,-35.8016 0,35.8016 m 0,-35.8016 -10.6299,0 m 0,-35.0929 0,35.0929 m 10.6299,-35.0929 -10.6299,0 m 10.6299,-35.8016 0,35.8016 m 0,-35.8016 -10.6299,0 m 0,-35.0929 0,35.0929 m 10.6299,-35.0929 -10.6299,0 m 10.6299,-35.8016 0,35.8016 m 0,-35.8016 -10.6299,0 m 0,-35.0929 0,35.0929 m 10.6299,-35.0929 -10.6299,0 m 10.6299,-35.8015 0,35.8015 m 0,-35.8015 -10.6299,0 m 0,-35.093 0,35.093 m 10.6299,-35.093 -10.6299,0 m 10.6299,-35.801505 0,35.801505 m 0,-35.801505 -10.6299,0 m 0,-35.092995 0,35.092995 m 10.6299,-35.092995 -10.6299,0 m 10.6299,-35.6244 0,35.6244 m -142.08674,814.9324 0,24.9943 m 10.63,-24.9943 -10.63,0 m 10.63,-35.09301 0,35.09301 m 0,-35.09301 -10.63,0 m 0,-35.8015 0,35.8015 m 10.63,-35.8015 -10.63,0 m 10.63,-35.093 0,35.093 m 0,-35.093 -10.63,0 m 0,-35.8015 0,35.8015 m 10.63,-35.8015 -10.63,0 m 10.63,-35.093 0,35.093 m 0,-35.093 -10.63,0 m 0,-35.8015 0,35.8015 m 10.63,-35.8015 -10.63,0 m 10.63,-35.0929 0,35.0929 m 0,-35.0929 -10.63,0 m 0,-35.8016 0,35.8016 m 10.63,-35.8016 -10.63,0 m 10.63,-35.0929 0,35.0929 m 0,-35.0929 -10.63,0 m 0,-35.8016 0,35.8016 m 10.63,-35.8016 -10.63,0 m 10.63,-35.0929 0,35.0929 m 0,-35.0929 -10.63,0 m 0,-35.8016 0,35.8016 m 10.63,-35.8016 -10.63,0 m 10.63,-35.0929 0,35.0929 m 0,-35.0929 -10.63,0 m 0,-35.8016 0,35.8016 m 10.63,-35.8016 -10.63,0 m 10.63,-35.0929 0,35.0929 m 0,-35.0929 -10.63,0 m 0,-35.8016 0,35.8016 m 10.63,-35.8016 -10.63,0 m 10.63,-35.0929 0,35.0929 m 0,-35.0929 -10.63,0 m 0,-35.80159 0,35.80159 m 10.63,-35.80159 -10.63,0 m 10.63,-35.0929 0,35.0929 m 0,-35.0929 -10.63,0 m 0,-35.8015 0,35.8015 m 10.63,-35.8015 -10.63,0 m 10.63,-35.093 0,35.093 m 0,-35.093 -10.63,0 m 0,-35.801505 0,35.801505 m 10.63,-35.801505 -10.63,0 m 10.63,-35.093005 0,35.093005 m 0,-35.093005 -10.63,0 m 0,-35.6244 0,35.6244"
       style="fill:none;stroke:#ff0000;stroke-width:0.35433072;stroke-linecap:butt;stroke-linejoin:miter;stroke-miterlimit:10;stroke-opacity:1;stroke-dasharray:none"
       id="path8681" />
    <g
       transform="translate(0,-141.73192)"
       id="g10322">
      <path
         sodipodi:nodetypes="ccccccccccccccccccccccccccccccccccccccccccccccccccccccccccccccccccccccccccccccccccccccccccccccccccccccccccccccccccccccccccccccccccccccccccccccccccccccccccccccccccccccccccccccccccc"
         inkscape:connector-curvature="0"
         d="m 70.89454,743.56287 0,0 0,-10.63 0,0 35.80149,0 0,0 0,10.63 0,0 35.09288,0 0,0 0,-10.63 0,0 35.80162,0 0,0 0,10.63 0,0 35.09288,0 0,0 0,-10.63 0,0 35.80162,0 0,0 0,10.63 0,0 35.09288,0 0,0 0,-10.63 0,0 35.80162,0 0,0 0,10.63 0,0 35.09288,0 0,0 0,-10.63 0,0 35.80162,0 0,0 0,10.63 0,0 35.09288,0 0,0 0,-10.63 0,0 35.80162,0 0,0 0,10.63 0,0 35.09288,0 0,0 0,-10.63 0,0 35.80162,0 0,0 0,10.63 0,0 35.09288,0 0,0 0,-10.63 0,0 35.8015,0 0,0 0,10.63 0,0 35.093,0 0,0 0,-10.63 0,0 35.8015,0 0,0 0,10.63 0,0 35.093,0 0,0 0,-10.63 0,0 35.8015,0 0,0 0,10.63 0,0 35.093,0 0,-10.63 35.80152,0 0,10.62875 c 25.22077,0 30.75853,0 60.08869,0 0,57.08092 0,77.45276 0,120.82678 -26.42958,0 -36.95483,10e-4 -60.08869,10e-4 l 0,0 0,10.62987 0,0 -35.80152,0 0,0 0,-10.62987 0,0 -35.093,0 0,0 0,10.62987 0,0 -35.8015,0 0,0 0,-10.62987 0,0 -35.093,0 0,0 0,10.62987 0,0 -35.8015,0 0,0 0,-10.62987 0,0 -35.093,0 0,0 0,10.62987 0,0 -35.8015,0 0,0 0,-10.62987 0,0 -35.09288,0 0,0 0,10.62987 0,0 -35.80162,0 0,0 0,-10.62987 0,0 -35.09288,0 0,0 0,10.62987 0,0 -35.80162,0 0,0 0,-10.62987 0,0 -35.09288,0 0,0 0,10.62987 0,0 -35.80162,0 0,0 0,-10.62987 0,0 -35.09288,0 0,0 0,10.62987 0,0 -35.80162,0 0,0 0,-10.62987 0,0 -35.09288,0 0,0 0,10.62987 0,0 -35.80162,0 0,0 0,-10.62987 0,0 -35.09288,0 0,0 0,10.62987 0,0 -35.80162,0 0,0 0,-10.62987 0,0 -35.09288,0 0,0 0,10.62987 0,0 -35.80149,0 0,0 0,-10.62987 0,-10e-4 c -27.54893,0 -33.542126,0 -60.087501,0 l 0,0 c 0,-73.63965 0,-61.19737 0,-120.82688 l 0,0 z"
         style="fill:none;stroke:#ff0000;stroke-width:0.35433072;stroke-linecap:butt;stroke-linejoin:miter;stroke-miterlimit:9.29090881;stroke-opacity:1;stroke-dasharray:none"
         id="path10324" />
      <rect
         transform="matrix(0,-1,-1,0,0,0)"
         ry="10.629921"
         rx="10.629921"
         y="-198.71704"
         x="-857.18842"
         height="177.16536"
         width="60.236221"
         id="rect10326"
         style="fill:none;stroke:#ff0000;stroke-width:0.35433072;stroke-miterlimit:9.29090881;stroke-opacity:1;stroke-dasharray:none" />
      <rect
         transform="scale(1,-1)"
         ry="10.629921"
         rx="10.629921"
         y="-786.32227"
         x="21.55167"
         height="35.433071"
         width="70.866142"
         id="rect10328"
         style="fill:none;stroke:#ff0000;stroke-width:0.35433072;stroke-miterlimit:9.29090881;stroke-opacity:1;stroke-dasharray:none" />
      <rect
         transform="matrix(0,-1,-1,0,0,0)"
         style="fill:none;stroke:#ff0000;stroke-width:0.35433072;stroke-miterlimit:9.29090881;stroke-opacity:1;stroke-dasharray:none"
         id="rect10330"
         width="60.236221"
         height="60.236221"
         x="-857.18842"
         y="-269.58325"
         rx="10.629921"
         ry="10.629921" />
      <rect
         transform="matrix(0,-1,-1,0,0,0)"
         ry="10.629921"
         rx="10.629921"
         y="-327.73056"
         x="-857.15265"
         height="47.48175"
         width="47.48175"
         id="rect10332"
         style="fill:none;stroke:#ff0000;stroke-width:0.35433072;stroke-miterlimit:9.29090881;stroke-opacity:1;stroke-dasharray:none" />
      <rect
         style="fill:none;stroke:#ff0000;stroke-width:0.35433072;stroke-miterlimit:9.29090881;stroke-opacity:1;stroke-dasharray:none"
         id="rect10334"
         width="70.866142"
         height="35.433071"
         x="103.04773"
         y="-786.32227"
         rx="10.629921"
         ry="10.629921"
         transform="scale(1,-1)" />
      <rect
         ry="10.629921"
         rx="10.629921"
         y="-786.31812"
         x="183.13068"
         height="35.070381"
         width="35.070381"
         id="rect10336"
         style="fill:none;stroke:#ff0000;stroke-width:0.35433072;stroke-miterlimit:9.29090881;stroke-opacity:1;stroke-dasharray:none"
         transform="scale(1,-1)" />
      <rect
         style="fill:none;stroke:#ff0000;stroke-width:0.35433072;stroke-miterlimit:9.29090881;stroke-opacity:1;stroke-dasharray:none"
         id="rect10338"
         width="88.58268"
         height="88.58268"
         x="-848.19604"
         y="-494.36203"
         rx="10.629921"
         ry="10.629921"
         transform="matrix(0,-1,-1,0,0,0)" />
      <rect
         style="fill:none;stroke:#ff0000;stroke-width:0.35433072;stroke-miterlimit:9.29090881;stroke-opacity:1;stroke-dasharray:none"
         id="rect10340"
         width="47.48175"
         height="47.48175"
         x="-857.15265"
         y="-386.19513"
         rx="10.629921"
         ry="10.629921"
         transform="matrix(0,-1,-1,0,0,0)" />
      <rect
         style="fill:none;stroke:#ff0000;stroke-width:0.35433072;stroke-miterlimit:9.29090881;stroke-opacity:1;stroke-dasharray:none"
         id="rect10342"
         width="47.48175"
         height="47.48175"
         x="-798.68817"
         y="-327.73056"
         rx="10.629921"
         ry="10.629921"
         transform="matrix(0,-1,-1,0,0,0)" />
      <rect
         transform="matrix(0,-1,-1,0,0,0)"
         ry="10.629921"
         rx="10.629921"
         y="-386.19513"
         x="-798.68817"
         height="47.48175"
         width="47.48175"
         id="rect10344"
         style="fill:none;stroke:#ff0000;stroke-width:0.35433072;stroke-miterlimit:9.29090881;stroke-opacity:1;stroke-dasharray:none" />
      <rect
         transform="scale(1,-1)"
         style="fill:none;stroke:#ff0000;stroke-width:0.35433072;stroke-miterlimit:9.29090881;stroke-opacity:1;stroke-dasharray:none"
         id="rect10346"
         width="35.070381"
         height="35.070381"
         x="229.19366"
         y="-786.31812"
         rx="10.629921"
         ry="10.629921" />
      <rect
         transform="matrix(0,-1,-1,0,0,0)"
         ry="10.629921"
         rx="10.629921"
         y="-611.2912"
         x="-848.19604"
         height="88.58268"
         width="88.58268"
         id="rect10348"
         style="fill:none;stroke:#ff0000;stroke-width:0.35433072;stroke-miterlimit:9.29090881;stroke-opacity:1;stroke-dasharray:none" />
      <rect
         style="fill:none;stroke:#ff0000;stroke-width:0.35433071;stroke-miterlimit:9.29090881;stroke-opacity:1;stroke-dasharray:none"
         id="rect10350"
         width="42.23698"
         height="42.23698"
         x="-828.81494"
         y="-704.79962"
         rx="5.0684371"
         ry="5.0684371"
         transform="matrix(0,-1,-1,0,0,0)" />
      <rect
         transform="matrix(0,-1,-1,0,0,0)"
         ry="5.0684371"
         rx="5.0684371"
         y="-821.72876"
         x="-828.81494"
         height="42.23698"
         width="42.23698"
         id="rect10352"
         style="fill:none;stroke:#ff0000;stroke-width:0.35433071;stroke-miterlimit:9.29090881;stroke-opacity:1;stroke-dasharray:none" />
    </g>
    <g
       id="g10777"
       transform="translate(0,53.149608)">
      <path
         id="path8393"
         style="fill:none;stroke:#ff0000;stroke-width:0.35433072;stroke-linecap:butt;stroke-linejoin:miter;stroke-miterlimit:10;stroke-opacity:1;stroke-dasharray:none"
         d="m 875.72827,307.60955 0,-24.67663 m 10.63,24.67663 -10.63,0 m 10.63,35.838 0,-35.838 m 0,35.838 -10.63,0 m 0,35.12937 0,-35.12937 m 10.63,35.12937 -10.63,0 m 10.63,35.838 0,-35.838 m 0,35.838 -10.63,0 m 0,35.12938 0,-35.12938 m 10.63,35.12938 -10.63,0 m 10.63,35.838 0,-35.838 m 0,35.838 -10.63,0 m 0,24.67663 0,-24.67663 M 10.807065,307.60955 l 0,-24.67663 m 0,24.67663 -10.62989964,0 m 0,35.838 0,-35.838 m 10.62989964,35.838 -10.62989964,0 m 10.62989964,35.12937 0,-35.12937 m 0,35.12937 -10.62989964,0 m 0,35.838 0,-35.838 m 10.62989964,35.838 -10.62989964,0 m 10.62989964,35.12938 0,-35.12938 m 0,35.12938 -10.62989964,0 m 0,35.838 0,-35.838 m 10.62989964,35.838 -10.62989964,0 m 10.62989964,24.67663 0,-24.67663 m 840.281105,-202.44938 24.6401,0 m -24.6401,-10.62987 0,10.62987 m -35.8015,-10.62987 35.8015,0 m -35.8015,0 0,10.62987 m -35.093,0 35.093,0 m -35.093,-10.62987 0,10.62987 m -35.8015,-10.62987 35.8015,0 m -35.8015,0 0,10.62987 m -35.093,0 35.093,0 m -35.093,-10.62987 0,10.62987 m -35.8015,-10.62987 35.8015,0 m -35.8015,0 0,10.62987 m -35.0929,0 35.0929,0 m -35.0929,-10.62987 0,10.62987 m -35.8016,-10.62987 35.8016,0 m -35.8016,0 0,10.62987 m -35.0929,0 35.0929,0 m -35.0929,-10.62987 0,10.62987 m -35.8016,-10.62987 35.8016,0 m -35.8016,0 0,10.62987 m -35.0929,0 35.0929,0 m -35.0929,-10.62987 0,10.62987 m -35.8016,-10.62987 35.8016,0 m -35.8016,0 0,10.62987 m -35.0929,0 35.0929,0 m -35.0929,-10.62987 0,10.62987 m -35.8016,-10.62987 35.8016,0 m -35.8016,0 0,10.62987 m -35.0929,0 35.0929,0 m -35.0929,-10.62987 0,10.62987 m -35.8016,-10.62987 35.8016,0 m -35.8016,0 0,10.62987 m -35.0929,0 35.0929,0 m -35.0929,-10.62987 0,10.62987 m -35.8016,-10.62987 35.8016,0 m -35.8016,0 0,10.62987 m -35.0929,0 35.0929,0 m -35.0929,-10.62987 0,10.62987 m -35.8016,-10.62987 35.8016,0 m -35.8016,0 0,10.62987 m -35.0929,0 35.0929,0 m -35.0929,-10.62987 0,10.62987 m -35.8015,-10.62987 35.8015,0 m -35.8015,0 0,10.62987 m -35.093005,0 35.093005,0 m -35.093005,-10.62987 0,10.62987 m -35.8015,-10.62987 35.8015,0 m -35.8015,0 0,10.62987 m -24.6402,0 24.6402,0 m 815.640905,227.12601 24.6401,0 m -24.6401,0 0,10.62999 m -35.8015,0 35.8015,0 m -35.8015,-10.62999 0,10.62999 m -35.093,-10.62999 35.093,0 m -35.093,0 0,10.62999 m -35.8015,0 35.8015,0 m -35.8015,-10.62999 0,10.62999 m -35.093,-10.62999 35.093,0 m -35.093,0 0,10.62999 m -35.8015,0 35.8015,0 m -35.8015,-10.62999 0,10.62999 m -35.0929,-10.62999 35.0929,0 m -35.0929,0 0,10.62999 m -35.8016,0 35.8016,0 m -35.8016,-10.62999 0,10.62999 m -35.0929,-10.62999 35.0929,0 m -35.0929,0 0,10.62999 m -35.8016,0 35.8016,0 m -35.8016,-10.62999 0,10.62999 m -35.0929,-10.62999 35.0929,0 m -35.0929,0 0,10.62999 m -35.8016,0 35.8016,0 m -35.8016,-10.62999 0,10.62999 m -35.0929,-10.62999 35.0929,0 m -35.0929,0 0,10.62999 m -35.8016,0 35.8016,0 m -35.8016,-10.62999 0,10.62999 m -35.0929,-10.62999 35.0929,0 m -35.0929,0 0,10.62999 m -35.8016,0 35.8016,0 m -35.8016,-10.62999 0,10.62999 m -35.0929,-10.62999 35.0929,0 m -35.0929,0 0,10.62999 m -35.8016,0 35.8016,0 m -35.8016,-10.62999 0,10.62999 m -35.0929,-10.62999 35.0929,0 m -35.0929,0 0,10.62999 m -35.8016,0 35.8016,0 m -35.8016,-10.62999 0,10.62999 m -35.0929,-10.62999 35.0929,0 m -35.0929,0 0,10.62999 m -35.8015,0 35.8015,0 m -35.8015,-10.62999 0,10.62999 m -35.093005,-10.62999 35.093005,0 m -35.093005,0 0,10.62999 m -35.8015,0 35.8015,0 m -35.8015,-10.62999 0,10.62999 m -24.6402,-10.62999 24.6402,0"
         inkscape:connector-curvature="0" />
      <g
         transform="translate(0.11466036,5.5941009e-6)"
         id="g7439">
        <rect
           y="421.47632"
           x="71.043304"
           height="10.629921"
           width="35.433071"
           id="rect7673"
           style="fill:none;stroke:#ff0000;stroke-width:0.35433072;stroke-miterlimit:9.29090881;stroke-opacity:1;stroke-dasharray:none" />
        <rect
           style="fill:none;stroke:#ff0000;stroke-width:0.35433072;stroke-miterlimit:9.29090881;stroke-opacity:1;stroke-dasharray:none"
           id="rect7675"
           width="35.433071"
           height="10.629921"
           x="141.90944"
           y="421.47632" />
        <rect
           y="421.47632"
           x="212.77557"
           height="10.629921"
           width="35.433071"
           id="rect7677"
           style="fill:none;stroke:#ff0000;stroke-width:0.35433072;stroke-miterlimit:9.29090881;stroke-opacity:1;stroke-dasharray:none" />
        <rect
           style="fill:none;stroke:#ff0000;stroke-width:0.35433072;stroke-miterlimit:9.29090881;stroke-opacity:1;stroke-dasharray:none"
           id="rect7679"
           width="35.433071"
           height="10.629921"
           x="283.64172"
           y="421.47632" />
        <rect
           y="421.47632"
           x="354.50787"
           height="10.629921"
           width="35.433071"
           id="rect7681"
           style="fill:none;stroke:#ff0000;stroke-width:0.35433072;stroke-miterlimit:9.29090881;stroke-opacity:1;stroke-dasharray:none" />
        <rect
           style="fill:none;stroke:#ff0000;stroke-width:0.35433072;stroke-miterlimit:9.29090881;stroke-opacity:1;stroke-dasharray:none"
           id="rect7683"
           width="35.433071"
           height="10.629921"
           x="425.37402"
           y="421.47632" />
        <rect
           y="421.47632"
           x="496.24017"
           height="10.629921"
           width="35.433071"
           id="rect7685"
           style="fill:none;stroke:#ff0000;stroke-width:0.35433072;stroke-miterlimit:9.29090881;stroke-opacity:1;stroke-dasharray:none" />
        <rect
           y="421.47632"
           x="567.10632"
           height="10.629921"
           width="35.433071"
           id="rect7687"
           style="fill:none;stroke:#ff0000;stroke-width:0.35433072;stroke-miterlimit:9.29090881;stroke-opacity:1;stroke-dasharray:none" />
        <rect
           style="fill:none;stroke:#ff0000;stroke-width:0.35433072;stroke-miterlimit:9.29090881;stroke-opacity:1;stroke-dasharray:none"
           id="rect7689"
           width="35.433071"
           height="10.629921"
           x="637.97247"
           y="421.47632" />
        <rect
           y="421.47632"
           x="708.83862"
           height="10.629921"
           width="35.433071"
           id="rect7691"
           style="fill:none;stroke:#ff0000;stroke-width:0.35433072;stroke-miterlimit:9.29090881;stroke-opacity:1;stroke-dasharray:none" />
        <rect
           style="fill:none;stroke:#ff0000;stroke-width:0.35433072;stroke-miterlimit:9.29090881;stroke-opacity:1;stroke-dasharray:none"
           id="rect7693"
           width="35.433071"
           height="10.629921"
           x="779.70477"
           y="421.47632" />
      </g>
      <g
         id="g10753"
         transform="translate(0.11466036,-70.866136)">
        <rect
           style="fill:none;stroke:#ff0000;stroke-width:0.35433072;stroke-miterlimit:9.29090881;stroke-opacity:1;stroke-dasharray:none"
           id="rect10755"
           width="35.433071"
           height="10.629921"
           x="71.043304"
           y="421.47632" />
        <rect
           y="421.47632"
           x="141.90944"
           height="10.629921"
           width="35.433071"
           id="rect10757"
           style="fill:none;stroke:#ff0000;stroke-width:0.35433072;stroke-miterlimit:9.29090881;stroke-opacity:1;stroke-dasharray:none" />
        <rect
           style="fill:none;stroke:#ff0000;stroke-width:0.35433072;stroke-miterlimit:9.29090881;stroke-opacity:1;stroke-dasharray:none"
           id="rect10759"
           width="35.433071"
           height="10.629921"
           x="212.77557"
           y="421.47632" />
        <rect
           y="421.47632"
           x="283.64172"
           height="10.629921"
           width="35.433071"
           id="rect10761"
           style="fill:none;stroke:#ff0000;stroke-width:0.35433072;stroke-miterlimit:9.29090881;stroke-opacity:1;stroke-dasharray:none" />
        <rect
           style="fill:none;stroke:#ff0000;stroke-width:0.35433072;stroke-miterlimit:9.29090881;stroke-opacity:1;stroke-dasharray:none"
           id="rect10763"
           width="35.433071"
           height="10.629921"
           x="354.50787"
           y="421.47632" />
        <rect
           y="421.47632"
           x="425.37402"
           height="10.629921"
           width="35.433071"
           id="rect10765"
           style="fill:none;stroke:#ff0000;stroke-width:0.35433072;stroke-miterlimit:9.29090881;stroke-opacity:1;stroke-dasharray:none" />
        <rect
           style="fill:none;stroke:#ff0000;stroke-width:0.35433072;stroke-miterlimit:9.29090881;stroke-opacity:1;stroke-dasharray:none"
           id="rect10767"
           width="35.433071"
           height="10.629921"
           x="496.24017"
           y="421.47632" />
        <rect
           style="fill:none;stroke:#ff0000;stroke-width:0.35433072;stroke-miterlimit:9.29090881;stroke-opacity:1;stroke-dasharray:none"
           id="rect10769"
           width="35.433071"
           height="10.629921"
           x="567.10632"
           y="421.47632" />
        <rect
           y="421.47632"
           x="637.97247"
           height="10.629921"
           width="35.433071"
           id="rect10771"
           style="fill:none;stroke:#ff0000;stroke-width:0.35433072;stroke-miterlimit:9.29090881;stroke-opacity:1;stroke-dasharray:none" />
        <rect
           style="fill:none;stroke:#ff0000;stroke-width:0.35433072;stroke-miterlimit:9.29090881;stroke-opacity:1;stroke-dasharray:none"
           id="rect10773"
           width="35.433071"
           height="10.629921"
           x="708.83862"
           y="421.47632" />
        <rect
           y="421.47632"
           x="779.70477"
           height="10.629921"
           width="35.433071"
           id="rect10775"
           style="fill:none;stroke:#ff0000;stroke-width:0.35433072;stroke-miterlimit:9.29090881;stroke-opacity:1;stroke-dasharray:none" />
      </g>
    </g>
    <g
       transform="translate(0,-212.59842)"
       id="g10804">
      <path
         inkscape:connector-curvature="0"
         d="m 875.72827,307.60955 0,-24.67663 m 10.63,24.67663 -10.63,0 m 10.63,35.838 0,-35.838 m 0,35.838 -10.63,0 m 0,35.12937 0,-35.12937 m 10.63,35.12937 -10.63,0 m 10.63,35.838 0,-35.838 m 0,35.838 -10.63,0 m 0,35.12938 0,-35.12938 m 10.63,35.12938 -10.63,0 m 10.63,35.838 0,-35.838 m 0,35.838 -10.63,0 m 0,24.67663 0,-24.67663 M 10.807065,307.60955 l 0,-24.67663 m 0,24.67663 -10.62989964,0 m 0,35.838 0,-35.838 m 10.62989964,35.838 -10.62989964,0 m 10.62989964,35.12937 0,-35.12937 m 0,35.12937 -10.62989964,0 m 0,35.838 0,-35.838 m 10.62989964,35.838 -10.62989964,0 m 10.62989964,35.12938 0,-35.12938 m 0,35.12938 -10.62989964,0 m 0,35.838 0,-35.838 m 10.62989964,35.838 -10.62989964,0 m 10.62989964,24.67663 0,-24.67663 m 840.281105,-202.44938 24.6401,0 m -24.6401,-10.62987 0,10.62987 m -35.8015,-10.62987 35.8015,0 m -35.8015,0 0,10.62987 m -35.093,0 35.093,0 m -35.093,-10.62987 0,10.62987 m -35.8015,-10.62987 35.8015,0 m -35.8015,0 0,10.62987 m -35.093,0 35.093,0 m -35.093,-10.62987 0,10.62987 m -35.8015,-10.62987 35.8015,0 m -35.8015,0 0,10.62987 m -35.0929,0 35.0929,0 m -35.0929,-10.62987 0,10.62987 m -35.8016,-10.62987 35.8016,0 m -35.8016,0 0,10.62987 m -35.0929,0 35.0929,0 m -35.0929,-10.62987 0,10.62987 m -35.8016,-10.62987 35.8016,0 m -35.8016,0 0,10.62987 m -35.0929,0 35.0929,0 m -35.0929,-10.62987 0,10.62987 m -35.8016,-10.62987 35.8016,0 m -35.8016,0 0,10.62987 m -35.0929,0 35.0929,0 m -35.0929,-10.62987 0,10.62987 m -35.8016,-10.62987 35.8016,0 m -35.8016,0 0,10.62987 m -35.0929,0 35.0929,0 m -35.0929,-10.62987 0,10.62987 m -35.8016,-10.62987 35.8016,0 m -35.8016,0 0,10.62987 m -35.0929,0 35.0929,0 m -35.0929,-10.62987 0,10.62987 m -35.8016,-10.62987 35.8016,0 m -35.8016,0 0,10.62987 m -35.0929,0 35.0929,0 m -35.0929,-10.62987 0,10.62987 m -35.8016,-10.62987 35.8016,0 m -35.8016,0 0,10.62987 m -35.0929,0 35.0929,0 m -35.0929,-10.62987 0,10.62987 m -35.8015,-10.62987 35.8015,0 m -35.8015,0 0,10.62987 m -35.093005,0 35.093005,0 m -35.093005,-10.62987 0,10.62987 m -35.8015,-10.62987 35.8015,0 m -35.8015,0 0,10.62987 m -24.6402,0 24.6402,0 m 815.640905,227.12601 24.6401,0 m -24.6401,0 0,10.62999 m -35.8015,0 35.8015,0 m -35.8015,-10.62999 0,10.62999 m -35.093,-10.62999 35.093,0 m -35.093,0 0,10.62999 m -35.8015,0 35.8015,0 m -35.8015,-10.62999 0,10.62999 m -35.093,-10.62999 35.093,0 m -35.093,0 0,10.62999 m -35.8015,0 35.8015,0 m -35.8015,-10.62999 0,10.62999 m -35.0929,-10.62999 35.0929,0 m -35.0929,0 0,10.62999 m -35.8016,0 35.8016,0 m -35.8016,-10.62999 0,10.62999 m -35.0929,-10.62999 35.0929,0 m -35.0929,0 0,10.62999 m -35.8016,0 35.8016,0 m -35.8016,-10.62999 0,10.62999 m -35.0929,-10.62999 35.0929,0 m -35.0929,0 0,10.62999 m -35.8016,0 35.8016,0 m -35.8016,-10.62999 0,10.62999 m -35.0929,-10.62999 35.0929,0 m -35.0929,0 0,10.62999 m -35.8016,0 35.8016,0 m -35.8016,-10.62999 0,10.62999 m -35.0929,-10.62999 35.0929,0 m -35.0929,0 0,10.62999 m -35.8016,0 35.8016,0 m -35.8016,-10.62999 0,10.62999 m -35.0929,-10.62999 35.0929,0 m -35.0929,0 0,10.62999 m -35.8016,0 35.8016,0 m -35.8016,-10.62999 0,10.62999 m -35.0929,-10.62999 35.0929,0 m -35.0929,0 0,10.62999 m -35.8016,0 35.8016,0 m -35.8016,-10.62999 0,10.62999 m -35.0929,-10.62999 35.0929,0 m -35.0929,0 0,10.62999 m -35.8015,0 35.8015,0 m -35.8015,-10.62999 0,10.62999 m -35.093005,-10.62999 35.093005,0 m -35.093005,0 0,10.62999 m -35.8015,0 35.8015,0 m -35.8015,-10.62999 0,10.62999 m -24.6402,-10.62999 24.6402,0"
         style="fill:none;stroke:#ff0000;stroke-width:0.35433072;stroke-linecap:butt;stroke-linejoin:miter;stroke-miterlimit:10;stroke-opacity:1;stroke-dasharray:none"
         id="path10806" />
      <g
         id="g10808"
         transform="translate(0.11466036,5.5941009e-6)">
        <rect
           style="fill:none;stroke:#ff0000;stroke-width:0.35433072;stroke-miterlimit:9.29090881;stroke-opacity:1;stroke-dasharray:none"
           id="rect10810"
           width="35.433071"
           height="10.629921"
           x="71.043304"
           y="421.47632" />
        <rect
           y="421.47632"
           x="141.90944"
           height="10.629921"
           width="35.433071"
           id="rect10812"
           style="fill:none;stroke:#ff0000;stroke-width:0.35433072;stroke-miterlimit:9.29090881;stroke-opacity:1;stroke-dasharray:none" />
        <rect
           style="fill:none;stroke:#ff0000;stroke-width:0.35433072;stroke-miterlimit:9.29090881;stroke-opacity:1;stroke-dasharray:none"
           id="rect10814"
           width="35.433071"
           height="10.629921"
           x="212.77557"
           y="421.47632" />
        <rect
           y="421.47632"
           x="283.64172"
           height="10.629921"
           width="35.433071"
           id="rect10816"
           style="fill:none;stroke:#ff0000;stroke-width:0.35433072;stroke-miterlimit:9.29090881;stroke-opacity:1;stroke-dasharray:none" />
        <rect
           style="fill:none;stroke:#ff0000;stroke-width:0.35433072;stroke-miterlimit:9.29090881;stroke-opacity:1;stroke-dasharray:none"
           id="rect10818"
           width="35.433071"
           height="10.629921"
           x="354.50787"
           y="421.47632" />
        <rect
           y="421.47632"
           x="425.37402"
           height="10.629921"
           width="35.433071"
           id="rect10820"
           style="fill:none;stroke:#ff0000;stroke-width:0.35433072;stroke-miterlimit:9.29090881;stroke-opacity:1;stroke-dasharray:none" />
        <rect
           style="fill:none;stroke:#ff0000;stroke-width:0.35433072;stroke-miterlimit:9.29090881;stroke-opacity:1;stroke-dasharray:none"
           id="rect10822"
           width="35.433071"
           height="10.629921"
           x="496.24017"
           y="421.47632" />
        <rect
           style="fill:none;stroke:#ff0000;stroke-width:0.35433072;stroke-miterlimit:9.29090881;stroke-opacity:1;stroke-dasharray:none"
           id="rect10824"
           width="35.433071"
           height="10.629921"
           x="567.10632"
           y="421.47632" />
        <rect
           y="421.47632"
           x="637.97247"
           height="10.629921"
           width="35.433071"
           id="rect10826"
           style="fill:none;stroke:#ff0000;stroke-width:0.35433072;stroke-miterlimit:9.29090881;stroke-opacity:1;stroke-dasharray:none" />
        <rect
           style="fill:none;stroke:#ff0000;stroke-width:0.35433072;stroke-miterlimit:9.29090881;stroke-opacity:1;stroke-dasharray:none"
           id="rect10828"
           width="35.433071"
           height="10.629921"
           x="708.83862"
           y="421.47632" />
        <rect
           y="421.47632"
           x="779.70477"
           height="10.629921"
           width="35.433071"
           id="rect10830"
           style="fill:none;stroke:#ff0000;stroke-width:0.35433072;stroke-miterlimit:9.29090881;stroke-opacity:1;stroke-dasharray:none" />
      </g>
      <g
         transform="translate(0.11466036,-70.866136)"
         id="g10832">
        <rect
           y="421.47632"
           x="71.043304"
           height="10.629921"
           width="35.433071"
           id="rect10834"
           style="fill:none;stroke:#ff0000;stroke-width:0.35433072;stroke-miterlimit:9.29090881;stroke-opacity:1;stroke-dasharray:none" />
        <rect
           style="fill:none;stroke:#ff0000;stroke-width:0.35433072;stroke-miterlimit:9.29090881;stroke-opacity:1;stroke-dasharray:none"
           id="rect10836"
           width="35.433071"
           height="10.629921"
           x="141.90944"
           y="421.47632" />
        <rect
           y="421.47632"
           x="212.77557"
           height="10.629921"
           width="35.433071"
           id="rect10838"
           style="fill:none;stroke:#ff0000;stroke-width:0.35433072;stroke-miterlimit:9.29090881;stroke-opacity:1;stroke-dasharray:none" />
        <rect
           style="fill:none;stroke:#ff0000;stroke-width:0.35433072;stroke-miterlimit:9.29090881;stroke-opacity:1;stroke-dasharray:none"
           id="rect10840"
           width="35.433071"
           height="10.629921"
           x="283.64172"
           y="421.47632" />
        <rect
           y="421.47632"
           x="354.50787"
           height="10.629921"
           width="35.433071"
           id="rect10842"
           style="fill:none;stroke:#ff0000;stroke-width:0.35433072;stroke-miterlimit:9.29090881;stroke-opacity:1;stroke-dasharray:none" />
        <rect
           style="fill:none;stroke:#ff0000;stroke-width:0.35433072;stroke-miterlimit:9.29090881;stroke-opacity:1;stroke-dasharray:none"
           id="rect10844"
           width="35.433071"
           height="10.629921"
           x="425.37402"
           y="421.47632" />
        <rect
           y="421.47632"
           x="496.24017"
           height="10.629921"
           width="35.433071"
           id="rect10846"
           style="fill:none;stroke:#ff0000;stroke-width:0.35433072;stroke-miterlimit:9.29090881;stroke-opacity:1;stroke-dasharray:none" />
        <rect
           y="421.47632"
           x="567.10632"
           height="10.629921"
           width="35.433071"
           id="rect10848"
           style="fill:none;stroke:#ff0000;stroke-width:0.35433072;stroke-miterlimit:9.29090881;stroke-opacity:1;stroke-dasharray:none" />
        <rect
           style="fill:none;stroke:#ff0000;stroke-width:0.35433072;stroke-miterlimit:9.29090881;stroke-opacity:1;stroke-dasharray:none"
           id="rect10850"
           width="35.433071"
           height="10.629921"
           x="637.97247"
           y="421.47632" />
        <rect
           y="421.47632"
           x="708.83862"
           height="10.629921"
           width="35.433071"
           id="rect10852"
           style="fill:none;stroke:#ff0000;stroke-width:0.35433072;stroke-miterlimit:9.29090881;stroke-opacity:1;stroke-dasharray:none" />
        <rect
           style="fill:none;stroke:#ff0000;stroke-width:0.35433072;stroke-miterlimit:9.29090881;stroke-opacity:1;stroke-dasharray:none"
           id="rect10854"
           width="35.433071"
           height="10.629921"
           x="779.70477"
           y="421.47632" />
      </g>
    </g>
  </g>
</svg>
