solid OpenSCAD_Model
  facet normal 0 -1 0
    outer loop
      vertex -13.2 -42.004999999999995 4
      vertex -8.37157287525381 -42.004999999999995 2
      vertex -11.2 -42.004999999999995 4.828427124746188
    endloop
  endfacet
  facet normal 0 -1 0
    outer loop
      vertex -13.2 -42.004999999999995 4
      vertex -9.2 -42.004999999999995 0
      vertex -8.37157287525381 -42.004999999999995 2
    endloop
  endfacet
  facet normal -0.7071067811865475 0 -0.7071067811865475
    outer loop
      vertex -13.2 -42.004999999999995 4
      vertex -9.2 -12.504999999999995 0
      vertex -9.2 -42.004999999999995 0
    endloop
  endfacet
  facet normal 0.7071067811865474 0 0.7071067811865478
    outer loop
      vertex -11.2 -42.004999999999995 4.828427124746188
      vertex -8.37157287525381 -42.004999999999995 2
      vertex -11.2 -12.504999999999995 4.828427124746188
    endloop
  endfacet
  facet normal -0.7071067811865475 0 -0.7071067811865475
    outer loop
      vertex -13.2 -42.004999999999995 4
      vertex -13.2 -12.504999999999995 4
      vertex -9.2 -12.504999999999995 0
    endloop
  endfacet
  facet normal 0 -1 0
    outer loop
      vertex -9.2 -42.004999999999995 0
      vertex -8.799999999999999 -42.004999999999995 0
      vertex -8.37157287525381 -42.004999999999995 2
    endloop
  endfacet
  facet normal 0 -1 0
    outer loop
      vertex -8.799999999999999 -42.004999999999995 0
      vertex -8.79 -42.004999999999995 0
      vertex -8.37157287525381 -42.004999999999995 2
    endloop
  endfacet
  facet normal 0 0 -1
    outer loop
      vertex -9.2 -42.004999999999995 0
      vertex -8.799999999999999 -12.504999999999995 0
      vertex -8.799999999999999 -42.004999999999995 0
    endloop
  endfacet
  facet normal 0 0 -1
    outer loop
      vertex -8.799999999999999 -42.004999999999995 0
      vertex -8.79 -12.504999999999995 0
      vertex -8.79 -42.004999999999995 0
    endloop
  endfacet
  facet normal 0 0 -1
    outer loop
      vertex -9.2 -42.004999999999995 0
      vertex -9.2 -12.504999999999995 0
      vertex -8.799999999999999 -12.504999999999995 0
    endloop
  endfacet
  facet normal 0 0 -1
    outer loop
      vertex -8.799999999999999 -42.004999999999995 0
      vertex -8.799999999999999 -12.504999999999995 0
      vertex -8.79 -12.504999999999995 0
    endloop
  endfacet
  facet normal 0.7071067811865474 0 0.7071067811865478
    outer loop
      vertex -8.37157287525381 -42.004999999999995 2
      vertex -8.37157287525381 -12.504999999999995 2
      vertex -11.2 -12.504999999999995 4.828427124746188
    endloop
  endfacet
  facet normal 0 -1 0
    outer loop
      vertex -13.2 -42.004999999999995 4
      vertex -11.2 -42.004999999999995 4.828427124746188
      vertex -13.2 -42.004999999999995 28.6
    endloop
  endfacet
  facet normal -1 0 0
    outer loop
      vertex -13.2 -42.004999999999995 4
      vertex -13.2 -42.004999999999995 28.6
      vertex -13.2 -12.504999999999995 4
    endloop
  endfacet
  facet normal 1 0 0
    outer loop
      vertex -11.2 -42.004999999999995 4.828427124746188
      vertex -11.2 -12.504999999999995 4.828427124746188
      vertex -11.2 -12.504999999999995 28.6
    endloop
  endfacet
  facet normal -0.6574396037977712 0.3681661781267519 -0.6574396037977712
    outer loop
      vertex -13.2 -12.504999999999995 4
      vertex -9.2 12.495000000000005 14
      vertex -9.2 -12.504999999999995 0
    endloop
  endfacet
  facet normal 0 0.4886033689318432 -0.87250601594972
    outer loop
      vertex -9.2 -12.504999999999995 0
      vertex -8.799999999999999 12.495000000000005 14
      vertex -8.799999999999999 -12.504999999999995 0
    endloop
  endfacet
  facet normal 0 0.48860336893184325 -0.8725060159497201
    outer loop
      vertex -8.799999999999999 -12.504999999999995 0
      vertex -8.79 12.495000000000005 14
      vertex -8.79 -12.504999999999995 0
    endloop
  endfacet
  facet normal 0.6574396037977709 -0.368166178126752 0.6574396037977713
    outer loop
      vertex -11.2 -12.504999999999995 4.828427124746188
      vertex -8.37157287525381 -12.504999999999995 2
      vertex -8.371572875253808 12.495000000000005 16
    endloop
  endfacet
  facet normal 0 -1 0
    outer loop
      vertex -8.79 -42.004999999999995 0
      vertex 8.371572875253808 -42.004999999999995 2
      vertex -8.37157287525381 -42.004999999999995 2
    endloop
  endfacet
  facet normal 0 0 1
    outer loop
      vertex -8.37157287525381 -42.004999999999995 2
      vertex 8.371572875253808 -42.004999999999995 2
      vertex -8.37157287525381 -12.504999999999995 2
    endloop
  endfacet
  facet normal 0 0 -1
    outer loop
      vertex -8.79 -42.004999999999995 0
      vertex -8.79 -12.504999999999995 0
      vertex 8.79 -12.504999999999995 0
    endloop
  endfacet
  facet normal 0 -0.4886033689318432 0.87250601594972
    outer loop
      vertex -8.37157287525381 -12.504999999999995 2
      vertex 8.371572875253808 -12.504999999999995 2
      vertex -8.371572875253808 12.495000000000005 16
    endloop
  endfacet
  facet normal 0 -1 0
    outer loop
      vertex -11.2 -42.004999999999995 4.828427124746188
      vertex -11.2 -42.004999999999995 28.6
      vertex -13.2 -42.004999999999995 28.6
    endloop
  endfacet
  facet normal 1 0 0
    outer loop
      vertex -11.2 -42.004999999999995 4.828427124746188
      vertex -11.2 -35.505 28.6
      vertex -11.2 -42.004999999999995 28.6
    endloop
  endfacet
  facet normal 1 0 0
    outer loop
      vertex -11.2 -42.004999999999995 4.828427124746188
      vertex -11.2 -20.505000000000003 28.6
      vertex -11.2 -35.505 28.6
    endloop
  endfacet
  facet normal -1 0 0
    outer loop
      vertex -13.2 -12.504999999999995 4
      vertex -13.2 -42.004999999999995 28.6
      vertex -13.2 -12.504999999999995 28.6
    endloop
  endfacet
  facet normal 1 0 0
    outer loop
      vertex -11.2 -12.504999999999995 28.6
      vertex -11.2 -20.505000000000003 28.6
      vertex -11.2 -42.004999999999995 4.828427124746188
    endloop
  endfacet
  facet normal 0 0 1
    outer loop
      vertex -13.2 -42.004999999999995 28.6
      vertex -11.2 -42.004999999999995 28.6
      vertex -12.499999997019767 -35.505 28.6
    endloop
  endfacet
  facet normal 0 0 1
    outer loop
      vertex -11.2 -42.004999999999995 28.6
      vertex -11.2 -35.505 28.6
      vertex -12.499999997019767 -35.505 28.6
    endloop
  endfacet
  facet normal 0 0 1
    outer loop
      vertex -13.2 -42.004999999999995 28.6
      vertex -12.499999997019767 -35.505 28.6
      vertex -12.499999997019767 -20.505000000000003 28.6
    endloop
  endfacet
  facet normal 0 -1 0
    outer loop
      vertex -12.499999997019767 -35.505 29.999999998509885
      vertex -12.499999997019767 -35.505 28.6
      vertex -11.2 -35.505 28.6
    endloop
  endfacet
  facet normal 0 -1 0
    outer loop
      vertex -12.499999997019767 -35.505 29.999999998509885
      vertex -11.2 -35.505 28.6
      vertex -11.2 -35.505 30
    endloop
  endfacet
  facet normal 0 -0.7071067811865476 0.7071067811865476
    outer loop
      vertex -12.499999998062847 -35.505 30
      vertex -12.499999997019767 -33.50500000149012 31.999999998509885
      vertex -13.2 -34.50500000149012 30.999999998509885
    endloop
  endfacet
  facet normal 0 -0.7071067811865476 0.7071067811865476
    outer loop
      vertex -13.2 -34.50500000149012 30.999999998509885
      vertex -12.499999997019767 -33.50500000149012 31.999999998509885
      vertex -13.2 -33.905 31.6
    endloop
  endfacet
  facet normal 0 -1 0
    outer loop
      vertex -12.499999997019767 -35.505 29.999999998509885
      vertex -11.2 -35.505 30
      vertex -12.499999998062847 -35.505 30
    endloop
  endfacet
  facet normal 0 -0.7071067811865476 0.7071067811865476
    outer loop
      vertex -12.499999998062847 -35.505 30
      vertex -11.2 -35.505 30
      vertex -12.499999997019767 -33.50500000149012 31.999999998509885
    endloop
  endfacet
  facet normal 0 -0.7071067811865475 0.7071067811865475
    outer loop
      vertex -11.2 -35.505 30
      vertex -11.2 -33.50500000149012 31.999999998509885
      vertex -12.499999997019767 -33.50500000149012 31.999999998509885
    endloop
  endfacet
  facet normal 1 0 0
    outer loop
      vertex -11.2 -35.505 30
      vertex -11.2 -35.505 28.6
      vertex -11.2 -33.50500000149012 31.999999998509885
    endloop
  endfacet
  facet normal -1 0 0
    outer loop
      vertex -12.499999997019767 -35.505 29.999999998509885
      vertex -12.499999997019767 -20.505000000000003 29.999999998509885
      vertex -12.499999997019767 -35.505 28.6
    endloop
  endfacet
  facet normal -0.8192319193720264 0 -0.5734623460019198
    outer loop
      vertex -12.499999998062847 -35.505 30
      vertex -13.2 -34.50500000149012 30.999999998509885
      vertex -13.2 -21.504999998509888 30.999999998509885
    endloop
  endfacet
  facet normal -0.8192319205190405 -1.7439295573571838e-10 -0.5734623443633283
    outer loop
      vertex -12.499999997019767 -35.505 29.999999998509885
      vertex -12.499999998062847 -35.505 30
      vertex -13.2 -21.504999998509888 30.999999998509885
    endloop
  endfacet
  facet normal -1 0 0
    outer loop
      vertex -13.2 -34.50500000149012 30.999999998509885
      vertex -13.2 -33.905 31.6
      vertex -13.2 -22.105000000000004 31.6
    endloop
  endfacet
  facet normal -0.49613893537118053 0 0.8682431438305468
    outer loop
      vertex -13.2 -33.905 31.6
      vertex -12.499999997019767 -33.50500000149012 31.999999998509885
      vertex -12.499999997019767 -22.504999998509888 31.999999998509885
    endloop
  endfacet
  facet normal 0 0 1
    outer loop
      vertex -12.499999997019767 -33.50500000149012 31.999999998509885
      vertex -11.2 -33.50500000149012 31.999999998509885
      vertex -11.2 -22.504999998509888 31.999999998509885
    endloop
  endfacet
  facet normal 0 0 1
    outer loop
      vertex -13.2 -42.004999999999995 28.6
      vertex -12.499999997019767 -20.505000000000003 28.6
      vertex -13.2 -12.504999999999995 28.6
    endloop
  endfacet
  facet normal -1 0 0
    outer loop
      vertex -12.499999997019767 -20.505000000000003 29.999999998509885
      vertex -12.499999997019767 -20.505000000000003 28.6
      vertex -12.499999997019767 -35.505 28.6
    endloop
  endfacet
  facet normal -0.8192319193720264 0 -0.5734623460019198
    outer loop
      vertex -12.499999997019767 -35.505 29.999999998509885
      vertex -13.2 -21.504999998509888 30.999999998509885
      vertex -12.499999997019767 -20.505000000000003 29.999999998509885
    endloop
  endfacet
  facet normal -1 0 0
    outer loop
      vertex -13.2 -34.50500000149012 30.999999998509885
      vertex -13.2 -22.105000000000004 31.6
      vertex -13.2 -21.504999998509888 30.999999998509885
    endloop
  endfacet
  facet normal -0.4961389353711805 0 0.8682431438305468
    outer loop
      vertex -13.2 -33.905 31.6
      vertex -12.499999997019767 -22.504999998509888 31.999999998509885
      vertex -13.2 -22.105000000000004 31.6
    endloop
  endfacet
  facet normal 0 0.7071067811865476 0.7071067811865476
    outer loop
      vertex -13.2 -21.504999998509888 30.999999998509885
      vertex -13.2 -22.105000000000004 31.6
      vertex -12.499999997019767 -22.504999998509888 31.999999998509885
    endloop
  endfacet
  facet normal 0 0.7071067811865476 0.7071067811865476
    outer loop
      vertex -12.499999998062847 -20.505000000000003 30
      vertex -13.2 -21.504999998509888 30.999999998509885
      vertex -12.499999997019767 -22.504999998509888 31.999999998509885
    endloop
  endfacet
  facet normal 0 0 1
    outer loop
      vertex -12.499999997019767 -33.50500000149012 31.999999998509885
      vertex -11.2 -22.504999998509888 31.999999998509885
      vertex -12.499999997019767 -22.504999998509888 31.999999998509885
    endloop
  endfacet
  facet normal 0 0.7071067811865476 0.7071067811865476
    outer loop
      vertex -12.499999998062847 -20.505000000000003 30
      vertex -11.2 -22.504999998509888 31.999999998509885
      vertex -11.2 -20.505000000000003 30
    endloop
  endfacet
  facet normal 0 0.7071067811865475 0.7071067811865475
    outer loop
      vertex -12.499999998062847 -20.505000000000003 30
      vertex -12.499999997019767 -22.504999998509888 31.999999998509885
      vertex -11.2 -22.504999998509888 31.999999998509885
    endloop
  endfacet
  facet normal 1 0 0
    outer loop
      vertex -11.2 -33.50500000149012 31.999999998509885
      vertex -11.2 -35.505 28.6
      vertex -11.2 -20.505000000000003 28.6
    endloop
  endfacet
  facet normal 1 0 0
    outer loop
      vertex -11.2 -20.505000000000003 30
      vertex -11.2 -33.50500000149012 31.999999998509885
      vertex -11.2 -20.505000000000003 28.6
    endloop
  endfacet
  facet normal 1 0 0
    outer loop
      vertex -11.2 -20.505000000000003 30
      vertex -11.2 -22.504999998509888 31.999999998509885
      vertex -11.2 -33.50500000149012 31.999999998509885
    endloop
  endfacet
  facet normal -1 0 0
    outer loop
      vertex -13.2 -12.504999999999995 4
      vertex -13.2 -12.504999999999995 28.6
      vertex -13.2 12.495000000000005 18
    endloop
  endfacet
  facet normal 1 0 0
    outer loop
      vertex -11.2 -12.504999999999995 4.828427124746188
      vertex -11.2 12.495000000000005 18.82842712474619
      vertex -11.2 -12.504999999999995 28.6
    endloop
  endfacet
  facet normal 0 1 0
    outer loop
      vertex -12.499999997019767 -20.505000000000003 29.999999998509885
      vertex -11.2 -20.505000000000003 28.6
      vertex -12.499999997019767 -20.505000000000003 28.6
    endloop
  endfacet
  facet normal 0 1 0
    outer loop
      vertex -12.499999997019767 -20.505000000000003 29.999999998509885
      vertex -12.499999998062847 -20.505000000000003 30
      vertex -11.2 -20.505000000000003 28.6
    endloop
  endfacet
  facet normal 0 1 0
    outer loop
      vertex -12.499999998062847 -20.505000000000003 30
      vertex -11.2 -20.505000000000003 30
      vertex -11.2 -20.505000000000003 28.6
    endloop
  endfacet
  facet normal 0 0 1
    outer loop
      vertex -11.2 -12.504999999999995 28.6
      vertex -12.499999997019767 -20.505000000000003 28.6
      vertex -11.2 -20.505000000000003 28.6
    endloop
  endfacet
  facet normal -0.8192319205190405 2.44150138419804e-9 -0.5734623443633284
    outer loop
      vertex -12.499999997019767 -20.505000000000003 29.999999998509885
      vertex -13.2 -21.504999998509888 30.999999998509885
      vertex -12.499999998062847 -20.505000000000003 30
    endloop
  endfacet
  facet normal 0 0 1
    outer loop
      vertex -13.2 -12.504999999999995 28.6
      vertex -12.499999997019767 -20.505000000000003 28.6
      vertex -11.2 -12.504999999999995 28.6
    endloop
  endfacet
  facet normal 0 0 1
    outer loop
      vertex -13.2 -12.504999999999995 28.6
      vertex -11.2 -12.504999999999995 28.6
      vertex -12.499999997019767 -7.5049999999999955 28.6
    endloop
  endfacet
  facet normal 1 0 0
    outer loop
      vertex -11.2 -12.504999999999995 28.6
      vertex -11.2 12.495000000000005 18.82842712474619
      vertex -11.2 -7.5049999999999955 28.6
    endloop
  endfacet
  facet normal 0 0 1
    outer loop
      vertex -11.2 -12.504999999999995 28.6
      vertex -11.2 -7.5049999999999955 28.6
      vertex -12.499999997019767 -7.5049999999999955 28.6
    endloop
  endfacet
  facet normal 0 -1 0
    outer loop
      vertex -11.2 -7.5049999999999955 28.6
      vertex -12.499999997019767 -7.5049999999999955 29.999999998509885
      vertex -12.499999997019767 -7.5049999999999955 28.6
    endloop
  endfacet
  facet normal 0 -1 0
    outer loop
      vertex -11.2 -7.5049999999999955 28.6
      vertex -11.2 -7.5049999999999955 30
      vertex -12.499999997019767 -7.5049999999999955 29.999999998509885
    endloop
  endfacet
  facet normal 0 -0.7071067811865476 0.7071067811865476
    outer loop
      vertex -13.2 -6.50500000149011 30.999999998509885
      vertex -12.499999997019767 -5.50500000149011 31.999999998509885
      vertex -13.2 -5.904999999999994 31.6
    endloop
  endfacet
  facet normal 0 -0.7071067811865476 0.7071067811865476
    outer loop
      vertex -12.499999998062847 -7.5049999999999955 30
      vertex -12.499999997019767 -5.50500000149011 31.999999998509885
      vertex -13.2 -6.50500000149011 30.999999998509885
    endloop
  endfacet
  facet normal 0 -1 0
    outer loop
      vertex -12.499999997019767 -7.5049999999999955 29.999999998509885
      vertex -11.2 -7.5049999999999955 30
      vertex -12.499999998062847 -7.5049999999999955 30
    endloop
  endfacet
  facet normal 0 -0.7071067811865476 0.7071067811865476
    outer loop
      vertex -12.499999998062847 -7.5049999999999955 30
      vertex -11.2 -7.5049999999999955 30
      vertex -12.499999997019767 -5.50500000149011 31.999999998509885
    endloop
  endfacet
  facet normal 0 -0.7071067811865475 0.7071067811865475
    outer loop
      vertex -11.2 -7.5049999999999955 30
      vertex -11.2 -5.50500000149011 31.999999998509885
      vertex -12.499999997019767 -5.50500000149011 31.999999998509885
    endloop
  endfacet
  facet normal 0 0 1
    outer loop
      vertex -13.2 -12.504999999999995 28.6
      vertex -12.499999997019767 -7.5049999999999955 28.6
      vertex -12.499999997019767 7.4950000000000045 28.6
    endloop
  endfacet
  facet normal -1 0 0
    outer loop
      vertex -12.499999997019767 -7.5049999999999955 29.999999998509885
      vertex -12.499999997019767 7.4950000000000045 29.999999998509885
      vertex -12.499999997019767 -7.5049999999999955 28.6
    endloop
  endfacet
  facet normal -0.8192319205190405 -1.7439295573571838e-10 -0.5734623443633283
    outer loop
      vertex -12.499999997019767 -7.5049999999999955 29.999999998509885
      vertex -12.499999998062847 -7.5049999999999955 30
      vertex -13.2 6.495000001490119 30.999999998509885
    endloop
  endfacet
  facet normal -0.8192319193720264 0 -0.5734623460019198
    outer loop
      vertex -12.499999998062847 -7.5049999999999955 30
      vertex -13.2 -6.50500000149011 30.999999998509885
      vertex -13.2 6.495000001490119 30.999999998509885
    endloop
  endfacet
  facet normal -1 0 0
    outer loop
      vertex -13.2 -6.50500000149011 30.999999998509885
      vertex -13.2 -5.904999999999994 31.6
      vertex -13.2 5.895000000000003 31.6
    endloop
  endfacet
  facet normal -0.49613893537118053 0 0.8682431438305468
    outer loop
      vertex -13.2 -5.904999999999994 31.6
      vertex -12.499999997019767 -5.50500000149011 31.999999998509885
      vertex -12.499999997019767 5.495000001490119 31.999999998509885
    endloop
  endfacet
  facet normal 0 0 1
    outer loop
      vertex -12.499999997019767 -5.50500000149011 31.999999998509885
      vertex -11.2 -5.50500000149011 31.999999998509885
      vertex -11.2 5.495000001490119 31.999999998509885
    endloop
  endfacet
  facet normal 1 0 0
    outer loop
      vertex -11.2 -7.5049999999999955 28.6
      vertex -11.2 -5.50500000149011 31.999999998509885
      vertex -11.2 -7.5049999999999955 30
    endloop
  endfacet
  facet normal 1 0 0
    outer loop
      vertex -11.2 -7.5049999999999955 28.6
      vertex -11.2 7.4950000000000045 28.6
      vertex -11.2 -5.50500000149011 31.999999998509885
    endloop
  endfacet
  facet normal -0.6574396037977712 0.3681661781267519 -0.6574396037977712
    outer loop
      vertex -13.2 -12.504999999999995 4
      vertex -13.2 12.495000000000005 18
      vertex -9.2 12.495000000000005 14
    endloop
  endfacet
  facet normal 0.6574396037977713 -0.36816617812675195 0.6574396037977711
    outer loop
      vertex -11.2 -12.504999999999995 4.828427124746188
      vertex -8.371572875253808 12.495000000000005 16
      vertex -11.2 12.495000000000005 18.82842712474619
    endloop
  endfacet
  facet normal 0 0.4886033689318432 -0.87250601594972
    outer loop
      vertex -9.2 -12.504999999999995 0
      vertex -9.2 12.495000000000005 14
      vertex -8.799999999999999 12.495000000000005 14
    endloop
  endfacet
  facet normal 0 0.48860336893184325 -0.8725060159497201
    outer loop
      vertex -8.799999999999999 -12.504999999999995 0
      vertex -8.799999999999999 12.495000000000005 14
      vertex -8.79 12.495000000000005 14
    endloop
  endfacet
  facet normal -0.7071067811865475 0 -0.7071067811865475
    outer loop
      vertex -9.2 12.495000000000005 14
      vertex -13.2 12.495000000000005 18
      vertex -9.2 41.995000000000005 14
    endloop
  endfacet
  facet normal 0 0 -1
    outer loop
      vertex -9.2 12.495000000000005 14
      vertex -8.799999999999999 41.995000000000005 14
      vertex -8.799999999999999 12.495000000000005 14
    endloop
  endfacet
  facet normal 0 0 -1
    outer loop
      vertex -8.799999999999999 12.495000000000005 14
      vertex -8.79 41.995000000000005 14
      vertex -8.79 12.495000000000005 14
    endloop
  endfacet
  facet normal 0 0 -1
    outer loop
      vertex -9.2 12.495000000000005 14
      vertex -9.2 41.995000000000005 14
      vertex -8.799999999999999 41.995000000000005 14
    endloop
  endfacet
  facet normal 0 0 -1
    outer loop
      vertex -8.799999999999999 12.495000000000005 14
      vertex -8.799999999999999 41.995000000000005 14
      vertex -8.79 41.995000000000005 14
    endloop
  endfacet
  facet normal 0 1 0
    outer loop
      vertex -9.2 41.995000000000005 14
      vertex -8.371572875253808 41.995000000000005 16
      vertex -8.799999999999999 41.995000000000005 14
    endloop
  endfacet
  facet normal 0 1 0
    outer loop
      vertex -8.799999999999999 41.995000000000005 14
      vertex -8.371572875253808 41.995000000000005 16
      vertex -8.79 41.995000000000005 14
    endloop
  endfacet
  facet normal 0 0.48860336893184325 -0.8725060159497201
    outer loop
      vertex -8.79 -12.504999999999995 0
      vertex -8.79 12.495000000000005 14
      vertex 8.79 12.495000000000005 14
    endloop
  endfacet
  facet normal 0 0 -1
    outer loop
      vertex -8.79 12.495000000000005 14
      vertex -8.79 41.995000000000005 14
      vertex 8.79 41.995000000000005 14
    endloop
  endfacet
  facet normal 0 1 0
    outer loop
      vertex -8.79 41.995000000000005 14
      vertex -8.371572875253808 41.995000000000005 16
      vertex 8.79 41.995000000000005 14
    endloop
  endfacet
  facet normal -1 0 0
    outer loop
      vertex -13.2 -12.504999999999995 28.6
      vertex -13.2 12.495000000000005 28.6
      vertex -13.2 12.495000000000005 18
    endloop
  endfacet
  facet normal 1 0 0
    outer loop
      vertex -11.2 12.495000000000005 18.82842712474619
      vertex -11.2 7.4950000000000045 28.6
      vertex -11.2 -7.5049999999999955 28.6
    endloop
  endfacet
  facet normal 0 0 1
    outer loop
      vertex -13.2 -12.504999999999995 28.6
      vertex -12.499999997019767 7.4950000000000045 28.6
      vertex -13.2 12.495000000000005 28.6
    endloop
  endfacet
  facet normal -1 0 0
    outer loop
      vertex -12.499999997019767 7.4950000000000045 29.999999998509885
      vertex -12.499999997019767 7.4950000000000045 28.6
      vertex -12.499999997019767 -7.5049999999999955 28.6
    endloop
  endfacet
  facet normal -0.8192319193720264 0 -0.5734623460019198
    outer loop
      vertex -12.499999997019767 -7.5049999999999955 29.999999998509885
      vertex -13.2 6.495000001490119 30.999999998509885
      vertex -12.499999997019767 7.4950000000000045 29.999999998509885
    endloop
  endfacet
  facet normal -1 0 0
    outer loop
      vertex -13.2 -6.50500000149011 30.999999998509885
      vertex -13.2 5.895000000000003 31.6
      vertex -13.2 6.495000001490119 30.999999998509885
    endloop
  endfacet
  facet normal -0.4961389353711805 0 0.8682431438305468
    outer loop
      vertex -13.2 -5.904999999999994 31.6
      vertex -12.499999997019767 5.495000001490119 31.999999998509885
      vertex -13.2 5.895000000000003 31.6
    endloop
  endfacet
  facet normal 0 0 1
    outer loop
      vertex -12.499999997019767 -5.50500000149011 31.999999998509885
      vertex -11.2 5.495000001490119 31.999999998509885
      vertex -12.499999997019767 5.495000001490119 31.999999998509885
    endloop
  endfacet
  facet normal 0 1 0
    outer loop
      vertex -12.499999997019767 7.4950000000000045 29.999999998509885
      vertex -11.2 7.4950000000000045 28.6
      vertex -12.499999997019767 7.4950000000000045 28.6
    endloop
  endfacet
  facet normal 0 1 0
    outer loop
      vertex -11.2 7.4950000000000045 28.6
      vertex -12.499999997019767 7.4950000000000045 29.999999998509885
      vertex -12.499999998062847 7.4950000000000045 30
    endloop
  endfacet
  facet normal 0 1 0
    outer loop
      vertex -11.2 7.4950000000000045 28.6
      vertex -12.499999998062847 7.4950000000000045 30
      vertex -11.2 7.4950000000000045 30
    endloop
  endfacet
  facet normal 0 0 1
    outer loop
      vertex -11.200000000000003 12.495000000000005 28.6
      vertex -12.499999997019767 7.4950000000000045 28.6
      vertex -11.2 7.4950000000000045 28.6
    endloop
  endfacet
  facet normal -0.8192319205190405 2.44150138419804e-9 -0.5734623443633284
    outer loop
      vertex -12.499999997019767 7.4950000000000045 29.999999998509885
      vertex -13.2 6.495000001490119 30.999999998509885
      vertex -12.499999998062847 7.4950000000000045 30
    endloop
  endfacet
  facet normal 0 0.7071067811865476 0.7071067811865476
    outer loop
      vertex -13.2 6.495000001490119 30.999999998509885
      vertex -13.2 5.895000000000003 31.6
      vertex -12.499999997019767 5.495000001490119 31.999999998509885
    endloop
  endfacet
  facet normal 0 0.7071067811865476 0.7071067811865476
    outer loop
      vertex -12.499999998062847 7.4950000000000045 30
      vertex -13.2 6.495000001490119 30.999999998509885
      vertex -12.499999997019767 5.495000001490119 31.999999998509885
    endloop
  endfacet
  facet normal 0 0.7071067811865476 0.7071067811865476
    outer loop
      vertex -12.499999998062847 7.4950000000000045 30
      vertex -11.2 5.495000001490119 31.999999998509885
      vertex -11.2 7.4950000000000045 30
    endloop
  endfacet
  facet normal 0 0.7071067811865475 0.7071067811865475
    outer loop
      vertex -12.499999998062847 7.4950000000000045 30
      vertex -12.499999997019767 5.495000001490119 31.999999998509885
      vertex -11.2 5.495000001490119 31.999999998509885
    endloop
  endfacet
  facet normal 1 0 0
    outer loop
      vertex -11.2 -5.50500000149011 31.999999998509885
      vertex -11.2 7.4950000000000045 30
      vertex -11.2 5.495000001490119 31.999999998509885
    endloop
  endfacet
  facet normal 1 0 0
    outer loop
      vertex -11.2 -5.50500000149011 31.999999998509885
      vertex -11.2 7.4950000000000045 28.6
      vertex -11.2 7.4950000000000045 30
    endloop
  endfacet
  facet normal 1 7.105427357601002e-16 3.6357643996061605e-16
    outer loop
      vertex -11.2 12.495000000000005 18.82842712474619
      vertex -11.200000000000003 12.495000000000005 28.6
      vertex -11.2 7.4950000000000045 28.6
    endloop
  endfacet
  facet normal 1 -4.440892098500626e-16 3.6357643996061605e-16
    outer loop
      vertex -11.2 12.495000000000005 18.82842712474619
      vertex -11.2 20.495000000000005 28.6
      vertex -11.200000000000003 12.495000000000005 28.6
    endloop
  endfacet
  facet normal 0 0 1
    outer loop
      vertex -13.2 12.495000000000005 28.6
      vertex -12.499999997019767 7.4950000000000045 28.6
      vertex -11.200000000000003 12.495000000000005 28.6
    endloop
  endfacet
  facet normal 0 0 1
    outer loop
      vertex -13.2 12.495000000000005 28.6
      vertex -11.200000000000003 12.495000000000005 28.6
      vertex -12.499999997019767 20.495000000000005 28.6
    endloop
  endfacet
  facet normal 0 0 1
    outer loop
      vertex -11.200000000000003 12.495000000000005 28.6
      vertex -11.2 20.495000000000005 28.6
      vertex -12.499999997019767 20.495000000000005 28.6
    endloop
  endfacet
  facet normal 0 -1 0
    outer loop
      vertex -12.499999997019767 20.495000000000005 29.999999998509885
      vertex -12.499999997019767 20.495000000000005 28.6
      vertex -11.2 20.495000000000005 28.6
    endloop
  endfacet
  facet normal 0 -1 0
    outer loop
      vertex -11.2 20.495000000000005 28.6
      vertex -11.2 20.495000000000005 30
      vertex -12.499999997019767 20.495000000000005 29.999999998509885
    endloop
  endfacet
  facet normal 0 -1 0
    outer loop
      vertex -12.499999997019767 20.495000000000005 29.999999998509885
      vertex -11.2 20.495000000000005 30
      vertex -12.499999998062847 20.495000000000005 30
    endloop
  endfacet
  facet normal 0.7071067811865475 0 0.7071067811865475
    outer loop
      vertex -11.2 12.495000000000005 18.82842712474619
      vertex -8.371572875253808 12.495000000000005 16
      vertex -11.2 41.995000000000005 18.82842712474619
    endloop
  endfacet
  facet normal -1 0 0
    outer loop
      vertex -13.2 12.495000000000005 18
      vertex -13.2 12.495000000000005 28.6
      vertex -13.2 41.995000000000005 18
    endloop
  endfacet
  facet normal -0.7071067811865475 0 -0.7071067811865475
    outer loop
      vertex -9.2 41.995000000000005 14
      vertex -13.2 12.495000000000005 18
      vertex -13.2 41.995000000000005 18
    endloop
  endfacet
  facet normal 0 1 0
    outer loop
      vertex -13.2 41.995000000000005 18
      vertex -11.2 41.995000000000005 18.82842712474619
      vertex -8.371572875253808 41.995000000000005 16
    endloop
  endfacet
  facet normal 0 1 0
    outer loop
      vertex -9.2 41.995000000000005 14
      vertex -13.2 41.995000000000005 18
      vertex -8.371572875253808 41.995000000000005 16
    endloop
  endfacet
  facet normal 0 1 0
    outer loop
      vertex -13.2 41.995000000000005 18
      vertex -13.2 41.995000000000005 28.6
      vertex -11.2 41.995000000000005 18.82842712474619
    endloop
  endfacet
  facet normal 1 0 3.6357643996061605e-16
    outer loop
      vertex -11.2 12.495000000000005 18.82842712474619
      vertex -11.2 41.995000000000005 18.82842712474619
      vertex -11.200000000000003 41.995000000000005 28.6
    endloop
  endfacet
  facet normal 0.7071067811865475 0 0.7071067811865475
    outer loop
      vertex -8.371572875253808 12.495000000000005 16
      vertex -8.371572875253808 41.995000000000005 16
      vertex -11.2 41.995000000000005 18.82842712474619
    endloop
  endfacet
  facet normal 1 0 0
    outer loop
      vertex -11.2 12.495000000000005 18.82842712474619
      vertex -11.2 35.495000000000005 28.6
      vertex -11.2 20.495000000000005 28.6
    endloop
  endfacet
  facet normal 1 5.465713352000771e-16 -1.2865012490914106e-15
    outer loop
      vertex -11.2 12.495000000000005 18.82842712474619
      vertex -11.200000000000003 41.995000000000005 28.6
      vertex -11.2 35.495000000000005 28.6
    endloop
  endfacet
  facet normal 0 0 1
    outer loop
      vertex -13.2 12.495000000000005 28.6
      vertex -12.499999997019767 20.495000000000005 28.6
      vertex -12.499999997019767 35.495000000000005 28.6
    endloop
  endfacet
  facet normal -1 0 0
    outer loop
      vertex -12.499999997019767 20.495000000000005 29.999999998509885
      vertex -12.499999997019767 35.495000000000005 29.999999998509885
      vertex -12.499999997019767 20.495000000000005 28.6
    endloop
  endfacet
  facet normal 4.859809958404109e-15 -0.7071067811865518 0.7071067811865434
    outer loop
      vertex -13.2 21.49499999850989 30.999999998509885
      vertex -12.499999997019767 22.494999998509883 31.999999998509885
      vertex -13.2 22.095 31.6
    endloop
  endfacet
  facet normal -3.588782752774324e-15 -0.7071067811865488 0.7071067811865462
    outer loop
      vertex -12.499999998062847 20.495000000000005 30
      vertex -12.499999997019767 22.494999998509883 31.999999998509885
      vertex -13.2 21.49499999850989 30.999999998509885
    endloop
  endfacet
  facet normal -0.8192319193720263 0 -0.5734623460019199
    outer loop
      vertex -12.499999998062847 20.495000000000005 30
      vertex -13.2 21.49499999850989 30.999999998509885
      vertex -13.2 34.495000001490126 30.999999998509885
    endloop
  endfacet
  facet normal -0.8192319205190405 -1.7439295573571828e-10 -0.5734623443633283
    outer loop
      vertex -12.499999997019767 20.495000000000005 29.999999998509885
      vertex -12.499999998062847 20.495000000000005 30
      vertex -13.2 34.495000001490126 30.999999998509885
    endloop
  endfacet
  facet normal -1 0 0
    outer loop
      vertex -13.2 21.49499999850989 30.999999998509885
      vertex -13.2 22.095 31.6
      vertex -13.2 33.89500000000001 31.6
    endloop
  endfacet
  facet normal -0.49613893537118053 0 0.8682431438305468
    outer loop
      vertex -13.2 22.095 31.6
      vertex -12.499999997019767 22.494999998509883 31.999999998509885
      vertex -12.499999997019767 33.495000001490126 31.999999998509885
    endloop
  endfacet
  facet normal 0 -0.7071067811865488 0.7071067811865462
    outer loop
      vertex -12.499999998062847 20.495000000000005 30
      vertex -11.2 20.495000000000005 30
      vertex -12.499999997019767 22.494999998509883 31.999999998509885
    endloop
  endfacet
  facet normal 0 -0.7071067811865488 0.7071067811865462
    outer loop
      vertex -11.2 20.495000000000005 30
      vertex -11.2 22.494999998509883 31.999999998509885
      vertex -12.499999997019767 22.494999998509883 31.999999998509885
    endloop
  endfacet
  facet normal 0 0 1
    outer loop
      vertex -12.499999997019767 22.494999998509883 31.999999998509885
      vertex -11.2 22.494999998509883 31.999999998509885
      vertex -11.2 33.495000001490126 31.999999998509885
    endloop
  endfacet
  facet normal 0 0 1
    outer loop
      vertex -13.2 12.495000000000005 28.6
      vertex -12.499999997019767 35.495000000000005 28.6
      vertex -13.2 41.995000000000005 28.6
    endloop
  endfacet
  facet normal -1 0 0
    outer loop
      vertex -12.499999997019767 35.495000000000005 29.999999998509885
      vertex -12.499999997019767 35.495000000000005 28.6
      vertex -12.499999997019767 20.495000000000005 28.6
    endloop
  endfacet
  facet normal -0.8192319193720264 0 -0.5734623460019198
    outer loop
      vertex -12.499999997019767 20.495000000000005 29.999999998509885
      vertex -13.2 34.495000001490126 30.999999998509885
      vertex -12.499999997019767 35.495000000000005 29.999999998509885
    endloop
  endfacet
  facet normal -1 0 0
    outer loop
      vertex -13.2 21.49499999850989 30.999999998509885
      vertex -13.2 33.89500000000001 31.6
      vertex -13.2 34.495000001490126 30.999999998509885
    endloop
  endfacet
  facet normal -0.4961389353711806 0 0.8682431438305468
    outer loop
      vertex -13.2 22.095 31.6
      vertex -12.499999997019767 33.495000001490126 31.999999998509885
      vertex -13.2 33.89500000000001 31.6
    endloop
  endfacet
  facet normal 0 0 1
    outer loop
      vertex -12.499999997019767 22.494999998509883 31.999999998509885
      vertex -11.2 33.495000001490126 31.999999998509885
      vertex -12.499999997019767 33.495000001490126 31.999999998509885
    endloop
  endfacet
  facet normal 1 0 0
    outer loop
      vertex -11.2 20.495000000000005 28.6
      vertex -11.2 35.495000000000005 28.6
      vertex -11.2 22.494999998509883 31.999999998509885
    endloop
  endfacet
  facet normal 1 0 0
    outer loop
      vertex -11.2 20.495000000000005 28.6
      vertex -11.2 22.494999998509883 31.999999998509885
      vertex -11.2 20.495000000000005 30
    endloop
  endfacet
  facet normal 1 0 0
    outer loop
      vertex -11.2 35.495000000000005 28.6
      vertex -11.2 35.495000000000005 30
      vertex -11.2 22.494999998509883 31.999999998509885
    endloop
  endfacet
  facet normal 1 0 0
    outer loop
      vertex -11.2 35.495000000000005 30
      vertex -11.2 33.495000001490126 31.999999998509885
      vertex -11.2 22.494999998509883 31.999999998509885
    endloop
  endfacet
  facet normal -1 0 0
    outer loop
      vertex -13.2 12.495000000000005 28.6
      vertex -13.2 41.995000000000005 28.6
      vertex -13.2 41.995000000000005 18
    endloop
  endfacet
  facet normal 0 1 0
    outer loop
      vertex -11.2 41.995000000000005 18.82842712474619
      vertex -13.2 41.995000000000005 28.6
      vertex -11.200000000000003 41.995000000000005 28.6
    endloop
  endfacet
  facet normal 0 1 0
    outer loop
      vertex -12.499999997019767 35.495000000000005 29.999999998509885
      vertex -11.2 35.495000000000005 28.6
      vertex -12.499999997019767 35.495000000000005 28.6
    endloop
  endfacet
  facet normal 0 1 0
    outer loop
      vertex -11.2 35.495000000000005 28.6
      vertex -12.499999997019767 35.495000000000005 29.999999998509885
      vertex -12.499999998062847 35.495000000000005 30
    endloop
  endfacet
  facet normal 0 1 0
    outer loop
      vertex -11.2 35.495000000000005 28.6
      vertex -12.499999998062847 35.495000000000005 30
      vertex -11.2 35.495000000000005 30
    endloop
  endfacet
  facet normal 0 0.7071067811865476 0.7071067811865476
    outer loop
      vertex -13.2 34.495000001490126 30.999999998509885
      vertex -13.2 33.89500000000001 31.6
      vertex -12.499999997019767 33.495000001490126 31.999999998509885
    endloop
  endfacet
  facet normal -0.8192319205190405 2.4415013841980573e-9 -0.5734623443633283
    outer loop
      vertex -12.499999997019767 35.495000000000005 29.999999998509885
      vertex -13.2 34.495000001490126 30.999999998509885
      vertex -12.499999998062847 35.495000000000005 30
    endloop
  endfacet
  facet normal 3.588782752774324e-15 0.7071067811865488 0.7071067811865462
    outer loop
      vertex -12.499999998062847 35.495000000000005 30
      vertex -13.2 34.495000001490126 30.999999998509885
      vertex -12.499999997019767 33.495000001490126 31.999999998509885
    endloop
  endfacet
  facet normal 0 0.7071067811865488 0.7071067811865462
    outer loop
      vertex -12.499999998062847 35.495000000000005 30
      vertex -11.2 33.495000001490126 31.999999998509885
      vertex -11.2 35.495000000000005 30
    endloop
  endfacet
  facet normal 0 0.7071067811865488 0.7071067811865462
    outer loop
      vertex -12.499999998062847 35.495000000000005 30
      vertex -12.499999997019767 33.495000001490126 31.999999998509885
      vertex -11.2 33.495000001490126 31.999999998509885
    endloop
  endfacet
  facet normal 0 0 1
    outer loop
      vertex -11.200000000000003 41.995000000000005 28.6
      vertex -12.499999997019767 35.495000000000005 28.6
      vertex -11.2 35.495000000000005 28.6
    endloop
  endfacet
  facet normal 0 0 1
    outer loop
      vertex -13.2 41.995000000000005 28.6
      vertex -12.499999997019767 35.495000000000005 28.6
      vertex -11.200000000000003 41.995000000000005 28.6
    endloop
  endfacet
  facet normal 0 0 1
    outer loop
      vertex -8.371572875253808 12.495000000000005 16
      vertex 8.371572875253808 12.495000000000005 16
      vertex -8.371572875253808 41.995000000000005 16
    endloop
  endfacet
  facet normal 0 -1 0
    outer loop
      vertex -8.79 -42.004999999999995 0
      vertex 8.79 -42.004999999999995 0
      vertex 8.371572875253808 -42.004999999999995 2
    endloop
  endfacet
  facet normal 0 0 -1
    outer loop
      vertex -8.79 -42.004999999999995 0
      vertex 8.79 -12.504999999999995 0
      vertex 8.79 -42.004999999999995 0
    endloop
  endfacet
  facet normal 0 0 1
    outer loop
      vertex -8.37157287525381 -12.504999999999995 2
      vertex 8.371572875253808 -42.004999999999995 2
      vertex 8.371572875253808 -12.504999999999995 2
    endloop
  endfacet
  facet normal 0 0.48860336893184325 -0.8725060159497201
    outer loop
      vertex -8.79 -12.504999999999995 0
      vertex 8.79 12.495000000000005 14
      vertex 8.79 -12.504999999999995 0
    endloop
  endfacet
  facet normal 0 -1 0
    outer loop
      vertex 8.79 -42.004999999999995 0
      vertex 8.799999999999999 -42.004999999999995 0
      vertex 8.371572875253808 -42.004999999999995 2
    endloop
  endfacet
  facet normal 0 -1 0
    outer loop
      vertex 8.799999999999999 -42.004999999999995 0
      vertex 9.2 -42.004999999999995 0
      vertex 8.371572875253808 -42.004999999999995 2
    endloop
  endfacet
  facet normal 0 0 -1
    outer loop
      vertex 8.79 -42.004999999999995 0
      vertex 8.799999999999999 -12.504999999999995 0
      vertex 8.799999999999999 -42.004999999999995 0
    endloop
  endfacet
  facet normal 0 0 -1
    outer loop
      vertex 8.799999999999999 -42.004999999999995 0
      vertex 9.2 -12.504999999999995 0
      vertex 9.2 -42.004999999999995 0
    endloop
  endfacet
  facet normal -0.7071067811865475 0 0.7071067811865475
    outer loop
      vertex 8.371572875253808 -42.004999999999995 2
      vertex 11.2 -42.004999999999995 4.828427124746192
      vertex 8.371572875253808 -12.504999999999995 2
    endloop
  endfacet
  facet normal 0 0 -1
    outer loop
      vertex 8.79 -42.004999999999995 0
      vertex 8.79 -12.504999999999995 0
      vertex 8.799999999999999 -12.504999999999995 0
    endloop
  endfacet
  facet normal 0 0 -1
    outer loop
      vertex 8.799999999999999 -42.004999999999995 0
      vertex 8.799999999999999 -12.504999999999995 0
      vertex 9.2 -12.504999999999995 0
    endloop
  endfacet
  facet normal 0 -1 0
    outer loop
      vertex 9.2 -42.004999999999995 0
      vertex 13.2 -42.004999999999995 4
      vertex 8.371572875253808 -42.004999999999995 2
    endloop
  endfacet
  facet normal 0 -1 0
    outer loop
      vertex 8.371572875253808 -42.004999999999995 2
      vertex 13.2 -42.004999999999995 4
      vertex 11.2 -42.004999999999995 4.828427124746192
    endloop
  endfacet
  facet normal 0.7071067811865475 0 -0.7071067811865475
    outer loop
      vertex 9.2 -42.004999999999995 0
      vertex 13.2 -12.504999999999995 4
      vertex 13.2 -42.004999999999995 4
    endloop
  endfacet
  facet normal 0.7071067811865475 0 -0.7071067811865475
    outer loop
      vertex 9.2 -42.004999999999995 0
      vertex 9.2 -12.504999999999995 0
      vertex 13.2 -12.504999999999995 4
    endloop
  endfacet
  facet normal -0.7071067811865475 0 0.7071067811865475
    outer loop
      vertex 11.2 -42.004999999999995 4.828427124746192
      vertex 11.2 -12.504999999999995 4.828427124746192
      vertex 8.371572875253808 -12.504999999999995 2
    endloop
  endfacet
  facet normal -1 0 0
    outer loop
      vertex 11.2 -42.004999999999995 4.828427124746192
      vertex 11.2 -42.004999999999995 28.6
      vertex 11.2 -12.504999999999995 4.828427124746192
    endloop
  endfacet
  facet normal 0 -1 0
    outer loop
      vertex 11.2 -42.004999999999995 4.828427124746192
      vertex 13.2 -42.004999999999995 4
      vertex 13.2 -42.004999999999995 28.6
    endloop
  endfacet
  facet normal 1 0 0
    outer loop
      vertex 13.2 -42.004999999999995 4
      vertex 13.2 -12.504999999999995 4
      vertex 13.2 -12.504999999999995 28.6
    endloop
  endfacet
  facet normal 0 0.48860336893184325 -0.8725060159497201
    outer loop
      vertex 8.79 -12.504999999999995 0
      vertex 8.799999999999999 12.495000000000005 14
      vertex 8.799999999999999 -12.504999999999995 0
    endloop
  endfacet
  facet normal 0 0.4886033689318432 -0.87250601594972
    outer loop
      vertex 8.799999999999999 -12.504999999999995 0
      vertex 9.2 12.495000000000005 14
      vertex 9.2 -12.504999999999995 0
    endloop
  endfacet
  facet normal -0.6574396037977712 -0.3681661781267519 0.6574396037977712
    outer loop
      vertex 8.371572875253808 -12.504999999999995 2
      vertex 11.2 -12.504999999999995 4.828427124746192
      vertex 8.371572875253808 12.495000000000005 16
    endloop
  endfacet
  facet normal 0.6574396037977712 0.3681661781267519 -0.6574396037977712
    outer loop
      vertex 9.2 -12.504999999999995 0
      vertex 9.2 12.495000000000005 14
      vertex 13.2 -12.504999999999995 4
    endloop
  endfacet
  facet normal 0 -1 0
    outer loop
      vertex 11.2 -42.004999999999995 4.828427124746192
      vertex 13.2 -42.004999999999995 28.6
      vertex 11.2 -42.004999999999995 28.6
    endloop
  endfacet
  facet normal 1 0 0
    outer loop
      vertex 13.2 -42.004999999999995 4
      vertex 13.2 -12.504999999999995 28.6
      vertex 13.2 -42.004999999999995 28.6
    endloop
  endfacet
  facet normal -1 0 0
    outer loop
      vertex 11.2 -42.004999999999995 28.6
      vertex 11.2 -35.505 28.6
      vertex 11.2 -12.504999999999995 4.828427124746192
    endloop
  endfacet
  facet normal -1 0 0
    outer loop
      vertex 11.2 -35.505 28.6
      vertex 11.2 -20.505000000000003 28.6
      vertex 11.2 -12.504999999999995 4.828427124746192
    endloop
  endfacet
  facet normal -1 0 0
    outer loop
      vertex 11.2 -35.505 30
      vertex 11.2 -33.50500000149012 31.999999998509885
      vertex 11.2 -35.505 28.6
    endloop
  endfacet
  facet normal 0 0 1
    outer loop
      vertex 11.2 -42.004999999999995 28.6
      vertex 13.2 -42.004999999999995 28.6
      vertex 12.499999997019767 -35.505 28.6
    endloop
  endfacet
  facet normal 0 0 1
    outer loop
      vertex 11.2 -42.004999999999995 28.6
      vertex 12.499999997019767 -35.505 28.6
      vertex 11.2 -35.505 28.6
    endloop
  endfacet
  facet normal 0 -1 0
    outer loop
      vertex 11.2 -35.505 30
      vertex 11.2 -35.505 28.6
      vertex 12.499999997019767 -35.505 29.999999998509885
    endloop
  endfacet
  facet normal 0 -1 0
    outer loop
      vertex 12.499999997019767 -35.505 29.999999998509885
      vertex 11.2 -35.505 28.6
      vertex 12.499999997019767 -35.505 28.6
    endloop
  endfacet
  facet normal 0 -1 0
    outer loop
      vertex 11.2 -35.505 30
      vertex 12.499999997019767 -35.505 29.999999998509885
      vertex 12.499999998062847 -35.505 30
    endloop
  endfacet
  facet normal 0 -0.7071067811865476 0.7071067811865476
    outer loop
      vertex 11.2 -35.505 30
      vertex 12.499999998062847 -35.505 30
      vertex 12.499999997019767 -33.50500000149012 31.999999998509885
    endloop
  endfacet
  facet normal 0 -0.7071067811865475 0.7071067811865475
    outer loop
      vertex 11.2 -35.505 30
      vertex 12.499999997019767 -33.50500000149012 31.999999998509885
      vertex 11.2 -33.50500000149012 31.999999998509885
    endloop
  endfacet
  facet normal 0 -0.7071067811865476 0.7071067811865476
    outer loop
      vertex 12.499999998062847 -35.505 30
      vertex 13.2 -34.50500000149012 30.999999998509885
      vertex 12.499999997019767 -33.50500000149012 31.999999998509885
    endloop
  endfacet
  facet normal 0 -0.7071067811865476 0.7071067811865476
    outer loop
      vertex 13.2 -34.50500000149012 30.999999998509885
      vertex 13.2 -33.905 31.6
      vertex 12.499999997019767 -33.50500000149012 31.999999998509885
    endloop
  endfacet
  facet normal -1 0 0
    outer loop
      vertex 11.2 -33.50500000149012 31.999999998509885
      vertex 11.2 -20.505000000000003 28.6
      vertex 11.2 -35.505 28.6
    endloop
  endfacet
  facet normal -1 0 0
    outer loop
      vertex 11.2 -20.505000000000003 30
      vertex 11.2 -20.505000000000003 28.6
      vertex 11.2 -33.50500000149012 31.999999998509885
    endloop
  endfacet
  facet normal -1 0 0
    outer loop
      vertex 11.2 -20.505000000000003 30
      vertex 11.2 -33.50500000149012 31.999999998509885
      vertex 11.2 -22.504999998509888 31.999999998509885
    endloop
  endfacet
  facet normal 0 0 1
    outer loop
      vertex 13.2 -42.004999999999995 28.6
      vertex 13.2 -12.504999999999995 28.6
      vertex 12.499999997019767 -35.505 28.6
    endloop
  endfacet
  facet normal 1 0 0
    outer loop
      vertex 12.499999997019767 -35.505 29.999999998509885
      vertex 12.499999997019767 -35.505 28.6
      vertex 12.499999997019767 -20.505000000000003 29.999999998509885
    endloop
  endfacet
  facet normal 0 0 1
    outer loop
      vertex 11.2 -33.50500000149012 31.999999998509885
      vertex 12.499999997019767 -33.50500000149012 31.999999998509885
      vertex 11.2 -22.504999998509888 31.999999998509885
    endloop
  endfacet
  facet normal 0.8192319205190405 -1.7439295573571838e-10 -0.5734623443633283
    outer loop
      vertex 12.499999997019767 -35.505 29.999999998509885
      vertex 13.2 -21.504999998509888 30.999999998509885
      vertex 12.499999998062847 -35.505 30
    endloop
  endfacet
  facet normal 0.8192319193720264 0 -0.5734623460019198
    outer loop
      vertex 12.499999998062847 -35.505 30
      vertex 13.2 -21.504999998509888 30.999999998509885
      vertex 13.2 -34.50500000149012 30.999999998509885
    endloop
  endfacet
  facet normal 0.49613893537118053 0 0.8682431438305468
    outer loop
      vertex 13.2 -33.905 31.6
      vertex 12.499999997019767 -22.504999998509888 31.999999998509885
      vertex 12.499999997019767 -33.50500000149012 31.999999998509885
    endloop
  endfacet
  facet normal 1 0 0
    outer loop
      vertex 13.2 -34.50500000149012 30.999999998509885
      vertex 13.2 -22.105000000000004 31.6
      vertex 13.2 -33.905 31.6
    endloop
  endfacet
  facet normal 1 0 0
    outer loop
      vertex 12.499999997019767 -20.505000000000003 29.999999998509885
      vertex 12.499999997019767 -35.505 28.6
      vertex 12.499999997019767 -20.505000000000003 28.6
    endloop
  endfacet
  facet normal 0 0 1
    outer loop
      vertex 13.2 -12.504999999999995 28.6
      vertex 12.499999997019767 -20.505000000000003 28.6
      vertex 12.499999997019767 -35.505 28.6
    endloop
  endfacet
  facet normal 0 0 1
    outer loop
      vertex 12.499999997019767 -33.50500000149012 31.999999998509885
      vertex 12.499999997019767 -22.504999998509888 31.999999998509885
      vertex 11.2 -22.504999998509888 31.999999998509885
    endloop
  endfacet
  facet normal 0 0.7071067811865476 0.7071067811865476
    outer loop
      vertex 11.2 -20.505000000000003 30
      vertex 11.2 -22.504999998509888 31.999999998509885
      vertex 12.499999998062847 -20.505000000000003 30
    endloop
  endfacet
  facet normal 0 0.7071067811865475 0.7071067811865475
    outer loop
      vertex 12.499999998062847 -20.505000000000003 30
      vertex 11.2 -22.504999998509888 31.999999998509885
      vertex 12.499999997019767 -22.504999998509888 31.999999998509885
    endloop
  endfacet
  facet normal 0.8192319193720264 0 -0.5734623460019198
    outer loop
      vertex 12.499999997019767 -35.505 29.999999998509885
      vertex 12.499999997019767 -20.505000000000003 29.999999998509885
      vertex 13.2 -21.504999998509888 30.999999998509885
    endloop
  endfacet
  facet normal 1 0 0
    outer loop
      vertex 13.2 -34.50500000149012 30.999999998509885
      vertex 13.2 -21.504999998509888 30.999999998509885
      vertex 13.2 -22.105000000000004 31.6
    endloop
  endfacet
  facet normal 0.4961389353711805 0 0.8682431438305468
    outer loop
      vertex 13.2 -33.905 31.6
      vertex 13.2 -22.105000000000004 31.6
      vertex 12.499999997019767 -22.504999998509888 31.999999998509885
    endloop
  endfacet
  facet normal 0 0.7071067811865476 0.7071067811865476
    outer loop
      vertex 12.499999998062847 -20.505000000000003 30
      vertex 12.499999997019767 -22.504999998509888 31.999999998509885
      vertex 13.2 -21.504999998509888 30.999999998509885
    endloop
  endfacet
  facet normal 0 0.7071067811865476 0.7071067811865476
    outer loop
      vertex 13.2 -21.504999998509888 30.999999998509885
      vertex 12.499999997019767 -22.504999998509888 31.999999998509885
      vertex 13.2 -22.105000000000004 31.6
    endloop
  endfacet
  facet normal -1 0 0
    outer loop
      vertex 11.2 -12.504999999999995 4.828427124746192
      vertex 11.2 -20.505000000000003 28.6
      vertex 11.2 -12.504999999999995 28.6
    endloop
  endfacet
  facet normal -1 0 0
    outer loop
      vertex 11.2 -12.504999999999995 4.828427124746192
      vertex 11.2 -12.504999999999995 28.6
      vertex 11.2 12.495000000000005 18.82842712474619
    endloop
  endfacet
  facet normal 1 0 0
    outer loop
      vertex 13.2 -12.504999999999995 4
      vertex 13.2 12.495000000000005 18
      vertex 13.2 -12.504999999999995 28.6
    endloop
  endfacet
  facet normal 0 1 0
    outer loop
      vertex 11.2 -20.505000000000003 30
      vertex 12.499999998062847 -20.505000000000003 30
      vertex 11.2 -20.505000000000003 28.6
    endloop
  endfacet
  facet normal 0 1 0
    outer loop
      vertex 12.499999997019767 -20.505000000000003 29.999999998509885
      vertex 12.499999997019767 -20.505000000000003 28.6
      vertex 11.2 -20.505000000000003 28.6
    endloop
  endfacet
  facet normal 0 1 0
    outer loop
      vertex 12.499999997019767 -20.505000000000003 29.999999998509885
      vertex 11.2 -20.505000000000003 28.6
      vertex 12.499999998062847 -20.505000000000003 30
    endloop
  endfacet
  facet normal 0 0 1
    outer loop
      vertex 11.2 -12.504999999999995 28.6
      vertex 11.2 -20.505000000000003 28.6
      vertex 12.499999997019767 -20.505000000000003 28.6
    endloop
  endfacet
  facet normal 0.8192319205190405 2.44150138419804e-9 -0.5734623443633284
    outer loop
      vertex 12.499999997019767 -20.505000000000003 29.999999998509885
      vertex 12.499999998062847 -20.505000000000003 30
      vertex 13.2 -21.504999998509888 30.999999998509885
    endloop
  endfacet
  facet normal 0 0 1
    outer loop
      vertex 11.2 -12.504999999999995 28.6
      vertex 12.499999997019767 -20.505000000000003 28.6
      vertex 13.2 -12.504999999999995 28.6
    endloop
  endfacet
  facet normal 0 0 1
    outer loop
      vertex 11.2 -12.504999999999995 28.6
      vertex 13.2 -12.504999999999995 28.6
      vertex 12.499999997019767 -7.5049999999999955 28.6
    endloop
  endfacet
  facet normal -1 0 0
    outer loop
      vertex 11.2 -12.504999999999995 28.6
      vertex 11.2 -7.5049999999999955 28.6
      vertex 11.2 12.495000000000005 18.82842712474619
    endloop
  endfacet
  facet normal -1 0 0
    outer loop
      vertex 11.2 -7.5049999999999955 30
      vertex 11.2 -5.50500000149011 31.999999998509885
      vertex 11.2 -7.5049999999999955 28.6
    endloop
  endfacet
  facet normal -1 0 0
    outer loop
      vertex 11.2 -5.50500000149011 31.999999998509885
      vertex 11.2 7.4950000000000045 28.6
      vertex 11.2 -7.5049999999999955 28.6
    endloop
  endfacet
  facet normal 0 0 1
    outer loop
      vertex 11.2 -12.504999999999995 28.6
      vertex 12.499999997019767 -7.5049999999999955 28.6
      vertex 11.2 -7.5049999999999955 28.6
    endloop
  endfacet
  facet normal 0 -1 0
    outer loop
      vertex 11.2 -7.5049999999999955 30
      vertex 11.2 -7.5049999999999955 28.6
      vertex 12.499999997019767 -7.5049999999999955 29.999999998509885
    endloop
  endfacet
  facet normal 0 -1 0
    outer loop
      vertex 12.499999997019767 -7.5049999999999955 29.999999998509885
      vertex 11.2 -7.5049999999999955 28.6
      vertex 12.499999997019767 -7.5049999999999955 28.6
    endloop
  endfacet
  facet normal 0 -1 0
    outer loop
      vertex 11.2 -7.5049999999999955 30
      vertex 12.499999997019767 -7.5049999999999955 29.999999998509885
      vertex 12.499999998062847 -7.5049999999999955 30
    endloop
  endfacet
  facet normal 0 -0.7071067811865476 0.7071067811865476
    outer loop
      vertex 11.2 -7.5049999999999955 30
      vertex 12.499999998062847 -7.5049999999999955 30
      vertex 12.499999997019767 -5.50500000149011 31.999999998509885
    endloop
  endfacet
  facet normal 0 -0.7071067811865475 0.7071067811865475
    outer loop
      vertex 11.2 -7.5049999999999955 30
      vertex 12.499999997019767 -5.50500000149011 31.999999998509885
      vertex 11.2 -5.50500000149011 31.999999998509885
    endloop
  endfacet
  facet normal 0 -0.7071067811865476 0.7071067811865476
    outer loop
      vertex 12.499999998062847 -7.5049999999999955 30
      vertex 13.2 -6.50500000149011 30.999999998509885
      vertex 12.499999997019767 -5.50500000149011 31.999999998509885
    endloop
  endfacet
  facet normal 0 -0.7071067811865476 0.7071067811865476
    outer loop
      vertex 13.2 -6.50500000149011 30.999999998509885
      vertex 13.2 -5.904999999999994 31.6
      vertex 12.499999997019767 -5.50500000149011 31.999999998509885
    endloop
  endfacet
  facet normal 0 0 1
    outer loop
      vertex 13.2 -12.504999999999995 28.6
      vertex 13.2 12.495000000000005 28.6
      vertex 12.499999997019767 -7.5049999999999955 28.6
    endloop
  endfacet
  facet normal 1 0 0
    outer loop
      vertex 12.499999997019767 -7.5049999999999955 29.999999998509885
      vertex 12.499999997019767 -7.5049999999999955 28.6
      vertex 12.499999997019767 7.4950000000000045 29.999999998509885
    endloop
  endfacet
  facet normal 0 0 1
    outer loop
      vertex 11.2 -5.50500000149011 31.999999998509885
      vertex 12.499999997019767 -5.50500000149011 31.999999998509885
      vertex 11.2 5.495000001490119 31.999999998509885
    endloop
  endfacet
  facet normal 0.8192319205190405 -1.7439295573571838e-10 -0.5734623443633283
    outer loop
      vertex 12.499999997019767 -7.5049999999999955 29.999999998509885
      vertex 13.2 6.495000001490119 30.999999998509885
      vertex 12.499999998062847 -7.5049999999999955 30
    endloop
  endfacet
  facet normal 0.8192319193720264 0 -0.5734623460019198
    outer loop
      vertex 12.499999998062847 -7.5049999999999955 30
      vertex 13.2 6.495000001490119 30.999999998509885
      vertex 13.2 -6.50500000149011 30.999999998509885
    endloop
  endfacet
  facet normal 0.49613893537118053 0 0.8682431438305468
    outer loop
      vertex 13.2 -5.904999999999994 31.6
      vertex 12.499999997019767 5.495000001490119 31.999999998509885
      vertex 12.499999997019767 -5.50500000149011 31.999999998509885
    endloop
  endfacet
  facet normal 1 0 0
    outer loop
      vertex 13.2 -6.50500000149011 30.999999998509885
      vertex 13.2 5.895000000000003 31.6
      vertex 13.2 -5.904999999999994 31.6
    endloop
  endfacet
  facet normal 0 -0.4886033689318432 0.87250601594972
    outer loop
      vertex -8.371572875253808 12.495000000000005 16
      vertex 8.371572875253808 -12.504999999999995 2
      vertex 8.371572875253808 12.495000000000005 16
    endloop
  endfacet
  facet normal 0 0 -1
    outer loop
      vertex -8.79 12.495000000000005 14
      vertex 8.79 41.995000000000005 14
      vertex 8.79 12.495000000000005 14
    endloop
  endfacet
  facet normal 0 1 0
    outer loop
      vertex -8.371572875253808 41.995000000000005 16
      vertex 8.371572875253808 41.995000000000005 16
      vertex 8.79 41.995000000000005 14
    endloop
  endfacet
  facet normal 0 0.48860336893184325 -0.8725060159497201
    outer loop
      vertex 8.79 -12.504999999999995 0
      vertex 8.79 12.495000000000005 14
      vertex 8.799999999999999 12.495000000000005 14
    endloop
  endfacet
  facet normal 0 0.4886033689318432 -0.87250601594972
    outer loop
      vertex 8.799999999999999 -12.504999999999995 0
      vertex 8.799999999999999 12.495000000000005 14
      vertex 9.2 12.495000000000005 14
    endloop
  endfacet
  facet normal -0.6574396037977713 -0.36816617812675184 0.6574396037977711
    outer loop
      vertex 11.2 -12.504999999999995 4.828427124746192
      vertex 11.2 12.495000000000005 18.82842712474619
      vertex 8.371572875253808 12.495000000000005 16
    endloop
  endfacet
  facet normal 0.6574396037977712 0.3681661781267519 -0.6574396037977712
    outer loop
      vertex 13.2 -12.504999999999995 4
      vertex 9.2 12.495000000000005 14
      vertex 13.2 12.495000000000005 18
    endloop
  endfacet
  facet normal 0 0 -1
    outer loop
      vertex 8.79 12.495000000000005 14
      vertex 8.799999999999999 41.995000000000005 14
      vertex 8.799999999999999 12.495000000000005 14
    endloop
  endfacet
  facet normal 0 0 -1
    outer loop
      vertex 8.799999999999999 12.495000000000005 14
      vertex 9.2 41.995000000000005 14
      vertex 9.2 12.495000000000005 14
    endloop
  endfacet
  facet normal 0 0 -1
    outer loop
      vertex 8.79 12.495000000000005 14
      vertex 8.79 41.995000000000005 14
      vertex 8.799999999999999 41.995000000000005 14
    endloop
  endfacet
  facet normal 0 0 -1
    outer loop
      vertex 8.799999999999999 12.495000000000005 14
      vertex 8.799999999999999 41.995000000000005 14
      vertex 9.2 41.995000000000005 14
    endloop
  endfacet
  facet normal 0 1 0
    outer loop
      vertex 8.79 41.995000000000005 14
      vertex 8.371572875253808 41.995000000000005 16
      vertex 8.799999999999999 41.995000000000005 14
    endloop
  endfacet
  facet normal 0 1 0
    outer loop
      vertex 8.799999999999999 41.995000000000005 14
      vertex 8.371572875253808 41.995000000000005 16
      vertex 9.2 41.995000000000005 14
    endloop
  endfacet
  facet normal 0.7071067811865475 0 -0.7071067811865475
    outer loop
      vertex 9.2 12.495000000000005 14
      vertex 9.2 41.995000000000005 14
      vertex 13.2 41.995000000000005 18
    endloop
  endfacet
  facet normal 0 0 1
    outer loop
      vertex -8.371572875253808 41.995000000000005 16
      vertex 8.371572875253808 12.495000000000005 16
      vertex 8.371572875253808 41.995000000000005 16
    endloop
  endfacet
  facet normal -1 0 0
    outer loop
      vertex 11.2 -7.5049999999999955 28.6
      vertex 11.2 7.4950000000000045 28.6
      vertex 11.2 12.495000000000005 18.82842712474619
    endloop
  endfacet
  facet normal 1 0 0
    outer loop
      vertex 13.2 -12.504999999999995 28.6
      vertex 13.2 12.495000000000005 18
      vertex 13.2 12.495000000000005 28.6
    endloop
  endfacet
  facet normal -1 0 0
    outer loop
      vertex 11.2 -5.50500000149011 31.999999998509885
      vertex 11.2 5.495000001490119 31.999999998509885
      vertex 11.2 7.4950000000000045 30
    endloop
  endfacet
  facet normal -1 0 0
    outer loop
      vertex 11.2 -5.50500000149011 31.999999998509885
      vertex 11.2 7.4950000000000045 30
      vertex 11.2 7.4950000000000045 28.6
    endloop
  endfacet
  facet normal 1 0 0
    outer loop
      vertex 12.499999997019767 7.4950000000000045 29.999999998509885
      vertex 12.499999997019767 -7.5049999999999955 28.6
      vertex 12.499999997019767 7.4950000000000045 28.6
    endloop
  endfacet
  facet normal 0 0 1
    outer loop
      vertex 13.2 12.495000000000005 28.6
      vertex 12.499999997019767 7.4950000000000045 28.6
      vertex 12.499999997019767 -7.5049999999999955 28.6
    endloop
  endfacet
  facet normal 0 0 1
    outer loop
      vertex 12.499999997019767 -5.50500000149011 31.999999998509885
      vertex 12.499999997019767 5.495000001490119 31.999999998509885
      vertex 11.2 5.495000001490119 31.999999998509885
    endloop
  endfacet
  facet normal 0.8192319193720264 0 -0.5734623460019198
    outer loop
      vertex 12.499999997019767 -7.5049999999999955 29.999999998509885
      vertex 12.499999997019767 7.4950000000000045 29.999999998509885
      vertex 13.2 6.495000001490119 30.999999998509885
    endloop
  endfacet
  facet normal 1 0 0
    outer loop
      vertex 13.2 -6.50500000149011 30.999999998509885
      vertex 13.2 6.495000001490119 30.999999998509885
      vertex 13.2 5.895000000000003 31.6
    endloop
  endfacet
  facet normal 0.4961389353711805 0 0.8682431438305468
    outer loop
      vertex 13.2 -5.904999999999994 31.6
      vertex 13.2 5.895000000000003 31.6
      vertex 12.499999997019767 5.495000001490119 31.999999998509885
    endloop
  endfacet
  facet normal 0 1 0
    outer loop
      vertex 11.2 7.4950000000000045 30
      vertex 12.499999998062847 7.4950000000000045 30
      vertex 11.2 7.4950000000000045 28.6
    endloop
  endfacet
  facet normal 0 1 0
    outer loop
      vertex 12.499999997019767 7.4950000000000045 29.999999998509885
      vertex 12.499999997019767 7.4950000000000045 28.6
      vertex 11.2 7.4950000000000045 28.6
    endloop
  endfacet
  facet normal 0 1 0
    outer loop
      vertex 12.499999997019767 7.4950000000000045 29.999999998509885
      vertex 11.2 7.4950000000000045 28.6
      vertex 12.499999998062847 7.4950000000000045 30
    endloop
  endfacet
  facet normal 0 0 1
    outer loop
      vertex 11.2 12.495000000000005 28.6
      vertex 11.2 7.4950000000000045 28.6
      vertex 12.499999997019767 7.4950000000000045 28.6
    endloop
  endfacet
  facet normal 0 0.7071067811865476 0.7071067811865476
    outer loop
      vertex 11.2 7.4950000000000045 30
      vertex 11.2 5.495000001490119 31.999999998509885
      vertex 12.499999998062847 7.4950000000000045 30
    endloop
  endfacet
  facet normal 0 0.7071067811865475 0.7071067811865475
    outer loop
      vertex 12.499999998062847 7.4950000000000045 30
      vertex 11.2 5.495000001490119 31.999999998509885
      vertex 12.499999997019767 5.495000001490119 31.999999998509885
    endloop
  endfacet
  facet normal 0.8192319205190405 2.44150138419804e-9 -0.5734623443633284
    outer loop
      vertex 12.499999997019767 7.4950000000000045 29.999999998509885
      vertex 12.499999998062847 7.4950000000000045 30
      vertex 13.2 6.495000001490119 30.999999998509885
    endloop
  endfacet
  facet normal 0 0.7071067811865476 0.7071067811865476
    outer loop
      vertex 12.499999998062847 7.4950000000000045 30
      vertex 12.499999997019767 5.495000001490119 31.999999998509885
      vertex 13.2 6.495000001490119 30.999999998509885
    endloop
  endfacet
  facet normal 0 0.7071067811865476 0.7071067811865476
    outer loop
      vertex 13.2 6.495000001490119 30.999999998509885
      vertex 12.499999997019767 5.495000001490119 31.999999998509885
      vertex 13.2 5.895000000000003 31.6
    endloop
  endfacet
  facet normal -1 0 0
    outer loop
      vertex 11.2 7.4950000000000045 28.6
      vertex 11.2 12.495000000000005 28.6
      vertex 11.2 12.495000000000005 18.82842712474619
    endloop
  endfacet
  facet normal 0 0 1
    outer loop
      vertex 11.2 12.495000000000005 28.6
      vertex 12.499999997019767 7.4950000000000045 28.6
      vertex 13.2 12.495000000000005 28.6
    endloop
  endfacet
  facet normal 0 0 1
    outer loop
      vertex 11.2 12.495000000000005 28.6
      vertex 13.2 12.495000000000005 28.6
      vertex 12.499999997019767 20.495000000000005 28.6
    endloop
  endfacet
  facet normal 0 0 1
    outer loop
      vertex 11.2 12.495000000000005 28.6
      vertex 12.499999997019767 20.495000000000005 28.6
      vertex 11.2 20.495000000000005 28.6
    endloop
  endfacet
  facet normal 0 -1 0
    outer loop
      vertex 11.2 20.495000000000005 28.6
      vertex 12.499999997019767 20.495000000000005 29.999999998509885
      vertex 11.2 20.495000000000005 30
    endloop
  endfacet
  facet normal 0 -1 0
    outer loop
      vertex 12.499999997019767 20.495000000000005 29.999999998509885
      vertex 11.2 20.495000000000005 28.6
      vertex 12.499999997019767 20.495000000000005 28.6
    endloop
  endfacet
  facet normal 0 -1 0
    outer loop
      vertex 11.2 20.495000000000005 30
      vertex 12.499999997019767 20.495000000000005 29.999999998509885
      vertex 12.499999998062847 20.495000000000005 30
    endloop
  endfacet
  facet normal -0.7071067811865475 0 0.7071067811865475
    outer loop
      vertex 8.371572875253808 12.495000000000005 16
      vertex 11.2 12.495000000000005 18.82842712474619
      vertex 8.371572875253808 41.995000000000005 16
    endloop
  endfacet
  facet normal 0.7071067811865475 0 -0.7071067811865475
    outer loop
      vertex 9.2 12.495000000000005 14
      vertex 13.2 41.995000000000005 18
      vertex 13.2 12.495000000000005 18
    endloop
  endfacet
  facet normal -1 0 0
    outer loop
      vertex 11.2 12.495000000000005 18.82842712474619
      vertex 11.2 12.495000000000005 28.6
      vertex 11.2 41.995000000000005 18.82842712474619
    endloop
  endfacet
  facet normal -0.7071067811865475 0 0.7071067811865475
    outer loop
      vertex 11.2 12.495000000000005 18.82842712474619
      vertex 11.2 41.995000000000005 18.82842712474619
      vertex 8.371572875253808 41.995000000000005 16
    endloop
  endfacet
  facet normal 0 1 0
    outer loop
      vertex 9.2 41.995000000000005 14
      vertex 8.371572875253808 41.995000000000005 16
      vertex 13.2 41.995000000000005 18
    endloop
  endfacet
  facet normal 0 1 0
    outer loop
      vertex 8.371572875253808 41.995000000000005 16
      vertex 11.2 41.995000000000005 18.82842712474619
      vertex 13.2 41.995000000000005 18
    endloop
  endfacet
  facet normal 1 0 0
    outer loop
      vertex 13.2 12.495000000000005 18
      vertex 13.2 41.995000000000005 18
      vertex 13.2 41.995000000000005 28.6
    endloop
  endfacet
  facet normal 0 1 0
    outer loop
      vertex 11.2 41.995000000000005 18.82842712474619
      vertex 13.2 41.995000000000005 28.6
      vertex 13.2 41.995000000000005 18
    endloop
  endfacet
  facet normal -1 0 0
    outer loop
      vertex 11.2 12.495000000000005 28.6
      vertex 11.2 20.495000000000005 28.6
      vertex 11.2 41.995000000000005 18.82842712474619
    endloop
  endfacet
  facet normal 1 0 0
    outer loop
      vertex 13.2 12.495000000000005 18
      vertex 13.2 41.995000000000005 28.6
      vertex 13.2 12.495000000000005 28.6
    endloop
  endfacet
  facet normal -1 0 0
    outer loop
      vertex 11.2 20.495000000000005 28.6
      vertex 11.2 22.494999998509883 31.999999998509885
      vertex 11.2 35.495000000000005 28.6
    endloop
  endfacet
  facet normal -1 0 0
    outer loop
      vertex 11.2 20.495000000000005 28.6
      vertex 11.2 20.495000000000005 30
      vertex 11.2 22.494999998509883 31.999999998509885
    endloop
  endfacet
  facet normal -1 0 0
    outer loop
      vertex 11.2 35.495000000000005 30
      vertex 11.2 35.495000000000005 28.6
      vertex 11.2 22.494999998509883 31.999999998509885
    endloop
  endfacet
  facet normal -1 0 0
    outer loop
      vertex 11.2 35.495000000000005 30
      vertex 11.2 22.494999998509883 31.999999998509885
      vertex 11.2 33.495000001490126 31.999999998509885
    endloop
  endfacet
  facet normal 0 0 1
    outer loop
      vertex 13.2 12.495000000000005 28.6
      vertex 13.2 41.995000000000005 28.6
      vertex 12.499999997019767 20.495000000000005 28.6
    endloop
  endfacet
  facet normal 1 0 0
    outer loop
      vertex 12.499999997019767 20.495000000000005 29.999999998509885
      vertex 12.499999997019767 20.495000000000005 28.6
      vertex 12.499999997019767 35.495000000000005 29.999999998509885
    endloop
  endfacet
  facet normal 0 -0.7071067811865488 0.7071067811865462
    outer loop
      vertex 11.2 20.495000000000005 30
      vertex 12.499999998062847 20.495000000000005 30
      vertex 12.499999997019767 22.494999998509883 31.999999998509885
    endloop
  endfacet
  facet normal 0 -0.7071067811865488 0.7071067811865462
    outer loop
      vertex 11.2 20.495000000000005 30
      vertex 12.499999997019767 22.494999998509883 31.999999998509885
      vertex 11.2 22.494999998509883 31.999999998509885
    endloop
  endfacet
  facet normal 0 0 1
    outer loop
      vertex 11.2 22.494999998509883 31.999999998509885
      vertex 12.499999997019767 22.494999998509883 31.999999998509885
      vertex 11.2 33.495000001490126 31.999999998509885
    endloop
  endfacet
  facet normal 3.588782752774324e-15 -0.7071067811865488 0.7071067811865462
    outer loop
      vertex 12.499999998062847 20.495000000000005 30
      vertex 13.2 21.49499999850989 30.999999998509885
      vertex 12.499999997019767 22.494999998509883 31.999999998509885
    endloop
  endfacet
  facet normal -4.859809958404109e-15 -0.7071067811865518 0.7071067811865434
    outer loop
      vertex 13.2 21.49499999850989 30.999999998509885
      vertex 13.2 22.095 31.6
      vertex 12.499999997019767 22.494999998509883 31.999999998509885
    endloop
  endfacet
  facet normal 0.8192319205190405 -1.7439295573571828e-10 -0.5734623443633283
    outer loop
      vertex 12.499999997019767 20.495000000000005 29.999999998509885
      vertex 13.2 34.495000001490126 30.999999998509885
      vertex 12.499999998062847 20.495000000000005 30
    endloop
  endfacet
  facet normal 0.8192319193720263 0 -0.5734623460019199
    outer loop
      vertex 12.499999998062847 20.495000000000005 30
      vertex 13.2 34.495000001490126 30.999999998509885
      vertex 13.2 21.49499999850989 30.999999998509885
    endloop
  endfacet
  facet normal 0.49613893537118053 0 0.8682431438305468
    outer loop
      vertex 13.2 22.095 31.6
      vertex 12.499999997019767 33.495000001490126 31.999999998509885
      vertex 12.499999997019767 22.494999998509883 31.999999998509885
    endloop
  endfacet
  facet normal 1 0 0
    outer loop
      vertex 13.2 21.49499999850989 30.999999998509885
      vertex 13.2 33.89500000000001 31.6
      vertex 13.2 22.095 31.6
    endloop
  endfacet
  facet normal 1 0 0
    outer loop
      vertex 12.499999997019767 35.495000000000005 29.999999998509885
      vertex 12.499999997019767 20.495000000000005 28.6
      vertex 12.499999997019767 35.495000000000005 28.6
    endloop
  endfacet
  facet normal 0 0 1
    outer loop
      vertex 12.499999997019767 22.494999998509883 31.999999998509885
      vertex 12.499999997019767 33.495000001490126 31.999999998509885
      vertex 11.2 33.495000001490126 31.999999998509885
    endloop
  endfacet
  facet normal 0.8192319193720264 0 -0.5734623460019198
    outer loop
      vertex 12.499999997019767 20.495000000000005 29.999999998509885
      vertex 12.499999997019767 35.495000000000005 29.999999998509885
      vertex 13.2 34.495000001490126 30.999999998509885
    endloop
  endfacet
  facet normal 1 0 0
    outer loop
      vertex 13.2 21.49499999850989 30.999999998509885
      vertex 13.2 34.495000001490126 30.999999998509885
      vertex 13.2 33.89500000000001 31.6
    endloop
  endfacet
  facet normal 0.4961389353711806 0 0.8682431438305468
    outer loop
      vertex 13.2 22.095 31.6
      vertex 13.2 33.89500000000001 31.6
      vertex 12.499999997019767 33.495000001490126 31.999999998509885
    endloop
  endfacet
  facet normal -1 0 0
    outer loop
      vertex 11.2 41.995000000000005 18.82842712474619
      vertex 11.2 20.495000000000005 28.6
      vertex 11.2 35.495000000000005 28.6
    endloop
  endfacet
  facet normal -1 0 0
    outer loop
      vertex 11.2 41.995000000000005 18.82842712474619
      vertex 11.2 35.495000000000005 28.6
      vertex 11.2 41.995000000000005 28.6
    endloop
  endfacet
  facet normal 0 1 0
    outer loop
      vertex 11.2 41.995000000000005 18.82842712474619
      vertex 11.2 41.995000000000005 28.6
      vertex 13.2 41.995000000000005 28.6
    endloop
  endfacet
  facet normal 0 1 0
    outer loop
      vertex 11.2 35.495000000000005 30
      vertex 12.499999998062847 35.495000000000005 30
      vertex 11.2 35.495000000000005 28.6
    endloop
  endfacet
  facet normal 0 1 0
    outer loop
      vertex 12.499999997019767 35.495000000000005 29.999999998509885
      vertex 12.499999997019767 35.495000000000005 28.6
      vertex 11.2 35.495000000000005 28.6
    endloop
  endfacet
  facet normal 0 1 0
    outer loop
      vertex 12.499999997019767 35.495000000000005 29.999999998509885
      vertex 11.2 35.495000000000005 28.6
      vertex 12.499999998062847 35.495000000000005 30
    endloop
  endfacet
  facet normal 0 0 1
    outer loop
      vertex 13.2 41.995000000000005 28.6
      vertex 12.499999997019767 35.495000000000005 28.6
      vertex 12.499999997019767 20.495000000000005 28.6
    endloop
  endfacet
  facet normal 0 0.7071067811865488 0.7071067811865462
    outer loop
      vertex 11.2 35.495000000000005 30
      vertex 11.2 33.495000001490126 31.999999998509885
      vertex 12.499999998062847 35.495000000000005 30
    endloop
  endfacet
  facet normal 0 0.7071067811865488 0.7071067811865462
    outer loop
      vertex 12.499999998062847 35.495000000000005 30
      vertex 11.2 33.495000001490126 31.999999998509885
      vertex 12.499999997019767 33.495000001490126 31.999999998509885
    endloop
  endfacet
  facet normal 0 0.7071067811865476 0.7071067811865476
    outer loop
      vertex 13.2 34.495000001490126 30.999999998509885
      vertex 12.499999997019767 33.495000001490126 31.999999998509885
      vertex 13.2 33.89500000000001 31.6
    endloop
  endfacet
  facet normal 0.8192319205190405 2.4415013841980573e-9 -0.5734623443633283
    outer loop
      vertex 12.499999997019767 35.495000000000005 29.999999998509885
      vertex 12.499999998062847 35.495000000000005 30
      vertex 13.2 34.495000001490126 30.999999998509885
    endloop
  endfacet
  facet normal -3.588782752774324e-15 0.7071067811865488 0.7071067811865462
    outer loop
      vertex 12.499999998062847 35.495000000000005 30
      vertex 12.499999997019767 33.495000001490126 31.999999998509885
      vertex 13.2 34.495000001490126 30.999999998509885
    endloop
  endfacet
  facet normal 0 0 1
    outer loop
      vertex 11.2 41.995000000000005 28.6
      vertex 11.2 35.495000000000005 28.6
      vertex 12.499999997019767 35.495000000000005 28.6
    endloop
  endfacet
  facet normal 0 0 1
    outer loop
      vertex 11.2 41.995000000000005 28.6
      vertex 12.499999997019767 35.495000000000005 28.6
      vertex 13.2 41.995000000000005 28.6
    endloop
  endfacet
endsolid OpenSCAD_Model
