ISO-10303-21;
HEADER;

/* File generated by Shapr3D Version 5.800.0.8232 */

FILE_DESCRIPTION(('HOOPS Exchange Step'),'2;1');

FILE_NAME('/Users/ddanier/Library/Containers/com.shapr3d.shapr/Data/tmp/export/temp_export',
'2025-03-05T21:50:28+01:00',
('ddanier'),
('Shapr3D Limited'),
'HOOPS Exchange 2024.8',
'Shapr3D',
'Authorized');

FILE_SCHEMA( ('AP242_MANAGED_MODEL_BASED_3D_ENGINEERING_MIM_LF {1 0 10303 442 1 1 4}') );

ENDSEC;

DATA;
#3=(NAMED_UNIT(*)PLANE_ANGLE_UNIT()SI_UNIT($,.RADIAN.));
#4=PLANE_ANGLE_MEASURE_WITH_UNIT(PLANE_ANGLE_MEASURE(0.0174532925),#3);
#5=(CONVERSION_BASED_UNIT('DEGREE',#4)NAMED_UNIT(#6)PLANE_ANGLE_UNIT());
#6=DIMENSIONAL_EXPONENTS(0.,0.,0.,0.,0.,0.,0.);
#7=(NAMED_UNIT(*)SI_UNIT($,.STERADIAN.)SOLID_ANGLE_UNIT());
#8=(LENGTH_UNIT()NAMED_UNIT(*)SI_UNIT(.MILLI.,.METRE.));
#9=UNCERTAINTY_MEASURE_WITH_UNIT(LENGTH_MEASURE(1.000000E-05),#8,'DISTANCE_ACCURACY_VALUE','Maximum Tolerance applied to model');
#10=(GEOMETRIC_REPRESENTATION_CONTEXT(3)GLOBAL_UNCERTAINTY_ASSIGNED_CONTEXT((#9))GLOBAL_UNIT_ASSIGNED_CONTEXT((#8,#5,#7))REPRESENTATION_CONTEXT('','openGrid Lite Wall Mount 4mm Offset'));
#12=CARTESIAN_POINT('',(0.,0.,0.));
#13=DIRECTION('',(0.,0.,1.));
#14=DIRECTION('',(1.,0.,0.));
#15=AXIS2_PLACEMENT_3D('TS3D_PRODUCT_CSYS',#12,#13,#14);
#27=CARTESIAN_POINT('',(-12.6,60.,0.));
#28=DIRECTION('',(-1.,0.,0.));
#29=DIRECTION('',(0.,-1.,0.));
#30=AXIS2_PLACEMENT_3D('',#27,#28,#29);
#31=PLANE('',#30);
#32=CARTESIAN_POINT('',(-12.6,62.651865683,1.2));
#33=VERTEX_POINT('',#32);
#34=CARTESIAN_POINT('',(-12.6,57.348134317,1.2));
#35=VERTEX_POINT('',#34);
#36=CARTESIAN_POINT('',(-12.6,62.651865683,1.2));
#37=DIRECTION('',(0.,-1.,0.));
#38=VECTOR('',#37,5.303731366);
#39=LINE('',#36,#38);
#40=EDGE_CURVE('',#33,#35,#39,.T.);
#41=ORIENTED_EDGE('',*,*,#40,.T.);
#42=CARTESIAN_POINT('',(-12.6,57.348134317,2.2));
#43=VERTEX_POINT('',#42);
#44=CARTESIAN_POINT('',(-12.6,57.348134317,1.2));
#45=DIRECTION('',(0.,0.,1.));
#46=VECTOR('',#45,1.);
#47=LINE('',#44,#46);
#48=EDGE_CURVE('',#35,#43,#47,.T.);
#49=ORIENTED_EDGE('',*,*,#48,.T.);
#50=CARTESIAN_POINT('',(-12.6,62.651865683,2.2));
#51=VERTEX_POINT('',#50);
#52=CARTESIAN_POINT('',(-12.6,57.348134317,2.2));
#53=DIRECTION('',(0.,1.,0.));
#54=VECTOR('',#53,5.303731366);
#55=LINE('',#52,#54);
#56=EDGE_CURVE('',#43,#51,#55,.T.);
#57=ORIENTED_EDGE('',*,*,#56,.T.);
#58=CARTESIAN_POINT('',(-12.6,62.651865683,2.2));
#59=DIRECTION('',(-0.,-0.,-1.));
#60=VECTOR('',#59,1.);
#61=LINE('',#58,#60);
#62=EDGE_CURVE('',#51,#33,#61,.T.);
#63=ORIENTED_EDGE('',*,*,#62,.T.);
#64=EDGE_LOOP('',(#41,#49,#57,#63));
#65=FACE_BOUND('',#64,.T.);
#66=ADVANCED_FACE('',(#65),#31,.T.);
#67=CARTESIAN_POINT('',(-12.4,62.5,0.8));
#68=DIRECTION('',(0.894427191,0.,0.447213595));
#69=DIRECTION('',(-0.,1.,-0.));
#70=AXIS2_PLACEMENT_3D('',#67,#68,#69);
#71=PLANE('',#70);
#72=CARTESIAN_POINT('',(-12.4,54.6,0.8));
#73=VERTEX_POINT('',#72);
#74=CARTESIAN_POINT('',(-12.525557853,55.855578531,1.051115706));
#75=VERTEX_POINT('',#74);
#76=CARTESIAN_POINT('',(-12.4,54.6,0.8));
#77=DIRECTION('',(-0.097590007,0.975900073,0.195180015));
#78=VECTOR('',#77,1.28658514);
#79=LINE('',#76,#78);
#80=EDGE_CURVE('',#73,#75,#79,.T.);
#81=ORIENTED_EDGE('',*,*,#80,.T.);
#82=CARTESIAN_POINT('',(-12.525557853,55.855578531,1.051115706));
#83=CARTESIAN_POINT('',(-12.549306005,56.093060055,1.098612011));
#84=CARTESIAN_POINT('',(-12.561884662,56.224139947,1.123769325));
#85=CARTESIAN_POINT('',(-12.572629601,56.336110996,1.145259202));
#86=CARTESIAN_POINT('',(-12.578921895,56.408950697,1.15784379));
#87=CARTESIAN_POINT('',(-12.583337622,56.460067231,1.166675245));
#88=CARTESIAN_POINT('',(-12.58640488,56.501790452,1.172809759));
#89=CARTESIAN_POINT('',(-12.589989386,56.550549702,1.179978772));
#90=CARTESIAN_POINT('',(-12.592277174,56.595011007,1.184554347));
#91=CARTESIAN_POINT('',(-12.594545167,56.639087627,1.189090334));
#92=CARTESIAN_POINT('',(-12.595959894,56.688683246,1.191919789));
#93=CARTESIAN_POINT('',(-12.597135845,56.729908157,1.19427169));
#94=CARTESIAN_POINT('',(-12.597903728,56.782714197,1.195807456));
#95=CARTESIAN_POINT('',(-12.59896015,56.855362543,1.197920299));
#96=CARTESIAN_POINT('',(-12.599446149,56.971161293,1.198892299));
#97=CARTESIAN_POINT('',(-12.6,57.103126844,1.2));
#98=CARTESIAN_POINT('',(-12.6,57.348134317,1.2));
#99=B_SPLINE_CURVE_WITH_KNOTS('',2,(#82,#83,#84,#85,#86,#87,#88,#89,#90,#91,#92,#93,#94,#95,#96,#97,#98),.UNSPECIFIED.,.F.,.F.,(3,2,2,2,2,2,2,2,3),(0.,0.25,0.375,0.4375,0.5,0.5625,0.625,0.75,1.),.UNSPECIFIED.);
#100=EDGE_CURVE('',#75,#35,#99,.T.);
#101=ORIENTED_EDGE('',*,*,#100,.T.);
#102=ORIENTED_EDGE('',*,*,#40,.F.);
#103=CARTESIAN_POINT('',(-12.525557853,64.144421469,1.051115706));
#104=VERTEX_POINT('',#103);
#105=CARTESIAN_POINT('',(-12.6,62.651865683,1.2));
#106=CARTESIAN_POINT('',(-12.6,62.89640727,1.2));
#107=CARTESIAN_POINT('',(-12.599444102,63.029327406,1.198888204));
#108=CARTESIAN_POINT('',(-12.598963654,63.144206882,1.197927308));
#109=CARTESIAN_POINT('',(-12.597893085,63.218018639,1.195786171));
#110=CARTESIAN_POINT('',(-12.597141138,63.269862629,1.194282276));
#111=CARTESIAN_POINT('',(-12.595932867,63.312264738,1.191865734));
#112=CARTESIAN_POINT('',(-12.594549026,63.360828125,1.189098053));
#113=CARTESIAN_POINT('',(-12.592223176,63.406038499,1.184446352));
#114=CARTESIAN_POINT('',(-12.589993966,63.449370369,1.179987931));
#115=CARTESIAN_POINT('',(-12.586335479,63.49915376,1.172670958));
#116=CARTESIAN_POINT('',(-12.583354487,63.53971805,1.166708973));
#117=CARTESIAN_POINT('',(-12.578858061,63.591788382,1.157716123));
#118=CARTESIAN_POINT('',(-12.572666995,63.663483306,1.145333991));
#119=CARTESIAN_POINT('',(-12.56183761,63.776350411,1.123675219));
#120=CARTESIAN_POINT('',(-12.549350056,63.90649944,1.098700112));
#121=CARTESIAN_POINT('',(-12.525557853,64.144421469,1.051115706));
#122=B_SPLINE_CURVE_WITH_KNOTS('',2,(#105,#106,#107,#108,#109,#110,#111,#112,#113,#114,#115,#116,#117,#118,#119,#120,#121),.UNSPECIFIED.,.F.,.F.,(3,2,2,2,2,2,2,2,3),(0.,0.25,0.375,0.4375,0.5,0.5625,0.625,0.75,1.),.UNSPECIFIED.);
#123=EDGE_CURVE('',#33,#104,#122,.T.);
#124=ORIENTED_EDGE('',*,*,#123,.T.);
#125=CARTESIAN_POINT('',(-12.4,65.4,0.8));
#126=VERTEX_POINT('',#125);
#127=CARTESIAN_POINT('',(-12.525557853,64.144421469,1.051115706));
#128=DIRECTION('',(0.097590007,0.975900073,-0.195180015));
#129=VECTOR('',#128,1.28658514);
#130=LINE('',#127,#129);
#131=EDGE_CURVE('',#104,#126,#130,.T.);
#132=ORIENTED_EDGE('',*,*,#131,.T.);
#133=CARTESIAN_POINT('',(-12.4,54.6,0.8));
#134=DIRECTION('',(0.,1.,-0.));
#135=VECTOR('',#134,10.8);
#136=LINE('',#133,#135);
#137=EDGE_CURVE('',#73,#126,#136,.T.);
#138=ORIENTED_EDGE('',*,*,#137,.F.);
#139=EDGE_LOOP('',(#81,#101,#102,#124,#132,#138));
#140=FACE_BOUND('',#139,.T.);
#141=ADVANCED_FACE('',(#140),#71,.F.);
#142=CARTESIAN_POINT('',(-12.4,57.3,2.6));
#143=DIRECTION('',(0.894427191,0.,-0.447213595));
#144=DIRECTION('',(0.,-1.,0.));
#145=AXIS2_PLACEMENT_3D('',#142,#143,#144);
#146=PLANE('',#145);
#147=ORIENTED_EDGE('',*,*,#56,.F.);
#148=CARTESIAN_POINT('',(-12.525557853,55.855578531,2.348884294));
#149=VERTEX_POINT('',#148);
#150=CARTESIAN_POINT('',(-12.6,57.348134317,2.2));
#151=CARTESIAN_POINT('',(-12.6,57.103592731,2.2));
#152=CARTESIAN_POINT('',(-12.599444102,56.970672594,2.201111796));
#153=CARTESIAN_POINT('',(-12.598963654,56.855793118,2.202072692));
#154=CARTESIAN_POINT('',(-12.597893085,56.781981361,2.204213829));
#155=CARTESIAN_POINT('',(-12.597141138,56.730137371,2.205717724));
#156=CARTESIAN_POINT('',(-12.595932867,56.687735262,2.208134266));
#157=CARTESIAN_POINT('',(-12.594549026,56.639171875,2.210901947));
#158=CARTESIAN_POINT('',(-12.592223176,56.593961501,2.215553648));
#159=CARTESIAN_POINT('',(-12.589993966,56.550629631,2.220012069));
#160=CARTESIAN_POINT('',(-12.586335479,56.50084624,2.227329042));
#161=CARTESIAN_POINT('',(-12.583354487,56.46028195,2.233291027));
#162=CARTESIAN_POINT('',(-12.578858061,56.408211618,2.242283877));
#163=CARTESIAN_POINT('',(-12.572666995,56.336516694,2.254666009));
#164=CARTESIAN_POINT('',(-12.56183761,56.223649589,2.276324781));
#165=CARTESIAN_POINT('',(-12.549350056,56.09350056,2.301299888));
#166=CARTESIAN_POINT('',(-12.525557853,55.855578531,2.348884294));
#167=B_SPLINE_CURVE_WITH_KNOTS('',2,(#150,#151,#152,#153,#154,#155,#156,#157,#158,#159,#160,#161,#162,#163,#164,#165,#166),.UNSPECIFIED.,.F.,.F.,(3,2,2,2,2,2,2,2,3),(0.,0.25,0.375,0.4375,0.5,0.5625,0.625,0.75,1.),.UNSPECIFIED.);
#168=EDGE_CURVE('',#43,#149,#167,.T.);
#169=ORIENTED_EDGE('',*,*,#168,.T.);
#170=CARTESIAN_POINT('',(-12.4,54.6,2.6));
#171=VERTEX_POINT('',#170);
#172=CARTESIAN_POINT('',(-12.525557853,55.855578531,2.348884294));
#173=DIRECTION('',(0.097590007,-0.975900073,0.195180015));
#174=VECTOR('',#173,1.28658514);
#175=LINE('',#172,#174);
#176=EDGE_CURVE('',#149,#171,#175,.T.);
#177=ORIENTED_EDGE('',*,*,#176,.T.);
#178=CARTESIAN_POINT('',(-12.4,65.4,2.6));
#179=VERTEX_POINT('',#178);
#180=CARTESIAN_POINT('',(-12.4,65.4,2.6));
#181=DIRECTION('',(0.,-1.,0.));
#182=VECTOR('',#181,10.8);
#183=LINE('',#180,#182);
#184=EDGE_CURVE('',#179,#171,#183,.T.);
#185=ORIENTED_EDGE('',*,*,#184,.F.);
#186=CARTESIAN_POINT('',(-12.525557853,64.144421469,2.348884294));
#187=VERTEX_POINT('',#186);
#188=CARTESIAN_POINT('',(-12.4,65.4,2.6));
#189=DIRECTION('',(-0.097590007,-0.975900073,-0.195180015));
#190=VECTOR('',#189,1.28658514);
#191=LINE('',#188,#190);
#192=EDGE_CURVE('',#179,#187,#191,.T.);
#193=ORIENTED_EDGE('',*,*,#192,.T.);
#194=CARTESIAN_POINT('',(-12.525557853,64.144421469,2.348884294));
#195=CARTESIAN_POINT('',(-12.549306006,63.906939945,2.301387989));
#196=CARTESIAN_POINT('',(-12.561884662,63.775860053,2.276230675));
#197=CARTESIAN_POINT('',(-12.572629601,63.663889003,2.254740798));
#198=CARTESIAN_POINT('',(-12.578921895,63.591049303,2.24215621));
#199=CARTESIAN_POINT('',(-12.583337622,63.539932769,2.233324755));
#200=CARTESIAN_POINT('',(-12.58640488,63.498209548,2.227190241));
#201=CARTESIAN_POINT('',(-12.589989386,63.449450298,2.220021228));
#202=CARTESIAN_POINT('',(-12.592277174,63.404988993,2.215445653));
#203=CARTESIAN_POINT('',(-12.594545167,63.360912373,2.210909666));
#204=CARTESIAN_POINT('',(-12.595959894,63.311316754,2.208080211));
#205=CARTESIAN_POINT('',(-12.597135845,63.270091843,2.20572831));
#206=CARTESIAN_POINT('',(-12.597903728,63.217285803,2.204192544));
#207=CARTESIAN_POINT('',(-12.59896015,63.144637457,2.202079701));
#208=CARTESIAN_POINT('',(-12.599446149,63.028838707,2.201107701));
#209=CARTESIAN_POINT('',(-12.6,62.896873156,2.2));
#210=CARTESIAN_POINT('',(-12.6,62.651865683,2.2));
#211=B_SPLINE_CURVE_WITH_KNOTS('',2,(#194,#195,#196,#197,#198,#199,#200,#201,#202,#203,#204,#205,#206,#207,#208,#209,#210),.UNSPECIFIED.,.F.,.F.,(3,2,2,2,2,2,2,2,3),(0.,0.25,0.375,0.4375,0.5,0.5625,0.625,0.75,1.),.UNSPECIFIED.);
#212=EDGE_CURVE('',#187,#51,#211,.T.);
#213=ORIENTED_EDGE('',*,*,#212,.T.);
#214=EDGE_LOOP('',(#147,#169,#177,#185,#193,#213));
#215=FACE_BOUND('',#214,.T.);
#216=ADVANCED_FACE('',(#215),#146,.F.);
#217=CARTESIAN_POINT('',(-12.4,65.4,1.7));
#218=DIRECTION('',(0.99503719,-0.099503719,0.));
#219=DIRECTION('',(0.,0.,1.));
#220=AXIS2_PLACEMENT_3D('',#217,#218,#219);
#221=PLANE('',#220);
#222=ORIENTED_EDGE('',*,*,#131,.F.);
#223=CARTESIAN_POINT('',(-12.525557853,64.144421469,1.051115706));
#224=DIRECTION('',(0.,0.,1.));
#225=VECTOR('',#224,1.297768587);
#226=LINE('',#223,#225);
#227=EDGE_CURVE('',#104,#187,#226,.T.);
#228=ORIENTED_EDGE('',*,*,#227,.T.);
#229=ORIENTED_EDGE('',*,*,#192,.F.);
#230=CARTESIAN_POINT('',(-12.4,65.4,0.8));
#231=DIRECTION('',(0.,0.,1.));
#232=VECTOR('',#231,1.8);
#233=LINE('',#230,#232);
#234=EDGE_CURVE('',#126,#179,#233,.T.);
#235=ORIENTED_EDGE('',*,*,#234,.F.);
#236=EDGE_LOOP('',(#222,#228,#229,#235));
#237=FACE_BOUND('',#236,.T.);
#238=ADVANCED_FACE('',(#237),#221,.F.);
#239=CARTESIAN_POINT('',(-12.4,54.6,1.7));
#240=DIRECTION('',(0.99503719,0.099503719,0.));
#241=DIRECTION('',(0.,0.,-1.));
#242=AXIS2_PLACEMENT_3D('',#239,#240,#241);
#243=PLANE('',#242);
#244=ORIENTED_EDGE('',*,*,#176,.F.);
#245=CARTESIAN_POINT('',(-12.525557853,55.855578531,2.348884294));
#246=DIRECTION('',(0.,0.,-1.));
#247=VECTOR('',#246,1.297768587);
#248=LINE('',#245,#247);
#249=EDGE_CURVE('',#149,#75,#248,.T.);
#250=ORIENTED_EDGE('',*,*,#249,.T.);
#251=ORIENTED_EDGE('',*,*,#80,.F.);
#252=CARTESIAN_POINT('',(-12.4,54.6,2.6));
#253=DIRECTION('',(0.,0.,-1.));
#254=VECTOR('',#253,1.8);
#255=LINE('',#252,#254);
#256=EDGE_CURVE('',#171,#73,#255,.T.);
#257=ORIENTED_EDGE('',*,*,#256,.F.);
#258=EDGE_LOOP('',(#244,#250,#251,#257));
#259=FACE_BOUND('',#258,.T.);
#260=ADVANCED_FACE('',(#259),#243,.F.);
#261=CARTESIAN_POINT('',(-12.525557853,55.855578531,2.348884294));
#262=CARTESIAN_POINT('',(-12.525557853,55.855578531,1.916294765));
#263=CARTESIAN_POINT('',(-12.525557853,55.855578531,1.483705235));
#264=CARTESIAN_POINT('',(-12.525557853,55.855578531,1.051115706));
#265=CARTESIAN_POINT('',(-12.6,56.6,2.348884294));
#266=CARTESIAN_POINT('',(-12.6,56.6,1.916294765));
#267=CARTESIAN_POINT('',(-12.6,56.6,1.483705235));
#268=CARTESIAN_POINT('',(-12.6,56.6,1.051115706));
#269=CARTESIAN_POINT('',(-12.6,57.348134317,2.348884294));
#270=CARTESIAN_POINT('',(-12.6,57.348134317,1.916294765));
#271=CARTESIAN_POINT('',(-12.6,57.348134317,1.483705235));
#272=CARTESIAN_POINT('',(-12.6,57.348134317,1.051115706));
#273=(BOUNDED_SURFACE()
B_SPLINE_SURFACE(2,3,((#261,#262,#263,#264),(#265,#266,#267,#268),(#269,#270,#271,#272)),.UNSPECIFIED.,.F.,.F.,.U.)
B_SPLINE_SURFACE_WITH_KNOTS((3,3),(4,4),(0.,1.),(-0.002348884,-0.001051116),.UNSPECIFIED.)
GEOMETRIC_REPRESENTATION_ITEM()
RATIONAL_B_SPLINE_SURFACE(((1.,1.,1.,1.),(3.995034108,3.995034108,3.995034108,3.995034108),(1.,1.,1.,1.)))
REPRESENTATION_ITEM('')
SURFACE()
);
#274=ORIENTED_EDGE('',*,*,#100,.F.);
#275=ORIENTED_EDGE('',*,*,#249,.F.);
#276=ORIENTED_EDGE('',*,*,#168,.F.);
#277=ORIENTED_EDGE('',*,*,#48,.F.);
#278=EDGE_LOOP('',(#274,#275,#276,#277));
#279=FACE_BOUND('',#278,.T.);
#280=ADVANCED_FACE('',(#279),#273,.T.);
#281=CARTESIAN_POINT('',(-12.525557853,64.144421469,1.051115706));
#282=CARTESIAN_POINT('',(-12.525557853,64.144421469,1.483705235));
#283=CARTESIAN_POINT('',(-12.525557853,64.144421469,1.916294765));
#284=CARTESIAN_POINT('',(-12.525557853,64.144421469,2.348884294));
#285=CARTESIAN_POINT('',(-12.6,63.4,1.051115706));
#286=CARTESIAN_POINT('',(-12.6,63.4,1.483705235));
#287=CARTESIAN_POINT('',(-12.6,63.4,1.916294765));
#288=CARTESIAN_POINT('',(-12.6,63.4,2.348884294));
#289=CARTESIAN_POINT('',(-12.6,62.651865683,1.051115706));
#290=CARTESIAN_POINT('',(-12.6,62.651865683,1.483705235));
#291=CARTESIAN_POINT('',(-12.6,62.651865683,1.916294765));
#292=CARTESIAN_POINT('',(-12.6,62.651865683,2.348884294));
#293=(BOUNDED_SURFACE()
B_SPLINE_SURFACE(2,3,((#281,#282,#283,#284),(#285,#286,#287,#288),(#289,#290,#291,#292)),.UNSPECIFIED.,.F.,.F.,.U.)
B_SPLINE_SURFACE_WITH_KNOTS((3,3),(4,4),(0.,1.),(0.001051116,0.002348884),.UNSPECIFIED.)
GEOMETRIC_REPRESENTATION_ITEM()
RATIONAL_B_SPLINE_SURFACE(((1.,1.,1.,1.),(3.995034108,3.995034108,3.995034108,3.995034108),(1.,1.,1.,1.)))
REPRESENTATION_ITEM('')
SURFACE()
);
#294=ORIENTED_EDGE('',*,*,#212,.F.);
#295=ORIENTED_EDGE('',*,*,#227,.F.);
#296=ORIENTED_EDGE('',*,*,#123,.F.);
#297=ORIENTED_EDGE('',*,*,#62,.F.);
#298=EDGE_LOOP('',(#294,#295,#296,#297));
#299=FACE_BOUND('',#298,.T.);
#300=ADVANCED_FACE('',(#299),#293,.T.);
#301=CARTESIAN_POINT('',(-12.4,68.359440841,2.498));
#302=DIRECTION('',(1.,-0.,0.));
#303=DIRECTION('',(0.,0.,1.));
#304=AXIS2_PLACEMENT_3D('',#301,#302,#303);
#305=PLANE('',#304);
#306=CARTESIAN_POINT('',(-12.4,69.1372583,3.6));
#307=VERTEX_POINT('',#306);
#308=CARTESIAN_POINT('',(-12.4,69.1372583,4.));
#309=VERTEX_POINT('',#308);
#310=CARTESIAN_POINT('',(-12.4,69.1372583,3.6));
#311=DIRECTION('',(0.,0.,1.));
#312=VECTOR('',#311,0.4);
#313=LINE('',#310,#312);
#314=EDGE_CURVE('',#307,#309,#313,.T.);
#315=ORIENTED_EDGE('',*,*,#314,.F.);
#316=CARTESIAN_POINT('',(-12.4,67.581623382,2.5));
#317=VERTEX_POINT('',#316);
#318=CARTESIAN_POINT('',(-12.4,69.1372583,3.6));
#319=DIRECTION('',(-0.,-0.816496581,-0.577350269));
#320=VECTOR('',#319,1.905255888);
#321=LINE('',#318,#320);
#322=EDGE_CURVE('',#307,#317,#321,.T.);
#323=ORIENTED_EDGE('',*,*,#322,.T.);
#324=CARTESIAN_POINT('',(-12.4,67.581623382,-4.));
#325=VERTEX_POINT('',#324);
#326=CARTESIAN_POINT('',(-12.4,67.581623382,2.5));
#327=DIRECTION('',(0.,0.,-1.));
#328=VECTOR('',#327,6.5);
#329=LINE('',#326,#328);
#330=EDGE_CURVE('',#317,#325,#329,.T.);
#331=ORIENTED_EDGE('',*,*,#330,.T.);
#332=CARTESIAN_POINT('',(-12.4,52.418376618,-4.));
#333=VERTEX_POINT('',#332);
#334=CARTESIAN_POINT('',(-12.4,67.581623382,-4.));
#335=DIRECTION('',(0.,-1.,0.));
#336=VECTOR('',#335,15.163246763);
#337=LINE('',#334,#336);
#338=EDGE_CURVE('',#325,#333,#337,.T.);
#339=ORIENTED_EDGE('',*,*,#338,.T.);
#340=CARTESIAN_POINT('',(-12.4,52.418376618,2.5));
#341=VERTEX_POINT('',#340);
#342=CARTESIAN_POINT('',(-12.4,52.418376618,2.5));
#343=DIRECTION('',(0.,0.,-1.));
#344=VECTOR('',#343,6.5);
#345=LINE('',#342,#344);
#346=EDGE_CURVE('',#341,#333,#345,.T.);
#347=ORIENTED_EDGE('',*,*,#346,.F.);
#348=CARTESIAN_POINT('',(-12.4,50.8627417,3.6));
#349=VERTEX_POINT('',#348);
#350=CARTESIAN_POINT('',(-12.4,52.418376618,2.5));
#351=DIRECTION('',(-0.,-0.816496581,0.577350269));
#352=VECTOR('',#351,1.905255888);
#353=LINE('',#350,#352);
#354=EDGE_CURVE('',#341,#349,#353,.T.);
#355=ORIENTED_EDGE('',*,*,#354,.T.);
#356=CARTESIAN_POINT('',(-12.4,50.8627417,4.));
#357=VERTEX_POINT('',#356);
#358=CARTESIAN_POINT('',(-12.4,50.8627417,3.6));
#359=DIRECTION('',(0.,0.,1.));
#360=VECTOR('',#359,0.4);
#361=LINE('',#358,#360);
#362=EDGE_CURVE('',#349,#357,#361,.T.);
#363=ORIENTED_EDGE('',*,*,#362,.T.);
#364=CARTESIAN_POINT('',(-12.4,50.8627417,4.));
#365=DIRECTION('',(0.,1.,0.));
#366=VECTOR('',#365,18.2745166);
#367=LINE('',#364,#366);
#368=EDGE_CURVE('',#357,#309,#367,.T.);
#369=ORIENTED_EDGE('',*,*,#368,.T.);
#370=EDGE_LOOP('',(#315,#323,#331,#339,#347,#355,#363,#369));
#371=FACE_BOUND('',#370,.T.);
#372=ORIENTED_EDGE('',*,*,#184,.T.);
#373=ORIENTED_EDGE('',*,*,#256,.T.);
#374=ORIENTED_EDGE('',*,*,#137,.T.);
#375=ORIENTED_EDGE('',*,*,#234,.T.);
#376=EDGE_LOOP('',(#372,#373,#374,#375));
#377=FACE_BOUND('',#376,.T.);
#378=ADVANCED_FACE('',(#371,#377),#305,.F.);
#379=CARTESIAN_POINT('',(-10.76862915,70.76862915,-0.));
#380=DIRECTION('',(-0.707106781,0.707106781,0.));
#381=DIRECTION('',(-0.707106781,-0.707106781,0.));
#382=AXIS2_PLACEMENT_3D('',#379,#380,#381);
#383=PLANE('',#382);
#384=CARTESIAN_POINT('',(-9.1372583,72.4,3.6));
#385=VERTEX_POINT('',#384);
#386=CARTESIAN_POINT('',(-9.1372583,72.4,4.));
#387=VERTEX_POINT('',#386);
#388=CARTESIAN_POINT('',(-9.1372583,72.4,3.6));
#389=DIRECTION('',(0.,0.,1.));
#390=VECTOR('',#389,0.4);
#391=LINE('',#388,#390);
#392=EDGE_CURVE('',#385,#387,#391,.T.);
#393=ORIENTED_EDGE('',*,*,#392,.F.);
#394=CARTESIAN_POINT('',(-9.1372583,72.4,3.6));
#395=DIRECTION('',(-0.707106781,-0.707106781,0.));
#396=VECTOR('',#395,4.614213562);
#397=LINE('',#394,#396);
#398=EDGE_CURVE('',#385,#307,#397,.T.);
#399=ORIENTED_EDGE('',*,*,#398,.T.);
#400=ORIENTED_EDGE('',*,*,#314,.T.);
#401=CARTESIAN_POINT('',(-9.1372583,72.4,4.));
#402=DIRECTION('',(-0.707106781,-0.707106781,0.));
#403=VECTOR('',#402,4.614213562);
#404=LINE('',#401,#403);
#405=EDGE_CURVE('',#387,#309,#404,.T.);
#406=ORIENTED_EDGE('',*,*,#405,.F.);
#407=EDGE_LOOP('',(#393,#399,#400,#406));
#408=FACE_BOUND('',#407,.T.);
#409=ADVANCED_FACE('',(#408),#383,.T.);
#410=CARTESIAN_POINT('',(-10.76862915,70.76862915,4.));
#411=DIRECTION('',(0.,0.,1.));
#412=DIRECTION('',(-0.,-1.,0.));
#413=AXIS2_PLACEMENT_3D('',#410,#411,#412);
#414=PLANE('',#413);
#415=ORIENTED_EDGE('',*,*,#368,.F.);
#416=CARTESIAN_POINT('',(-9.1372583,47.6,4.));
#417=VERTEX_POINT('',#416);
#418=CARTESIAN_POINT('',(-12.4,50.8627417,4.));
#419=DIRECTION('',(0.707106781,-0.707106781,0.));
#420=VECTOR('',#419,4.614213562);
#421=LINE('',#418,#420);
#422=EDGE_CURVE('',#357,#417,#421,.T.);
#423=ORIENTED_EDGE('',*,*,#422,.T.);
#424=CARTESIAN_POINT('',(9.1372583,47.6,4.));
#425=VERTEX_POINT('',#424);
#426=CARTESIAN_POINT('',(-9.1372583,47.6,4.));
#427=DIRECTION('',(1.,-0.,0.));
#428=VECTOR('',#427,18.2745166);
#429=LINE('',#426,#428);
#430=EDGE_CURVE('',#417,#425,#429,.T.);
#431=ORIENTED_EDGE('',*,*,#430,.T.);
#432=CARTESIAN_POINT('',(12.4,50.8627417,4.));
#433=VERTEX_POINT('',#432);
#434=CARTESIAN_POINT('',(9.1372583,47.6,4.));
#435=DIRECTION('',(0.707106781,0.707106781,0.));
#436=VECTOR('',#435,4.614213562);
#437=LINE('',#434,#436);
#438=EDGE_CURVE('',#425,#433,#437,.T.);
#439=ORIENTED_EDGE('',*,*,#438,.T.);
#440=CARTESIAN_POINT('',(12.4,69.1372583,4.));
#441=VERTEX_POINT('',#440);
#442=CARTESIAN_POINT('',(12.4,50.8627417,4.));
#443=DIRECTION('',(0.,1.,0.));
#444=VECTOR('',#443,18.2745166);
#445=LINE('',#442,#444);
#446=EDGE_CURVE('',#433,#441,#445,.T.);
#447=ORIENTED_EDGE('',*,*,#446,.T.);
#448=CARTESIAN_POINT('',(9.1372583,72.4,4.));
#449=VERTEX_POINT('',#448);
#450=CARTESIAN_POINT('',(12.4,69.1372583,4.));
#451=DIRECTION('',(-0.707106781,0.707106781,0.));
#452=VECTOR('',#451,4.614213562);
#453=LINE('',#450,#452);
#454=EDGE_CURVE('',#441,#449,#453,.T.);
#455=ORIENTED_EDGE('',*,*,#454,.T.);
#456=CARTESIAN_POINT('',(9.1372583,72.4,4.));
#457=DIRECTION('',(-1.,0.,0.));
#458=VECTOR('',#457,18.2745166);
#459=LINE('',#456,#458);
#460=EDGE_CURVE('',#449,#387,#459,.T.);
#461=ORIENTED_EDGE('',*,*,#460,.T.);
#462=ORIENTED_EDGE('',*,*,#405,.T.);
#463=EDGE_LOOP('',(#415,#423,#431,#439,#447,#455,#461,#462));
#464=FACE_BOUND('',#463,.T.);
#465=CARTESIAN_POINT('',(7.16543474,48.6,4.));
#466=VERTEX_POINT('',#465);
#467=CARTESIAN_POINT('',(11.4,52.83456526,4.));
#468=VERTEX_POINT('',#467);
#469=CARTESIAN_POINT('',(7.16543474,48.6,4.));
#470=DIRECTION('',(0.707106781,0.707106781,0.));
#471=VECTOR('',#470,5.988579621);
#472=LINE('',#469,#471);
#473=EDGE_CURVE('',#466,#468,#472,.T.);
#474=ORIENTED_EDGE('',*,*,#473,.F.);
#475=CARTESIAN_POINT('',(-7.16543474,48.6,4.));
#476=VERTEX_POINT('',#475);
#477=CARTESIAN_POINT('',(-7.16543474,48.6,4.));
#478=DIRECTION('',(1.,0.,-0.));
#479=VECTOR('',#478,14.330869481);
#480=LINE('',#477,#479);
#481=EDGE_CURVE('',#476,#466,#480,.T.);
#482=ORIENTED_EDGE('',*,*,#481,.F.);
#483=CARTESIAN_POINT('',(-11.4,52.83456526,4.));
#484=VERTEX_POINT('',#483);
#485=CARTESIAN_POINT('',(-11.4,52.83456526,4.));
#486=DIRECTION('',(0.707106781,-0.707106781,0.));
#487=VECTOR('',#486,5.988579621);
#488=LINE('',#485,#487);
#489=EDGE_CURVE('',#484,#476,#488,.T.);
#490=ORIENTED_EDGE('',*,*,#489,.F.);
#491=CARTESIAN_POINT('',(-11.4,67.16543474,4.));
#492=VERTEX_POINT('',#491);
#493=CARTESIAN_POINT('',(-11.4,67.16543474,4.));
#494=DIRECTION('',(0.,-1.,0.));
#495=VECTOR('',#494,14.330869481);
#496=LINE('',#493,#495);
#497=EDGE_CURVE('',#492,#484,#496,.T.);
#498=ORIENTED_EDGE('',*,*,#497,.F.);
#499=CARTESIAN_POINT('',(-7.16543474,71.4,4.));
#500=VERTEX_POINT('',#499);
#501=CARTESIAN_POINT('',(-7.16543474,71.4,4.));
#502=DIRECTION('',(-0.707106781,-0.707106781,0.));
#503=VECTOR('',#502,5.988579621);
#504=LINE('',#501,#503);
#505=EDGE_CURVE('',#500,#492,#504,.T.);
#506=ORIENTED_EDGE('',*,*,#505,.F.);
#507=CARTESIAN_POINT('',(7.16543474,71.4,4.));
#508=VERTEX_POINT('',#507);
#509=CARTESIAN_POINT('',(7.16543474,71.4,4.));
#510=DIRECTION('',(-1.,0.,0.));
#511=VECTOR('',#510,14.330869481);
#512=LINE('',#509,#511);
#513=EDGE_CURVE('',#508,#500,#512,.T.);
#514=ORIENTED_EDGE('',*,*,#513,.F.);
#515=CARTESIAN_POINT('',(11.4,67.16543474,4.));
#516=VERTEX_POINT('',#515);
#517=CARTESIAN_POINT('',(11.4,67.16543474,4.));
#518=DIRECTION('',(-0.707106781,0.707106781,0.));
#519=VECTOR('',#518,5.988579621);
#520=LINE('',#517,#519);
#521=EDGE_CURVE('',#516,#508,#520,.T.);
#522=ORIENTED_EDGE('',*,*,#521,.F.);
#523=CARTESIAN_POINT('',(11.4,52.83456526,4.));
#524=DIRECTION('',(0.,1.,0.));
#525=VECTOR('',#524,14.330869481);
#526=LINE('',#523,#525);
#527=EDGE_CURVE('',#468,#516,#526,.T.);
#528=ORIENTED_EDGE('',*,*,#527,.F.);
#529=EDGE_LOOP('',(#474,#482,#490,#498,#506,#514,#522,#528));
#530=FACE_BOUND('',#529,.T.);
#531=ADVANCED_FACE('',(#464,#530),#414,.T.);
#532=CARTESIAN_POINT('',(-8.359440841,72.4,2.498));
#533=DIRECTION('',(0.,1.,0.));
#534=DIRECTION('',(0.,0.,1.));
#535=AXIS2_PLACEMENT_3D('',#532,#533,#534);
#536=PLANE('',#535);
#537=ORIENTED_EDGE('',*,*,#460,.F.);
#538=CARTESIAN_POINT('',(9.1372583,72.4,3.6));
#539=VERTEX_POINT('',#538);
#540=CARTESIAN_POINT('',(9.1372583,72.4,3.6));
#541=DIRECTION('',(0.,0.,1.));
#542=VECTOR('',#541,0.4);
#543=LINE('',#540,#542);
#544=EDGE_CURVE('',#539,#449,#543,.T.);
#545=ORIENTED_EDGE('',*,*,#544,.F.);
#546=CARTESIAN_POINT('',(7.581623382,72.4,2.5));
#547=VERTEX_POINT('',#546);
#548=CARTESIAN_POINT('',(9.1372583,72.4,3.6));
#549=DIRECTION('',(-0.816496581,0.,-0.577350269));
#550=VECTOR('',#549,1.905255888);
#551=LINE('',#548,#550);
#552=EDGE_CURVE('',#539,#547,#551,.T.);
#553=ORIENTED_EDGE('',*,*,#552,.T.);
#554=CARTESIAN_POINT('',(7.581623382,72.4,-4.));
#555=VERTEX_POINT('',#554);
#556=CARTESIAN_POINT('',(7.581623382,72.4,2.5));
#557=DIRECTION('',(0.,0.,-1.));
#558=VECTOR('',#557,6.5);
#559=LINE('',#556,#558);
#560=EDGE_CURVE('',#547,#555,#559,.T.);
#561=ORIENTED_EDGE('',*,*,#560,.T.);
#562=CARTESIAN_POINT('',(-7.581623382,72.4,-4.));
#563=VERTEX_POINT('',#562);
#564=CARTESIAN_POINT('',(7.581623382,72.4,-4.));
#565=DIRECTION('',(-1.,0.,0.));
#566=VECTOR('',#565,15.163246763);
#567=LINE('',#564,#566);
#568=EDGE_CURVE('',#555,#563,#567,.T.);
#569=ORIENTED_EDGE('',*,*,#568,.T.);
#570=CARTESIAN_POINT('',(-7.581623382,72.4,2.5));
#571=VERTEX_POINT('',#570);
#572=CARTESIAN_POINT('',(-7.581623382,72.4,2.5));
#573=DIRECTION('',(0.,0.,-1.));
#574=VECTOR('',#573,6.5);
#575=LINE('',#572,#574);
#576=EDGE_CURVE('',#571,#563,#575,.T.);
#577=ORIENTED_EDGE('',*,*,#576,.F.);
#578=CARTESIAN_POINT('',(-7.581623382,72.4,2.5));
#579=DIRECTION('',(-0.816496581,0.,0.577350269));
#580=VECTOR('',#579,1.905255888);
#581=LINE('',#578,#580);
#582=EDGE_CURVE('',#571,#385,#581,.T.);
#583=ORIENTED_EDGE('',*,*,#582,.T.);
#584=ORIENTED_EDGE('',*,*,#392,.T.);
#585=EDGE_LOOP('',(#537,#545,#553,#561,#569,#577,#583,#584));
#586=FACE_BOUND('',#585,.T.);
#587=CARTESIAN_POINT('',(5.4,72.4,2.6));
#588=VERTEX_POINT('',#587);
#589=CARTESIAN_POINT('',(-5.4,72.4,2.6));
#590=VERTEX_POINT('',#589);
#591=CARTESIAN_POINT('',(5.4,72.4,2.6));
#592=DIRECTION('',(-1.,0.,0.));
#593=VECTOR('',#592,10.8);
#594=LINE('',#591,#593);
#595=EDGE_CURVE('',#588,#590,#594,.T.);
#596=ORIENTED_EDGE('',*,*,#595,.T.);
#597=CARTESIAN_POINT('',(-5.4,72.4,0.8));
#598=VERTEX_POINT('',#597);
#599=CARTESIAN_POINT('',(-5.4,72.4,2.6));
#600=DIRECTION('',(0.,0.,-1.));
#601=VECTOR('',#600,1.8);
#602=LINE('',#599,#601);
#603=EDGE_CURVE('',#590,#598,#602,.T.);
#604=ORIENTED_EDGE('',*,*,#603,.T.);
#605=CARTESIAN_POINT('',(5.4,72.4,0.8));
#606=VERTEX_POINT('',#605);
#607=CARTESIAN_POINT('',(-5.4,72.4,0.8));
#608=DIRECTION('',(1.,-0.,-0.));
#609=VECTOR('',#608,10.8);
#610=LINE('',#607,#609);
#611=EDGE_CURVE('',#598,#606,#610,.T.);
#612=ORIENTED_EDGE('',*,*,#611,.T.);
#613=CARTESIAN_POINT('',(5.4,72.4,0.8));
#614=DIRECTION('',(0.,-0.,1.));
#615=VECTOR('',#614,1.8);
#616=LINE('',#613,#615);
#617=EDGE_CURVE('',#606,#588,#616,.T.);
#618=ORIENTED_EDGE('',*,*,#617,.T.);
#619=EDGE_LOOP('',(#596,#604,#612,#618));
#620=FACE_BOUND('',#619,.T.);
#621=ADVANCED_FACE('',(#586,#620),#536,.T.);
#622=CARTESIAN_POINT('',(-9.990811691,69.990811691,2.5));
#623=DIRECTION('',(0.5,-0.5,0.707106781));
#624=DIRECTION('',(0.707106781,0.707106781,-0.));
#625=AXIS2_PLACEMENT_3D('',#622,#623,#624);
#626=PLANE('',#625);
#627=ORIENTED_EDGE('',*,*,#322,.F.);
#628=ORIENTED_EDGE('',*,*,#398,.F.);
#629=ORIENTED_EDGE('',*,*,#582,.F.);
#630=CARTESIAN_POINT('',(-12.4,67.581623382,2.5));
#631=DIRECTION('',(0.707106781,0.707106781,-0.));
#632=VECTOR('',#631,6.814213562);
#633=LINE('',#630,#632);
#634=EDGE_CURVE('',#317,#571,#633,.T.);
#635=ORIENTED_EDGE('',*,*,#634,.F.);
#636=EDGE_LOOP('',(#627,#628,#629,#635));
#637=FACE_BOUND('',#636,.T.);
#638=ADVANCED_FACE('',(#637),#626,.F.);
#639=CARTESIAN_POINT('',(-9.990811691,69.990811691,4.));
#640=DIRECTION('',(0.707106781,-0.707106781,0.));
#641=DIRECTION('',(0.707106781,0.707106781,0.));
#642=AXIS2_PLACEMENT_3D('',#639,#640,#641);
#643=PLANE('',#642);
#644=ORIENTED_EDGE('',*,*,#330,.F.);
#645=ORIENTED_EDGE('',*,*,#634,.T.);
#646=ORIENTED_EDGE('',*,*,#576,.T.);
#647=CARTESIAN_POINT('',(-7.581623382,72.4,-4.));
#648=DIRECTION('',(-0.707106781,-0.707106781,0.));
#649=VECTOR('',#648,6.814213562);
#650=LINE('',#647,#649);
#651=EDGE_CURVE('',#563,#325,#650,.T.);
#652=ORIENTED_EDGE('',*,*,#651,.T.);
#653=EDGE_LOOP('',(#644,#645,#646,#652));
#654=FACE_BOUND('',#653,.T.);
#655=ADVANCED_FACE('',(#654),#643,.F.);
#656=CARTESIAN_POINT('',(10.76862915,70.76862915,-0.));
#657=DIRECTION('',(0.707106781,0.707106781,0.));
#658=DIRECTION('',(-0.707106781,0.707106781,0.));
#659=AXIS2_PLACEMENT_3D('',#656,#657,#658);
#660=PLANE('',#659);
#661=CARTESIAN_POINT('',(12.4,69.1372583,3.6));
#662=VERTEX_POINT('',#661);
#663=CARTESIAN_POINT('',(12.4,69.1372583,3.6));
#664=DIRECTION('',(0.,0.,1.));
#665=VECTOR('',#664,0.4);
#666=LINE('',#663,#665);
#667=EDGE_CURVE('',#662,#441,#666,.T.);
#668=ORIENTED_EDGE('',*,*,#667,.F.);
#669=CARTESIAN_POINT('',(12.4,69.1372583,3.6));
#670=DIRECTION('',(-0.707106781,0.707106781,0.));
#671=VECTOR('',#670,4.614213562);
#672=LINE('',#669,#671);
#673=EDGE_CURVE('',#662,#539,#672,.T.);
#674=ORIENTED_EDGE('',*,*,#673,.T.);
#675=ORIENTED_EDGE('',*,*,#544,.T.);
#676=ORIENTED_EDGE('',*,*,#454,.F.);
#677=EDGE_LOOP('',(#668,#674,#675,#676));
#678=FACE_BOUND('',#677,.T.);
#679=ADVANCED_FACE('',(#678),#660,.T.);
#680=CARTESIAN_POINT('',(12.4,68.359440841,2.498));
#681=DIRECTION('',(1.,-0.,0.));
#682=DIRECTION('',(0.,0.,1.));
#683=AXIS2_PLACEMENT_3D('',#680,#681,#682);
#684=PLANE('',#683);
#685=ORIENTED_EDGE('',*,*,#446,.F.);
#686=CARTESIAN_POINT('',(12.4,50.8627417,3.6));
#687=VERTEX_POINT('',#686);
#688=CARTESIAN_POINT('',(12.4,50.8627417,3.6));
#689=DIRECTION('',(0.,0.,1.));
#690=VECTOR('',#689,0.4);
#691=LINE('',#688,#690);
#692=EDGE_CURVE('',#687,#433,#691,.T.);
#693=ORIENTED_EDGE('',*,*,#692,.F.);
#694=CARTESIAN_POINT('',(12.4,52.418376618,2.5));
#695=VERTEX_POINT('',#694);
#696=CARTESIAN_POINT('',(12.4,50.8627417,3.6));
#697=DIRECTION('',(0.,0.816496581,-0.577350269));
#698=VECTOR('',#697,1.905255888);
#699=LINE('',#696,#698);
#700=EDGE_CURVE('',#687,#695,#699,.T.);
#701=ORIENTED_EDGE('',*,*,#700,.T.);
#702=CARTESIAN_POINT('',(12.4,52.418376618,-4.));
#703=VERTEX_POINT('',#702);
#704=CARTESIAN_POINT('',(12.4,52.418376618,2.5));
#705=DIRECTION('',(0.,0.,-1.));
#706=VECTOR('',#705,6.5);
#707=LINE('',#704,#706);
#708=EDGE_CURVE('',#695,#703,#707,.T.);
#709=ORIENTED_EDGE('',*,*,#708,.T.);
#710=CARTESIAN_POINT('',(12.4,67.581623382,-4.));
#711=VERTEX_POINT('',#710);
#712=CARTESIAN_POINT('',(12.4,52.418376618,-4.));
#713=DIRECTION('',(0.,1.,0.));
#714=VECTOR('',#713,15.163246763);
#715=LINE('',#712,#714);
#716=EDGE_CURVE('',#703,#711,#715,.T.);
#717=ORIENTED_EDGE('',*,*,#716,.T.);
#718=CARTESIAN_POINT('',(12.4,67.581623382,2.5));
#719=VERTEX_POINT('',#718);
#720=CARTESIAN_POINT('',(12.4,67.581623382,2.5));
#721=DIRECTION('',(0.,0.,-1.));
#722=VECTOR('',#721,6.5);
#723=LINE('',#720,#722);
#724=EDGE_CURVE('',#719,#711,#723,.T.);
#725=ORIENTED_EDGE('',*,*,#724,.F.);
#726=CARTESIAN_POINT('',(12.4,67.581623382,2.5));
#727=DIRECTION('',(0.,0.816496581,0.577350269));
#728=VECTOR('',#727,1.905255888);
#729=LINE('',#726,#728);
#730=EDGE_CURVE('',#719,#662,#729,.T.);
#731=ORIENTED_EDGE('',*,*,#730,.T.);
#732=ORIENTED_EDGE('',*,*,#667,.T.);
#733=EDGE_LOOP('',(#685,#693,#701,#709,#717,#725,#731,#732));
#734=FACE_BOUND('',#733,.T.);
#735=CARTESIAN_POINT('',(12.4,54.6,2.6));
#736=VERTEX_POINT('',#735);
#737=CARTESIAN_POINT('',(12.4,65.4,2.6));
#738=VERTEX_POINT('',#737);
#739=CARTESIAN_POINT('',(12.4,54.6,2.6));
#740=DIRECTION('',(0.,1.,0.));
#741=VECTOR('',#740,10.8);
#742=LINE('',#739,#741);
#743=EDGE_CURVE('',#736,#738,#742,.T.);
#744=ORIENTED_EDGE('',*,*,#743,.T.);
#745=CARTESIAN_POINT('',(12.4,65.4,0.8));
#746=VERTEX_POINT('',#745);
#747=CARTESIAN_POINT('',(12.4,65.4,2.6));
#748=DIRECTION('',(0.,0.,-1.));
#749=VECTOR('',#748,1.8);
#750=LINE('',#747,#749);
#751=EDGE_CURVE('',#738,#746,#750,.T.);
#752=ORIENTED_EDGE('',*,*,#751,.T.);
#753=CARTESIAN_POINT('',(12.4,54.6,0.8));
#754=VERTEX_POINT('',#753);
#755=CARTESIAN_POINT('',(12.4,65.4,0.8));
#756=DIRECTION('',(-0.,-1.,-0.));
#757=VECTOR('',#756,10.8);
#758=LINE('',#755,#757);
#759=EDGE_CURVE('',#746,#754,#758,.T.);
#760=ORIENTED_EDGE('',*,*,#759,.T.);
#761=CARTESIAN_POINT('',(12.4,54.6,0.8));
#762=DIRECTION('',(-0.,-0.,1.));
#763=VECTOR('',#762,1.8);
#764=LINE('',#761,#763);
#765=EDGE_CURVE('',#754,#736,#764,.T.);
#766=ORIENTED_EDGE('',*,*,#765,.T.);
#767=EDGE_LOOP('',(#744,#752,#760,#766));
#768=FACE_BOUND('',#767,.T.);
#769=ADVANCED_FACE('',(#734,#768),#684,.T.);
#770=CARTESIAN_POINT('',(9.990811691,69.990811691,2.5));
#771=DIRECTION('',(-0.5,-0.5,0.707106781));
#772=DIRECTION('',(0.707106781,-0.707106781,-0.));
#773=AXIS2_PLACEMENT_3D('',#770,#771,#772);
#774=PLANE('',#773);
#775=ORIENTED_EDGE('',*,*,#552,.F.);
#776=ORIENTED_EDGE('',*,*,#673,.F.);
#777=ORIENTED_EDGE('',*,*,#730,.F.);
#778=CARTESIAN_POINT('',(7.581623382,72.4,2.5));
#779=DIRECTION('',(0.707106781,-0.707106781,-0.));
#780=VECTOR('',#779,6.814213562);
#781=LINE('',#778,#780);
#782=EDGE_CURVE('',#547,#719,#781,.T.);
#783=ORIENTED_EDGE('',*,*,#782,.F.);
#784=EDGE_LOOP('',(#775,#776,#777,#783));
#785=FACE_BOUND('',#784,.T.);
#786=ADVANCED_FACE('',(#785),#774,.F.);
#787=CARTESIAN_POINT('',(9.990811691,69.990811691,4.));
#788=DIRECTION('',(-0.707106781,-0.707106781,0.));
#789=DIRECTION('',(0.707106781,-0.707106781,0.));
#790=AXIS2_PLACEMENT_3D('',#787,#788,#789);
#791=PLANE('',#790);
#792=ORIENTED_EDGE('',*,*,#560,.F.);
#793=ORIENTED_EDGE('',*,*,#782,.T.);
#794=ORIENTED_EDGE('',*,*,#724,.T.);
#795=CARTESIAN_POINT('',(12.4,67.581623382,-4.));
#796=DIRECTION('',(-0.707106781,0.707106781,0.));
#797=VECTOR('',#796,6.814213562);
#798=LINE('',#795,#797);
#799=EDGE_CURVE('',#711,#555,#798,.T.);
#800=ORIENTED_EDGE('',*,*,#799,.T.);
#801=EDGE_LOOP('',(#792,#793,#794,#800));
#802=FACE_BOUND('',#801,.T.);
#803=ADVANCED_FACE('',(#802),#791,.F.);
#804=CARTESIAN_POINT('',(10.76862915,49.23137085,-0.));
#805=DIRECTION('',(0.707106781,-0.707106781,0.));
#806=DIRECTION('',(0.707106781,0.707106781,0.));
#807=AXIS2_PLACEMENT_3D('',#804,#805,#806);
#808=PLANE('',#807);
#809=CARTESIAN_POINT('',(9.1372583,47.6,3.6));
#810=VERTEX_POINT('',#809);
#811=CARTESIAN_POINT('',(9.1372583,47.6,3.6));
#812=DIRECTION('',(0.,0.,1.));
#813=VECTOR('',#812,0.4);
#814=LINE('',#811,#813);
#815=EDGE_CURVE('',#810,#425,#814,.T.);
#816=ORIENTED_EDGE('',*,*,#815,.F.);
#817=CARTESIAN_POINT('',(9.1372583,47.6,3.6));
#818=DIRECTION('',(0.707106781,0.707106781,0.));
#819=VECTOR('',#818,4.614213562);
#820=LINE('',#817,#819);
#821=EDGE_CURVE('',#810,#687,#820,.T.);
#822=ORIENTED_EDGE('',*,*,#821,.T.);
#823=ORIENTED_EDGE('',*,*,#692,.T.);
#824=ORIENTED_EDGE('',*,*,#438,.F.);
#825=EDGE_LOOP('',(#816,#822,#823,#824));
#826=FACE_BOUND('',#825,.T.);
#827=ADVANCED_FACE('',(#826),#808,.T.);
#828=CARTESIAN_POINT('',(8.359440841,47.6,2.498));
#829=DIRECTION('',(-0.,-1.,0.));
#830=DIRECTION('',(0.,0.,1.));
#831=AXIS2_PLACEMENT_3D('',#828,#829,#830);
#832=PLANE('',#831);
#833=ORIENTED_EDGE('',*,*,#430,.F.);
#834=CARTESIAN_POINT('',(-9.1372583,47.6,3.6));
#835=VERTEX_POINT('',#834);
#836=CARTESIAN_POINT('',(-9.1372583,47.6,3.6));
#837=DIRECTION('',(0.,0.,1.));
#838=VECTOR('',#837,0.4);
#839=LINE('',#836,#838);
#840=EDGE_CURVE('',#835,#417,#839,.T.);
#841=ORIENTED_EDGE('',*,*,#840,.F.);
#842=CARTESIAN_POINT('',(-7.581623382,47.6,2.5));
#843=VERTEX_POINT('',#842);
#844=CARTESIAN_POINT('',(-9.1372583,47.6,3.6));
#845=DIRECTION('',(0.816496581,-0.,-0.577350269));
#846=VECTOR('',#845,1.905255888);
#847=LINE('',#844,#846);
#848=EDGE_CURVE('',#835,#843,#847,.T.);
#849=ORIENTED_EDGE('',*,*,#848,.T.);
#850=CARTESIAN_POINT('',(-7.581623382,47.6,-4.));
#851=VERTEX_POINT('',#850);
#852=CARTESIAN_POINT('',(-7.581623382,47.6,2.5));
#853=DIRECTION('',(0.,0.,-1.));
#854=VECTOR('',#853,6.5);
#855=LINE('',#852,#854);
#856=EDGE_CURVE('',#843,#851,#855,.T.);
#857=ORIENTED_EDGE('',*,*,#856,.T.);
#858=CARTESIAN_POINT('',(7.581623382,47.6,-4.));
#859=VERTEX_POINT('',#858);
#860=CARTESIAN_POINT('',(-7.581623382,47.6,-4.));
#861=DIRECTION('',(1.,0.,-0.));
#862=VECTOR('',#861,15.163246763);
#863=LINE('',#860,#862);
#864=EDGE_CURVE('',#851,#859,#863,.T.);
#865=ORIENTED_EDGE('',*,*,#864,.T.);
#866=CARTESIAN_POINT('',(7.581623382,47.6,2.5));
#867=VERTEX_POINT('',#866);
#868=CARTESIAN_POINT('',(7.581623382,47.6,2.5));
#869=DIRECTION('',(0.,0.,-1.));
#870=VECTOR('',#869,6.5);
#871=LINE('',#868,#870);
#872=EDGE_CURVE('',#867,#859,#871,.T.);
#873=ORIENTED_EDGE('',*,*,#872,.F.);
#874=CARTESIAN_POINT('',(7.581623382,47.6,2.5));
#875=DIRECTION('',(0.816496581,-0.,0.577350269));
#876=VECTOR('',#875,1.905255888);
#877=LINE('',#874,#876);
#878=EDGE_CURVE('',#867,#810,#877,.T.);
#879=ORIENTED_EDGE('',*,*,#878,.T.);
#880=ORIENTED_EDGE('',*,*,#815,.T.);
#881=EDGE_LOOP('',(#833,#841,#849,#857,#865,#873,#879,#880));
#882=FACE_BOUND('',#881,.T.);
#883=CARTESIAN_POINT('',(-5.4,47.6,2.6));
#884=VERTEX_POINT('',#883);
#885=CARTESIAN_POINT('',(5.4,47.6,2.6));
#886=VERTEX_POINT('',#885);
#887=CARTESIAN_POINT('',(-5.4,47.6,2.6));
#888=DIRECTION('',(1.,-0.,0.));
#889=VECTOR('',#888,10.8);
#890=LINE('',#887,#889);
#891=EDGE_CURVE('',#884,#886,#890,.T.);
#892=ORIENTED_EDGE('',*,*,#891,.T.);
#893=CARTESIAN_POINT('',(5.4,47.6,0.8));
#894=VERTEX_POINT('',#893);
#895=CARTESIAN_POINT('',(5.4,47.6,2.6));
#896=DIRECTION('',(0.,0.,-1.));
#897=VECTOR('',#896,1.8);
#898=LINE('',#895,#897);
#899=EDGE_CURVE('',#886,#894,#898,.T.);
#900=ORIENTED_EDGE('',*,*,#899,.T.);
#901=CARTESIAN_POINT('',(-5.4,47.6,0.8));
#902=VERTEX_POINT('',#901);
#903=CARTESIAN_POINT('',(5.4,47.6,0.8));
#904=DIRECTION('',(-1.,0.,-0.));
#905=VECTOR('',#904,10.8);
#906=LINE('',#903,#905);
#907=EDGE_CURVE('',#894,#902,#906,.T.);
#908=ORIENTED_EDGE('',*,*,#907,.T.);
#909=CARTESIAN_POINT('',(-5.4,47.6,0.8));
#910=DIRECTION('',(-0.,0.,1.));
#911=VECTOR('',#910,1.8);
#912=LINE('',#909,#911);
#913=EDGE_CURVE('',#902,#884,#912,.T.);
#914=ORIENTED_EDGE('',*,*,#913,.T.);
#915=EDGE_LOOP('',(#892,#900,#908,#914));
#916=FACE_BOUND('',#915,.T.);
#917=ADVANCED_FACE('',(#882,#916),#832,.T.);
#918=CARTESIAN_POINT('',(9.990811691,50.009188309,2.5));
#919=DIRECTION('',(-0.5,0.5,0.707106781));
#920=DIRECTION('',(-0.707106781,-0.707106781,-0.));
#921=AXIS2_PLACEMENT_3D('',#918,#919,#920);
#922=PLANE('',#921);
#923=ORIENTED_EDGE('',*,*,#700,.F.);
#924=ORIENTED_EDGE('',*,*,#821,.F.);
#925=ORIENTED_EDGE('',*,*,#878,.F.);
#926=CARTESIAN_POINT('',(12.4,52.418376618,2.5));
#927=DIRECTION('',(-0.707106781,-0.707106781,-0.));
#928=VECTOR('',#927,6.814213562);
#929=LINE('',#926,#928);
#930=EDGE_CURVE('',#695,#867,#929,.T.);
#931=ORIENTED_EDGE('',*,*,#930,.F.);
#932=EDGE_LOOP('',(#923,#924,#925,#931));
#933=FACE_BOUND('',#932,.T.);
#934=ADVANCED_FACE('',(#933),#922,.F.);
#935=CARTESIAN_POINT('',(9.990811691,50.009188309,4.));
#936=DIRECTION('',(-0.707106781,0.707106781,0.));
#937=DIRECTION('',(-0.707106781,-0.707106781,0.));
#938=AXIS2_PLACEMENT_3D('',#935,#936,#937);
#939=PLANE('',#938);
#940=ORIENTED_EDGE('',*,*,#708,.F.);
#941=ORIENTED_EDGE('',*,*,#930,.T.);
#942=ORIENTED_EDGE('',*,*,#872,.T.);
#943=CARTESIAN_POINT('',(7.581623382,47.6,-4.));
#944=DIRECTION('',(0.707106781,0.707106781,0.));
#945=VECTOR('',#944,6.814213562);
#946=LINE('',#943,#945);
#947=EDGE_CURVE('',#859,#703,#946,.T.);
#948=ORIENTED_EDGE('',*,*,#947,.T.);
#949=EDGE_LOOP('',(#940,#941,#942,#948));
#950=FACE_BOUND('',#949,.T.);
#951=ADVANCED_FACE('',(#950),#939,.F.);
#952=CARTESIAN_POINT('',(-10.76862915,49.23137085,-0.));
#953=DIRECTION('',(-0.707106781,-0.707106781,0.));
#954=DIRECTION('',(0.707106781,-0.707106781,0.));
#955=AXIS2_PLACEMENT_3D('',#952,#953,#954);
#956=PLANE('',#955);
#957=ORIENTED_EDGE('',*,*,#362,.F.);
#958=CARTESIAN_POINT('',(-12.4,50.8627417,3.6));
#959=DIRECTION('',(0.707106781,-0.707106781,0.));
#960=VECTOR('',#959,4.614213562);
#961=LINE('',#958,#960);
#962=EDGE_CURVE('',#349,#835,#961,.T.);
#963=ORIENTED_EDGE('',*,*,#962,.T.);
#964=ORIENTED_EDGE('',*,*,#840,.T.);
#965=ORIENTED_EDGE('',*,*,#422,.F.);
#966=EDGE_LOOP('',(#957,#963,#964,#965));
#967=FACE_BOUND('',#966,.T.);
#968=ADVANCED_FACE('',(#967),#956,.T.);
#969=CARTESIAN_POINT('',(-9.990811691,50.009188309,2.5));
#970=DIRECTION('',(0.5,0.5,0.707106781));
#971=DIRECTION('',(-0.707106781,0.707106781,-0.));
#972=AXIS2_PLACEMENT_3D('',#969,#970,#971);
#973=PLANE('',#972);
#974=ORIENTED_EDGE('',*,*,#848,.F.);
#975=ORIENTED_EDGE('',*,*,#962,.F.);
#976=ORIENTED_EDGE('',*,*,#354,.F.);
#977=CARTESIAN_POINT('',(-7.581623382,47.6,2.5));
#978=DIRECTION('',(-0.707106781,0.707106781,-0.));
#979=VECTOR('',#978,6.814213562);
#980=LINE('',#977,#979);
#981=EDGE_CURVE('',#843,#341,#980,.T.);
#982=ORIENTED_EDGE('',*,*,#981,.F.);
#983=EDGE_LOOP('',(#974,#975,#976,#982));
#984=FACE_BOUND('',#983,.T.);
#985=ADVANCED_FACE('',(#984),#973,.F.);
#986=CARTESIAN_POINT('',(-9.990811691,50.009188309,4.));
#987=DIRECTION('',(0.707106781,0.707106781,0.));
#988=DIRECTION('',(-0.707106781,0.707106781,0.));
#989=AXIS2_PLACEMENT_3D('',#986,#987,#988);
#990=PLANE('',#989);
#991=ORIENTED_EDGE('',*,*,#856,.F.);
#992=ORIENTED_EDGE('',*,*,#981,.T.);
#993=ORIENTED_EDGE('',*,*,#346,.T.);
#994=CARTESIAN_POINT('',(-12.4,52.418376618,-4.));
#995=DIRECTION('',(0.707106781,-0.707106781,0.));
#996=VECTOR('',#995,6.814213562);
#997=LINE('',#994,#996);
#998=EDGE_CURVE('',#333,#851,#997,.T.);
#999=ORIENTED_EDGE('',*,*,#998,.T.);
#1000=EDGE_LOOP('',(#991,#992,#993,#999));
#1001=FACE_BOUND('',#1000,.T.);
#1002=ADVANCED_FACE('',(#1001),#990,.F.);
#1003=CARTESIAN_POINT('',(0.,60.,-4.));
#1004=DIRECTION('',(0.,0.,1.));
#1005=DIRECTION('',(1.,0.,0.));
#1006=AXIS2_PLACEMENT_3D('',#1003,#1004,#1005);
#1007=PLANE('',#1006);
#1008=CARTESIAN_POINT('',(2.05,60.,-4.));
#1009=VERTEX_POINT('',#1008);
#1010=CARTESIAN_POINT('',(0.,60.,-4.));
#1011=DIRECTION('',(-0.,-0.,-1.));
#1012=DIRECTION('',(1.,0.,-0.));
#1013=AXIS2_PLACEMENT_3D('',#1010,#1011,#1012);
#1014=CIRCLE('',#1013,2.05);
#1015=EDGE_CURVE('',#1009,#1009,#1014,.T.);
#1016=ORIENTED_EDGE('',*,*,#1015,.F.);
#1017=EDGE_LOOP('',(#1016));
#1018=FACE_BOUND('',#1017,.T.);
#1019=ORIENTED_EDGE('',*,*,#864,.F.);
#1020=ORIENTED_EDGE('',*,*,#998,.F.);
#1021=ORIENTED_EDGE('',*,*,#338,.F.);
#1022=ORIENTED_EDGE('',*,*,#651,.F.);
#1023=ORIENTED_EDGE('',*,*,#568,.F.);
#1024=ORIENTED_EDGE('',*,*,#799,.F.);
#1025=ORIENTED_EDGE('',*,*,#716,.F.);
#1026=ORIENTED_EDGE('',*,*,#947,.F.);
#1027=EDGE_LOOP('',(#1019,#1020,#1021,#1022,#1023,#1024,#1025,#1026));
#1028=FACE_BOUND('',#1027,.T.);
#1029=ADVANCED_FACE('',(#1018,#1028),#1007,.F.);
#1030=CARTESIAN_POINT('',(0.,60.,1.8));
#1031=DIRECTION('',(0.,0.,1.));
#1032=DIRECTION('',(1.,0.,0.));
#1033=AXIS2_PLACEMENT_3D('',#1030,#1031,#1032);
#1034=PLANE('',#1033);
#1035=CARTESIAN_POINT('',(3.65,60.,1.8));
#1036=VERTEX_POINT('',#1035);
#1037=CARTESIAN_POINT('',(0.,60.,1.8));
#1038=DIRECTION('',(-0.,-0.,-1.));
#1039=DIRECTION('',(1.,0.,-0.));
#1040=AXIS2_PLACEMENT_3D('',#1037,#1038,#1039);
#1041=CIRCLE('',#1040,3.65);
#1042=EDGE_CURVE('',#1036,#1036,#1041,.T.);
#1043=ORIENTED_EDGE('',*,*,#1042,.T.);
#1044=EDGE_LOOP('',(#1043));
#1045=FACE_BOUND('',#1044,.T.);
#1046=CARTESIAN_POINT('',(11.4,52.83456526,1.8));
#1047=VERTEX_POINT('',#1046);
#1048=CARTESIAN_POINT('',(7.16543474,48.6,1.8));
#1049=VERTEX_POINT('',#1048);
#1050=CARTESIAN_POINT('',(11.4,52.83456526,1.8));
#1051=DIRECTION('',(-0.707106781,-0.707106781,0.));
#1052=VECTOR('',#1051,5.988579621);
#1053=LINE('',#1050,#1052);
#1054=EDGE_CURVE('',#1047,#1049,#1053,.T.);
#1055=ORIENTED_EDGE('',*,*,#1054,.F.);
#1056=CARTESIAN_POINT('',(11.4,67.16543474,1.8));
#1057=VERTEX_POINT('',#1056);
#1058=CARTESIAN_POINT('',(11.4,67.16543474,1.8));
#1059=DIRECTION('',(0.,-1.,0.));
#1060=VECTOR('',#1059,14.330869481);
#1061=LINE('',#1058,#1060);
#1062=EDGE_CURVE('',#1057,#1047,#1061,.T.);
#1063=ORIENTED_EDGE('',*,*,#1062,.F.);
#1064=CARTESIAN_POINT('',(7.16543474,71.4,1.8));
#1065=VERTEX_POINT('',#1064);
#1066=CARTESIAN_POINT('',(7.16543474,71.4,1.8));
#1067=DIRECTION('',(0.707106781,-0.707106781,0.));
#1068=VECTOR('',#1067,5.988579621);
#1069=LINE('',#1066,#1068);
#1070=EDGE_CURVE('',#1065,#1057,#1069,.T.);
#1071=ORIENTED_EDGE('',*,*,#1070,.F.);
#1072=CARTESIAN_POINT('',(-7.16543474,71.4,1.8));
#1073=VERTEX_POINT('',#1072);
#1074=CARTESIAN_POINT('',(-7.16543474,71.4,1.8));
#1075=DIRECTION('',(1.,0.,-0.));
#1076=VECTOR('',#1075,14.330869481);
#1077=LINE('',#1074,#1076);
#1078=EDGE_CURVE('',#1073,#1065,#1077,.T.);
#1079=ORIENTED_EDGE('',*,*,#1078,.F.);
#1080=CARTESIAN_POINT('',(-11.4,67.16543474,1.8));
#1081=VERTEX_POINT('',#1080);
#1082=CARTESIAN_POINT('',(-11.4,67.16543474,1.8));
#1083=DIRECTION('',(0.707106781,0.707106781,0.));
#1084=VECTOR('',#1083,5.988579621);
#1085=LINE('',#1082,#1084);
#1086=EDGE_CURVE('',#1081,#1073,#1085,.T.);
#1087=ORIENTED_EDGE('',*,*,#1086,.F.);
#1088=CARTESIAN_POINT('',(-11.4,52.83456526,1.8));
#1089=VERTEX_POINT('',#1088);
#1090=CARTESIAN_POINT('',(-11.4,52.83456526,1.8));
#1091=DIRECTION('',(0.,1.,0.));
#1092=VECTOR('',#1091,14.330869481);
#1093=LINE('',#1090,#1092);
#1094=EDGE_CURVE('',#1089,#1081,#1093,.T.);
#1095=ORIENTED_EDGE('',*,*,#1094,.F.);
#1096=CARTESIAN_POINT('',(-7.16543474,48.6,1.8));
#1097=VERTEX_POINT('',#1096);
#1098=CARTESIAN_POINT('',(-7.16543474,48.6,1.8));
#1099=DIRECTION('',(-0.707106781,0.707106781,0.));
#1100=VECTOR('',#1099,5.988579621);
#1101=LINE('',#1098,#1100);
#1102=EDGE_CURVE('',#1097,#1089,#1101,.T.);
#1103=ORIENTED_EDGE('',*,*,#1102,.F.);
#1104=CARTESIAN_POINT('',(7.16543474,48.6,1.8));
#1105=DIRECTION('',(-1.,0.,0.));
#1106=VECTOR('',#1105,14.330869481);
#1107=LINE('',#1104,#1106);
#1108=EDGE_CURVE('',#1049,#1097,#1107,.T.);
#1109=ORIENTED_EDGE('',*,*,#1108,.F.);
#1110=EDGE_LOOP('',(#1055,#1063,#1071,#1079,#1087,#1095,#1103,#1109));
#1111=FACE_BOUND('',#1110,.T.);
#1112=ADVANCED_FACE('',(#1045,#1111),#1034,.T.);
#1113=CARTESIAN_POINT('',(9.28271737,50.71728263,-0.002));
#1114=DIRECTION('',(0.707106781,-0.707106781,0.));
#1115=DIRECTION('',(0.707106781,0.707106781,0.));
#1116=AXIS2_PLACEMENT_3D('',#1113,#1114,#1115);
#1117=PLANE('',#1116);
#1118=ORIENTED_EDGE('',*,*,#1054,.T.);
#1119=CARTESIAN_POINT('',(7.16543474,48.6,1.8));
#1120=DIRECTION('',(0.,0.,1.));
#1121=VECTOR('',#1120,2.2);
#1122=LINE('',#1119,#1121);
#1123=EDGE_CURVE('',#1049,#466,#1122,.T.);
#1124=ORIENTED_EDGE('',*,*,#1123,.T.);
#1125=ORIENTED_EDGE('',*,*,#473,.T.);
#1126=CARTESIAN_POINT('',(11.4,52.83456526,1.8));
#1127=DIRECTION('',(0.,0.,1.));
#1128=VECTOR('',#1127,2.2);
#1129=LINE('',#1126,#1128);
#1130=EDGE_CURVE('',#1047,#468,#1129,.T.);
#1131=ORIENTED_EDGE('',*,*,#1130,.F.);
#1132=EDGE_LOOP('',(#1118,#1124,#1125,#1131));
#1133=FACE_BOUND('',#1132,.T.);
#1134=ADVANCED_FACE('',(#1133),#1117,.F.);
#1135=CARTESIAN_POINT('',(11.4,60.,-0.002));
#1136=DIRECTION('',(1.,0.,0.));
#1137=DIRECTION('',(0.,0.,-1.));
#1138=AXIS2_PLACEMENT_3D('',#1135,#1136,#1137);
#1139=PLANE('',#1138);
#1140=ORIENTED_EDGE('',*,*,#1062,.T.);
#1141=ORIENTED_EDGE('',*,*,#1130,.T.);
#1142=ORIENTED_EDGE('',*,*,#527,.T.);
#1143=CARTESIAN_POINT('',(11.4,67.16543474,1.8));
#1144=DIRECTION('',(0.,0.,1.));
#1145=VECTOR('',#1144,2.2);
#1146=LINE('',#1143,#1145);
#1147=EDGE_CURVE('',#1057,#516,#1146,.T.);
#1148=ORIENTED_EDGE('',*,*,#1147,.F.);
#1149=EDGE_LOOP('',(#1140,#1141,#1142,#1148));
#1150=FACE_BOUND('',#1149,.T.);
#1151=ADVANCED_FACE('',(#1150),#1139,.F.);
#1152=CARTESIAN_POINT('',(9.28271737,69.28271737,-0.002));
#1153=DIRECTION('',(0.707106781,0.707106781,0.));
#1154=DIRECTION('',(-0.707106781,0.707106781,0.));
#1155=AXIS2_PLACEMENT_3D('',#1152,#1153,#1154);
#1156=PLANE('',#1155);
#1157=ORIENTED_EDGE('',*,*,#1070,.T.);
#1158=ORIENTED_EDGE('',*,*,#1147,.T.);
#1159=ORIENTED_EDGE('',*,*,#521,.T.);
#1160=CARTESIAN_POINT('',(7.16543474,71.4,1.8));
#1161=DIRECTION('',(0.,0.,1.));
#1162=VECTOR('',#1161,2.2);
#1163=LINE('',#1160,#1162);
#1164=EDGE_CURVE('',#1065,#508,#1163,.T.);
#1165=ORIENTED_EDGE('',*,*,#1164,.F.);
#1166=EDGE_LOOP('',(#1157,#1158,#1159,#1165));
#1167=FACE_BOUND('',#1166,.T.);
#1168=ADVANCED_FACE('',(#1167),#1156,.F.);
#1169=CARTESIAN_POINT('',(0.,71.4,-0.002));
#1170=DIRECTION('',(0.,1.,0.));
#1171=DIRECTION('',(0.,0.,1.));
#1172=AXIS2_PLACEMENT_3D('',#1169,#1170,#1171);
#1173=PLANE('',#1172);
#1174=ORIENTED_EDGE('',*,*,#1078,.T.);
#1175=ORIENTED_EDGE('',*,*,#1164,.T.);
#1176=ORIENTED_EDGE('',*,*,#513,.T.);
#1177=CARTESIAN_POINT('',(-7.16543474,71.4,1.8));
#1178=DIRECTION('',(0.,0.,1.));
#1179=VECTOR('',#1178,2.2);
#1180=LINE('',#1177,#1179);
#1181=EDGE_CURVE('',#1073,#500,#1180,.T.);
#1182=ORIENTED_EDGE('',*,*,#1181,.F.);
#1183=EDGE_LOOP('',(#1174,#1175,#1176,#1182));
#1184=FACE_BOUND('',#1183,.T.);
#1185=ADVANCED_FACE('',(#1184),#1173,.F.);
#1186=CARTESIAN_POINT('',(-9.28271737,69.28271737,-0.002));
#1187=DIRECTION('',(-0.707106781,0.707106781,0.));
#1188=DIRECTION('',(-0.707106781,-0.707106781,0.));
#1189=AXIS2_PLACEMENT_3D('',#1186,#1187,#1188);
#1190=PLANE('',#1189);
#1191=ORIENTED_EDGE('',*,*,#1086,.T.);
#1192=ORIENTED_EDGE('',*,*,#1181,.T.);
#1193=ORIENTED_EDGE('',*,*,#505,.T.);
#1194=CARTESIAN_POINT('',(-11.4,67.16543474,1.8));
#1195=DIRECTION('',(0.,0.,1.));
#1196=VECTOR('',#1195,2.2);
#1197=LINE('',#1194,#1196);
#1198=EDGE_CURVE('',#1081,#492,#1197,.T.);
#1199=ORIENTED_EDGE('',*,*,#1198,.F.);
#1200=EDGE_LOOP('',(#1191,#1192,#1193,#1199));
#1201=FACE_BOUND('',#1200,.T.);
#1202=ADVANCED_FACE('',(#1201),#1190,.F.);
#1203=CARTESIAN_POINT('',(-11.4,60.,-0.002));
#1204=DIRECTION('',(-1.,0.,0.));
#1205=DIRECTION('',(0.,0.,1.));
#1206=AXIS2_PLACEMENT_3D('',#1203,#1204,#1205);
#1207=PLANE('',#1206);
#1208=ORIENTED_EDGE('',*,*,#1094,.T.);
#1209=ORIENTED_EDGE('',*,*,#1198,.T.);
#1210=ORIENTED_EDGE('',*,*,#497,.T.);
#1211=CARTESIAN_POINT('',(-11.4,52.83456526,1.8));
#1212=DIRECTION('',(0.,0.,1.));
#1213=VECTOR('',#1212,2.2);
#1214=LINE('',#1211,#1213);
#1215=EDGE_CURVE('',#1089,#484,#1214,.T.);
#1216=ORIENTED_EDGE('',*,*,#1215,.F.);
#1217=EDGE_LOOP('',(#1208,#1209,#1210,#1216));
#1218=FACE_BOUND('',#1217,.T.);
#1219=ADVANCED_FACE('',(#1218),#1207,.F.);
#1220=CARTESIAN_POINT('',(-9.28271737,50.71728263,-0.002));
#1221=DIRECTION('',(-0.707106781,-0.707106781,0.));
#1222=DIRECTION('',(0.707106781,-0.707106781,0.));
#1223=AXIS2_PLACEMENT_3D('',#1220,#1221,#1222);
#1224=PLANE('',#1223);
#1225=ORIENTED_EDGE('',*,*,#1102,.T.);
#1226=ORIENTED_EDGE('',*,*,#1215,.T.);
#1227=ORIENTED_EDGE('',*,*,#489,.T.);
#1228=CARTESIAN_POINT('',(-7.16543474,48.6,1.8));
#1229=DIRECTION('',(0.,0.,1.));
#1230=VECTOR('',#1229,2.2);
#1231=LINE('',#1228,#1230);
#1232=EDGE_CURVE('',#1097,#476,#1231,.T.);
#1233=ORIENTED_EDGE('',*,*,#1232,.F.);
#1234=EDGE_LOOP('',(#1225,#1226,#1227,#1233));
#1235=FACE_BOUND('',#1234,.T.);
#1236=ADVANCED_FACE('',(#1235),#1224,.F.);
#1237=CARTESIAN_POINT('',(-0.,48.6,-0.002));
#1238=DIRECTION('',(0.,-1.,0.));
#1239=DIRECTION('',(0.,0.,-1.));
#1240=AXIS2_PLACEMENT_3D('',#1237,#1238,#1239);
#1241=PLANE('',#1240);
#1242=ORIENTED_EDGE('',*,*,#1108,.T.);
#1243=ORIENTED_EDGE('',*,*,#1232,.T.);
#1244=ORIENTED_EDGE('',*,*,#481,.T.);
#1245=ORIENTED_EDGE('',*,*,#1123,.F.);
#1246=EDGE_LOOP('',(#1242,#1243,#1244,#1245));
#1247=FACE_BOUND('',#1246,.T.);
#1248=ADVANCED_FACE('',(#1247),#1241,.F.);
#1249=CARTESIAN_POINT('',(0.,60.,-0.002));
#1250=DIRECTION('',(0.,0.,1.));
#1251=DIRECTION('',(1.,0.,-0.));
#1252=AXIS2_PLACEMENT_3D('',#1249,#1250,#1251);
#1253=CYLINDRICAL_SURFACE('',#1252,2.05);
#1254=CARTESIAN_POINT('',(2.05,60.,0.2));
#1255=VERTEX_POINT('',#1254);
#1256=CARTESIAN_POINT('',(2.05,60.,0.2));
#1257=DIRECTION('',(-0.,-0.,-1.));
#1258=VECTOR('',#1257,4.2);
#1259=LINE('',#1256,#1258);
#1260=EDGE_CURVE('',#1255,#1009,#1259,.T.);
#1261=ORIENTED_EDGE('',*,*,#1260,.F.);
#1262=CARTESIAN_POINT('',(0.,60.,0.2));
#1263=DIRECTION('',(0.,0.,1.));
#1264=DIRECTION('',(1.,0.,-0.));
#1265=AXIS2_PLACEMENT_3D('',#1262,#1263,#1264);
#1266=CIRCLE('',#1265,2.05);
#1267=EDGE_CURVE('',#1255,#1255,#1266,.T.);
#1268=ORIENTED_EDGE('',*,*,#1267,.T.);
#1269=ORIENTED_EDGE('',*,*,#1260,.T.);
#1270=ORIENTED_EDGE('',*,*,#1015,.T.);
#1271=EDGE_LOOP('',(#1261,#1268,#1269,#1270));
#1272=FACE_BOUND('',#1271,.T.);
#1273=ADVANCED_FACE('',(#1272),#1253,.F.);
#1274=CARTESIAN_POINT('',(0.,60.,0.2));
#1275=DIRECTION('',(0.,0.,1.));
#1276=DIRECTION('',(1.,0.,-0.));
#1277=AXIS2_PLACEMENT_3D('',#1274,#1275,#1276);
#1278=CONICAL_SURFACE('',#1277,2.05,45.);
#1279=CARTESIAN_POINT('',(3.65,60.,1.8));
#1280=DIRECTION('',(-0.707106781,-0.,-0.707106781));
#1281=VECTOR('',#1280,2.2627417);
#1282=LINE('',#1279,#1281);
#1283=EDGE_CURVE('',#1036,#1255,#1282,.T.);
#1284=ORIENTED_EDGE('',*,*,#1283,.F.);
#1285=ORIENTED_EDGE('',*,*,#1042,.F.);
#1286=ORIENTED_EDGE('',*,*,#1283,.T.);
#1287=ORIENTED_EDGE('',*,*,#1267,.F.);
#1288=EDGE_LOOP('',(#1284,#1285,#1286,#1287));
#1289=FACE_BOUND('',#1288,.T.);
#1290=ADVANCED_FACE('',(#1289),#1278,.F.);
#1291=CARTESIAN_POINT('',(0.,72.6,0.));
#1292=DIRECTION('',(0.,1.,0.));
#1293=DIRECTION('',(-1.,0.,0.));
#1294=AXIS2_PLACEMENT_3D('',#1291,#1292,#1293);
#1295=PLANE('',#1294);
#1296=CARTESIAN_POINT('',(2.651865683,72.6,1.2));
#1297=VERTEX_POINT('',#1296);
#1298=CARTESIAN_POINT('',(-2.651865683,72.6,1.2));
#1299=VERTEX_POINT('',#1298);
#1300=CARTESIAN_POINT('',(2.651865683,72.6,1.2));
#1301=DIRECTION('',(-1.,0.,0.));
#1302=VECTOR('',#1301,5.303731366);
#1303=LINE('',#1300,#1302);
#1304=EDGE_CURVE('',#1297,#1299,#1303,.T.);
#1305=ORIENTED_EDGE('',*,*,#1304,.T.);
#1306=CARTESIAN_POINT('',(-2.651865683,72.6,2.2));
#1307=VERTEX_POINT('',#1306);
#1308=CARTESIAN_POINT('',(-2.651865683,72.6,1.2));
#1309=DIRECTION('',(0.,0.,1.));
#1310=VECTOR('',#1309,1.);
#1311=LINE('',#1308,#1310);
#1312=EDGE_CURVE('',#1299,#1307,#1311,.T.);
#1313=ORIENTED_EDGE('',*,*,#1312,.T.);
#1314=CARTESIAN_POINT('',(2.651865683,72.6,2.2));
#1315=VERTEX_POINT('',#1314);
#1316=CARTESIAN_POINT('',(-2.651865683,72.6,2.2));
#1317=DIRECTION('',(1.,-0.,0.));
#1318=VECTOR('',#1317,5.303731366);
#1319=LINE('',#1316,#1318);
#1320=EDGE_CURVE('',#1307,#1315,#1319,.T.);
#1321=ORIENTED_EDGE('',*,*,#1320,.T.);
#1322=CARTESIAN_POINT('',(2.651865683,72.6,2.2));
#1323=DIRECTION('',(-0.,-0.,-1.));
#1324=VECTOR('',#1323,1.);
#1325=LINE('',#1322,#1324);
#1326=EDGE_CURVE('',#1315,#1297,#1325,.T.);
#1327=ORIENTED_EDGE('',*,*,#1326,.T.);
#1328=EDGE_LOOP('',(#1305,#1313,#1321,#1327));
#1329=FACE_BOUND('',#1328,.T.);
#1330=ADVANCED_FACE('',(#1329),#1295,.T.);
#1331=CARTESIAN_POINT('',(2.5,72.4,0.8));
#1332=DIRECTION('',(-0.,-0.894427191,0.447213595));
#1333=DIRECTION('',(1.,-0.,-0.));
#1334=AXIS2_PLACEMENT_3D('',#1331,#1332,#1333);
#1335=PLANE('',#1334);
#1336=CARTESIAN_POINT('',(-4.144421469,72.525557853,1.051115706));
#1337=VERTEX_POINT('',#1336);
#1338=CARTESIAN_POINT('',(-5.4,72.4,0.8));
#1339=DIRECTION('',(0.975900073,0.097590007,0.195180015));
#1340=VECTOR('',#1339,1.28658514);
#1341=LINE('',#1338,#1340);
#1342=EDGE_CURVE('',#598,#1337,#1341,.T.);
#1343=ORIENTED_EDGE('',*,*,#1342,.T.);
#1344=CARTESIAN_POINT('',(-4.144421469,72.525557853,1.051115706));
#1345=CARTESIAN_POINT('',(-3.906939945,72.549306005,1.098612011));
#1346=CARTESIAN_POINT('',(-3.775860053,72.561884662,1.123769325));
#1347=CARTESIAN_POINT('',(-3.663889004,72.572629601,1.145259202));
#1348=CARTESIAN_POINT('',(-3.591049303,72.578921895,1.15784379));
#1349=CARTESIAN_POINT('',(-3.539932769,72.583337622,1.166675245));
#1350=CARTESIAN_POINT('',(-3.498209548,72.58640488,1.172809759));
#1351=CARTESIAN_POINT('',(-3.449450298,72.589989386,1.179978772));
#1352=CARTESIAN_POINT('',(-3.404988993,72.592277174,1.184554347));
#1353=CARTESIAN_POINT('',(-3.360912373,72.594545167,1.189090334));
#1354=CARTESIAN_POINT('',(-3.311316754,72.595959894,1.191919789));
#1355=CARTESIAN_POINT('',(-3.270091843,72.597135845,1.19427169));
#1356=CARTESIAN_POINT('',(-3.217285803,72.597903728,1.195807456));
#1357=CARTESIAN_POINT('',(-3.144637457,72.59896015,1.197920299));
#1358=CARTESIAN_POINT('',(-3.028838707,72.599446149,1.198892299));
#1359=CARTESIAN_POINT('',(-2.896873156,72.6,1.2));
#1360=CARTESIAN_POINT('',(-2.651865683,72.6,1.2));
#1361=B_SPLINE_CURVE_WITH_KNOTS('',2,(#1344,#1345,#1346,#1347,#1348,#1349,#1350,#1351,#1352,#1353,#1354,#1355,#1356,#1357,#1358,#1359,#1360),.UNSPECIFIED.,.F.,.F.,(3,2,2,2,2,2,2,2,3),(0.,0.25,0.375,0.4375,0.5,0.5625,0.625,0.75,1.),.UNSPECIFIED.);
#1362=EDGE_CURVE('',#1337,#1299,#1361,.T.);
#1363=ORIENTED_EDGE('',*,*,#1362,.T.);
#1364=ORIENTED_EDGE('',*,*,#1304,.F.);
#1365=CARTESIAN_POINT('',(4.144421469,72.525557853,1.051115706));
#1366=VERTEX_POINT('',#1365);
#1367=CARTESIAN_POINT('',(2.651865683,72.6,1.2));
#1368=CARTESIAN_POINT('',(2.89640727,72.6,1.2));
#1369=CARTESIAN_POINT('',(3.029327406,72.599444102,1.198888204));
#1370=CARTESIAN_POINT('',(3.144206882,72.598963654,1.197927308));
#1371=CARTESIAN_POINT('',(3.218018639,72.597893085,1.195786171));
#1372=CARTESIAN_POINT('',(3.269862629,72.597141138,1.194282276));
#1373=CARTESIAN_POINT('',(3.312264738,72.595932867,1.191865734));
#1374=CARTESIAN_POINT('',(3.360828125,72.594549026,1.189098053));
#1375=CARTESIAN_POINT('',(3.406038499,72.592223176,1.184446352));
#1376=CARTESIAN_POINT('',(3.449370369,72.589993966,1.179987931));
#1377=CARTESIAN_POINT('',(3.49915376,72.586335479,1.172670958));
#1378=CARTESIAN_POINT('',(3.53971805,72.583354487,1.166708973));
#1379=CARTESIAN_POINT('',(3.591788382,72.578858061,1.157716123));
#1380=CARTESIAN_POINT('',(3.663483306,72.572666995,1.145333991));
#1381=CARTESIAN_POINT('',(3.776350411,72.56183761,1.123675219));
#1382=CARTESIAN_POINT('',(3.90649944,72.549350056,1.098700112));
#1383=CARTESIAN_POINT('',(4.144421469,72.525557853,1.051115706));
#1384=B_SPLINE_CURVE_WITH_KNOTS('',2,(#1367,#1368,#1369,#1370,#1371,#1372,#1373,#1374,#1375,#1376,#1377,#1378,#1379,#1380,#1381,#1382,#1383),.UNSPECIFIED.,.F.,.F.,(3,2,2,2,2,2,2,2,3),(0.,0.25,0.375,0.4375,0.5,0.5625,0.625,0.75,1.),.UNSPECIFIED.);
#1385=EDGE_CURVE('',#1297,#1366,#1384,.T.);
#1386=ORIENTED_EDGE('',*,*,#1385,.T.);
#1387=CARTESIAN_POINT('',(4.144421469,72.525557853,1.051115706));
#1388=DIRECTION('',(0.975900073,-0.097590007,-0.195180015));
#1389=VECTOR('',#1388,1.28658514);
#1390=LINE('',#1387,#1389);
#1391=EDGE_CURVE('',#1366,#606,#1390,.T.);
#1392=ORIENTED_EDGE('',*,*,#1391,.T.);
#1393=ORIENTED_EDGE('',*,*,#611,.F.);
#1394=EDGE_LOOP('',(#1343,#1363,#1364,#1386,#1392,#1393));
#1395=FACE_BOUND('',#1394,.T.);
#1396=ADVANCED_FACE('',(#1395),#1335,.F.);
#1397=CARTESIAN_POINT('',(-2.7,72.4,2.6));
#1398=DIRECTION('',(-0.,-0.894427191,-0.447213595));
#1399=DIRECTION('',(-1.,0.,0.));
#1400=AXIS2_PLACEMENT_3D('',#1397,#1398,#1399);
#1401=PLANE('',#1400);
#1402=ORIENTED_EDGE('',*,*,#1320,.F.);
#1403=CARTESIAN_POINT('',(-4.144421469,72.525557853,2.348884294));
#1404=VERTEX_POINT('',#1403);
#1405=CARTESIAN_POINT('',(-2.651865683,72.6,2.2));
#1406=CARTESIAN_POINT('',(-2.896407269,72.6,2.2));
#1407=CARTESIAN_POINT('',(-3.029327406,72.599444102,2.201111796));
#1408=CARTESIAN_POINT('',(-3.144206882,72.598963654,2.202072692));
#1409=CARTESIAN_POINT('',(-3.218018639,72.597893085,2.204213829));
#1410=CARTESIAN_POINT('',(-3.269862629,72.597141138,2.205717724));
#1411=CARTESIAN_POINT('',(-3.312264738,72.595932867,2.208134266));
#1412=CARTESIAN_POINT('',(-3.360828125,72.594549026,2.210901947));
#1413=CARTESIAN_POINT('',(-3.406038499,72.592223176,2.215553648));
#1414=CARTESIAN_POINT('',(-3.449370369,72.589993966,2.220012069));
#1415=CARTESIAN_POINT('',(-3.49915376,72.586335479,2.227329042));
#1416=CARTESIAN_POINT('',(-3.53971805,72.583354487,2.233291027));
#1417=CARTESIAN_POINT('',(-3.591788382,72.578858061,2.242283877));
#1418=CARTESIAN_POINT('',(-3.663483306,72.572666995,2.254666009));
#1419=CARTESIAN_POINT('',(-3.776350411,72.56183761,2.276324781));
#1420=CARTESIAN_POINT('',(-3.90649944,72.549350056,2.301299888));
#1421=CARTESIAN_POINT('',(-4.144421469,72.525557853,2.348884294));
#1422=B_SPLINE_CURVE_WITH_KNOTS('',2,(#1405,#1406,#1407,#1408,#1409,#1410,#1411,#1412,#1413,#1414,#1415,#1416,#1417,#1418,#1419,#1420,#1421),.UNSPECIFIED.,.F.,.F.,(3,2,2,2,2,2,2,2,3),(0.,0.25,0.375,0.4375,0.5,0.5625,0.625,0.75,1.),.UNSPECIFIED.);
#1423=EDGE_CURVE('',#1307,#1404,#1422,.T.);
#1424=ORIENTED_EDGE('',*,*,#1423,.T.);
#1425=CARTESIAN_POINT('',(-4.144421469,72.525557853,2.348884294));
#1426=DIRECTION('',(-0.975900073,-0.097590007,0.195180015));
#1427=VECTOR('',#1426,1.28658514);
#1428=LINE('',#1425,#1427);
#1429=EDGE_CURVE('',#1404,#590,#1428,.T.);
#1430=ORIENTED_EDGE('',*,*,#1429,.T.);
#1431=ORIENTED_EDGE('',*,*,#595,.F.);
#1432=CARTESIAN_POINT('',(4.144421469,72.525557853,2.348884294));
#1433=VERTEX_POINT('',#1432);
#1434=CARTESIAN_POINT('',(5.4,72.4,2.6));
#1435=DIRECTION('',(-0.975900073,0.097590007,-0.195180015));
#1436=VECTOR('',#1435,1.28658514);
#1437=LINE('',#1434,#1436);
#1438=EDGE_CURVE('',#588,#1433,#1437,.T.);
#1439=ORIENTED_EDGE('',*,*,#1438,.T.);
#1440=CARTESIAN_POINT('',(4.144421469,72.525557853,2.348884294));
#1441=CARTESIAN_POINT('',(3.906939945,72.549306006,2.301387989));
#1442=CARTESIAN_POINT('',(3.775860053,72.561884662,2.276230675));
#1443=CARTESIAN_POINT('',(3.663889003,72.572629601,2.254740798));
#1444=CARTESIAN_POINT('',(3.591049303,72.578921895,2.24215621));
#1445=CARTESIAN_POINT('',(3.539932769,72.583337622,2.233324755));
#1446=CARTESIAN_POINT('',(3.498209548,72.58640488,2.227190241));
#1447=CARTESIAN_POINT('',(3.449450298,72.589989386,2.220021228));
#1448=CARTESIAN_POINT('',(3.404988993,72.592277174,2.215445653));
#1449=CARTESIAN_POINT('',(3.360912373,72.594545167,2.210909666));
#1450=CARTESIAN_POINT('',(3.311316754,72.595959894,2.208080211));
#1451=CARTESIAN_POINT('',(3.270091843,72.597135845,2.20572831));
#1452=CARTESIAN_POINT('',(3.217285803,72.597903728,2.204192544));
#1453=CARTESIAN_POINT('',(3.144637457,72.59896015,2.202079701));
#1454=CARTESIAN_POINT('',(3.028838707,72.599446149,2.201107701));
#1455=CARTESIAN_POINT('',(2.896873156,72.6,2.2));
#1456=CARTESIAN_POINT('',(2.651865683,72.6,2.2));
#1457=B_SPLINE_CURVE_WITH_KNOTS('',2,(#1440,#1441,#1442,#1443,#1444,#1445,#1446,#1447,#1448,#1449,#1450,#1451,#1452,#1453,#1454,#1455,#1456),.UNSPECIFIED.,.F.,.F.,(3,2,2,2,2,2,2,2,3),(0.,0.25,0.375,0.4375,0.5,0.5625,0.625,0.75,1.),.UNSPECIFIED.);
#1458=EDGE_CURVE('',#1433,#1315,#1457,.T.);
#1459=ORIENTED_EDGE('',*,*,#1458,.T.);
#1460=EDGE_LOOP('',(#1402,#1424,#1430,#1431,#1439,#1459));
#1461=FACE_BOUND('',#1460,.T.);
#1462=ADVANCED_FACE('',(#1461),#1401,.F.);
#1463=CARTESIAN_POINT('',(5.4,72.4,1.7));
#1464=DIRECTION('',(-0.099503719,-0.99503719,0.));
#1465=DIRECTION('',(0.,-0.,1.));
#1466=AXIS2_PLACEMENT_3D('',#1463,#1464,#1465);
#1467=PLANE('',#1466);
#1468=ORIENTED_EDGE('',*,*,#1391,.F.);
#1469=CARTESIAN_POINT('',(4.144421469,72.525557853,1.051115706));
#1470=DIRECTION('',(0.,-0.,1.));
#1471=VECTOR('',#1470,1.297768587);
#1472=LINE('',#1469,#1471);
#1473=EDGE_CURVE('',#1366,#1433,#1472,.T.);
#1474=ORIENTED_EDGE('',*,*,#1473,.T.);
#1475=ORIENTED_EDGE('',*,*,#1438,.F.);
#1476=ORIENTED_EDGE('',*,*,#617,.F.);
#1477=EDGE_LOOP('',(#1468,#1474,#1475,#1476));
#1478=FACE_BOUND('',#1477,.T.);
#1479=ADVANCED_FACE('',(#1478),#1467,.F.);
#1480=CARTESIAN_POINT('',(-5.4,72.4,1.7));
#1481=DIRECTION('',(0.099503719,-0.99503719,0.));
#1482=DIRECTION('',(0.,0.,-1.));
#1483=AXIS2_PLACEMENT_3D('',#1480,#1481,#1482);
#1484=PLANE('',#1483);
#1485=ORIENTED_EDGE('',*,*,#1429,.F.);
#1486=CARTESIAN_POINT('',(-4.144421469,72.525557853,2.348884294));
#1487=DIRECTION('',(0.,0.,-1.));
#1488=VECTOR('',#1487,1.297768587);
#1489=LINE('',#1486,#1488);
#1490=EDGE_CURVE('',#1404,#1337,#1489,.T.);
#1491=ORIENTED_EDGE('',*,*,#1490,.T.);
#1492=ORIENTED_EDGE('',*,*,#1342,.F.);
#1493=ORIENTED_EDGE('',*,*,#603,.F.);
#1494=EDGE_LOOP('',(#1485,#1491,#1492,#1493));
#1495=FACE_BOUND('',#1494,.T.);
#1496=ADVANCED_FACE('',(#1495),#1484,.F.);
#1497=CARTESIAN_POINT('',(-4.144421469,72.525557853,2.348884294));
#1498=CARTESIAN_POINT('',(-4.144421469,72.525557853,1.916294765));
#1499=CARTESIAN_POINT('',(-4.144421469,72.525557853,1.483705235));
#1500=CARTESIAN_POINT('',(-4.144421469,72.525557853,1.051115706));
#1501=CARTESIAN_POINT('',(-3.4,72.6,2.348884294));
#1502=CARTESIAN_POINT('',(-3.4,72.6,1.916294765));
#1503=CARTESIAN_POINT('',(-3.4,72.6,1.483705235));
#1504=CARTESIAN_POINT('',(-3.4,72.6,1.051115706));
#1505=CARTESIAN_POINT('',(-2.651865683,72.6,2.348884294));
#1506=CARTESIAN_POINT('',(-2.651865683,72.6,1.916294765));
#1507=CARTESIAN_POINT('',(-2.651865683,72.6,1.483705235));
#1508=CARTESIAN_POINT('',(-2.651865683,72.6,1.051115706));
#1509=(BOUNDED_SURFACE()
B_SPLINE_SURFACE(2,3,((#1497,#1498,#1499,#1500),(#1501,#1502,#1503,#1504),(#1505,#1506,#1507,#1508)),.UNSPECIFIED.,.F.,.F.,.U.)
B_SPLINE_SURFACE_WITH_KNOTS((3,3),(4,4),(0.,1.),(-0.002348884,-0.001051116),.UNSPECIFIED.)
GEOMETRIC_REPRESENTATION_ITEM()
RATIONAL_B_SPLINE_SURFACE(((1.,1.,1.,1.),(3.995034108,3.995034108,3.995034108,3.995034108),(1.,1.,1.,1.)))
REPRESENTATION_ITEM('')
SURFACE()
);
#1510=ORIENTED_EDGE('',*,*,#1362,.F.);
#1511=ORIENTED_EDGE('',*,*,#1490,.F.);
#1512=ORIENTED_EDGE('',*,*,#1423,.F.);
#1513=ORIENTED_EDGE('',*,*,#1312,.F.);
#1514=EDGE_LOOP('',(#1510,#1511,#1512,#1513));
#1515=FACE_BOUND('',#1514,.T.);
#1516=ADVANCED_FACE('',(#1515),#1509,.T.);
#1517=CARTESIAN_POINT('',(4.144421469,72.525557853,1.051115706));
#1518=CARTESIAN_POINT('',(4.144421469,72.525557853,1.483705235));
#1519=CARTESIAN_POINT('',(4.144421469,72.525557853,1.916294765));
#1520=CARTESIAN_POINT('',(4.144421469,72.525557853,2.348884294));
#1521=CARTESIAN_POINT('',(3.4,72.6,1.051115706));
#1522=CARTESIAN_POINT('',(3.4,72.6,1.483705235));
#1523=CARTESIAN_POINT('',(3.4,72.6,1.916294765));
#1524=CARTESIAN_POINT('',(3.4,72.6,2.348884294));
#1525=CARTESIAN_POINT('',(2.651865683,72.6,1.051115706));
#1526=CARTESIAN_POINT('',(2.651865683,72.6,1.483705235));
#1527=CARTESIAN_POINT('',(2.651865683,72.6,1.916294765));
#1528=CARTESIAN_POINT('',(2.651865683,72.6,2.348884294));
#1529=(BOUNDED_SURFACE()
B_SPLINE_SURFACE(2,3,((#1517,#1518,#1519,#1520),(#1521,#1522,#1523,#1524),(#1525,#1526,#1527,#1528)),.UNSPECIFIED.,.F.,.F.,.U.)
B_SPLINE_SURFACE_WITH_KNOTS((3,3),(4,4),(0.,1.),(0.001051116,0.002348884),.UNSPECIFIED.)
GEOMETRIC_REPRESENTATION_ITEM()
RATIONAL_B_SPLINE_SURFACE(((1.,1.,1.,1.),(3.995034108,3.995034108,3.995034108,3.995034108),(1.,1.,1.,1.)))
REPRESENTATION_ITEM('')
SURFACE()
);
#1530=ORIENTED_EDGE('',*,*,#1458,.F.);
#1531=ORIENTED_EDGE('',*,*,#1473,.F.);
#1532=ORIENTED_EDGE('',*,*,#1385,.F.);
#1533=ORIENTED_EDGE('',*,*,#1326,.F.);
#1534=EDGE_LOOP('',(#1530,#1531,#1532,#1533));
#1535=FACE_BOUND('',#1534,.T.);
#1536=ADVANCED_FACE('',(#1535),#1529,.T.);
#1537=CARTESIAN_POINT('',(12.6,60.,0.));
#1538=DIRECTION('',(1.,-0.,0.));
#1539=DIRECTION('',(0.,1.,0.));
#1540=AXIS2_PLACEMENT_3D('',#1537,#1538,#1539);
#1541=PLANE('',#1540);
#1542=CARTESIAN_POINT('',(12.6,57.348134317,1.2));
#1543=VERTEX_POINT('',#1542);
#1544=CARTESIAN_POINT('',(12.6,62.651865683,1.2));
#1545=VERTEX_POINT('',#1544);
#1546=CARTESIAN_POINT('',(12.6,57.348134317,1.2));
#1547=DIRECTION('',(0.,1.,0.));
#1548=VECTOR('',#1547,5.303731366);
#1549=LINE('',#1546,#1548);
#1550=EDGE_CURVE('',#1543,#1545,#1549,.T.);
#1551=ORIENTED_EDGE('',*,*,#1550,.T.);
#1552=CARTESIAN_POINT('',(12.6,62.651865683,2.2));
#1553=VERTEX_POINT('',#1552);
#1554=CARTESIAN_POINT('',(12.6,62.651865683,1.2));
#1555=DIRECTION('',(0.,0.,1.));
#1556=VECTOR('',#1555,1.);
#1557=LINE('',#1554,#1556);
#1558=EDGE_CURVE('',#1545,#1553,#1557,.T.);
#1559=ORIENTED_EDGE('',*,*,#1558,.T.);
#1560=CARTESIAN_POINT('',(12.6,57.348134317,2.2));
#1561=VERTEX_POINT('',#1560);
#1562=CARTESIAN_POINT('',(12.6,62.651865683,2.2));
#1563=DIRECTION('',(-0.,-1.,0.));
#1564=VECTOR('',#1563,5.303731366);
#1565=LINE('',#1562,#1564);
#1566=EDGE_CURVE('',#1553,#1561,#1565,.T.);
#1567=ORIENTED_EDGE('',*,*,#1566,.T.);
#1568=CARTESIAN_POINT('',(12.6,57.348134317,2.2));
#1569=DIRECTION('',(-0.,-0.,-1.));
#1570=VECTOR('',#1569,1.);
#1571=LINE('',#1568,#1570);
#1572=EDGE_CURVE('',#1561,#1543,#1571,.T.);
#1573=ORIENTED_EDGE('',*,*,#1572,.T.);
#1574=EDGE_LOOP('',(#1551,#1559,#1567,#1573));
#1575=FACE_BOUND('',#1574,.T.);
#1576=ADVANCED_FACE('',(#1575),#1541,.T.);
#1577=CARTESIAN_POINT('',(12.4,57.5,0.8));
#1578=DIRECTION('',(-0.894427191,0.,0.447213595));
#1579=DIRECTION('',(-0.,-1.,-0.));
#1580=AXIS2_PLACEMENT_3D('',#1577,#1578,#1579);
#1581=PLANE('',#1580);
#1582=CARTESIAN_POINT('',(12.525557853,64.144421469,1.051115706));
#1583=VERTEX_POINT('',#1582);
#1584=CARTESIAN_POINT('',(12.4,65.4,0.8));
#1585=DIRECTION('',(0.097590007,-0.975900073,0.195180015));
#1586=VECTOR('',#1585,1.28658514);
#1587=LINE('',#1584,#1586);
#1588=EDGE_CURVE('',#746,#1583,#1587,.T.);
#1589=ORIENTED_EDGE('',*,*,#1588,.T.);
#1590=CARTESIAN_POINT('',(12.525557853,64.144421469,1.051115706));
#1591=CARTESIAN_POINT('',(12.549306005,63.906939945,1.098612011));
#1592=CARTESIAN_POINT('',(12.561884662,63.775860053,1.123769325));
#1593=CARTESIAN_POINT('',(12.572629601,63.663889004,1.145259202));
#1594=CARTESIAN_POINT('',(12.578921895,63.591049303,1.15784379));
#1595=CARTESIAN_POINT('',(12.583337622,63.539932769,1.166675245));
#1596=CARTESIAN_POINT('',(12.58640488,63.498209548,1.172809759));
#1597=CARTESIAN_POINT('',(12.589989386,63.449450298,1.179978772));
#1598=CARTESIAN_POINT('',(12.592277174,63.404988993,1.184554347));
#1599=CARTESIAN_POINT('',(12.594545167,63.360912373,1.189090334));
#1600=CARTESIAN_POINT('',(12.595959894,63.311316754,1.191919789));
#1601=CARTESIAN_POINT('',(12.597135845,63.270091843,1.19427169));
#1602=CARTESIAN_POINT('',(12.597903728,63.217285803,1.195807456));
#1603=CARTESIAN_POINT('',(12.59896015,63.144637457,1.197920299));
#1604=CARTESIAN_POINT('',(12.599446149,63.028838707,1.198892299));
#1605=CARTESIAN_POINT('',(12.6,62.896873156,1.2));
#1606=CARTESIAN_POINT('',(12.6,62.651865683,1.2));
#1607=B_SPLINE_CURVE_WITH_KNOTS('',2,(#1590,#1591,#1592,#1593,#1594,#1595,#1596,#1597,#1598,#1599,#1600,#1601,#1602,#1603,#1604,#1605,#1606),.UNSPECIFIED.,.F.,.F.,(3,2,2,2,2,2,2,2,3),(0.,0.25,0.375,0.4375,0.5,0.5625,0.625,0.75,1.),.UNSPECIFIED.);
#1608=EDGE_CURVE('',#1583,#1545,#1607,.T.);
#1609=ORIENTED_EDGE('',*,*,#1608,.T.);
#1610=ORIENTED_EDGE('',*,*,#1550,.F.);
#1611=CARTESIAN_POINT('',(12.525557853,55.855578531,1.051115706));
#1612=VERTEX_POINT('',#1611);
#1613=CARTESIAN_POINT('',(12.6,57.348134317,1.2));
#1614=CARTESIAN_POINT('',(12.6,57.10359273,1.2));
#1615=CARTESIAN_POINT('',(12.599444102,56.970672594,1.198888204));
#1616=CARTESIAN_POINT('',(12.598963654,56.855793118,1.197927308));
#1617=CARTESIAN_POINT('',(12.597893085,56.781981361,1.195786171));
#1618=CARTESIAN_POINT('',(12.597141138,56.730137371,1.194282276));
#1619=CARTESIAN_POINT('',(12.595932867,56.687735262,1.191865734));
#1620=CARTESIAN_POINT('',(12.594549026,56.639171875,1.189098053));
#1621=CARTESIAN_POINT('',(12.592223176,56.593961501,1.184446352));
#1622=CARTESIAN_POINT('',(12.589993966,56.550629631,1.179987931));
#1623=CARTESIAN_POINT('',(12.586335479,56.50084624,1.172670958));
#1624=CARTESIAN_POINT('',(12.583354487,56.46028195,1.166708973));
#1625=CARTESIAN_POINT('',(12.578858061,56.408211618,1.157716123));
#1626=CARTESIAN_POINT('',(12.572666995,56.336516694,1.145333991));
#1627=CARTESIAN_POINT('',(12.56183761,56.223649589,1.123675219));
#1628=CARTESIAN_POINT('',(12.549350056,56.09350056,1.098700112));
#1629=CARTESIAN_POINT('',(12.525557853,55.855578531,1.051115706));
#1630=B_SPLINE_CURVE_WITH_KNOTS('',2,(#1613,#1614,#1615,#1616,#1617,#1618,#1619,#1620,#1621,#1622,#1623,#1624,#1625,#1626,#1627,#1628,#1629),.UNSPECIFIED.,.F.,.F.,(3,2,2,2,2,2,2,2,3),(0.,0.25,0.375,0.4375,0.5,0.5625,0.625,0.75,1.),.UNSPECIFIED.);
#1631=EDGE_CURVE('',#1543,#1612,#1630,.T.);
#1632=ORIENTED_EDGE('',*,*,#1631,.T.);
#1633=CARTESIAN_POINT('',(12.525557853,55.855578531,1.051115706));
#1634=DIRECTION('',(-0.097590007,-0.975900073,-0.195180015));
#1635=VECTOR('',#1634,1.28658514);
#1636=LINE('',#1633,#1635);
#1637=EDGE_CURVE('',#1612,#754,#1636,.T.);
#1638=ORIENTED_EDGE('',*,*,#1637,.T.);
#1639=ORIENTED_EDGE('',*,*,#759,.F.);
#1640=EDGE_LOOP('',(#1589,#1609,#1610,#1632,#1638,#1639));
#1641=FACE_BOUND('',#1640,.T.);
#1642=ADVANCED_FACE('',(#1641),#1581,.F.);
#1643=CARTESIAN_POINT('',(12.4,62.7,2.6));
#1644=DIRECTION('',(-0.894427191,0.,-0.447213595));
#1645=DIRECTION('',(0.,1.,0.));
#1646=AXIS2_PLACEMENT_3D('',#1643,#1644,#1645);
#1647=PLANE('',#1646);
#1648=ORIENTED_EDGE('',*,*,#1566,.F.);
#1649=CARTESIAN_POINT('',(12.525557853,64.144421469,2.348884294));
#1650=VERTEX_POINT('',#1649);
#1651=CARTESIAN_POINT('',(12.6,62.651865683,2.2));
#1652=CARTESIAN_POINT('',(12.6,62.896407269,2.2));
#1653=CARTESIAN_POINT('',(12.599444102,63.029327406,2.201111796));
#1654=CARTESIAN_POINT('',(12.598963654,63.144206882,2.202072692));
#1655=CARTESIAN_POINT('',(12.597893085,63.218018639,2.204213829));
#1656=CARTESIAN_POINT('',(12.597141138,63.269862629,2.205717724));
#1657=CARTESIAN_POINT('',(12.595932867,63.312264738,2.208134266));
#1658=CARTESIAN_POINT('',(12.594549026,63.360828125,2.210901947));
#1659=CARTESIAN_POINT('',(12.592223176,63.406038499,2.215553648));
#1660=CARTESIAN_POINT('',(12.589993966,63.449370369,2.220012069));
#1661=CARTESIAN_POINT('',(12.586335479,63.49915376,2.227329042));
#1662=CARTESIAN_POINT('',(12.583354487,63.53971805,2.233291027));
#1663=CARTESIAN_POINT('',(12.578858061,63.591788382,2.242283877));
#1664=CARTESIAN_POINT('',(12.572666995,63.663483306,2.254666009));
#1665=CARTESIAN_POINT('',(12.56183761,63.776350411,2.276324781));
#1666=CARTESIAN_POINT('',(12.549350056,63.90649944,2.301299888));
#1667=CARTESIAN_POINT('',(12.525557853,64.144421469,2.348884294));
#1668=B_SPLINE_CURVE_WITH_KNOTS('',2,(#1651,#1652,#1653,#1654,#1655,#1656,#1657,#1658,#1659,#1660,#1661,#1662,#1663,#1664,#1665,#1666,#1667),.UNSPECIFIED.,.F.,.F.,(3,2,2,2,2,2,2,2,3),(0.,0.25,0.375,0.4375,0.5,0.5625,0.625,0.75,1.),.UNSPECIFIED.);
#1669=EDGE_CURVE('',#1553,#1650,#1668,.T.);
#1670=ORIENTED_EDGE('',*,*,#1669,.T.);
#1671=CARTESIAN_POINT('',(12.525557853,64.144421469,2.348884294));
#1672=DIRECTION('',(-0.097590007,0.975900073,0.195180015));
#1673=VECTOR('',#1672,1.28658514);
#1674=LINE('',#1671,#1673);
#1675=EDGE_CURVE('',#1650,#738,#1674,.T.);
#1676=ORIENTED_EDGE('',*,*,#1675,.T.);
#1677=ORIENTED_EDGE('',*,*,#743,.F.);
#1678=CARTESIAN_POINT('',(12.525557853,55.855578531,2.348884294));
#1679=VERTEX_POINT('',#1678);
#1680=CARTESIAN_POINT('',(12.4,54.6,2.6));
#1681=DIRECTION('',(0.097590007,0.975900073,-0.195180015));
#1682=VECTOR('',#1681,1.28658514);
#1683=LINE('',#1680,#1682);
#1684=EDGE_CURVE('',#736,#1679,#1683,.T.);
#1685=ORIENTED_EDGE('',*,*,#1684,.T.);
#1686=CARTESIAN_POINT('',(12.525557853,55.855578531,2.348884294));
#1687=CARTESIAN_POINT('',(12.549306006,56.093060055,2.301387989));
#1688=CARTESIAN_POINT('',(12.561884662,56.224139947,2.276230675));
#1689=CARTESIAN_POINT('',(12.572629601,56.336110997,2.254740798));
#1690=CARTESIAN_POINT('',(12.578921895,56.408950697,2.24215621));
#1691=CARTESIAN_POINT('',(12.583337622,56.460067231,2.233324755));
#1692=CARTESIAN_POINT('',(12.58640488,56.501790452,2.227190241));
#1693=CARTESIAN_POINT('',(12.589989386,56.550549702,2.220021228));
#1694=CARTESIAN_POINT('',(12.592277174,56.595011007,2.215445653));
#1695=CARTESIAN_POINT('',(12.594545167,56.639087627,2.210909666));
#1696=CARTESIAN_POINT('',(12.595959894,56.688683246,2.208080211));
#1697=CARTESIAN_POINT('',(12.597135845,56.729908157,2.20572831));
#1698=CARTESIAN_POINT('',(12.597903728,56.782714197,2.204192544));
#1699=CARTESIAN_POINT('',(12.59896015,56.855362543,2.202079701));
#1700=CARTESIAN_POINT('',(12.599446149,56.971161293,2.201107701));
#1701=CARTESIAN_POINT('',(12.6,57.103126844,2.2));
#1702=CARTESIAN_POINT('',(12.6,57.348134317,2.2));
#1703=B_SPLINE_CURVE_WITH_KNOTS('',2,(#1686,#1687,#1688,#1689,#1690,#1691,#1692,#1693,#1694,#1695,#1696,#1697,#1698,#1699,#1700,#1701,#1702),.UNSPECIFIED.,.F.,.F.,(3,2,2,2,2,2,2,2,3),(0.,0.25,0.375,0.4375,0.5,0.5625,0.625,0.75,1.),.UNSPECIFIED.);
#1704=EDGE_CURVE('',#1679,#1561,#1703,.T.);
#1705=ORIENTED_EDGE('',*,*,#1704,.T.);
#1706=EDGE_LOOP('',(#1648,#1670,#1676,#1677,#1685,#1705));
#1707=FACE_BOUND('',#1706,.T.);
#1708=ADVANCED_FACE('',(#1707),#1647,.F.);
#1709=CARTESIAN_POINT('',(12.4,54.6,1.7));
#1710=DIRECTION('',(-0.99503719,0.099503719,0.));
#1711=DIRECTION('',(-0.,-0.,1.));
#1712=AXIS2_PLACEMENT_3D('',#1709,#1710,#1711);
#1713=PLANE('',#1712);
#1714=ORIENTED_EDGE('',*,*,#1637,.F.);
#1715=CARTESIAN_POINT('',(12.525557853,55.855578531,1.051115706));
#1716=DIRECTION('',(-0.,-0.,1.));
#1717=VECTOR('',#1716,1.297768587);
#1718=LINE('',#1715,#1717);
#1719=EDGE_CURVE('',#1612,#1679,#1718,.T.);
#1720=ORIENTED_EDGE('',*,*,#1719,.T.);
#1721=ORIENTED_EDGE('',*,*,#1684,.F.);
#1722=ORIENTED_EDGE('',*,*,#765,.F.);
#1723=EDGE_LOOP('',(#1714,#1720,#1721,#1722));
#1724=FACE_BOUND('',#1723,.T.);
#1725=ADVANCED_FACE('',(#1724),#1713,.F.);
#1726=CARTESIAN_POINT('',(12.4,65.4,1.7));
#1727=DIRECTION('',(-0.99503719,-0.099503719,0.));
#1728=DIRECTION('',(0.,0.,-1.));
#1729=AXIS2_PLACEMENT_3D('',#1726,#1727,#1728);
#1730=PLANE('',#1729);
#1731=ORIENTED_EDGE('',*,*,#1675,.F.);
#1732=CARTESIAN_POINT('',(12.525557853,64.144421469,2.348884294));
#1733=DIRECTION('',(0.,0.,-1.));
#1734=VECTOR('',#1733,1.297768587);
#1735=LINE('',#1732,#1734);
#1736=EDGE_CURVE('',#1650,#1583,#1735,.T.);
#1737=ORIENTED_EDGE('',*,*,#1736,.T.);
#1738=ORIENTED_EDGE('',*,*,#1588,.F.);
#1739=ORIENTED_EDGE('',*,*,#751,.F.);
#1740=EDGE_LOOP('',(#1731,#1737,#1738,#1739));
#1741=FACE_BOUND('',#1740,.T.);
#1742=ADVANCED_FACE('',(#1741),#1730,.F.);
#1743=CARTESIAN_POINT('',(12.525557853,64.144421469,2.348884294));
#1744=CARTESIAN_POINT('',(12.525557853,64.144421469,1.916294765));
#1745=CARTESIAN_POINT('',(12.525557853,64.144421469,1.483705235));
#1746=CARTESIAN_POINT('',(12.525557853,64.144421469,1.051115706));
#1747=CARTESIAN_POINT('',(12.6,63.4,2.348884294));
#1748=CARTESIAN_POINT('',(12.6,63.4,1.916294765));
#1749=CARTESIAN_POINT('',(12.6,63.4,1.483705235));
#1750=CARTESIAN_POINT('',(12.6,63.4,1.051115706));
#1751=CARTESIAN_POINT('',(12.6,62.651865683,2.348884294));
#1752=CARTESIAN_POINT('',(12.6,62.651865683,1.916294765));
#1753=CARTESIAN_POINT('',(12.6,62.651865683,1.483705235));
#1754=CARTESIAN_POINT('',(12.6,62.651865683,1.051115706));
#1755=(BOUNDED_SURFACE()
B_SPLINE_SURFACE(2,3,((#1743,#1744,#1745,#1746),(#1747,#1748,#1749,#1750),(#1751,#1752,#1753,#1754)),.UNSPECIFIED.,.F.,.F.,.U.)
B_SPLINE_SURFACE_WITH_KNOTS((3,3),(4,4),(0.,1.),(-0.002348884,-0.001051116),.UNSPECIFIED.)
GEOMETRIC_REPRESENTATION_ITEM()
RATIONAL_B_SPLINE_SURFACE(((1.,1.,1.,1.),(3.995034108,3.995034108,3.995034108,3.995034108),(1.,1.,1.,1.)))
REPRESENTATION_ITEM('')
SURFACE()
);
#1756=ORIENTED_EDGE('',*,*,#1608,.F.);
#1757=ORIENTED_EDGE('',*,*,#1736,.F.);
#1758=ORIENTED_EDGE('',*,*,#1669,.F.);
#1759=ORIENTED_EDGE('',*,*,#1558,.F.);
#1760=EDGE_LOOP('',(#1756,#1757,#1758,#1759));
#1761=FACE_BOUND('',#1760,.T.);
#1762=ADVANCED_FACE('',(#1761),#1755,.T.);
#1763=CARTESIAN_POINT('',(12.525557853,55.855578531,1.051115706));
#1764=CARTESIAN_POINT('',(12.525557853,55.855578531,1.483705235));
#1765=CARTESIAN_POINT('',(12.525557853,55.855578531,1.916294765));
#1766=CARTESIAN_POINT('',(12.525557853,55.855578531,2.348884294));
#1767=CARTESIAN_POINT('',(12.6,56.6,1.051115706));
#1768=CARTESIAN_POINT('',(12.6,56.6,1.483705235));
#1769=CARTESIAN_POINT('',(12.6,56.6,1.916294765));
#1770=CARTESIAN_POINT('',(12.6,56.6,2.348884294));
#1771=CARTESIAN_POINT('',(12.6,57.348134317,1.051115706));
#1772=CARTESIAN_POINT('',(12.6,57.348134317,1.483705235));
#1773=CARTESIAN_POINT('',(12.6,57.348134317,1.916294765));
#1774=CARTESIAN_POINT('',(12.6,57.348134317,2.348884294));
#1775=(BOUNDED_SURFACE()
B_SPLINE_SURFACE(2,3,((#1763,#1764,#1765,#1766),(#1767,#1768,#1769,#1770),(#1771,#1772,#1773,#1774)),.UNSPECIFIED.,.F.,.F.,.U.)
B_SPLINE_SURFACE_WITH_KNOTS((3,3),(4,4),(0.,1.),(0.001051116,0.002348884),.UNSPECIFIED.)
GEOMETRIC_REPRESENTATION_ITEM()
RATIONAL_B_SPLINE_SURFACE(((1.,1.,1.,1.),(3.995034108,3.995034108,3.995034108,3.995034108),(1.,1.,1.,1.)))
REPRESENTATION_ITEM('')
SURFACE()
);
#1776=ORIENTED_EDGE('',*,*,#1704,.F.);
#1777=ORIENTED_EDGE('',*,*,#1719,.F.);
#1778=ORIENTED_EDGE('',*,*,#1631,.F.);
#1779=ORIENTED_EDGE('',*,*,#1572,.F.);
#1780=EDGE_LOOP('',(#1776,#1777,#1778,#1779));
#1781=FACE_BOUND('',#1780,.T.);
#1782=ADVANCED_FACE('',(#1781),#1775,.T.);
#1783=CARTESIAN_POINT('',(-0.,47.4,0.));
#1784=DIRECTION('',(-0.,-1.,0.));
#1785=DIRECTION('',(1.,-0.,0.));
#1786=AXIS2_PLACEMENT_3D('',#1783,#1784,#1785);
#1787=PLANE('',#1786);
#1788=CARTESIAN_POINT('',(-2.651865683,47.4,1.2));
#1789=VERTEX_POINT('',#1788);
#1790=CARTESIAN_POINT('',(2.651865683,47.4,1.2));
#1791=VERTEX_POINT('',#1790);
#1792=CARTESIAN_POINT('',(-2.651865683,47.4,1.2));
#1793=DIRECTION('',(1.,-0.,0.));
#1794=VECTOR('',#1793,5.303731366);
#1795=LINE('',#1792,#1794);
#1796=EDGE_CURVE('',#1789,#1791,#1795,.T.);
#1797=ORIENTED_EDGE('',*,*,#1796,.T.);
#1798=CARTESIAN_POINT('',(2.651865683,47.4,2.2));
#1799=VERTEX_POINT('',#1798);
#1800=CARTESIAN_POINT('',(2.651865683,47.4,1.2));
#1801=DIRECTION('',(0.,0.,1.));
#1802=VECTOR('',#1801,1.);
#1803=LINE('',#1800,#1802);
#1804=EDGE_CURVE('',#1791,#1799,#1803,.T.);
#1805=ORIENTED_EDGE('',*,*,#1804,.T.);
#1806=CARTESIAN_POINT('',(-2.651865683,47.4,2.2));
#1807=VERTEX_POINT('',#1806);
#1808=CARTESIAN_POINT('',(2.651865683,47.4,2.2));
#1809=DIRECTION('',(-1.,0.,0.));
#1810=VECTOR('',#1809,5.303731366);
#1811=LINE('',#1808,#1810);
#1812=EDGE_CURVE('',#1799,#1807,#1811,.T.);
#1813=ORIENTED_EDGE('',*,*,#1812,.T.);
#1814=CARTESIAN_POINT('',(-2.651865683,47.4,2.2));
#1815=DIRECTION('',(-0.,-0.,-1.));
#1816=VECTOR('',#1815,1.);
#1817=LINE('',#1814,#1816);
#1818=EDGE_CURVE('',#1807,#1789,#1817,.T.);
#1819=ORIENTED_EDGE('',*,*,#1818,.T.);
#1820=EDGE_LOOP('',(#1797,#1805,#1813,#1819));
#1821=FACE_BOUND('',#1820,.T.);
#1822=ADVANCED_FACE('',(#1821),#1787,.T.);
#1823=CARTESIAN_POINT('',(-2.5,47.6,0.8));
#1824=DIRECTION('',(-0.,0.894427191,0.447213595));
#1825=DIRECTION('',(-1.,0.,-0.));
#1826=AXIS2_PLACEMENT_3D('',#1823,#1824,#1825);
#1827=PLANE('',#1826);
#1828=CARTESIAN_POINT('',(4.144421469,47.474442147,1.051115706));
#1829=VERTEX_POINT('',#1828);
#1830=CARTESIAN_POINT('',(5.4,47.6,0.8));
#1831=DIRECTION('',(-0.975900073,-0.097590007,0.195180015));
#1832=VECTOR('',#1831,1.28658514);
#1833=LINE('',#1830,#1832);
#1834=EDGE_CURVE('',#894,#1829,#1833,.T.);
#1835=ORIENTED_EDGE('',*,*,#1834,.T.);
#1836=CARTESIAN_POINT('',(4.144421469,47.474442147,1.051115706));
#1837=CARTESIAN_POINT('',(3.906939945,47.450693995,1.098612011));
#1838=CARTESIAN_POINT('',(3.775860053,47.438115338,1.123769325));
#1839=CARTESIAN_POINT('',(3.663889004,47.427370399,1.145259202));
#1840=CARTESIAN_POINT('',(3.591049303,47.421078105,1.15784379));
#1841=CARTESIAN_POINT('',(3.539932769,47.416662378,1.166675245));
#1842=CARTESIAN_POINT('',(3.498209548,47.41359512,1.172809759));
#1843=CARTESIAN_POINT('',(3.449450298,47.410010614,1.179978772));
#1844=CARTESIAN_POINT('',(3.404988993,47.407722826,1.184554347));
#1845=CARTESIAN_POINT('',(3.360912373,47.405454833,1.189090334));
#1846=CARTESIAN_POINT('',(3.311316754,47.404040106,1.191919789));
#1847=CARTESIAN_POINT('',(3.270091843,47.402864155,1.19427169));
#1848=CARTESIAN_POINT('',(3.217285803,47.402096272,1.195807456));
#1849=CARTESIAN_POINT('',(3.144637457,47.40103985,1.197920299));
#1850=CARTESIAN_POINT('',(3.028838707,47.400553851,1.198892299));
#1851=CARTESIAN_POINT('',(2.896873156,47.4,1.2));
#1852=CARTESIAN_POINT('',(2.651865683,47.4,1.2));
#1853=B_SPLINE_CURVE_WITH_KNOTS('',2,(#1836,#1837,#1838,#1839,#1840,#1841,#1842,#1843,#1844,#1845,#1846,#1847,#1848,#1849,#1850,#1851,#1852),.UNSPECIFIED.,.F.,.F.,(3,2,2,2,2,2,2,2,3),(0.,0.25,0.375,0.4375,0.5,0.5625,0.625,0.75,1.),.UNSPECIFIED.);
#1854=EDGE_CURVE('',#1829,#1791,#1853,.T.);
#1855=ORIENTED_EDGE('',*,*,#1854,.T.);
#1856=ORIENTED_EDGE('',*,*,#1796,.F.);
#1857=CARTESIAN_POINT('',(-4.144421469,47.474442147,1.051115706));
#1858=VERTEX_POINT('',#1857);
#1859=CARTESIAN_POINT('',(-2.651865683,47.4,1.2));
#1860=CARTESIAN_POINT('',(-2.89640727,47.4,1.2));
#1861=CARTESIAN_POINT('',(-3.029327406,47.400555898,1.198888204));
#1862=CARTESIAN_POINT('',(-3.144206882,47.401036346,1.197927308));
#1863=CARTESIAN_POINT('',(-3.218018639,47.402106915,1.195786171));
#1864=CARTESIAN_POINT('',(-3.269862629,47.402858862,1.194282276));
#1865=CARTESIAN_POINT('',(-3.312264738,47.404067133,1.191865734));
#1866=CARTESIAN_POINT('',(-3.360828125,47.405450974,1.189098053));
#1867=CARTESIAN_POINT('',(-3.406038499,47.407776824,1.184446352));
#1868=CARTESIAN_POINT('',(-3.449370369,47.410006034,1.179987931));
#1869=CARTESIAN_POINT('',(-3.49915376,47.413664521,1.172670958));
#1870=CARTESIAN_POINT('',(-3.53971805,47.416645513,1.166708973));
#1871=CARTESIAN_POINT('',(-3.591788382,47.421141939,1.157716123));
#1872=CARTESIAN_POINT('',(-3.663483306,47.427333005,1.145333991));
#1873=CARTESIAN_POINT('',(-3.776350411,47.43816239,1.123675219));
#1874=CARTESIAN_POINT('',(-3.90649944,47.450649944,1.098700112));
#1875=CARTESIAN_POINT('',(-4.144421469,47.474442147,1.051115706));
#1876=B_SPLINE_CURVE_WITH_KNOTS('',2,(#1859,#1860,#1861,#1862,#1863,#1864,#1865,#1866,#1867,#1868,#1869,#1870,#1871,#1872,#1873,#1874,#1875),.UNSPECIFIED.,.F.,.F.,(3,2,2,2,2,2,2,2,3),(0.,0.25,0.375,0.4375,0.5,0.5625,0.625,0.75,1.),.UNSPECIFIED.);
#1877=EDGE_CURVE('',#1789,#1858,#1876,.T.);
#1878=ORIENTED_EDGE('',*,*,#1877,.T.);
#1879=CARTESIAN_POINT('',(-4.144421469,47.474442147,1.051115706));
#1880=DIRECTION('',(-0.975900073,0.097590007,-0.195180015));
#1881=VECTOR('',#1880,1.28658514);
#1882=LINE('',#1879,#1881);
#1883=EDGE_CURVE('',#1858,#902,#1882,.T.);
#1884=ORIENTED_EDGE('',*,*,#1883,.T.);
#1885=ORIENTED_EDGE('',*,*,#907,.F.);
#1886=EDGE_LOOP('',(#1835,#1855,#1856,#1878,#1884,#1885));
#1887=FACE_BOUND('',#1886,.T.);
#1888=ADVANCED_FACE('',(#1887),#1827,.F.);
#1889=CARTESIAN_POINT('',(2.7,47.6,2.6));
#1890=DIRECTION('',(0.,0.894427191,-0.447213595));
#1891=DIRECTION('',(1.,-0.,0.));
#1892=AXIS2_PLACEMENT_3D('',#1889,#1890,#1891);
#1893=PLANE('',#1892);
#1894=ORIENTED_EDGE('',*,*,#1812,.F.);
#1895=CARTESIAN_POINT('',(4.144421469,47.474442147,2.348884294));
#1896=VERTEX_POINT('',#1895);
#1897=CARTESIAN_POINT('',(2.651865683,47.4,2.2));
#1898=CARTESIAN_POINT('',(2.896407269,47.4,2.2));
#1899=CARTESIAN_POINT('',(3.029327406,47.400555898,2.201111796));
#1900=CARTESIAN_POINT('',(3.144206882,47.401036346,2.202072692));
#1901=CARTESIAN_POINT('',(3.218018639,47.402106915,2.204213829));
#1902=CARTESIAN_POINT('',(3.269862629,47.402858862,2.205717724));
#1903=CARTESIAN_POINT('',(3.312264738,47.404067133,2.208134266));
#1904=CARTESIAN_POINT('',(3.360828125,47.405450974,2.210901947));
#1905=CARTESIAN_POINT('',(3.406038499,47.407776824,2.215553648));
#1906=CARTESIAN_POINT('',(3.449370369,47.410006034,2.220012069));
#1907=CARTESIAN_POINT('',(3.49915376,47.413664521,2.227329042));
#1908=CARTESIAN_POINT('',(3.53971805,47.416645513,2.233291027));
#1909=CARTESIAN_POINT('',(3.591788382,47.421141939,2.242283877));
#1910=CARTESIAN_POINT('',(3.663483306,47.427333005,2.254666009));
#1911=CARTESIAN_POINT('',(3.776350411,47.43816239,2.276324781));
#1912=CARTESIAN_POINT('',(3.90649944,47.450649944,2.301299888));
#1913=CARTESIAN_POINT('',(4.144421469,47.474442147,2.348884294));
#1914=B_SPLINE_CURVE_WITH_KNOTS('',2,(#1897,#1898,#1899,#1900,#1901,#1902,#1903,#1904,#1905,#1906,#1907,#1908,#1909,#1910,#1911,#1912,#1913),.UNSPECIFIED.,.F.,.F.,(3,2,2,2,2,2,2,2,3),(0.,0.25,0.375,0.4375,0.5,0.5625,0.625,0.75,1.),.UNSPECIFIED.);
#1915=EDGE_CURVE('',#1799,#1896,#1914,.T.);
#1916=ORIENTED_EDGE('',*,*,#1915,.T.);
#1917=CARTESIAN_POINT('',(4.144421469,47.474442147,2.348884294));
#1918=DIRECTION('',(0.975900073,0.097590007,0.195180015));
#1919=VECTOR('',#1918,1.28658514);
#1920=LINE('',#1917,#1919);
#1921=EDGE_CURVE('',#1896,#886,#1920,.T.);
#1922=ORIENTED_EDGE('',*,*,#1921,.T.);
#1923=ORIENTED_EDGE('',*,*,#891,.F.);
#1924=CARTESIAN_POINT('',(-4.144421469,47.474442147,2.348884294));
#1925=VERTEX_POINT('',#1924);
#1926=CARTESIAN_POINT('',(-5.4,47.6,2.6));
#1927=DIRECTION('',(0.975900073,-0.097590007,-0.195180015));
#1928=VECTOR('',#1927,1.28658514);
#1929=LINE('',#1926,#1928);
#1930=EDGE_CURVE('',#884,#1925,#1929,.T.);
#1931=ORIENTED_EDGE('',*,*,#1930,.T.);
#1932=CARTESIAN_POINT('',(-4.144421469,47.474442147,2.348884294));
#1933=CARTESIAN_POINT('',(-3.906939945,47.450693994,2.301387989));
#1934=CARTESIAN_POINT('',(-3.775860053,47.438115338,2.276230675));
#1935=CARTESIAN_POINT('',(-3.663889003,47.427370399,2.254740798));
#1936=CARTESIAN_POINT('',(-3.591049303,47.421078105,2.24215621));
#1937=CARTESIAN_POINT('',(-3.539932769,47.416662378,2.233324755));
#1938=CARTESIAN_POINT('',(-3.498209548,47.41359512,2.227190241));
#1939=CARTESIAN_POINT('',(-3.449450298,47.410010614,2.220021228));
#1940=CARTESIAN_POINT('',(-3.404988993,47.407722826,2.215445653));
#1941=CARTESIAN_POINT('',(-3.360912373,47.405454833,2.210909666));
#1942=CARTESIAN_POINT('',(-3.311316754,47.404040106,2.208080211));
#1943=CARTESIAN_POINT('',(-3.270091843,47.402864155,2.20572831));
#1944=CARTESIAN_POINT('',(-3.217285803,47.402096272,2.204192544));
#1945=CARTESIAN_POINT('',(-3.144637457,47.40103985,2.202079701));
#1946=CARTESIAN_POINT('',(-3.028838707,47.400553851,2.201107701));
#1947=CARTESIAN_POINT('',(-2.896873156,47.4,2.2));
#1948=CARTESIAN_POINT('',(-2.651865683,47.4,2.2));
#1949=B_SPLINE_CURVE_WITH_KNOTS('',2,(#1932,#1933,#1934,#1935,#1936,#1937,#1938,#1939,#1940,#1941,#1942,#1943,#1944,#1945,#1946,#1947,#1948),.UNSPECIFIED.,.F.,.F.,(3,2,2,2,2,2,2,2,3),(0.,0.25,0.375,0.4375,0.5,0.5625,0.625,0.75,1.),.UNSPECIFIED.);
#1950=EDGE_CURVE('',#1925,#1807,#1949,.T.);
#1951=ORIENTED_EDGE('',*,*,#1950,.T.);
#1952=EDGE_LOOP('',(#1894,#1916,#1922,#1923,#1931,#1951));
#1953=FACE_BOUND('',#1952,.T.);
#1954=ADVANCED_FACE('',(#1953),#1893,.F.);
#1955=CARTESIAN_POINT('',(-5.4,47.6,1.7));
#1956=DIRECTION('',(0.099503719,0.99503719,0.));
#1957=DIRECTION('',(-0.,0.,1.));
#1958=AXIS2_PLACEMENT_3D('',#1955,#1956,#1957);
#1959=PLANE('',#1958);
#1960=ORIENTED_EDGE('',*,*,#1883,.F.);
#1961=CARTESIAN_POINT('',(-4.144421469,47.474442147,1.051115706));
#1962=DIRECTION('',(-0.,0.,1.));
#1963=VECTOR('',#1962,1.297768587);
#1964=LINE('',#1961,#1963);
#1965=EDGE_CURVE('',#1858,#1925,#1964,.T.);
#1966=ORIENTED_EDGE('',*,*,#1965,.T.);
#1967=ORIENTED_EDGE('',*,*,#1930,.F.);
#1968=ORIENTED_EDGE('',*,*,#913,.F.);
#1969=EDGE_LOOP('',(#1960,#1966,#1967,#1968));
#1970=FACE_BOUND('',#1969,.T.);
#1971=ADVANCED_FACE('',(#1970),#1959,.F.);
#1972=CARTESIAN_POINT('',(5.4,47.6,1.7));
#1973=DIRECTION('',(-0.099503719,0.99503719,0.));
#1974=DIRECTION('',(0.,0.,-1.));
#1975=AXIS2_PLACEMENT_3D('',#1972,#1973,#1974);
#1976=PLANE('',#1975);
#1977=ORIENTED_EDGE('',*,*,#1921,.F.);
#1978=CARTESIAN_POINT('',(4.144421469,47.474442147,2.348884294));
#1979=DIRECTION('',(0.,0.,-1.));
#1980=VECTOR('',#1979,1.297768587);
#1981=LINE('',#1978,#1980);
#1982=EDGE_CURVE('',#1896,#1829,#1981,.T.);
#1983=ORIENTED_EDGE('',*,*,#1982,.T.);
#1984=ORIENTED_EDGE('',*,*,#1834,.F.);
#1985=ORIENTED_EDGE('',*,*,#899,.F.);
#1986=EDGE_LOOP('',(#1977,#1983,#1984,#1985));
#1987=FACE_BOUND('',#1986,.T.);
#1988=ADVANCED_FACE('',(#1987),#1976,.F.);
#1989=CARTESIAN_POINT('',(4.144421469,47.474442147,2.348884294));
#1990=CARTESIAN_POINT('',(4.144421469,47.474442147,1.916294765));
#1991=CARTESIAN_POINT('',(4.144421469,47.474442147,1.483705235));
#1992=CARTESIAN_POINT('',(4.144421469,47.474442147,1.051115706));
#1993=CARTESIAN_POINT('',(3.4,47.4,2.348884294));
#1994=CARTESIAN_POINT('',(3.4,47.4,1.916294765));
#1995=CARTESIAN_POINT('',(3.4,47.4,1.483705235));
#1996=CARTESIAN_POINT('',(3.4,47.4,1.051115706));
#1997=CARTESIAN_POINT('',(2.651865683,47.4,2.348884294));
#1998=CARTESIAN_POINT('',(2.651865683,47.4,1.916294765));
#1999=CARTESIAN_POINT('',(2.651865683,47.4,1.483705235));
#2000=CARTESIAN_POINT('',(2.651865683,47.4,1.051115706));
#2001=(BOUNDED_SURFACE()
B_SPLINE_SURFACE(2,3,((#1989,#1990,#1991,#1992),(#1993,#1994,#1995,#1996),(#1997,#1998,#1999,#2000)),.UNSPECIFIED.,.F.,.F.,.U.)
B_SPLINE_SURFACE_WITH_KNOTS((3,3),(4,4),(0.,1.),(-0.002348884,-0.001051116),.UNSPECIFIED.)
GEOMETRIC_REPRESENTATION_ITEM()
RATIONAL_B_SPLINE_SURFACE(((1.,1.,1.,1.),(3.995034108,3.995034108,3.995034108,3.995034108),(1.,1.,1.,1.)))
REPRESENTATION_ITEM('')
SURFACE()
);
#2002=ORIENTED_EDGE('',*,*,#1854,.F.);
#2003=ORIENTED_EDGE('',*,*,#1982,.F.);
#2004=ORIENTED_EDGE('',*,*,#1915,.F.);
#2005=ORIENTED_EDGE('',*,*,#1804,.F.);
#2006=EDGE_LOOP('',(#2002,#2003,#2004,#2005));
#2007=FACE_BOUND('',#2006,.T.);
#2008=ADVANCED_FACE('',(#2007),#2001,.T.);
#2009=CARTESIAN_POINT('',(-4.144421469,47.474442147,1.051115706));
#2010=CARTESIAN_POINT('',(-4.144421469,47.474442147,1.483705235));
#2011=CARTESIAN_POINT('',(-4.144421469,47.474442147,1.916294765));
#2012=CARTESIAN_POINT('',(-4.144421469,47.474442147,2.348884294));
#2013=CARTESIAN_POINT('',(-3.4,47.4,1.051115706));
#2014=CARTESIAN_POINT('',(-3.4,47.4,1.483705235));
#2015=CARTESIAN_POINT('',(-3.4,47.4,1.916294765));
#2016=CARTESIAN_POINT('',(-3.4,47.4,2.348884294));
#2017=CARTESIAN_POINT('',(-2.651865683,47.4,1.051115706));
#2018=CARTESIAN_POINT('',(-2.651865683,47.4,1.483705235));
#2019=CARTESIAN_POINT('',(-2.651865683,47.4,1.916294765));
#2020=CARTESIAN_POINT('',(-2.651865683,47.4,2.348884294));
#2021=(BOUNDED_SURFACE()
B_SPLINE_SURFACE(2,3,((#2009,#2010,#2011,#2012),(#2013,#2014,#2015,#2016),(#2017,#2018,#2019,#2020)),.UNSPECIFIED.,.F.,.F.,.U.)
B_SPLINE_SURFACE_WITH_KNOTS((3,3),(4,4),(0.,1.),(0.001051116,0.002348884),.UNSPECIFIED.)
GEOMETRIC_REPRESENTATION_ITEM()
RATIONAL_B_SPLINE_SURFACE(((1.,1.,1.,1.),(3.995034108,3.995034108,3.995034108,3.995034108),(1.,1.,1.,1.)))
REPRESENTATION_ITEM('')
SURFACE()
);
#2022=ORIENTED_EDGE('',*,*,#1950,.F.);
#2023=ORIENTED_EDGE('',*,*,#1965,.F.);
#2024=ORIENTED_EDGE('',*,*,#1877,.F.);
#2025=ORIENTED_EDGE('',*,*,#1818,.F.);
#2026=EDGE_LOOP('',(#2022,#2023,#2024,#2025));
#2027=FACE_BOUND('',#2026,.T.);
#2028=ADVANCED_FACE('',(#2027),#2021,.T.);
#2029=CLOSED_SHELL('',(#66,#141,#216,#238,#260,#280,#300,#378,#409,#531,#621,#638,#655,#679,#769,#786,#803,#827,#917,#934,#951,#968,#985,#1002,#1029,#1112,
#1134,#1151,#1168,#1185,#1202,#1219,#1236,#1248,#1273,#1290,#1330,#1396,#1462,#1479,#1496,#1516,#1536,#1576,#1642,#1708,#1725,#1742,#1762,#1782,#1822,
#1888,#1954,#1971,#1988,#2008,#2028));
#2030=MANIFOLD_SOLID_BREP('Inner',#2029);
#2031=COLOUR_RGB('',0.494117647,0.494117647,0.525490224);
#2032=FILL_AREA_STYLE_COLOUR('',#2031);
#2033=FILL_AREA_STYLE('',(#2032));
#2034=SURFACE_STYLE_FILL_AREA(#2033);
#2035=SURFACE_SIDE_STYLE('',(#2034));
#2036=SURFACE_STYLE_USAGE(.BOTH.,#2035);
#2037=PRESENTATION_STYLE_ASSIGNMENT((#2036));
#26=STYLED_ITEM('',(#2037),#2030);
#16=SHAPE_REPRESENTATION('openGrid Lite Wall Mount 4mm Offset',(#15),#10);
#17=ADVANCED_BREP_SHAPE_REPRESENTATION('openGrid Lite Wall Mount 4mm Offset',(#2030),#10);
#2045=SHAPE_REPRESENTATION_RELATIONSHIP('','',#16,#17);
#2046=CARTESIAN_POINT('',(0.,0.,0.));
#2047=DIRECTION('',(0.,0.,1.));
#2048=DIRECTION('',(1.,0.,0.));
#2049=AXIS2_PLACEMENT_3D('',#2046,#2047,#2048);
#2051=MAPPED_ITEM('',#2050,#2049);
#2050=REPRESENTATION_MAP(#2049,#16);
#2052=APPLICATION_CONTEXT('Managed model based 3d engineering');
#2053=APPLICATION_PROTOCOL_DEFINITION('international standard','ap242_managed_model_based_3d_engineering',2014,#2052);
#2054=PRODUCT_CONTEXT('',#2052,'mechanical');
#2055=PRODUCT_DEFINITION_CONTEXT('part definition',#2052,'design');
#24=PRODUCT('openGrid Lite Wall Mount 4mm Offset','openGrid Lite Wall Mount 4mm Offset','',(#2054));
#2056=PRODUCT_RELATED_PRODUCT_CATEGORY('part','',(#24));
#2057=PRODUCT_DEFINITION_FORMATION_WITH_SPECIFIED_SOURCE('','',#24,.NOT_KNOWN.);
#25=PRODUCT_DEFINITION('design','',#2057,#2055);
#23=PRODUCT_DEFINITION_SHAPE('','',#25);
#2058=SHAPE_DEFINITION_REPRESENTATION(#23,#16);
#11=DRAUGHTING_MODEL('',(#2051),#10);
#2059=DESCRIPTIVE_REPRESENTATION_ITEM('KEY','/Users/ddanier/Library/Containers/com.shapr3d.shapr/Data/tmp/7A7AA6E0-9490-4A11-B911-46D17990DD0F.tmp');
#2060=PROPERTY_DEFINITION('KEY','',#25);
#2061=REPRESENTATION('',(#2059),#10);
#2062=PROPERTY_DEFINITION_REPRESENTATION(#2060,#2061);
#2063=GENERAL_PROPERTY('','KEY','');
#2064=GENERAL_PROPERTY_ASSOCIATION('','',#2063,#2060);
#1=MECHANICAL_DESIGN_GEOMETRIC_PRESENTATION_REPRESENTATION('',(#26),#10);
ENDSEC;
END-ISO-10303-21;
