999
dxflib 3.12.2.0
  0
SECTION
  2
HEADER
  9
$ACADVER
  1
AC1015
  9
$HANDSEED
  5
FFFF
  9
$ANGBASE
 50
0.0
  9
$ATTMODE
 70
1
  9
$AUNITS
 70
0
  9
$AUPREC
 70
0
  9
$CELTSCALE
 40
1.0
  9
$CHAMFERA
 40
0.0
  9
$CHAMFERB
 40
0.0
  9
$CHAMFERC
 40
0.0
  9
$CHAMFERD
 40
0.0
  9
$CMLJUST
 70
0
  9
$CMLSCALE
 40
20.0
  9
$DIMADEC
 70
1
  9
$DIMALTD
 70
3
  9
$DIMALTF
 40
0.0393700787401575
  9
$DIMALTRND
 40
0.0
  9
$DIMALTTD
 70
3
  9
$DIMALTTZ
 70
8
  9
$DIMALTU
 70
2
  9
$DIMALTZ
 70
0
  9
$DIMAPOST
  1

  9
$DIMASZ
 40
2.5
  9
$DIMATFIT
 70
3
  9
$DIMAUNIT
 70
0
  9
$DIMAZIN
 70
0
  9
$DIMCEN
 40
2.5
  9
$DIMDEC
 70
3
  9
$DIMDLE
 40
0.0
  9
$DIMDLI
 40
3.75
  9
$DIMDSEP
 70
44
  9
$DIMEXE
 40
1.25
  9
$DIMEXO
 40
0.625
  9
$DIMFRAC
 70
0
  9
$DIMGAP
 40
0.625
  9
$DIMJUST
 70
0
  9
$DIMLFAC
 40
1.0
  9
$DIMLUNIT
 70
2
  9
$DIMLWD
 70
-2
  9
$DIMLWE
 70
-2
  9
$DIMPOST
  1
mm
  9
$DIMRND
 40
0.0
  9
$DIMSCALE
 40
1.0
  9
$DIMTAD
 70
1
  9
$DIMTDEC
 70
3
  9
$DIMTFAC
 40
1.0
  9
$DIMTM
 40
0.0
  9
$DIMTOLJ
 70
0
  9
$DIMTP
 40
0.0
  9
$DIMTSZ
 40
0.0
  9
$DIMTVP
 40
0.0
  9
$DIMTXT
 40
2.5
  9
$DIMTZIN
 70
8
  9
$DIMZIN
 70
8
  9
$DWGCODEPAGE
  3
ANSI_1252
  9
$ELEVATION
 40
0.0
  9
$EXTMAX
 10
172.10414219053379
 20
2.3000001043090759
 30
21.249999933540838
  9
$EXTMIN
 10
-26.715857809467241
 20
-122.6999998956928
 30
21.249999933540799
  9
$FILLETRAD
 40
10.0
  9
$INSBASE
 10
0.0
 20
0.0
 30
0.0
  9
$INSUNITS
 70
4
  9
$LIMMAX
 10
420.0
 20
297.0
  9
$LIMMIN
 10
0.0
 20
0.0
  9
$LTSCALE
 40
1.0
  9
$LUNITS
 70
2
  9
$LUPREC
 70
4
  9
$MAXACTVP
 70
2
  9
$MEASUREMENT
 70
1
  9
$PDMODE
 70
0
  9
$PDSIZE
 40
0.0
  9
$PELEVATION
 40
0.0
  9
$PEXTMAX
 10
-100000000000000000000.0
 20
-100000000000000000000.0
 30
-100000000000000000000.0
  9
$PEXTMIN
 10
100000000000000000000.0
 20
100000000000000000000.0
 30
100000000000000000000.0
  9
$PINSBASE
 10
0.0
 20
0.0
 30
0.0
  9
$PLIMMAX
 10
420.0
 20
297.0
  9
$PLIMMIN
 10
0.0
 20
0.0
  9
$PLINEWID
 40
0.0
  9
$PROXYGRAPHICS
 70
1
  9
$PUCSORG
 10
0.0
 20
0.0
 30
0.0
  9
$PUCSXDIR
 10
1.0
 20
0.0
 30
0.0
  9
$PUCSYDIR
 10
0.0
 20
1.0
 30
0.0
  9
$SHADEDGE
 70
3
  9
$SHADEDIF
 70
70
  9
$SKETCHINC
 40
1.0
  9
$SPLINESEGS
 70
8
  9
$SPLINETYPE
 70
6
  9
$SURFTAB1
 70
6
  9
$SURFTAB2
 70
6
  9
$SURFTYPE
 70
6
  9
$SURFU
 70
6
  9
$SURFV
 70
6
  9
$TEXTSIZE
 40
2.5
  9
$THICKNESS
 40
0.0
  9
$TRACEWID
 40
1.0
  9
$TREEDEPTH
 70
3020
  9
$UCSORG
 10
0.0
 20
0.0
 30
0.0
  9
$UCSXDIR
 10
1.0
 20
0.0
 30
0.0
  9
$UCSYDIR
 10
0.0
 20
1.0
 30
0.0
  9
$UNITMODE
 70
0
  9
$USERI1
 70
0
  9
$USERI2
 70
0
  9
$USERI3
 70
0
  9
$USERI4
 70
0
  9
$USERI5
 70
0
  9
$USERR1
 40
0.0
  9
$USERR2
 40
0.0
  9
$USERR3
 40
0.0
  9
$USERR4
 40
0.0
  9
$USERR5
 40
0.0
  0
ENDSEC
  0
SECTION
  2
TABLES
  0
TABLE
  2
VPORT
  5
8
100
AcDbSymbolTable
 70
1
  0
VPORT
  5
30
100
AcDbSymbolTableRecord
100
AcDbViewportTableRecord
  2
*Active
 70
0
 10
0.0
 20
0.0
 11
1.0
 21
1.0
 12
286.30555555555549
 22
148.5
 13
0.0
 23
0.0
 14
10.0
 24
10.0
 15
10.0
 25
10.0
 16
0.0
 26
0.0
 36
1.0
 17
0.0
 27
0.0
 37
0.0
 40
297.0
 41
1.92798353909465
 42
50.0
 43
0.0
 44
0.0
 50
0.0
 51
0.0
 71
0
 72
100
 73
1
 74
3
 75
1
 76
1
 77
0
 78
0
281
0
 65
1
110
0.0
120
0.0
130
0.0
111
1.0
121
0.0
131
0.0
112
0.0
122
1.0
132
0.0
 79
0
146
0.0
  0
ENDTAB
  0
TABLE
  2
LTYPE
  5
5
100
AcDbSymbolTable
 70
50
  0
LTYPE
  5
16
100
AcDbSymbolTableRecord
100
AcDbLinetypeTableRecord
  2
Continuous
 70
0
  3
Solid line
 72
65
 73
0
 40
0.0
  0
LTYPE
  5
31
100
AcDbSymbolTableRecord
100
AcDbLinetypeTableRecord
  2
DASHDOTX2
 70
0
  3
Dash dot (2x) ____  .  ____  .  ____  .  ___
 72
65
 73
4
 40
50.799999999999997
 49
25.399999999999999
 74
0
 49
-12.699999999999999
 74
0
 49
0.0
 74
0
 49
-12.699999999999999
 74
0
  0
LTYPE
  5
32
100
AcDbSymbolTableRecord
100
AcDbLinetypeTableRecord
  2
CENTER
 70
0
  3
Center ____ _ ____ _ ____ _ ____ _ ____ _ ____
 72
65
 73
4
 40
50.800000000000004
 49
31.75
 74
0
 49
-6.3499999999999996
 74
0
 49
6.3499999999999996
 74
0
 49
-6.3499999999999996
 74
0
  0
LTYPE
  5
33
100
AcDbSymbolTableRecord
100
AcDbLinetypeTableRecord
  2
DIVIDE
 70
0
  3
Divide ____ . . ____ . . ____ . . ____ . . ____
 72
65
 73
6
 40
31.75
 49
12.699999999999999
 74
0
 49
-6.3499999999999996
 74
0
 49
0.0
 74
0
 49
-6.3499999999999996
 74
0
 49
0.0
 74
0
 49
-6.3499999999999996
 74
0
  0
LTYPE
  5
34
100
AcDbSymbolTableRecord
100
AcDbLinetypeTableRecord
  2
HIDDENX2
 70
0
  3
Hidden (2x) ____ ____ ____ ____ ____ ____ ____ 
 72
65
 73
2
 40
19.049999999999997
 49
12.699999999999999
 74
0
 49
-6.3499999999999996
 74
0
  0
LTYPE
  5
35
100
AcDbSymbolTableRecord
100
AcDbLinetypeTableRecord
  2
DOTX2
 70
0
  3
Dot (2x) .  .  .  .  .  .  .  .  .  .  .  .  .  .
 72
65
 73
2
 40
12.699999999999999
 49
0.0
 74
0
 49
-12.699999999999999
 74
0
  0
LTYPE
  5
36
100
AcDbSymbolTableRecord
100
AcDbLinetypeTableRecord
  2
PHANTOM
 70
0
  3
Phantom ______  __  __  ______  __  __  ______ 
 72
65
 73
6
 40
63.500000000000007
 49
31.75
 74
0
 49
-6.3499999999999996
 74
0
 49
6.3499999999999996
 74
0
 49
-6.3499999999999996
 74
0
 49
6.3499999999999996
 74
0
 49
-6.3499999999999996
 74
0
  0
LTYPE
  5
37
100
AcDbSymbolTableRecord
100
AcDbLinetypeTableRecord
  2
GAS_LINE
 70
0
  3
Gas line ----GAS----GAS----GAS----GAS----GAS----GAS--
 72
65
 73
3
 40
24.130000000000003
 49
12.699999999999999
 74
0
 49
-5.0800000000000001
 74
0
 49
-6.3499999999999996
 74
0
  0
LTYPE
  5
38
100
AcDbSymbolTableRecord
100
AcDbLinetypeTableRecord
  2
HIDDEN
 70
0
  3
Hidden __ __ __ __ __ __ __ __ __ __ __ __ __ __
 72
65
 73
2
 40
9.5249999999999986
 49
6.3499999999999996
 74
0
 49
-3.1749999999999998
 74
0
  0
LTYPE
  5
39
100
AcDbSymbolTableRecord
100
AcDbLinetypeTableRecord
  2
ACAD_ISO10W100
 70
0
  3
ISO dash dot __ . __ . __ . __ . __ . __ . __ . 
 72
65
 73
4
 40
18.0
 49
12.0
 74
0
 49
-3.0
 74
0
 49
0.0
 74
0
 49
-3.0
 74
0
  0
LTYPE
  5
3A
100
AcDbSymbolTableRecord
100
AcDbLinetypeTableRecord
  2
FENCELINE2
 70
0
  3
Fenceline square ----[]-----[]----[]-----[]----[]---
 72
65
 73
4
 40
36.829999999999998
 49
6.3499999999999996
 74
0
 49
-2.54
 74
0
 49
-2.54
 74
0
 49
25.399999999999999
 74
0
  0
LTYPE
  5
3B
100
AcDbSymbolTableRecord
100
AcDbLinetypeTableRecord
  2
PHANTOMX2
 70
0
  3
Phantom (2x) ____________    ____    ____   _
 72
65
 73
6
 40
127.00000000000001
 49
63.5
 74
0
 49
-12.699999999999999
 74
0
 49
12.699999999999999
 74
0
 49
-12.699999999999999
 74
0
 49
12.699999999999999
 74
0
 49
-12.699999999999999
 74
0
  0
LTYPE
  5
3C
100
AcDbSymbolTableRecord
100
AcDbLinetypeTableRecord
  2
ZIGZAG
 70
0
  3
Zig zag /\/\/\/\/\/\/\/\/\/\/\/\/\/\/\/\/\/\/\/\/\/\/\/
 72
65
 73
4
 40
20.32254
 49
0.00254
 74
0
 49
-5.0800000000000001
 74
0
 49
-10.16
 74
0
 49
-5.0800000000000001
 74
0
  0
LTYPE
  5
3D
100
AcDbSymbolTableRecord
100
AcDbLinetypeTableRecord
  2
DOT
 70
0
  3
Dot . . . . . . . . . . . . . . . . . . . . . . . .
 72
65
 73
2
 40
6.3499999999999996
 49
0.0
 74
0
 49
-6.3499999999999996
 74
0
  0
LTYPE
  5
3E
100
AcDbSymbolTableRecord
100
AcDbLinetypeTableRecord
  2
ACAD_ISO11W100
 70
0
  3
ISO double-dash dot __ __ . __ __ . __ __ . __ _
 72
65
 73
6
 40
33.0
 49
12.0
 74
0
 49
-3.0
 74
0
 49
12.0
 74
0
 49
-3.0
 74
0
 49
0.0
 74
0
 49
-3.0
 74
0
  0
LTYPE
  5
3F
100
AcDbSymbolTableRecord
100
AcDbLinetypeTableRecord
  2
HIDDEN2
 70
0
  3
Hidden (.5x) _ _ _ _ _ _ _ _ _ _ _ _ _ _ _ _ _ 
 72
65
 73
2
 40
4.7624999999999993
 49
3.1749999999999998
 74
0
 49
-1.5874999999999999
 74
0
  0
LTYPE
  5
40
100
AcDbSymbolTableRecord
100
AcDbLinetypeTableRecord
  2
ACAD_ISO08W100
 70
0
  3
ISO long-dash short-dash ____ __ ____ __ ____ _
 72
65
 73
4
 40
36.0
 49
24.0
 74
0
 49
-3.0
 74
0
 49
6.0
 74
0
 49
-3.0
 74
0
  0
LTYPE
  5
41
100
AcDbSymbolTableRecord
100
AcDbLinetypeTableRecord
  2
BATTING
 70
0
  3
Batting SSSSSSSSSSSSSSSSSSSSSSSSSSSSSSSSSSSSSSSSSSSSSSS
 72
65
 73
4
 40
10.16254
 49
0.00254
 74
0
 49
-2.54
 74
0
 49
-5.0800000000000001
 74
0
 49
-2.54
 74
0
  0
LTYPE
  5
42
100
AcDbSymbolTableRecord
100
AcDbLinetypeTableRecord
  2
FENCELINE1
 70
0
  3
Fenceline circle ----0-----0----0-----0----0-----0--
 72
65
 73
4
 40
36.829999999999998
 49
6.3499999999999996
 74
0
 49
-2.54
 74
0
 49
-2.54
 74
0
 49
25.399999999999999
 74
0
  0
LTYPE
  5
43
100
AcDbSymbolTableRecord
100
AcDbLinetypeTableRecord
  2
DIVIDEX2
 70
0
  3
Divide (2x) ________  .  .  ________  .  .  _
 72
65
 73
6
 40
63.5
 49
25.399999999999999
 74
0
 49
-12.699999999999999
 74
0
 49
0.0
 74
0
 49
-12.699999999999999
 74
0
 49
0.0
 74
0
 49
-12.699999999999999
 74
0
  0
LTYPE
  5
44
100
AcDbSymbolTableRecord
100
AcDbLinetypeTableRecord
  2
DRAINAGE2
 70
0
  3
Drainage reversed----<----<----<----
 72
65
 73
2
 40
10.16
 49
5.0800000000000001
 74
0
 49
5.0800000000000001
 74
0
  0
LTYPE
  5
45
100
AcDbSymbolTableRecord
100
AcDbLinetypeTableRecord
  2
ACAD_ISO15W100
 70
0
  3
ISO double-dash triple-dot __ __ . . . __ __ . .
 72
65
 73
10
 40
39.0
 49
12.0
 74
0
 49
-3.0
 74
0
 49
12.0
 74
0
 49
-3.0
 74
0
 49
0.0
 74
0
 49
-3.0
 74
0
 49
0.0
 74
0
 49
-3.0
 74
0
 49
0.0
 74
0
 49
-3.0
 74
0
  0
LTYPE
  5
46
100
AcDbSymbolTableRecord
100
AcDbLinetypeTableRecord
  2
DASHED2
 70
0
  3
Dashed (.5x) _ _ _ _ _ _ _ _ _ _ _ _ _ _ _ _ _ 
 72
65
 73
2
 40
9.5249999999999986
 49
6.3499999999999996
 74
0
 49
-3.1749999999999998
 74
0
  0
LTYPE
  5
47
100
AcDbSymbolTableRecord
100
AcDbLinetypeTableRecord
  2
BORDERX2
 70
0
  3
Border (2x) ____  ____  .  ____  ____  .  ___
 72
65
 73
6
 40
88.899999999999991
 49
25.399999999999999
 74
0
 49
-12.699999999999999
 74
0
 49
25.399999999999999
 74
0
 49
-12.699999999999999
 74
0
 49
0.0
 74
0
 49
-12.699999999999999
 74
0
  0
LTYPE
  5
48
100
AcDbSymbolTableRecord
100
AcDbLinetypeTableRecord
  2
ACAD_ISO06W100
 70
0
  3
ISO long-dash triple-dot ____ ... ____ ... ____
 72
65
 73
8
 40
36.0
 49
24.0
 74
0
 49
-3.0
 74
0
 49
0.0
 74
0
 49
-3.0
 74
0
 49
0.0
 74
0
 49
-3.0
 74
0
 49
0.0
 74
0
 49
-3.0
 74
0
  0
LTYPE
  5
49
100
AcDbSymbolTableRecord
100
AcDbLinetypeTableRecord
  2
HOT_WATER_SUPPLY
 70
0
  3
Hot water supply ---- HW ---- HW ---- HW ----
 72
65
 73
3
 40
22.859999999999999
 49
12.699999999999999
 74
0
 49
-5.0800000000000001
 74
0
 49
-5.0800000000000001
 74
0
  0
LTYPE
  5
4A
100
AcDbSymbolTableRecord
100
AcDbLinetypeTableRecord
  2
DASHDOT
 70
0
  3
Dash dot __ . __ . __ . __ . __ . __ . __ . __
 72
65
 73
4
 40
25.399999999999999
 49
12.699999999999999
 74
0
 49
-6.3499999999999996
 74
0
 49
0.0
 74
0
 49
-6.3499999999999996
 74
0
  0
LTYPE
  5
4B
100
AcDbSymbolTableRecord
100
AcDbLinetypeTableRecord
  2
ACAD_ISO07W100
 70
0
  3
ISO dot . . . . . . . . . . . . . . . . . . . . 
 72
65
 73
2
 40
3.0
 49
0.0
 74
0
 49
-3.0
 74
0
  0
LTYPE
  5
4C
100
AcDbSymbolTableRecord
100
AcDbLinetypeTableRecord
  2
ACAD_ISO13W100
 70
0
  3
ISO double-dash double-dot __ __ . . __ __ . . _
 72
65
 73
8
 40
36.0
 49
12.0
 74
0
 49
-3.0
 74
0
 49
12.0
 74
0
 49
-3.0
 74
0
 49
0.0
 74
0
 49
-3.0
 74
0
 49
0.0
 74
0
 49
-3.0
 74
0
  0
LTYPE
  5
4D
100
AcDbSymbolTableRecord
100
AcDbLinetypeTableRecord
  2
ACAD_ISO09W100
 70
0
  3
ISO long-dash double-short-dash ____ __ __ ____
 72
65
 73
6
 40
45.0
 49
24.0
 74
0
 49
-3.0
 74
0
 49
6.0
 74
0
 49
-3.0
 74
0
 49
6.0
 74
0
 49
-3.0
 74
0
  0
LTYPE
  5
4E
100
AcDbSymbolTableRecord
100
AcDbLinetypeTableRecord
  2
ACAD_ISO04W100
 70
0
  3
ISO long-dash dot ____ . ____ . ____ . ____ . _
 72
65
 73
4
 40
30.0
 49
24.0
 74
0
 49
-3.0
 74
0
 49
0.0
 74
0
 49
-3.0
 74
0
  0
LTYPE
  5
4F
100
AcDbSymbolTableRecord
100
AcDbLinetypeTableRecord
  2
ACAD_ISO03W100
 70
0
  3
ISO dash space __    __    __    __    __    __
 72
65
 73
2
 40
30.0
 49
12.0
 74
0
 49
-18.0
 74
0
  0
LTYPE
  5
50
100
AcDbSymbolTableRecord
100
AcDbLinetypeTableRecord
  2
ACAD_ISO02W100
 70
0
  3
ISO dash __ __ __ __ __ __ __ __ __ __ __ __ __
 72
65
 73
2
 40
15.0
 49
12.0
 74
0
 49
-3.0
 74
0
  0
LTYPE
  5
14
100
AcDbSymbolTableRecord
100
AcDbLinetypeTableRecord
  2
ByBlock
 70
0
  3

 72
65
 73
0
 40
0.0
  0
LTYPE
  5
51
100
AcDbSymbolTableRecord
100
AcDbLinetypeTableRecord
  2
ACAD_ISO12W100
 70
0
  3
ISO dash double-dot __ . . __ . . __ . . __ . . 
 72
65
 73
6
 40
21.0
 49
12.0
 74
0
 49
-3.0
 74
0
 49
0.0
 74
0
 49
-3.0
 74
0
 49
0.0
 74
0
 49
-3.0
 74
0
  0
LTYPE
  5
52
100
AcDbSymbolTableRecord
100
AcDbLinetypeTableRecord
  2
TRACKS
 70
0
  3
Tracks -|-|-|-|-|-|-|-|-|-|-|-|-|-|-|-|-|-|-|-|-|-|-|-|-
 72
65
 73
2
 40
7.6200000000000001
 49
3.8100000000000001
 74
0
 49
3.8100000000000001
 74
0
  0
LTYPE
  5
53
100
AcDbSymbolTableRecord
100
AcDbLinetypeTableRecord
  2
DOT2
 70
0
  3
Dot (.5x) ........................................
 72
65
 73
2
 40
3.1749999999999998
 49
0.0
 74
0
 49
-3.1749999999999998
 74
0
  0
LTYPE
  5
54
100
AcDbSymbolTableRecord
100
AcDbLinetypeTableRecord
  2
BORDER2
 70
0
  3
Border (.5x) __.__.__.__.__.__.__.__.__.__.__.
 72
65
 73
6
 40
22.224999999999998
 49
6.3499999999999996
 74
0
 49
-3.1749999999999998
 74
0
 49
6.3499999999999996
 74
0
 49
-3.1749999999999998
 74
0
 49
0.0
 74
0
 49
-3.1749999999999998
 74
0
  0
LTYPE
  5
55
100
AcDbSymbolTableRecord
100
AcDbLinetypeTableRecord
  2
DASHED
 70
0
  3
Dashed __ __ __ __ __ __ __ __ __ __ __ __ __ _
 72
65
 73
2
 40
19.049999999999997
 49
12.699999999999999
 74
0
 49
-6.3499999999999996
 74
0
  0
LTYPE
  5
56
100
AcDbSymbolTableRecord
100
AcDbLinetypeTableRecord
  2
DIVIDE2
 70
0
  3
Divide (.5x) __..__..__..__..__..__..__..__.._
 72
65
 73
6
 40
15.875
 49
6.3499999999999996
 74
0
 49
-3.1749999999999998
 74
0
 49
0.0
 74
0
 49
-3.1749999999999998
 74
0
 49
0.0
 74
0
 49
-3.1749999999999998
 74
0
  0
LTYPE
  5
57
100
AcDbSymbolTableRecord
100
AcDbLinetypeTableRecord
  2
ACAD_ISO05W100
 70
0
  3
ISO long-dash double-dot ____ .. ____ .. ____ . 
 72
65
 73
6
 40
33.0
 49
24.0
 74
0
 49
-3.0
 74
0
 49
0.0
 74
0
 49
-3.0
 74
0
 49
0.0
 74
0
 49
-3.0
 74
0
  0
LTYPE
  5
58
100
AcDbSymbolTableRecord
100
AcDbLinetypeTableRecord
  2
BORDER
 70
0
  3
Border __ __ . __ __ . __ __ . __ __ . __ __ .
 72
65
 73
6
 40
44.449999999999996
 49
12.699999999999999
 74
0
 49
-6.3499999999999996
 74
0
 49
12.699999999999999
 74
0
 49
-6.3499999999999996
 74
0
 49
0.0
 74
0
 49
-6.3499999999999996
 74
0
  0
LTYPE
  5
59
100
AcDbSymbolTableRecord
100
AcDbLinetypeTableRecord
  2
PHANTOM2
 70
0
  3
Phantom (.5x) ___ _ _ ___ _ _ ___ _ _ ___ _ _
 72
65
 73
6
 40
31.750000000000004
 49
15.875
 74
0
 49
-3.1749999999999998
 74
0
 49
3.1749999999999998
 74
0
 49
-3.1749999999999998
 74
0
 49
3.1749999999999998
 74
0
 49
-3.1749999999999998
 74
0
  0
LTYPE
  5
5A
100
AcDbSymbolTableRecord
100
AcDbLinetypeTableRecord
  2
DASHEDX2
 70
0
  3
Dashed (2x) ____  ____  ____  ____  ____  ___
 72
65
 73
2
 40
38.099999999999994
 49
25.399999999999999
 74
0
 49
-12.699999999999999
 74
0
  0
LTYPE
  5
5B
100
AcDbSymbolTableRecord
100
AcDbLinetypeTableRecord
  2
CENTER2
 70
0
  3
Center (.5x) ___ _ ___ _ ___ _ ___ _ ___ _ ___
 72
65
 73
4
 40
28.575000000000003
 49
19.050000000000001
 74
0
 49
-3.1749999999999998
 74
0
 49
3.1749999999999998
 74
0
 49
-3.1749999999999998
 74
0
  0
LTYPE
  5
5C
100
AcDbSymbolTableRecord
100
AcDbLinetypeTableRecord
  2
CENTERX2
 70
0
  3
Center (2x) ________  __  ________  __  _____
 72
65
 73
4
 40
101.60000000000001
 49
63.5
 74
0
 49
-12.699999999999999
 74
0
 49
12.699999999999999
 74
0
 49
-12.699999999999999
 74
0
  0
LTYPE
  5
5D
100
AcDbSymbolTableRecord
100
AcDbLinetypeTableRecord
  2
DRAINAGE
 70
0
  3
Drainage ---->---->---->----
 72
65
 73
2
 40
10.16
 49
5.0800000000000001
 74
0
 49
5.0800000000000001
 74
0
  0
LTYPE
  5
5E
100
AcDbSymbolTableRecord
100
AcDbLinetypeTableRecord
  2
ACAD_ISO14W100
 70
0
  3
ISO dash triple-dot __ . . . __ . . . __ . . . _
 72
65
 73
8
 40
24.0
 49
12.0
 74
0
 49
-3.0
 74
0
 49
0.0
 74
0
 49
-3.0
 74
0
 49
0.0
 74
0
 49
-3.0
 74
0
 49
0.0
 74
0
 49
-3.0
 74
0
  0
LTYPE
  5
15
100
AcDbSymbolTableRecord
100
AcDbLinetypeTableRecord
  2
ByLayer
 70
0
  3

 72
65
 73
0
 40
0.0
  0
LTYPE
  5
5F
100
AcDbSymbolTableRecord
100
AcDbLinetypeTableRecord
  2
DASHDOT2
 70
0
  3
Dash dot (.5x) _._._._._._._._._._._._._._._.
 72
65
 73
4
 40
12.699999999999999
 49
6.3499999999999996
 74
0
 49
-3.1749999999999998
 74
0
 49
0.0
 74
0
 49
-3.1749999999999998
 74
0
  0
ENDTAB
  0
TABLE
  2
LAYER
  5
2
100
AcDbSymbolTable
 70
3
  0
LAYER
  5
10
100
AcDbSymbolTableRecord
100
AcDbLayerTableRecord
  2
0
 70
0
 62
7
420
16777215
  6
Continuous
370
70
390
F
  0
LAYER
  5
60
100
AcDbSymbolTableRecord
100
AcDbLayerTableRecord
  2
NONE
 70
0
 62
7
420
16777215
  6
Continuous
370
70
390
F
  0
LAYER
  5
61
100
AcDbSymbolTableRecord
100
AcDbLayerTableRecord
  2
Hidden
 70
0
 62
7
420
16777215
  6
Continuous
370
70
390
F
  0
ENDTAB
  0
TABLE
  2
STYLE
  5
3
100
AcDbSymbolTable
 70
1
  0
STYLE
  5
62
100
AcDbSymbolTableRecord
100
AcDbTextStyleTableRecord
  2
Standard
 70
0
 40
0.0
 41
1.0
 50
0.0
 71
0
 42
2.5
  3

  4

1001
ACAD
1000
txt
1071
0
  0
ENDTAB
  0
TABLE
  2
VIEW
  5
6
100
AcDbSymbolTable
 70
0
  0
ENDTAB
  0
TABLE
  2
UCS
  5
7
100
AcDbSymbolTable
 70
0
  0
ENDTAB
  0
TABLE
  2
APPID
  5
9
100
AcDbSymbolTable
 70
1
  0
APPID
  5
12
100
AcDbSymbolTableRecord
100
AcDbRegAppTableRecord
  2
ACAD
 70
0
  0
APPID
  5
63
100
AcDbSymbolTableRecord
100
AcDbRegAppTableRecord
  2
QCAD
 70
0
  0
ENDTAB
  0
TABLE
  2
DIMSTYLE
  5
A
100
AcDbSymbolTable
 70
1
100
AcDbDimStyleTable
 71
0
  0
DIMSTYLE
105
27
100
AcDbSymbolTableRecord
100
AcDbDimStyleTableRecord
  2
Standard
 41
2.5
 42
0.625
 43
3.75
 44
1.25
 70
0
 73
0
 74
0
 77
1
 78
8
140
2.5
141
2.5
143
0.03937007874016
147
0.625
171
3
172
1
271
2
272
2
274
3
278
44
283
0
284
8
340
62
  0
ENDTAB
  0
TABLE
  2
BLOCK_RECORD
  5
1
100
AcDbSymbolTable
 70
1
  0
BLOCK_RECORD
  5
1F
100
AcDbSymbolTableRecord
100
AcDbBlockTableRecord
  2
*Model_Space
340
22
  0
BLOCK_RECORD
  5
1B
100
AcDbSymbolTableRecord
100
AcDbBlockTableRecord
  2
*Paper_Space
340
1E
  0
BLOCK_RECORD
  5
23
100
AcDbSymbolTableRecord
100
AcDbBlockTableRecord
  2
*Paper_Space0
340
26
  0
ENDTAB
  0
ENDSEC
  0
SECTION
  2
BLOCKS
  0
BLOCK
  5
20
100
AcDbEntity
  8
0
100
AcDbBlockBegin
  2
*Model_Space
 70
0
 10
0.0
 20
0.0
 30
0.0
  3
*Model_Space
  1

  0
ENDBLK
  5
21
100
AcDbEntity
  8
0
100
AcDbBlockEnd
  0
BLOCK
  5
1C
100
AcDbEntity
 67
1
  8
0
100
AcDbBlockBegin
  2
*Paper_Space
 70
0
 10
0.0
 20
0.0
 30
0.0
  3
*Paper_Space
  1

  0
ENDBLK
  5
1D
100
AcDbEntity
 67
1
  8
0
100
AcDbBlockEnd
  0
BLOCK
  5
24
100
AcDbEntity
  8
0
100
AcDbBlockBegin
  2
*Paper_Space0
 70
0
 10
0.0
 20
0.0
 30
0.0
  3
*Paper_Space0
  1

  0
ENDBLK
  5
25
100
AcDbEntity
  8
0
100
AcDbBlockEnd
  0
ENDSEC
  0
SECTION
  2
ENTITIES
  0
CIRCLE
  5
64
100
AcDbEntity
100
AcDbCircle
  8
0
 62
7
420
16777215
370
-3
 48
1.0
  6
ByLayer
 10
71.930000000000334
 20
-53.860000104307403
 30
0.0
 40
3.3999999999999999
  0
CIRCLE
  5
65
100
AcDbEntity
100
AcDbCircle
  8
0
 62
7
420
16777215
370
-3
 48
1.0
  6
ByLayer
 10
71.930000000000376
 20
-65.860000104307403
 30
0.0
 40
3.3999999999999999
  0
ARC
  5
66
100
AcDbEntity
  8
0
 62
7
420
16777215
370
-3
 48
1.0
  6
ByLayer
100
AcDbCircle
 10
-20.715857809466151
 20
-116.6999998956928
 30
0.0
 40
5.9999999999999991
100
AcDbArc
 50
180.00000000000017
 51
270.0000000000004
  0
ARC
  5
67
100
AcDbEntity
  8
0
 62
7
420
16777215
370
-3
 48
1.0
  6
ByLayer
100
AcDbCircle
 10
-20.715857809467241
 20
-3.6999998956927089
 30
0.0
 40
5.9999999999999991
100
AcDbArc
 50
90.000000000000554
 51
180.0000000000006
  0
ARC
  5
68
100
AcDbEntity
  8
0
 62
7
420
16777215
370
-3
 48
1.0
  6
ByLayer
100
AcDbCircle
 10
166.10414219053271
 20
-3.699999895690929
 30
0.0
 40
5.9999999999999982
100
AcDbArc
 50
0.0000000000006107
 51
90.000000000000497
  0
ARC
  5
69
100
AcDbEntity
  8
0
 62
7
420
16777215
370
-3
 48
1.0
  6
ByLayer
100
AcDbCircle
 10
166.10414219053379
 20
-116.69999989569099
 30
0.0
 40
5.9999999999999991
100
AcDbArc
 50
270.00000000000074
 51
0.0000000000005598
  0
CIRCLE
  5
6A
100
AcDbEntity
100
AcDbCircle
  8
0
 62
7
420
16777215
370
-3
 48
1.0
  6
ByLayer
 10
-20.715857809466151
 20
-116.6999998956926
 30
0.0
 40
1.2500000000000011
  0
CIRCLE
  5
6B
100
AcDbEntity
100
AcDbCircle
  8
0
 62
7
420
16777215
370
-3
 48
1.0
  6
ByLayer
 10
166.10414219053379
 20
-116.69999989569111
 30
0.0
 40
1.2500000000000011
  0
CIRCLE
  5
6C
100
AcDbEntity
100
AcDbCircle
  8
0
 62
7
420
16777215
370
-3
 48
1.0
  6
ByLayer
 10
-20.715857809467249
 20
-3.699999895692577
 30
0.0
 40
1.2500000000000011
  0
CIRCLE
  5
6D
100
AcDbEntity
100
AcDbCircle
  8
0
 62
7
420
16777215
370
-3
 48
1.0
  6
ByLayer
 10
166.10414219053271
 20
-3.699999895691068
 30
0.0
 40
1.2500000000000011
  0
LINE
  5
6E
100
AcDbEntity
100
AcDbLine
  8
0
 62
7
420
16777215
370
-3
 48
1.0
  6
ByLayer
 10
75.930000000000391
 20
-68.86000010430736
 30
0.0
 11
75.930000000000334
 21
-62.860000104307403
 31
0.0
  0
LINE
  5
6F
100
AcDbEntity
100
AcDbLine
  8
0
 62
7
420
16777215
370
-3
 48
1.0
  6
ByLayer
 10
81.930000000000277
 20
-68.860000104307304
 30
0.0
 11
75.930000000000334
 21
-68.86000010430736
 31
0.0
  0
LINE
  5
70
100
AcDbEntity
100
AcDbLine
  8
0
 62
7
420
16777215
370
-3
 48
1.0
  6
ByLayer
 10
81.930000000000277
 20
-62.860000104307339
 30
0.0
 11
81.930000000000334
 21
-68.860000104307304
 31
0.0
  0
LINE
  5
71
100
AcDbEntity
100
AcDbLine
  8
0
 62
7
420
16777215
370
-3
 48
1.0
  6
ByLayer
 10
75.930000000000277
 20
-62.86000010430741
 30
0.0
 11
81.93000000000022
 21
-62.860000104307353
 31
0.0
  0
LINE
  5
72
100
AcDbEntity
100
AcDbLine
  8
0
 62
7
420
16777215
370
-3
 48
1.0
  6
ByLayer
 10
61.930000000000391
 20
-68.860000104307417
 30
0.0
 11
61.930000000000327
 21
-62.860000104307403
 31
0.0
  0
LINE
  5
73
100
AcDbEntity
100
AcDbLine
  8
0
 62
7
420
16777215
370
-3
 48
1.0
  6
ByLayer
 10
67.930000000000348
 20
-68.860000104307375
 30
0.0
 11
61.930000000000327
 21
-68.860000104307431
 31
0.0
  0
LINE
  5
74
100
AcDbEntity
100
AcDbLine
  8
0
 62
7
420
16777215
370
-3
 48
1.0
  6
ByLayer
 10
67.930000000000348
 20
-62.860000104307339
 30
0.0
 11
67.930000000000405
 21
-68.86000010430736
 31
0.0
  0
LINE
  5
75
100
AcDbEntity
100
AcDbLine
  8
0
 62
7
420
16777215
370
-3
 48
1.0
  6
ByLayer
 10
61.930000000000263
 20
-62.86000010430741
 30
0.0
 11
67.930000000000291
 21
-62.860000104307353
 31
0.0
  0
LINE
  5
76
100
AcDbEntity
100
AcDbLine
  8
0
 62
7
420
16777215
370
-3
 48
1.0
  6
ByLayer
 10
61.930000000000398
 20
-56.860000104307453
 30
0.0
 11
61.930000000000341
 21
-50.860000104307503
 31
0.0
  0
LINE
  5
77
100
AcDbEntity
100
AcDbLine
  8
0
 62
7
420
16777215
370
-3
 48
1.0
  6
ByLayer
 10
67.930000000000263
 20
-56.860000104307403
 30
0.0
 11
61.930000000000319
 21
-56.86000010430746
 31
0.0
  0
LINE
  5
78
100
AcDbEntity
100
AcDbLine
  8
0
 62
7
420
16777215
370
-3
 48
1.0
  6
ByLayer
 10
67.930000000000263
 20
-50.860000104307453
 30
0.0
 11
67.930000000000319
 21
-56.860000104307403
 31
0.0
  0
LINE
  5
79
100
AcDbEntity
100
AcDbLine
  8
0
 62
7
420
16777215
370
-3
 48
1.0
  6
ByLayer
 10
61.930000000000263
 20
-50.860000104307517
 30
0.0
 11
67.930000000000206
 21
-50.86000010430746
 31
0.0
  0
LINE
  5
7A
100
AcDbEntity
100
AcDbLine
  8
0
 62
7
420
16777215
370
-3
 48
1.0
  6
ByLayer
 10
75.930000000000391
 20
-56.860000104307353
 30
0.0
 11
75.930000000000334
 21
-50.860000104307382
 31
0.0
  0
LINE
  5
7B
100
AcDbEntity
100
AcDbLine
  8
0
 62
7
420
16777215
370
-3
 48
1.0
  6
ByLayer
 10
81.930000000000291
 20
-56.860000104307296
 30
0.0
 11
75.930000000000334
 21
-56.860000104307353
 31
0.0
  0
LINE
  5
7C
100
AcDbEntity
100
AcDbLine
  8
0
 62
7
420
16777215
370
-3
 48
1.0
  6
ByLayer
 10
81.930000000000277
 20
-50.860000104307332
 30
0.0
 11
81.930000000000334
 21
-56.860000104307289
 31
0.0
  0
LINE
  5
7D
100
AcDbEntity
100
AcDbLine
  8
0
 62
7
420
16777215
370
-3
 48
1.0
  6
ByLayer
 10
75.930000000000277
 20
-50.860000104307403
 30
0.0
 11
81.930000000000234
 21
-50.860000104307353
 31
0.0
  0
LINE
  5
7E
100
AcDbEntity
100
AcDbLine
  8
0
 62
7
420
16777215
370
-3
 48
1.0
  6
ByLayer
 10
-22.24583602281891
 20
-102.79999989569259
 30
0.0
 11
-19.18587959611386
 21
-102.79999989569259
 31
0.0
  0
LINE
  5
7F
100
AcDbEntity
100
AcDbLine
  8
0
 62
7
420
16777215
370
-3
 48
1.0
  6
ByLayer
 10
-23.775814236171311
 20
-105.4499998956927
 30
0.0
 11
-22.245836022818811
 21
-102.79999989569269
 31
0.0
  0
LINE
  5
80
100
AcDbEntity
100
AcDbLine
  8
0
 62
7
420
16777215
370
-3
 48
1.0
  6
ByLayer
 10
-22.245836022818779
 20
-108.0999998956926
 30
0.0
 11
-23.7758142361713
 21
-105.4499998956926
 31
0.0
  0
LINE
  5
81
100
AcDbEntity
100
AcDbLine
  8
0
 62
7
420
16777215
370
-3
 48
1.0
  6
ByLayer
 10
-19.185879596113871
 20
-108.0999998956926
 30
0.0
 11
-22.245836022818882
 21
-108.0999998956926
 31
0.0
  0
LINE
  5
82
100
AcDbEntity
100
AcDbLine
  8
0
 62
7
420
16777215
370
-3
 48
1.0
  6
ByLayer
 10
-17.655901382761261
 20
-105.4499998956926
 30
0.0
 11
-19.185879596113779
 21
-108.0999998956927
 31
0.0
  0
LINE
  5
83
100
AcDbEntity
100
AcDbLine
  8
0
 62
7
420
16777215
370
-3
 48
1.0
  6
ByLayer
 10
-19.185879596113761
 20
-102.79999989569259
 30
0.0
 11
-17.65590138276124
 21
-105.4499998956925
 31
0.0
  0
LINE
  5
84
100
AcDbEntity
100
AcDbLine
  8
0
 62
7
420
16777215
370
-3
 48
1.0
  6
ByLayer
 10
-22.245836022819031
 20
-89.299999895692594
 30
0.0
 11
-19.185879596114031
 21
-89.299999895692594
 31
0.0
  0
LINE
  5
85
100
AcDbEntity
100
AcDbLine
  8
0
 62
7
420
16777215
370
-3
 48
1.0
  6
ByLayer
 10
-23.775814236171449
 20
-91.94999989569267
 30
0.0
 11
-22.245836022818949
 21
-89.29999989569265
 31
0.0
  0
LINE
  5
86
100
AcDbEntity
100
AcDbLine
  8
0
 62
7
420
16777215
370
-3
 48
1.0
  6
ByLayer
 10
-22.245836022818921
 20
-94.599999895692591
 30
0.0
 11
-23.775814236171449
 21
-91.949999895692571
 31
0.0
  0
LINE
  5
87
100
AcDbEntity
100
AcDbLine
  8
0
 62
7
420
16777215
370
-3
 48
1.0
  6
ByLayer
 10
-19.18587959611401
 20
-94.599999895692619
 30
0.0
 11
-22.24583602281902
 21
-94.599999895692619
 31
0.0
  0
LINE
  5
88
100
AcDbEntity
100
AcDbLine
  8
0
 62
7
420
16777215
370
-3
 48
1.0
  6
ByLayer
 10
-17.655901382761382
 20
-91.949999895692685
 30
0.0
 11
-19.185879596113882
 21
-94.599999895692704
 31
0.0
  0
LINE
  5
89
100
AcDbEntity
100
AcDbLine
  8
0
 62
7
420
16777215
370
-3
 48
1.0
  6
ByLayer
 10
-19.185879596113931
 20
-89.299999895692551
 30
0.0
 11
-17.655901382761389
 21
-91.949999895692585
 31
0.0
  0
LINE
  5
8A
100
AcDbEntity
100
AcDbLine
  8
0
 62
7
420
16777215
370
-3
 48
1.0
  6
ByLayer
 10
-22.245836022819681
 20
-25.799999895693499
 30
0.0
 11
-19.185879596114692
 21
-25.799999895693471
 31
0.0
  0
LINE
  5
8B
100
AcDbEntity
100
AcDbLine
  8
0
 62
7
420
16777215
370
-3
 48
1.0
  6
ByLayer
 10
-23.77581423617206
 20
-28.44999989569353
 30
0.0
 11
-22.245836022819571
 21
-25.799999895693521
 31
0.0
  0
LINE
  5
8C
100
AcDbEntity
100
AcDbLine
  8
0
 62
7
420
16777215
370
-3
 48
1.0
  6
ByLayer
 10
-22.24583602281956
 20
-31.099999895693429
 30
0.0
 11
-23.77581423617211
 21
-28.449999895693431
 31
0.0
  0
LINE
  5
8D
100
AcDbEntity
100
AcDbLine
  8
0
 62
7
420
16777215
370
-3
 48
1.0
  6
ByLayer
 10
-19.185879596114621
 20
-31.099999895693479
 30
0.0
 11
-22.245836022819638
 21
-31.0999998956935
 31
0.0
  0
LINE
  5
8E
100
AcDbEntity
100
AcDbLine
  8
0
 62
7
420
16777215
370
-3
 48
1.0
  6
ByLayer
 10
-17.655901382762021
 20
-28.449999895693491
 30
0.0
 11
-19.185879596114511
 21
-31.0999998956935
 31
0.0
  0
LINE
  5
8F
100
AcDbEntity
100
AcDbLine
  8
0
 62
7
420
16777215
370
-3
 48
1.0
  6
ByLayer
 10
-19.185879596114621
 20
-25.799999895693389
 30
0.0
 11
-17.65590138276206
 21
-28.449999895693399
 31
0.0
  0
LINE
  5
90
100
AcDbEntity
100
AcDbLine
  8
0
 62
7
420
16777215
370
-3
 48
1.0
  6
ByLayer
 10
-22.245836022819809
 20
-12.299999895693499
 30
0.0
 11
-19.185879596114798
 21
-12.299999895693469
 31
0.0
  0
LINE
  5
91
100
AcDbEntity
100
AcDbLine
  8
0
 62
7
420
16777215
370
-3
 48
1.0
  6
ByLayer
 10
-23.775814236172199
 20
-14.949999895693519
 30
0.0
 11
-22.245836022819709
 21
-12.299999895693499
 31
0.0
  0
LINE
  5
92
100
AcDbEntity
100
AcDbLine
  8
0
 62
7
420
16777215
370
-3
 48
1.0
  6
ByLayer
 10
-22.245836022819709
 20
-17.599999895693411
 30
0.0
 11
-23.775814236172259
 21
-14.949999895693409
 31
0.0
  0
LINE
  5
93
100
AcDbEntity
100
AcDbLine
  8
0
 62
7
420
16777215
370
-3
 48
1.0
  6
ByLayer
 10
-19.185879596114759
 20
-17.599999895693479
 30
0.0
 11
-22.24583602281977
 21
-17.5999998956935
 31
0.0
  0
LINE
  5
94
100
AcDbEntity
100
AcDbLine
  8
0
 62
7
420
16777215
370
-3
 48
1.0
  6
ByLayer
 10
-17.655901382762131
 20
-14.94999989569347
 30
0.0
 11
-19.185879596114621
 21
-17.5999998956935
 31
0.0
  0
LINE
  5
95
100
AcDbEntity
100
AcDbLine
  8
0
 62
7
420
16777215
370
-3
 48
1.0
  6
ByLayer
 10
-19.185879596114731
 20
-12.29999989569338
 30
0.0
 11
-17.655901382762188
 21
-14.949999895693381
 31
0.0
  0
LINE
  5
96
100
AcDbEntity
100
AcDbLine
  8
0
 62
7
420
16777215
370
-3
 48
1.0
  6
ByLayer
 10
164.57416397718049
 20
-102.79999989569259
 30
0.0
 11
167.6341204038855
 21
-102.79999989569259
 31
0.0
  0
LINE
  5
97
100
AcDbEntity
100
AcDbLine
  8
0
 62
7
420
16777215
370
-3
 48
1.0
  6
ByLayer
 10
163.0441857638279
 20
-105.4499998956926
 30
0.0
 11
164.57416397718029
 21
-102.79999989569259
 31
0.0
  0
LINE
  5
98
100
AcDbEntity
100
AcDbLine
  8
0
 62
7
420
16777215
370
-3
 48
1.0
  6
ByLayer
 10
164.5741639771804
 20
-108.0999998956927
 30
0.0
 11
163.0441857638279
 21
-105.4499998956927
 31
0.0
  0
LINE
  5
99
100
AcDbEntity
100
AcDbLine
  8
0
 62
7
420
16777215
370
-3
 48
1.0
  6
ByLayer
 10
167.6341204038855
 20
-108.0999998956926
 30
0.0
 11
164.57416397718049
 21
-108.0999998956926
 31
0.0
  0
LINE
  5
9A
100
AcDbEntity
100
AcDbLine
  8
0
 62
7
420
16777215
370
-3
 48
1.0
  6
ByLayer
 10
169.1640986172379
 20
-105.4499998956926
 30
0.0
 11
167.63412040388539
 21
-108.0999998956926
 31
0.0
  0
LINE
  5
9B
100
AcDbEntity
100
AcDbLine
  8
0
 62
7
420
16777215
370
-3
 48
1.0
  6
ByLayer
 10
167.63412040388539
 20
-102.79999989569259
 30
0.0
 11
169.1640986172379
 21
-105.4499998956926
 31
0.0
  0
LINE
  5
9C
100
AcDbEntity
100
AcDbLine
  8
0
 62
7
420
16777215
370
-3
 48
1.0
  6
ByLayer
 10
164.57416397718029
 20
-89.299999895692608
 30
0.0
 11
167.6341204038853
 21
-89.299999895692608
 31
0.0
  0
LINE
  5
9D
100
AcDbEntity
100
AcDbLine
  8
0
 62
7
420
16777215
370
-3
 48
1.0
  6
ByLayer
 10
163.04418576382781
 20
-91.949999895692656
 30
0.0
 11
164.57416397718029
 21
-89.299999895692622
 31
0.0
  0
LINE
  5
9E
100
AcDbEntity
100
AcDbLine
  8
0
 62
7
420
16777215
370
-3
 48
1.0
  6
ByLayer
 10
164.57416397718029
 20
-94.599999895692633
 30
0.0
 11
163.04418576382781
 21
-91.949999895692656
 31
0.0
  0
LINE
  5
9F
100
AcDbEntity
100
AcDbLine
  8
0
 62
7
420
16777215
370
-3
 48
1.0
  6
ByLayer
 10
167.63412040388539
 20
-94.599999895692633
 30
0.0
 11
164.57416397718029
 21
-94.599999895692633
 31
0.0
  0
LINE
  5
A0
100
AcDbEntity
100
AcDbLine
  8
0
 62
7
420
16777215
370
-3
 48
1.0
  6
ByLayer
 10
169.16409861723781
 20
-91.949999895692628
 30
0.0
 11
167.6341204038853
 21
-94.599999895692633
 31
0.0
  0
LINE
  5
A1
100
AcDbEntity
100
AcDbLine
  8
0
 62
7
420
16777215
370
-3
 48
1.0
  6
ByLayer
 10
167.63412040388519
 20
-89.299999895692608
 30
0.0
 11
169.16409861723781
 21
-91.949999895692656
 31
0.0
  0
LINE
  5
A2
100
AcDbEntity
100
AcDbLine
  8
0
 62
7
420
16777215
370
-3
 48
1.0
  6
ByLayer
 10
164.57416397718109
 20
-25.799999895692348
 30
0.0
 11
167.63412040388479
 21
-25.79999989569232
 31
0.0
  0
LINE
  5
A3
100
AcDbEntity
100
AcDbLine
  8
0
 62
7
420
16777215
370
-3
 48
1.0
  6
ByLayer
 10
163.0441857638279
 20
-28.449999895693502
 30
0.0
 11
164.57416397718109
 21
-25.799999895692309
 31
0.0
  0
LINE
  5
A4
100
AcDbEntity
100
AcDbLine
  8
0
 62
7
420
16777215
370
-3
 48
1.0
  6
ByLayer
 10
164.57416397717969
 20
-31.099999895692321
 30
0.0
 11
163.0441857638279
 21
-28.449999895693509
 31
0.0
  0
LINE
  5
A5
100
AcDbEntity
100
AcDbLine
  8
0
 62
7
420
16777215
370
-3
 48
1.0
  6
ByLayer
 10
167.63412040388619
 20
-31.09999989569231
 30
0.0
 11
164.57416397717981
 21
-31.099999895692338
 31
0.0
  0
LINE
  5
A6
100
AcDbEntity
100
AcDbLine
  8
0
 62
7
420
16777215
370
-3
 48
1.0
  6
ByLayer
 10
169.16409861723801
 20
-28.449999895693441
 30
0.0
 11
167.63412040388619
 21
-31.099999895692299
 31
0.0
  0
LINE
  5
A7
100
AcDbEntity
100
AcDbLine
  8
0
 62
7
420
16777215
370
-3
 48
1.0
  6
ByLayer
 10
167.63412040388471
 20
-25.799999895692281
 30
0.0
 11
169.1640986172379
 21
-28.449999895693448
 31
0.0
  0
LINE
  5
A8
100
AcDbEntity
100
AcDbLine
  8
0
 62
7
420
16777215
370
-3
 48
1.0
  6
ByLayer
 10
164.574163977181
 20
-12.29999989569235
 30
0.0
 11
167.63412040388471
 21
-12.29999989569232
 31
0.0
  0
LINE
  5
A9
100
AcDbEntity
100
AcDbLine
  8
0
 62
7
420
16777215
370
-3
 48
1.0
  6
ByLayer
 10
163.04418576382781
 20
-14.94999989569348
 30
0.0
 11
164.57416397718089
 21
-12.2999998956923
 31
0.0
  0
LINE
  5
AA
100
AcDbEntity
100
AcDbLine
  8
0
 62
7
420
16777215
370
-3
 48
1.0
  6
ByLayer
 10
164.57416397717961
 20
-17.59999989569231
 30
0.0
 11
163.0441857638277
 21
-14.949999895693489
 31
0.0
  0
LINE
  5
AB
100
AcDbEntity
100
AcDbLine
  8
0
 62
7
420
16777215
370
-3
 48
1.0
  6
ByLayer
 10
167.6341204038861
 20
-17.599999895692321
 30
0.0
 11
164.57416397717969
 21
-17.599999895692349
 31
0.0
  0
LINE
  5
AC
100
AcDbEntity
100
AcDbLine
  8
0
 62
7
420
16777215
370
-3
 48
1.0
  6
ByLayer
 10
169.16409861723781
 20
-14.949999895693439
 30
0.0
 11
167.63412040388599
 21
-17.599999895692289
 31
0.0
  0
LINE
  5
AD
100
AcDbEntity
100
AcDbLine
  8
0
 62
7
420
16777215
370
-3
 48
1.0
  6
ByLayer
 10
167.63412040388459
 20
-12.299999895692279
 30
0.0
 11
169.16409861723781
 21
-14.949999895693431
 31
0.0
  0
LINE
  5
AE
100
AcDbEntity
100
AcDbLine
  8
0
 62
7
420
16777215
370
-3
 48
1.0
  6
ByLayer
 10
-10.385836022819131
 20
-113.9499998956925
 30
0.0
 11
-7.3258795961141008
 21
-113.9499998956925
 31
0.0
  0
LINE
  5
AF
100
AcDbEntity
100
AcDbLine
  8
0
 62
7
420
16777215
370
-3
 48
1.0
  6
ByLayer
 10
-11.915814236171549
 20
-116.5999998956926
 30
0.0
 11
-10.38583602281907
 21
-113.9499998956926
 31
0.0
  0
LINE
  5
B0
100
AcDbEntity
100
AcDbLine
  8
0
 62
7
420
16777215
370
-3
 48
1.0
  6
ByLayer
 10
-10.385836022819021
 20
-119.2499998956925
 30
0.0
 11
-11.915814236171549
 21
-116.59999989569251
 31
0.0
  0
LINE
  5
B1
100
AcDbEntity
100
AcDbLine
  8
0
 62
7
420
16777215
370
-3
 48
1.0
  6
ByLayer
 10
-7.3258795961141141
 20
-119.2499998956925
 30
0.0
 11
-10.385836022819131
 21
-119.2499998956925
 31
0.0
  0
LINE
  5
B2
100
AcDbEntity
100
AcDbLine
  8
0
 62
7
420
16777215
370
-3
 48
1.0
  6
ByLayer
 10
-5.7959013827614987
 20
-116.5999998956926
 30
0.0
 11
-7.3258795961140022
 21
-119.2499998956926
 31
0.0
  0
LINE
  5
B3
100
AcDbEntity
100
AcDbLine
  8
0
 62
7
420
16777215
370
-3
 48
1.0
  6
ByLayer
 10
-7.3258795961140173
 20
-113.9499998956925
 30
0.0
 11
-5.7959013827614836
 21
-116.59999989569251
 31
0.0
  0
LINE
  5
B4
100
AcDbEntity
100
AcDbLine
  8
0
 62
7
420
16777215
370
-3
 48
1.0
  6
ByLayer
 10
152.88416397718129
 20
-113.9499998956925
 30
0.0
 11
155.94412040388639
 21
-113.9499998956925
 31
0.0
  0
LINE
  5
B5
100
AcDbEntity
100
AcDbLine
  8
0
 62
7
420
16777215
370
-3
 48
1.0
  6
ByLayer
 10
151.35418576382881
 20
-116.59999989569251
 30
0.0
 11
152.88416397718129
 21
-113.9499998956925
 31
0.0
  0
LINE
  5
B6
100
AcDbEntity
100
AcDbLine
  8
0
 62
7
420
16777215
370
-3
 48
1.0
  6
ByLayer
 10
152.88416397718129
 20
-119.2499998956926
 30
0.0
 11
151.35418576382881
 21
-116.59999989569251
 31
0.0
  0
LINE
  5
B7
100
AcDbEntity
100
AcDbLine
  8
0
 62
7
420
16777215
370
-3
 48
1.0
  6
ByLayer
 10
155.94412040388639
 20
-119.2499998956926
 30
0.0
 11
152.88416397718129
 21
-119.2499998956926
 31
0.0
  0
LINE
  5
B8
100
AcDbEntity
100
AcDbLine
  8
0
 62
7
420
16777215
370
-3
 48
1.0
  6
ByLayer
 10
157.47409861723881
 20
-116.59999989569251
 30
0.0
 11
155.9441204038863
 21
-119.2499998956926
 31
0.0
  0
LINE
  5
B9
100
AcDbEntity
100
AcDbLine
  8
0
 62
7
420
16777215
370
-3
 48
1.0
  6
ByLayer
 10
155.9441204038863
 20
-113.9499998956925
 30
0.0
 11
157.47409861723881
 21
-116.59999989569251
 31
0.0
  0
LINE
  5
BA
100
AcDbEntity
100
AcDbLine
  8
0
 62
7
420
16777215
370
-3
 48
1.0
  6
ByLayer
 10
155.9441204038869
 20
-6.4499998956924713
 30
0.0
 11
152.8841639771808
 21
-6.4499998956924989
 31
0.0
  0
LINE
  5
BB
100
AcDbEntity
100
AcDbLine
  8
0
 62
7
420
16777215
370
-3
 48
1.0
  6
ByLayer
 10
157.47409861723881
 20
-3.7999998956933121
 30
0.0
 11
155.9441204038869
 21
-6.4499998956924216
 31
0.0
  0
LINE
  5
BC
100
AcDbEntity
100
AcDbLine
  8
0
 62
7
420
16777215
370
-3
 48
1.0
  6
ByLayer
 10
155.94412040388579
 20
-1.149999895692438
 30
0.0
 11
157.47409861723881
 21
-3.7999998956932912
 31
0.0
  0
LINE
  5
BD
100
AcDbEntity
100
AcDbLine
  8
0
 62
7
420
16777215
370
-3
 48
1.0
  6
ByLayer
 10
152.88416397718191
 20
-1.1499998956924999
 30
0.0
 11
155.94412040388579
 21
-1.149999895692472
 31
0.0
  0
LINE
  5
BE
100
AcDbEntity
100
AcDbLine
  8
0
 62
7
420
16777215
370
-3
 48
1.0
  6
ByLayer
 10
151.35418576382881
 20
-3.799999895693408
 30
0.0
 11
152.8841639771818
 21
-1.149999895692472
 31
0.0
  0
LINE
  5
BF
100
AcDbEntity
100
AcDbLine
  8
0
 62
7
420
16777215
370
-3
 48
1.0
  6
ByLayer
 10
152.88416397718069
 20
-6.4499998956924642
 30
0.0
 11
151.35418576382881
 21
-3.7999998956933951
 31
0.0
  0
LINE
  5
C0
100
AcDbEntity
100
AcDbLine
  8
0
 62
7
420
16777215
370
-3
 48
1.0
  6
ByLayer
 10
-7.3258795961150582
 20
-1.1499998956932611
 30
0.0
 11
-5.7959013827625121
 21
-3.799999895693289
 31
0.0
  0
LINE
  5
C1
100
AcDbEntity
100
AcDbLine
  8
0
 62
7
420
16777215
370
-3
 48
1.0
  6
ByLayer
 10
-10.385836022820129
 20
-1.1499998956934001
 30
0.0
 11
-7.3258795961151133
 21
-1.1499998956933719
 31
0.0
  0
LINE
  5
C2
100
AcDbEntity
100
AcDbLine
  8
0
 62
7
420
16777215
370
-3
 48
1.0
  6
ByLayer
 10
-11.915814236172469
 20
-3.7999998956934409
 30
0.0
 11
-10.38583602281998
 21
-1.149999895693421
 31
0.0
  0
LINE
  5
C3
100
AcDbEntity
100
AcDbLine
  8
0
 62
7
420
16777215
370
-3
 48
1.0
  6
ByLayer
 10
-10.38583602282001
 20
-6.4499998956933293
 30
0.0
 11
-11.91581423617253
 21
-3.7999998956933578
 31
0.0
  0
LINE
  5
C4
100
AcDbEntity
100
AcDbLine
  8
0
 62
7
420
16777215
370
-3
 48
1.0
  6
ByLayer
 10
-7.3258795961150289
 20
-6.449999895693372
 30
0.0
 11
-10.38583602282006
 21
-6.4499998956933986
 31
0.0
  0
LINE
  5
C5
100
AcDbEntity
100
AcDbLine
  8
0
 62
7
420
16777215
370
-3
 48
1.0
  6
ByLayer
 10
-5.7959013827624437
 20
-3.7999998956933791
 30
0.0
 11
-7.3258795961149179
 21
-6.4499998956933782
 31
0.0
  0
LINE
  5
C6
100
AcDbEntity
100
AcDbLine
  8
0
 62
7
420
16777215
370
-3
 48
1.0
  6
ByLayer
 10
-20.715857809466112
 20
-122.6999998956928
 30
0.0
 11
166.10414219053391
 21
-122.69999989569099
 31
0.0
  0
LINE
  5
C7
100
AcDbEntity
100
AcDbLine
  8
0
 62
7
420
16777215
370
-3
 48
1.0
  6
ByLayer
 10
166.10414219053271
 20
2.3000001043090759
 30
0.0
 11
-20.71585780946727
 21
2.300000104307268
 31
0.0
  0
LINE
  5
C8
100
AcDbEntity
100
AcDbLine
  8
0
 62
7
420
16777215
370
-3
 48
1.0
  6
ByLayer
 10
172.10414219053271
 20
-3.6999998956907909
 30
0.0
 11
172.10414219053379
 21
-116.69999989569099
 31
0.0
  0
LINE
  5
C9
100
AcDbEntity
100
AcDbLine
  8
0
 62
7
420
16777215
370
-3
 48
1.0
  6
ByLayer
 10
-26.715857809466161
 20
-116.6999998956929
 30
0.0
 11
-26.715857809467241
 21
-3.6999998956926961
 31
0.0
  0
LINE
  5
CA
100
AcDbEntity
100
AcDbLine
  8
0
 62
7
420
16777215
370
-3
 48
1.0
  6
ByLayer
 10
-9.5801496642827537
 20
-82.697878494858102
 30
0.0
 11
10.12075129866604
 21
-82.697878494857918
 31
0.0
  0
LINE
  5
CB
100
AcDbEntity
100
AcDbLine
  8
0
 62
7
420
16777215
370
-3
 48
1.0
  6
ByLayer
 10
-9.5801496642830593
 20
-36.800301209091486
 30
0.0
 11
-9.5801496642826134
 21
-82.697878494858131
 31
0.0
  0
LINE
  5
CC
100
AcDbEntity
100
AcDbLine
  8
0
 62
7
420
16777215
370
-3
 48
1.0
  6
ByLayer
 10
10.12075129866561
 20
-36.800301209091337
 30
0.0
 11
-9.5801496642831836
 21
-36.800301209091508
 31
0.0
  0
LINE
  5
CD
100
AcDbEntity
100
AcDbLine
  8
0
 62
7
420
16777215
370
-3
 48
1.0
  6
ByLayer
 10
10.120751298666161
 20
-82.697878494857932
 30
0.0
 11
10.120751298665709
 21
-36.800301209091288
 31
0.0
  0
LINE
  5
CE
100
AcDbEntity
100
AcDbLine
  8
0
 62
7
420
16777215
370
-3
 48
1.0
  6
ByLayer
 10
153.5804532754423
 20
-82.69787849485661
 30
0.0
 11
153.5804532754419
 21
-36.800301209089973
 31
0.0
  0
LINE
  5
CF
100
AcDbEntity
100
AcDbLine
  8
0
 62
7
420
16777215
370
-3
 48
1.0
  6
ByLayer
 10
133.87904753565809
 20
-82.697878494856781
 30
0.0
 11
153.5804532754423
 21
-82.697878494856596
 31
0.0
  0
LINE
  5
D0
100
AcDbEntity
100
AcDbLine
  8
0
 62
7
420
16777215
370
-3
 48
1.0
  6
ByLayer
 10
133.87904753565769
 20
-36.800301209090158
 30
0.0
 11
133.87904753565809
 21
-82.697878494856795
 31
0.0
  0
LINE
  5
D1
100
AcDbEntity
100
AcDbLine
  8
0
 62
7
420
16777215
370
-3
 48
1.0
  6
ByLayer
 10
153.5804532754419
 20
-36.800301209090023
 30
0.0
 11
133.87904753565761
 21
-36.800301209090208
 31
0.0
  0
LINE
  5
D2
100
AcDbEntity
100
AcDbLine
  8
0
 62
7
420
16777215
370
-3
 48
1.0
  6
ByLayer
 10
150.57416397718021
 20
-12.29999989569351
 30
0.0
 11
153.6341204038853
 21
-12.299999895693491
 31
0.0
  0
LINE
  5
D3
100
AcDbEntity
100
AcDbLine
  8
0
 62
7
420
16777215
370
-3
 48
1.0
  6
ByLayer
 10
153.63412040388519
 20
-12.29999989569345
 30
0.0
 11
155.16409861723781
 21
-14.94999989569342
 31
0.0
  0
LINE
  5
D4
100
AcDbEntity
100
AcDbLine
  8
0
 62
7
420
16777215
370
-3
 48
1.0
  6
ByLayer
 10
155.16409861723781
 20
-14.949999895693431
 30
0.0
 11
153.6341204038853
 21
-17.59999989569345
 31
0.0
  0
LINE
  5
D5
100
AcDbEntity
100
AcDbLine
  8
0
 62
7
420
16777215
370
-3
 48
1.0
  6
ByLayer
 10
153.6341204038853
 20
-17.599999895693479
 30
0.0
 11
150.57416397718029
 21
-17.599999895693511
 31
0.0
  0
LINE
  5
D6
100
AcDbEntity
100
AcDbLine
  8
0
 62
7
420
16777215
370
-3
 48
1.0
  6
ByLayer
 10
150.57416397718029
 20
-17.599999895693468
 30
0.0
 11
149.0441857638277
 21
-14.94999989569347
 31
0.0
  0
LINE
  5
D7
100
AcDbEntity
100
AcDbLine
  8
0
 62
7
420
16777215
370
-3
 48
1.0
  6
ByLayer
 10
149.04418576382781
 20
-14.94999989569348
 30
0.0
 11
150.57416397718021
 21
-12.299999895693469
 31
0.0
  0
LINE
  5
D8
100
AcDbEntity
100
AcDbLine
  8
0
 62
7
420
16777215
370
-3
 48
1.0
  6
ByLayer
 10
-8.2458360228198107
 20
-12.299999895693499
 30
0.0
 11
-5.1858795961147761
 21
-12.29999989569348
 31
0.0
  0
LINE
  5
D9
100
AcDbEntity
100
AcDbLine
  8
0
 62
7
420
16777215
370
-3
 48
1.0
  6
ByLayer
 10
-5.1858795961147219
 20
-12.299999895693389
 30
0.0
 11
-3.6559013827621758
 21
-14.949999895693381
 31
0.0
  0
LINE
  5
DA
100
AcDbEntity
100
AcDbLine
  8
0
 62
7
420
16777215
370
-3
 48
1.0
  6
ByLayer
 10
-3.6559013827621341
 20
-14.94999989569347
 30
0.0
 11
-5.1858795961146251
 21
-17.59999989569349
 31
0.0
  0
LINE
  5
DB
100
AcDbEntity
100
AcDbLine
  8
0
 62
7
420
16777215
370
-3
 48
1.0
  6
ByLayer
 10
-5.1858795961147219
 20
-17.599999895693479
 30
0.0
 11
-8.2458360228197556
 21
-17.5999998956935
 31
0.0
  0
LINE
  5
DC
100
AcDbEntity
100
AcDbLine
  8
0
 62
7
420
16777215
370
-3
 48
1.0
  6
ByLayer
 10
-8.2458360228197147
 20
-17.599999895693429
 30
0.0
 11
-9.7758142361722449
 21
-14.949999895693439
 31
0.0
  0
LINE
  5
DD
100
AcDbEntity
100
AcDbLine
  8
0
 62
7
420
16777215
370
-3
 48
1.0
  6
ByLayer
 10
-9.7758142361721738
 20
-14.949999895693541
 30
0.0
 11
-8.2458360228196863
 21
-12.299999895693521
 31
0.0
  0
LINE
  5
DE
100
AcDbEntity
100
AcDbLine
  8
0
 62
7
420
16777215
370
-3
 48
1.0
  6
ByLayer
 10
150.5741639771804
 20
-25.79999989569351
 30
0.0
 11
153.63412040388539
 21
-25.799999895693482
 31
0.0
  0
LINE
  5
DF
100
AcDbEntity
100
AcDbLine
  8
0
 62
7
420
16777215
370
-3
 48
1.0
  6
ByLayer
 10
153.63412040388539
 20
-25.79999989569345
 30
0.0
 11
155.1640986172379
 21
-28.449999895693448
 31
0.0
  0
LINE
  5
E0
100
AcDbEntity
100
AcDbLine
  8
0
 62
7
420
16777215
370
-3
 48
1.0
  6
ByLayer
 10
155.1640986172379
 20
-28.449999895693448
 30
0.0
 11
153.63412040388539
 21
-31.099999895693461
 31
0.0
  0
LINE
  5
E1
100
AcDbEntity
100
AcDbLine
  8
0
 62
7
420
16777215
370
-3
 48
1.0
  6
ByLayer
 10
153.63412040388539
 20
-31.099999895693479
 30
0.0
 11
150.5741639771804
 21
-31.0999998956935
 31
0.0
  0
LINE
  5
E2
100
AcDbEntity
100
AcDbLine
  8
0
 62
7
420
16777215
370
-3
 48
1.0
  6
ByLayer
 10
150.5741639771804
 20
-31.099999895693479
 30
0.0
 11
149.0441857638279
 21
-28.449999895693491
 31
0.0
  0
LINE
  5
E3
100
AcDbEntity
100
AcDbLine
  8
0
 62
7
420
16777215
370
-3
 48
1.0
  6
ByLayer
 10
149.0441857638279
 20
-28.449999895693491
 30
0.0
 11
150.5741639771804
 21
-25.799999895693471
 31
0.0
  0
LINE
  5
E4
100
AcDbEntity
100
AcDbLine
  8
0
 62
7
420
16777215
370
-3
 48
1.0
  6
ByLayer
 10
-8.2458360228196863
 20
-25.799999895693499
 30
0.0
 11
-5.1858795961146527
 21
-25.799999895693471
 31
0.0
  0
LINE
  5
E5
100
AcDbEntity
100
AcDbLine
  8
0
 62
7
420
16777215
370
-3
 48
1.0
  6
ByLayer
 10
-5.1858795961145967
 20
-25.799999895693389
 30
0.0
 11
-3.6559013827620652
 21
-28.449999895693381
 31
0.0
  0
LINE
  5
E6
100
AcDbEntity
100
AcDbLine
  8
0
 62
7
420
16777215
370
-3
 48
1.0
  6
ByLayer
 10
-3.6559013827620102
 20
-28.44999989569347
 30
0.0
 11
-5.1858795961144999
 21
-31.099999895693479
 31
0.0
  0
LINE
  5
E7
100
AcDbEntity
100
AcDbLine
  8
0
 62
7
420
16777215
370
-3
 48
1.0
  6
ByLayer
 10
-5.1858795961145967
 20
-31.099999895693479
 30
0.0
 11
-8.2458360228196312
 21
-31.0999998956935
 31
0.0
  0
LINE
  5
E8
100
AcDbEntity
100
AcDbLine
  8
0
 62
7
420
16777215
370
-3
 48
1.0
  6
ByLayer
 10
-8.245836022819562
 20
-31.099999895693411
 30
0.0
 11
-9.7758142361720939
 21
-28.449999895693431
 31
0.0
  0
LINE
  5
E9
100
AcDbEntity
100
AcDbLine
  8
0
 62
7
420
16777215
370
-3
 48
1.0
  6
ByLayer
 10
-9.7758142361720797
 20
-28.449999895693519
 30
0.0
 11
-8.2458360228195886
 21
-25.799999895693499
 31
0.0
  0
LINE
  5
EA
100
AcDbEntity
100
AcDbLine
  8
0
 62
7
420
16777215
370
-3
 48
1.0
  6
ByLayer
 10
105.57416397718031
 20
-89.299999895692594
 30
0.0
 11
108.6341204038853
 21
-89.299999895692594
 31
0.0
  0
LINE
  5
EB
100
AcDbEntity
100
AcDbLine
  8
0
 62
7
420
16777215
370
-3
 48
1.0
  6
ByLayer
 10
108.63412040388521
 20
-89.299999895692594
 30
0.0
 11
110.1640986172378
 21
-91.949999895692613
 31
0.0
  0
LINE
  5
EC
100
AcDbEntity
100
AcDbLine
  8
0
 62
7
420
16777215
370
-3
 48
1.0
  6
ByLayer
 10
110.1640986172378
 20
-91.949999895692642
 30
0.0
 11
108.6341204038853
 21
-94.599999895692648
 31
0.0
  0
LINE
  5
ED
100
AcDbEntity
100
AcDbLine
  8
0
 62
7
420
16777215
370
-3
 48
1.0
  6
ByLayer
 10
108.6341204038854
 20
-94.599999895692619
 30
0.0
 11
105.57416397718031
 21
-94.599999895692619
 31
0.0
  0
LINE
  5
EE
100
AcDbEntity
100
AcDbLine
  8
0
 62
7
420
16777215
370
-3
 48
1.0
  6
ByLayer
 10
105.57416397718021
 20
-94.599999895692619
 30
0.0
 11
104.0441857638277
 21
-91.949999895692613
 31
0.0
  0
LINE
  5
EF
100
AcDbEntity
100
AcDbLine
  8
0
 62
7
420
16777215
370
-3
 48
1.0
  6
ByLayer
 10
104.0441857638277
 20
-91.949999895692656
 30
0.0
 11
105.57416397718021
 21
-89.299999895692622
 31
0.0
  0
LINE
  5
F0
100
AcDbEntity
100
AcDbLine
  8
0
 62
7
420
16777215
370
-3
 48
1.0
  6
ByLayer
 10
120.57416397718031
 20
-89.299999895692594
 30
0.0
 11
123.6341204038853
 21
-89.299999895692594
 31
0.0
  0
LINE
  5
F1
100
AcDbEntity
100
AcDbLine
  8
0
 62
7
420
16777215
370
-3
 48
1.0
  6
ByLayer
 10
123.63412040388521
 20
-89.299999895692594
 30
0.0
 11
125.1640986172378
 21
-91.949999895692642
 31
0.0
  0
LINE
  5
F2
100
AcDbEntity
100
AcDbLine
  8
0
 62
7
420
16777215
370
-3
 48
1.0
  6
ByLayer
 10
125.1640986172378
 20
-91.949999895692656
 30
0.0
 11
123.6341204038853
 21
-94.599999895692662
 31
0.0
  0
LINE
  5
F3
100
AcDbEntity
100
AcDbLine
  8
0
 62
7
420
16777215
370
-3
 48
1.0
  6
ByLayer
 10
123.6341204038854
 20
-94.599999895692619
 30
0.0
 11
120.57416397718031
 21
-94.599999895692619
 31
0.0
  0
LINE
  5
F4
100
AcDbEntity
100
AcDbLine
  8
0
 62
7
420
16777215
370
-3
 48
1.0
  6
ByLayer
 10
120.57416397718021
 20
-94.599999895692619
 30
0.0
 11
119.0441857638277
 21
-91.949999895692613
 31
0.0
  0
LINE
  5
F5
100
AcDbEntity
100
AcDbLine
  8
0
 62
7
420
16777215
370
-3
 48
1.0
  6
ByLayer
 10
119.0441857638277
 20
-91.949999895692642
 30
0.0
 11
120.57416397718021
 21
-89.299999895692608
 31
0.0
  0
LINE
  5
F6
100
AcDbEntity
100
AcDbLine
  8
0
 62
7
420
16777215
370
-3
 48
1.0
  6
ByLayer
 10
135.57416397718029
 20
-89.299999895692608
 30
0.0
 11
138.6341204038853
 21
-89.299999895692608
 31
0.0
  0
LINE
  5
F7
100
AcDbEntity
100
AcDbLine
  8
0
 62
7
420
16777215
370
-3
 48
1.0
  6
ByLayer
 10
138.63412040388519
 20
-89.299999895692608
 30
0.0
 11
140.16409861723781
 21
-91.949999895692656
 31
0.0
  0
LINE
  5
F8
100
AcDbEntity
100
AcDbLine
  8
0
 62
7
420
16777215
370
-3
 48
1.0
  6
ByLayer
 10
140.16409861723781
 20
-91.949999895692656
 30
0.0
 11
138.63412040388519
 21
-94.599999895692633
 31
0.0
  0
LINE
  5
F9
100
AcDbEntity
100
AcDbLine
  8
0
 62
7
420
16777215
370
-3
 48
1.0
  6
ByLayer
 10
138.6341204038853
 20
-94.599999895692633
 30
0.0
 11
135.57416397718029
 21
-94.599999895692633
 31
0.0
  0
LINE
  5
FA
100
AcDbEntity
100
AcDbLine
  8
0
 62
7
420
16777215
370
-3
 48
1.0
  6
ByLayer
 10
135.57416397718021
 20
-94.599999895692633
 30
0.0
 11
134.0441857638277
 21
-91.949999895692628
 31
0.0
  0
LINE
  5
FB
100
AcDbEntity
100
AcDbLine
  8
0
 62
7
420
16777215
370
-3
 48
1.0
  6
ByLayer
 10
134.0441857638277
 20
-91.949999895692656
 30
0.0
 11
135.57416397718021
 21
-89.299999895692622
 31
0.0
  0
LINE
  5
FC
100
AcDbEntity
100
AcDbLine
  8
0
 62
7
420
16777215
370
-3
 48
1.0
  6
ByLayer
 10
150.57416397718021
 20
-89.299999895692608
 30
0.0
 11
153.63412040388519
 21
-89.299999895692608
 31
0.0
  0
LINE
  5
FD
100
AcDbEntity
100
AcDbLine
  8
0
 62
7
420
16777215
370
-3
 48
1.0
  6
ByLayer
 10
153.63412040388519
 20
-89.299999895692608
 30
0.0
 11
155.16409861723781
 21
-91.949999895692656
 31
0.0
  0
LINE
  5
FE
100
AcDbEntity
100
AcDbLine
  8
0
 62
7
420
16777215
370
-3
 48
1.0
  6
ByLayer
 10
155.16409861723781
 20
-91.949999895692642
 30
0.0
 11
153.63412040388519
 21
-94.599999895692633
 31
0.0
  0
LINE
  5
FF
100
AcDbEntity
100
AcDbLine
  8
0
 62
7
420
16777215
370
-3
 48
1.0
  6
ByLayer
 10
153.6341204038853
 20
-94.599999895692633
 30
0.0
 11
150.57416397718021
 21
-94.599999895692633
 31
0.0
  0
LINE
  5
100
100
AcDbEntity
100
AcDbLine
  8
0
 62
7
420
16777215
370
-3
 48
1.0
  6
ByLayer
 10
150.57416397718021
 20
-94.599999895692633
 30
0.0
 11
149.0441857638277
 21
-91.949999895692656
 31
0.0
  0
LINE
  5
101
100
AcDbEntity
100
AcDbLine
  8
0
 62
7
420
16777215
370
-3
 48
1.0
  6
ByLayer
 10
149.04418576382781
 20
-91.949999895692656
 30
0.0
 11
150.57416397718021
 21
-89.299999895692622
 31
0.0
  0
LINE
  5
102
100
AcDbEntity
100
AcDbLine
  8
0
 62
7
420
16777215
370
-3
 48
1.0
  6
ByLayer
 10
-8.2458360228190344
 20
-89.299999895692594
 30
0.0
 11
-5.1858795961139874
 21
-89.299999895692594
 31
0.0
  0
LINE
  5
103
100
AcDbEntity
100
AcDbLine
  8
0
 62
7
420
16777215
370
-3
 48
1.0
  6
ByLayer
 10
-5.1858795961139172
 20
-89.299999895692565
 30
0.0
 11
-3.6559013827614
 21
-91.949999895692585
 31
0.0
  0
LINE
  5
104
100
AcDbEntity
100
AcDbLine
  8
0
 62
7
420
16777215
370
-3
 48
1.0
  6
ByLayer
 10
-3.6559013827613991
 20
-91.94999989569267
 30
0.0
 11
-5.185879596113903
 21
-94.599999895692676
 31
0.0
  0
LINE
  5
105
100
AcDbEntity
100
AcDbLine
  8
0
 62
7
420
16777215
370
-3
 48
1.0
  6
ByLayer
 10
-5.185879596113959
 20
-94.599999895692619
 30
0.0
 11
-8.245836022819006
 21
-94.599999895692619
 31
0.0
  0
LINE
  5
106
100
AcDbEntity
100
AcDbLine
  8
0
 62
7
420
16777215
370
-3
 48
1.0
  6
ByLayer
 10
-8.2458360228189225
 20
-94.599999895692591
 30
0.0
 11
-9.7758142361714402
 21
-91.949999895692585
 31
0.0
  0
LINE
  5
107
100
AcDbEntity
100
AcDbLine
  8
0
 62
7
420
16777215
370
-3
 48
1.0
  6
ByLayer
 10
-9.7758142361714544
 20
-91.949999895692656
 30
0.0
 11
-8.2458360228189651
 21
-89.29999989569265
 31
0.0
  0
LINE
  5
108
100
AcDbEntity
100
AcDbLine
  8
0
 62
7
420
16777215
370
-3
 48
1.0
  6
ByLayer
 10
105.5741639771804
 20
-102.79999989569259
 30
0.0
 11
108.6341204038854
 21
-102.79999989569259
 31
0.0
  0
LINE
  5
109
100
AcDbEntity
100
AcDbLine
  8
0
 62
7
420
16777215
370
-3
 48
1.0
  6
ByLayer
 10
108.6341204038854
 20
-102.79999989569259
 30
0.0
 11
110.1640986172379
 21
-105.4499998956926
 31
0.0
  0
LINE
  5
10A
100
AcDbEntity
100
AcDbLine
  8
0
 62
7
420
16777215
370
-3
 48
1.0
  6
ByLayer
 10
110.1640986172379
 20
-105.4499998956926
 30
0.0
 11
108.6341204038854
 21
-108.0999998956927
 31
0.0
  0
LINE
  5
10B
100
AcDbEntity
100
AcDbLine
  8
0
 62
7
420
16777215
370
-3
 48
1.0
  6
ByLayer
 10
108.6341204038855
 20
-108.0999998956926
 30
0.0
 11
105.5741639771804
 21
-108.0999998956926
 31
0.0
  0
LINE
  5
10C
100
AcDbEntity
100
AcDbLine
  8
0
 62
7
420
16777215
370
-3
 48
1.0
  6
ByLayer
 10
105.5741639771804
 20
-108.0999998956926
 30
0.0
 11
104.0441857638278
 21
-105.4499998956926
 31
0.0
  0
LINE
  5
10D
100
AcDbEntity
100
AcDbLine
  8
0
 62
7
420
16777215
370
-3
 48
1.0
  6
ByLayer
 10
104.0441857638278
 20
-105.4499998956927
 30
0.0
 11
105.57416397718031
 21
-102.79999989569259
 31
0.0
  0
LINE
  5
10E
100
AcDbEntity
100
AcDbLine
  8
0
 62
7
420
16777215
370
-3
 48
1.0
  6
ByLayer
 10
120.5741639771804
 20
-102.79999989569259
 30
0.0
 11
123.6341204038855
 21
-102.79999989569259
 31
0.0
  0
LINE
  5
10F
100
AcDbEntity
100
AcDbLine
  8
0
 62
7
420
16777215
370
-3
 48
1.0
  6
ByLayer
 10
123.6341204038854
 20
-102.79999989569259
 30
0.0
 11
125.1640986172379
 21
-105.4499998956926
 31
0.0
  0
LINE
  5
110
100
AcDbEntity
100
AcDbLine
  8
0
 62
7
420
16777215
370
-3
 48
1.0
  6
ByLayer
 10
125.1640986172379
 20
-105.4499998956926
 30
0.0
 11
123.6341204038854
 21
-108.0999998956927
 31
0.0
  0
LINE
  5
111
100
AcDbEntity
100
AcDbLine
  8
0
 62
7
420
16777215
370
-3
 48
1.0
  6
ByLayer
 10
123.6341204038855
 20
-108.0999998956926
 30
0.0
 11
120.5741639771805
 21
-108.0999998956926
 31
0.0
  0
LINE
  5
112
100
AcDbEntity
100
AcDbLine
  8
0
 62
7
420
16777215
370
-3
 48
1.0
  6
ByLayer
 10
120.5741639771804
 20
-108.0999998956926
 30
0.0
 11
119.0441857638279
 21
-105.4499998956926
 31
0.0
  0
LINE
  5
113
100
AcDbEntity
100
AcDbLine
  8
0
 62
7
420
16777215
370
-3
 48
1.0
  6
ByLayer
 10
119.0441857638278
 20
-105.4499998956926
 30
0.0
 11
120.57416397718031
 21
-102.79999989569259
 31
0.0
  0
LINE
  5
114
100
AcDbEntity
100
AcDbLine
  8
0
 62
7
420
16777215
370
-3
 48
1.0
  6
ByLayer
 10
135.5741639771804
 20
-102.79999989569259
 30
0.0
 11
138.63412040388539
 21
-102.79999989569259
 31
0.0
  0
LINE
  5
115
100
AcDbEntity
100
AcDbLine
  8
0
 62
7
420
16777215
370
-3
 48
1.0
  6
ByLayer
 10
138.63412040388539
 20
-102.79999989569259
 30
0.0
 11
140.1640986172379
 21
-105.4499998956926
 31
0.0
  0
LINE
  5
116
100
AcDbEntity
100
AcDbLine
  8
0
 62
7
420
16777215
370
-3
 48
1.0
  6
ByLayer
 10
140.1640986172379
 20
-105.4499998956926
 30
0.0
 11
138.63412040388539
 21
-108.0999998956927
 31
0.0
  0
LINE
  5
117
100
AcDbEntity
100
AcDbLine
  8
0
 62
7
420
16777215
370
-3
 48
1.0
  6
ByLayer
 10
138.63412040388539
 20
-108.0999998956926
 30
0.0
 11
135.5741639771804
 21
-108.0999998956926
 31
0.0
  0
LINE
  5
118
100
AcDbEntity
100
AcDbLine
  8
0
 62
7
420
16777215
370
-3
 48
1.0
  6
ByLayer
 10
135.5741639771804
 20
-108.0999998956926
 30
0.0
 11
134.04418576382781
 21
-105.4499998956927
 31
0.0
  0
LINE
  5
119
100
AcDbEntity
100
AcDbLine
  8
0
 62
7
420
16777215
370
-3
 48
1.0
  6
ByLayer
 10
134.04418576382781
 20
-105.4499998956927
 30
0.0
 11
135.57416397718029
 21
-102.79999989569269
 31
0.0
  0
LINE
  5
11A
100
AcDbEntity
100
AcDbLine
  8
0
 62
7
420
16777215
370
-3
 48
1.0
  6
ByLayer
 10
150.57416397718029
 20
-102.79999989569259
 30
0.0
 11
153.63412040388539
 21
-102.79999989569259
 31
0.0
  0
LINE
  5
11B
100
AcDbEntity
100
AcDbLine
  8
0
 62
7
420
16777215
370
-3
 48
1.0
  6
ByLayer
 10
153.63412040388539
 20
-102.79999989569259
 30
0.0
 11
155.1640986172379
 21
-105.4499998956926
 31
0.0
  0
LINE
  5
11C
100
AcDbEntity
100
AcDbLine
  8
0
 62
7
420
16777215
370
-3
 48
1.0
  6
ByLayer
 10
155.1640986172379
 20
-105.4499998956926
 30
0.0
 11
153.63412040388539
 21
-108.0999998956926
 31
0.0
  0
LINE
  5
11D
100
AcDbEntity
100
AcDbLine
  8
0
 62
7
420
16777215
370
-3
 48
1.0
  6
ByLayer
 10
153.63412040388539
 20
-108.0999998956926
 30
0.0
 11
150.5741639771804
 21
-108.0999998956926
 31
0.0
  0
LINE
  5
11E
100
AcDbEntity
100
AcDbLine
  8
0
 62
7
420
16777215
370
-3
 48
1.0
  6
ByLayer
 10
150.5741639771804
 20
-108.0999998956927
 30
0.0
 11
149.0441857638279
 21
-105.4499998956926
 31
0.0
  0
LINE
  5
11F
100
AcDbEntity
100
AcDbLine
  8
0
 62
7
420
16777215
370
-3
 48
1.0
  6
ByLayer
 10
149.0441857638279
 20
-105.4499998956926
 30
0.0
 11
150.57416397718029
 21
-102.79999989569259
 31
0.0
  0
LINE
  5
120
100
AcDbEntity
100
AcDbLine
  8
0
 62
7
420
16777215
370
-3
 48
1.0
  6
ByLayer
 10
-8.24583602281891
 20
-102.79999989569259
 30
0.0
 11
-5.1858795961138746
 21
-102.79999989569259
 31
0.0
  0
LINE
  5
121
100
AcDbEntity
100
AcDbLine
  8
0
 62
7
420
16777215
370
-3
 48
1.0
  6
ByLayer
 10
-5.1858795961137778
 20
-102.79999989569259
 30
0.0
 11
-3.6559013827612459
 21
-105.4499998956926
 31
0.0
  0
LINE
  5
122
100
AcDbEntity
100
AcDbLine
  8
0
 62
7
420
16777215
370
-3
 48
1.0
  6
ByLayer
 10
-3.6559013827612601
 20
-105.4499998956926
 30
0.0
 11
-5.1858795961137636
 21
-108.0999998956927
 31
0.0
  0
LINE
  5
123
100
AcDbEntity
100
AcDbLine
  8
0
 62
7
420
16777215
370
-3
 48
1.0
  6
ByLayer
 10
-5.1858795961138338
 20
-108.0999998956926
 30
0.0
 11
-8.2458360228188816
 21
-108.0999998956926
 31
0.0
  0
LINE
  5
124
100
AcDbEntity
100
AcDbLine
  8
0
 62
7
420
16777215
370
-3
 48
1.0
  6
ByLayer
 10
-8.2458360228187821
 20
-108.0999998956926
 30
0.0
 11
-9.7758142361713016
 21
-105.4499998956926
 31
0.0
  0
LINE
  5
125
100
AcDbEntity
100
AcDbLine
  8
0
 62
7
420
16777215
370
-3
 48
1.0
  6
ByLayer
 10
-9.7758142361713016
 20
-105.4499998956927
 30
0.0
 11
-8.2458360228187981
 21
-102.79999989569269
 31
0.0
  0
LINE
  5
126
100
AcDbEntity
100
AcDbLine
  8
0
 62
7
420
16777215
370
-3
 48
1.0
  6
ByLayer
 10
141.94412040388619
 20
-1.1499998956933251
 30
0.0
 11
143.47409861723881
 21
-3.7999998956932828
 31
0.0
  0
LINE
  5
127
100
AcDbEntity
100
AcDbLine
  8
0
 62
7
420
16777215
370
-3
 48
1.0
  6
ByLayer
 10
143.47409861723881
 20
-3.7999998956933112
 30
0.0
 11
141.9441204038863
 21
-6.4499998956933373
 31
0.0
  0
LINE
  5
128
100
AcDbEntity
100
AcDbLine
  8
0
 62
7
420
16777215
370
-3
 48
1.0
  6
ByLayer
 10
141.9441204038863
 20
-6.4499998956933791
 30
0.0
 11
138.88416397718129
 21
-6.4499998956934066
 31
0.0
  0
LINE
  5
129
100
AcDbEntity
100
AcDbLine
  8
0
 62
7
420
16777215
370
-3
 48
1.0
  6
ByLayer
 10
138.88416397718129
 20
-6.4499998956933791
 30
0.0
 11
137.35418576382881
 21
-3.79999989569338
 31
0.0
  0
LINE
  5
12A
100
AcDbEntity
100
AcDbLine
  8
0
 62
7
420
16777215
370
-3
 48
1.0
  6
ByLayer
 10
137.35418576382881
 20
-3.7999998956934009
 30
0.0
 11
138.88416397718129
 21
-1.149999895693381
 31
0.0
  0
LINE
  5
12B
100
AcDbEntity
100
AcDbLine
  8
0
 62
7
420
16777215
370
-3
 48
1.0
  6
ByLayer
 10
138.8841639771812
 20
-1.1499998956934081
 30
0.0
 11
141.94412040388619
 21
-1.149999895693381
 31
0.0
  0
LINE
  5
12C
100
AcDbEntity
100
AcDbLine
  8
0
 62
7
420
16777215
370
-3
 48
1.0
  6
ByLayer
 10
74.224120403885067
 20
-1.1499998956933071
 30
0.0
 11
75.754098617237588
 21
-3.7999998956932859
 31
0.0
  0
LINE
  5
12D
100
AcDbEntity
100
AcDbLine
  8
0
 62
7
420
16777215
370
-3
 48
1.0
  6
ByLayer
 10
75.754098617237645
 20
-3.7999998956933352
 30
0.0
 11
74.224120403885152
 21
-6.449999895693348
 31
0.0
  0
LINE
  5
12E
100
AcDbEntity
100
AcDbLine
  8
0
 62
7
420
16777215
370
-3
 48
1.0
  6
ByLayer
 10
74.224120403885095
 20
-6.4499998956933764
 30
0.0
 11
71.164163977180095
 21
-6.4499998956934039
 31
0.0
  0
LINE
  5
12F
100
AcDbEntity
100
AcDbLine
  8
0
 62
7
420
16777215
370
-3
 48
1.0
  6
ByLayer
 10
71.164163977180095
 20
-6.449999895693348
 30
0.0
 11
69.63418576382756
 21
-3.7999998956933561
 31
0.0
  0
LINE
  5
130
100
AcDbEntity
100
AcDbLine
  8
0
 62
7
420
16777215
370
-3
 48
1.0
  6
ByLayer
 10
69.634185763827617
 20
-3.7999998956934178
 30
0.0
 11
71.16416397718011
 21
-1.149999895693391
 31
0.0
  0
LINE
  5
131
100
AcDbEntity
100
AcDbLine
  8
0
 62
7
420
16777215
370
-3
 48
1.0
  6
ByLayer
 10
71.164163977180039
 20
-1.1499998956934041
 30
0.0
 11
74.224120403885038
 21
-1.149999895693377
 31
0.0
  0
LINE
  5
132
100
AcDbEntity
100
AcDbLine
  8
0
 62
7
420
16777215
370
-3
 48
1.0
  6
ByLayer
 10
6.6741204038849826
 20
-1.14999989569329
 30
0.0
 11
8.2040986172375003
 21
-3.799999895693289
 31
0.0
  0
LINE
  5
133
100
AcDbEntity
100
AcDbLine
  8
0
 62
7
420
16777215
370
-3
 48
1.0
  6
ByLayer
 10
8.2040986172375554
 20
-3.7999998956933729
 30
0.0
 11
6.6741204038850803
 21
-6.449999895693372
 31
0.0
  0
LINE
  5
134
100
AcDbEntity
100
AcDbLine
  8
0
 62
7
420
16777215
370
-3
 48
1.0
  6
ByLayer
 10
6.6741204038849693
 20
-6.449999895693372
 30
0.0
 11
3.6141639771799481
 21
-6.4499998956933986
 31
0.0
  0
LINE
  5
135
100
AcDbEntity
100
AcDbLine
  8
0
 62
7
420
16777215
370
-3
 48
1.0
  6
ByLayer
 10
3.6141639771799889
 20
-6.4499998956933302
 30
0.0
 11
2.084185763827457
 21
-3.799999895693345
 31
0.0
  0
LINE
  5
136
100
AcDbEntity
100
AcDbLine
  8
0
 62
7
420
16777215
370
-3
 48
1.0
  6
ByLayer
 10
2.0841857638275281
 20
-3.7999998956934351
 30
0.0
 11
3.614163977180004
 21
-1.149999895693421
 31
0.0
  0
LINE
  5
137
100
AcDbEntity
100
AcDbLine
  8
0
 62
7
420
16777215
370
-3
 48
1.0
  6
ByLayer
 10
3.614163977179865
 20
-1.149999895693401
 30
0.0
 11
6.6741204038849116
 21
-1.149999895693373
 31
0.0
  0
LINE
  5
138
100
AcDbEntity
100
AcDbLine
  8
0
 62
7
420
16777215
370
-3
 48
1.0
  6
ByLayer
 10
138.88416397718129
 20
-119.2499998956926
 30
0.0
 11
137.35418576382881
 21
-116.59999989569251
 31
0.0
  0
LINE
  5
139
100
AcDbEntity
100
AcDbLine
  8
0
 62
7
420
16777215
370
-3
 48
1.0
  6
ByLayer
 10
137.35418576382881
 20
-116.59999989569251
 30
0.0
 11
138.88416397718129
 21
-113.9499998956925
 31
0.0
  0
LINE
  5
13A
100
AcDbEntity
100
AcDbLine
  8
0
 62
7
420
16777215
370
-3
 48
1.0
  6
ByLayer
 10
138.88416397718129
 20
-113.9499998956925
 30
0.0
 11
141.9441204038863
 21
-113.9499998956925
 31
0.0
  0
LINE
  5
13B
100
AcDbEntity
100
AcDbLine
  8
0
 62
7
420
16777215
370
-3
 48
1.0
  6
ByLayer
 10
141.9441204038863
 20
-113.9499998956925
 30
0.0
 11
143.47409861723881
 21
-116.5999998956926
 31
0.0
  0
LINE
  5
13C
100
AcDbEntity
100
AcDbLine
  8
0
 62
7
420
16777215
370
-3
 48
1.0
  6
ByLayer
 10
143.47409861723881
 20
-116.5999998956926
 30
0.0
 11
141.9441204038863
 21
-119.2499998956926
 31
0.0
  0
LINE
  5
13D
100
AcDbEntity
100
AcDbLine
  8
0
 62
7
420
16777215
370
-3
 48
1.0
  6
ByLayer
 10
141.9441204038863
 20
-119.2499998956926
 30
0.0
 11
138.88416397718129
 21
-119.2499998956926
 31
0.0
  0
LINE
  5
13E
100
AcDbEntity
100
AcDbLine
  8
0
 62
7
420
16777215
370
-3
 48
1.0
  6
ByLayer
 10
71.164163977180124
 20
-119.2499998956925
 30
0.0
 11
69.634185763827588
 21
-116.59999989569251
 31
0.0
  0
LINE
  5
13F
100
AcDbEntity
100
AcDbLine
  8
0
 62
7
420
16777215
370
-3
 48
1.0
  6
ByLayer
 10
69.634185763827588
 20
-116.5999998956926
 30
0.0
 11
71.164163977180095
 21
-113.9499998956925
 31
0.0
  0
LINE
  5
140
100
AcDbEntity
100
AcDbLine
  8
0
 62
7
420
16777215
370
-3
 48
1.0
  6
ByLayer
 10
71.164163977180067
 20
-113.9499998956925
 30
0.0
 11
74.224120403885067
 21
-113.9499998956925
 31
0.0
  0
LINE
  5
141
100
AcDbEntity
100
AcDbLine
  8
0
 62
7
420
16777215
370
-3
 48
1.0
  6
ByLayer
 10
74.224120403885124
 20
-113.9499998956925
 30
0.0
 11
75.754098617237659
 21
-116.59999989569251
 31
0.0
  0
LINE
  5
142
100
AcDbEntity
100
AcDbLine
  8
0
 62
7
420
16777215
370
-3
 48
1.0
  6
ByLayer
 10
75.754098617237645
 20
-116.5999998956926
 30
0.0
 11
74.224120403885124
 21
-119.2499998956926
 31
0.0
  0
LINE
  5
143
100
AcDbEntity
100
AcDbLine
  8
0
 62
7
420
16777215
370
-3
 48
1.0
  6
ByLayer
 10
74.224120403885095
 20
-119.2499998956925
 30
0.0
 11
71.164163977180067
 21
-119.2499998956925
 31
0.0
  0
LINE
  5
144
100
AcDbEntity
100
AcDbLine
  8
0
 62
7
420
16777215
370
-3
 48
1.0
  6
ByLayer
 10
3.6141639771809748
 20
-119.2499998956925
 30
0.0
 11
2.0841857638284571
 21
-116.59999989569251
 31
0.0
  0
LINE
  5
145
100
AcDbEntity
100
AcDbLine
  8
0
 62
7
420
16777215
370
-3
 48
1.0
  6
ByLayer
 10
2.08418576382843
 20
-116.5999998956926
 30
0.0
 11
3.614163977180934
 21
-113.9499998956926
 31
0.0
  0
LINE
  5
146
100
AcDbEntity
100
AcDbLine
  8
0
 62
7
420
16777215
370
-3
 48
1.0
  6
ByLayer
 10
3.614163977180878
 20
-113.9499998956925
 30
0.0
 11
6.6741204038858966
 21
-113.9499998956925
 31
0.0
  0
LINE
  5
147
100
AcDbEntity
100
AcDbLine
  8
0
 62
7
420
16777215
370
-3
 48
1.0
  6
ByLayer
 10
6.6741204038859951
 20
-113.9499998956925
 30
0.0
 11
8.2040986172385146
 21
-116.59999989569251
 31
0.0
  0
LINE
  5
148
100
AcDbEntity
100
AcDbLine
  8
0
 62
7
420
16777215
370
-3
 48
1.0
  6
ByLayer
 10
8.2040986172385004
 20
-116.5999998956926
 30
0.0
 11
6.6741204038859818
 21
-119.2499998956926
 31
0.0
  0
LINE
  5
149
100
AcDbEntity
100
AcDbLine
  8
0
 62
7
420
16777215
370
-3
 48
1.0
  6
ByLayer
 10
6.6741204038858983
 20
-119.2499998956925
 30
0.0
 11
3.6141639771808909
 21
-119.2499998956925
 31
0.0
  0
LINE
  5
14A
100
AcDbEntity
100
AcDbLine
  8
0
 62
7
420
16777215
370
-3
 48
1.0
  6
ByLayer
 10
6.7541639771801867
 20
-12.299999895693491
 30
0.0
 11
9.8141204038852088
 21
-12.29999989569346
 31
0.0
  0
LINE
  5
14B
100
AcDbEntity
100
AcDbLine
  8
0
 62
7
420
16777215
370
-3
 48
1.0
  6
ByLayer
 10
9.8141204038852372
 20
-12.29999989569337
 30
0.0
 11
11.34409861723781
 21
-14.94999989569339
 31
0.0
  0
LINE
  5
14C
100
AcDbEntity
100
AcDbLine
  8
0
 62
7
420
16777215
370
-3
 48
1.0
  6
ByLayer
 10
11.34409861723786
 20
-14.94999989569348
 30
0.0
 11
9.8141204038853918
 21
-17.599999895693479
 31
0.0
  0
LINE
  5
14D
100
AcDbEntity
100
AcDbLine
  8
0
 62
7
420
16777215
370
-3
 48
1.0
  6
ByLayer
 10
9.8141204038852923
 20
-17.599999895693461
 30
0.0
 11
6.7541639771802284
 21
-17.59999989569349
 31
0.0
  0
LINE
  5
14E
100
AcDbEntity
100
AcDbLine
  8
0
 62
7
420
16777215
370
-3
 48
1.0
  6
ByLayer
 10
6.7541639771802844
 20
-17.599999895693411
 30
0.0
 11
5.2241857638277667
 21
-14.949999895693431
 31
0.0
  0
LINE
  5
14F
100
AcDbEntity
100
AcDbLine
  8
0
 62
7
420
16777215
370
-3
 48
1.0
  6
ByLayer
 10
5.2241857638278226
 20
-14.94999989569353
 30
0.0
 11
6.7541639771803119
 21
-12.29999989569351
 31
0.0
  0
LINE
  5
150
100
AcDbEntity
100
AcDbLine
  8
0
 62
7
420
16777215
370
-3
 48
1.0
  6
ByLayer
 10
6.7541639771803261
 20
-25.799999895693489
 30
0.0
 11
9.8141204038853473
 21
-25.79999989569346
 31
0.0
  0
LINE
  5
151
100
AcDbEntity
100
AcDbLine
  8
0
 62
7
420
16777215
370
-3
 48
1.0
  6
ByLayer
 10
9.8141204038854042
 20
-25.799999895693379
 30
0.0
 11
11.344098617237959
 21
-28.449999895693409
 31
0.0
  0
LINE
  5
152
100
AcDbEntity
100
AcDbLine
  8
0
 62
7
420
16777215
370
-3
 48
1.0
  6
ByLayer
 10
11.344098617237981
 20
-28.44999989569347
 30
0.0
 11
9.8141204038855143
 21
-31.099999895693479
 31
0.0
  0
LINE
  5
153
100
AcDbEntity
100
AcDbLine
  8
0
 62
7
420
16777215
370
-3
 48
1.0
  6
ByLayer
 10
9.8141204038854166
 20
-31.099999895693461
 30
0.0
 11
6.7541639771803537
 21
-31.09999989569349
 31
0.0
  0
LINE
  5
154
100
AcDbEntity
100
AcDbLine
  8
0
 62
7
420
16777215
370
-3
 48
1.0
  6
ByLayer
 10
6.7541639771804087
 20
-31.099999895693418
 30
0.0
 11
5.2241857638278777
 21
-28.449999895693441
 31
0.0
  0
LINE
  5
155
100
AcDbEntity
100
AcDbLine
  8
0
 62
7
420
16777215
370
-3
 48
1.0
  6
ByLayer
 10
5.2241857638279336
 20
-28.449999895693519
 30
0.0
 11
6.7541639771804229
 21
-25.799999895693499
 31
0.0
  0
LINE
  5
156
100
AcDbEntity
100
AcDbLine
  8
0
 62
7
420
16777215
370
-3
 48
1.0
  6
ByLayer
 10
24.81412040388539
 20
-31.0999998956935
 30
0.0
 11
21.754163977180401
 21
-31.099999895693529
 31
0.0
  0
LINE
  5
157
100
AcDbEntity
100
AcDbLine
  8
0
 62
7
420
16777215
370
-3
 48
1.0
  6
ByLayer
 10
21.75416397718045
 20
-31.099999895693461
 30
0.0
 11
20.22418576382789
 21
-28.449999895693431
 31
0.0
  0
LINE
  5
158
100
AcDbEntity
100
AcDbLine
  8
0
 62
7
420
16777215
370
-3
 48
1.0
  6
ByLayer
 10
20.224185763827929
 20
-28.449999895693519
 30
0.0
 11
21.754163977180401
 21
-25.799999895693531
 31
0.0
  0
LINE
  5
159
100
AcDbEntity
100
AcDbLine
  8
0
 62
7
420
16777215
370
-3
 48
1.0
  6
ByLayer
 10
21.75416397718033
 20
-25.799999895693531
 30
0.0
 11
24.814120403885362
 21
-25.799999895693499
 31
0.0
  0
LINE
  5
15A
100
AcDbEntity
100
AcDbLine
  8
0
 62
7
420
16777215
370
-3
 48
1.0
  6
ByLayer
 10
24.814120403885418
 20
-25.799999895693428
 30
0.0
 11
26.34409861723794
 21
-28.449999895693381
 31
0.0
  0
LINE
  5
15B
100
AcDbEntity
100
AcDbLine
  8
0
 62
7
420
16777215
370
-3
 48
1.0
  6
ByLayer
 10
26.344098617237989
 20
-28.449999895693459
 30
0.0
 11
24.814120403885489
 21
-31.099999895693511
 31
0.0
  0
LINE
  5
15C
100
AcDbEntity
100
AcDbLine
  8
0
 62
7
420
16777215
370
-3
 48
1.0
  6
ByLayer
 10
24.814120403885269
 20
-17.5999998956935
 30
0.0
 11
21.754163977180301
 21
-17.599999895693529
 31
0.0
  0
LINE
  5
15D
100
AcDbEntity
100
AcDbLine
  8
0
 62
7
420
16777215
370
-3
 48
1.0
  6
ByLayer
 10
21.75416397718033
 20
-17.599999895693479
 30
0.0
 11
20.224185763827752
 21
-14.949999895693431
 31
0.0
  0
LINE
  5
15E
100
AcDbEntity
100
AcDbLine
  8
0
 62
7
420
16777215
370
-3
 48
1.0
  6
ByLayer
 10
20.224185763827801
 20
-14.9499998956935
 30
0.0
 11
21.754163977180269
 21
-12.299999895693521
 31
0.0
  0
LINE
  5
15F
100
AcDbEntity
100
AcDbLine
  8
0
 62
7
420
16777215
370
-3
 48
1.0
  6
ByLayer
 10
21.754163977180198
 20
-12.29999989569353
 30
0.0
 11
24.814120403885219
 21
-12.29999989569351
 31
0.0
  0
LINE
  5
160
100
AcDbEntity
100
AcDbLine
  8
0
 62
7
420
16777215
370
-3
 48
1.0
  6
ByLayer
 10
24.81412040388528
 20
-12.29999989569345
 30
0.0
 11
26.344098617237801
 21
-14.9499998956934
 31
0.0
  0
LINE
  5
161
100
AcDbEntity
100
AcDbLine
  8
0
 62
7
420
16777215
370
-3
 48
1.0
  6
ByLayer
 10
26.344098617237879
 20
-14.94999989569347
 30
0.0
 11
24.814120403885379
 21
-17.599999895693522
 31
0.0
  0
LINE
  5
162
100
AcDbEntity
100
AcDbLine
  8
0
 62
7
420
16777215
370
-3
 48
1.0
  6
ByLayer
 10
75.754098617237588
 20
-14.94999989569347
 30
0.0
 11
74.224120403885109
 21
-17.599999895693461
 31
0.0
  0
LINE
  5
163
100
AcDbEntity
100
AcDbLine
  8
0
 62
7
420
16777215
370
-3
 48
1.0
  6
ByLayer
 10
74.224120403885038
 20
-17.599999895693461
 30
0.0
 11
71.16416397718001
 21
-17.59999989569349
 31
0.0
  0
LINE
  5
164
100
AcDbEntity
100
AcDbLine
  8
0
 62
7
420
16777215
370
-3
 48
1.0
  6
ByLayer
 10
71.164163977180039
 20
-17.599999895693418
 30
0.0
 11
69.634185763827517
 21
-14.949999895693461
 31
0.0
  0
LINE
  5
165
100
AcDbEntity
100
AcDbLine
  8
0
 62
7
420
16777215
370
-3
 48
1.0
  6
ByLayer
 10
69.634185763827546
 20
-14.949999895693511
 30
0.0
 11
71.164163977180039
 21
-12.29999989569348
 31
0.0
  0
LINE
  5
166
100
AcDbEntity
100
AcDbLine
  8
0
 62
7
420
16777215
370
-3
 48
1.0
  6
ByLayer
 10
71.164163977179982
 20
-12.299999895693491
 30
0.0
 11
74.224120403884982
 21
-12.299999895693469
 31
0.0
  0
LINE
  5
167
100
AcDbEntity
100
AcDbLine
  8
0
 62
7
420
16777215
370
-3
 48
1.0
  6
ByLayer
 10
74.224120403884996
 20
-12.299999895693411
 30
0.0
 11
75.754098617237545
 21
-14.94999989569342
 31
0.0
  0
LINE
  5
168
100
AcDbEntity
100
AcDbLine
  8
0
 62
7
420
16777215
370
-3
 48
1.0
  6
ByLayer
 10
41.344098617237869
 20
-14.949999895693461
 30
0.0
 11
39.814120403885383
 21
-17.599999895693479
 31
0.0
  0
LINE
  5
169
100
AcDbEntity
100
AcDbLine
  8
0
 62
7
420
16777215
370
-3
 48
1.0
  6
ByLayer
 10
39.814120403885298
 20
-17.599999895693468
 30
0.0
 11
36.754163977180283
 21
-17.5999998956935
 31
0.0
  0
LINE
  5
16A
100
AcDbEntity
100
AcDbLine
  8
0
 62
7
420
16777215
370
-3
 48
1.0
  6
ByLayer
 10
36.754163977180312
 20
-17.59999989569344
 30
0.0
 11
35.224185763827784
 21
-14.949999895693439
 31
0.0
  0
LINE
  5
16B
100
AcDbEntity
100
AcDbLine
  8
0
 62
7
420
16777215
370
-3
 48
1.0
  6
ByLayer
 10
35.224185763827833
 20
-14.949999895693519
 30
0.0
 11
36.754163977180312
 21
-12.299999895693499
 31
0.0
  0
LINE
  5
16C
100
AcDbEntity
100
AcDbLine
  8
0
 62
7
420
16777215
370
-3
 48
1.0
  6
ByLayer
 10
36.754163977180227
 20
-12.299999895693499
 30
0.0
 11
39.814120403885227
 21
-12.299999895693469
 31
0.0
  0
LINE
  5
16D
100
AcDbEntity
100
AcDbLine
  8
0
 62
7
420
16777215
370
-3
 48
1.0
  6
ByLayer
 10
39.814120403885283
 20
-12.299999895693411
 30
0.0
 11
41.344098617237812
 21
-14.949999895693409
 31
0.0
  0
LINE
  5
16E
100
AcDbEntity
100
AcDbLine
  8
0
 62
7
420
16777215
370
-3
 48
1.0
  6
ByLayer
 10
75.75409861723773
 20
-28.44999989569347
 30
0.0
 11
74.224120403885252
 21
-31.099999895693468
 31
0.0
  0
LINE
  5
16F
100
AcDbEntity
100
AcDbLine
  8
0
 62
7
420
16777215
370
-3
 48
1.0
  6
ByLayer
 10
74.224120403885181
 20
-31.099999895693468
 30
0.0
 11
71.164163977180138
 21
-31.09999989569349
 31
0.0
  0
LINE
  5
170
100
AcDbEntity
100
AcDbLine
  8
0
 62
7
420
16777215
370
-3
 48
1.0
  6
ByLayer
 10
71.164163977180166
 20
-31.09999989569344
 30
0.0
 11
69.634185763827631
 21
-28.449999895693459
 31
0.0
  0
LINE
  5
171
100
AcDbEntity
100
AcDbLine
  8
0
 62
7
420
16777215
370
-3
 48
1.0
  6
ByLayer
 10
69.634185763827688
 20
-28.449999895693509
 30
0.0
 11
71.164163977180166
 21
-25.799999895693489
 31
0.0
  0
LINE
  5
172
100
AcDbEntity
100
AcDbLine
  8
0
 62
7
420
16777215
370
-3
 48
1.0
  6
ByLayer
 10
71.164163977180124
 20
-25.799999895693489
 30
0.0
 11
74.224120403885095
 21
-25.79999989569346
 31
0.0
  0
LINE
  5
173
100
AcDbEntity
100
AcDbLine
  8
0
 62
7
420
16777215
370
-3
 48
1.0
  6
ByLayer
 10
74.224120403885124
 20
-25.799999895693411
 30
0.0
 11
75.754098617237688
 21
-28.449999895693441
 31
0.0
  0
LINE
  5
174
100
AcDbEntity
100
AcDbLine
  8
0
 62
7
420
16777215
370
-3
 48
1.0
  6
ByLayer
 10
41.344098617237989
 20
-28.44999989569347
 30
0.0
 11
39.814120403885511
 21
-31.099999895693479
 31
0.0
  0
LINE
  5
175
100
AcDbEntity
100
AcDbLine
  8
0
 62
7
420
16777215
370
-3
 48
1.0
  6
ByLayer
 10
39.814120403885418
 20
-31.099999895693461
 30
0.0
 11
36.754163977180397
 21
-31.09999989569349
 31
0.0
  0
LINE
  5
176
100
AcDbEntity
100
AcDbLine
  8
0
 62
7
420
16777215
370
-3
 48
1.0
  6
ByLayer
 10
36.754163977180433
 20
-31.09999989569344
 30
0.0
 11
35.224185763827897
 21
-28.449999895693448
 31
0.0
  0
LINE
  5
177
100
AcDbEntity
100
AcDbLine
  8
0
 62
7
420
16777215
370
-3
 48
1.0
  6
ByLayer
 10
35.224185763827947
 20
-28.449999895693519
 30
0.0
 11
36.754163977180447
 21
-25.799999895693499
 31
0.0
  0
LINE
  5
178
100
AcDbEntity
100
AcDbLine
  8
0
 62
7
420
16777215
370
-3
 48
1.0
  6
ByLayer
 10
36.754163977180369
 20
-25.799999895693489
 30
0.0
 11
39.814120403885347
 21
-25.79999989569346
 31
0.0
  0
LINE
  5
179
100
AcDbEntity
100
AcDbLine
  8
0
 62
7
420
16777215
370
-3
 48
1.0
  6
ByLayer
 10
39.814120403885397
 20
-25.7999998956934
 30
0.0
 11
41.344098617237947
 21
-28.449999895693399
 31
0.0
  0
LINE
  5
17A
100
AcDbEntity
100
AcDbLine
  8
0
 62
7
420
16777215
370
-3
 48
1.0
  6
ByLayer
 10
125.1640986172379
 20
-28.44999989569348
 30
0.0
 11
123.6341204038861
 21
-31.09999989569231
 31
0.0
  0
LINE
  5
17B
100
AcDbEntity
100
AcDbLine
  8
0
 62
7
420
16777215
370
-3
 48
1.0
  6
ByLayer
 10
123.6341204038862
 20
-31.09999989569231
 30
0.0
 11
120.57416397717979
 21
-31.099999895692338
 31
0.0
  0
LINE
  5
17C
100
AcDbEntity
100
AcDbLine
  8
0
 62
7
420
16777215
370
-3
 48
1.0
  6
ByLayer
 10
120.57416397717969
 20
-31.09999989569231
 30
0.0
 11
119.0441857638278
 21
-28.44999989569347
 31
0.0
  0
LINE
  5
17D
100
AcDbEntity
100
AcDbLine
  8
0
 62
7
420
16777215
370
-3
 48
1.0
  6
ByLayer
 10
119.0441857638279
 20
-28.449999895693502
 30
0.0
 11
120.574163977181
 21
-25.79999989569232
 31
0.0
  0
LINE
  5
17E
100
AcDbEntity
100
AcDbLine
  8
0
 62
7
420
16777215
370
-3
 48
1.0
  6
ByLayer
 10
120.5741639771811
 20
-25.799999895692341
 30
0.0
 11
123.63412040388479
 21
-25.79999989569232
 31
0.0
  0
LINE
  5
17F
100
AcDbEntity
100
AcDbLine
  8
0
 62
7
420
16777215
370
-3
 48
1.0
  6
ByLayer
 10
123.63412040388469
 20
-25.79999989569227
 30
0.0
 11
125.1640986172379
 21
-28.449999895693448
 31
0.0
  0
LINE
  5
180
100
AcDbEntity
100
AcDbLine
  8
0
 62
7
420
16777215
370
-3
 48
1.0
  6
ByLayer
 10
140.1640986172379
 20
-28.449999895693441
 30
0.0
 11
138.6341204038861
 21
-31.099999895692289
 31
0.0
  0
LINE
  5
181
100
AcDbEntity
100
AcDbLine
  8
0
 62
7
420
16777215
370
-3
 48
1.0
  6
ByLayer
 10
138.63412040388619
 20
-31.09999989569231
 30
0.0
 11
135.57416397717981
 21
-31.099999895692331
 31
0.0
  0
LINE
  5
182
100
AcDbEntity
100
AcDbLine
  8
0
 62
7
420
16777215
370
-3
 48
1.0
  6
ByLayer
 10
135.57416397717969
 20
-31.09999989569231
 30
0.0
 11
134.04418576382781
 21
-28.449999895693491
 31
0.0
  0
LINE
  5
183
100
AcDbEntity
100
AcDbLine
  8
0
 62
7
420
16777215
370
-3
 48
1.0
  6
ByLayer
 10
134.0441857638279
 20
-28.449999895693502
 30
0.0
 11
135.574163977181
 21
-25.79999989569232
 31
0.0
  0
LINE
  5
184
100
AcDbEntity
100
AcDbLine
  8
0
 62
7
420
16777215
370
-3
 48
1.0
  6
ByLayer
 10
135.57416397718109
 20
-25.799999895692341
 30
0.0
 11
138.63412040388479
 21
-25.79999989569232
 31
0.0
  0
LINE
  5
185
100
AcDbEntity
100
AcDbLine
  8
0
 62
7
420
16777215
370
-3
 48
1.0
  6
ByLayer
 10
138.63412040388471
 20
-25.799999895692281
 30
0.0
 11
140.1640986172379
 21
-28.449999895693441
 31
0.0
  0
LINE
  5
186
100
AcDbEntity
100
AcDbLine
  8
0
 62
7
420
16777215
370
-3
 48
1.0
  6
ByLayer
 10
125.1640986172378
 20
-14.94999989569348
 30
0.0
 11
123.634120403886
 21
-17.599999895692299
 31
0.0
  0
LINE
  5
187
100
AcDbEntity
100
AcDbLine
  8
0
 62
7
420
16777215
370
-3
 48
1.0
  6
ByLayer
 10
123.634120403886
 20
-17.59999989569231
 30
0.0
 11
120.57416397717969
 21
-17.599999895692338
 31
0.0
  0
LINE
  5
188
100
AcDbEntity
100
AcDbLine
  8
0
 62
7
420
16777215
370
-3
 48
1.0
  6
ByLayer
 10
120.57416397717959
 20
-17.599999895692299
 30
0.0
 11
119.0441857638277
 21
-14.94999989569348
 31
0.0
  0
LINE
  5
189
100
AcDbEntity
100
AcDbLine
  8
0
 62
7
420
16777215
370
-3
 48
1.0
  6
ByLayer
 10
119.0441857638277
 20
-14.9499998956935
 30
0.0
 11
120.5741639771809
 21
-12.2999998956923
 31
0.0
  0
LINE
  5
18A
100
AcDbEntity
100
AcDbLine
  8
0
 62
7
420
16777215
370
-3
 48
1.0
  6
ByLayer
 10
120.574163977181
 20
-12.29999989569234
 30
0.0
 11
123.63412040388459
 21
-12.299999895692309
 31
0.0
  0
LINE
  5
18B
100
AcDbEntity
100
AcDbLine
  8
0
 62
7
420
16777215
370
-3
 48
1.0
  6
ByLayer
 10
123.63412040388449
 20
-12.29999989569227
 30
0.0
 11
125.1640986172377
 21
-14.94999989569345
 31
0.0
  0
LINE
  5
18C
100
AcDbEntity
100
AcDbLine
  8
0
 62
7
420
16777215
370
-3
 48
1.0
  6
ByLayer
 10
140.16409861723781
 20
-14.94999989569345
 30
0.0
 11
138.63412040388599
 21
-17.599999895692299
 31
0.0
  0
LINE
  5
18D
100
AcDbEntity
100
AcDbLine
  8
0
 62
7
420
16777215
370
-3
 48
1.0
  6
ByLayer
 10
138.63412040388599
 20
-17.599999895692321
 30
0.0
 11
135.57416397717961
 21
-17.599999895692349
 31
0.0
  0
LINE
  5
18E
100
AcDbEntity
100
AcDbLine
  8
0
 62
7
420
16777215
370
-3
 48
1.0
  6
ByLayer
 10
135.57416397717961
 20
-17.599999895692299
 30
0.0
 11
134.0441857638277
 21
-14.949999895693489
 31
0.0
  0
LINE
  5
18F
100
AcDbEntity
100
AcDbLine
  8
0
 62
7
420
16777215
370
-3
 48
1.0
  6
ByLayer
 10
134.04418576382781
 20
-14.9499998956935
 30
0.0
 11
135.57416397718089
 21
-12.29999989569232
 31
0.0
  0
LINE
  5
190
100
AcDbEntity
100
AcDbLine
  8
0
 62
7
420
16777215
370
-3
 48
1.0
  6
ByLayer
 10
135.57416397718089
 20
-12.29999989569234
 30
0.0
 11
138.63412040388459
 21
-12.29999989569232
 31
0.0
  0
LINE
  5
191
100
AcDbEntity
100
AcDbLine
  8
0
 62
7
420
16777215
370
-3
 48
1.0
  6
ByLayer
 10
138.63412040388451
 20
-12.299999895692279
 30
0.0
 11
140.16409861723781
 21
-14.94999989569345
 31
0.0
  0
LINE
  5
192
100
AcDbEntity
100
AcDbLine
  8
0
 62
7
420
16777215
370
-3
 48
1.0
  6
ByLayer
 10
110.1640986172378
 20
-14.949999895693461
 30
0.0
 11
108.634120403886
 21
-17.599999895692239
 31
0.0
  0
LINE
  5
193
100
AcDbEntity
100
AcDbLine
  8
0
 62
7
420
16777215
370
-3
 48
1.0
  6
ByLayer
 10
108.6341204038861
 20
-17.59999989569225
 30
0.0
 11
105.57416397717959
 21
-17.599999895692282
 31
0.0
  0
LINE
  5
194
100
AcDbEntity
100
AcDbLine
  8
0
 62
7
420
16777215
370
-3
 48
1.0
  6
ByLayer
 10
105.5741639771795
 20
-17.599999895692239
 30
0.0
 11
104.0441857638277
 21
-14.94999989569348
 31
0.0
  0
LINE
  5
195
100
AcDbEntity
100
AcDbLine
  8
0
 62
7
420
16777215
370
-3
 48
1.0
  6
ByLayer
 10
104.0441857638278
 20
-14.9499998956935
 30
0.0
 11
105.574163977181
 21
-12.29999989569226
 31
0.0
  0
LINE
  5
196
100
AcDbEntity
100
AcDbLine
  8
0
 62
7
420
16777215
370
-3
 48
1.0
  6
ByLayer
 10
105.574163977181
 20
-12.299999895692279
 30
0.0
 11
108.63412040388459
 21
-12.299999895692251
 31
0.0
  0
LINE
  5
197
100
AcDbEntity
100
AcDbLine
  8
0
 62
7
420
16777215
370
-3
 48
1.0
  6
ByLayer
 10
108.63412040388449
 20
-12.29999989569221
 30
0.0
 11
110.1640986172378
 21
-14.949999895693431
 31
0.0
  0
LINE
  5
198
100
AcDbEntity
100
AcDbLine
  8
0
 62
7
420
16777215
370
-3
 48
1.0
  6
ByLayer
 10
110.1640986172379
 20
-28.449999895693459
 30
0.0
 11
108.6341204038861
 21
-31.09999989569225
 31
0.0
  0
LINE
  5
199
100
AcDbEntity
100
AcDbLine
  8
0
 62
7
420
16777215
370
-3
 48
1.0
  6
ByLayer
 10
108.6341204038862
 20
-31.09999989569226
 30
0.0
 11
105.57416397717979
 21
-31.099999895692289
 31
0.0
  0
LINE
  5
19A
100
AcDbEntity
100
AcDbLine
  8
0
 62
7
420
16777215
370
-3
 48
1.0
  6
ByLayer
 10
105.57416397717969
 20
-31.09999989569225
 30
0.0
 11
104.0441857638278
 21
-28.44999989569347
 31
0.0
  0
LINE
  5
19B
100
AcDbEntity
100
AcDbLine
  8
0
 62
7
420
16777215
370
-3
 48
1.0
  6
ByLayer
 10
104.0441857638279
 20
-28.449999895693491
 30
0.0
 11
105.5741639771811
 21
-25.799999895692249
 31
0.0
  0
LINE
  5
19C
100
AcDbEntity
100
AcDbLine
  8
0
 62
7
420
16777215
370
-3
 48
1.0
  6
ByLayer
 10
105.5741639771811
 20
-25.799999895692281
 30
0.0
 11
108.63412040388469
 21
-25.799999895692249
 31
0.0
  0
LINE
  5
19D
100
AcDbEntity
100
AcDbLine
  8
0
 62
7
420
16777215
370
-3
 48
1.0
  6
ByLayer
 10
108.63412040388469
 20
-25.79999989569221
 30
0.0
 11
110.1640986172379
 21
-28.449999895693431
 31
0.0
  0
LINE
  5
19E
100
AcDbEntity
100
AcDbLine
  8
0
 62
7
420
16777215
370
-3
 48
1.0
  6
ByLayer
 10
9.814120403886168
 20
-108.0999998956926
 30
0.0
 11
6.7541639771811317
 21
-108.0999998956926
 31
0.0
  0
LINE
  5
19F
100
AcDbEntity
100
AcDbLine
  8
0
 62
7
420
16777215
370
-3
 48
1.0
  6
ByLayer
 10
6.7541639771812276
 20
-108.0999998956926
 30
0.0
 11
5.2241857638286824
 21
-105.4499998956926
 31
0.0
  0
LINE
  5
1A0
100
AcDbEntity
100
AcDbLine
  8
0
 62
7
420
16777215
370
-3
 48
1.0
  6
ByLayer
 10
5.2241857638286824
 20
-105.4499998956927
 30
0.0
 11
6.7541639771811859
 21
-102.79999989569269
 31
0.0
  0
LINE
  5
1A1
100
AcDbEntity
100
AcDbLine
  8
0
 62
7
420
16777215
370
-3
 48
1.0
  6
ByLayer
 10
6.7541639771810891
 20
-102.79999989569259
 30
0.0
 11
9.8141204038861396
 21
-102.79999989569259
 31
0.0
  0
LINE
  5
1A2
100
AcDbEntity
100
AcDbLine
  8
0
 62
7
420
16777215
370
-3
 48
1.0
  6
ByLayer
 10
9.8141204038862213
 20
-102.79999989569259
 30
0.0
 11
11.34409861723875
 21
-105.4499998956926
 31
0.0
  0
LINE
  5
1A3
100
AcDbEntity
100
AcDbLine
  8
0
 62
7
420
16777215
370
-3
 48
1.0
  6
ByLayer
 10
11.34409861723873
 20
-105.4499998956926
 30
0.0
 11
9.8141204038862231
 21
-108.0999998956927
 31
0.0
  0
LINE
  5
1A4
100
AcDbEntity
100
AcDbLine
  8
0
 62
7
420
16777215
370
-3
 48
1.0
  6
ByLayer
 10
9.8141204038860419
 20
-94.599999895692619
 30
0.0
 11
6.7541639771809781
 21
-94.599999895692619
 31
0.0
  0
LINE
  5
1A5
100
AcDbEntity
100
AcDbLine
  8
0
 62
7
420
16777215
370
-3
 48
1.0
  6
ByLayer
 10
6.7541639771810624
 20
-94.599999895692591
 30
0.0
 11
5.2241857638285438
 21
-91.949999895692585
 31
0.0
  0
LINE
  5
1A6
100
AcDbEntity
100
AcDbLine
  8
0
 62
7
420
16777215
370
-3
 48
1.0
  6
ByLayer
 10
5.2241857638285438
 20
-91.94999989569267
 30
0.0
 11
6.7541639771810624
 21
-89.29999989569265
 31
0.0
  0
LINE
  5
1A7
100
AcDbEntity
100
AcDbLine
  8
0
 62
7
420
16777215
370
-3
 48
1.0
  6
ByLayer
 10
6.7541639771809781
 20
-89.299999895692594
 30
0.0
 11
9.8141204038859868
 21
-89.299999895692594
 31
0.0
  0
LINE
  5
1A8
100
AcDbEntity
100
AcDbLine
  8
0
 62
7
420
16777215
370
-3
 48
1.0
  6
ByLayer
 10
9.8141204038860703
 20
-89.299999895692565
 30
0.0
 11
11.3440986172386
 21
-91.949999895692585
 31
0.0
  0
LINE
  5
1A9
100
AcDbEntity
100
AcDbLine
  8
0
 62
7
420
16777215
370
-3
 48
1.0
  6
ByLayer
 10
11.344098617238609
 20
-91.94999989569267
 30
0.0
 11
9.8141204038861112
 21
-94.599999895692676
 31
0.0
  0
LINE
  5
1AA
100
AcDbEntity
100
AcDbLine
  8
0
 62
7
420
16777215
370
-3
 48
1.0
  6
ByLayer
 10
24.81412040388604
 20
-55.649089851974793
 30
0.0
 11
21.75416397718103
 21
-55.649089851974793
 31
0.0
  0
LINE
  5
1AB
100
AcDbEntity
100
AcDbLine
  8
0
 62
7
420
16777215
370
-3
 48
1.0
  6
ByLayer
 10
21.754163977181079
 20
-55.649089851974743
 30
0.0
 11
20.224185763828562
 21
-52.999089851974723
 31
0.0
  0
LINE
  5
1AC
100
AcDbEntity
100
AcDbLine
  8
0
 62
7
420
16777215
370
-3
 48
1.0
  6
ByLayer
 10
20.224185763828562
 20
-52.99908985197478
 30
0.0
 11
21.754163977181062
 21
-50.349089851974767
 31
0.0
  0
LINE
  5
1AD
100
AcDbEntity
100
AcDbLine
  8
0
 62
7
420
16777215
370
-3
 48
1.0
  6
ByLayer
 10
21.754163977181001
 20
-50.349089851974753
 30
0.0
 11
24.814120403886012
 21
-50.349089851974753
 31
0.0
  0
LINE
  5
1AE
100
AcDbEntity
100
AcDbLine
  8
0
 62
7
420
16777215
370
-3
 48
1.0
  6
ByLayer
 10
24.814120403886069
 20
-50.349089851974703
 30
0.0
 11
26.3440986172386
 21
-52.99908985197473
 31
0.0
  0
LINE
  5
1AF
100
AcDbEntity
100
AcDbLine
  8
0
 62
7
420
16777215
370
-3
 48
1.0
  6
ByLayer
 10
26.344098617238618
 20
-52.999089851974809
 30
0.0
 11
24.814120403886118
 21
-55.649089851974821
 31
0.0
  0
LINE
  5
1B0
100
AcDbEntity
100
AcDbLine
  8
0
 62
7
420
16777215
370
-3
 48
1.0
  6
ByLayer
 10
24.81412040388604
 20
-94.599999895692619
 30
0.0
 11
21.754163977181001
 21
-94.599999895692619
 31
0.0
  0
LINE
  5
1B1
100
AcDbEntity
100
AcDbLine
  8
0
 62
7
420
16777215
370
-3
 48
1.0
  6
ByLayer
 10
21.75416397718109
 20
-94.599999895692591
 30
0.0
 11
20.224185763828569
 21
-91.949999895692585
 31
0.0
  0
LINE
  5
1B2
100
AcDbEntity
100
AcDbLine
  8
0
 62
7
420
16777215
370
-3
 48
1.0
  6
ByLayer
 10
20.224185763828551
 20
-91.949999895692642
 30
0.0
 11
21.75416397718104
 21
-89.29999989569265
 31
0.0
  0
LINE
  5
1B3
100
AcDbEntity
100
AcDbLine
  8
0
 62
7
420
16777215
370
-3
 48
1.0
  6
ByLayer
 10
21.75416397718099
 20
-89.299999895692594
 30
0.0
 11
24.814120403886012
 21
-89.299999895692594
 31
0.0
  0
LINE
  5
1B4
100
AcDbEntity
100
AcDbLine
  8
0
 62
7
420
16777215
370
-3
 48
1.0
  6
ByLayer
 10
24.814120403886079
 20
-89.299999895692565
 30
0.0
 11
26.344098617238618
 21
-91.949999895692599
 31
0.0
  0
LINE
  5
1B5
100
AcDbEntity
100
AcDbLine
  8
0
 62
7
420
16777215
370
-3
 48
1.0
  6
ByLayer
 10
26.3440986172386
 20
-91.94999989569267
 30
0.0
 11
24.814120403886101
 21
-94.599999895692676
 31
0.0
  0
LINE
  5
1B6
100
AcDbEntity
100
AcDbLine
  8
0
 62
7
420
16777215
370
-3
 48
1.0
  6
ByLayer
 10
24.814120403886161
 20
-69.149089851974793
 30
0.0
 11
21.75416397718114
 21
-69.149089851974793
 31
0.0
  0
LINE
  5
1B7
100
AcDbEntity
100
AcDbLine
  8
0
 62
7
420
16777215
370
-3
 48
1.0
  6
ByLayer
 10
21.754163977181211
 20
-69.14908985197475
 30
0.0
 11
20.224185763828679
 21
-66.499089851974773
 31
0.0
  0
LINE
  5
1B8
100
AcDbEntity
100
AcDbLine
  8
0
 62
7
420
16777215
370
-3
 48
1.0
  6
ByLayer
 10
20.224185763828721
 20
-66.49908985197483
 30
0.0
 11
21.754163977181211
 21
-63.849089851974803
 31
0.0
  0
LINE
  5
1B9
100
AcDbEntity
100
AcDbLine
  8
0
 62
7
420
16777215
370
-3
 48
1.0
  6
ByLayer
 10
21.754163977181129
 20
-63.849089851974767
 30
0.0
 11
24.81412040388615
 21
-63.849089851974767
 31
0.0
  0
LINE
  5
1BA
100
AcDbEntity
100
AcDbLine
  8
0
 62
7
420
16777215
370
-3
 48
1.0
  6
ByLayer
 10
24.814120403886211
 20
-63.849089851974739
 30
0.0
 11
26.344098617238739
 21
-66.49908985197473
 31
0.0
  0
LINE
  5
1BB
100
AcDbEntity
100
AcDbLine
  8
0
 62
7
420
16777215
370
-3
 48
1.0
  6
ByLayer
 10
26.34409861723875
 20
-66.499089851974787
 30
0.0
 11
24.81412040388625
 21
-69.14908985197485
 31
0.0
  0
LINE
  5
1BC
100
AcDbEntity
100
AcDbLine
  8
0
 62
7
420
16777215
370
-3
 48
1.0
  6
ByLayer
 10
24.814120403886161
 20
-108.0999998956926
 30
0.0
 11
21.754163977181129
 21
-108.0999998956926
 31
0.0
  0
LINE
  5
1BD
100
AcDbEntity
100
AcDbLine
  8
0
 62
7
420
16777215
370
-3
 48
1.0
  6
ByLayer
 10
21.754163977181221
 20
-108.0999998956926
 30
0.0
 11
20.2241857638287
 21
-105.4499998956926
 31
0.0
  0
LINE
  5
1BE
100
AcDbEntity
100
AcDbLine
  8
0
 62
7
420
16777215
370
-3
 48
1.0
  6
ByLayer
 10
20.2241857638287
 20
-105.4499998956927
 30
0.0
 11
21.7541639771812
 21
-102.79999989569269
 31
0.0
  0
LINE
  5
1BF
100
AcDbEntity
100
AcDbLine
  8
0
 62
7
420
16777215
370
-3
 48
1.0
  6
ByLayer
 10
21.754163977181129
 20
-102.79999989569259
 30
0.0
 11
24.814120403886161
 21
-102.79999989569259
 31
0.0
  0
LINE
  5
1C0
100
AcDbEntity
100
AcDbLine
  8
0
 62
7
420
16777215
370
-3
 48
1.0
  6
ByLayer
 10
24.814120403886228
 20
-102.79999989569259
 30
0.0
 11
26.34409861723875
 21
-105.4499998956926
 31
0.0
  0
LINE
  5
1C1
100
AcDbEntity
100
AcDbLine
  8
0
 62
7
420
16777215
370
-3
 48
1.0
  6
ByLayer
 10
26.344098617238739
 20
-105.4499998956926
 30
0.0
 11
24.814120403886239
 21
-108.0999998956927
 31
0.0
  0
LINE
  5
1C2
100
AcDbEntity
100
AcDbLine
  8
0
 62
7
420
16777215
370
-3
 48
1.0
  6
ByLayer
 10
41.344098617238743
 20
-66.499089851974759
 30
0.0
 11
39.814120403886228
 21
-69.149089851974821
 31
0.0
  0
LINE
  5
1C3
100
AcDbEntity
100
AcDbLine
  8
0
 62
7
420
16777215
370
-3
 48
1.0
  6
ByLayer
 10
39.814120403886179
 20
-69.149089851974793
 30
0.0
 11
36.754163977181143
 21
-69.149089851974793
 31
0.0
  0
LINE
  5
1C4
100
AcDbEntity
100
AcDbLine
  8
0
 62
7
420
16777215
370
-3
 48
1.0
  6
ByLayer
 10
36.754163977181207
 20
-69.149089851974765
 30
0.0
 11
35.224185763828693
 21
-66.499089851974773
 31
0.0
  0
LINE
  5
1C5
100
AcDbEntity
100
AcDbLine
  8
0
 62
7
420
16777215
370
-3
 48
1.0
  6
ByLayer
 10
35.224185763828693
 20
-66.49908985197483
 30
0.0
 11
36.754163977181193
 21
-63.849089851974803
 31
0.0
  0
LINE
  5
1C6
100
AcDbEntity
100
AcDbLine
  8
0
 62
7
420
16777215
370
-3
 48
1.0
  6
ByLayer
 10
36.754163977181122
 20
-63.849089851974767
 30
0.0
 11
39.814120403886157
 21
-63.849089851974767
 31
0.0
  0
LINE
  5
1C7
100
AcDbEntity
100
AcDbLine
  8
0
 62
7
420
16777215
370
-3
 48
1.0
  6
ByLayer
 10
39.814120403886207
 20
-63.849089851974718
 30
0.0
 11
41.344098617238743
 21
-66.49908985197473
 31
0.0
  0
LINE
  5
1C8
100
AcDbEntity
100
AcDbLine
  8
0
 62
7
420
16777215
370
-3
 48
1.0
  6
ByLayer
 10
41.344098617238728
 20
-105.4499998956926
 30
0.0
 11
39.814120403886207
 21
-108.0999998956927
 31
0.0
  0
LINE
  5
1C9
100
AcDbEntity
100
AcDbLine
  8
0
 62
7
420
16777215
370
-3
 48
1.0
  6
ByLayer
 10
39.814120403886179
 20
-108.0999998956926
 30
0.0
 11
36.754163977181157
 21
-108.0999998956926
 31
0.0
  0
LINE
  5
1CA
100
AcDbEntity
100
AcDbLine
  8
0
 62
7
420
16777215
370
-3
 48
1.0
  6
ByLayer
 10
36.754163977181229
 20
-108.0999998956926
 30
0.0
 11
35.224185763828707
 21
-105.4499998956926
 31
0.0
  0
LINE
  5
1CB
100
AcDbEntity
100
AcDbLine
  8
0
 62
7
420
16777215
370
-3
 48
1.0
  6
ByLayer
 10
35.224185763828693
 20
-105.4499998956927
 30
0.0
 11
36.754163977181193
 21
-102.79999989569269
 31
0.0
  0
LINE
  5
1CC
100
AcDbEntity
100
AcDbLine
  8
0
 62
7
420
16777215
370
-3
 48
1.0
  6
ByLayer
 10
36.754163977181108
 20
-102.79999989569259
 30
0.0
 11
39.814120403886172
 21
-102.79999989569259
 31
0.0
  0
LINE
  5
1CD
100
AcDbEntity
100
AcDbLine
  8
0
 62
7
420
16777215
370
-3
 48
1.0
  6
ByLayer
 10
39.814120403886228
 20
-102.79999989569259
 30
0.0
 11
41.34409861723875
 21
-105.4499998956926
 31
0.0
  0
LINE
  5
1CE
100
AcDbEntity
100
AcDbLine
  8
0
 62
7
420
16777215
370
-3
 48
1.0
  6
ByLayer
 10
41.344098617238629
 20
-52.999089851974809
 30
0.0
 11
39.814120403886143
 21
-55.649089851974807
 31
0.0
  0
LINE
  5
1CF
100
AcDbEntity
100
AcDbLine
  8
0
 62
7
420
16777215
370
-3
 48
1.0
  6
ByLayer
 10
39.814120403886058
 20
-55.649089851974793
 30
0.0
 11
36.754163977181022
 21
-55.649089851974793
 31
0.0
  0
LINE
  5
1D0
100
AcDbEntity
100
AcDbLine
  8
0
 62
7
420
16777215
370
-3
 48
1.0
  6
ByLayer
 10
36.754163977181072
 20
-55.649089851974743
 30
0.0
 11
35.224185763828537
 21
-52.999089851974738
 31
0.0
  0
LINE
  5
1D1
100
AcDbEntity
100
AcDbLine
  8
0
 62
7
420
16777215
370
-3
 48
1.0
  6
ByLayer
 10
35.224185763828572
 20
-52.99908985197478
 30
0.0
 11
36.754163977181072
 21
-50.349089851974767
 31
0.0
  0
LINE
  5
1D2
100
AcDbEntity
100
AcDbLine
  8
0
 62
7
420
16777215
370
-3
 48
1.0
  6
ByLayer
 10
36.754163977181001
 20
-50.34908985197476
 30
0.0
 11
39.814120403886022
 21
-50.34908985197476
 31
0.0
  0
LINE
  5
1D3
100
AcDbEntity
100
AcDbLine
  8
0
 62
7
420
16777215
370
-3
 48
1.0
  6
ByLayer
 10
39.814120403886072
 20
-50.349089851974703
 30
0.0
 11
41.3440986172386
 21
-52.999089851974723
 31
0.0
  0
LINE
  5
1D4
100
AcDbEntity
100
AcDbLine
  8
0
 62
7
420
16777215
370
-3
 48
1.0
  6
ByLayer
 10
41.344098617238608
 20
-91.94999989569267
 30
0.0
 11
39.814120403886108
 21
-94.599999895692676
 31
0.0
  0
LINE
  5
1D5
100
AcDbEntity
100
AcDbLine
  8
0
 62
7
420
16777215
370
-3
 48
1.0
  6
ByLayer
 10
39.814120403886037
 20
-94.599999895692619
 30
0.0
 11
36.754163977181008
 21
-94.599999895692619
 31
0.0
  0
LINE
  5
1D6
100
AcDbEntity
100
AcDbLine
  8
0
 62
7
420
16777215
370
-3
 48
1.0
  6
ByLayer
 10
36.754163977181072
 20
-94.599999895692591
 30
0.0
 11
35.224185763828551
 21
-91.949999895692599
 31
0.0
  0
LINE
  5
1D7
100
AcDbEntity
100
AcDbLine
  8
0
 62
7
420
16777215
370
-3
 48
1.0
  6
ByLayer
 10
35.224185763828551
 20
-91.949999895692656
 30
0.0
 11
36.754163977181058
 21
-89.299999895692622
 31
0.0
  0
LINE
  5
1D8
100
AcDbEntity
100
AcDbLine
  8
0
 62
7
420
16777215
370
-3
 48
1.0
  6
ByLayer
 10
36.754163977180987
 20
-89.299999895692594
 30
0.0
 11
39.814120403886022
 21
-89.299999895692594
 31
0.0
  0
LINE
  5
1D9
100
AcDbEntity
100
AcDbLine
  8
0
 62
7
420
16777215
370
-3
 48
1.0
  6
ByLayer
 10
39.814120403886072
 20
-89.299999895692565
 30
0.0
 11
41.344098617238608
 21
-91.949999895692613
 31
0.0
  0
LINE
  5
1DA
100
AcDbEntity
100
AcDbLine
  8
0
 62
7
420
16777215
370
-3
 48
1.0
  6
ByLayer
 10
120.5741639771804
 20
-69.599999895691028
 30
0.0
 11
119.0441857638279
 21
-66.949999895691022
 31
0.0
  0
LINE
  5
1DB
100
AcDbEntity
100
AcDbLine
  8
0
 62
7
420
16777215
370
-3
 48
1.0
  6
ByLayer
 10
119.0441857638279
 20
-66.94999989569105
 30
0.0
 11
120.57416397718031
 21
-64.299999895691016
 31
0.0
  0
LINE
  5
1DC
100
AcDbEntity
100
AcDbLine
  8
0
 62
7
420
16777215
370
-3
 48
1.0
  6
ByLayer
 10
120.5741639771804
 20
-64.299999895691016
 30
0.0
 11
123.6341204038855
 21
-64.299999895691016
 31
0.0
  0
LINE
  5
1DD
100
AcDbEntity
100
AcDbLine
  8
0
 62
7
420
16777215
370
-3
 48
1.0
  6
ByLayer
 10
123.6341204038854
 20
-64.299999895691002
 30
0.0
 11
125.1640986172379
 21
-66.949999895690979
 31
0.0
  0
LINE
  5
1DE
100
AcDbEntity
100
AcDbLine
  8
0
 62
7
420
16777215
370
-3
 48
1.0
  6
ByLayer
 10
125.1640986172379
 20
-66.949999895691008
 30
0.0
 11
123.6341204038854
 21
-69.59999989569107
 31
0.0
  0
LINE
  5
1DF
100
AcDbEntity
100
AcDbLine
  8
0
 62
7
420
16777215
370
-3
 48
1.0
  6
ByLayer
 10
123.6341204038855
 20
-69.599999895691042
 30
0.0
 11
120.5741639771805
 21
-69.599999895691042
 31
0.0
  0
LINE
  5
1E0
100
AcDbEntity
100
AcDbLine
  8
0
 62
7
420
16777215
370
-3
 48
1.0
  6
ByLayer
 10
105.5741639771804
 20
-69.599999895691028
 30
0.0
 11
104.0441857638278
 21
-66.94999989569105
 31
0.0
  0
LINE
  5
1E1
100
AcDbEntity
100
AcDbLine
  8
0
 62
7
420
16777215
370
-3
 48
1.0
  6
ByLayer
 10
104.0441857638279
 20
-66.949999895691064
 30
0.0
 11
105.5741639771804
 21
-64.29999989569103
 31
0.0
  0
LINE
  5
1E2
100
AcDbEntity
100
AcDbLine
  8
0
 62
7
420
16777215
370
-3
 48
1.0
  6
ByLayer
 10
105.5741639771804
 20
-64.299999895691016
 30
0.0
 11
108.6341204038854
 21
-64.299999895691016
 31
0.0
  0
LINE
  5
1E3
100
AcDbEntity
100
AcDbLine
  8
0
 62
7
420
16777215
370
-3
 48
1.0
  6
ByLayer
 10
108.6341204038854
 20
-64.299999895690988
 30
0.0
 11
110.1640986172379
 21
-66.949999895690993
 31
0.0
  0
LINE
  5
1E4
100
AcDbEntity
100
AcDbLine
  8
0
 62
7
420
16777215
370
-3
 48
1.0
  6
ByLayer
 10
110.1640986172379
 20
-66.949999895691008
 30
0.0
 11
108.6341204038854
 21
-69.599999895691056
 31
0.0
  0
LINE
  5
1E5
100
AcDbEntity
100
AcDbLine
  8
0
 62
7
420
16777215
370
-3
 48
1.0
  6
ByLayer
 10
108.6341204038855
 20
-69.599999895691042
 30
0.0
 11
105.5741639771805
 21
-69.599999895691042
 31
0.0
  0
LINE
  5
1E6
100
AcDbEntity
100
AcDbLine
  8
0
 62
7
420
16777215
370
-3
 48
1.0
  6
ByLayer
 10
120.57416397718021
 20
-56.09999989569102
 30
0.0
 11
119.0441857638277
 21
-53.449999895691008
 31
0.0
  0
LINE
  5
1E7
100
AcDbEntity
100
AcDbLine
  8
0
 62
7
420
16777215
370
-3
 48
1.0
  6
ByLayer
 10
119.0441857638277
 20
-53.449999895691029
 30
0.0
 11
120.57416397718021
 21
-50.799999895691023
 31
0.0
  0
LINE
  5
1E8
100
AcDbEntity
100
AcDbLine
  8
0
 62
7
420
16777215
370
-3
 48
1.0
  6
ByLayer
 10
120.57416397718031
 20
-50.799999895691023
 30
0.0
 11
123.6341204038853
 21
-50.799999895691023
 31
0.0
  0
LINE
  5
1E9
100
AcDbEntity
100
AcDbLine
  8
0
 62
7
420
16777215
370
-3
 48
1.0
  6
ByLayer
 10
123.63412040388521
 20
-50.799999895690988
 30
0.0
 11
125.1640986172378
 21
-53.449999895691029
 31
0.0
  0
LINE
  5
1EA
100
AcDbEntity
100
AcDbLine
  8
0
 62
7
420
16777215
370
-3
 48
1.0
  6
ByLayer
 10
125.1640986172378
 20
-53.449999895691043
 30
0.0
 11
123.6341204038853
 21
-56.099999895691042
 31
0.0
  0
LINE
  5
1EB
100
AcDbEntity
100
AcDbLine
  8
0
 62
7
420
16777215
370
-3
 48
1.0
  6
ByLayer
 10
123.6341204038854
 20
-56.099999895691049
 30
0.0
 11
120.57416397718031
 21
-56.099999895691049
 31
0.0
  0
LINE
  5
1EC
100
AcDbEntity
100
AcDbLine
  8
0
 62
7
420
16777215
370
-3
 48
1.0
  6
ByLayer
 10
105.57416397718021
 20
-56.099999895691028
 30
0.0
 11
104.0441857638277
 21
-53.449999895691008
 31
0.0
  0
LINE
  5
1ED
100
AcDbEntity
100
AcDbLine
  8
0
 62
7
420
16777215
370
-3
 48
1.0
  6
ByLayer
 10
104.0441857638277
 20
-53.44999989569105
 30
0.0
 11
105.57416397718021
 21
-50.799999895691023
 31
0.0
  0
LINE
  5
1EE
100
AcDbEntity
100
AcDbLine
  8
0
 62
7
420
16777215
370
-3
 48
1.0
  6
ByLayer
 10
105.57416397718031
 20
-50.799999895691023
 30
0.0
 11
108.6341204038853
 21
-50.799999895691023
 31
0.0
  0
LINE
  5
1EF
100
AcDbEntity
100
AcDbLine
  8
0
 62
7
420
16777215
370
-3
 48
1.0
  6
ByLayer
 10
108.63412040388521
 20
-50.799999895690988
 30
0.0
 11
110.1640986172378
 21
-53.449999895691029
 31
0.0
  0
LINE
  5
1F0
100
AcDbEntity
100
AcDbLine
  8
0
 62
7
420
16777215
370
-3
 48
1.0
  6
ByLayer
 10
110.1640986172378
 20
-53.44999989569105
 30
0.0
 11
108.6341204038853
 21
-56.099999895691042
 31
0.0
  0
LINE
  5
1F1
100
AcDbEntity
100
AcDbLine
  8
0
 62
7
420
16777215
370
-3
 48
1.0
  6
ByLayer
 10
108.6341204038854
 20
-56.099999895691049
 30
0.0
 11
105.57416397718031
 21
-56.099999895691049
 31
0.0
  0
LINE
  5
1F2
100
AcDbEntity
100
AcDbLine
  8
0
 62
7
420
16777215
370
-3
 48
1.0
  6
ByLayer
 10
75.754098617237588
 20
-91.94999989569267
 30
0.0
 11
74.224120403885081
 21
-94.599999895692662
 31
0.0
  0
LINE
  5
1F3
100
AcDbEntity
100
AcDbLine
  8
0
 62
7
420
16777215
370
-3
 48
1.0
  6
ByLayer
 10
74.224120403885053
 20
-94.599999895692619
 30
0.0
 11
71.164163977180024
 21
-94.599999895692619
 31
0.0
  0
LINE
  5
1F4
100
AcDbEntity
100
AcDbLine
  8
0
 62
7
420
16777215
370
-3
 48
1.0
  6
ByLayer
 10
71.164163977180053
 20
-94.599999895692619
 30
0.0
 11
69.634185763827531
 21
-91.949999895692613
 31
0.0
  0
LINE
  5
1F5
100
AcDbEntity
100
AcDbLine
  8
0
 62
7
420
16777215
370
-3
 48
1.0
  6
ByLayer
 10
69.634185763827531
 20
-91.94999989569267
 30
0.0
 11
71.164163977180053
 21
-89.299999895692622
 31
0.0
  0
LINE
  5
1F6
100
AcDbEntity
100
AcDbLine
  8
0
 62
7
420
16777215
370
-3
 48
1.0
  6
ByLayer
 10
71.164163977180024
 20
-89.299999895692594
 30
0.0
 11
74.224120403885024
 21
-89.299999895692594
 31
0.0
  0
LINE
  5
1F7
100
AcDbEntity
100
AcDbLine
  8
0
 62
7
420
16777215
370
-3
 48
1.0
  6
ByLayer
 10
74.224120403885053
 20
-89.299999895692565
 30
0.0
 11
75.754098617237588
 21
-91.949999895692613
 31
0.0
  0
LINE
  5
1F8
100
AcDbEntity
100
AcDbLine
  8
0
 62
7
420
16777215
370
-3
 48
1.0
  6
ByLayer
 10
75.754098617237702
 20
-105.4499998956926
 30
0.0
 11
74.224120403885209
 21
-108.0999998956927
 31
0.0
  0
LINE
  5
1F9
100
AcDbEntity
100
AcDbLine
  8
0
 62
7
420
16777215
370
-3
 48
1.0
  6
ByLayer
 10
74.224120403885181
 20
-108.0999998956926
 30
0.0
 11
71.164163977180152
 21
-108.0999998956926
 31
0.0
  0
LINE
  5
1FA
100
AcDbEntity
100
AcDbLine
  8
0
 62
7
420
16777215
370
-3
 48
1.0
  6
ByLayer
 10
71.164163977180195
 20
-108.0999998956926
 30
0.0
 11
69.634185763827674
 21
-105.4499998956926
 31
0.0
  0
LINE
  5
1FB
100
AcDbEntity
100
AcDbLine
  8
0
 62
7
420
16777215
370
-3
 48
1.0
  6
ByLayer
 10
69.634185763827674
 20
-105.4499998956927
 30
0.0
 11
71.164163977180152
 21
-102.79999989569259
 31
0.0
  0
LINE
  5
1FC
100
AcDbEntity
100
AcDbLine
  8
0
 62
7
420
16777215
370
-3
 48
1.0
  6
ByLayer
 10
71.164163977180138
 20
-102.79999989569259
 30
0.0
 11
74.224120403885166
 21
-102.79999989569259
 31
0.0
  0
LINE
  5
1FD
100
AcDbEntity
100
AcDbLine
  8
0
 62
7
420
16777215
370
-3
 48
1.0
  6
ByLayer
 10
74.224120403885195
 20
-102.79999989569259
 30
0.0
 11
75.75409861723773
 21
-105.4499998956926
 31
0.0
  0
ENDSEC
  0
SECTION
  2
OBJECTS
  0
DICTIONARY
  5
C
100
AcDbDictionary
280
0
281
1
  3
ACAD_GROUP
350
D
  3
ACAD_LAYOUT
350
1A
  3
ACAD_MLINESTYLE
350
17
  3
ACAD_PLOTSETTINGS
350
19
  3
ACAD_PLOTSTYLENAME
350
E
  3
AcDbVariableDictionary
350
1FE
  3
QCAD_OBJECTS
350
1FF
  0
DICTIONARY
  5
D
100
AcDbDictionary
280
0
281
1
  0
ACDBDICTIONARYWDFLT
  5
E
100
AcDbDictionary
281
1
  3
Normal
350
F
100
AcDbDictionaryWithDefault
340
F
  0
ACDBPLACEHOLDER
  5
F
  0
DICTIONARY
  5
17
100
AcDbDictionary
280
0
281
1
  3
Standard
350
18
  0
MLINESTYLE
  5
18
100
AcDbMlineStyle
  2
STANDARD
 70
0
  3

 62
256
 51
90.0
 52
90.0
 71
2
 49
0.5
 62
256
  6
BYLAYER
 49
-0.5
 62
256
  6
BYLAYER
  0
DICTIONARY
  5
19
100
AcDbDictionary
280
0
281
1
  0
DICTIONARY
  5
1A
100
AcDbDictionary
281
1
  3
Layout1
350
1E
  3
Layout2
350
26
  3
Model
350
22
  0
LAYOUT
  5
1E
100
AcDbPlotSettings
  1

  2
none_device
  4

  6

 40
0.0
 41
0.0
 42
0.0
 43
0.0
 44
0.0
 45
0.0
 46
0.0
 47
0.0
 48
0.0
 49
0.0
140
0.0
141
0.0
142
1.0
143
1.0
 70
688
 72
0
 73
0
 74
5
  7

 75
16
147
1.0
148
0.0
149
0.0
100
AcDbLayout
  1
Layout1
 70
1
 71
1
 10
0.0
 20
0.0
 11
420.0
 21
297.0
 12
0.0
 22
0.0
 32
0.0
 14
100000000000000000000.0
 24
100000000000000000000.0
 34
100000000000000000000.0
 15
-100000000000000000000.0
 25
-100000000000000000000.0
 35
-100000000000000000000.0
146
0.0
 13
0.0
 23
0.0
 33
0.0
 16
1.0
 26
0.0
 36
0.0
 17
0.0
 27
1.0
 37
0.0
 76
0
330
1B
  0
LAYOUT
  5
22
100
AcDbPlotSettings
  1

  2
none_device
  4

  6

 40
0.0
 41
0.0
 42
0.0
 43
0.0
 44
0.0
 45
0.0
 46
0.0
 47
0.0
 48
0.0
 49
0.0
140
0.0
141
0.0
142
1.0
143
1.0
 70
1712
 72
0
 73
0
 74
0
  7

 75
0
147
1.0
148
0.0
149
0.0
100
AcDbLayout
  1
Model
 70
1
 71
0
 10
0.0
 20
0.0
 11
12.0
 21
9.0
 12
0.0
 22
0.0
 32
0.0
 14
0.0
 24
0.0
 34
0.0
 15
0.0
 25
0.0
 35
0.0
146
0.0
 13
0.0
 23
0.0
 33
0.0
 16
1.0
 26
0.0
 36
0.0
 17
0.0
 27
1.0
 37
0.0
 76
0
330
1F
  0
LAYOUT
  5
26
100
AcDbPlotSettings
  1

  2
none_device
  4

  6

 40
0.0
 41
0.0
 42
0.0
 43
0.0
 44
0.0
 45
0.0
 46
0.0
 47
0.0
 48
0.0
 49
0.0
140
0.0
141
0.0
142
1.0
143
1.0
 70
688
 72
0
 73
0
 74
5
  7

 75
16
147
1.0
148
0.0
149
0.0
100
AcDbLayout
  1
Layout2
 70
1
 71
2
 10
0.0
 20
0.0
 11
12.0
 21
9.0
 12
0.0
 22
0.0
 32
0.0
 14
0.0
 24
0.0
 34
0.0
 15
0.0
 25
0.0
 35
0.0
146
0.0
 13
0.0
 23
0.0
 33
0.0
 16
1.0
 26
0.0
 36
0.0
 17
0.0
 27
1.0
 37
0.0
 76
0
330
23
  0
DICTIONARY
  5
1FE
100
AcDbDictionary
281
1
  3
DIMASSOC
350
201
  3
HIDETEXT
350
200
  0
DICTIONARYVAR
  5
200
100
DictionaryVariables
280
0
  1
2
  0
DICTIONARYVAR
  5
201
100
DictionaryVariables
280
0
  1
1
  0
DICTIONARY
  5
1FF
100
AcDbDictionary
281
1
  3
ColorSettings/BackgroundColor
350
202
  3
ColorSettings/ColorMode
350
203
  3
Grid/DisplayGrid00
350
204
  3
Grid/DisplayGrid01
350
205
  3
Grid/DisplayGrid02
350
206
  3
Grid/DisplayGrid03
350
207
  3
Grid/GridSpacingX00
350
208
  3
Grid/GridSpacingX01
350
209
  3
Grid/GridSpacingX02
350
20A
  3
Grid/GridSpacingX03
350
20B
  3
Grid/GridSpacingY00
350
20C
  3
Grid/GridSpacingY01
350
20D
  3
Grid/GridSpacingY02
350
20E
  3
Grid/GridSpacingY03
350
20F
  3
Grid/IsometricGrid00
350
210
  3
Grid/IsometricGrid01
350
211
  3
Grid/IsometricGrid02
350
212
  3
Grid/IsometricGrid03
350
213
  3
Grid/IsometricProjection00
350
214
  3
Grid/IsometricProjection01
350
215
  3
Grid/IsometricProjection02
350
216
  3
Grid/IsometricProjection03
350
217
  3
Grid/MetaGridSpacingX00
350
218
  3
Grid/MetaGridSpacingX01
350
219
  3
Grid/MetaGridSpacingX02
350
21A
  3
Grid/MetaGridSpacingX03
350
21B
  3
Grid/MetaGridSpacingY00
350
21C
  3
Grid/MetaGridSpacingY01
350
21D
  3
Grid/MetaGridSpacingY02
350
21E
  3
Grid/MetaGridSpacingY03
350
21F
  3
MultiPageSettings/Columns
350
220
  3
MultiPageSettings/GlueMarginsBottom
350
221
  3
MultiPageSettings/GlueMarginsLeft
350
222
  3
MultiPageSettings/GlueMarginsRight
350
223
  3
MultiPageSettings/GlueMarginsTop
350
224
  3
MultiPageSettings/PrintCropMarks
350
225
  3
MultiPageSettings/Rows
350
226
  3
PageSettings/OffsetX
350
227
  3
PageSettings/OffsetY
350
228
  3
PageSettings/PageOrientation
350
229
  3
PageSettings/PaperHeight
350
22A
  3
PageSettings/PaperWidth
350
22B
  3
PageSettings/Scale
350
22C
  3
PageSettings/ShowPaperBorders
350
22D
  3
UnitSettings/PaperUnit
350
22E
  3
ViewportCenter
350
22F
  3
ViewportHeight
350
230
  3
ViewportWidth
350
231
  0
XRECORD
  5
202
330
1FF
100
AcDbXrecord
280
1
1000
Bia\U+0142y
  0
XRECORD
  5
203
330
1FF
100
AcDbXrecord
280
1
1000
FullColor
  0
XRECORD
  5
204
330
1FF
100
AcDbXrecord
280
1
290
1
  0
XRECORD
  5
205
330
1FF
100
AcDbXrecord
280
1
290
1
  0
XRECORD
  5
206
330
1FF
100
AcDbXrecord
280
1
290
1
  0
XRECORD
  5
207
330
1FF
100
AcDbXrecord
280
1
290
1
  0
XRECORD
  5
208
330
1FF
100
AcDbXrecord
280
1
1000
auto
  0
XRECORD
  5
209
330
1FF
100
AcDbXrecord
280
1
1000
auto
  0
XRECORD
  5
20A
330
1FF
100
AcDbXrecord
280
1
1000
auto
  0
XRECORD
  5
20B
330
1FF
100
AcDbXrecord
280
1
1000
auto
  0
XRECORD
  5
20C
330
1FF
100
AcDbXrecord
280
1
1000
auto
  0
XRECORD
  5
20D
330
1FF
100
AcDbXrecord
280
1
1000
auto
  0
XRECORD
  5
20E
330
1FF
100
AcDbXrecord
280
1
1000
auto
  0
XRECORD
  5
20F
330
1FF
100
AcDbXrecord
280
1
1000
auto
  0
XRECORD
  5
210
330
1FF
100
AcDbXrecord
280
1
290
0
  0
XRECORD
  5
211
330
1FF
100
AcDbXrecord
280
1
290
0
  0
XRECORD
  5
212
330
1FF
100
AcDbXrecord
280
1
290
0
  0
XRECORD
  5
213
330
1FF
100
AcDbXrecord
280
1
290
0
  0
XRECORD
  5
214
330
1FF
100
AcDbXrecord
280
1
 90
0
  0
XRECORD
  5
215
330
1FF
100
AcDbXrecord
280
1
 90
0
  0
XRECORD
  5
216
330
1FF
100
AcDbXrecord
280
1
 90
0
  0
XRECORD
  5
217
330
1FF
100
AcDbXrecord
280
1
 90
0
  0
XRECORD
  5
218
330
1FF
100
AcDbXrecord
280
1
1000
auto
  0
XRECORD
  5
219
330
1FF
100
AcDbXrecord
280
1
1000
auto
  0
XRECORD
  5
21A
330
1FF
100
AcDbXrecord
280
1
1000
auto
  0
XRECORD
  5
21B
330
1FF
100
AcDbXrecord
280
1
1000
auto
  0
XRECORD
  5
21C
330
1FF
100
AcDbXrecord
280
1
1000
auto
  0
XRECORD
  5
21D
330
1FF
100
AcDbXrecord
280
1
1000
auto
  0
XRECORD
  5
21E
330
1FF
100
AcDbXrecord
280
1
1000
auto
  0
XRECORD
  5
21F
330
1FF
100
AcDbXrecord
280
1
1000
auto
  0
XRECORD
  5
220
330
1FF
100
AcDbXrecord
280
1
 90
1
  0
XRECORD
  5
221
330
1FF
100
AcDbXrecord
280
1
 40
10.0
  0
XRECORD
  5
222
330
1FF
100
AcDbXrecord
280
1
 40
10.0
  0
XRECORD
  5
223
330
1FF
100
AcDbXrecord
280
1
 40
10.0
  0
XRECORD
  5
224
330
1FF
100
AcDbXrecord
280
1
 40
10.0
  0
XRECORD
  5
225
330
1FF
100
AcDbXrecord
280
1
290
0
  0
XRECORD
  5
226
330
1FF
100
AcDbXrecord
280
1
 90
1
  0
XRECORD
  5
227
330
1FF
100
AcDbXrecord
280
1
 40
0.0
  0
XRECORD
  5
228
330
1FF
100
AcDbXrecord
280
1
 40
0.0
  0
XRECORD
  5
229
330
1FF
100
AcDbXrecord
280
1
1000
Portrait
  0
XRECORD
  5
22A
330
1FF
100
AcDbXrecord
280
1
 40
297.0
  0
XRECORD
  5
22B
330
1FF
100
AcDbXrecord
280
1
 40
210.0
  0
XRECORD
  5
22C
330
1FF
100
AcDbXrecord
280
1
1000
1:1
  0
XRECORD
  5
22D
330
1FF
100
AcDbXrecord
280
1
290
1
  0
XRECORD
  5
22E
330
1FF
100
AcDbXrecord
280
1
 90
4
  0
XRECORD
  5
230
330
1FF
100
AcDbXrecord
280
1
 40
134.00576368876281
  0
XRECORD
  5
231
330
1FF
100
AcDbXrecord
280
1
 40
259.72622478386558
  0
ENDSEC
  0
EOF
