solid ASCII
  facet normal 7.071068e-01 0.000000e+00 -7.071068e-01
    outer loop
      vertex   6.400000e+00 -6.175000e+00 0.000000e+00
      vertex   6.800000e+00 -5.975000e+00 4.000000e-01
      vertex   6.400000e+00 -8.100000e+00 0.000000e+00
    endloop
  endfacet
  facet normal 7.071068e-01 0.000000e+00 -7.071068e-01
    outer loop
      vertex   6.400000e+00 -8.100000e+00 0.000000e+00
      vertex   6.800000e+00 -5.975000e+00 4.000000e-01
      vertex   6.800000e+00 -8.500000e+00 4.000000e-01
    endloop
  endfacet
  facet normal 4.242641e-01 5.656854e-01 -7.071068e-01
    outer loop
      vertex   2.500000e+00 -3.250000e+00 0.000000e+00
      vertex   2.900000e+00 -3.050000e+00 4.000000e-01
      vertex   6.400000e+00 -6.175000e+00 0.000000e+00
    endloop
  endfacet
  facet normal 4.242641e-01 5.656854e-01 -7.071068e-01
    outer loop
      vertex   6.400000e+00 -6.175000e+00 0.000000e+00
      vertex   2.900000e+00 -3.050000e+00 4.000000e-01
      vertex   6.800000e+00 -5.975000e+00 4.000000e-01
    endloop
  endfacet
  facet normal 7.071068e-01 0.000000e+00 -7.071068e-01
    outer loop
      vertex   2.500000e+00 3.250000e+00 0.000000e+00
      vertex   2.900000e+00 3.050000e+00 4.000000e-01
      vertex   2.500000e+00 -3.250000e+00 0.000000e+00
    endloop
  endfacet
  facet normal 7.071068e-01 0.000000e+00 -7.071068e-01
    outer loop
      vertex   2.500000e+00 -3.250000e+00 0.000000e+00
      vertex   2.900000e+00 3.050000e+00 4.000000e-01
      vertex   2.900000e+00 -3.050000e+00 4.000000e-01
    endloop
  endfacet
  facet normal 4.242641e-01 -5.656854e-01 -7.071068e-01
    outer loop
      vertex   2.500000e+00 3.250000e+00 0.000000e+00
      vertex   6.400000e+00 6.175000e+00 0.000000e+00
      vertex   2.900000e+00 3.050000e+00 4.000000e-01
    endloop
  endfacet
  facet normal 4.242641e-01 -5.656854e-01 -7.071068e-01
    outer loop
      vertex   2.900000e+00 3.050000e+00 4.000000e-01
      vertex   6.400000e+00 6.175000e+00 0.000000e+00
      vertex   6.800000e+00 5.975000e+00 4.000000e-01
    endloop
  endfacet
  facet normal 9.235838e-17 7.071068e-01 -7.071068e-01
    outer loop
      vertex   -6.800000e+00 8.500000e+00 4.000000e-01
      vertex   6.800000e+00 8.500000e+00 4.000000e-01
      vertex   -6.400000e+00 8.100000e+00 0.000000e+00
    endloop
  endfacet
  facet normal 9.813078e-17 7.071068e-01 -7.071068e-01
    outer loop
      vertex   -6.400000e+00 8.100000e+00 0.000000e+00
      vertex   6.800000e+00 8.500000e+00 4.000000e-01
      vertex   6.400000e+00 8.100000e+00 0.000000e+00
    endloop
  endfacet
  facet normal 7.071068e-01 0.000000e+00 -7.071068e-01
    outer loop
      vertex   6.400000e+00 6.175000e+00 0.000000e+00
      vertex   6.400000e+00 8.100000e+00 0.000000e+00
      vertex   6.800000e+00 5.975000e+00 4.000000e-01
    endloop
  endfacet
  facet normal 7.071068e-01 0.000000e+00 -7.071068e-01
    outer loop
      vertex   6.800000e+00 5.975000e+00 4.000000e-01
      vertex   6.400000e+00 8.100000e+00 0.000000e+00
      vertex   6.800000e+00 8.500000e+00 4.000000e-01
    endloop
  endfacet
  facet normal -7.071068e-01 -0.000000e+00 -7.071068e-01
    outer loop
      vertex   -6.800000e+00 8.500000e+00 4.000000e-01
      vertex   -6.400000e+00 8.100000e+00 0.000000e+00
      vertex   -6.800000e+00 5.975000e+00 4.000000e-01
    endloop
  endfacet
  facet normal -7.071068e-01 3.313507e-16 -7.071068e-01
    outer loop
      vertex   -6.800000e+00 5.975000e+00 4.000000e-01
      vertex   -6.400000e+00 8.100000e+00 0.000000e+00
      vertex   -6.400000e+00 6.175000e+00 0.000000e+00
    endloop
  endfacet
  facet normal -4.242641e-01 -5.656854e-01 -7.071068e-01
    outer loop
      vertex   -6.800000e+00 5.975000e+00 4.000000e-01
      vertex   -6.400000e+00 6.175000e+00 0.000000e+00
      vertex   -2.900000e+00 3.050000e+00 4.000000e-01
    endloop
  endfacet
  facet normal -4.242641e-01 -5.656854e-01 -7.071068e-01
    outer loop
      vertex   -2.900000e+00 3.050000e+00 4.000000e-01
      vertex   -6.400000e+00 6.175000e+00 0.000000e+00
      vertex   -2.500000e+00 3.250000e+00 0.000000e+00
    endloop
  endfacet
  facet normal -7.071068e-01 1.029569e-16 -7.071068e-01
    outer loop
      vertex   -2.900000e+00 -3.050000e+00 4.000000e-01
      vertex   -2.900000e+00 3.050000e+00 4.000000e-01
      vertex   -2.500000e+00 -3.250000e+00 0.000000e+00
    endloop
  endfacet
  facet normal -7.071068e-01 1.449316e-16 -7.071068e-01
    outer loop
      vertex   -2.500000e+00 -3.250000e+00 0.000000e+00
      vertex   -2.900000e+00 3.050000e+00 4.000000e-01
      vertex   -2.500000e+00 3.250000e+00 0.000000e+00
    endloop
  endfacet
  facet normal -4.242641e-01 5.656854e-01 -7.071068e-01
    outer loop
      vertex   -6.800000e+00 -5.975000e+00 4.000000e-01
      vertex   -2.900000e+00 -3.050000e+00 4.000000e-01
      vertex   -6.400000e+00 -6.175000e+00 0.000000e+00
    endloop
  endfacet
  facet normal -4.242641e-01 5.656854e-01 -7.071068e-01
    outer loop
      vertex   -6.400000e+00 -6.175000e+00 0.000000e+00
      vertex   -2.900000e+00 -3.050000e+00 4.000000e-01
      vertex   -2.500000e+00 -3.250000e+00 0.000000e+00
    endloop
  endfacet
  facet normal -7.071068e-01 0.000000e+00 -7.071068e-01
    outer loop
      vertex   -6.800000e+00 -8.500000e+00 4.000000e-01
      vertex   -6.800000e+00 -5.975000e+00 4.000000e-01
      vertex   -6.400000e+00 -8.100000e+00 0.000000e+00
    endloop
  endfacet
  facet normal -7.071068e-01 0.000000e+00 -7.071068e-01
    outer loop
      vertex   -6.400000e+00 -8.100000e+00 0.000000e+00
      vertex   -6.800000e+00 -5.975000e+00 4.000000e-01
      vertex   -6.400000e+00 -6.175000e+00 0.000000e+00
    endloop
  endfacet
  facet normal -0.000000e+00 -7.071068e-01 -7.071068e-01
    outer loop
      vertex   6.800000e+00 -8.500000e+00 4.000000e-01
      vertex   -6.800000e+00 -8.500000e+00 4.000000e-01
      vertex   6.400000e+00 -8.100000e+00 0.000000e+00
    endloop
  endfacet
  facet normal -0.000000e+00 -7.071068e-01 -7.071068e-01
    outer loop
      vertex   6.400000e+00 -8.100000e+00 0.000000e+00
      vertex   -6.800000e+00 -8.500000e+00 4.000000e-01
      vertex   -6.400000e+00 -8.100000e+00 0.000000e+00
    endloop
  endfacet
  facet normal 1.000000e+00 0.000000e+00 0.000000e+00
    outer loop
      vertex   6.800000e+00 -8.500000e+00 4.000000e-01
      vertex   6.800000e+00 -5.975000e+00 4.000000e-01
      vertex   6.800000e+00 -8.500000e+00 2.400000e+00
    endloop
  endfacet
  facet normal 1.000000e+00 -0.000000e+00 0.000000e+00
    outer loop
      vertex   6.800000e+00 -8.500000e+00 2.400000e+00
      vertex   6.800000e+00 -5.975000e+00 4.000000e-01
      vertex   6.800000e+00 -5.975000e+00 2.400000e+00
    endloop
  endfacet
  facet normal 6.000000e-01 8.000000e-01 -0.000000e+00
    outer loop
      vertex   6.800000e+00 -5.975000e+00 4.000000e-01
      vertex   2.900000e+00 -3.050000e+00 4.000000e-01
      vertex   6.800000e+00 -5.975000e+00 2.400000e+00
    endloop
  endfacet
  facet normal 6.000000e-01 8.000000e-01 0.000000e+00
    outer loop
      vertex   6.800000e+00 -5.975000e+00 2.400000e+00
      vertex   2.900000e+00 -3.050000e+00 4.000000e-01
      vertex   2.900000e+00 -3.050000e+00 2.400000e+00
    endloop
  endfacet
  facet normal 1.000000e+00 0.000000e+00 0.000000e+00
    outer loop
      vertex   2.900000e+00 -3.050000e+00 4.000000e-01
      vertex   2.900000e+00 3.050000e+00 4.000000e-01
      vertex   2.900000e+00 -3.050000e+00 2.400000e+00
    endloop
  endfacet
  facet normal 1.000000e+00 -0.000000e+00 0.000000e+00
    outer loop
      vertex   2.900000e+00 -3.050000e+00 2.400000e+00
      vertex   2.900000e+00 3.050000e+00 4.000000e-01
      vertex   2.900000e+00 3.050000e+00 2.400000e+00
    endloop
  endfacet
  facet normal 6.000000e-01 -8.000000e-01 0.000000e+00
    outer loop
      vertex   2.900000e+00 3.050000e+00 4.000000e-01
      vertex   6.800000e+00 5.975000e+00 4.000000e-01
      vertex   2.900000e+00 3.050000e+00 2.400000e+00
    endloop
  endfacet
  facet normal 6.000000e-01 -8.000000e-01 0.000000e+00
    outer loop
      vertex   2.900000e+00 3.050000e+00 2.400000e+00
      vertex   6.800000e+00 5.975000e+00 4.000000e-01
      vertex   6.800000e+00 5.975000e+00 2.400000e+00
    endloop
  endfacet
  facet normal 1.000000e+00 0.000000e+00 0.000000e+00
    outer loop
      vertex   6.800000e+00 5.975000e+00 4.000000e-01
      vertex   6.800000e+00 8.500000e+00 4.000000e-01
      vertex   6.800000e+00 5.975000e+00 2.400000e+00
    endloop
  endfacet
  facet normal 1.000000e+00 -0.000000e+00 0.000000e+00
    outer loop
      vertex   6.800000e+00 5.975000e+00 2.400000e+00
      vertex   6.800000e+00 8.500000e+00 4.000000e-01
      vertex   6.800000e+00 8.500000e+00 2.400000e+00
    endloop
  endfacet
  facet normal 1.306145e-16 1.000000e+00 -0.000000e+00
    outer loop
      vertex   6.800000e+00 8.500000e+00 4.000000e-01
      vertex   -6.800000e+00 8.500000e+00 4.000000e-01
      vertex   6.800000e+00 8.500000e+00 2.400000e+00
    endloop
  endfacet
  facet normal 1.306145e-16 1.000000e+00 0.000000e+00
    outer loop
      vertex   6.800000e+00 8.500000e+00 2.400000e+00
      vertex   -6.800000e+00 8.500000e+00 4.000000e-01
      vertex   -6.800000e+00 8.500000e+00 2.400000e+00
    endloop
  endfacet
  facet normal 0.000000e+00 0.000000e+00 -1.000000e+00
    outer loop
      vertex   -6.400000e+00 6.175000e+00 0.000000e+00
      vertex   -6.400000e+00 8.100000e+00 0.000000e+00
      vertex   -2.500000e+00 3.250000e+00 0.000000e+00
    endloop
  endfacet
  facet normal 0.000000e+00 0.000000e+00 -1.000000e+00
    outer loop
      vertex   -2.500000e+00 3.250000e+00 0.000000e+00
      vertex   -6.400000e+00 8.100000e+00 0.000000e+00
      vertex   6.400000e+00 8.100000e+00 0.000000e+00
    endloop
  endfacet
  facet normal 0.000000e+00 0.000000e+00 -1.000000e+00
    outer loop
      vertex   -2.500000e+00 3.250000e+00 0.000000e+00
      vertex   6.400000e+00 8.100000e+00 0.000000e+00
      vertex   2.500000e+00 3.250000e+00 0.000000e+00
    endloop
  endfacet
  facet normal 0.000000e+00 0.000000e+00 -1.000000e+00
    outer loop
      vertex   2.500000e+00 3.250000e+00 0.000000e+00
      vertex   6.400000e+00 8.100000e+00 0.000000e+00
      vertex   6.400000e+00 6.175000e+00 0.000000e+00
    endloop
  endfacet
  facet normal 0.000000e+00 -0.000000e+00 -1.000000e+00
    outer loop
      vertex   -2.500000e+00 3.250000e+00 0.000000e+00
      vertex   2.500000e+00 3.250000e+00 0.000000e+00
      vertex   -2.500000e+00 -3.250000e+00 0.000000e+00
    endloop
  endfacet
  facet normal 0.000000e+00 0.000000e+00 -1.000000e+00
    outer loop
      vertex   -2.500000e+00 -3.250000e+00 0.000000e+00
      vertex   2.500000e+00 3.250000e+00 0.000000e+00
      vertex   2.500000e+00 -3.250000e+00 0.000000e+00
    endloop
  endfacet
  facet normal 0.000000e+00 -0.000000e+00 -1.000000e+00
    outer loop
      vertex   -2.500000e+00 -3.250000e+00 0.000000e+00
      vertex   2.500000e+00 -3.250000e+00 0.000000e+00
      vertex   -6.400000e+00 -8.100000e+00 0.000000e+00
    endloop
  endfacet
  facet normal 0.000000e+00 0.000000e+00 -1.000000e+00
    outer loop
      vertex   -6.400000e+00 -8.100000e+00 0.000000e+00
      vertex   2.500000e+00 -3.250000e+00 0.000000e+00
      vertex   6.400000e+00 -8.100000e+00 0.000000e+00
    endloop
  endfacet
  facet normal 0.000000e+00 0.000000e+00 -1.000000e+00
    outer loop
      vertex   6.400000e+00 -8.100000e+00 0.000000e+00
      vertex   2.500000e+00 -3.250000e+00 0.000000e+00
      vertex   6.400000e+00 -6.175000e+00 0.000000e+00
    endloop
  endfacet
  facet normal 0.000000e+00 0.000000e+00 -1.000000e+00
    outer loop
      vertex   -6.400000e+00 -8.100000e+00 0.000000e+00
      vertex   -6.400000e+00 -6.175000e+00 0.000000e+00
      vertex   -2.500000e+00 -3.250000e+00 0.000000e+00
    endloop
  endfacet
  facet normal 9.813078e-17 -7.071068e-01 7.071068e-01
    outer loop
      vertex   6.400000e+00 -8.100000e+00 2.800000e+00
      vertex   -6.400000e+00 -8.100000e+00 2.800000e+00
      vertex   6.800000e+00 -8.500000e+00 2.400000e+00
    endloop
  endfacet
  facet normal 0.000000e+00 -7.071068e-01 7.071068e-01
    outer loop
      vertex   6.800000e+00 -8.500000e+00 2.400000e+00
      vertex   -6.400000e+00 -8.100000e+00 2.800000e+00
      vertex   -6.800000e+00 -8.500000e+00 2.400000e+00
    endloop
  endfacet
  facet normal -7.071068e-01 0.000000e+00 7.071068e-01
    outer loop
      vertex   -6.400000e+00 -6.175000e+00 2.800000e+00
      vertex   -6.800000e+00 -5.975000e+00 2.400000e+00
      vertex   -6.400000e+00 -8.100000e+00 2.800000e+00
    endloop
  endfacet
  facet normal -7.071068e-01 0.000000e+00 7.071068e-01
    outer loop
      vertex   -6.400000e+00 -8.100000e+00 2.800000e+00
      vertex   -6.800000e+00 -5.975000e+00 2.400000e+00
      vertex   -6.800000e+00 -8.500000e+00 2.400000e+00
    endloop
  endfacet
  facet normal -4.242641e-01 5.656854e-01 7.071068e-01
    outer loop
      vertex   -2.500000e+00 -3.250000e+00 2.800000e+00
      vertex   -2.900000e+00 -3.050000e+00 2.400000e+00
      vertex   -6.400000e+00 -6.175000e+00 2.800000e+00
    endloop
  endfacet
  facet normal -4.242641e-01 5.656854e-01 7.071068e-01
    outer loop
      vertex   -6.400000e+00 -6.175000e+00 2.800000e+00
      vertex   -2.900000e+00 -3.050000e+00 2.400000e+00
      vertex   -6.800000e+00 -5.975000e+00 2.400000e+00
    endloop
  endfacet
  facet normal -7.071068e-01 1.449316e-16 7.071068e-01
    outer loop
      vertex   -2.500000e+00 3.250000e+00 2.800000e+00
      vertex   -2.900000e+00 3.050000e+00 2.400000e+00
      vertex   -2.500000e+00 -3.250000e+00 2.800000e+00
    endloop
  endfacet
  facet normal -7.071068e-01 9.652208e-17 7.071068e-01
    outer loop
      vertex   -2.500000e+00 -3.250000e+00 2.800000e+00
      vertex   -2.900000e+00 3.050000e+00 2.400000e+00
      vertex   -2.900000e+00 -3.050000e+00 2.400000e+00
    endloop
  endfacet
  facet normal -4.242641e-01 -5.656854e-01 7.071068e-01
    outer loop
      vertex   -2.500000e+00 3.250000e+00 2.800000e+00
      vertex   -6.400000e+00 6.175000e+00 2.800000e+00
      vertex   -2.900000e+00 3.050000e+00 2.400000e+00
    endloop
  endfacet
  facet normal -4.242641e-01 -5.656854e-01 7.071068e-01
    outer loop
      vertex   -2.900000e+00 3.050000e+00 2.400000e+00
      vertex   -6.400000e+00 6.175000e+00 2.800000e+00
      vertex   -6.800000e+00 5.975000e+00 2.400000e+00
    endloop
  endfacet
  facet normal -7.071068e-01 0.000000e+00 7.071068e-01
    outer loop
      vertex   -6.400000e+00 6.175000e+00 2.800000e+00
      vertex   -6.400000e+00 8.100000e+00 2.800000e+00
      vertex   -6.800000e+00 5.975000e+00 2.400000e+00
    endloop
  endfacet
  facet normal -7.071068e-01 0.000000e+00 7.071068e-01
    outer loop
      vertex   -6.800000e+00 5.975000e+00 2.400000e+00
      vertex   -6.400000e+00 8.100000e+00 2.800000e+00
      vertex   -6.800000e+00 8.500000e+00 2.400000e+00
    endloop
  endfacet
  facet normal 9.813078e-17 7.071068e-01 7.071068e-01
    outer loop
      vertex   -6.400000e+00 8.100000e+00 2.800000e+00
      vertex   6.400000e+00 8.100000e+00 2.800000e+00
      vertex   -6.800000e+00 8.500000e+00 2.400000e+00
    endloop
  endfacet
  facet normal 9.235838e-17 7.071068e-01 7.071068e-01
    outer loop
      vertex   -6.800000e+00 8.500000e+00 2.400000e+00
      vertex   6.400000e+00 8.100000e+00 2.800000e+00
      vertex   6.800000e+00 8.500000e+00 2.400000e+00
    endloop
  endfacet
  facet normal 7.071068e-01 0.000000e+00 7.071068e-01
    outer loop
      vertex   6.800000e+00 8.500000e+00 2.400000e+00
      vertex   6.400000e+00 8.100000e+00 2.800000e+00
      vertex   6.800000e+00 5.975000e+00 2.400000e+00
    endloop
  endfacet
  facet normal 7.071068e-01 0.000000e+00 7.071068e-01
    outer loop
      vertex   6.800000e+00 5.975000e+00 2.400000e+00
      vertex   6.400000e+00 8.100000e+00 2.800000e+00
      vertex   6.400000e+00 6.175000e+00 2.800000e+00
    endloop
  endfacet
  facet normal 4.242641e-01 -5.656854e-01 7.071068e-01
    outer loop
      vertex   6.800000e+00 5.975000e+00 2.400000e+00
      vertex   6.400000e+00 6.175000e+00 2.800000e+00
      vertex   2.900000e+00 3.050000e+00 2.400000e+00
    endloop
  endfacet
  facet normal 4.242641e-01 -5.656854e-01 7.071068e-01
    outer loop
      vertex   2.900000e+00 3.050000e+00 2.400000e+00
      vertex   6.400000e+00 6.175000e+00 2.800000e+00
      vertex   2.500000e+00 3.250000e+00 2.800000e+00
    endloop
  endfacet
  facet normal 7.071068e-01 -0.000000e+00 7.071068e-01
    outer loop
      vertex   2.900000e+00 -3.050000e+00 2.400000e+00
      vertex   2.900000e+00 3.050000e+00 2.400000e+00
      vertex   2.500000e+00 -3.250000e+00 2.800000e+00
    endloop
  endfacet
  facet normal 7.071068e-01 -0.000000e+00 7.071068e-01
    outer loop
      vertex   2.500000e+00 -3.250000e+00 2.800000e+00
      vertex   2.900000e+00 3.050000e+00 2.400000e+00
      vertex   2.500000e+00 3.250000e+00 2.800000e+00
    endloop
  endfacet
  facet normal 4.242641e-01 5.656854e-01 7.071068e-01
    outer loop
      vertex   6.800000e+00 -5.975000e+00 2.400000e+00
      vertex   2.900000e+00 -3.050000e+00 2.400000e+00
      vertex   6.400000e+00 -6.175000e+00 2.800000e+00
    endloop
  endfacet
  facet normal 4.242641e-01 5.656854e-01 7.071068e-01
    outer loop
      vertex   6.400000e+00 -6.175000e+00 2.800000e+00
      vertex   2.900000e+00 -3.050000e+00 2.400000e+00
      vertex   2.500000e+00 -3.250000e+00 2.800000e+00
    endloop
  endfacet
  facet normal 7.071068e-01 -0.000000e+00 7.071068e-01
    outer loop
      vertex   6.800000e+00 -8.500000e+00 2.400000e+00
      vertex   6.800000e+00 -5.975000e+00 2.400000e+00
      vertex   6.400000e+00 -8.100000e+00 2.800000e+00
    endloop
  endfacet
  facet normal 7.071068e-01 -0.000000e+00 7.071068e-01
    outer loop
      vertex   6.400000e+00 -8.100000e+00 2.800000e+00
      vertex   6.800000e+00 -5.975000e+00 2.400000e+00
      vertex   6.400000e+00 -6.175000e+00 2.800000e+00
    endloop
  endfacet
  facet normal 0.000000e+00 -1.000000e+00 0.000000e+00
    outer loop
      vertex   -6.800000e+00 -8.500000e+00 4.000000e-01
      vertex   6.800000e+00 -8.500000e+00 4.000000e-01
      vertex   -6.800000e+00 -8.500000e+00 2.400000e+00
    endloop
  endfacet
  facet normal 0.000000e+00 -1.000000e+00 0.000000e+00
    outer loop
      vertex   -6.800000e+00 -8.500000e+00 2.400000e+00
      vertex   6.800000e+00 -8.500000e+00 4.000000e-01
      vertex   6.800000e+00 -8.500000e+00 2.400000e+00
    endloop
  endfacet
  facet normal -0.000000e+00 0.000000e+00 1.000000e+00
    outer loop
      vertex   -6.400000e+00 -6.175000e+00 2.800000e+00
      vertex   -6.400000e+00 -8.100000e+00 2.800000e+00
      vertex   -2.500000e+00 -3.250000e+00 2.800000e+00
    endloop
  endfacet
  facet normal 0.000000e+00 0.000000e+00 1.000000e+00
    outer loop
      vertex   -2.500000e+00 -3.250000e+00 2.800000e+00
      vertex   -6.400000e+00 -8.100000e+00 2.800000e+00
      vertex   6.400000e+00 -8.100000e+00 2.800000e+00
    endloop
  endfacet
  facet normal -0.000000e+00 0.000000e+00 1.000000e+00
    outer loop
      vertex   -2.500000e+00 -3.250000e+00 2.800000e+00
      vertex   6.400000e+00 -8.100000e+00 2.800000e+00
      vertex   2.500000e+00 -3.250000e+00 2.800000e+00
    endloop
  endfacet
  facet normal 0.000000e+00 0.000000e+00 1.000000e+00
    outer loop
      vertex   2.500000e+00 -3.250000e+00 2.800000e+00
      vertex   6.400000e+00 -8.100000e+00 2.800000e+00
      vertex   6.400000e+00 -6.175000e+00 2.800000e+00
    endloop
  endfacet
  facet normal 0.000000e+00 0.000000e+00 1.000000e+00
    outer loop
      vertex   -2.500000e+00 -3.250000e+00 2.800000e+00
      vertex   2.500000e+00 -3.250000e+00 2.800000e+00
      vertex   -2.500000e+00 3.250000e+00 2.800000e+00
    endloop
  endfacet
  facet normal 0.000000e+00 0.000000e+00 1.000000e+00
    outer loop
      vertex   -2.500000e+00 3.250000e+00 2.800000e+00
      vertex   2.500000e+00 -3.250000e+00 2.800000e+00
      vertex   2.500000e+00 3.250000e+00 2.800000e+00
    endloop
  endfacet
  facet normal -0.000000e+00 -0.000000e+00 1.000000e+00
    outer loop
      vertex   -2.500000e+00 3.250000e+00 2.800000e+00
      vertex   2.500000e+00 3.250000e+00 2.800000e+00
      vertex   -6.400000e+00 8.100000e+00 2.800000e+00
    endloop
  endfacet
  facet normal 0.000000e+00 0.000000e+00 1.000000e+00
    outer loop
      vertex   -6.400000e+00 8.100000e+00 2.800000e+00
      vertex   2.500000e+00 3.250000e+00 2.800000e+00
      vertex   6.400000e+00 8.100000e+00 2.800000e+00
    endloop
  endfacet
  facet normal 0.000000e+00 0.000000e+00 1.000000e+00
    outer loop
      vertex   6.400000e+00 8.100000e+00 2.800000e+00
      vertex   2.500000e+00 3.250000e+00 2.800000e+00
      vertex   6.400000e+00 6.175000e+00 2.800000e+00
    endloop
  endfacet
  facet normal 0.000000e+00 0.000000e+00 1.000000e+00
    outer loop
      vertex   -6.400000e+00 8.100000e+00 2.800000e+00
      vertex   -6.400000e+00 6.175000e+00 2.800000e+00
      vertex   -2.500000e+00 3.250000e+00 2.800000e+00
    endloop
  endfacet
  facet normal -1.000000e+00 0.000000e+00 0.000000e+00
    outer loop
      vertex   -6.800000e+00 -5.975000e+00 4.000000e-01
      vertex   -6.800000e+00 -8.500000e+00 4.000000e-01
      vertex   -6.800000e+00 -5.975000e+00 2.400000e+00
    endloop
  endfacet
  facet normal -1.000000e+00 -0.000000e+00 0.000000e+00
    outer loop
      vertex   -6.800000e+00 -5.975000e+00 2.400000e+00
      vertex   -6.800000e+00 -8.500000e+00 4.000000e-01
      vertex   -6.800000e+00 -8.500000e+00 2.400000e+00
    endloop
  endfacet
  facet normal -6.000000e-01 8.000000e-01 0.000000e+00
    outer loop
      vertex   -2.900000e+00 -3.050000e+00 4.000000e-01
      vertex   -6.800000e+00 -5.975000e+00 4.000000e-01
      vertex   -2.900000e+00 -3.050000e+00 2.400000e+00
    endloop
  endfacet
  facet normal -6.000000e-01 8.000000e-01 0.000000e+00
    outer loop
      vertex   -2.900000e+00 -3.050000e+00 2.400000e+00
      vertex   -6.800000e+00 -5.975000e+00 4.000000e-01
      vertex   -6.800000e+00 -5.975000e+00 2.400000e+00
    endloop
  endfacet
  facet normal -1.000000e+00 1.456030e-16 0.000000e+00
    outer loop
      vertex   -2.900000e+00 3.050000e+00 4.000000e-01
      vertex   -2.900000e+00 -3.050000e+00 4.000000e-01
      vertex   -2.900000e+00 3.050000e+00 2.400000e+00
    endloop
  endfacet
  facet normal -1.000000e+00 1.456030e-16 0.000000e+00
    outer loop
      vertex   -2.900000e+00 3.050000e+00 2.400000e+00
      vertex   -2.900000e+00 -3.050000e+00 4.000000e-01
      vertex   -2.900000e+00 -3.050000e+00 2.400000e+00
    endloop
  endfacet
  facet normal -6.000000e-01 -8.000000e-01 0.000000e+00
    outer loop
      vertex   -6.800000e+00 5.975000e+00 4.000000e-01
      vertex   -2.900000e+00 3.050000e+00 4.000000e-01
      vertex   -6.800000e+00 5.975000e+00 2.400000e+00
    endloop
  endfacet
  facet normal -6.000000e-01 -8.000000e-01 0.000000e+00
    outer loop
      vertex   -6.800000e+00 5.975000e+00 2.400000e+00
      vertex   -2.900000e+00 3.050000e+00 4.000000e-01
      vertex   -2.900000e+00 3.050000e+00 2.400000e+00
    endloop
  endfacet
  facet normal -1.000000e+00 0.000000e+00 0.000000e+00
    outer loop
      vertex   -6.800000e+00 8.500000e+00 4.000000e-01
      vertex   -6.800000e+00 5.975000e+00 4.000000e-01
      vertex   -6.800000e+00 8.500000e+00 2.400000e+00
    endloop
  endfacet
  facet normal -1.000000e+00 -0.000000e+00 0.000000e+00
    outer loop
      vertex   -6.800000e+00 8.500000e+00 2.400000e+00
      vertex   -6.800000e+00 5.975000e+00 4.000000e-01
      vertex   -6.800000e+00 5.975000e+00 2.400000e+00
    endloop
  endfacet
  facet normal -6.000000e-01 -8.000000e-01 0.000000e+00
    outer loop
      vertex   -4.914444e+00 7.040000e+00 3.000000e-01
      vertex   -9.166667e-01 4.041667e+00 3.000000e-01
      vertex   -4.914444e+00 7.040000e+00 2.500000e+00
    endloop
  endfacet
  facet normal -6.000000e-01 -8.000000e-01 -3.231535e-16
    outer loop
      vertex   -4.914444e+00 7.040000e+00 2.500000e+00
      vertex   -9.166667e-01 4.041667e+00 3.000000e-01
      vertex   -9.166667e-01 4.041667e+00 2.500000e+00
    endloop
  endfacet
  facet normal 8.000000e-01 -6.000000e-01 0.000000e+00
    outer loop
      vertex   -4.914444e+00 7.040000e+00 3.000000e-01
      vertex   -4.914444e+00 7.040000e+00 2.500000e+00
      vertex   -4.974444e+00 6.960000e+00 3.000000e-01
    endloop
  endfacet
  facet normal 8.000000e-01 -6.000000e-01 0.000000e+00
    outer loop
      vertex   -4.974444e+00 6.960000e+00 3.000000e-01
      vertex   -4.914444e+00 7.040000e+00 2.500000e+00
      vertex   -4.974444e+00 6.960000e+00 2.500000e+00
    endloop
  endfacet
  facet normal 6.000000e-01 8.000000e-01 2.624164e-16
    outer loop
      vertex   -1.016667e+00 3.991667e+00 3.000000e-01
      vertex   -4.974444e+00 6.960000e+00 3.000000e-01
      vertex   -1.016667e+00 3.991667e+00 2.500000e+00
    endloop
  endfacet
  facet normal 6.000000e-01 8.000000e-01 0.000000e+00
    outer loop
      vertex   -1.016667e+00 3.991667e+00 2.500000e+00
      vertex   -4.974444e+00 6.960000e+00 3.000000e-01
      vertex   -4.974444e+00 6.960000e+00 2.500000e+00
    endloop
  endfacet
  facet normal 1.000000e+00 2.781352e-17 -2.018587e-16
    outer loop
      vertex   -1.016667e+00 -3.991667e+00 3.000000e-01
      vertex   -1.016667e+00 3.991667e+00 3.000000e-01
      vertex   -1.016667e+00 -3.991667e+00 2.500000e+00
    endloop
  endfacet
  facet normal 1.000000e+00 5.562704e-17 -1.009294e-16
    outer loop
      vertex   -1.016667e+00 -3.991667e+00 2.500000e+00
      vertex   -1.016667e+00 3.991667e+00 3.000000e-01
      vertex   -1.016667e+00 3.991667e+00 2.500000e+00
    endloop
  endfacet
  facet normal -6.000000e-01 8.000000e-01 -4.138104e-16
    outer loop
      vertex   -9.166667e-01 -4.041667e+00 3.000000e-01
      vertex   -4.914444e+00 -7.040000e+00 3.000000e-01
      vertex   -9.166667e-01 -4.041667e+00 2.500000e+00
    endloop
  endfacet
  facet normal -6.000000e-01 8.000000e-01 0.000000e+00
    outer loop
      vertex   -9.166667e-01 -4.041667e+00 2.500000e+00
      vertex   -4.914444e+00 -7.040000e+00 3.000000e-01
      vertex   -4.914444e+00 -7.040000e+00 2.500000e+00
    endloop
  endfacet
  facet normal -1.000000e+00 -8.240831e-17 1.513940e-16
    outer loop
      vertex   -9.166667e-01 4.041667e+00 3.000000e-01
      vertex   -9.166667e-01 -4.041667e+00 3.000000e-01
      vertex   -9.166667e-01 4.041667e+00 2.500000e+00
    endloop
  endfacet
  facet normal -1.000000e+00 -0.000000e+00 -1.513940e-16
    outer loop
      vertex   -9.166667e-01 4.041667e+00 2.500000e+00
      vertex   -9.166667e-01 -4.041667e+00 3.000000e-01
      vertex   -9.166667e-01 -4.041667e+00 2.500000e+00
    endloop
  endfacet
  facet normal 6.000000e-01 -8.000000e-01 2.422305e-16
    outer loop
      vertex   -4.974444e+00 -6.960000e+00 3.000000e-01
      vertex   -1.016667e+00 -3.991667e+00 3.000000e-01
      vertex   -4.974444e+00 -6.960000e+00 2.500000e+00
    endloop
  endfacet
  facet normal 6.000000e-01 -8.000000e-01 3.264195e-16
    outer loop
      vertex   -4.974444e+00 -6.960000e+00 2.500000e+00
      vertex   -1.016667e+00 -3.991667e+00 3.000000e-01
      vertex   -1.016667e+00 -3.991667e+00 2.500000e+00
    endloop
  endfacet
  facet normal 0.000000e+00 0.000000e+00 -1.000000e+00
    outer loop
      vertex   -4.974444e+00 -6.960000e+00 2.500000e+00
      vertex   -1.016667e+00 -3.991667e+00 2.500000e+00
      vertex   -4.914444e+00 -7.040000e+00 2.500000e+00
    endloop
  endfacet
  facet normal 0.000000e+00 0.000000e+00 -1.000000e+00
    outer loop
      vertex   -4.914444e+00 -7.040000e+00 2.500000e+00
      vertex   -1.016667e+00 -3.991667e+00 2.500000e+00
      vertex   -9.166667e-01 -4.041667e+00 2.500000e+00
    endloop
  endfacet
  facet normal 0.000000e+00 0.000000e+00 -1.000000e+00
    outer loop
      vertex   -9.166667e-01 -4.041667e+00 2.500000e+00
      vertex   -1.016667e+00 -3.991667e+00 2.500000e+00
      vertex   -1.016667e+00 3.991667e+00 2.500000e+00
    endloop
  endfacet
  facet normal 0.000000e+00 0.000000e+00 -1.000000e+00
    outer loop
      vertex   -9.166667e-01 -4.041667e+00 2.500000e+00
      vertex   -1.016667e+00 3.991667e+00 2.500000e+00
      vertex   -9.166667e-01 4.041667e+00 2.500000e+00
    endloop
  endfacet
  facet normal -0.000000e+00 0.000000e+00 -1.000000e+00
    outer loop
      vertex   -9.166667e-01 4.041667e+00 2.500000e+00
      vertex   -1.016667e+00 3.991667e+00 2.500000e+00
      vertex   -4.914444e+00 7.040000e+00 2.500000e+00
    endloop
  endfacet
  facet normal 0.000000e+00 -0.000000e+00 -1.000000e+00
    outer loop
      vertex   -4.914444e+00 7.040000e+00 2.500000e+00
      vertex   -1.016667e+00 3.991667e+00 2.500000e+00
      vertex   -4.974444e+00 6.960000e+00 2.500000e+00
    endloop
  endfacet
  facet normal 8.000000e-01 6.000000e-01 3.229740e-16
    outer loop
      vertex   -4.974444e+00 -6.960000e+00 3.000000e-01
      vertex   -4.974444e+00 -6.960000e+00 2.500000e+00
      vertex   -4.914444e+00 -7.040000e+00 3.000000e-01
    endloop
  endfacet
  facet normal 8.000000e-01 6.000000e-01 -0.000000e+00
    outer loop
      vertex   -4.914444e+00 -7.040000e+00 3.000000e-01
      vertex   -4.974444e+00 -6.960000e+00 2.500000e+00
      vertex   -4.914444e+00 -7.040000e+00 2.500000e+00
    endloop
  endfacet
  facet normal -0.000000e+00 0.000000e+00 1.000000e+00
    outer loop
      vertex   -4.974444e+00 -6.960000e+00 3.000000e-01
      vertex   -4.914444e+00 -7.040000e+00 3.000000e-01
      vertex   -1.016667e+00 -3.991667e+00 3.000000e-01
    endloop
  endfacet
  facet normal 0.000000e+00 0.000000e+00 1.000000e+00
    outer loop
      vertex   -1.016667e+00 -3.991667e+00 3.000000e-01
      vertex   -4.914444e+00 -7.040000e+00 3.000000e-01
      vertex   -9.166667e-01 -4.041667e+00 3.000000e-01
    endloop
  endfacet
  facet normal -0.000000e+00 -0.000000e+00 1.000000e+00
    outer loop
      vertex   -1.016667e+00 -3.991667e+00 3.000000e-01
      vertex   -9.166667e-01 -4.041667e+00 3.000000e-01
      vertex   -1.016667e+00 3.991667e+00 3.000000e-01
    endloop
  endfacet
  facet normal -0.000000e+00 0.000000e+00 1.000000e+00
    outer loop
      vertex   -1.016667e+00 3.991667e+00 3.000000e-01
      vertex   -9.166667e-01 -4.041667e+00 3.000000e-01
      vertex   -9.166667e-01 4.041667e+00 3.000000e-01
    endloop
  endfacet
  facet normal 0.000000e+00 -0.000000e+00 1.000000e+00
    outer loop
      vertex   -1.016667e+00 3.991667e+00 3.000000e-01
      vertex   -9.166667e-01 4.041667e+00 3.000000e-01
      vertex   -4.914444e+00 7.040000e+00 3.000000e-01
    endloop
  endfacet
  facet normal 0.000000e+00 0.000000e+00 1.000000e+00
    outer loop
      vertex   -4.914444e+00 7.040000e+00 3.000000e-01
      vertex   -4.974444e+00 6.960000e+00 3.000000e-01
      vertex   -1.016667e+00 3.991667e+00 3.000000e-01
    endloop
  endfacet
  facet normal 1.000000e+00 4.120415e-17 -5.046468e-17
    outer loop
      vertex   9.166667e-01 -4.041667e+00 3.000000e-01
      vertex   9.166667e-01 4.041667e+00 3.000000e-01
      vertex   9.166667e-01 -4.041667e+00 2.500000e+00
    endloop
  endfacet
  facet normal 1.000000e+00 5.493887e-17 0.000000e+00
    outer loop
      vertex   9.166667e-01 -4.041667e+00 2.500000e+00
      vertex   9.166667e-01 4.041667e+00 3.000000e-01
      vertex   9.166667e-01 4.041667e+00 2.500000e+00
    endloop
  endfacet
  facet normal 6.000000e-01 8.000000e-01 -0.000000e+00
    outer loop
      vertex   4.914444e+00 -7.040000e+00 3.000000e-01
      vertex   9.166667e-01 -4.041667e+00 3.000000e-01
      vertex   4.914444e+00 -7.040000e+00 2.500000e+00
    endloop
  endfacet
  facet normal 6.000000e-01 8.000000e-01 -1.615768e-16
    outer loop
      vertex   4.914444e+00 -7.040000e+00 2.500000e+00
      vertex   9.166667e-01 -4.041667e+00 3.000000e-01
      vertex   9.166667e-01 -4.041667e+00 2.500000e+00
    endloop
  endfacet
  facet normal -8.000000e-01 6.000000e-01 0.000000e+00
    outer loop
      vertex   4.914444e+00 -7.040000e+00 3.000000e-01
      vertex   4.914444e+00 -7.040000e+00 2.500000e+00
      vertex   4.974444e+00 -6.960000e+00 3.000000e-01
    endloop
  endfacet
  facet normal -8.000000e-01 6.000000e-01 -3.229740e-16
    outer loop
      vertex   4.974444e+00 -6.960000e+00 3.000000e-01
      vertex   4.914444e+00 -7.040000e+00 2.500000e+00
      vertex   4.974444e+00 -6.960000e+00 2.500000e+00
    endloop
  endfacet
  facet normal -6.000000e-01 -8.000000e-01 6.055762e-17
    outer loop
      vertex   1.016667e+00 -3.991667e+00 3.000000e-01
      vertex   4.974444e+00 -6.960000e+00 3.000000e-01
      vertex   1.016667e+00 -3.991667e+00 2.500000e+00
    endloop
  endfacet
  facet normal -6.000000e-01 -8.000000e-01 -1.632098e-16
    outer loop
      vertex   1.016667e+00 -3.991667e+00 2.500000e+00
      vertex   4.974444e+00 -6.960000e+00 3.000000e-01
      vertex   4.974444e+00 -6.960000e+00 2.500000e+00
    endloop
  endfacet
  facet normal 6.000000e-01 -8.000000e-01 0.000000e+00
    outer loop
      vertex   9.166667e-01 4.041667e+00 3.000000e-01
      vertex   4.914444e+00 7.040000e+00 3.000000e-01
      vertex   9.166667e-01 4.041667e+00 2.500000e+00
    endloop
  endfacet
  facet normal 6.000000e-01 -8.000000e-01 0.000000e+00
    outer loop
      vertex   9.166667e-01 4.041667e+00 2.500000e+00
      vertex   4.914444e+00 7.040000e+00 3.000000e-01
      vertex   4.914444e+00 7.040000e+00 2.500000e+00
    endloop
  endfacet
  facet normal -1.000000e+00 -2.781352e-17 5.614402e-33
    outer loop
      vertex   1.016667e+00 3.991667e+00 3.000000e-01
      vertex   1.016667e+00 -3.991667e+00 3.000000e-01
      vertex   1.016667e+00 3.991667e+00 2.500000e+00
    endloop
  endfacet
  facet normal -1.000000e+00 -5.562704e-17 1.009294e-16
    outer loop
      vertex   1.016667e+00 3.991667e+00 2.500000e+00
      vertex   1.016667e+00 -3.991667e+00 3.000000e-01
      vertex   1.016667e+00 -3.991667e+00 2.500000e+00
    endloop
  endfacet
  facet normal -6.000000e-01 8.000000e-01 0.000000e+00
    outer loop
      vertex   4.974444e+00 6.960000e+00 3.000000e-01
      vertex   1.016667e+00 3.991667e+00 3.000000e-01
      vertex   4.974444e+00 6.960000e+00 2.500000e+00
    endloop
  endfacet
  facet normal -6.000000e-01 8.000000e-01 -1.632098e-16
    outer loop
      vertex   4.974444e+00 6.960000e+00 2.500000e+00
      vertex   1.016667e+00 3.991667e+00 3.000000e-01
      vertex   1.016667e+00 3.991667e+00 2.500000e+00
    endloop
  endfacet
  facet normal -0.000000e+00 0.000000e+00 -1.000000e+00
    outer loop
      vertex   1.016667e+00 -3.991667e+00 2.500000e+00
      vertex   9.166667e-01 -4.041667e+00 2.500000e+00
      vertex   1.016667e+00 3.991667e+00 2.500000e+00
    endloop
  endfacet
  facet normal -0.000000e+00 0.000000e+00 -1.000000e+00
    outer loop
      vertex   1.016667e+00 3.991667e+00 2.500000e+00
      vertex   9.166667e-01 -4.041667e+00 2.500000e+00
      vertex   9.166667e-01 4.041667e+00 2.500000e+00
    endloop
  endfacet
  facet normal 0.000000e+00 0.000000e+00 -1.000000e+00
    outer loop
      vertex   1.016667e+00 3.991667e+00 2.500000e+00
      vertex   9.166667e-01 4.041667e+00 2.500000e+00
      vertex   4.914444e+00 7.040000e+00 2.500000e+00
    endloop
  endfacet
  facet normal -0.000000e+00 0.000000e+00 -1.000000e+00
    outer loop
      vertex   4.974444e+00 -6.960000e+00 2.500000e+00
      vertex   4.914444e+00 -7.040000e+00 2.500000e+00
      vertex   1.016667e+00 -3.991667e+00 2.500000e+00
    endloop
  endfacet
  facet normal 0.000000e+00 -0.000000e+00 -1.000000e+00
    outer loop
      vertex   1.016667e+00 -3.991667e+00 2.500000e+00
      vertex   4.914444e+00 -7.040000e+00 2.500000e+00
      vertex   9.166667e-01 -4.041667e+00 2.500000e+00
    endloop
  endfacet
  facet normal 0.000000e+00 -0.000000e+00 -1.000000e+00
    outer loop
      vertex   4.914444e+00 7.040000e+00 2.500000e+00
      vertex   4.974444e+00 6.960000e+00 2.500000e+00
      vertex   1.016667e+00 3.991667e+00 2.500000e+00
    endloop
  endfacet
  facet normal -8.000000e-01 -6.000000e-01 0.000000e+00
    outer loop
      vertex   4.974444e+00 6.960000e+00 3.000000e-01
      vertex   4.974444e+00 6.960000e+00 2.500000e+00
      vertex   4.914444e+00 7.040000e+00 3.000000e-01
    endloop
  endfacet
  facet normal -8.000000e-01 -6.000000e-01 0.000000e+00
    outer loop
      vertex   4.914444e+00 7.040000e+00 3.000000e-01
      vertex   4.974444e+00 6.960000e+00 2.500000e+00
      vertex   4.914444e+00 7.040000e+00 2.500000e+00
    endloop
  endfacet
  facet normal 0.000000e+00 0.000000e+00 1.000000e+00
    outer loop
      vertex   1.016667e+00 3.991667e+00 3.000000e-01
      vertex   9.166667e-01 -4.041667e+00 3.000000e-01
      vertex   1.016667e+00 -3.991667e+00 3.000000e-01
    endloop
  endfacet
  facet normal 0.000000e+00 0.000000e+00 1.000000e+00
    outer loop
      vertex   1.016667e+00 -3.991667e+00 3.000000e-01
      vertex   9.166667e-01 -4.041667e+00 3.000000e-01
      vertex   4.914444e+00 -7.040000e+00 3.000000e-01
    endloop
  endfacet
  facet normal 0.000000e+00 0.000000e+00 1.000000e+00
    outer loop
      vertex   1.016667e+00 -3.991667e+00 3.000000e-01
      vertex   4.914444e+00 -7.040000e+00 3.000000e-01
      vertex   4.974444e+00 -6.960000e+00 3.000000e-01
    endloop
  endfacet
  facet normal 0.000000e+00 0.000000e+00 1.000000e+00
    outer loop
      vertex   4.974444e+00 6.960000e+00 3.000000e-01
      vertex   4.914444e+00 7.040000e+00 3.000000e-01
      vertex   1.016667e+00 3.991667e+00 3.000000e-01
    endloop
  endfacet
  facet normal 0.000000e+00 -0.000000e+00 1.000000e+00
    outer loop
      vertex   1.016667e+00 3.991667e+00 3.000000e-01
      vertex   4.914444e+00 7.040000e+00 3.000000e-01
      vertex   9.166667e-01 4.041667e+00 3.000000e-01
    endloop
  endfacet
  facet normal 0.000000e+00 0.000000e+00 1.000000e+00
    outer loop
      vertex   1.016667e+00 3.991667e+00 3.000000e-01
      vertex   9.166667e-01 4.041667e+00 3.000000e-01
      vertex   9.166667e-01 -4.041667e+00 3.000000e-01
    endloop
  endfacet
  facet normal 6.000000e-01 8.000000e-01 5.836556e-16
    outer loop
      vertex   2.914335e-15 5.645833e+00 3.000000e-01
      vertex   -1.752222e+00 6.960000e+00 3.000000e-01
      vertex   3.142741e-15 5.645833e+00 2.500000e+00
    endloop
  endfacet
  facet normal 6.000000e-01 8.000000e-01 0.000000e+00
    outer loop
      vertex   3.142741e-15 5.645833e+00 2.500000e+00
      vertex   -1.752222e+00 6.960000e+00 3.000000e-01
      vertex   -1.752222e+00 6.960000e+00 2.500000e+00
    endloop
  endfacet
  facet normal -6.000000e-01 8.000000e-01 0.000000e+00
    outer loop
      vertex   1.752222e+00 6.960000e+00 3.000000e-01
      vertex   2.914335e-15 5.645833e+00 3.000000e-01
      vertex   1.752222e+00 6.960000e+00 2.500000e+00
    endloop
  endfacet
  facet normal -6.000000e-01 8.000000e-01 7.372900e-16
    outer loop
      vertex   1.752222e+00 6.960000e+00 2.500000e+00
      vertex   2.914335e-15 5.645833e+00 3.000000e-01
      vertex   3.142741e-15 5.645833e+00 2.500000e+00
    endloop
  endfacet
  facet normal -8.000000e-01 -6.000000e-01 0.000000e+00
    outer loop
      vertex   1.752222e+00 6.960000e+00 3.000000e-01
      vertex   1.752222e+00 6.960000e+00 2.500000e+00
      vertex   1.692222e+00 7.040000e+00 3.000000e-01
    endloop
  endfacet
  facet normal -8.000000e-01 -6.000000e-01 0.000000e+00
    outer loop
      vertex   1.692222e+00 7.040000e+00 3.000000e-01
      vertex   1.752222e+00 6.960000e+00 2.500000e+00
      vertex   1.692222e+00 7.040000e+00 2.500000e+00
    endloop
  endfacet
  facet normal 6.000000e-01 -8.000000e-01 -1.005351e-16
    outer loop
      vertex   3.053113e-15 5.770833e+00 3.000000e-01
      vertex   1.692222e+00 7.040000e+00 3.000000e-01
      vertex   3.421742e-15 5.770833e+00 2.500000e+00
    endloop
  endfacet
  facet normal 6.000000e-01 -8.000000e-01 0.000000e+00
    outer loop
      vertex   3.421742e-15 5.770833e+00 2.500000e+00
      vertex   1.692222e+00 7.040000e+00 3.000000e-01
      vertex   1.692222e+00 7.040000e+00 2.500000e+00
    endloop
  endfacet
  facet normal -6.000000e-01 -8.000000e-01 0.000000e+00
    outer loop
      vertex   -1.692222e+00 7.040000e+00 3.000000e-01
      vertex   3.053113e-15 5.770833e+00 3.000000e-01
      vertex   -1.692222e+00 7.040000e+00 2.500000e+00
    endloop
  endfacet
  facet normal -6.000000e-01 -8.000000e-01 9.542895e-17
    outer loop
      vertex   -1.692222e+00 7.040000e+00 2.500000e+00
      vertex   3.053113e-15 5.770833e+00 3.000000e-01
      vertex   3.421742e-15 5.770833e+00 2.500000e+00
    endloop
  endfacet
  facet normal 0.000000e+00 -0.000000e+00 -1.000000e+00
    outer loop
      vertex   1.692222e+00 7.040000e+00 2.500000e+00
      vertex   1.752222e+00 6.960000e+00 2.500000e+00
      vertex   3.421742e-15 5.770833e+00 2.500000e+00
    endloop
  endfacet
  facet normal 0.000000e+00 -0.000000e+00 -1.000000e+00
    outer loop
      vertex   3.421742e-15 5.770833e+00 2.500000e+00
      vertex   1.752222e+00 6.960000e+00 2.500000e+00
      vertex   3.142741e-15 5.645833e+00 2.500000e+00
    endloop
  endfacet
  facet normal -0.000000e+00 0.000000e+00 -1.000000e+00
    outer loop
      vertex   3.421742e-15 5.770833e+00 2.500000e+00
      vertex   3.142741e-15 5.645833e+00 2.500000e+00
      vertex   -1.752222e+00 6.960000e+00 2.500000e+00
    endloop
  endfacet
  facet normal 0.000000e+00 0.000000e+00 -1.000000e+00
    outer loop
      vertex   -1.752222e+00 6.960000e+00 2.500000e+00
      vertex   -1.692222e+00 7.040000e+00 2.500000e+00
      vertex   3.421742e-15 5.770833e+00 2.500000e+00
    endloop
  endfacet
  facet normal 8.000000e-01 -6.000000e-01 0.000000e+00
    outer loop
      vertex   -1.692222e+00 7.040000e+00 3.000000e-01
      vertex   -1.692222e+00 7.040000e+00 2.500000e+00
      vertex   -1.752222e+00 6.960000e+00 3.000000e-01
    endloop
  endfacet
  facet normal 8.000000e-01 -6.000000e-01 0.000000e+00
    outer loop
      vertex   -1.752222e+00 6.960000e+00 3.000000e-01
      vertex   -1.692222e+00 7.040000e+00 2.500000e+00
      vertex   -1.752222e+00 6.960000e+00 2.500000e+00
    endloop
  endfacet
  facet normal 0.000000e+00 0.000000e+00 1.000000e+00
    outer loop
      vertex   1.692222e+00 7.040000e+00 3.000000e-01
      vertex   3.053113e-15 5.770833e+00 3.000000e-01
      vertex   1.752222e+00 6.960000e+00 3.000000e-01
    endloop
  endfacet
  facet normal 0.000000e+00 0.000000e+00 1.000000e+00
    outer loop
      vertex   1.752222e+00 6.960000e+00 3.000000e-01
      vertex   3.053113e-15 5.770833e+00 3.000000e-01
      vertex   2.914335e-15 5.645833e+00 3.000000e-01
    endloop
  endfacet
  facet normal 0.000000e+00 -0.000000e+00 1.000000e+00
    outer loop
      vertex   2.914335e-15 5.645833e+00 3.000000e-01
      vertex   3.053113e-15 5.770833e+00 3.000000e-01
      vertex   -1.752222e+00 6.960000e+00 3.000000e-01
    endloop
  endfacet
  facet normal -0.000000e+00 0.000000e+00 1.000000e+00
    outer loop
      vertex   -1.752222e+00 6.960000e+00 3.000000e-01
      vertex   3.053113e-15 5.770833e+00 3.000000e-01
      vertex   -1.692222e+00 7.040000e+00 3.000000e-01
    endloop
  endfacet
  facet normal 6.000000e-01 -8.000000e-01 0.000000e+00
    outer loop
      vertex   -1.752222e+00 -6.960000e+00 3.000000e-01
      vertex   3.504141e-15 -5.645833e+00 3.000000e-01
      vertex   -1.752222e+00 -6.960000e+00 2.500000e+00
    endloop
  endfacet
  facet normal 6.000000e-01 -8.000000e-01 9.216125e-17
    outer loop
      vertex   -1.752222e+00 -6.960000e+00 2.500000e+00
      vertex   3.504141e-15 -5.645833e+00 3.000000e-01
      vertex   3.319104e-15 -5.645833e+00 2.500000e+00
    endloop
  endfacet
  facet normal 8.000000e-01 6.000000e-01 -0.000000e+00
    outer loop
      vertex   -1.752222e+00 -6.960000e+00 3.000000e-01
      vertex   -1.752222e+00 -6.960000e+00 2.500000e+00
      vertex   -1.692222e+00 -7.040000e+00 3.000000e-01
    endloop
  endfacet
  facet normal 8.000000e-01 6.000000e-01 -0.000000e+00
    outer loop
      vertex   -1.692222e+00 -7.040000e+00 3.000000e-01
      vertex   -1.752222e+00 -6.960000e+00 2.500000e+00
      vertex   -1.692222e+00 -7.040000e+00 2.500000e+00
    endloop
  endfacet
  facet normal -6.000000e-01 8.000000e-01 -8.161085e-17
    outer loop
      vertex   3.365364e-15 -5.770833e+00 3.000000e-01
      vertex   -1.692222e+00 -7.040000e+00 3.000000e-01
      vertex   3.066124e-15 -5.770833e+00 2.500000e+00
    endloop
  endfacet
  facet normal -6.000000e-01 8.000000e-01 0.000000e+00
    outer loop
      vertex   3.066124e-15 -5.770833e+00 2.500000e+00
      vertex   -1.692222e+00 -7.040000e+00 3.000000e-01
      vertex   -1.692222e+00 -7.040000e+00 2.500000e+00
    endloop
  endfacet
  facet normal -6.000000e-01 -8.000000e-01 -5.046468e-17
    outer loop
      vertex   3.504141e-15 -5.645833e+00 3.000000e-01
      vertex   1.752222e+00 -6.960000e+00 3.000000e-01
      vertex   3.319104e-15 -5.645833e+00 2.500000e+00
    endloop
  endfacet
  facet normal -6.000000e-01 -8.000000e-01 0.000000e+00
    outer loop
      vertex   3.319104e-15 -5.645833e+00 2.500000e+00
      vertex   1.752222e+00 -6.960000e+00 3.000000e-01
      vertex   1.752222e+00 -6.960000e+00 2.500000e+00
    endloop
  endfacet
  facet normal 6.000000e-01 8.000000e-01 -0.000000e+00
    outer loop
      vertex   1.692222e+00 -7.040000e+00 3.000000e-01
      vertex   3.365364e-15 -5.770833e+00 3.000000e-01
      vertex   1.692222e+00 -7.040000e+00 2.500000e+00
    endloop
  endfacet
  facet normal 6.000000e-01 8.000000e-01 0.000000e+00
    outer loop
      vertex   1.692222e+00 -7.040000e+00 2.500000e+00
      vertex   3.365364e-15 -5.770833e+00 3.000000e-01
      vertex   3.066124e-15 -5.770833e+00 2.500000e+00
    endloop
  endfacet
  facet normal 0.000000e+00 0.000000e+00 -1.000000e+00
    outer loop
      vertex   1.692222e+00 -7.040000e+00 2.500000e+00
      vertex   3.066124e-15 -5.770833e+00 2.500000e+00
      vertex   1.752222e+00 -6.960000e+00 2.500000e+00
    endloop
  endfacet
  facet normal 0.000000e+00 0.000000e+00 -1.000000e+00
    outer loop
      vertex   1.752222e+00 -6.960000e+00 2.500000e+00
      vertex   3.066124e-15 -5.770833e+00 2.500000e+00
      vertex   3.319104e-15 -5.645833e+00 2.500000e+00
    endloop
  endfacet
  facet normal 0.000000e+00 0.000000e+00 -1.000000e+00
    outer loop
      vertex   3.319104e-15 -5.645833e+00 2.500000e+00
      vertex   3.066124e-15 -5.770833e+00 2.500000e+00
      vertex   -1.752222e+00 -6.960000e+00 2.500000e+00
    endloop
  endfacet
  facet normal 0.000000e+00 0.000000e+00 -1.000000e+00
    outer loop
      vertex   -1.752222e+00 -6.960000e+00 2.500000e+00
      vertex   3.066124e-15 -5.770833e+00 2.500000e+00
      vertex   -1.692222e+00 -7.040000e+00 2.500000e+00
    endloop
  endfacet
  facet normal -8.000000e-01 6.000000e-01 0.000000e+00
    outer loop
      vertex   1.692222e+00 -7.040000e+00 3.000000e-01
      vertex   1.692222e+00 -7.040000e+00 2.500000e+00
      vertex   1.752222e+00 -6.960000e+00 3.000000e-01
    endloop
  endfacet
  facet normal -8.000000e-01 6.000000e-01 0.000000e+00
    outer loop
      vertex   1.752222e+00 -6.960000e+00 3.000000e-01
      vertex   1.692222e+00 -7.040000e+00 2.500000e+00
      vertex   1.752222e+00 -6.960000e+00 2.500000e+00
    endloop
  endfacet
  facet normal 0.000000e+00 -0.000000e+00 1.000000e+00
    outer loop
      vertex   1.692222e+00 -7.040000e+00 3.000000e-01
      vertex   1.752222e+00 -6.960000e+00 3.000000e-01
      vertex   3.365364e-15 -5.770833e+00 3.000000e-01
    endloop
  endfacet
  facet normal -0.000000e+00 0.000000e+00 1.000000e+00
    outer loop
      vertex   3.365364e-15 -5.770833e+00 3.000000e-01
      vertex   1.752222e+00 -6.960000e+00 3.000000e-01
      vertex   3.504141e-15 -5.645833e+00 3.000000e-01
    endloop
  endfacet
  facet normal 0.000000e+00 -0.000000e+00 1.000000e+00
    outer loop
      vertex   3.365364e-15 -5.770833e+00 3.000000e-01
      vertex   3.504141e-15 -5.645833e+00 3.000000e-01
      vertex   -1.752222e+00 -6.960000e+00 3.000000e-01
    endloop
  endfacet
  facet normal -0.000000e+00 0.000000e+00 1.000000e+00
    outer loop
      vertex   -1.752222e+00 -6.960000e+00 3.000000e-01
      vertex   -1.692222e+00 -7.040000e+00 3.000000e-01
      vertex   3.365364e-15 -5.770833e+00 3.000000e-01
    endloop
  endfacet
endsolid
