ISO-10303-21;
HEADER;

/* File generated by Shapr3D Version 5.800.0.8232 */

FILE_DESCRIPTION(('HOOPS Exchange Step'),'2;1');

FILE_NAME('/Users/ddanier/Library/Containers/com.shapr3d.shapr/Data/tmp/export/temp_export',
'2025-03-02T22:00:28+01:00',
('ddanier'),
('Shapr3D Limited'),
'HOOPS Exchange 2024.8',
'Shapr3D',
'Authorized');

FILE_SCHEMA( ('AP242_MANAGED_MODEL_BASED_3D_ENGINEERING_MIM_LF {1 0 10303 442 1 1 4}') );

ENDSEC;

DATA;
#3=(NAMED_UNIT(*)PLANE_ANGLE_UNIT()SI_UNIT($,.RADIAN.));
#4=PLANE_ANGLE_MEASURE_WITH_UNIT(PLANE_ANGLE_MEASURE(0.0174532925),#3);
#5=(CONVERSION_BASED_UNIT('DEGREE',#4)NAMED_UNIT(#6)PLANE_ANGLE_UNIT());
#6=DIMENSIONAL_EXPONENTS(0.,0.,0.,0.,0.,0.,0.);
#7=(NAMED_UNIT(*)SI_UNIT($,.STERADIAN.)SOLID_ANGLE_UNIT());
#8=(LENGTH_UNIT()NAMED_UNIT(*)SI_UNIT(.MILLI.,.METRE.));
#9=UNCERTAINTY_MEASURE_WITH_UNIT(LENGTH_MEASURE(1.000000E-05),#8,'DISTANCE_ACCURACY_VALUE','Maximum Tolerance applied to model');
#10=(GEOMETRIC_REPRESENTATION_CONTEXT(3)GLOBAL_UNCERTAINTY_ASSIGNED_CONTEXT((#9))GLOBAL_UNIT_ASSIGNED_CONTEXT((#8,#5,#7))REPRESENTATION_CONTEXT('','EXAMPLE Snap In Slot'));
#12=CARTESIAN_POINT('',(0.,0.,0.));
#13=DIRECTION('',(0.,0.,1.));
#14=DIRECTION('',(1.,0.,0.));
#15=AXIS2_PLACEMENT_3D('TS3D_PRODUCT_CSYS',#12,#13,#14);
#27=CARTESIAN_POINT('',(-30.,-84.5,0.));
#28=DIRECTION('',(0.,0.,1.));
#29=DIRECTION('',(1.,0.,0.));
#30=AXIS2_PLACEMENT_3D('',#27,#28,#29);
#31=PLANE('',#30);
#32=CARTESIAN_POINT('',(-26.05,-84.5,-0.));
#33=VERTEX_POINT('',#32);
#34=CARTESIAN_POINT('',(-25.,-84.5,0.));
#35=DIRECTION('',(0.,0.,-1.));
#36=DIRECTION('',(-1.,0.,0.));
#37=AXIS2_PLACEMENT_3D('',#34,#35,#36);
#38=CIRCLE('',#37,1.05);
#39=EDGE_CURVE('',#33,#33,#38,.T.);
#40=ORIENTED_EDGE('',*,*,#39,.F.);
#41=EDGE_LOOP('',(#40));
#42=FACE_BOUND('',#41,.T.);
#43=CARTESIAN_POINT('',(-34.366018877,-87.994266933,0.));
#44=VERTEX_POINT('',#43);
#45=CARTESIAN_POINT('',(-34.776570529,-89.682165621,0.));
#46=VERTEX_POINT('',#45);
#47=CARTESIAN_POINT('',(-38.041018877,-87.994266933,0.));
#48=DIRECTION('',(-0.,-0.,-1.));
#49=DIRECTION('',(1.,0.,-0.));
#50=AXIS2_PLACEMENT_3D('',#47,#48,#49);
#51=CIRCLE('',#50,3.675);
#52=EDGE_CURVE('',#44,#46,#51,.T.);
#53=ORIENTED_EDGE('',*,*,#52,.F.);
#54=CARTESIAN_POINT('',(-34.776570529,-86.306368244,0.));
#55=VERTEX_POINT('',#54);
#56=CARTESIAN_POINT('',(-38.041018877,-87.994266933,0.));
#57=DIRECTION('',(-0.,-0.,-1.));
#58=DIRECTION('',(1.,0.,-0.));
#59=AXIS2_PLACEMENT_3D('',#56,#57,#58);
#60=CIRCLE('',#59,3.675);
#61=EDGE_CURVE('',#55,#44,#60,.T.);
#62=ORIENTED_EDGE('',*,*,#61,.F.);
#63=CARTESIAN_POINT('',(-35.,-85.387783923,0.));
#64=VERTEX_POINT('',#63);
#65=CARTESIAN_POINT('',(-33.,-85.387783923,0.));
#66=DIRECTION('',(-0.,-0.,-1.));
#67=DIRECTION('',(1.,0.,-0.));
#68=AXIS2_PLACEMENT_3D('',#65,#66,#67);
#69=CIRCLE('',#68,2.);
#70=EDGE_CURVE('',#55,#64,#69,.T.);
#71=ORIENTED_EDGE('',*,*,#70,.T.);
#72=CARTESIAN_POINT('',(-35.,-84.5,0.));
#73=VERTEX_POINT('',#72);
#74=CARTESIAN_POINT('',(-35.,-84.5,0.));
#75=DIRECTION('',(0.,-1.,0.));
#76=VECTOR('',#75,0.887783923);
#77=LINE('',#74,#76);
#78=EDGE_CURVE('',#73,#64,#77,.T.);
#79=ORIENTED_EDGE('',*,*,#78,.F.);
#80=CARTESIAN_POINT('',(-15.,-84.5,0.));
#81=VERTEX_POINT('',#80);
#82=CARTESIAN_POINT('',(-25.,-84.5,0.));
#83=DIRECTION('',(0.,0.,1.));
#84=DIRECTION('',(1.,0.,-0.));
#85=AXIS2_PLACEMENT_3D('',#82,#83,#84);
#86=CIRCLE('',#85,10.);
#87=EDGE_CURVE('',#81,#73,#86,.T.);
#88=ORIENTED_EDGE('',*,*,#87,.F.);
#89=CARTESIAN_POINT('',(-15.,-88.387783923,0.));
#90=VERTEX_POINT('',#89);
#91=CARTESIAN_POINT('',(-15.,-84.5,0.));
#92=DIRECTION('',(0.,-1.,0.));
#93=VECTOR('',#92,3.887783923);
#94=LINE('',#91,#93);
#95=EDGE_CURVE('',#81,#90,#94,.T.);
#96=ORIENTED_EDGE('',*,*,#95,.T.);
#97=CARTESIAN_POINT('',(-15.223429471,-89.306368244,0.));
#98=VERTEX_POINT('',#97);
#99=CARTESIAN_POINT('',(-17.,-88.387783923,0.));
#100=DIRECTION('',(-0.,-0.,-1.));
#101=DIRECTION('',(1.,0.,-0.));
#102=AXIS2_PLACEMENT_3D('',#99,#100,#101);
#103=CIRCLE('',#102,2.);
#104=EDGE_CURVE('',#90,#98,#103,.T.);
#105=ORIENTED_EDGE('',*,*,#104,.T.);
#106=CARTESIAN_POINT('',(-15.223429471,-92.682165621,0.));
#107=VERTEX_POINT('',#106);
#108=CARTESIAN_POINT('',(-11.958981123,-90.994266933,0.));
#109=DIRECTION('',(-0.,-0.,-1.));
#110=DIRECTION('',(1.,0.,-0.));
#111=AXIS2_PLACEMENT_3D('',#108,#109,#110);
#112=CIRCLE('',#111,3.675);
#113=EDGE_CURVE('',#107,#98,#112,.T.);
#114=ORIENTED_EDGE('',*,*,#113,.F.);
#115=CARTESIAN_POINT('',(-15.,-93.600749942,0.));
#116=VERTEX_POINT('',#115);
#117=CARTESIAN_POINT('',(-17.,-93.600749942,0.));
#118=DIRECTION('',(-0.,-0.,-1.));
#119=DIRECTION('',(1.,0.,-0.));
#120=AXIS2_PLACEMENT_3D('',#117,#118,#119);
#121=CIRCLE('',#120,2.);
#122=EDGE_CURVE('',#107,#116,#121,.T.);
#123=ORIENTED_EDGE('',*,*,#122,.T.);
#124=CARTESIAN_POINT('',(-15.,-112.5,0.));
#125=VERTEX_POINT('',#124);
#126=CARTESIAN_POINT('',(-15.,-93.600749942,0.));
#127=DIRECTION('',(0.,-1.,0.));
#128=VECTOR('',#127,18.899250058);
#129=LINE('',#126,#128);
#130=EDGE_CURVE('',#116,#125,#129,.T.);
#131=ORIENTED_EDGE('',*,*,#130,.T.);
#132=CARTESIAN_POINT('',(-35.,-112.5,0.));
#133=VERTEX_POINT('',#132);
#134=CARTESIAN_POINT('',(-15.,-112.5,0.));
#135=DIRECTION('',(-1.,0.,0.));
#136=VECTOR('',#135,20.);
#137=LINE('',#134,#136);
#138=EDGE_CURVE('',#125,#133,#137,.T.);
#139=ORIENTED_EDGE('',*,*,#138,.T.);
#140=CARTESIAN_POINT('',(-35.,-90.600749942,0.));
#141=VERTEX_POINT('',#140);
#142=CARTESIAN_POINT('',(-35.,-90.600749942,0.));
#143=DIRECTION('',(0.,-1.,0.));
#144=VECTOR('',#143,21.899250058);
#145=LINE('',#142,#144);
#146=EDGE_CURVE('',#141,#133,#145,.T.);
#147=ORIENTED_EDGE('',*,*,#146,.F.);
#148=CARTESIAN_POINT('',(-33.,-90.600749942,0.));
#149=DIRECTION('',(-0.,-0.,-1.));
#150=DIRECTION('',(1.,0.,-0.));
#151=AXIS2_PLACEMENT_3D('',#148,#149,#150);
#152=CIRCLE('',#151,2.);
#153=EDGE_CURVE('',#141,#46,#152,.T.);
#154=ORIENTED_EDGE('',*,*,#153,.T.);
#155=EDGE_LOOP('',(#53,#62,#71,#79,#88,#96,#105,#114,#123,#131,#139,#147,#154));
#156=FACE_BOUND('',#155,.T.);
#157=ADVANCED_FACE('',(#42,#156),#31,.F.);
#158=CARTESIAN_POINT('',(-35.,-84.5,0.5));
#159=DIRECTION('',(1.,0.,0.));
#160=DIRECTION('',(0.,0.,-1.));
#161=AXIS2_PLACEMENT_3D('',#158,#159,#160);
#162=PLANE('',#161);
#163=ORIENTED_EDGE('',*,*,#78,.T.);
#164=CARTESIAN_POINT('',(-35.,-85.387783923,1.));
#165=VERTEX_POINT('',#164);
#166=CARTESIAN_POINT('',(-35.,-85.387783923,0.));
#167=DIRECTION('',(-0.,0.,1.));
#168=VECTOR('',#167,1.);
#169=LINE('',#166,#168);
#170=EDGE_CURVE('',#64,#165,#169,.T.);
#171=ORIENTED_EDGE('',*,*,#170,.T.);
#172=CARTESIAN_POINT('',(-35.,-84.5,1.));
#173=VERTEX_POINT('',#172);
#174=CARTESIAN_POINT('',(-35.,-84.5,1.));
#175=DIRECTION('',(0.,-1.,0.));
#176=VECTOR('',#175,0.887783923);
#177=LINE('',#174,#176);
#178=EDGE_CURVE('',#173,#165,#177,.T.);
#179=ORIENTED_EDGE('',*,*,#178,.F.);
#180=CARTESIAN_POINT('',(-35.,-84.5,0.));
#181=DIRECTION('',(-0.,0.,1.));
#182=VECTOR('',#181,1.);
#183=LINE('',#180,#182);
#184=EDGE_CURVE('',#73,#173,#183,.T.);
#185=ORIENTED_EDGE('',*,*,#184,.F.);
#186=EDGE_LOOP('',(#163,#171,#179,#185));
#187=FACE_BOUND('',#186,.T.);
#188=ADVANCED_FACE('',(#187),#162,.F.);
#189=CARTESIAN_POINT('',(-15.,-84.5,0.5));
#190=DIRECTION('',(1.,0.,-0.));
#191=DIRECTION('',(-0.,0.,-1.));
#192=AXIS2_PLACEMENT_3D('',#189,#190,#191);
#193=PLANE('',#192);
#194=CARTESIAN_POINT('',(-15.,-84.5,1.));
#195=VERTEX_POINT('',#194);
#196=CARTESIAN_POINT('',(-15.,-88.387783923,1.));
#197=VERTEX_POINT('',#196);
#198=CARTESIAN_POINT('',(-15.,-84.5,1.));
#199=DIRECTION('',(0.,-1.,0.));
#200=VECTOR('',#199,3.887783923);
#201=LINE('',#198,#200);
#202=EDGE_CURVE('',#195,#197,#201,.T.);
#203=ORIENTED_EDGE('',*,*,#202,.T.);
#204=CARTESIAN_POINT('',(-15.,-88.387783923,1.));
#205=DIRECTION('',(-0.,0.,-1.));
#206=VECTOR('',#205,1.);
#207=LINE('',#204,#206);
#208=EDGE_CURVE('',#197,#90,#207,.T.);
#209=ORIENTED_EDGE('',*,*,#208,.T.);
#210=ORIENTED_EDGE('',*,*,#95,.F.);
#211=CARTESIAN_POINT('',(-15.,-84.5,0.));
#212=DIRECTION('',(0.,0.,1.));
#213=VECTOR('',#212,1.);
#214=LINE('',#211,#213);
#215=EDGE_CURVE('',#81,#195,#214,.T.);
#216=ORIENTED_EDGE('',*,*,#215,.T.);
#217=EDGE_LOOP('',(#203,#209,#210,#216));
#218=FACE_BOUND('',#217,.T.);
#219=ADVANCED_FACE('',(#218),#193,.T.);
#220=CARTESIAN_POINT('',(-15.,-84.5,0.5));
#221=DIRECTION('',(1.,0.,-0.));
#222=DIRECTION('',(-0.,0.,-1.));
#223=AXIS2_PLACEMENT_3D('',#220,#221,#222);
#224=PLANE('',#223);
#225=ORIENTED_EDGE('',*,*,#130,.F.);
#226=CARTESIAN_POINT('',(-15.,-93.600749942,1.));
#227=VERTEX_POINT('',#226);
#228=CARTESIAN_POINT('',(-15.,-93.600749942,0.));
#229=DIRECTION('',(0.,-0.,1.));
#230=VECTOR('',#229,1.);
#231=LINE('',#228,#230);
#232=EDGE_CURVE('',#116,#227,#231,.T.);
#233=ORIENTED_EDGE('',*,*,#232,.T.);
#234=CARTESIAN_POINT('',(-15.,-112.5,1.));
#235=VERTEX_POINT('',#234);
#236=CARTESIAN_POINT('',(-15.,-93.600749942,1.));
#237=DIRECTION('',(0.,-1.,0.));
#238=VECTOR('',#237,18.899250058);
#239=LINE('',#236,#238);
#240=EDGE_CURVE('',#227,#235,#239,.T.);
#241=ORIENTED_EDGE('',*,*,#240,.T.);
#242=CARTESIAN_POINT('',(-15.,-112.5,0.));
#243=DIRECTION('',(0.,0.,1.));
#244=VECTOR('',#243,1.);
#245=LINE('',#242,#244);
#246=EDGE_CURVE('',#125,#235,#245,.T.);
#247=ORIENTED_EDGE('',*,*,#246,.F.);
#248=EDGE_LOOP('',(#225,#233,#241,#247));
#249=FACE_BOUND('',#248,.T.);
#250=ADVANCED_FACE('',(#249),#224,.T.);
#251=CARTESIAN_POINT('',(-16.25,-84.5,2.25));
#252=DIRECTION('',(-0.707106781,0.,-0.707106781));
#253=DIRECTION('',(-0.707106781,0.,0.707106781));
#254=AXIS2_PLACEMENT_3D('',#251,#252,#253);
#255=PLANE('',#254);
#256=CARTESIAN_POINT('',(-15.223429471,-92.682165621,1.223429471));
#257=VERTEX_POINT('',#256);
#258=CARTESIAN_POINT('',(-15.223429471,-89.306368244,1.223429471));
#259=VERTEX_POINT('',#258);
#260=CARTESIAN_POINT('',(-11.958981123,-90.994266933,-2.041018877));
#261=DIRECTION('',(-0.707106781,0.,-0.707106781));
#262=DIRECTION('',(-0.707106781,0.,0.707106781));
#263=AXIS2_PLACEMENT_3D('',#260,#261,#262);
#264=ELLIPSE('',#263,5.197234842,3.675);
#265=EDGE_CURVE('',#257,#259,#264,.T.);
#266=ORIENTED_EDGE('',*,*,#265,.T.);
#267=CARTESIAN_POINT('',(-17.,-88.387783923,3.));
#268=DIRECTION('',(0.707106781,-0.,0.707106781));
#269=DIRECTION('',(-0.707106781,0.,0.707106781));
#270=AXIS2_PLACEMENT_3D('',#267,#268,#269);
#271=ELLIPSE('',#270,2.828427125,2.);
#272=EDGE_CURVE('',#259,#197,#271,.T.);
#273=ORIENTED_EDGE('',*,*,#272,.T.);
#274=ORIENTED_EDGE('',*,*,#202,.F.);
#275=CARTESIAN_POINT('',(-17.5,-84.5,3.5));
#276=VERTEX_POINT('',#275);
#277=CARTESIAN_POINT('',(-17.5,-84.5,3.5));
#278=DIRECTION('',(0.707106781,0.,-0.707106781));
#279=VECTOR('',#278,3.535533906);
#280=LINE('',#277,#279);
#281=EDGE_CURVE('',#276,#195,#280,.T.);
#282=ORIENTED_EDGE('',*,*,#281,.F.);
#283=CARTESIAN_POINT('',(-17.5,-112.5,3.5));
#284=VERTEX_POINT('',#283);
#285=CARTESIAN_POINT('',(-17.5,-84.5,3.5));
#286=DIRECTION('',(0.,-1.,0.));
#287=VECTOR('',#286,28.);
#288=LINE('',#285,#287);
#289=EDGE_CURVE('',#276,#284,#288,.T.);
#290=ORIENTED_EDGE('',*,*,#289,.T.);
#291=CARTESIAN_POINT('',(-17.5,-112.5,3.5));
#292=DIRECTION('',(0.707106781,0.,-0.707106781));
#293=VECTOR('',#292,3.535533906);
#294=LINE('',#291,#293);
#295=EDGE_CURVE('',#284,#235,#294,.T.);
#296=ORIENTED_EDGE('',*,*,#295,.T.);
#297=ORIENTED_EDGE('',*,*,#240,.F.);
#298=CARTESIAN_POINT('',(-17.,-93.600749942,3.));
#299=DIRECTION('',(0.707106781,-0.,0.707106781));
#300=DIRECTION('',(-0.707106781,0.,0.707106781));
#301=AXIS2_PLACEMENT_3D('',#298,#299,#300);
#302=ELLIPSE('',#301,2.828427125,2.);
#303=EDGE_CURVE('',#227,#257,#302,.T.);
#304=ORIENTED_EDGE('',*,*,#303,.T.);
#305=EDGE_LOOP('',(#266,#273,#274,#282,#290,#296,#297,#304));
#306=FACE_BOUND('',#305,.T.);
#307=ADVANCED_FACE('',(#306),#255,.F.);
#308=CARTESIAN_POINT('',(-17.5,-84.5,3.75));
#309=DIRECTION('',(1.,0.,-0.));
#310=DIRECTION('',(-0.,0.,-1.));
#311=AXIS2_PLACEMENT_3D('',#308,#309,#310);
#312=PLANE('',#311);
#313=CARTESIAN_POINT('',(-17.5,-112.5,4.));
#314=VERTEX_POINT('',#313);
#315=CARTESIAN_POINT('',(-17.5,-112.5,3.5));
#316=DIRECTION('',(0.,0.,1.));
#317=VECTOR('',#316,0.5);
#318=LINE('',#315,#317);
#319=EDGE_CURVE('',#284,#314,#318,.T.);
#320=ORIENTED_EDGE('',*,*,#319,.F.);
#321=ORIENTED_EDGE('',*,*,#289,.F.);
#322=CARTESIAN_POINT('',(-17.5,-84.5,4.));
#323=VERTEX_POINT('',#322);
#324=CARTESIAN_POINT('',(-17.5,-84.5,3.5));
#325=DIRECTION('',(0.,0.,1.));
#326=VECTOR('',#325,0.5);
#327=LINE('',#324,#326);
#328=EDGE_CURVE('',#276,#323,#327,.T.);
#329=ORIENTED_EDGE('',*,*,#328,.T.);
#330=CARTESIAN_POINT('',(-17.5,-84.5,4.));
#331=DIRECTION('',(0.,-1.,0.));
#332=VECTOR('',#331,28.);
#333=LINE('',#330,#332);
#334=EDGE_CURVE('',#323,#314,#333,.T.);
#335=ORIENTED_EDGE('',*,*,#334,.T.);
#336=EDGE_LOOP('',(#320,#321,#329,#335));
#337=FACE_BOUND('',#336,.T.);
#338=ADVANCED_FACE('',(#337),#312,.T.);
#339=CARTESIAN_POINT('',(-28.75,-84.5,4.));
#340=DIRECTION('',(0.,0.,-1.));
#341=DIRECTION('',(-1.,0.,0.));
#342=AXIS2_PLACEMENT_3D('',#339,#340,#341);
#343=PLANE('',#342);
#344=CARTESIAN_POINT('',(-31.,-91.5,4.));
#345=VERTEX_POINT('',#344);
#346=CARTESIAN_POINT('',(-19.,-91.5,4.));
#347=VERTEX_POINT('',#346);
#348=CARTESIAN_POINT('',(-25.,-91.5,4.));
#349=DIRECTION('',(0.,0.,1.));
#350=DIRECTION('',(1.,0.,-0.));
#351=AXIS2_PLACEMENT_3D('',#348,#349,#350);
#352=CIRCLE('',#351,6.);
#353=EDGE_CURVE('',#345,#347,#352,.T.);
#354=ORIENTED_EDGE('',*,*,#353,.F.);
#355=CARTESIAN_POINT('',(-25.,-91.5,4.));
#356=DIRECTION('',(0.,0.,1.));
#357=DIRECTION('',(1.,0.,-0.));
#358=AXIS2_PLACEMENT_3D('',#355,#356,#357);
#359=CIRCLE('',#358,6.);
#360=EDGE_CURVE('',#347,#345,#359,.T.);
#361=ORIENTED_EDGE('',*,*,#360,.F.);
#362=EDGE_LOOP('',(#354,#361));
#363=FACE_BOUND('',#362,.T.);
#364=CARTESIAN_POINT('',(-32.5,-112.5,4.));
#365=VERTEX_POINT('',#364);
#366=CARTESIAN_POINT('',(-32.5,-112.5,4.));
#367=DIRECTION('',(1.,0.,-0.));
#368=VECTOR('',#367,15.);
#369=LINE('',#366,#368);
#370=EDGE_CURVE('',#365,#314,#369,.T.);
#371=ORIENTED_EDGE('',*,*,#370,.T.);
#372=ORIENTED_EDGE('',*,*,#334,.F.);
#373=CARTESIAN_POINT('',(-32.5,-84.5,4.));
#374=VERTEX_POINT('',#373);
#375=CARTESIAN_POINT('',(-25.,-84.5,4.));
#376=DIRECTION('',(0.,0.,1.));
#377=DIRECTION('',(1.,0.,-0.));
#378=AXIS2_PLACEMENT_3D('',#375,#376,#377);
#379=CIRCLE('',#378,7.5);
#380=EDGE_CURVE('',#323,#374,#379,.T.);
#381=ORIENTED_EDGE('',*,*,#380,.T.);
#382=CARTESIAN_POINT('',(-32.5,-84.5,4.));
#383=DIRECTION('',(0.,-1.,0.));
#384=VECTOR('',#383,28.);
#385=LINE('',#382,#384);
#386=EDGE_CURVE('',#374,#365,#385,.T.);
#387=ORIENTED_EDGE('',*,*,#386,.T.);
#388=EDGE_LOOP('',(#371,#372,#381,#387));
#389=FACE_BOUND('',#388,.T.);
#390=ADVANCED_FACE('',(#363,#389),#343,.F.);
#391=CARTESIAN_POINT('',(-32.5,-84.5,3.75));
#392=DIRECTION('',(1.,0.,0.));
#393=DIRECTION('',(0.,0.,-1.));
#394=AXIS2_PLACEMENT_3D('',#391,#392,#393);
#395=PLANE('',#394);
#396=CARTESIAN_POINT('',(-32.5,-112.5,3.5));
#397=VERTEX_POINT('',#396);
#398=CARTESIAN_POINT('',(-32.5,-112.5,3.5));
#399=DIRECTION('',(0.,0.,1.));
#400=VECTOR('',#399,0.5);
#401=LINE('',#398,#400);
#402=EDGE_CURVE('',#397,#365,#401,.T.);
#403=ORIENTED_EDGE('',*,*,#402,.T.);
#404=ORIENTED_EDGE('',*,*,#386,.F.);
#405=CARTESIAN_POINT('',(-32.5,-84.5,3.5));
#406=VERTEX_POINT('',#405);
#407=CARTESIAN_POINT('',(-32.5,-84.5,3.5));
#408=DIRECTION('',(0.,0.,1.));
#409=VECTOR('',#408,0.5);
#410=LINE('',#407,#409);
#411=EDGE_CURVE('',#406,#374,#410,.T.);
#412=ORIENTED_EDGE('',*,*,#411,.F.);
#413=CARTESIAN_POINT('',(-32.5,-84.5,3.5));
#414=DIRECTION('',(0.,-1.,0.));
#415=VECTOR('',#414,28.);
#416=LINE('',#413,#415);
#417=EDGE_CURVE('',#406,#397,#416,.T.);
#418=ORIENTED_EDGE('',*,*,#417,.T.);
#419=EDGE_LOOP('',(#403,#404,#412,#418));
#420=FACE_BOUND('',#419,.T.);
#421=ADVANCED_FACE('',(#420),#395,.F.);
#422=CARTESIAN_POINT('',(-33.75,-84.5,2.25));
#423=DIRECTION('',(-0.707106781,0.,0.707106781));
#424=DIRECTION('',(0.707106781,0.,0.707106781));
#425=AXIS2_PLACEMENT_3D('',#422,#423,#424);
#426=PLANE('',#425);
#427=ORIENTED_EDGE('',*,*,#178,.T.);
#428=CARTESIAN_POINT('',(-34.776570529,-86.306368244,1.223429471));
#429=VERTEX_POINT('',#428);
#430=CARTESIAN_POINT('',(-33.,-85.387783923,3.));
#431=DIRECTION('',(-0.707106781,0.,0.707106781));
#432=DIRECTION('',(0.707106781,0.,0.707106781));
#433=AXIS2_PLACEMENT_3D('',#430,#431,#432);
#434=ELLIPSE('',#433,2.828427125,2.);
#435=EDGE_CURVE('',#165,#429,#434,.T.);
#436=ORIENTED_EDGE('',*,*,#435,.T.);
#437=CARTESIAN_POINT('',(-34.366018877,-87.994266933,1.633981123));
#438=VERTEX_POINT('',#437);
#439=CARTESIAN_POINT('',(-38.041018877,-87.994266933,-2.041018877));
#440=DIRECTION('',(-0.707106781,0.,0.707106781));
#441=DIRECTION('',(0.707106781,0.,0.707106781));
#442=AXIS2_PLACEMENT_3D('',#439,#440,#441);
#443=ELLIPSE('',#442,5.197234842,3.675);
#444=EDGE_CURVE('',#438,#429,#443,.T.);
#445=ORIENTED_EDGE('',*,*,#444,.F.);
#446=CARTESIAN_POINT('',(-34.776570529,-89.682165621,1.223429471));
#447=VERTEX_POINT('',#446);
#448=CARTESIAN_POINT('',(-38.041018877,-87.994266933,-2.041018877));
#449=DIRECTION('',(-0.707106781,0.,0.707106781));
#450=DIRECTION('',(0.707106781,0.,0.707106781));
#451=AXIS2_PLACEMENT_3D('',#448,#449,#450);
#452=ELLIPSE('',#451,5.197234842,3.675);
#453=EDGE_CURVE('',#447,#438,#452,.T.);
#454=ORIENTED_EDGE('',*,*,#453,.F.);
#455=CARTESIAN_POINT('',(-35.,-90.600749942,1.));
#456=VERTEX_POINT('',#455);
#457=CARTESIAN_POINT('',(-33.,-90.600749942,3.));
#458=DIRECTION('',(-0.707106781,0.,0.707106781));
#459=DIRECTION('',(0.707106781,0.,0.707106781));
#460=AXIS2_PLACEMENT_3D('',#457,#458,#459);
#461=ELLIPSE('',#460,2.828427125,2.);
#462=EDGE_CURVE('',#447,#456,#461,.T.);
#463=ORIENTED_EDGE('',*,*,#462,.T.);
#464=CARTESIAN_POINT('',(-35.,-112.5,1.));
#465=VERTEX_POINT('',#464);
#466=CARTESIAN_POINT('',(-35.,-90.600749942,1.));
#467=DIRECTION('',(0.,-1.,0.));
#468=VECTOR('',#467,21.899250058);
#469=LINE('',#466,#468);
#470=EDGE_CURVE('',#456,#465,#469,.T.);
#471=ORIENTED_EDGE('',*,*,#470,.T.);
#472=CARTESIAN_POINT('',(-32.5,-112.5,3.5));
#473=DIRECTION('',(-0.707106781,0.,-0.707106781));
#474=VECTOR('',#473,3.535533906);
#475=LINE('',#472,#474);
#476=EDGE_CURVE('',#397,#465,#475,.T.);
#477=ORIENTED_EDGE('',*,*,#476,.F.);
#478=ORIENTED_EDGE('',*,*,#417,.F.);
#479=CARTESIAN_POINT('',(-32.5,-84.5,3.5));
#480=DIRECTION('',(-0.707106781,0.,-0.707106781));
#481=VECTOR('',#480,3.535533906);
#482=LINE('',#479,#481);
#483=EDGE_CURVE('',#406,#173,#482,.T.);
#484=ORIENTED_EDGE('',*,*,#483,.T.);
#485=EDGE_LOOP('',(#427,#436,#445,#454,#463,#471,#477,#478,#484));
#486=FACE_BOUND('',#485,.T.);
#487=ADVANCED_FACE('',(#486),#426,.T.);
#488=CARTESIAN_POINT('',(-35.,-84.5,0.5));
#489=DIRECTION('',(1.,0.,0.));
#490=DIRECTION('',(0.,0.,-1.));
#491=AXIS2_PLACEMENT_3D('',#488,#489,#490);
#492=PLANE('',#491);
#493=ORIENTED_EDGE('',*,*,#470,.F.);
#494=CARTESIAN_POINT('',(-35.,-90.600749942,1.));
#495=DIRECTION('',(0.,-0.,-1.));
#496=VECTOR('',#495,1.);
#497=LINE('',#494,#496);
#498=EDGE_CURVE('',#456,#141,#497,.T.);
#499=ORIENTED_EDGE('',*,*,#498,.T.);
#500=ORIENTED_EDGE('',*,*,#146,.T.);
#501=CARTESIAN_POINT('',(-35.,-112.5,0.));
#502=DIRECTION('',(-0.,0.,1.));
#503=VECTOR('',#502,1.);
#504=LINE('',#501,#503);
#505=EDGE_CURVE('',#133,#465,#504,.T.);
#506=ORIENTED_EDGE('',*,*,#505,.T.);
#507=EDGE_LOOP('',(#493,#499,#500,#506));
#508=FACE_BOUND('',#507,.T.);
#509=ADVANCED_FACE('',(#508),#492,.F.);
#510=CARTESIAN_POINT('',(-25.,-112.5,0.));
#511=DIRECTION('',(0.,-1.,0.));
#512=DIRECTION('',(0.,0.,-1.));
#513=AXIS2_PLACEMENT_3D('',#510,#511,#512);
#514=PLANE('',#513);
#515=ORIENTED_EDGE('',*,*,#138,.F.);
#516=ORIENTED_EDGE('',*,*,#246,.T.);
#517=ORIENTED_EDGE('',*,*,#295,.F.);
#518=ORIENTED_EDGE('',*,*,#319,.T.);
#519=ORIENTED_EDGE('',*,*,#370,.F.);
#520=ORIENTED_EDGE('',*,*,#402,.F.);
#521=ORIENTED_EDGE('',*,*,#476,.T.);
#522=ORIENTED_EDGE('',*,*,#505,.F.);
#523=EDGE_LOOP('',(#515,#516,#517,#518,#519,#520,#521,#522));
#524=FACE_BOUND('',#523,.T.);
#525=ADVANCED_FACE('',(#524),#514,.T.);
#526=CARTESIAN_POINT('',(-25.,-150.,1.));
#527=DIRECTION('',(0.,0.,-1.));
#528=DIRECTION('',(-1.,0.,0.));
#529=AXIS2_PLACEMENT_3D('',#526,#527,#528);
#530=PLANE('',#529);
#531=CARTESIAN_POINT('',(-25.05,-84.5,1.));
#532=VERTEX_POINT('',#531);
#533=CARTESIAN_POINT('',(-25.,-84.5,1.));
#534=DIRECTION('',(0.,0.,-1.));
#535=DIRECTION('',(-1.,0.,0.));
#536=AXIS2_PLACEMENT_3D('',#533,#534,#535);
#537=CIRCLE('',#536,0.05);
#538=EDGE_CURVE('',#532,#532,#537,.T.);
#539=ORIENTED_EDGE('',*,*,#538,.T.);
#540=EDGE_LOOP('',(#539));
#541=FACE_BOUND('',#540,.T.);
#542=ADVANCED_FACE('',(#541),#530,.T.);
#543=CARTESIAN_POINT('',(-25.,-84.5,1.));
#544=DIRECTION('',(0.,0.,-1.));
#545=DIRECTION('',(-1.,0.,0.));
#546=AXIS2_PLACEMENT_3D('',#543,#544,#545);
#547=CONICAL_SURFACE('',#546,0.05,45.);
#548=CARTESIAN_POINT('',(-26.05,-84.5,-0.));
#549=DIRECTION('',(0.707106781,-0.,0.707106781));
#550=VECTOR('',#549,1.414213562);
#551=LINE('',#548,#550);
#552=EDGE_CURVE('',#33,#532,#551,.T.);
#553=ORIENTED_EDGE('',*,*,#552,.F.);
#554=ORIENTED_EDGE('',*,*,#39,.T.);
#555=ORIENTED_EDGE('',*,*,#552,.T.);
#556=ORIENTED_EDGE('',*,*,#538,.F.);
#557=EDGE_LOOP('',(#553,#554,#555,#556));
#558=FACE_BOUND('',#557,.T.);
#559=ADVANCED_FACE('',(#558),#547,.F.);
#560=CARTESIAN_POINT('',(-25.,-84.5,0.));
#561=DIRECTION('',(0.,0.,1.));
#562=DIRECTION('',(1.,0.,-0.));
#563=AXIS2_PLACEMENT_3D('',#560,#561,#562);
#564=CYLINDRICAL_SURFACE('',#563,7.5);
#565=CARTESIAN_POINT('',(-25.,-84.5,3.5));
#566=DIRECTION('',(0.,0.,1.));
#567=DIRECTION('',(1.,0.,-0.));
#568=AXIS2_PLACEMENT_3D('',#565,#566,#567);
#569=CIRCLE('',#568,7.5);
#570=EDGE_CURVE('',#276,#406,#569,.T.);
#571=ORIENTED_EDGE('',*,*,#570,.T.);
#572=ORIENTED_EDGE('',*,*,#411,.T.);
#573=ORIENTED_EDGE('',*,*,#380,.F.);
#574=ORIENTED_EDGE('',*,*,#328,.F.);
#575=EDGE_LOOP('',(#571,#572,#573,#574));
#576=FACE_BOUND('',#575,.T.);
#577=ADVANCED_FACE('',(#576),#564,.T.);
#578=CARTESIAN_POINT('',(-25.,-84.5,1.));
#579=DIRECTION('',(0.,0.,-1.));
#580=DIRECTION('',(-1.,0.,0.));
#581=AXIS2_PLACEMENT_3D('',#578,#579,#580);
#582=CONICAL_SURFACE('',#581,10.,45.);
#583=ORIENTED_EDGE('',*,*,#570,.F.);
#584=ORIENTED_EDGE('',*,*,#281,.T.);
#585=CARTESIAN_POINT('',(-25.,-84.5,1.));
#586=DIRECTION('',(0.,0.,1.));
#587=DIRECTION('',(1.,0.,-0.));
#588=AXIS2_PLACEMENT_3D('',#585,#586,#587);
#589=CIRCLE('',#588,10.);
#590=EDGE_CURVE('',#195,#173,#589,.T.);
#591=ORIENTED_EDGE('',*,*,#590,.T.);
#592=ORIENTED_EDGE('',*,*,#483,.F.);
#593=EDGE_LOOP('',(#583,#584,#591,#592));
#594=FACE_BOUND('',#593,.T.);
#595=ADVANCED_FACE('',(#594),#582,.T.);
#596=CARTESIAN_POINT('',(-25.,-84.5,0.));
#597=DIRECTION('',(0.,0.,1.));
#598=DIRECTION('',(1.,0.,-0.));
#599=AXIS2_PLACEMENT_3D('',#596,#597,#598);
#600=CYLINDRICAL_SURFACE('',#599,10.);
#601=ORIENTED_EDGE('',*,*,#87,.T.);
#602=ORIENTED_EDGE('',*,*,#184,.T.);
#603=ORIENTED_EDGE('',*,*,#590,.F.);
#604=ORIENTED_EDGE('',*,*,#215,.F.);
#605=EDGE_LOOP('',(#601,#602,#603,#604));
#606=FACE_BOUND('',#605,.T.);
#607=ADVANCED_FACE('',(#606),#600,.T.);
#608=CARTESIAN_POINT('',(-11.958981123,-90.994266933,-0.002));
#609=DIRECTION('',(0.,0.,1.));
#610=DIRECTION('',(1.,0.,-0.));
#611=AXIS2_PLACEMENT_3D('',#608,#609,#610);
#612=CYLINDRICAL_SURFACE('',#611,3.675);
#613=ORIENTED_EDGE('',*,*,#113,.T.);
#614=CARTESIAN_POINT('',(-15.223429471,-89.306368244,0.));
#615=DIRECTION('',(0.,0.,1.));
#616=VECTOR('',#615,1.223429471);
#617=LINE('',#614,#616);
#618=EDGE_CURVE('',#98,#259,#617,.T.);
#619=ORIENTED_EDGE('',*,*,#618,.T.);
#620=ORIENTED_EDGE('',*,*,#265,.F.);
#621=CARTESIAN_POINT('',(-15.223429471,-92.682165621,1.223429471));
#622=DIRECTION('',(-0.,-0.,-1.));
#623=VECTOR('',#622,1.223429471);
#624=LINE('',#621,#623);
#625=EDGE_CURVE('',#257,#107,#624,.T.);
#626=ORIENTED_EDGE('',*,*,#625,.T.);
#627=EDGE_LOOP('',(#613,#619,#620,#626));
#628=FACE_BOUND('',#627,.T.);
#629=ADVANCED_FACE('',(#628),#612,.F.);
#630=CARTESIAN_POINT('',(-38.041018877,-87.994266933,-0.002));
#631=DIRECTION('',(0.,0.,1.));
#632=DIRECTION('',(1.,0.,-0.));
#633=AXIS2_PLACEMENT_3D('',#630,#631,#632);
#634=CYLINDRICAL_SURFACE('',#633,3.675);
#635=CARTESIAN_POINT('',(-34.366018877,-87.994266933,1.633981123));
#636=DIRECTION('',(-0.,-0.,-1.));
#637=VECTOR('',#636,1.633981123);
#638=LINE('',#635,#637);
#639=EDGE_CURVE('',#438,#44,#638,.T.);
#640=ORIENTED_EDGE('',*,*,#639,.F.);
#641=ORIENTED_EDGE('',*,*,#444,.T.);
#642=CARTESIAN_POINT('',(-34.776570529,-86.306368244,1.223429471));
#643=DIRECTION('',(-0.,-0.,-1.));
#644=VECTOR('',#643,1.223429471);
#645=LINE('',#642,#644);
#646=EDGE_CURVE('',#429,#55,#645,.T.);
#647=ORIENTED_EDGE('',*,*,#646,.T.);
#648=ORIENTED_EDGE('',*,*,#61,.T.);
#649=EDGE_LOOP('',(#640,#641,#647,#648));
#650=FACE_BOUND('',#649,.T.);
#651=ADVANCED_FACE('',(#650),#634,.F.);
#652=CARTESIAN_POINT('',(-33.,-85.387783923,-0.002));
#653=DIRECTION('',(0.,0.,1.));
#654=DIRECTION('',(1.,0.,-0.));
#655=AXIS2_PLACEMENT_3D('',#652,#653,#654);
#656=CYLINDRICAL_SURFACE('',#655,2.);
#657=ORIENTED_EDGE('',*,*,#70,.F.);
#658=ORIENTED_EDGE('',*,*,#646,.F.);
#659=ORIENTED_EDGE('',*,*,#435,.F.);
#660=ORIENTED_EDGE('',*,*,#170,.F.);
#661=EDGE_LOOP('',(#657,#658,#659,#660));
#662=FACE_BOUND('',#661,.T.);
#663=ADVANCED_FACE('',(#662),#656,.T.);
#664=CARTESIAN_POINT('',(-33.,-90.600749942,-0.002));
#665=DIRECTION('',(0.,0.,1.));
#666=DIRECTION('',(1.,0.,-0.));
#667=AXIS2_PLACEMENT_3D('',#664,#665,#666);
#668=CYLINDRICAL_SURFACE('',#667,2.);
#669=ORIENTED_EDGE('',*,*,#462,.F.);
#670=CARTESIAN_POINT('',(-34.776570529,-89.682165621,0.));
#671=DIRECTION('',(0.,0.,1.));
#672=VECTOR('',#671,1.223429471);
#673=LINE('',#670,#672);
#674=EDGE_CURVE('',#46,#447,#673,.T.);
#675=ORIENTED_EDGE('',*,*,#674,.F.);
#676=ORIENTED_EDGE('',*,*,#153,.F.);
#677=ORIENTED_EDGE('',*,*,#498,.F.);
#678=EDGE_LOOP('',(#669,#675,#676,#677));
#679=FACE_BOUND('',#678,.T.);
#680=ADVANCED_FACE('',(#679),#668,.T.);
#681=CARTESIAN_POINT('',(-17.,-88.387783923,-0.002));
#682=DIRECTION('',(0.,0.,1.));
#683=DIRECTION('',(1.,0.,-0.));
#684=AXIS2_PLACEMENT_3D('',#681,#682,#683);
#685=CYLINDRICAL_SURFACE('',#684,2.);
#686=ORIENTED_EDGE('',*,*,#104,.F.);
#687=ORIENTED_EDGE('',*,*,#208,.F.);
#688=ORIENTED_EDGE('',*,*,#272,.F.);
#689=ORIENTED_EDGE('',*,*,#618,.F.);
#690=EDGE_LOOP('',(#686,#687,#688,#689));
#691=FACE_BOUND('',#690,.T.);
#692=ADVANCED_FACE('',(#691),#685,.T.);
#693=CARTESIAN_POINT('',(-17.,-93.600749942,-0.002));
#694=DIRECTION('',(0.,0.,1.));
#695=DIRECTION('',(1.,0.,-0.));
#696=AXIS2_PLACEMENT_3D('',#693,#694,#695);
#697=CYLINDRICAL_SURFACE('',#696,2.);
#698=ORIENTED_EDGE('',*,*,#303,.F.);
#699=ORIENTED_EDGE('',*,*,#232,.F.);
#700=ORIENTED_EDGE('',*,*,#122,.F.);
#701=ORIENTED_EDGE('',*,*,#625,.F.);
#702=EDGE_LOOP('',(#698,#699,#700,#701));
#703=FACE_BOUND('',#702,.T.);
#704=ADVANCED_FACE('',(#703),#697,.T.);
#705=CARTESIAN_POINT('',(-25.,-91.5,11.));
#706=DIRECTION('',(0.,0.,-1.));
#707=DIRECTION('',(-1.,0.,0.));
#708=AXIS2_PLACEMENT_3D('',#705,#706,#707);
#709=CYLINDRICAL_SURFACE('',#708,6.);
#710=CARTESIAN_POINT('',(-31.,-91.5,11.));
#711=VERTEX_POINT('',#710);
#712=CARTESIAN_POINT('',(-31.,-91.5,4.));
#713=DIRECTION('',(-0.,-0.,1.));
#714=VECTOR('',#713,7.);
#715=LINE('',#712,#714);
#716=EDGE_CURVE('',#345,#711,#715,.T.);
#717=ORIENTED_EDGE('',*,*,#716,.T.);
#718=CARTESIAN_POINT('',(-19.,-91.5,11.));
#719=VERTEX_POINT('',#718);
#720=CARTESIAN_POINT('',(-25.,-91.5,11.));
#721=DIRECTION('',(0.,0.,1.));
#722=DIRECTION('',(1.,0.,-0.));
#723=AXIS2_PLACEMENT_3D('',#720,#721,#722);
#724=CIRCLE('',#723,6.);
#725=EDGE_CURVE('',#719,#711,#724,.T.);
#726=ORIENTED_EDGE('',*,*,#725,.F.);
#727=CARTESIAN_POINT('',(-25.,-91.5,11.));
#728=DIRECTION('',(0.,0.,1.));
#729=DIRECTION('',(1.,0.,-0.));
#730=AXIS2_PLACEMENT_3D('',#727,#728,#729);
#731=CIRCLE('',#730,6.);
#732=EDGE_CURVE('',#711,#719,#731,.T.);
#733=ORIENTED_EDGE('',*,*,#732,.F.);
#734=ORIENTED_EDGE('',*,*,#716,.F.);
#735=ORIENTED_EDGE('',*,*,#353,.T.);
#736=ORIENTED_EDGE('',*,*,#360,.T.);
#737=EDGE_LOOP('',(#717,#726,#733,#734,#735,#736));
#738=FACE_BOUND('',#737,.T.);
#739=ADVANCED_FACE('',(#738),#709,.T.);
#740=CARTESIAN_POINT('',(0.,0.,11.));
#741=DIRECTION('',(0.,0.,1.));
#742=DIRECTION('',(1.,0.,0.));
#743=AXIS2_PLACEMENT_3D('',#740,#741,#742);
#744=PLANE('',#743);
#745=ORIENTED_EDGE('',*,*,#725,.T.);
#746=ORIENTED_EDGE('',*,*,#732,.T.);
#747=EDGE_LOOP('',(#745,#746));
#748=FACE_BOUND('',#747,.T.);
#749=ADVANCED_FACE('',(#748),#744,.T.);
#750=CARTESIAN_POINT('',(-38.041018877,-87.994266933,-0.002));
#751=DIRECTION('',(0.,0.,1.));
#752=DIRECTION('',(1.,0.,-0.));
#753=AXIS2_PLACEMENT_3D('',#750,#751,#752);
#754=CYLINDRICAL_SURFACE('',#753,3.675);
#755=ORIENTED_EDGE('',*,*,#639,.T.);
#756=ORIENTED_EDGE('',*,*,#52,.T.);
#757=ORIENTED_EDGE('',*,*,#674,.T.);
#758=ORIENTED_EDGE('',*,*,#453,.T.);
#759=EDGE_LOOP('',(#755,#756,#757,#758));
#760=FACE_BOUND('',#759,.T.);
#761=ADVANCED_FACE('',(#760),#754,.F.);
#762=CLOSED_SHELL('',(#157,#188,#219,#250,#307,#338,#390,#421,#487,#509,#525,#542,#559,#577,#595,#607,#629,#651,#663,#680,#692,#704,#739,#749,#761));
#763=MANIFOLD_SOLID_BREP('EXAMPLE Snap In Slot',#762);
#764=COLOUR_RGB('',0.580392182,0.580392182,0.580392182);
#765=FILL_AREA_STYLE_COLOUR('',#764);
#766=FILL_AREA_STYLE('',(#765));
#767=SURFACE_STYLE_FILL_AREA(#766);
#768=SURFACE_SIDE_STYLE('',(#767));
#769=SURFACE_STYLE_USAGE(.BOTH.,#768);
#770=PRESENTATION_STYLE_ASSIGNMENT((#769));
#26=STYLED_ITEM('',(#770),#763);
#16=SHAPE_REPRESENTATION('EXAMPLE Snap In Slot',(#15),#10);
#17=ADVANCED_BREP_SHAPE_REPRESENTATION('EXAMPLE Snap In Slot',(#763),#10);
#778=SHAPE_REPRESENTATION_RELATIONSHIP('','',#16,#17);
#779=CARTESIAN_POINT('',(0.,0.,0.));
#780=DIRECTION('',(0.,0.,1.));
#781=DIRECTION('',(1.,0.,0.));
#782=AXIS2_PLACEMENT_3D('',#779,#780,#781);
#784=MAPPED_ITEM('',#783,#782);
#783=REPRESENTATION_MAP(#782,#16);
#785=APPLICATION_CONTEXT('Managed model based 3d engineering');
#786=APPLICATION_PROTOCOL_DEFINITION('international standard','ap242_managed_model_based_3d_engineering',2014,#785);
#787=PRODUCT_CONTEXT('',#785,'mechanical');
#788=PRODUCT_DEFINITION_CONTEXT('part definition',#785,'design');
#24=PRODUCT('EXAMPLE Snap In Slot','EXAMPLE Snap In Slot','',(#787));
#789=PRODUCT_RELATED_PRODUCT_CATEGORY('part','',(#24));
#790=PRODUCT_DEFINITION_FORMATION_WITH_SPECIFIED_SOURCE('','',#24,.NOT_KNOWN.);
#25=PRODUCT_DEFINITION('design','',#790,#788);
#23=PRODUCT_DEFINITION_SHAPE('','',#25);
#791=SHAPE_DEFINITION_REPRESENTATION(#23,#16);
#11=DRAUGHTING_MODEL('',(#784),#10);
#792=DESCRIPTIVE_REPRESENTATION_ITEM('KEY','/Users/ddanier/Library/Containers/com.shapr3d.shapr/Data/tmp/1A2C089D-9ED8-4400-AA3C-0AF5B9F7B254.tmp');
#793=PROPERTY_DEFINITION('KEY','',#25);
#794=REPRESENTATION('',(#792),#10);
#795=PROPERTY_DEFINITION_REPRESENTATION(#793,#794);
#796=GENERAL_PROPERTY('','KEY','');
#797=GENERAL_PROPERTY_ASSOCIATION('','',#796,#793);
#1=MECHANICAL_DESIGN_GEOMETRIC_PRESENTATION_REPRESENTATION('',(#26),#10);
ENDSEC;
END-ISO-10303-21;
