ISO-10303-21;
HEADER;

/* File generated by Shapr3D Version 5.800.0.8232 */

FILE_DESCRIPTION(('HOOPS Exchange Step'),'2;1');

FILE_NAME('/Users/ddanier/Library/Containers/com.shapr3d.shapr/Data/tmp/export/temp_export',
'2025-03-02T22:00:28+01:00',
('ddanier'),
('Shapr3D Limited'),
'HOOPS Exchange 2024.8',
'Shapr3D',
'Authorized');

FILE_SCHEMA( ('AP242_MANAGED_MODEL_BASED_3D_ENGINEERING_MIM_LF {1 0 10303 442 1 1 4}') );

ENDSEC;

DATA;
#3=(NAMED_UNIT(*)PLANE_ANGLE_UNIT()SI_UNIT($,.RADIAN.));
#4=PLANE_ANGLE_MEASURE_WITH_UNIT(PLANE_ANGLE_MEASURE(0.0174532925),#3);
#5=(CONVERSION_BASED_UNIT('DEGREE',#4)NAMED_UNIT(#6)PLANE_ANGLE_UNIT());
#6=DIMENSIONAL_EXPONENTS(0.,0.,0.,0.,0.,0.,0.);
#7=(NAMED_UNIT(*)SI_UNIT($,.STERADIAN.)SOLID_ANGLE_UNIT());
#8=(LENGTH_UNIT()NAMED_UNIT(*)SI_UNIT(.MILLI.,.METRE.));
#9=UNCERTAINTY_MEASURE_WITH_UNIT(LENGTH_MEASURE(1.000000E-05),#8,'DISTANCE_ACCURACY_VALUE','Maximum Tolerance applied to model');
#10=(GEOMETRIC_REPRESENTATION_CONTEXT(3)GLOBAL_UNCERTAINTY_ASSIGNED_CONTEXT((#9))GLOBAL_UNIT_ASSIGNED_CONTEXT((#8,#5,#7))REPRESENTATION_CONTEXT('','Opening Raw Slot Back'));
#12=CARTESIAN_POINT('',(0.,0.,0.));
#13=DIRECTION('',(0.,0.,1.));
#14=DIRECTION('',(1.,0.,0.));
#15=AXIS2_PLACEMENT_3D('TS3D_PRODUCT_CSYS',#12,#13,#14);
#27=CARTESIAN_POINT('',(84.,0.,6.4));
#28=DIRECTION('',(0.,0.,1.));
#29=DIRECTION('',(1.,0.,0.));
#30=AXIS2_PLACEMENT_3D('',#27,#28,#29);
#31=PLANE('',#30);
#32=CARTESIAN_POINT('',(141.65,14.,6.4));
#33=VERTEX_POINT('',#32);
#34=CARTESIAN_POINT('',(141.65,-4.034566182,6.4));
#35=VERTEX_POINT('',#34);
#36=CARTESIAN_POINT('',(141.65,14.,6.4));
#37=DIRECTION('',(0.,-1.,0.));
#38=VECTOR('',#37,18.034566182);
#39=LINE('',#36,#38);
#40=EDGE_CURVE('',#33,#35,#39,.T.);
#41=ORIENTED_EDGE('',*,*,#40,.T.);
#42=CARTESIAN_POINT('',(142.752501986,-7.33713958,6.4));
#43=VERTEX_POINT('',#42);
#44=CARTESIAN_POINT('',(141.65,-4.034566182,6.4));
#45=CARTESIAN_POINT('',(141.65,-4.332460847,6.4));
#46=CARTESIAN_POINT('',(141.673820542,-4.626615974,6.4));
#47=CARTESIAN_POINT('',(141.72066711,-4.917156294,6.4));
#48=CARTESIAN_POINT('',(141.767513678,-5.207696614,6.4));
#49=CARTESIAN_POINT('',(141.837632881,-5.495372177,6.4));
#50=CARTESIAN_POINT('',(141.931471179,-5.777676952,6.4));
#51=CARTESIAN_POINT('',(142.025309476,-6.059981727,6.4));
#52=CARTESIAN_POINT('',(142.140775713,-6.331022748,6.4));
#53=CARTESIAN_POINT('',(142.277444182,-6.591021721,6.4));
#54=CARTESIAN_POINT('',(142.41411265,-6.851020694,6.4));
#55=CARTESIAN_POINT('',(142.571968822,-7.099985186,6.4));
#56=CARTESIAN_POINT('',(142.752501986,-7.33713958,6.4));
#57=B_SPLINE_CURVE_WITH_KNOTS('',3,(#44,#45,#46,#47,#48,#49,#50,#51,#52,#53,#54,#55,#56),.UNSPECIFIED.,.F.,.F.,(4,3,3,3,4),(0.,0.000882871,0.001765742,0.002648613,0.003531484),.UNSPECIFIED.);
#58=EDGE_CURVE('',#35,#43,#57,.T.);
#59=ORIENTED_EDGE('',*,*,#58,.T.);
#60=CARTESIAN_POINT('',(145.,-14.,6.4));
#61=VERTEX_POINT('',#60);
#62=CARTESIAN_POINT('',(134.,-14.,6.4));
#63=DIRECTION('',(0.,0.,1.));
#64=DIRECTION('',(1.,0.,-0.));
#65=AXIS2_PLACEMENT_3D('',#62,#63,#64);
#66=CIRCLE('',#65,11.);
#67=EDGE_CURVE('',#61,#43,#66,.T.);
#68=ORIENTED_EDGE('',*,*,#67,.F.);
#69=CARTESIAN_POINT('',(148.,-14.,6.4));
#70=VERTEX_POINT('',#69);
#71=CARTESIAN_POINT('',(148.,-14.,6.4));
#72=DIRECTION('',(-1.,-0.,0.));
#73=VECTOR('',#72,3.);
#74=LINE('',#71,#73);
#75=EDGE_CURVE('',#70,#61,#74,.T.);
#76=ORIENTED_EDGE('',*,*,#75,.F.);
#77=CARTESIAN_POINT('',(148.,14.,6.4));
#78=VERTEX_POINT('',#77);
#79=CARTESIAN_POINT('',(148.,14.,6.4));
#80=DIRECTION('',(0.,-1.,0.));
#81=VECTOR('',#80,28.);
#82=LINE('',#79,#81);
#83=EDGE_CURVE('',#78,#70,#82,.T.);
#84=ORIENTED_EDGE('',*,*,#83,.F.);
#85=CARTESIAN_POINT('',(141.65,14.,6.4));
#86=DIRECTION('',(1.,0.,-0.));
#87=VECTOR('',#86,6.35);
#88=LINE('',#85,#87);
#89=EDGE_CURVE('',#33,#78,#88,.T.);
#90=ORIENTED_EDGE('',*,*,#89,.F.);
#91=EDGE_LOOP('',(#41,#59,#68,#76,#84,#90));
#92=FACE_BOUND('',#91,.T.);
#93=ADVANCED_FACE('',(#92),#31,.T.);
#94=CARTESIAN_POINT('',(134.,14.,6.4));
#95=DIRECTION('',(0.,1.,0.));
#96=DIRECTION('',(0.,0.,1.));
#97=AXIS2_PLACEMENT_3D('',#94,#95,#96);
#98=PLANE('',#97);
#99=CARTESIAN_POINT('',(144.15,14.,3.462132034));
#100=VERTEX_POINT('',#99);
#101=CARTESIAN_POINT('',(141.65,14.,5.962132034));
#102=VERTEX_POINT('',#101);
#103=CARTESIAN_POINT('',(144.15,14.,3.462132034));
#104=DIRECTION('',(-0.707106781,0.,0.707106781));
#105=VECTOR('',#104,3.535533906);
#106=LINE('',#103,#105);
#107=EDGE_CURVE('',#100,#102,#106,.T.);
#108=ORIENTED_EDGE('',*,*,#107,.T.);
#109=CARTESIAN_POINT('',(141.65,14.,5.962132034));
#110=DIRECTION('',(0.,0.,1.));
#111=VECTOR('',#110,0.437867966);
#112=LINE('',#109,#111);
#113=EDGE_CURVE('',#102,#33,#112,.T.);
#114=ORIENTED_EDGE('',*,*,#113,.T.);
#115=ORIENTED_EDGE('',*,*,#89,.T.);
#116=CARTESIAN_POINT('',(148.,14.,0.));
#117=VERTEX_POINT('',#116);
#118=CARTESIAN_POINT('',(148.,14.,6.4));
#119=DIRECTION('',(0.,0.,-1.));
#120=VECTOR('',#119,6.4);
#121=LINE('',#118,#120);
#122=EDGE_CURVE('',#78,#117,#121,.T.);
#123=ORIENTED_EDGE('',*,*,#122,.T.);
#124=CARTESIAN_POINT('',(120.,14.,0.));
#125=VERTEX_POINT('',#124);
#126=CARTESIAN_POINT('',(120.,14.,0.));
#127=DIRECTION('',(1.,0.,-0.));
#128=VECTOR('',#127,28.);
#129=LINE('',#126,#128);
#130=EDGE_CURVE('',#125,#117,#129,.T.);
#131=ORIENTED_EDGE('',*,*,#130,.F.);
#132=CARTESIAN_POINT('',(120.,14.,6.4));
#133=VERTEX_POINT('',#132);
#134=CARTESIAN_POINT('',(120.,14.,6.4));
#135=DIRECTION('',(0.,0.,-1.));
#136=VECTOR('',#135,6.4);
#137=LINE('',#134,#136);
#138=EDGE_CURVE('',#133,#125,#137,.T.);
#139=ORIENTED_EDGE('',*,*,#138,.F.);
#140=CARTESIAN_POINT('',(126.35,14.,6.4));
#141=VERTEX_POINT('',#140);
#142=CARTESIAN_POINT('',(120.,14.,6.4));
#143=DIRECTION('',(1.,0.,-0.));
#144=VECTOR('',#143,6.35);
#145=LINE('',#142,#144);
#146=EDGE_CURVE('',#133,#141,#145,.T.);
#147=ORIENTED_EDGE('',*,*,#146,.T.);
#148=CARTESIAN_POINT('',(126.35,14.,5.962132034));
#149=VERTEX_POINT('',#148);
#150=CARTESIAN_POINT('',(126.35,14.,5.962132034));
#151=DIRECTION('',(0.,0.,1.));
#152=VECTOR('',#151,0.437867966);
#153=LINE('',#150,#152);
#154=EDGE_CURVE('',#149,#141,#153,.T.);
#155=ORIENTED_EDGE('',*,*,#154,.F.);
#156=CARTESIAN_POINT('',(123.85,14.,3.462132034));
#157=VERTEX_POINT('',#156);
#158=CARTESIAN_POINT('',(123.85,14.,3.462132034));
#159=DIRECTION('',(0.707106781,0.,0.707106781));
#160=VECTOR('',#159,3.535533906);
#161=LINE('',#158,#160);
#162=EDGE_CURVE('',#157,#149,#161,.T.);
#163=ORIENTED_EDGE('',*,*,#162,.F.);
#164=CARTESIAN_POINT('',(123.85,14.,2.25));
#165=VERTEX_POINT('',#164);
#166=CARTESIAN_POINT('',(123.85,14.,2.25));
#167=DIRECTION('',(-0.,0.,1.));
#168=VECTOR('',#167,1.212132034);
#169=LINE('',#166,#168);
#170=EDGE_CURVE('',#165,#157,#169,.T.);
#171=ORIENTED_EDGE('',*,*,#170,.F.);
#172=CARTESIAN_POINT('',(144.15,14.,2.25));
#173=VERTEX_POINT('',#172);
#174=CARTESIAN_POINT('',(123.85,14.,2.25));
#175=DIRECTION('',(1.,0.,0.));
#176=VECTOR('',#175,20.3);
#177=LINE('',#174,#176);
#178=EDGE_CURVE('',#165,#173,#177,.T.);
#179=ORIENTED_EDGE('',*,*,#178,.T.);
#180=CARTESIAN_POINT('',(144.15,14.,2.25));
#181=DIRECTION('',(-0.,0.,1.));
#182=VECTOR('',#181,1.212132034);
#183=LINE('',#180,#182);
#184=EDGE_CURVE('',#173,#100,#183,.T.);
#185=ORIENTED_EDGE('',*,*,#184,.T.);
#186=EDGE_LOOP('',(#108,#114,#115,#123,#131,#139,#147,#155,#163,#171,#179,#185));
#187=FACE_BOUND('',#186,.T.);
#188=ADVANCED_FACE('',(#187),#98,.T.);
#189=CARTESIAN_POINT('',(134.,-14.,6.4));
#190=DIRECTION('',(0.,-1.,0.));
#191=DIRECTION('',(1.,0.,0.));
#192=AXIS2_PLACEMENT_3D('',#189,#190,#191);
#193=PLANE('',#192);
#194=CARTESIAN_POINT('',(123.824250314,-14.,2.25));
#195=VERTEX_POINT('',#194);
#196=CARTESIAN_POINT('',(144.175749686,-14.,2.25));
#197=VERTEX_POINT('',#196);
#198=CARTESIAN_POINT('',(123.824250314,-14.,2.25));
#199=DIRECTION('',(1.,0.,0.));
#200=VECTOR('',#199,20.351499372);
#201=LINE('',#198,#200);
#202=EDGE_CURVE('',#195,#197,#201,.T.);
#203=ORIENTED_EDGE('',*,*,#202,.F.);
#204=CARTESIAN_POINT('',(123.748311159,-14.,2.74648081));
#205=VERTEX_POINT('',#204);
#206=CARTESIAN_POINT('',(118.85,-14.,1.743212259));
#207=DIRECTION('',(0.,-1.,0.));
#208=DIRECTION('',(1.,0.,0.));
#209=AXIS2_PLACEMENT_3D('',#206,#207,#208);
#210=CIRCLE('',#209,5.);
#211=EDGE_CURVE('',#195,#205,#210,.T.);
#212=ORIENTED_EDGE('',*,*,#211,.T.);
#213=CARTESIAN_POINT('',(123.,-14.,6.4));
#214=VERTEX_POINT('',#213);
#215=CARTESIAN_POINT('',(123.,-14.,6.4));
#216=DIRECTION('',(0.20065371,0.,-0.979662232));
#217=VECTOR('',#216,3.729366175);
#218=LINE('',#215,#217);
#219=EDGE_CURVE('',#214,#205,#218,.T.);
#220=ORIENTED_EDGE('',*,*,#219,.F.);
#221=CARTESIAN_POINT('',(120.,-14.,6.4));
#222=VERTEX_POINT('',#221);
#223=CARTESIAN_POINT('',(123.,-14.,6.4));
#224=DIRECTION('',(-1.,-0.,0.));
#225=VECTOR('',#224,3.);
#226=LINE('',#223,#225);
#227=EDGE_CURVE('',#214,#222,#226,.T.);
#228=ORIENTED_EDGE('',*,*,#227,.T.);
#229=CARTESIAN_POINT('',(120.,-14.,0.));
#230=VERTEX_POINT('',#229);
#231=CARTESIAN_POINT('',(120.,-14.,6.4));
#232=DIRECTION('',(0.,0.,-1.));
#233=VECTOR('',#232,6.4);
#234=LINE('',#231,#233);
#235=EDGE_CURVE('',#222,#230,#234,.T.);
#236=ORIENTED_EDGE('',*,*,#235,.T.);
#237=CARTESIAN_POINT('',(148.,-14.,0.));
#238=VERTEX_POINT('',#237);
#239=CARTESIAN_POINT('',(148.,-14.,0.));
#240=DIRECTION('',(-1.,-0.,0.));
#241=VECTOR('',#240,28.);
#242=LINE('',#239,#241);
#243=EDGE_CURVE('',#238,#230,#242,.T.);
#244=ORIENTED_EDGE('',*,*,#243,.F.);
#245=CARTESIAN_POINT('',(148.,-14.,6.4));
#246=DIRECTION('',(0.,0.,-1.));
#247=VECTOR('',#246,6.4);
#248=LINE('',#245,#247);
#249=EDGE_CURVE('',#70,#238,#248,.T.);
#250=ORIENTED_EDGE('',*,*,#249,.F.);
#251=ORIENTED_EDGE('',*,*,#75,.T.);
#252=CARTESIAN_POINT('',(144.251688841,-14.,2.74648081));
#253=VERTEX_POINT('',#252);
#254=CARTESIAN_POINT('',(144.251688841,-14.,2.74648081));
#255=DIRECTION('',(0.20065371,0.,0.979662232));
#256=VECTOR('',#255,3.729366175);
#257=LINE('',#254,#256);
#258=EDGE_CURVE('',#253,#61,#257,.T.);
#259=ORIENTED_EDGE('',*,*,#258,.F.);
#260=CARTESIAN_POINT('',(149.15,-14.,1.743212259));
#261=DIRECTION('',(0.,-1.,0.));
#262=DIRECTION('',(1.,0.,0.));
#263=AXIS2_PLACEMENT_3D('',#260,#261,#262);
#264=CIRCLE('',#263,5.);
#265=EDGE_CURVE('',#253,#197,#264,.T.);
#266=ORIENTED_EDGE('',*,*,#265,.T.);
#267=EDGE_LOOP('',(#203,#212,#220,#228,#236,#244,#250,#251,#259,#266));
#268=FACE_BOUND('',#267,.T.);
#269=ADVANCED_FACE('',(#268),#193,.T.);
#270=CARTESIAN_POINT('',(148.,0.,6.4));
#271=DIRECTION('',(1.,0.,0.));
#272=DIRECTION('',(0.,0.,-1.));
#273=AXIS2_PLACEMENT_3D('',#270,#271,#272);
#274=PLANE('',#273);
#275=CARTESIAN_POINT('',(148.,14.,0.));
#276=DIRECTION('',(0.,-1.,0.));
#277=VECTOR('',#276,28.);
#278=LINE('',#275,#277);
#279=EDGE_CURVE('',#117,#238,#278,.T.);
#280=ORIENTED_EDGE('',*,*,#279,.F.);
#281=ORIENTED_EDGE('',*,*,#122,.F.);
#282=ORIENTED_EDGE('',*,*,#83,.T.);
#283=ORIENTED_EDGE('',*,*,#249,.T.);
#284=EDGE_LOOP('',(#280,#281,#282,#283));
#285=FACE_BOUND('',#284,.T.);
#286=ADVANCED_FACE('',(#285),#274,.T.);
#287=CARTESIAN_POINT('',(120.,0.,6.4));
#288=DIRECTION('',(-1.,-0.,0.));
#289=DIRECTION('',(0.,-1.,0.));
#290=AXIS2_PLACEMENT_3D('',#287,#288,#289);
#291=PLANE('',#290);
#292=CARTESIAN_POINT('',(120.,-14.,0.));
#293=DIRECTION('',(-0.,1.,0.));
#294=VECTOR('',#293,28.);
#295=LINE('',#292,#294);
#296=EDGE_CURVE('',#230,#125,#295,.T.);
#297=ORIENTED_EDGE('',*,*,#296,.F.);
#298=ORIENTED_EDGE('',*,*,#235,.F.);
#299=CARTESIAN_POINT('',(120.,-14.,6.4));
#300=DIRECTION('',(-0.,1.,0.));
#301=VECTOR('',#300,28.);
#302=LINE('',#299,#301);
#303=EDGE_CURVE('',#222,#133,#302,.T.);
#304=ORIENTED_EDGE('',*,*,#303,.T.);
#305=ORIENTED_EDGE('',*,*,#138,.T.);
#306=EDGE_LOOP('',(#297,#298,#304,#305));
#307=FACE_BOUND('',#306,.T.);
#308=ADVANCED_FACE('',(#307),#291,.T.);
#309=CARTESIAN_POINT('',(84.,0.,6.4));
#310=DIRECTION('',(0.,0.,1.));
#311=DIRECTION('',(1.,0.,0.));
#312=AXIS2_PLACEMENT_3D('',#309,#310,#311);
#313=PLANE('',#312);
#314=CARTESIAN_POINT('',(125.247498014,-7.33713958,6.4));
#315=VERTEX_POINT('',#314);
#316=CARTESIAN_POINT('',(134.,-14.,6.4));
#317=DIRECTION('',(0.,0.,1.));
#318=DIRECTION('',(1.,0.,-0.));
#319=AXIS2_PLACEMENT_3D('',#316,#317,#318);
#320=CIRCLE('',#319,11.);
#321=EDGE_CURVE('',#315,#214,#320,.T.);
#322=ORIENTED_EDGE('',*,*,#321,.F.);
#323=CARTESIAN_POINT('',(126.35,-4.034566182,6.4));
#324=VERTEX_POINT('',#323);
#325=CARTESIAN_POINT('',(125.247498014,-7.33713958,6.4));
#326=CARTESIAN_POINT('',(125.428025071,-7.09999385,6.4));
#327=CARTESIAN_POINT('',(125.586063221,-6.850788817,6.4));
#328=CARTESIAN_POINT('',(125.722962287,-6.5902483,6.4));
#329=CARTESIAN_POINT('',(125.859861353,-6.329707782,6.4));
#330=CARTESIAN_POINT('',(125.976010929,-6.056580479,6.4));
#331=CARTESIAN_POINT('',(126.069580193,-5.774510764,6.4));
#332=CARTESIAN_POINT('',(126.163149457,-5.492441049,6.4));
#333=CARTESIAN_POINT('',(126.232753904,-5.206318039,6.4));
#334=CARTESIAN_POINT('',(126.279467134,-4.916323317,6.4));
#335=CARTESIAN_POINT('',(126.326180364,-4.626328595,6.4));
#336=CARTESIAN_POINT('',(126.35,-4.332461759,6.4));
#337=CARTESIAN_POINT('',(126.35,-4.034566182,6.4));
#338=B_SPLINE_CURVE_WITH_KNOTS('',3,(#325,#326,#327,#328,#329,#330,#331,#332,#333,#334,#335,#336,#337),.UNSPECIFIED.,.F.,.F.,(4,3,3,3,4),(0.,0.000882921,0.001765842,0.002648762,0.003531683),.UNSPECIFIED.);
#339=EDGE_CURVE('',#315,#324,#338,.T.);
#340=ORIENTED_EDGE('',*,*,#339,.T.);
#341=CARTESIAN_POINT('',(126.35,14.,6.4));
#342=DIRECTION('',(0.,-1.,0.));
#343=VECTOR('',#342,18.034566182);
#344=LINE('',#341,#343);
#345=EDGE_CURVE('',#141,#324,#344,.T.);
#346=ORIENTED_EDGE('',*,*,#345,.F.);
#347=ORIENTED_EDGE('',*,*,#146,.F.);
#348=ORIENTED_EDGE('',*,*,#303,.F.);
#349=ORIENTED_EDGE('',*,*,#227,.F.);
#350=EDGE_LOOP('',(#322,#340,#346,#347,#348,#349));
#351=FACE_BOUND('',#350,.T.);
#352=ADVANCED_FACE('',(#351),#313,.T.);
#353=CARTESIAN_POINT('',(84.,0.,0.));
#354=DIRECTION('',(0.,0.,1.));
#355=DIRECTION('',(1.,0.,0.));
#356=AXIS2_PLACEMENT_3D('',#353,#354,#355);
#357=PLANE('',#356);
#358=ORIENTED_EDGE('',*,*,#279,.T.);
#359=ORIENTED_EDGE('',*,*,#243,.T.);
#360=ORIENTED_EDGE('',*,*,#296,.T.);
#361=ORIENTED_EDGE('',*,*,#130,.T.);
#362=EDGE_LOOP('',(#358,#359,#360,#361));
#363=FACE_BOUND('',#362,.T.);
#364=ADVANCED_FACE('',(#363),#357,.F.);
#365=CARTESIAN_POINT('',(126.35,14.,6.181066017));
#366=DIRECTION('',(1.,0.,0.));
#367=DIRECTION('',(0.,0.,-1.));
#368=AXIS2_PLACEMENT_3D('',#365,#366,#367);
#369=PLANE('',#368);
#370=ORIENTED_EDGE('',*,*,#345,.T.);
#371=CARTESIAN_POINT('',(126.35,-4.180152016,5.962132034));
#372=VERTEX_POINT('',#371);
#373=CARTESIAN_POINT('',(126.35,-4.034566181,6.4));
#374=CARTESIAN_POINT('',(126.35,-4.082893782,6.253986754));
#375=CARTESIAN_POINT('',(126.349999953,-4.131375434,6.108017383));
#376=CARTESIAN_POINT('',(126.35,-4.180107882,5.962119463));
#377=B_SPLINE_CURVE_WITH_KNOTS('',3,(#373,#374,#375,#376),.UNSPECIFIED.,.F.,.F.,(4,4),(0.025770474,0.026231474),.UNSPECIFIED.);
#378=EDGE_CURVE('',#324,#372,#377,.T.);
#379=ORIENTED_EDGE('',*,*,#378,.T.);
#380=CARTESIAN_POINT('',(126.35,14.,5.962132034));
#381=DIRECTION('',(0.,-1.,0.));
#382=VECTOR('',#381,18.180152016);
#383=LINE('',#380,#382);
#384=EDGE_CURVE('',#149,#372,#383,.T.);
#385=ORIENTED_EDGE('',*,*,#384,.F.);
#386=ORIENTED_EDGE('',*,*,#154,.T.);
#387=EDGE_LOOP('',(#370,#379,#385,#386));
#388=FACE_BOUND('',#387,.T.);
#389=ADVANCED_FACE('',(#388),#369,.T.);
#390=CARTESIAN_POINT('',(125.1,14.,4.712132034));
#391=DIRECTION('',(0.707106781,0.,-0.707106781));
#392=DIRECTION('',(-0.707106781,0.,-0.707106781));
#393=AXIS2_PLACEMENT_3D('',#390,#391,#392);
#394=PLANE('',#393);
#395=ORIENTED_EDGE('',*,*,#384,.T.);
#396=CARTESIAN_POINT('',(125.322492919,-7.739973016,4.934624953));
#397=VERTEX_POINT('',#396);
#398=CARTESIAN_POINT('',(126.35,-4.180152016,5.962132034));
#399=CARTESIAN_POINT('',(126.350001632,-4.511394757,5.962133667));
#400=CARTESIAN_POINT('',(126.320867303,-4.834456641,5.932999337));
#401=CARTESIAN_POINT('',(126.269246409,-5.1512047,5.881378443));
#402=CARTESIAN_POINT('',(126.243435962,-5.309578729,5.855567996));
#403=CARTESIAN_POINT('',(126.21192111,-5.466351064,5.824053144));
#404=CARTESIAN_POINT('',(126.17516279,-5.621651127,5.787294824));
#405=CARTESIAN_POINT('',(126.138404469,-5.77695119,5.750536503));
#406=CARTESIAN_POINT('',(126.096190865,-5.931342094,5.708322899));
#407=CARTESIAN_POINT('',(126.049947414,-6.081650945,5.662079448));
#408=CARTESIAN_POINT('',(125.957460513,-6.382268647,5.569592547));
#409=CARTESIAN_POINT('',(125.848586093,-6.669077489,5.460718128));
#410=CARTESIAN_POINT('',(125.726557248,-6.94480182,5.338689283));
#411=CARTESIAN_POINT('',(125.604528403,-7.220526151,5.216660438));
#412=CARTESIAN_POINT('',(125.469280443,-7.485111461,5.081412477));
#413=CARTESIAN_POINT('',(125.322492919,-7.739973016,4.934624953));
#414=B_SPLINE_CURVE_WITH_KNOTS('',3,(#398,#399,#400,#401,#402,#403,#404,#405,#406,#407,#408,#409,#410,#411,#412,#413),.UNSPECIFIED.,.F.,.F.,(4,3,3,3,3,4),(0.,0.000974702,0.001462052,0.001949403,0.002924105,0.003898806),.UNSPECIFIED.);
#415=EDGE_CURVE('',#372,#397,#414,.T.);
#416=ORIENTED_EDGE('',*,*,#415,.T.);
#417=CARTESIAN_POINT('',(123.710454908,-12.71327566,3.322586942));
#418=VERTEX_POINT('',#417);
#419=CARTESIAN_POINT('',(136.66747063,-14.,16.279602664));
#420=DIRECTION('',(0.707106781,0.,-0.707106781));
#421=DIRECTION('',(0.707106781,0.,0.707106781));
#422=AXIS2_PLACEMENT_3D('',#419,#420,#421);
#423=ELLIPSE('',#422,18.418057106,12.747431671);
#424=EDGE_CURVE('',#418,#397,#423,.T.);
#425=ORIENTED_EDGE('',*,*,#424,.F.);
#426=CARTESIAN_POINT('',(123.85,-10.714941499,3.462132034));
#427=VERTEX_POINT('',#426);
#428=CARTESIAN_POINT('',(123.710454908,-12.71327566,3.322586942));
#429=CARTESIAN_POINT('',(123.744817235,-12.38177088,3.35694927));
#430=CARTESIAN_POINT('',(123.780186142,-12.050406681,3.392318176));
#431=CARTESIAN_POINT('',(123.806387921,-11.717762187,3.418519956));
#432=CARTESIAN_POINT('',(123.832589701,-11.385117694,3.444721735));
#433=CARTESIAN_POINT('',(123.850000003,-11.05124537,3.462132037));
#434=CARTESIAN_POINT('',(123.85,-10.714941499,3.462132034));
#435=B_SPLINE_CURVE_WITH_KNOTS('',3,(#428,#429,#430,#431,#432,#433,#434),.UNSPECIFIED.,.F.,.F.,(4,3,4),(0.,0.001004028,0.002008055),.UNSPECIFIED.);
#436=EDGE_CURVE('',#418,#427,#435,.T.);
#437=ORIENTED_EDGE('',*,*,#436,.T.);
#438=CARTESIAN_POINT('',(123.85,14.,3.462132034));
#439=DIRECTION('',(0.,-1.,0.));
#440=VECTOR('',#439,24.714941499);
#441=LINE('',#438,#440);
#442=EDGE_CURVE('',#157,#427,#441,.T.);
#443=ORIENTED_EDGE('',*,*,#442,.F.);
#444=ORIENTED_EDGE('',*,*,#162,.T.);
#445=EDGE_LOOP('',(#395,#416,#425,#437,#443,#444));
#446=FACE_BOUND('',#445,.T.);
#447=ADVANCED_FACE('',(#446),#394,.T.);
#448=CARTESIAN_POINT('',(123.85,14.,2.856066017));
#449=DIRECTION('',(1.,0.,0.));
#450=DIRECTION('',(0.,0.,-1.));
#451=AXIS2_PLACEMENT_3D('',#448,#449,#450);
#452=PLANE('',#451);
#453=ORIENTED_EDGE('',*,*,#442,.T.);
#454=CARTESIAN_POINT('',(123.85,-12.223511511,2.25));
#455=VERTEX_POINT('',#454);
#456=CARTESIAN_POINT('',(123.85,-10.714941434,3.462131992));
#457=CARTESIAN_POINT('',(123.850000001,-10.939071331,3.230241771));
#458=CARTESIAN_POINT('',(123.85,-11.178167088,3.005666827));
#459=CARTESIAN_POINT('',(123.85,-11.428796506,2.800919245));
#460=CARTESIAN_POINT('',(123.85,-11.679425924,2.596171662));
#461=CARTESIAN_POINT('',(123.85,-11.942480893,2.409796461));
#462=CARTESIAN_POINT('',(123.85,-12.22351151,2.249999998));
#463=B_SPLINE_CURVE_WITH_KNOTS('',3,(#456,#457,#458,#459,#460,#461,#462),.UNSPECIFIED.,.F.,.F.,(4,3,4),(0.026518303,0.027476149,0.028433995),.UNSPECIFIED.);
#464=EDGE_CURVE('',#427,#455,#463,.T.);
#465=ORIENTED_EDGE('',*,*,#464,.T.);
#466=CARTESIAN_POINT('',(123.85,14.,2.25));
#467=DIRECTION('',(0.,-1.,0.));
#468=VECTOR('',#467,26.223511511);
#469=LINE('',#466,#468);
#470=EDGE_CURVE('',#165,#455,#469,.T.);
#471=ORIENTED_EDGE('',*,*,#470,.F.);
#472=ORIENTED_EDGE('',*,*,#170,.T.);
#473=EDGE_LOOP('',(#453,#465,#471,#472));
#474=FACE_BOUND('',#473,.T.);
#475=ADVANCED_FACE('',(#474),#452,.T.);
#476=CARTESIAN_POINT('',(139.075,14.,2.25));
#477=DIRECTION('',(0.,0.,-1.));
#478=DIRECTION('',(-1.,0.,-0.));
#479=AXIS2_PLACEMENT_3D('',#476,#477,#478);
#480=PLANE('',#479);
#481=ORIENTED_EDGE('',*,*,#202,.T.);
#482=CARTESIAN_POINT('',(144.15,-12.223511511,2.25));
#483=VERTEX_POINT('',#482);
#484=CARTESIAN_POINT('',(144.175749686,-14.,2.25));
#485=CARTESIAN_POINT('',(144.175749669,-13.407712759,2.25));
#486=CARTESIAN_POINT('',(144.150000002,-12.815798752,2.25));
#487=CARTESIAN_POINT('',(144.15,-12.223511511,2.25));
#488=B_SPLINE_CURVE_WITH_KNOTS('',3,(#484,#485,#486,#487),.UNSPECIFIED.,.F.,.F.,(4,4),(0.,0.001776675),.UNSPECIFIED.);
#489=EDGE_CURVE('',#197,#483,#488,.T.);
#490=ORIENTED_EDGE('',*,*,#489,.T.);
#491=CARTESIAN_POINT('',(144.15,14.,2.25));
#492=DIRECTION('',(0.,-1.,0.));
#493=VECTOR('',#492,26.223511511);
#494=LINE('',#491,#493);
#495=EDGE_CURVE('',#173,#483,#494,.T.);
#496=ORIENTED_EDGE('',*,*,#495,.F.);
#497=ORIENTED_EDGE('',*,*,#178,.F.);
#498=ORIENTED_EDGE('',*,*,#470,.T.);
#499=CARTESIAN_POINT('',(123.85,-12.223511511,2.25));
#500=CARTESIAN_POINT('',(123.849999998,-12.815798752,2.25));
#501=CARTESIAN_POINT('',(123.824250311,-13.407712759,2.25));
#502=CARTESIAN_POINT('',(123.824250314,-14.,2.25));
#503=B_SPLINE_CURVE_WITH_KNOTS('',3,(#499,#500,#501,#502),.UNSPECIFIED.,.F.,.F.,(4,4),(0.,0.001776675),.UNSPECIFIED.);
#504=EDGE_CURVE('',#455,#195,#503,.T.);
#505=ORIENTED_EDGE('',*,*,#504,.T.);
#506=EDGE_LOOP('',(#481,#490,#496,#497,#498,#505));
#507=FACE_BOUND('',#506,.T.);
#508=ADVANCED_FACE('',(#507),#480,.F.);
#509=CARTESIAN_POINT('',(144.15,14.,2.856066017));
#510=DIRECTION('',(1.,0.,0.));
#511=DIRECTION('',(0.,0.,-1.));
#512=AXIS2_PLACEMENT_3D('',#509,#510,#511);
#513=PLANE('',#512);
#514=ORIENTED_EDGE('',*,*,#495,.T.);
#515=CARTESIAN_POINT('',(144.15,-10.714941499,3.462132034));
#516=VERTEX_POINT('',#515);
#517=CARTESIAN_POINT('',(144.15,-12.22351151,2.249999998));
#518=CARTESIAN_POINT('',(144.15,-11.942480893,2.409796461));
#519=CARTESIAN_POINT('',(144.15,-11.679425924,2.596171662));
#520=CARTESIAN_POINT('',(144.15,-11.428796506,2.800919245));
#521=CARTESIAN_POINT('',(144.15,-11.178167088,3.005666827));
#522=CARTESIAN_POINT('',(144.15,-10.939071329,3.230241769));
#523=CARTESIAN_POINT('',(144.15,-10.714941434,3.462131992));
#524=B_SPLINE_CURVE_WITH_KNOTS('',3,(#517,#518,#519,#520,#521,#522,#523),.UNSPECIFIED.,.F.,.F.,(4,3,4),(0.026518303,0.027476149,0.028433995),.UNSPECIFIED.);
#525=EDGE_CURVE('',#483,#516,#524,.T.);
#526=ORIENTED_EDGE('',*,*,#525,.T.);
#527=CARTESIAN_POINT('',(144.15,14.,3.462132034));
#528=DIRECTION('',(0.,-1.,0.));
#529=VECTOR('',#528,24.714941499);
#530=LINE('',#527,#529);
#531=EDGE_CURVE('',#100,#516,#530,.T.);
#532=ORIENTED_EDGE('',*,*,#531,.F.);
#533=ORIENTED_EDGE('',*,*,#184,.F.);
#534=EDGE_LOOP('',(#514,#526,#532,#533));
#535=FACE_BOUND('',#534,.T.);
#536=ADVANCED_FACE('',(#535),#513,.F.);
#537=CARTESIAN_POINT('',(142.9,14.,4.712132034));
#538=DIRECTION('',(0.707106781,0.,0.707106781));
#539=DIRECTION('',(0.707106781,0.,-0.707106781));
#540=AXIS2_PLACEMENT_3D('',#537,#538,#539);
#541=PLANE('',#540);
#542=CARTESIAN_POINT('',(144.289545092,-12.71327566,3.322586942));
#543=VERTEX_POINT('',#542);
#544=CARTESIAN_POINT('',(142.677507081,-7.739973016,4.934624953));
#545=VERTEX_POINT('',#544);
#546=CARTESIAN_POINT('',(131.33252937,-14.,16.279602664));
#547=DIRECTION('',(0.707106781,0.,0.707106781));
#548=DIRECTION('',(-0.707106781,0.,0.707106781));
#549=AXIS2_PLACEMENT_3D('',#546,#547,#548);
#550=ELLIPSE('',#549,18.418057106,12.747431671);
#551=EDGE_CURVE('',#543,#545,#550,.T.);
#552=ORIENTED_EDGE('',*,*,#551,.T.);
#553=CARTESIAN_POINT('',(141.65,-4.180152016,5.962132034));
#554=VERTEX_POINT('',#553);
#555=CARTESIAN_POINT('',(142.677507081,-7.739973016,4.934624953));
#556=CARTESIAN_POINT('',(142.530729991,-7.485129578,5.081402043));
#557=CARTESIAN_POINT('',(142.395738614,-7.220978876,5.21639342));
#558=CARTESIAN_POINT('',(142.274098985,-6.9462842,5.338033049));
#559=CARTESIAN_POINT('',(142.152459356,-6.671589524,5.459672678));
#560=CARTESIAN_POINT('',(142.044119682,-6.386391776,5.568012352));
#561=CARTESIAN_POINT('',(141.952102781,-6.088303815,5.660029253));
#562=CARTESIAN_POINT('',(141.906094331,-5.939259834,5.706037704));
#563=CARTESIAN_POINT('',(141.864197727,-5.786968697,5.747934308));
#564=CARTESIAN_POINT('',(141.827041141,-5.630934334,5.785090893));
#565=CARTESIAN_POINT('',(141.789884556,-5.47489997,5.822247479));
#566=CARTESIAN_POINT('',(141.757679303,-5.315681179,5.854452732));
#567=CARTESIAN_POINT('',(141.731521676,-5.15590703,5.880610358));
#568=CARTESIAN_POINT('',(141.679206423,-4.836358731,5.932925612));
#569=CARTESIAN_POINT('',(141.649997118,-4.511568797,5.962134916));
#570=CARTESIAN_POINT('',(141.65,-4.180152016,5.962132034));
#571=B_SPLINE_CURVE_WITH_KNOTS('',3,(#555,#556,#557,#558,#559,#560,#561,#562,#563,#564,#565,#566,#567,#568,#569,#570),.UNSPECIFIED.,.F.,.F.,(4,3,3,3,3,4),(0.,0.000971115,0.00194223,0.002427787,0.002913345,0.00388446),.UNSPECIFIED.);
#572=EDGE_CURVE('',#545,#554,#571,.T.);
#573=ORIENTED_EDGE('',*,*,#572,.T.);
#574=CARTESIAN_POINT('',(141.65,14.,5.962132034));
#575=DIRECTION('',(0.,-1.,0.));
#576=VECTOR('',#575,18.180152016);
#577=LINE('',#574,#576);
#578=EDGE_CURVE('',#102,#554,#577,.T.);
#579=ORIENTED_EDGE('',*,*,#578,.F.);
#580=ORIENTED_EDGE('',*,*,#107,.F.);
#581=ORIENTED_EDGE('',*,*,#531,.T.);
#582=CARTESIAN_POINT('',(144.15,-10.714941499,3.462132034));
#583=CARTESIAN_POINT('',(144.149999996,-11.05124537,3.462132038));
#584=CARTESIAN_POINT('',(144.1674103,-11.385117694,3.444721734));
#585=CARTESIAN_POINT('',(144.193612079,-11.717762187,3.418519956));
#586=CARTESIAN_POINT('',(144.219813857,-12.050406681,3.392318177));
#587=CARTESIAN_POINT('',(144.255182765,-12.38177088,3.35694927));
#588=CARTESIAN_POINT('',(144.289545092,-12.71327566,3.322586942));
#589=B_SPLINE_CURVE_WITH_KNOTS('',3,(#582,#583,#584,#585,#586,#587,#588),.UNSPECIFIED.,.F.,.F.,(4,3,4),(0.,0.001004028,0.002008055),.UNSPECIFIED.);
#590=EDGE_CURVE('',#516,#543,#589,.T.);
#591=ORIENTED_EDGE('',*,*,#590,.T.);
#592=EDGE_LOOP('',(#552,#573,#579,#580,#581,#591));
#593=FACE_BOUND('',#592,.T.);
#594=ADVANCED_FACE('',(#593),#541,.F.);
#595=CARTESIAN_POINT('',(141.65,14.,6.181066017));
#596=DIRECTION('',(1.,0.,0.));
#597=DIRECTION('',(0.,0.,-1.));
#598=AXIS2_PLACEMENT_3D('',#595,#596,#597);
#599=PLANE('',#598);
#600=ORIENTED_EDGE('',*,*,#578,.T.);
#601=CARTESIAN_POINT('',(141.65,-4.180107882,5.962119463));
#602=CARTESIAN_POINT('',(141.65,-4.13137556,6.108017425));
#603=CARTESIAN_POINT('',(141.65,-4.082893782,6.253986754));
#604=CARTESIAN_POINT('',(141.65,-4.034566181,6.4));
#605=B_SPLINE_CURVE_WITH_KNOTS('',3,(#601,#602,#603,#604),.UNSPECIFIED.,.F.,.F.,(4,4),(0.025770474,0.026231474),.UNSPECIFIED.);
#606=EDGE_CURVE('',#554,#35,#605,.T.);
#607=ORIENTED_EDGE('',*,*,#606,.T.);
#608=ORIENTED_EDGE('',*,*,#40,.F.);
#609=ORIENTED_EDGE('',*,*,#113,.F.);
#610=EDGE_LOOP('',(#600,#607,#608,#609));
#611=FACE_BOUND('',#610,.T.);
#612=ADVANCED_FACE('',(#611),#599,.F.);
#613=CARTESIAN_POINT('',(134.,-14.,2.25));
#614=DIRECTION('',(0.,0.,1.));
#615=DIRECTION('',(1.,0.,-0.));
#616=AXIS2_PLACEMENT_3D('',#613,#614,#615);
#617=CONICAL_SURFACE('',#616,10.15,11.575188817);
#618=ORIENTED_EDGE('',*,*,#551,.F.);
#619=CARTESIAN_POINT('',(144.289545092,-12.713275659,3.32258694));
#620=CARTESIAN_POINT('',(144.283948497,-12.810201574,3.23675317));
#621=CARTESIAN_POINT('',(144.278758651,-12.909973058,3.157561193));
#622=CARTESIAN_POINT('',(144.27410953,-13.013372253,3.086708278));
#623=CARTESIAN_POINT('',(144.269460408,-13.116771448,3.015855364));
#624=CARTESIAN_POINT('',(144.265361807,-13.22390916,2.953528881));
#625=CARTESIAN_POINT('',(144.262035631,-13.331830586,2.903088672));
#626=CARTESIAN_POINT('',(144.258709455,-13.439752012,2.852648463));
#627=CARTESIAN_POINT('',(144.256121827,-13.54925699,2.813517361));
#628=CARTESIAN_POINT('',(144.254365214,-13.660604753,2.786962481));
#629=CARTESIAN_POINT('',(144.252608602,-13.771952517,2.760407601));
#630=CARTESIAN_POINT('',(144.251688514,-13.886187224,2.746479262));
#631=CARTESIAN_POINT('',(144.251688512,-13.999999641,2.746479204));
#632=B_SPLINE_CURVE_WITH_KNOTS('',3,(#619,#620,#621,#622,#623,#624,#625,#626,#627,#628,#629,#630,#631),.UNSPECIFIED.,.F.,.F.,(4,3,3,3,4),(0.028298665,0.028790338,0.02928201,0.029773683,0.030265355),.UNSPECIFIED.);
#633=EDGE_CURVE('',#543,#253,#632,.T.);
#634=ORIENTED_EDGE('',*,*,#633,.T.);
#635=ORIENTED_EDGE('',*,*,#258,.T.);
#636=ORIENTED_EDGE('',*,*,#67,.T.);
#637=CARTESIAN_POINT('',(142.752496706,-7.337134515,6.399994464));
#638=CARTESIAN_POINT('',(142.727921391,-7.470350899,5.910561097));
#639=CARTESIAN_POINT('',(142.702932947,-7.604574781,5.42205873));
#640=CARTESIAN_POINT('',(142.677507077,-7.739973012,4.934624949));
#641=B_SPLINE_CURVE_WITH_KNOTS('',3,(#637,#638,#639,#640),.UNSPECIFIED.,.F.,.F.,(4,4),(0.026827314,0.028375676),.UNSPECIFIED.);
#642=EDGE_CURVE('',#43,#545,#641,.T.);
#643=ORIENTED_EDGE('',*,*,#642,.T.);
#644=EDGE_LOOP('',(#618,#634,#635,#636,#643));
#645=FACE_BOUND('',#644,.T.);
#646=ADVANCED_FACE('',(#645),#617,.F.);
#647=CARTESIAN_POINT('',(134.,-14.,2.25));
#648=DIRECTION('',(0.,0.,1.));
#649=DIRECTION('',(1.,0.,-0.));
#650=AXIS2_PLACEMENT_3D('',#647,#648,#649);
#651=CONICAL_SURFACE('',#650,10.15,11.575188817);
#652=ORIENTED_EDGE('',*,*,#424,.T.);
#653=CARTESIAN_POINT('',(125.322492923,-7.739973012,4.934624949));
#654=CARTESIAN_POINT('',(125.297067053,-7.604574781,5.42205873));
#655=CARTESIAN_POINT('',(125.272078609,-7.470351027,5.91056114));
#656=CARTESIAN_POINT('',(125.247503294,-7.337134515,6.399994464));
#657=B_SPLINE_CURVE_WITH_KNOTS('',3,(#653,#654,#655,#656),.UNSPECIFIED.,.F.,.F.,(4,4),(0.026827314,0.028375676),.UNSPECIFIED.);
#658=EDGE_CURVE('',#397,#315,#657,.T.);
#659=ORIENTED_EDGE('',*,*,#658,.T.);
#660=ORIENTED_EDGE('',*,*,#321,.T.);
#661=ORIENTED_EDGE('',*,*,#219,.T.);
#662=CARTESIAN_POINT('',(123.748311488,-13.999999641,2.746479204));
#663=CARTESIAN_POINT('',(123.748311486,-13.886187224,2.746479233));
#664=CARTESIAN_POINT('',(123.747391398,-13.771952493,2.760407456));
#665=CARTESIAN_POINT('',(123.745634786,-13.660604753,2.786962481));
#666=CARTESIAN_POINT('',(123.743878173,-13.549257013,2.813517505));
#667=CARTESIAN_POINT('',(123.741290545,-13.439751978,2.852648358));
#668=CARTESIAN_POINT('',(123.737964369,-13.331830586,2.903088672));
#669=CARTESIAN_POINT('',(123.734638193,-13.223909193,2.953528987));
#670=CARTESIAN_POINT('',(123.730539592,-13.116771833,3.015856189));
#671=CARTESIAN_POINT('',(123.72589047,-13.013372253,3.086708278));
#672=CARTESIAN_POINT('',(123.721241349,-12.909972672,3.157560368));
#673=CARTESIAN_POINT('',(123.716051503,-12.810201574,3.23675317));
#674=CARTESIAN_POINT('',(123.710454908,-12.713275659,3.32258694));
#675=B_SPLINE_CURVE_WITH_KNOTS('',3,(#662,#663,#664,#665,#666,#667,#668,#669,#670,#671,#672,#673,#674),.UNSPECIFIED.,.F.,.F.,(4,3,3,3,4),(0.028298665,0.028790338,0.02928201,0.029773683,0.030265355),.UNSPECIFIED.);
#676=EDGE_CURVE('',#205,#418,#675,.T.);
#677=ORIENTED_EDGE('',*,*,#676,.T.);
#678=EDGE_LOOP('',(#652,#659,#660,#661,#677));
#679=FACE_BOUND('',#678,.T.);
#680=ADVANCED_FACE('',(#679),#651,.F.);
#681=CARTESIAN_POINT('',(125.197765087,-7.065747011,7.403257594));
#682=CARTESIAN_POINT('',(125.382064273,-6.854896453,7.333470604));
#683=CARTESIAN_POINT('',(125.547083096,-6.628862619,7.258658212));
#684=CARTESIAN_POINT('',(125.833633995,-6.153175752,7.101215886));
#685=CARTESIAN_POINT('',(125.955161783,-5.903529838,7.018588308));
#686=CARTESIAN_POINT('',(126.151094276,-5.388085258,6.847986873));
#687=CARTESIAN_POINT('',(126.225496049,-5.122294306,6.76001557));
#688=CARTESIAN_POINT('',(126.324949656,-4.582509244,6.581357863));
#689=CARTESIAN_POINT('',(126.350000003,-4.308523212,6.490674132));
#690=CARTESIAN_POINT('',(126.35,-4.034533079,6.399989044));
#691=CARTESIAN_POINT('',(125.215987916,-7.165866755,7.030899164));
#692=CARTESIAN_POINT('',(125.39750094,-6.955914478,6.96087671));
#693=CARTESIAN_POINT('',(125.559960917,-6.731145551,6.885911862));
#694=CARTESIAN_POINT('',(125.842005945,-6.258573331,6.728298549));
#695=CARTESIAN_POINT('',(125.961586917,-6.010776875,6.645652365));
#696=CARTESIAN_POINT('',(126.154355638,-5.499438049,6.475107586));
#697=CARTESIAN_POINT('',(126.227540599,-5.235903077,6.387211459));
#698=CARTESIAN_POINT('',(126.325363488,-4.700838704,6.208752474));
#699=CARTESIAN_POINT('',(126.350000001,-4.429317043,6.118192199));
#700=CARTESIAN_POINT('',(126.35,-4.157791455,6.027630613));
#701=CARTESIAN_POINT('',(125.234450478,-7.266536563,6.658933445));
#702=CARTESIAN_POINT('',(125.413134265,-7.057543393,6.588673313));
#703=CARTESIAN_POINT('',(125.572999145,-6.834100878,6.513554706));
#704=CARTESIAN_POINT('',(125.850477681,-6.364766453,6.355769026));
#705=CARTESIAN_POINT('',(125.968087458,-6.118881104,6.27310416));
#706=CARTESIAN_POINT('',(126.157654054,-5.61177098,6.102616627));
#707=CARTESIAN_POINT('',(126.229608224,-5.350553295,6.014796344));
#708=CARTESIAN_POINT('',(126.325781869,-4.820331909,5.836537764));
#709=CARTESIAN_POINT('',(126.35,-4.551335621,5.746101961));
#710=CARTESIAN_POINT('',(126.35,-4.282335572,5.655664894));
#711=CARTESIAN_POINT('',(125.27590946,-7.490950335,5.835644847));
#712=CARTESIAN_POINT('',(125.448224994,-7.284231039,5.764853044));
#713=CARTESIAN_POINT('',(125.602256367,-7.063877223,5.689390793));
#714=CARTESIAN_POINT('',(125.869477395,-6.602015736,5.531220071));
#715=CARTESIAN_POINT('',(125.982663599,-6.360514031,5.448513644));
#716=CARTESIAN_POINT('',(126.165047231,-5.863070439,5.278154297));
#717=CARTESIAN_POINT('',(126.234242305,-5.607134978,5.190503579));
#718=CARTESIAN_POINT('',(126.326719286,-5.087938791,5.012692863));
#719=CARTESIAN_POINT('',(126.35,-4.824684772,4.922535162));
#720=CARTESIAN_POINT('',(126.35,-4.561427353,4.832376296));
#721=CARTESIAN_POINT('',(125.299018178,-7.614929204,5.384654866));
#722=CARTESIAN_POINT('',(125.46777424,-7.409555113,5.313568067));
#723=CARTESIAN_POINT('',(125.618550112,-7.190994131,5.237915351));
#724=CARTESIAN_POINT('',(125.880051672,-6.733428582,5.079531341));
#725=CARTESIAN_POINT('',(125.990774132,-6.494429667,4.996802004));
#726=CARTESIAN_POINT('',(126.1691591,-6.002483981,4.826513868));
#727=CARTESIAN_POINT('',(126.236819406,-5.749543285,4.738957173));
#728=CARTESIAN_POINT('',(126.327240415,-5.23658868,4.561394665));
#729=CARTESIAN_POINT('',(126.350000001,-4.976581103,4.471391046));
#730=CARTESIAN_POINT('',(126.35,-4.716570317,4.381386315));
#731=CARTESIAN_POINT('',(125.32249481,-7.739927082,4.934590717));
#732=CARTESIAN_POINT('',(125.487624083,-7.536015087,4.863205669));
#733=CARTESIAN_POINT('',(125.635088356,-7.319363412,4.7873606));
#734=CARTESIAN_POINT('',(125.890777184,-6.86632465,4.628761322));
#735=CARTESIAN_POINT('',(125.998998723,-6.629942906,4.546008983));
#736=CARTESIAN_POINT('',(126.173326773,-6.14372176,4.375792935));
#737=CARTESIAN_POINT('',(126.239431227,-5.893888093,4.288331235));
#738=CARTESIAN_POINT('',(126.327768362,-5.387398297,4.111019371));
#739=CARTESIAN_POINT('',(126.350000002,-5.130748143,4.021171298));
#740=CARTESIAN_POINT('',(126.349999999,-4.874094961,3.931322166));
#741=B_SPLINE_SURFACE_WITH_KNOTS('',3,3,((#681,#682,#683,#684,#685,#686,#687,#688,#689,#690),(#691,#692,#693,#694,#695,#696,#697,#698,#699,#700),(#701,#702,#703,#704,#705,#706,#707,#708,#709,#710),(#711,#712,#713,#714,#715,#716,#717,#718,#719,#720),(#721,#722,#723,#724,#725,#726,#727,#728,#729,#730),(#731,#732,#733,#734,#735,#736,#737,#738,#739,#740)),.UNSPECIFIED.,.F.,.F.,.U.,(4,2,4),(4,2,2,2,4),(0.025770374,0.02694606,0.028375676),(0.,0.25,0.5,0.75,1.),.UNSPECIFIED.);
#742=ORIENTED_EDGE('',*,*,#415,.F.);
#743=ORIENTED_EDGE('',*,*,#378,.F.);
#744=ORIENTED_EDGE('',*,*,#339,.F.);
#745=ORIENTED_EDGE('',*,*,#658,.F.);
#746=EDGE_LOOP('',(#742,#743,#744,#745));
#747=FACE_BOUND('',#746,.T.);
#748=ADVANCED_FACE('',(#747),#741,.T.);
#749=CARTESIAN_POINT('',(123.637066099,-11.752938961,4.465392248));
#750=CARTESIAN_POINT('',(123.707535942,-11.584912787,4.302989809));
#751=CARTESIAN_POINT('',(123.760863947,-11.413171044,4.136996156));
#752=CARTESIAN_POINT('',(123.832096254,-11.065927829,3.801374955));
#753=CARTESIAN_POINT('',(123.850000011,-10.890429015,3.631749976));
#754=CARTESIAN_POINT('',(123.850000001,-10.714928858,3.462123699));
#755=CARTESIAN_POINT('',(123.642885284,-11.815025213,4.373387127));
#756=CARTESIAN_POINT('',(123.711443286,-11.651205247,4.210851552));
#757=CARTESIAN_POINT('',(123.763311325,-11.483868192,4.044823757));
#758=CARTESIAN_POINT('',(123.832589935,-11.145636415,3.709235624));
#759=CARTESIAN_POINT('',(123.850000006,-10.974744136,3.539677715));
#760=CARTESIAN_POINT('',(123.850000001,-10.803850624,3.370118578));
#761=CARTESIAN_POINT('',(123.648637367,-11.878442077,4.282777631));
#762=CARTESIAN_POINT('',(123.715304419,-11.718967934,4.120110598));
#763=CARTESIAN_POINT('',(123.765729536,-11.556168793,3.954049126));
#764=CARTESIAN_POINT('',(123.833077557,-11.227208233,3.618493653));
#765=CARTESIAN_POINT('',(123.85,-11.06104906,3.449001946));
#766=CARTESIAN_POINT('',(123.85,-10.894888752,3.279509081));
#767=CARTESIAN_POINT('',(123.659329687,-12.000972467,4.1149364));
#768=CARTESIAN_POINT('',(123.722479684,-11.84999389,3.952025257));
#769=CARTESIAN_POINT('',(123.770222995,-11.696040041,3.785901311));
#770=CARTESIAN_POINT('',(123.833983349,-11.385125502,3.450406502));
#771=CARTESIAN_POINT('',(123.85,-11.228166714,3.281037695));
#772=CARTESIAN_POINT('',(123.85,-11.071206967,3.111667849));
#773=CARTESIAN_POINT('',(123.664282769,-12.059727121,4.037435367));
#774=CARTESIAN_POINT('',(123.725802666,-11.912862814,3.87441125));
#775=CARTESIAN_POINT('',(123.772303824,-11.763182139,3.708258418));
#776=CARTESIAN_POINT('',(123.834402671,-11.460975322,3.372791691));
#777=CARTESIAN_POINT('',(123.85,-11.308450933,3.203479746));
#778=CARTESIAN_POINT('',(123.85,-11.15592566,3.034166816));
#779=CARTESIAN_POINT('',(123.673917804,-12.178696595,3.887117864));
#780=CARTESIAN_POINT('',(123.732265182,-12.040245825,3.723874174));
#781=CARTESIAN_POINT('',(123.776350313,-11.899282377,3.557665248));
#782=CARTESIAN_POINT('',(123.835217875,-11.614818215,3.222253112));
#783=CARTESIAN_POINT('',(123.85,-11.471318982,3.053051655));
#784=CARTESIAN_POINT('',(123.85,-11.327819001,2.883849314));
#785=CARTESIAN_POINT('',(123.67861308,-12.239060645,3.81409199));
#786=CARTESIAN_POINT('',(123.735413657,-12.104919438,3.650741396));
#787=CARTESIAN_POINT('',(123.778321572,-11.968410778,3.484505183));
#788=CARTESIAN_POINT('',(123.835614885,-11.693003458,3.149119633));
#789=CARTESIAN_POINT('',(123.85,-11.554106158,2.979971954));
#790=CARTESIAN_POINT('',(123.85,-11.415208172,2.810823439));
#791=CARTESIAN_POINT('',(123.692275349,-12.42314395,3.602183972));
#792=CARTESIAN_POINT('',(123.744573001,-12.302267681,3.438522563));
#793=CARTESIAN_POINT('',(123.784055845,-12.179439869,3.272207079));
#794=CARTESIAN_POINT('',(123.836769453,-11.931815731,2.93689884));
#795=CARTESIAN_POINT('',(123.85,-11.807020429,2.767907483));
#796=CARTESIAN_POINT('',(123.85,-11.682224611,2.598915422));
#797=CARTESIAN_POINT('',(123.70082377,-12.549819918,3.470398965));
#798=CARTESIAN_POINT('',(123.750301116,-12.438233026,3.30654343));
#799=CARTESIAN_POINT('',(123.787641431,-12.324945379,3.140178522));
#800=CARTESIAN_POINT('',(123.837490966,-12.09665533,2.80491859));
#801=CARTESIAN_POINT('',(123.85,-11.981653773,2.636024818));
#802=CARTESIAN_POINT('',(123.85,-11.866651791,2.467130415));
#803=CARTESIAN_POINT('',(123.716401017,-12.813626304,3.231312841));
#804=CARTESIAN_POINT('',(123.76073531,-12.721702706,3.067104024));
#805=CARTESIAN_POINT('',(123.79417213,-12.628529979,2.900649288));
#806=CARTESIAN_POINT('',(123.838804541,-12.440926231,2.565477298));
#807=CARTESIAN_POINT('',(123.85,-12.346495763,2.396761046));
#808=CARTESIAN_POINT('',(123.85,-12.252065017,2.22804429));
#809=CARTESIAN_POINT('',(123.723434468,-12.950725593,3.123946285));
#810=CARTESIAN_POINT('',(123.765444575,-12.869173907,2.959578201));
#811=CARTESIAN_POINT('',(123.797119313,-12.786573788,2.793083022));
#812=CARTESIAN_POINT('',(123.839397123,-12.620317818,2.457950668));
#813=CARTESIAN_POINT('',(123.85000008,-12.536662408,2.289314394));
#814=CARTESIAN_POINT('',(123.849999986,-12.453006779,2.120677671));
#815=CARTESIAN_POINT('',(123.735379241,-13.239337264,2.942172145));
#816=CARTESIAN_POINT('',(123.773439999,-13.179897618,2.777533868));
#817=CARTESIAN_POINT('',(123.802122541,-13.119769756,2.610970173));
#818=CARTESIAN_POINT('',(123.840402631,-12.998821505,2.275905169));
#819=CARTESIAN_POINT('',(123.850000097,-12.938001377,2.107404597));
#820=CARTESIAN_POINT('',(123.850000014,-12.87718112,1.938903657));
#821=CARTESIAN_POINT('',(123.740117403,-13.387190395,2.870386854));
#822=CARTESIAN_POINT('',(123.776610301,-13.33921157,2.70564152));
#823=CARTESIAN_POINT('',(123.804106093,-13.290699234,2.539050701));
#824=CARTESIAN_POINT('',(123.840800979,-13.193137826,2.204012351));
#825=CARTESIAN_POINT('',(123.85,-13.14408895,2.035565498));
#826=CARTESIAN_POINT('',(123.85,-13.095039975,1.867118304));
#827=CARTESIAN_POINT('',(123.744961544,-13.613219532,2.797088703));
#828=CARTESIAN_POINT('',(123.779851284,-13.582879183,2.63223397));
#829=CARTESIAN_POINT('',(123.806133886,-13.552215208,2.46561545));
#830=CARTESIAN_POINT('',(123.841208277,-13.490561756,2.130604361));
#831=CARTESIAN_POINT('',(123.85,-13.459572392,1.962212412));
#832=CARTESIAN_POINT('',(123.85,-13.42858297,1.793820152));
#833=CARTESIAN_POINT('',(123.746203,-13.689380309,2.778326914));
#834=CARTESIAN_POINT('',(123.780681799,-13.665002127,2.613444154));
#835=CARTESIAN_POINT('',(123.8066535,-13.640366786,2.446818539));
#836=CARTESIAN_POINT('',(123.841312632,-13.590837469,2.111814436));
#837=CARTESIAN_POINT('',(123.85,-13.565943583,1.943436551));
#838=CARTESIAN_POINT('',(123.85,-13.541049652,1.775058363));
#839=CARTESIAN_POINT('',(123.747878686,-13.843517925,2.753009852));
#840=CARTESIAN_POINT('',(123.78180278,-13.831226702,2.588089266));
#841=CARTESIAN_POINT('',(123.807354841,-13.818808217,2.421454078));
#842=CARTESIAN_POINT('',(123.841453481,-13.793843271,2.086459401));
#843=CARTESIAN_POINT('',(123.85,-13.781296853,1.918100499));
#844=CARTESIAN_POINT('',(123.85,-13.768750412,1.749741302));
#845=CARTESIAN_POINT('',(123.748311487,-13.922059757,2.746479224));
#846=CARTESIAN_POINT('',(123.782092346,-13.915937848,2.581548868));
#847=CARTESIAN_POINT('',(123.80753605,-13.909752567,2.414911204));
#848=CARTESIAN_POINT('',(123.841489932,-13.897318275,2.079918953));
#849=CARTESIAN_POINT('',(123.850000051,-13.891069286,1.911564948));
#850=CARTESIAN_POINT('',(123.849999996,-13.884820285,1.743210653));
#851=CARTESIAN_POINT('',(123.748311488,-13.999999641,2.746479204));
#852=CARTESIAN_POINT('',(123.782092347,-13.999999744,2.581548852));
#853=CARTESIAN_POINT('',(123.807536052,-13.999999847,2.414911191));
#854=CARTESIAN_POINT('',(123.841489935,-14.000000053,2.079918947));
#855=CARTESIAN_POINT('',(123.850000054,-14.000000156,1.911564945));
#856=CARTESIAN_POINT('',(123.85,-14.000000259,1.743210653));
#857=B_SPLINE_SURFACE_WITH_KNOTS('',3,3,((#749,#750,#751,#752,#753,#754),(#755,#756,#757,#758,#759,#760),(#761,#762,#763,#764,#765,#766),(#767,#768,#769,#770,#771,#772),(#773,#774,#775,#776,#777,#778),(#779,#780,#781,#782,#783,#784),(#785,#786,#787,#788,#789,#790),(#791,#792,#793,#794,#795,#796),(#797,#798,#799,#800,#801,#802),(#803,#804,#805,#806,#807,#808),(#809,#810,#811,#812,#813,#814),(#815,#816,#817,#818,#819,#820),(#821,#822,#823,#824,#825,#826),(#827,#828,#829,#830,#831,#832),(#833,#834,#835,#836,#837,#838),(#839,#840,#841,#842,#843,#844),(#845,#846,#847,#848,#849,#850),(#851,#852,#853,#854,#855,#856)),.UNSPECIFIED.,.F.,.F.,.U.,(4,2,2,2,2,2,2,2,4),(4,2,4),(0.026518303,0.026898332,0.027235034,0.027571737,0.028245141,0.028918546,0.029591951,0.029928653,0.030265355),(0.,0.5,1.),.UNSPECIFIED.);
#858=ORIENTED_EDGE('',*,*,#504,.F.);
#859=ORIENTED_EDGE('',*,*,#464,.F.);
#860=ORIENTED_EDGE('',*,*,#436,.F.);
#861=ORIENTED_EDGE('',*,*,#676,.F.);
#862=ORIENTED_EDGE('',*,*,#211,.F.);
#863=EDGE_LOOP('',(#858,#859,#860,#861,#862));
#864=FACE_BOUND('',#863,.T.);
#865=ADVANCED_FACE('',(#864),#857,.T.);
#866=CARTESIAN_POINT('',(144.15,-10.714928856,3.462123697));
#867=CARTESIAN_POINT('',(144.14999999,-10.890429012,3.631749974));
#868=CARTESIAN_POINT('',(144.167903746,-11.065927826,3.801374953));
#869=CARTESIAN_POINT('',(144.239136053,-11.413171042,4.136996154));
#870=CARTESIAN_POINT('',(144.292464058,-11.584912784,4.302989806));
#871=CARTESIAN_POINT('',(144.362933901,-11.752938958,4.465392245));
#872=CARTESIAN_POINT('',(144.15,-10.803850622,3.370118576));
#873=CARTESIAN_POINT('',(144.149999994,-10.974744135,3.539677713));
#874=CARTESIAN_POINT('',(144.167410066,-11.145636413,3.709235622));
#875=CARTESIAN_POINT('',(144.236688676,-11.48386819,4.044823755));
#876=CARTESIAN_POINT('',(144.288556714,-11.651205246,4.21085155));
#877=CARTESIAN_POINT('',(144.357114716,-11.815025211,4.373387125));
#878=CARTESIAN_POINT('',(144.15,-10.894888752,3.279509081));
#879=CARTESIAN_POINT('',(144.15,-11.06104906,3.449001946));
#880=CARTESIAN_POINT('',(144.166922443,-11.227208233,3.618493653));
#881=CARTESIAN_POINT('',(144.234270464,-11.556168793,3.954049126));
#882=CARTESIAN_POINT('',(144.284695581,-11.718967934,4.120110598));
#883=CARTESIAN_POINT('',(144.351362633,-11.878442077,4.282777631));
#884=CARTESIAN_POINT('',(144.15,-11.071206967,3.111667849));
#885=CARTESIAN_POINT('',(144.15,-11.228166714,3.281037695));
#886=CARTESIAN_POINT('',(144.166016651,-11.385125502,3.450406502));
#887=CARTESIAN_POINT('',(144.229777005,-11.696040041,3.785901311));
#888=CARTESIAN_POINT('',(144.277520316,-11.84999389,3.952025257));
#889=CARTESIAN_POINT('',(144.340670313,-12.000972467,4.1149364));
#890=CARTESIAN_POINT('',(144.15,-11.15592566,3.034166816));
#891=CARTESIAN_POINT('',(144.15,-11.308450933,3.203479746));
#892=CARTESIAN_POINT('',(144.165597329,-11.460975322,3.372791691));
#893=CARTESIAN_POINT('',(144.227696176,-11.763182139,3.708258418));
#894=CARTESIAN_POINT('',(144.274197334,-11.912862814,3.87441125));
#895=CARTESIAN_POINT('',(144.335717231,-12.059727121,4.037435367));
#896=CARTESIAN_POINT('',(144.15,-11.327819001,2.883849314));
#897=CARTESIAN_POINT('',(144.15,-11.471318982,3.053051655));
#898=CARTESIAN_POINT('',(144.164782125,-11.614818215,3.222253112));
#899=CARTESIAN_POINT('',(144.223649687,-11.899282377,3.557665248));
#900=CARTESIAN_POINT('',(144.267734818,-12.040245825,3.723874174));
#901=CARTESIAN_POINT('',(144.326082196,-12.178696595,3.887117864));
#902=CARTESIAN_POINT('',(144.15,-11.415208172,2.810823439));
#903=CARTESIAN_POINT('',(144.15,-11.554106158,2.979971954));
#904=CARTESIAN_POINT('',(144.164385115,-11.693003458,3.149119633));
#905=CARTESIAN_POINT('',(144.221678428,-11.968410778,3.484505183));
#906=CARTESIAN_POINT('',(144.264586343,-12.104919438,3.650741396));
#907=CARTESIAN_POINT('',(144.32138692,-12.239060645,3.81409199));
#908=CARTESIAN_POINT('',(144.15,-11.682224611,2.598915422));
#909=CARTESIAN_POINT('',(144.15,-11.807020429,2.767907483));
#910=CARTESIAN_POINT('',(144.163230547,-11.931815731,2.93689884));
#911=CARTESIAN_POINT('',(144.215944155,-12.179439869,3.272207079));
#912=CARTESIAN_POINT('',(144.255426999,-12.302267681,3.438522563));
#913=CARTESIAN_POINT('',(144.307724651,-12.42314395,3.602183972));
#914=CARTESIAN_POINT('',(144.15,-11.866651791,2.467130415));
#915=CARTESIAN_POINT('',(144.15,-11.981653773,2.636024818));
#916=CARTESIAN_POINT('',(144.162509034,-12.09665533,2.80491859));
#917=CARTESIAN_POINT('',(144.212358569,-12.324945379,3.140178522));
#918=CARTESIAN_POINT('',(144.249698884,-12.438233026,3.30654343));
#919=CARTESIAN_POINT('',(144.29917623,-12.549819918,3.470398966));
#920=CARTESIAN_POINT('',(144.15,-12.252065017,2.22804429));
#921=CARTESIAN_POINT('',(144.15,-12.346495763,2.396761046));
#922=CARTESIAN_POINT('',(144.161195459,-12.440926231,2.565477298));
#923=CARTESIAN_POINT('',(144.20582787,-12.628529979,2.900649288));
#924=CARTESIAN_POINT('',(144.23926469,-12.721702706,3.067104024));
#925=CARTESIAN_POINT('',(144.283598983,-12.813626304,3.231312841));
#926=CARTESIAN_POINT('',(144.15,-12.453006806,2.120677734));
#927=CARTESIAN_POINT('',(144.149999908,-12.536662435,2.289314457));
#928=CARTESIAN_POINT('',(144.160602868,-12.620317845,2.457950731));
#929=CARTESIAN_POINT('',(144.202880682,-12.786573815,2.793083084));
#930=CARTESIAN_POINT('',(144.234555423,-12.869173934,2.959578263));
#931=CARTESIAN_POINT('',(144.276565532,-12.95072562,3.123946346));
#932=CARTESIAN_POINT('',(144.15,-12.877181093,1.938903594));
#933=CARTESIAN_POINT('',(144.149999915,-12.93800135,2.107404534));
#934=CARTESIAN_POINT('',(144.159597378,-12.998821478,2.275905106));
#935=CARTESIAN_POINT('',(144.197877464,-13.119769729,2.610970111));
#936=CARTESIAN_POINT('',(144.226560003,-13.179897592,2.777533806));
#937=CARTESIAN_POINT('',(144.264620759,-13.239337238,2.942172084));
#938=CARTESIAN_POINT('',(144.15,-13.095039975,1.867118304));
#939=CARTESIAN_POINT('',(144.15,-13.14408895,2.035565498));
#940=CARTESIAN_POINT('',(144.159199021,-13.193137826,2.204012351));
#941=CARTESIAN_POINT('',(144.195893907,-13.290699234,2.539050701));
#942=CARTESIAN_POINT('',(144.223389699,-13.33921157,2.70564152));
#943=CARTESIAN_POINT('',(144.259882597,-13.387190395,2.870386854));
#944=CARTESIAN_POINT('',(144.15,-13.42858297,1.793820152));
#945=CARTESIAN_POINT('',(144.15,-13.459572392,1.962212412));
#946=CARTESIAN_POINT('',(144.158791723,-13.490561756,2.130604361));
#947=CARTESIAN_POINT('',(144.193866114,-13.552215208,2.46561545));
#948=CARTESIAN_POINT('',(144.220148716,-13.582879183,2.63223397));
#949=CARTESIAN_POINT('',(144.255038456,-13.613219532,2.797088703));
#950=CARTESIAN_POINT('',(144.15,-13.541049652,1.775058363));
#951=CARTESIAN_POINT('',(144.15,-13.565943583,1.943436551));
#952=CARTESIAN_POINT('',(144.158687368,-13.590837469,2.111814436));
#953=CARTESIAN_POINT('',(144.1933465,-13.640366786,2.446818539));
#954=CARTESIAN_POINT('',(144.219318201,-13.665002127,2.613444154));
#955=CARTESIAN_POINT('',(144.253797,-13.689380309,2.778326914));
#956=CARTESIAN_POINT('',(144.15,-13.768750412,1.749741302));
#957=CARTESIAN_POINT('',(144.15,-13.781296853,1.918100499));
#958=CARTESIAN_POINT('',(144.158546519,-13.793843271,2.086459401));
#959=CARTESIAN_POINT('',(144.192645159,-13.818808217,2.421454078));
#960=CARTESIAN_POINT('',(144.21819722,-13.831226702,2.588089266));
#961=CARTESIAN_POINT('',(144.252121314,-13.843517925,2.753009852));
#962=CARTESIAN_POINT('',(144.15,-13.884820285,1.743210673));
#963=CARTESIAN_POINT('',(144.149999946,-13.891069286,1.911564968));
#964=CARTESIAN_POINT('',(144.158510065,-13.897318275,2.079918973));
#965=CARTESIAN_POINT('',(144.192463949,-13.909752567,2.414911224));
#966=CARTESIAN_POINT('',(144.217907654,-13.915937848,2.581548888));
#967=CARTESIAN_POINT('',(144.251688513,-13.922059757,2.746479243));
#968=CARTESIAN_POINT('',(144.15,-14.000000259,1.743210653));
#969=CARTESIAN_POINT('',(144.149999946,-14.000000156,1.911564945));
#970=CARTESIAN_POINT('',(144.158510065,-14.000000053,2.079918947));
#971=CARTESIAN_POINT('',(144.192463948,-13.999999847,2.414911191));
#972=CARTESIAN_POINT('',(144.217907653,-13.999999744,2.581548852));
#973=CARTESIAN_POINT('',(144.251688512,-13.999999641,2.746479204));
#974=B_SPLINE_SURFACE_WITH_KNOTS('',3,3,((#866,#867,#868,#869,#870,#871),(#872,#873,#874,#875,#876,#877),(#878,#879,#880,#881,#882,#883),(#884,#885,#886,#887,#888,#889),(#890,#891,#892,#893,#894,#895),(#896,#897,#898,#899,#900,#901),(#902,#903,#904,#905,#906,#907),(#908,#909,#910,#911,#912,#913),(#914,#915,#916,#917,#918,#919),(#920,#921,#922,#923,#924,#925),(#926,#927,#928,#929,#930,#931),(#932,#933,#934,#935,#936,#937),(#938,#939,#940,#941,#942,#943),(#944,#945,#946,#947,#948,#949),(#950,#951,#952,#953,#954,#955),(#956,#957,#958,#959,#960,#961),(#962,#963,#964,#965,#966,#967),(#968,#969,#970,#971,#972,#973)),.UNSPECIFIED.,.F.,.F.,.U.,(4,2,2,2,2,2,2,2,4),(4,2,4),(0.026518303,0.026898332,0.027235034,0.027571737,0.028245141,0.028918546,0.029591951,0.029928653,0.030265355),(0.,0.5,1.),.UNSPECIFIED.);
#975=ORIENTED_EDGE('',*,*,#265,.F.);
#976=ORIENTED_EDGE('',*,*,#633,.F.);
#977=ORIENTED_EDGE('',*,*,#590,.F.);
#978=ORIENTED_EDGE('',*,*,#525,.F.);
#979=ORIENTED_EDGE('',*,*,#489,.F.);
#980=EDGE_LOOP('',(#975,#976,#977,#978,#979));
#981=FACE_BOUND('',#980,.T.);
#982=ADVANCED_FACE('',(#981),#974,.T.);
#983=CARTESIAN_POINT('',(141.65,-4.034534039,6.399989361));
#984=CARTESIAN_POINT('',(141.649999997,-4.308524135,6.49067445));
#985=CARTESIAN_POINT('',(141.675050344,-4.582510131,6.581358181));
#986=CARTESIAN_POINT('',(141.774503954,-5.122295119,6.760015888));
#987=CARTESIAN_POINT('',(141.848905727,-5.388086034,6.847987192));
#988=CARTESIAN_POINT('',(142.044838223,-5.903530536,7.018588626));
#989=CARTESIAN_POINT('',(142.166366013,-6.153176411,7.101216205));
#990=CARTESIAN_POINT('',(142.452916915,-6.628863193,7.258658531));
#991=CARTESIAN_POINT('',(142.617935739,-6.854896983,7.333470922));
#992=CARTESIAN_POINT('',(142.802234926,-7.065747495,7.403257912));
#993=CARTESIAN_POINT('',(141.65,-4.155780707,6.033708167));
#994=CARTESIAN_POINT('',(141.649999999,-4.427346483,6.124271768));
#995=CARTESIAN_POINT('',(141.674643266,-4.698908329,6.214834059));
#996=CARTESIAN_POINT('',(141.772492772,-5.234049675,6.393296287));
#997=CARTESIAN_POINT('',(141.845697593,-5.49762143,6.481193641));
#998=CARTESIAN_POINT('',(142.038517952,-6.009027189,6.651739345));
#999=CARTESIAN_POINT('',(142.158130699,-6.25685379,6.734385225));
#1000=CARTESIAN_POINT('',(142.44024927,-6.729476761,6.891995747));
#1001=CARTESIAN_POINT('',(142.602751011,-6.954266289,6.966958107));
#1002=CARTESIAN_POINT('',(142.784309507,-7.164233182,7.036976717));
#1003=CARTESIAN_POINT('',(141.65,-4.278271577,5.667805944));
#1004=CARTESIAN_POINT('',(141.65,-4.547354015,5.758247076));
#1005=CARTESIAN_POINT('',(141.674231786,-4.816432686,5.848686941));
#1006=CARTESIAN_POINT('',(141.770459257,-5.346812058,6.026952061));
#1007=CARTESIAN_POINT('',(141.842453596,-5.608105334,6.11477482));
#1008=CARTESIAN_POINT('',(142.032124698,-6.11535339,6.285264222));
#1009=CARTESIAN_POINT('',(142.149798808,-6.36130107,6.367928478));
#1010=CARTESIAN_POINT('',(142.427426376,-6.83074108,6.525708532));
#1011=CARTESIAN_POINT('',(142.58737595,-7.05422684,6.60082212));
#1012=CARTESIAN_POINT('',(142.76615207,-7.263251265,6.671074495));
#1013=CARTESIAN_POINT('',(141.65,-4.55726228,4.8444798));
#1014=CARTESIAN_POINT('',(141.65,-4.820606877,4.934642802));
#1015=CARTESIAN_POINT('',(141.673294698,-5.083948068,5.024804638));
#1016=CARTESIAN_POINT('',(141.765826851,-5.603311856,5.202622015));
#1017=CARTESIAN_POINT('',(141.835063109,-5.859327737,5.290275255));
#1018=CARTESIAN_POINT('',(142.017554043,-6.356918976,5.460636513));
#1019=CARTESIAN_POINT('',(142.130806361,-6.598487898,5.543342326));
#1020=CARTESIAN_POINT('',(142.398180866,-7.060464781,5.701507325));
#1021=CARTESIAN_POINT('',(142.552299598,-7.280866766,5.776964464));
#1022=CARTESIAN_POINT('',(142.724710647,-7.487622221,5.847748351));
#1023=CARTESIAN_POINT('',(141.65,-4.714455323,4.38742545));
#1024=CARTESIAN_POINT('',(141.649999999,-4.974511208,4.477432268));
#1025=CARTESIAN_POINT('',(141.672766669,-5.234563881,4.567437974));
#1026=CARTESIAN_POINT('',(141.76321564,-5.747605325,4.745003846));
#1027=CARTESIAN_POINT('',(141.830896823,-6.000587758,4.832561816));
#1028=CARTESIAN_POINT('',(142.009336229,-6.492610352,5.002850919));
#1029=CARTESIAN_POINT('',(142.120092247,-6.731644434,5.085579948));
#1030=CARTESIAN_POINT('',(142.381671805,-7.189270824,5.243961069));
#1031=CARTESIAN_POINT('',(142.532492114,-7.407857478,5.319611204));
#1032=CARTESIAN_POINT('',(142.701296843,-7.613251241,5.390694001));
#1033=CARTESIAN_POINT('',(141.65,-4.874094957,3.931322165));
#1034=CARTESIAN_POINT('',(141.649999997,-5.13074814,4.021171297));
#1035=CARTESIAN_POINT('',(141.672231637,-5.387398295,4.111019369));
#1036=CARTESIAN_POINT('',(141.760568773,-5.893888093,4.288331233));
#1037=CARTESIAN_POINT('',(141.826673227,-6.143721761,4.375792934));
#1038=CARTESIAN_POINT('',(142.001001277,-6.629942909,4.546008981));
#1039=CARTESIAN_POINT('',(142.109222817,-6.866324654,4.62876132));
#1040=CARTESIAN_POINT('',(142.364911647,-7.319363419,4.787360598));
#1041=CARTESIAN_POINT('',(142.51237592,-7.536015096,4.863205667));
#1042=CARTESIAN_POINT('',(142.677505195,-7.739927094,4.934590716));
#1043=B_SPLINE_SURFACE_WITH_KNOTS('',3,3,((#983,#984,#985,#986,#987,#988,#989,#990,#991,#992),(#993,#994,#995,#996,#997,#998,#999,#1000,#1001,#1002),(#1003,#1004,#1005,#1006,#1007,#1008,#1009,#1010,#1011,#1012),(#1013,#1014,#1015,#1016,#1017,#1018,#1019,#1020,#1021,#1022),(#1023,#1024,#1025,#1026,#1027,#1028,#1029,#1030,#1031,#1032),(#1033,#1034,#1035,#1036,#1037,#1038,#1039,#1040,#1041,#1042)),.UNSPECIFIED.,.F.,.F.,.U.,(4,2,4),(4,2,2,2,4),(0.025770379,0.026926875,0.028375676),(0.,0.25,0.5,0.75,1.),.UNSPECIFIED.);
#1044=ORIENTED_EDGE('',*,*,#572,.F.);
#1045=ORIENTED_EDGE('',*,*,#642,.F.);
#1046=ORIENTED_EDGE('',*,*,#58,.F.);
#1047=ORIENTED_EDGE('',*,*,#606,.F.);
#1048=EDGE_LOOP('',(#1044,#1045,#1046,#1047));
#1049=FACE_BOUND('',#1048,.T.);
#1050=ADVANCED_FACE('',(#1049),#1043,.T.);
#1051=CLOSED_SHELL('',(#93,#188,#269,#286,#308,#352,#364,#389,#447,#475,#508,#536,#594,#612,#646,#680,#748,#865,#982,#1050));
#1052=MANIFOLD_SOLID_BREP('Opening Raw Slot Back',#1051);
#1053=COLOUR_RGB('',0.262745112,0.262745112,0.796078444);
#1054=FILL_AREA_STYLE_COLOUR('',#1053);
#1055=FILL_AREA_STYLE('',(#1054));
#1056=SURFACE_STYLE_FILL_AREA(#1055);
#1057=SURFACE_SIDE_STYLE('',(#1056));
#1058=SURFACE_STYLE_USAGE(.BOTH.,#1057);
#1059=PRESENTATION_STYLE_ASSIGNMENT((#1058));
#26=STYLED_ITEM('',(#1059),#1052);
#16=SHAPE_REPRESENTATION('Opening Raw Slot Back',(#15),#10);
#17=ADVANCED_BREP_SHAPE_REPRESENTATION('Opening Raw Slot Back',(#1052),#10);
#1067=SHAPE_REPRESENTATION_RELATIONSHIP('','',#16,#17);
#1068=CARTESIAN_POINT('',(0.,0.,0.));
#1069=DIRECTION('',(0.,0.,1.));
#1070=DIRECTION('',(1.,0.,0.));
#1071=AXIS2_PLACEMENT_3D('',#1068,#1069,#1070);
#1073=MAPPED_ITEM('',#1072,#1071);
#1072=REPRESENTATION_MAP(#1071,#16);
#1074=APPLICATION_CONTEXT('Managed model based 3d engineering');
#1075=APPLICATION_PROTOCOL_DEFINITION('international standard','ap242_managed_model_based_3d_engineering',2014,#1074);
#1076=PRODUCT_CONTEXT('',#1074,'mechanical');
#1077=PRODUCT_DEFINITION_CONTEXT('part definition',#1074,'design');
#24=PRODUCT('Opening Raw Slot Back','Opening Raw Slot Back','',(#1076));
#1078=PRODUCT_RELATED_PRODUCT_CATEGORY('part','',(#24));
#1079=PRODUCT_DEFINITION_FORMATION_WITH_SPECIFIED_SOURCE('','',#24,.NOT_KNOWN.);
#25=PRODUCT_DEFINITION('design','',#1079,#1077);
#23=PRODUCT_DEFINITION_SHAPE('','',#25);
#1080=SHAPE_DEFINITION_REPRESENTATION(#23,#16);
#11=DRAUGHTING_MODEL('',(#1073),#10);
#1081=DESCRIPTIVE_REPRESENTATION_ITEM('KEY','/Users/ddanier/Library/Containers/com.shapr3d.shapr/Data/tmp/41E18709-D3BE-46C5-A9CB-F280824D73D6.tmp');
#1082=PROPERTY_DEFINITION('KEY','',#25);
#1083=REPRESENTATION('',(#1081),#10);
#1084=PROPERTY_DEFINITION_REPRESENTATION(#1082,#1083);
#1085=GENERAL_PROPERTY('','KEY','');
#1086=GENERAL_PROPERTY_ASSOCIATION('','',#1085,#1082);
#1=MECHANICAL_DESIGN_GEOMETRIC_PRESENTATION_REPRESENTATION('',(#26),#10);
ENDSEC;
END-ISO-10303-21;
