ISO-10303-21;
HEADER;

/* File generated by Shapr3D Version 5.800.0.8232 */

FILE_DESCRIPTION(('HOOPS Exchange Step'),'2;1');

FILE_NAME('/Users/ddanier/Library/Containers/com.shapr3d.shapr/Data/tmp/export/temp_export',
'2025-03-02T22:00:28+01:00',
('ddanier'),
('Shapr3D Limited'),
'HOOPS Exchange 2024.8',
'Shapr3D',
'Authorized');

FILE_SCHEMA( ('AP242_MANAGED_MODEL_BASED_3D_ENGINEERING_MIM_LF {1 0 10303 442 1 1 4}') );

ENDSEC;

DATA;
#3=(NAMED_UNIT(*)PLANE_ANGLE_UNIT()SI_UNIT($,.RADIAN.));
#4=PLANE_ANGLE_MEASURE_WITH_UNIT(PLANE_ANGLE_MEASURE(0.0174532925),#3);
#5=(CONVERSION_BASED_UNIT('DEGREE',#4)NAMED_UNIT(#6)PLANE_ANGLE_UNIT());
#6=DIMENSIONAL_EXPONENTS(0.,0.,0.,0.,0.,0.,0.);
#7=(NAMED_UNIT(*)SI_UNIT($,.STERADIAN.)SOLID_ANGLE_UNIT());
#8=(LENGTH_UNIT()NAMED_UNIT(*)SI_UNIT(.MILLI.,.METRE.));
#9=UNCERTAINTY_MEASURE_WITH_UNIT(LENGTH_MEASURE(1.000000E-05),#8,'DISTANCE_ACCURACY_VALUE','Maximum Tolerance applied to model');
#10=(GEOMETRIC_REPRESENTATION_CONTEXT(3)GLOBAL_UNCERTAINTY_ASSIGNED_CONTEXT((#9))GLOBAL_UNIT_ASSIGNED_CONTEXT((#8,#5,#7))REPRESENTATION_CONTEXT('','Snap In Slot Negative'));
#12=CARTESIAN_POINT('',(0.,0.,0.));
#13=DIRECTION('',(0.,0.,1.));
#14=DIRECTION('',(1.,0.,0.));
#15=AXIS2_PLACEMENT_3D('TS3D_PRODUCT_CSYS',#12,#13,#14);
#27=CARTESIAN_POINT('',(-75.,64.,-6.));
#28=DIRECTION('',(0.,0.,1.));
#29=DIRECTION('',(1.,0.,0.));
#30=AXIS2_PLACEMENT_3D('',#27,#28,#29);
#31=PLANE('',#30);
#32=CARTESIAN_POINT('',(-17.35,64.,-6.));
#33=VERTEX_POINT('',#32);
#34=CARTESIAN_POINT('',(-17.35,37.5,-6.));
#35=VERTEX_POINT('',#34);
#36=CARTESIAN_POINT('',(-17.35,64.,-6.));
#37=DIRECTION('',(0.,-1.,0.));
#38=VECTOR('',#37,26.5);
#39=LINE('',#36,#38);
#40=EDGE_CURVE('',#33,#35,#39,.T.);
#41=ORIENTED_EDGE('',*,*,#40,.F.);
#42=CARTESIAN_POINT('',(-32.65,64.,-6.));
#43=VERTEX_POINT('',#42);
#44=CARTESIAN_POINT('',(-25.,64.,-6.));
#45=DIRECTION('',(0.,0.,1.));
#46=DIRECTION('',(1.,0.,-0.));
#47=AXIS2_PLACEMENT_3D('',#44,#45,#46);
#48=CIRCLE('',#47,7.65);
#49=EDGE_CURVE('',#33,#43,#48,.T.);
#50=ORIENTED_EDGE('',*,*,#49,.T.);
#51=CARTESIAN_POINT('',(-32.65,37.5,-6.));
#52=VERTEX_POINT('',#51);
#53=CARTESIAN_POINT('',(-32.65,64.,-6.));
#54=DIRECTION('',(0.,-1.,0.));
#55=VECTOR('',#54,26.5);
#56=LINE('',#53,#55);
#57=EDGE_CURVE('',#43,#52,#56,.T.);
#58=ORIENTED_EDGE('',*,*,#57,.T.);
#59=CARTESIAN_POINT('',(-32.65,37.5,-6.));
#60=DIRECTION('',(1.,-0.,0.));
#61=VECTOR('',#60,15.3);
#62=LINE('',#59,#61);
#63=EDGE_CURVE('',#52,#35,#62,.T.);
#64=ORIENTED_EDGE('',*,*,#63,.T.);
#65=EDGE_LOOP('',(#41,#50,#58,#64));
#66=FACE_BOUND('',#65,.T.);
#67=ADVANCED_FACE('',(#66),#31,.T.);
#68=CARTESIAN_POINT('',(-25.,37.5,-5.998));
#69=DIRECTION('',(0.,1.,0.));
#70=DIRECTION('',(-1.,0.,0.));
#71=AXIS2_PLACEMENT_3D('',#68,#69,#70);
#72=PLANE('',#71);
#73=CARTESIAN_POINT('',(-32.65,37.5,-6.437867966));
#74=VERTEX_POINT('',#73);
#75=CARTESIAN_POINT('',(-32.65,37.5,-6.437867966));
#76=DIRECTION('',(0.,0.,1.));
#77=VECTOR('',#76,0.437867966);
#78=LINE('',#75,#77);
#79=EDGE_CURVE('',#74,#52,#78,.T.);
#80=ORIENTED_EDGE('',*,*,#79,.F.);
#81=CARTESIAN_POINT('',(-35.15,37.5,-8.937867966));
#82=VERTEX_POINT('',#81);
#83=CARTESIAN_POINT('',(-35.15,37.5,-8.937867966));
#84=DIRECTION('',(0.707106781,-0.,0.707106781));
#85=VECTOR('',#84,3.535533906);
#86=LINE('',#83,#85);
#87=EDGE_CURVE('',#82,#74,#86,.T.);
#88=ORIENTED_EDGE('',*,*,#87,.F.);
#89=CARTESIAN_POINT('',(-35.15,37.5,-10.15));
#90=VERTEX_POINT('',#89);
#91=CARTESIAN_POINT('',(-35.15,37.5,-10.15));
#92=DIRECTION('',(-0.,0.,1.));
#93=VECTOR('',#92,1.212132034);
#94=LINE('',#91,#93);
#95=EDGE_CURVE('',#90,#82,#94,.T.);
#96=ORIENTED_EDGE('',*,*,#95,.F.);
#97=CARTESIAN_POINT('',(-14.85,37.5,-10.15));
#98=VERTEX_POINT('',#97);
#99=CARTESIAN_POINT('',(-35.15,37.5,-10.15));
#100=DIRECTION('',(1.,-0.,0.));
#101=VECTOR('',#100,20.3);
#102=LINE('',#99,#101);
#103=EDGE_CURVE('',#90,#98,#102,.T.);
#104=ORIENTED_EDGE('',*,*,#103,.T.);
#105=CARTESIAN_POINT('',(-14.85,37.5,-8.937867966));
#106=VERTEX_POINT('',#105);
#107=CARTESIAN_POINT('',(-14.85,37.5,-10.15));
#108=DIRECTION('',(-0.,0.,1.));
#109=VECTOR('',#108,1.212132034);
#110=LINE('',#107,#109);
#111=EDGE_CURVE('',#98,#106,#110,.T.);
#112=ORIENTED_EDGE('',*,*,#111,.T.);
#113=CARTESIAN_POINT('',(-17.35,37.5,-6.437867966));
#114=VERTEX_POINT('',#113);
#115=CARTESIAN_POINT('',(-14.85,37.5,-8.937867966));
#116=DIRECTION('',(-0.707106781,0.,0.707106781));
#117=VECTOR('',#116,3.535533906);
#118=LINE('',#115,#117);
#119=EDGE_CURVE('',#106,#114,#118,.T.);
#120=ORIENTED_EDGE('',*,*,#119,.T.);
#121=CARTESIAN_POINT('',(-17.35,37.5,-6.437867966));
#122=DIRECTION('',(0.,0.,1.));
#123=VECTOR('',#122,0.437867966);
#124=LINE('',#121,#123);
#125=EDGE_CURVE('',#114,#35,#124,.T.);
#126=ORIENTED_EDGE('',*,*,#125,.T.);
#127=ORIENTED_EDGE('',*,*,#63,.F.);
#128=EDGE_LOOP('',(#80,#88,#96,#104,#112,#120,#126,#127));
#129=FACE_BOUND('',#128,.T.);
#130=ADVANCED_FACE('',(#129),#72,.F.);
#131=CARTESIAN_POINT('',(-15.15,59.241442551,-10.152));
#132=DIRECTION('',(-0.99719931,-0.074789948,0.));
#133=DIRECTION('',(0.074789948,-0.99719931,0.));
#134=AXIS2_PLACEMENT_3D('',#131,#132,#133);
#135=PLANE('',#134);
#136=CARTESIAN_POINT('',(-15.45,63.241442551,-8.337867966));
#137=VERTEX_POINT('',#136);
#138=CARTESIAN_POINT('',(-15.240798563,60.452090061,-8.937867966));
#139=VERTEX_POINT('',#138);
#140=CARTESIAN_POINT('',(-15.45,63.241442551,-8.337867966));
#141=CARTESIAN_POINT('',(-15.378549585,62.288770357,-8.409318381));
#142=CARTESIAN_POINT('',(-15.308990896,61.361321161,-8.622432622));
#143=CARTESIAN_POINT('',(-15.240798563,60.452090061,-8.937867966));
#144=B_SPLINE_CURVE_WITH_KNOTS('',3,(#140,#141,#142,#143),.UNSPECIFIED.,.F.,.F.,(4,4),(0.000708517,0.003567616),.UNSPECIFIED.);
#145=EDGE_CURVE('',#137,#139,#144,.T.);
#146=ORIENTED_EDGE('',*,*,#145,.F.);
#147=CARTESIAN_POINT('',(-14.85,55.241442551,-8.937867966));
#148=VERTEX_POINT('',#147);
#149=CARTESIAN_POINT('',(-15.45,63.241442551,-8.337867966));
#150=DIRECTION('',(0.074581652,-0.99442202,-0.074581652));
#151=VECTOR('',#150,8.044874144);
#152=LINE('',#149,#151);
#153=EDGE_CURVE('',#137,#148,#152,.T.);
#154=ORIENTED_EDGE('',*,*,#153,.T.);
#155=CARTESIAN_POINT('',(-14.85,55.241442551,-10.15));
#156=VERTEX_POINT('',#155);
#157=CARTESIAN_POINT('',(-14.85,55.241442551,-10.15));
#158=DIRECTION('',(0.,0.,1.));
#159=VECTOR('',#158,1.212132034);
#160=LINE('',#157,#159);
#161=EDGE_CURVE('',#156,#148,#160,.T.);
#162=ORIENTED_EDGE('',*,*,#161,.F.);
#163=CARTESIAN_POINT('',(-15.240798563,60.452090061,-10.15));
#164=VERTEX_POINT('',#163);
#165=CARTESIAN_POINT('',(-15.240798563,60.452090061,-10.15));
#166=DIRECTION('',(0.074789948,-0.99719931,0.));
#167=VECTOR('',#166,5.225281905);
#168=LINE('',#165,#167);
#169=EDGE_CURVE('',#164,#156,#168,.T.);
#170=ORIENTED_EDGE('',*,*,#169,.F.);
#171=CARTESIAN_POINT('',(-15.240798563,60.452090061,-8.937867966));
#172=DIRECTION('',(-0.,-0.,-1.));
#173=VECTOR('',#172,1.212132034);
#174=LINE('',#171,#173);
#175=EDGE_CURVE('',#139,#164,#174,.T.);
#176=ORIENTED_EDGE('',*,*,#175,.F.);
#177=EDGE_LOOP('',(#146,#154,#162,#170,#176));
#178=FACE_BOUND('',#177,.T.);
#179=ADVANCED_FACE('',(#178),#135,.F.);
#180=CARTESIAN_POINT('',(-34.85,59.241442551,-10.152));
#181=DIRECTION('',(0.99719931,-0.074789948,0.));
#182=DIRECTION('',(0.074789948,0.99719931,0.));
#183=AXIS2_PLACEMENT_3D('',#180,#181,#182);
#184=PLANE('',#183);
#185=CARTESIAN_POINT('',(-35.15,55.241442551,-10.15));
#186=VERTEX_POINT('',#185);
#187=CARTESIAN_POINT('',(-34.759201437,60.452090061,-10.15));
#188=VERTEX_POINT('',#187);
#189=CARTESIAN_POINT('',(-35.15,55.241442551,-10.15));
#190=DIRECTION('',(0.074789948,0.99719931,0.));
#191=VECTOR('',#190,5.225281905);
#192=LINE('',#189,#191);
#193=EDGE_CURVE('',#186,#188,#192,.T.);
#194=ORIENTED_EDGE('',*,*,#193,.F.);
#195=CARTESIAN_POINT('',(-35.15,55.241442551,-8.937867966));
#196=VERTEX_POINT('',#195);
#197=CARTESIAN_POINT('',(-35.15,55.241442551,-10.15));
#198=DIRECTION('',(0.,0.,1.));
#199=VECTOR('',#198,1.212132034);
#200=LINE('',#197,#199);
#201=EDGE_CURVE('',#186,#196,#200,.T.);
#202=ORIENTED_EDGE('',*,*,#201,.T.);
#203=CARTESIAN_POINT('',(-34.55,63.241442551,-8.337867966));
#204=VERTEX_POINT('',#203);
#205=CARTESIAN_POINT('',(-34.55,63.241442551,-8.337867966));
#206=DIRECTION('',(-0.074581652,-0.99442202,-0.074581652));
#207=VECTOR('',#206,8.044874144);
#208=LINE('',#205,#207);
#209=EDGE_CURVE('',#204,#196,#208,.T.);
#210=ORIENTED_EDGE('',*,*,#209,.F.);
#211=CARTESIAN_POINT('',(-34.759201437,60.452090061,-8.937867966));
#212=VERTEX_POINT('',#211);
#213=CARTESIAN_POINT('',(-34.759201437,60.452090061,-8.937867966));
#214=CARTESIAN_POINT('',(-34.691009104,61.361321161,-8.622432622));
#215=CARTESIAN_POINT('',(-34.621450415,62.288770357,-8.40931838));
#216=CARTESIAN_POINT('',(-34.55,63.241442551,-8.337867966));
#217=B_SPLINE_CURVE_WITH_KNOTS('',3,(#213,#214,#215,#216),.UNSPECIFIED.,.F.,.F.,(4,4),(0.000002114,0.002861214),.UNSPECIFIED.);
#218=EDGE_CURVE('',#212,#204,#217,.T.);
#219=ORIENTED_EDGE('',*,*,#218,.F.);
#220=CARTESIAN_POINT('',(-34.759201437,60.452090061,-10.15));
#221=DIRECTION('',(0.,0.,1.));
#222=VECTOR('',#221,1.212132034);
#223=LINE('',#220,#222);
#224=EDGE_CURVE('',#188,#212,#223,.T.);
#225=ORIENTED_EDGE('',*,*,#224,.F.);
#226=EDGE_LOOP('',(#194,#202,#210,#219,#225));
#227=FACE_BOUND('',#226,.T.);
#228=ADVANCED_FACE('',(#227),#184,.F.);
#229=CARTESIAN_POINT('',(-35.15,64.,-9.543933983));
#230=DIRECTION('',(1.,0.,0.));
#231=DIRECTION('',(0.,0.,-1.));
#232=AXIS2_PLACEMENT_3D('',#229,#230,#231);
#233=PLANE('',#232);
#234=CARTESIAN_POINT('',(-35.15,55.241442551,-10.15));
#235=DIRECTION('',(0.,-1.,0.));
#236=VECTOR('',#235,17.741442551);
#237=LINE('',#234,#236);
#238=EDGE_CURVE('',#186,#90,#237,.T.);
#239=ORIENTED_EDGE('',*,*,#238,.T.);
#240=ORIENTED_EDGE('',*,*,#95,.T.);
#241=CARTESIAN_POINT('',(-35.15,55.241442551,-8.937867966));
#242=DIRECTION('',(0.,-1.,0.));
#243=VECTOR('',#242,17.741442551);
#244=LINE('',#241,#243);
#245=EDGE_CURVE('',#196,#82,#244,.T.);
#246=ORIENTED_EDGE('',*,*,#245,.F.);
#247=ORIENTED_EDGE('',*,*,#201,.F.);
#248=EDGE_LOOP('',(#239,#240,#246,#247));
#249=FACE_BOUND('',#248,.T.);
#250=ADVANCED_FACE('',(#249),#233,.F.);
#251=CARTESIAN_POINT('',(-19.925,64.,-10.15));
#252=DIRECTION('',(0.,0.,-1.));
#253=DIRECTION('',(-1.,0.,-0.));
#254=AXIS2_PLACEMENT_3D('',#251,#252,#253);
#255=PLANE('',#254);
#256=ORIENTED_EDGE('',*,*,#169,.T.);
#257=CARTESIAN_POINT('',(-14.85,55.241442551,-10.15));
#258=DIRECTION('',(0.,-1.,0.));
#259=VECTOR('',#258,17.741442551);
#260=LINE('',#257,#259);
#261=EDGE_CURVE('',#156,#98,#260,.T.);
#262=ORIENTED_EDGE('',*,*,#261,.T.);
#263=ORIENTED_EDGE('',*,*,#103,.F.);
#264=ORIENTED_EDGE('',*,*,#238,.F.);
#265=ORIENTED_EDGE('',*,*,#193,.T.);
#266=CARTESIAN_POINT('',(-35.15,63.241442551,-10.15));
#267=VERTEX_POINT('',#266);
#268=CARTESIAN_POINT('',(-25.,63.241442551,-10.15));
#269=DIRECTION('',(0.,0.,1.));
#270=DIRECTION('',(1.,0.,-0.));
#271=AXIS2_PLACEMENT_3D('',#268,#269,#270);
#272=CIRCLE('',#271,10.15);
#273=EDGE_CURVE('',#267,#188,#272,.T.);
#274=ORIENTED_EDGE('',*,*,#273,.F.);
#275=CARTESIAN_POINT('',(-35.15,64.,-10.15));
#276=VERTEX_POINT('',#275);
#277=CARTESIAN_POINT('',(-35.15,64.,-10.15));
#278=DIRECTION('',(0.,-1.,0.));
#279=VECTOR('',#278,0.758557449);
#280=LINE('',#277,#279);
#281=EDGE_CURVE('',#276,#267,#280,.T.);
#282=ORIENTED_EDGE('',*,*,#281,.F.);
#283=CARTESIAN_POINT('',(-14.85,64.,-10.15));
#284=VERTEX_POINT('',#283);
#285=CARTESIAN_POINT('',(-25.,64.,-10.15));
#286=DIRECTION('',(0.,0.,1.));
#287=DIRECTION('',(1.,0.,-0.));
#288=AXIS2_PLACEMENT_3D('',#285,#286,#287);
#289=CIRCLE('',#288,10.15);
#290=EDGE_CURVE('',#284,#276,#289,.T.);
#291=ORIENTED_EDGE('',*,*,#290,.F.);
#292=CARTESIAN_POINT('',(-14.85,63.241442551,-10.15));
#293=VERTEX_POINT('',#292);
#294=CARTESIAN_POINT('',(-14.85,64.,-10.15));
#295=DIRECTION('',(0.,-1.,0.));
#296=VECTOR('',#295,0.758557449);
#297=LINE('',#294,#296);
#298=EDGE_CURVE('',#284,#293,#297,.T.);
#299=ORIENTED_EDGE('',*,*,#298,.T.);
#300=CARTESIAN_POINT('',(-25.,63.241442551,-10.15));
#301=DIRECTION('',(0.,0.,1.));
#302=DIRECTION('',(1.,0.,-0.));
#303=AXIS2_PLACEMENT_3D('',#300,#301,#302);
#304=CIRCLE('',#303,10.15);
#305=EDGE_CURVE('',#164,#293,#304,.T.);
#306=ORIENTED_EDGE('',*,*,#305,.F.);
#307=EDGE_LOOP('',(#256,#262,#263,#264,#265,#274,#282,#291,#299,#306));
#308=FACE_BOUND('',#307,.T.);
#309=ADVANCED_FACE('',(#308),#255,.T.);
#310=CARTESIAN_POINT('',(-14.85,64.,-9.543933983));
#311=DIRECTION('',(1.,0.,0.));
#312=DIRECTION('',(0.,0.,-1.));
#313=AXIS2_PLACEMENT_3D('',#310,#311,#312);
#314=PLANE('',#313);
#315=ORIENTED_EDGE('',*,*,#161,.T.);
#316=CARTESIAN_POINT('',(-14.85,55.241442551,-8.937867966));
#317=DIRECTION('',(0.,-1.,0.));
#318=VECTOR('',#317,17.741442551);
#319=LINE('',#316,#318);
#320=EDGE_CURVE('',#148,#106,#319,.T.);
#321=ORIENTED_EDGE('',*,*,#320,.T.);
#322=ORIENTED_EDGE('',*,*,#111,.F.);
#323=ORIENTED_EDGE('',*,*,#261,.F.);
#324=EDGE_LOOP('',(#315,#321,#322,#323));
#325=FACE_BOUND('',#324,.T.);
#326=ADVANCED_FACE('',(#325),#314,.T.);
#327=CARTESIAN_POINT('',(-33.9,64.,-7.687867966));
#328=DIRECTION('',(0.707106781,0.,-0.707106781));
#329=DIRECTION('',(-0.707106781,0.,-0.707106781));
#330=AXIS2_PLACEMENT_3D('',#327,#328,#329);
#331=PLANE('',#330);
#332=ORIENTED_EDGE('',*,*,#209,.T.);
#333=ORIENTED_EDGE('',*,*,#245,.T.);
#334=ORIENTED_EDGE('',*,*,#87,.T.);
#335=CARTESIAN_POINT('',(-32.65,64.,-6.437867966));
#336=VERTEX_POINT('',#335);
#337=CARTESIAN_POINT('',(-32.65,64.,-6.437867966));
#338=DIRECTION('',(0.,-1.,0.));
#339=VECTOR('',#338,26.5);
#340=LINE('',#337,#339);
#341=EDGE_CURVE('',#336,#74,#340,.T.);
#342=ORIENTED_EDGE('',*,*,#341,.F.);
#343=CARTESIAN_POINT('',(-35.15,64.,-8.937867966));
#344=VERTEX_POINT('',#343);
#345=CARTESIAN_POINT('',(-35.15,64.,-8.937867966));
#346=DIRECTION('',(0.707106781,0.,0.707106781));
#347=VECTOR('',#346,3.535533906);
#348=LINE('',#345,#347);
#349=EDGE_CURVE('',#344,#336,#348,.T.);
#350=ORIENTED_EDGE('',*,*,#349,.F.);
#351=CARTESIAN_POINT('',(-35.15,63.241442551,-8.937867966));
#352=VERTEX_POINT('',#351);
#353=CARTESIAN_POINT('',(-35.15,64.,-8.937867966));
#354=DIRECTION('',(0.,-1.,0.));
#355=VECTOR('',#354,0.758557449);
#356=LINE('',#353,#355);
#357=EDGE_CURVE('',#344,#352,#356,.T.);
#358=ORIENTED_EDGE('',*,*,#357,.T.);
#359=CARTESIAN_POINT('',(-34.55,63.241442551,-8.337867966));
#360=DIRECTION('',(-0.707106781,0.,-0.707106781));
#361=VECTOR('',#360,0.848528137);
#362=LINE('',#359,#361);
#363=EDGE_CURVE('',#204,#352,#362,.T.);
#364=ORIENTED_EDGE('',*,*,#363,.F.);
#365=EDGE_LOOP('',(#332,#333,#334,#342,#350,#358,#364));
#366=FACE_BOUND('',#365,.T.);
#367=ADVANCED_FACE('',(#366),#331,.F.);
#368=CARTESIAN_POINT('',(-32.65,64.,-6.218933983));
#369=DIRECTION('',(1.,0.,0.));
#370=DIRECTION('',(0.,0.,-1.));
#371=AXIS2_PLACEMENT_3D('',#368,#369,#370);
#372=PLANE('',#371);
#373=ORIENTED_EDGE('',*,*,#79,.T.);
#374=ORIENTED_EDGE('',*,*,#57,.F.);
#375=CARTESIAN_POINT('',(-32.65,64.,-6.437867966));
#376=DIRECTION('',(0.,0.,1.));
#377=VECTOR('',#376,0.437867966);
#378=LINE('',#375,#377);
#379=EDGE_CURVE('',#336,#43,#378,.T.);
#380=ORIENTED_EDGE('',*,*,#379,.F.);
#381=ORIENTED_EDGE('',*,*,#341,.T.);
#382=EDGE_LOOP('',(#373,#374,#380,#381));
#383=FACE_BOUND('',#382,.T.);
#384=ADVANCED_FACE('',(#383),#372,.F.);
#385=CARTESIAN_POINT('',(-35.15,64.,-9.543933983));
#386=DIRECTION('',(1.,0.,0.));
#387=DIRECTION('',(0.,0.,-1.));
#388=AXIS2_PLACEMENT_3D('',#385,#386,#387);
#389=PLANE('',#388);
#390=CARTESIAN_POINT('',(-35.15,63.241442551,-10.15));
#391=DIRECTION('',(0.,0.,1.));
#392=VECTOR('',#391,1.212132034);
#393=LINE('',#390,#392);
#394=EDGE_CURVE('',#267,#352,#393,.T.);
#395=ORIENTED_EDGE('',*,*,#394,.T.);
#396=ORIENTED_EDGE('',*,*,#357,.F.);
#397=CARTESIAN_POINT('',(-35.15,64.,-10.15));
#398=DIRECTION('',(-0.,0.,1.));
#399=VECTOR('',#398,1.212132034);
#400=LINE('',#397,#399);
#401=EDGE_CURVE('',#276,#344,#400,.T.);
#402=ORIENTED_EDGE('',*,*,#401,.F.);
#403=ORIENTED_EDGE('',*,*,#281,.T.);
#404=EDGE_LOOP('',(#395,#396,#402,#403));
#405=FACE_BOUND('',#404,.T.);
#406=ADVANCED_FACE('',(#405),#389,.F.);
#407=CARTESIAN_POINT('',(-14.85,64.,-9.543933983));
#408=DIRECTION('',(1.,0.,0.));
#409=DIRECTION('',(0.,0.,-1.));
#410=AXIS2_PLACEMENT_3D('',#407,#408,#409);
#411=PLANE('',#410);
#412=ORIENTED_EDGE('',*,*,#298,.F.);
#413=CARTESIAN_POINT('',(-14.85,64.,-8.937867966));
#414=VERTEX_POINT('',#413);
#415=CARTESIAN_POINT('',(-14.85,64.,-10.15));
#416=DIRECTION('',(-0.,0.,1.));
#417=VECTOR('',#416,1.212132034);
#418=LINE('',#415,#417);
#419=EDGE_CURVE('',#284,#414,#418,.T.);
#420=ORIENTED_EDGE('',*,*,#419,.T.);
#421=CARTESIAN_POINT('',(-14.85,63.241442551,-8.937867966));
#422=VERTEX_POINT('',#421);
#423=CARTESIAN_POINT('',(-14.85,64.,-8.937867966));
#424=DIRECTION('',(0.,-1.,0.));
#425=VECTOR('',#424,0.758557449);
#426=LINE('',#423,#425);
#427=EDGE_CURVE('',#414,#422,#426,.T.);
#428=ORIENTED_EDGE('',*,*,#427,.T.);
#429=CARTESIAN_POINT('',(-14.85,63.241442551,-10.15));
#430=DIRECTION('',(0.,0.,1.));
#431=VECTOR('',#430,1.212132034);
#432=LINE('',#429,#431);
#433=EDGE_CURVE('',#293,#422,#432,.T.);
#434=ORIENTED_EDGE('',*,*,#433,.F.);
#435=EDGE_LOOP('',(#412,#420,#428,#434));
#436=FACE_BOUND('',#435,.T.);
#437=ADVANCED_FACE('',(#436),#411,.T.);
#438=CARTESIAN_POINT('',(-16.1,64.,-7.687867966));
#439=DIRECTION('',(0.707106781,0.,0.707106781));
#440=DIRECTION('',(0.707106781,0.,-0.707106781));
#441=AXIS2_PLACEMENT_3D('',#438,#439,#440);
#442=PLANE('',#441);
#443=ORIENTED_EDGE('',*,*,#119,.F.);
#444=ORIENTED_EDGE('',*,*,#320,.F.);
#445=ORIENTED_EDGE('',*,*,#153,.F.);
#446=CARTESIAN_POINT('',(-14.85,63.241442551,-8.937867966));
#447=DIRECTION('',(-0.707106781,0.,0.707106781));
#448=VECTOR('',#447,0.848528137);
#449=LINE('',#446,#448);
#450=EDGE_CURVE('',#422,#137,#449,.T.);
#451=ORIENTED_EDGE('',*,*,#450,.F.);
#452=ORIENTED_EDGE('',*,*,#427,.F.);
#453=CARTESIAN_POINT('',(-17.35,64.,-6.437867966));
#454=VERTEX_POINT('',#453);
#455=CARTESIAN_POINT('',(-14.85,64.,-8.937867966));
#456=DIRECTION('',(-0.707106781,0.,0.707106781));
#457=VECTOR('',#456,3.535533906);
#458=LINE('',#455,#457);
#459=EDGE_CURVE('',#414,#454,#458,.T.);
#460=ORIENTED_EDGE('',*,*,#459,.T.);
#461=CARTESIAN_POINT('',(-17.35,64.,-6.437867966));
#462=DIRECTION('',(0.,-1.,0.));
#463=VECTOR('',#462,26.5);
#464=LINE('',#461,#463);
#465=EDGE_CURVE('',#454,#114,#464,.T.);
#466=ORIENTED_EDGE('',*,*,#465,.T.);
#467=EDGE_LOOP('',(#443,#444,#445,#451,#452,#460,#466));
#468=FACE_BOUND('',#467,.T.);
#469=ADVANCED_FACE('',(#468),#442,.T.);
#470=CARTESIAN_POINT('',(-17.35,64.,-6.218933983));
#471=DIRECTION('',(1.,0.,0.));
#472=DIRECTION('',(0.,0.,-1.));
#473=AXIS2_PLACEMENT_3D('',#470,#471,#472);
#474=PLANE('',#473);
#475=ORIENTED_EDGE('',*,*,#125,.F.);
#476=ORIENTED_EDGE('',*,*,#465,.F.);
#477=CARTESIAN_POINT('',(-17.35,64.,-6.437867966));
#478=DIRECTION('',(0.,0.,1.));
#479=VECTOR('',#478,0.437867966);
#480=LINE('',#477,#479);
#481=EDGE_CURVE('',#454,#33,#480,.T.);
#482=ORIENTED_EDGE('',*,*,#481,.T.);
#483=ORIENTED_EDGE('',*,*,#40,.T.);
#484=EDGE_LOOP('',(#475,#476,#482,#483));
#485=FACE_BOUND('',#484,.T.);
#486=ADVANCED_FACE('',(#485),#474,.T.);
#487=CARTESIAN_POINT('',(-25.,64.,-0.));
#488=DIRECTION('',(0.,0.,1.));
#489=DIRECTION('',(1.,0.,-0.));
#490=AXIS2_PLACEMENT_3D('',#487,#488,#489);
#491=CYLINDRICAL_SURFACE('',#490,10.15);
#492=CARTESIAN_POINT('',(-25.,64.,-8.937867966));
#493=DIRECTION('',(0.,0.,1.));
#494=DIRECTION('',(1.,0.,-0.));
#495=AXIS2_PLACEMENT_3D('',#492,#493,#494);
#496=CIRCLE('',#495,10.15);
#497=EDGE_CURVE('',#414,#344,#496,.T.);
#498=ORIENTED_EDGE('',*,*,#497,.F.);
#499=ORIENTED_EDGE('',*,*,#419,.F.);
#500=ORIENTED_EDGE('',*,*,#290,.T.);
#501=ORIENTED_EDGE('',*,*,#401,.T.);
#502=EDGE_LOOP('',(#498,#499,#500,#501));
#503=FACE_BOUND('',#502,.T.);
#504=ADVANCED_FACE('',(#503),#491,.T.);
#505=CARTESIAN_POINT('',(-25.,64.,-8.937867966));
#506=DIRECTION('',(0.,0.,-1.));
#507=DIRECTION('',(-1.,0.,0.));
#508=AXIS2_PLACEMENT_3D('',#505,#506,#507);
#509=CONICAL_SURFACE('',#508,10.15,45.);
#510=ORIENTED_EDGE('',*,*,#497,.T.);
#511=ORIENTED_EDGE('',*,*,#349,.T.);
#512=CARTESIAN_POINT('',(-25.,64.,-6.437867966));
#513=DIRECTION('',(0.,0.,1.));
#514=DIRECTION('',(1.,0.,-0.));
#515=AXIS2_PLACEMENT_3D('',#512,#513,#514);
#516=CIRCLE('',#515,7.65);
#517=EDGE_CURVE('',#454,#336,#516,.T.);
#518=ORIENTED_EDGE('',*,*,#517,.F.);
#519=ORIENTED_EDGE('',*,*,#459,.F.);
#520=EDGE_LOOP('',(#510,#511,#518,#519));
#521=FACE_BOUND('',#520,.T.);
#522=ADVANCED_FACE('',(#521),#509,.T.);
#523=CARTESIAN_POINT('',(-25.,64.,-0.));
#524=DIRECTION('',(0.,0.,1.));
#525=DIRECTION('',(1.,0.,-0.));
#526=AXIS2_PLACEMENT_3D('',#523,#524,#525);
#527=CYLINDRICAL_SURFACE('',#526,7.65);
#528=ORIENTED_EDGE('',*,*,#49,.F.);
#529=ORIENTED_EDGE('',*,*,#481,.F.);
#530=ORIENTED_EDGE('',*,*,#517,.T.);
#531=ORIENTED_EDGE('',*,*,#379,.T.);
#532=EDGE_LOOP('',(#528,#529,#530,#531));
#533=FACE_BOUND('',#532,.T.);
#534=ADVANCED_FACE('',(#533),#527,.T.);
#535=CARTESIAN_POINT('',(-25.,63.241442551,-8.937867966));
#536=DIRECTION('',(0.,0.,-1.));
#537=DIRECTION('',(-1.,0.,0.));
#538=AXIS2_PLACEMENT_3D('',#535,#536,#537);
#539=CONICAL_SURFACE('',#538,10.15,45.);
#540=ORIENTED_EDGE('',*,*,#363,.T.);
#541=CARTESIAN_POINT('',(-25.,63.241442551,-8.937867966));
#542=DIRECTION('',(0.,0.,1.));
#543=DIRECTION('',(1.,0.,-0.));
#544=AXIS2_PLACEMENT_3D('',#541,#542,#543);
#545=CIRCLE('',#544,10.15);
#546=EDGE_CURVE('',#352,#212,#545,.T.);
#547=ORIENTED_EDGE('',*,*,#546,.T.);
#548=ORIENTED_EDGE('',*,*,#218,.T.);
#549=EDGE_LOOP('',(#540,#547,#548));
#550=FACE_BOUND('',#549,.T.);
#551=ADVANCED_FACE('',(#550),#539,.T.);
#552=CARTESIAN_POINT('',(-25.,63.241442551,-0.));
#553=DIRECTION('',(0.,0.,1.));
#554=DIRECTION('',(1.,0.,-0.));
#555=AXIS2_PLACEMENT_3D('',#552,#553,#554);
#556=CYLINDRICAL_SURFACE('',#555,10.15);
#557=ORIENTED_EDGE('',*,*,#394,.F.);
#558=ORIENTED_EDGE('',*,*,#273,.T.);
#559=ORIENTED_EDGE('',*,*,#224,.T.);
#560=ORIENTED_EDGE('',*,*,#546,.F.);
#561=EDGE_LOOP('',(#557,#558,#559,#560));
#562=FACE_BOUND('',#561,.T.);
#563=ADVANCED_FACE('',(#562),#556,.T.);
#564=CARTESIAN_POINT('',(-25.,63.241442551,-0.));
#565=DIRECTION('',(0.,0.,1.));
#566=DIRECTION('',(1.,0.,-0.));
#567=AXIS2_PLACEMENT_3D('',#564,#565,#566);
#568=CYLINDRICAL_SURFACE('',#567,10.15);
#569=ORIENTED_EDGE('',*,*,#305,.T.);
#570=ORIENTED_EDGE('',*,*,#433,.T.);
#571=CARTESIAN_POINT('',(-25.,63.241442551,-8.937867966));
#572=DIRECTION('',(0.,0.,1.));
#573=DIRECTION('',(1.,0.,-0.));
#574=AXIS2_PLACEMENT_3D('',#571,#572,#573);
#575=CIRCLE('',#574,10.15);
#576=EDGE_CURVE('',#139,#422,#575,.T.);
#577=ORIENTED_EDGE('',*,*,#576,.F.);
#578=ORIENTED_EDGE('',*,*,#175,.T.);
#579=EDGE_LOOP('',(#569,#570,#577,#578));
#580=FACE_BOUND('',#579,.T.);
#581=ADVANCED_FACE('',(#580),#568,.T.);
#582=CARTESIAN_POINT('',(-25.,63.241442551,-8.937867966));
#583=DIRECTION('',(0.,0.,-1.));
#584=DIRECTION('',(-1.,0.,0.));
#585=AXIS2_PLACEMENT_3D('',#582,#583,#584);
#586=CONICAL_SURFACE('',#585,10.15,45.);
#587=ORIENTED_EDGE('',*,*,#576,.T.);
#588=ORIENTED_EDGE('',*,*,#450,.T.);
#589=ORIENTED_EDGE('',*,*,#145,.T.);
#590=EDGE_LOOP('',(#587,#588,#589));
#591=FACE_BOUND('',#590,.T.);
#592=ADVANCED_FACE('',(#591),#586,.T.);
#593=CLOSED_SHELL('',(#67,#130,#179,#228,#250,#309,#326,#367,#384,#406,#437,#469,#486,#504,#522,#534,#551,#563,#581,#592));
#594=MANIFOLD_SOLID_BREP('Snap In Slot Negative',#593);
#595=COLOUR_RGB('',0.65882355,0.113725491,0.113725491);
#596=FILL_AREA_STYLE_COLOUR('',#595);
#597=FILL_AREA_STYLE('',(#596));
#598=SURFACE_STYLE_FILL_AREA(#597);
#599=SURFACE_SIDE_STYLE('',(#598));
#600=SURFACE_STYLE_USAGE(.BOTH.,#599);
#601=PRESENTATION_STYLE_ASSIGNMENT((#600));
#26=STYLED_ITEM('',(#601),#594);
#16=SHAPE_REPRESENTATION('Snap In Slot Negative',(#15),#10);
#17=ADVANCED_BREP_SHAPE_REPRESENTATION('Snap In Slot Negative',(#594),#10);
#609=SHAPE_REPRESENTATION_RELATIONSHIP('','',#16,#17);
#610=CARTESIAN_POINT('',(0.,0.,0.));
#611=DIRECTION('',(0.,0.,1.));
#612=DIRECTION('',(1.,0.,0.));
#613=AXIS2_PLACEMENT_3D('',#610,#611,#612);
#615=MAPPED_ITEM('',#614,#613);
#614=REPRESENTATION_MAP(#613,#16);
#616=APPLICATION_CONTEXT('Managed model based 3d engineering');
#617=APPLICATION_PROTOCOL_DEFINITION('international standard','ap242_managed_model_based_3d_engineering',2014,#616);
#618=PRODUCT_CONTEXT('',#616,'mechanical');
#619=PRODUCT_DEFINITION_CONTEXT('part definition',#616,'design');
#24=PRODUCT('Snap In Slot Negative','Snap In Slot Negative','',(#618));
#620=PRODUCT_RELATED_PRODUCT_CATEGORY('part','',(#24));
#621=PRODUCT_DEFINITION_FORMATION_WITH_SPECIFIED_SOURCE('','',#24,.NOT_KNOWN.);
#25=PRODUCT_DEFINITION('design','',#621,#619);
#23=PRODUCT_DEFINITION_SHAPE('','',#25);
#622=SHAPE_DEFINITION_REPRESENTATION(#23,#16);
#11=DRAUGHTING_MODEL('',(#615),#10);
#623=DESCRIPTIVE_REPRESENTATION_ITEM('KEY','/Users/ddanier/Library/Containers/com.shapr3d.shapr/Data/tmp/402E4E67-6D01-4E1E-BAFD-C2E0EBDE375D.tmp');
#624=PROPERTY_DEFINITION('KEY','',#25);
#625=REPRESENTATION('',(#623),#10);
#626=PROPERTY_DEFINITION_REPRESENTATION(#624,#625);
#627=GENERAL_PROPERTY('','KEY','');
#628=GENERAL_PROPERTY_ASSOCIATION('','',#627,#624);
#1=MECHANICAL_DESIGN_GEOMETRIC_PRESENTATION_REPRESENTATION('',(#26),#10);
ENDSEC;
END-ISO-10303-21;
