ISO-10303-21;
HEADER;

/* File generated by Shapr3D Version 5.800.0.8232 */

FILE_DESCRIPTION(('HOOPS Exchange Step'),'2;1');

FILE_NAME('/Users/ddanier/Library/Containers/com.shapr3d.shapr/Data/tmp/export/temp_export',
'2025-03-02T22:00:28+01:00',
('ddanier'),
('Shapr3D Limited'),
'HOOPS Exchange 2024.8',
'Shapr3D',
'Authorized');

FILE_SCHEMA( ('AP242_MANAGED_MODEL_BASED_3D_ENGINEERING_MIM_LF {1 0 10303 442 1 1 4}') );

ENDSEC;

DATA;
#3=(NAMED_UNIT(*)PLANE_ANGLE_UNIT()SI_UNIT($,.RADIAN.));
#4=PLANE_ANGLE_MEASURE_WITH_UNIT(PLANE_ANGLE_MEASURE(0.0174532925),#3);
#5=(CONVERSION_BASED_UNIT('DEGREE',#4)NAMED_UNIT(#6)PLANE_ANGLE_UNIT());
#6=DIMENSIONAL_EXPONENTS(0.,0.,0.,0.,0.,0.,0.);
#7=(NAMED_UNIT(*)SI_UNIT($,.STERADIAN.)SOLID_ANGLE_UNIT());
#8=(LENGTH_UNIT()NAMED_UNIT(*)SI_UNIT(.MILLI.,.METRE.));
#9=UNCERTAINTY_MEASURE_WITH_UNIT(LENGTH_MEASURE(1.000000E-05),#8,'DISTANCE_ACCURACY_VALUE','Maximum Tolerance applied to model');
#10=(GEOMETRIC_REPRESENTATION_CONTEXT(3)GLOBAL_UNCERTAINTY_ASSIGNED_CONTEXT((#9))GLOBAL_UNIT_ASSIGNED_CONTEXT((#8,#5,#7))REPRESENTATION_CONTEXT('','Snap In Top Back'));
#12=CARTESIAN_POINT('',(0.,0.,0.));
#13=DIRECTION('',(0.,0.,1.));
#14=DIRECTION('',(1.,0.,0.));
#15=AXIS2_PLACEMENT_3D('TS3D_PRODUCT_CSYS',#12,#13,#14);
#27=CARTESIAN_POINT('',(227.85,-4.758557449,2.248));
#28=DIRECTION('',(-0.99719931,-0.074789948,0.));
#29=DIRECTION('',(0.074789948,-0.99719931,0.));
#30=AXIS2_PLACEMENT_3D('',#27,#28,#29);
#31=PLANE('',#30);
#32=CARTESIAN_POINT('',(227.55,-0.758557449,4.062132034));
#33=VERTEX_POINT('',#32);
#34=CARTESIAN_POINT('',(227.759201437,-3.547909939,3.462132034));
#35=VERTEX_POINT('',#34);
#36=CARTESIAN_POINT('',(227.55,-0.758557449,4.062132034));
#37=CARTESIAN_POINT('',(227.621450415,-1.711229643,3.990681619));
#38=CARTESIAN_POINT('',(227.691009104,-2.638678839,3.777567378));
#39=CARTESIAN_POINT('',(227.759201437,-3.547909939,3.462132034));
#40=B_SPLINE_CURVE_WITH_KNOTS('',3,(#36,#37,#38,#39),.UNSPECIFIED.,.F.,.F.,(4,4),(0.000708517,0.003567616),.UNSPECIFIED.);
#41=EDGE_CURVE('',#33,#35,#40,.T.);
#42=ORIENTED_EDGE('',*,*,#41,.T.);
#43=CARTESIAN_POINT('',(227.759201437,-3.547909939,2.25));
#44=VERTEX_POINT('',#43);
#45=CARTESIAN_POINT('',(227.759201437,-3.547909939,3.462132034));
#46=DIRECTION('',(-0.,-0.,-1.));
#47=VECTOR('',#46,1.212132034);
#48=LINE('',#45,#47);
#49=EDGE_CURVE('',#35,#44,#48,.T.);
#50=ORIENTED_EDGE('',*,*,#49,.T.);
#51=CARTESIAN_POINT('',(228.15,-8.758557449,2.25));
#52=VERTEX_POINT('',#51);
#53=CARTESIAN_POINT('',(227.759201437,-3.547909939,2.25));
#54=DIRECTION('',(0.074789948,-0.99719931,0.));
#55=VECTOR('',#54,5.225281905);
#56=LINE('',#53,#55);
#57=EDGE_CURVE('',#44,#52,#56,.T.);
#58=ORIENTED_EDGE('',*,*,#57,.T.);
#59=CARTESIAN_POINT('',(228.15,-8.758557449,3.462132034));
#60=VERTEX_POINT('',#59);
#61=CARTESIAN_POINT('',(228.15,-8.758557449,2.25));
#62=DIRECTION('',(0.,0.,1.));
#63=VECTOR('',#62,1.212132034);
#64=LINE('',#61,#63);
#65=EDGE_CURVE('',#52,#60,#64,.T.);
#66=ORIENTED_EDGE('',*,*,#65,.T.);
#67=CARTESIAN_POINT('',(227.55,-0.758557449,4.062132034));
#68=DIRECTION('',(0.074581652,-0.99442202,-0.074581652));
#69=VECTOR('',#68,8.044874144);
#70=LINE('',#67,#69);
#71=EDGE_CURVE('',#33,#60,#70,.T.);
#72=ORIENTED_EDGE('',*,*,#71,.F.);
#73=EDGE_LOOP('',(#42,#50,#58,#66,#72));
#74=FACE_BOUND('',#73,.T.);
#75=ADVANCED_FACE('',(#74),#31,.T.);
#76=CARTESIAN_POINT('',(208.15,-4.758557449,2.248));
#77=DIRECTION('',(0.99719931,-0.074789948,0.));
#78=DIRECTION('',(0.074789948,0.99719931,0.));
#79=AXIS2_PLACEMENT_3D('',#76,#77,#78);
#80=PLANE('',#79);
#81=CARTESIAN_POINT('',(207.85,-8.758557449,2.25));
#82=VERTEX_POINT('',#81);
#83=CARTESIAN_POINT('',(208.240798563,-3.547909939,2.25));
#84=VERTEX_POINT('',#83);
#85=CARTESIAN_POINT('',(207.85,-8.758557449,2.25));
#86=DIRECTION('',(0.074789948,0.99719931,0.));
#87=VECTOR('',#86,5.225281905);
#88=LINE('',#85,#87);
#89=EDGE_CURVE('',#82,#84,#88,.T.);
#90=ORIENTED_EDGE('',*,*,#89,.T.);
#91=CARTESIAN_POINT('',(208.240798563,-3.547909939,3.462132034));
#92=VERTEX_POINT('',#91);
#93=CARTESIAN_POINT('',(208.240798563,-3.547909939,2.25));
#94=DIRECTION('',(0.,0.,1.));
#95=VECTOR('',#94,1.212132034);
#96=LINE('',#93,#95);
#97=EDGE_CURVE('',#84,#92,#96,.T.);
#98=ORIENTED_EDGE('',*,*,#97,.T.);
#99=CARTESIAN_POINT('',(208.45,-0.758557449,4.062132034));
#100=VERTEX_POINT('',#99);
#101=CARTESIAN_POINT('',(208.240798563,-3.547909939,3.462132034));
#102=CARTESIAN_POINT('',(208.308990896,-2.638678839,3.777567378));
#103=CARTESIAN_POINT('',(208.378549585,-1.711229643,3.99068162));
#104=CARTESIAN_POINT('',(208.45,-0.758557449,4.062132034));
#105=B_SPLINE_CURVE_WITH_KNOTS('',3,(#101,#102,#103,#104),.UNSPECIFIED.,.F.,.F.,(4,4),(0.000002114,0.002861214),.UNSPECIFIED.);
#106=EDGE_CURVE('',#92,#100,#105,.T.);
#107=ORIENTED_EDGE('',*,*,#106,.T.);
#108=CARTESIAN_POINT('',(207.85,-8.758557449,3.462132034));
#109=VERTEX_POINT('',#108);
#110=CARTESIAN_POINT('',(208.45,-0.758557449,4.062132034));
#111=DIRECTION('',(-0.074581652,-0.99442202,-0.074581652));
#112=VECTOR('',#111,8.044874144);
#113=LINE('',#110,#112);
#114=EDGE_CURVE('',#100,#109,#113,.T.);
#115=ORIENTED_EDGE('',*,*,#114,.T.);
#116=CARTESIAN_POINT('',(207.85,-8.758557449,2.25));
#117=DIRECTION('',(0.,0.,1.));
#118=VECTOR('',#117,1.212132034);
#119=LINE('',#116,#118);
#120=EDGE_CURVE('',#82,#109,#119,.T.);
#121=ORIENTED_EDGE('',*,*,#120,.F.);
#122=EDGE_LOOP('',(#90,#98,#107,#115,#121));
#123=FACE_BOUND('',#122,.T.);
#124=ADVANCED_FACE('',(#123),#80,.T.);
#125=CARTESIAN_POINT('',(207.85,-0.,2.856066017));
#126=DIRECTION('',(1.,0.,0.));
#127=DIRECTION('',(0.,0.,-1.));
#128=AXIS2_PLACEMENT_3D('',#125,#126,#127);
#129=PLANE('',#128);
#130=CARTESIAN_POINT('',(207.85,-14.,2.25));
#131=VERTEX_POINT('',#130);
#132=CARTESIAN_POINT('',(207.85,-8.758557449,2.25));
#133=DIRECTION('',(0.,-1.,0.));
#134=VECTOR('',#133,5.241442551);
#135=LINE('',#132,#134);
#136=EDGE_CURVE('',#82,#131,#135,.T.);
#137=ORIENTED_EDGE('',*,*,#136,.F.);
#138=ORIENTED_EDGE('',*,*,#120,.T.);
#139=CARTESIAN_POINT('',(207.85,-14.,3.462132034));
#140=VERTEX_POINT('',#139);
#141=CARTESIAN_POINT('',(207.85,-8.758557449,3.462132034));
#142=DIRECTION('',(0.,-1.,0.));
#143=VECTOR('',#142,5.241442551);
#144=LINE('',#141,#143);
#145=EDGE_CURVE('',#109,#140,#144,.T.);
#146=ORIENTED_EDGE('',*,*,#145,.T.);
#147=CARTESIAN_POINT('',(207.85,-14.,2.25));
#148=DIRECTION('',(-0.,-0.,1.));
#149=VECTOR('',#148,1.212132034);
#150=LINE('',#147,#149);
#151=EDGE_CURVE('',#131,#140,#150,.T.);
#152=ORIENTED_EDGE('',*,*,#151,.F.);
#153=EDGE_LOOP('',(#137,#138,#146,#152));
#154=FACE_BOUND('',#153,.T.);
#155=ADVANCED_FACE('',(#154),#129,.T.);
#156=CARTESIAN_POINT('',(223.075,-0.,2.25));
#157=DIRECTION('',(0.,0.,-1.));
#158=DIRECTION('',(-1.,0.,-0.));
#159=AXIS2_PLACEMENT_3D('',#156,#157,#158);
#160=PLANE('',#159);
#161=ORIENTED_EDGE('',*,*,#57,.F.);
#162=CARTESIAN_POINT('',(228.15,-0.758557449,2.25));
#163=VERTEX_POINT('',#162);
#164=CARTESIAN_POINT('',(218.,-0.758557449,2.25));
#165=DIRECTION('',(0.,0.,1.));
#166=DIRECTION('',(1.,0.,-0.));
#167=AXIS2_PLACEMENT_3D('',#164,#165,#166);
#168=CIRCLE('',#167,10.15);
#169=EDGE_CURVE('',#44,#163,#168,.T.);
#170=ORIENTED_EDGE('',*,*,#169,.T.);
#171=CARTESIAN_POINT('',(228.15,-0.,2.25));
#172=VERTEX_POINT('',#171);
#173=CARTESIAN_POINT('',(228.15,-0.,2.25));
#174=DIRECTION('',(0.,-1.,0.));
#175=VECTOR('',#174,0.758557449);
#176=LINE('',#173,#175);
#177=EDGE_CURVE('',#172,#163,#176,.T.);
#178=ORIENTED_EDGE('',*,*,#177,.F.);
#179=CARTESIAN_POINT('',(207.85,-0.,2.25));
#180=VERTEX_POINT('',#179);
#181=CARTESIAN_POINT('',(218.,-0.,2.25));
#182=DIRECTION('',(0.,0.,1.));
#183=DIRECTION('',(1.,0.,-0.));
#184=AXIS2_PLACEMENT_3D('',#181,#182,#183);
#185=CIRCLE('',#184,10.15);
#186=EDGE_CURVE('',#172,#180,#185,.T.);
#187=ORIENTED_EDGE('',*,*,#186,.T.);
#188=CARTESIAN_POINT('',(207.85,-0.758557449,2.25));
#189=VERTEX_POINT('',#188);
#190=CARTESIAN_POINT('',(207.85,-0.,2.25));
#191=DIRECTION('',(0.,-1.,0.));
#192=VECTOR('',#191,0.758557449);
#193=LINE('',#190,#192);
#194=EDGE_CURVE('',#180,#189,#193,.T.);
#195=ORIENTED_EDGE('',*,*,#194,.T.);
#196=CARTESIAN_POINT('',(218.,-0.758557449,2.25));
#197=DIRECTION('',(0.,0.,1.));
#198=DIRECTION('',(1.,0.,-0.));
#199=AXIS2_PLACEMENT_3D('',#196,#197,#198);
#200=CIRCLE('',#199,10.15);
#201=EDGE_CURVE('',#189,#84,#200,.T.);
#202=ORIENTED_EDGE('',*,*,#201,.T.);
#203=ORIENTED_EDGE('',*,*,#89,.F.);
#204=ORIENTED_EDGE('',*,*,#136,.T.);
#205=CARTESIAN_POINT('',(228.15,-14.,2.25));
#206=VERTEX_POINT('',#205);
#207=CARTESIAN_POINT('',(207.85,-14.,2.25));
#208=DIRECTION('',(1.,0.,0.));
#209=VECTOR('',#208,20.3);
#210=LINE('',#207,#209);
#211=EDGE_CURVE('',#131,#206,#210,.T.);
#212=ORIENTED_EDGE('',*,*,#211,.T.);
#213=CARTESIAN_POINT('',(228.15,-8.758557449,2.25));
#214=DIRECTION('',(0.,-1.,0.));
#215=VECTOR('',#214,5.241442551);
#216=LINE('',#213,#215);
#217=EDGE_CURVE('',#52,#206,#216,.T.);
#218=ORIENTED_EDGE('',*,*,#217,.F.);
#219=EDGE_LOOP('',(#161,#170,#178,#187,#195,#202,#203,#204,#212,#218));
#220=FACE_BOUND('',#219,.T.);
#221=ADVANCED_FACE('',(#220),#160,.F.);
#222=CARTESIAN_POINT('',(228.15,-0.,2.856066017));
#223=DIRECTION('',(1.,0.,0.));
#224=DIRECTION('',(0.,0.,-1.));
#225=AXIS2_PLACEMENT_3D('',#222,#223,#224);
#226=PLANE('',#225);
#227=ORIENTED_EDGE('',*,*,#65,.F.);
#228=ORIENTED_EDGE('',*,*,#217,.T.);
#229=CARTESIAN_POINT('',(228.15,-14.,3.462132034));
#230=VERTEX_POINT('',#229);
#231=CARTESIAN_POINT('',(228.15,-14.,2.25));
#232=DIRECTION('',(-0.,-0.,1.));
#233=VECTOR('',#232,1.212132034);
#234=LINE('',#231,#233);
#235=EDGE_CURVE('',#206,#230,#234,.T.);
#236=ORIENTED_EDGE('',*,*,#235,.T.);
#237=CARTESIAN_POINT('',(228.15,-8.758557449,3.462132034));
#238=DIRECTION('',(0.,-1.,0.));
#239=VECTOR('',#238,5.241442551);
#240=LINE('',#237,#239);
#241=EDGE_CURVE('',#60,#230,#240,.T.);
#242=ORIENTED_EDGE('',*,*,#241,.F.);
#243=EDGE_LOOP('',(#227,#228,#236,#242));
#244=FACE_BOUND('',#243,.T.);
#245=ADVANCED_FACE('',(#244),#226,.F.);
#246=CARTESIAN_POINT('',(209.1,-0.,4.712132034));
#247=DIRECTION('',(0.707106781,0.,-0.707106781));
#248=DIRECTION('',(-0.707106781,0.,-0.707106781));
#249=AXIS2_PLACEMENT_3D('',#246,#247,#248);
#250=PLANE('',#249);
#251=ORIENTED_EDGE('',*,*,#114,.F.);
#252=CARTESIAN_POINT('',(207.85,-0.758557449,3.462132034));
#253=VERTEX_POINT('',#252);
#254=CARTESIAN_POINT('',(208.45,-0.758557449,4.062132034));
#255=DIRECTION('',(-0.707106781,0.,-0.707106781));
#256=VECTOR('',#255,0.848528137);
#257=LINE('',#254,#256);
#258=EDGE_CURVE('',#100,#253,#257,.T.);
#259=ORIENTED_EDGE('',*,*,#258,.T.);
#260=CARTESIAN_POINT('',(207.85,-0.,3.462132034));
#261=VERTEX_POINT('',#260);
#262=CARTESIAN_POINT('',(207.85,-0.,3.462132034));
#263=DIRECTION('',(0.,-1.,0.));
#264=VECTOR('',#263,0.758557449);
#265=LINE('',#262,#264);
#266=EDGE_CURVE('',#261,#253,#265,.T.);
#267=ORIENTED_EDGE('',*,*,#266,.F.);
#268=CARTESIAN_POINT('',(210.35,-0.,5.962132034));
#269=VERTEX_POINT('',#268);
#270=CARTESIAN_POINT('',(207.85,-0.,3.462132034));
#271=DIRECTION('',(0.707106781,0.,0.707106781));
#272=VECTOR('',#271,3.535533906);
#273=LINE('',#270,#272);
#274=EDGE_CURVE('',#261,#269,#273,.T.);
#275=ORIENTED_EDGE('',*,*,#274,.T.);
#276=CARTESIAN_POINT('',(210.35,-14.,5.962132034));
#277=VERTEX_POINT('',#276);
#278=CARTESIAN_POINT('',(210.35,-0.,5.962132034));
#279=DIRECTION('',(0.,-1.,0.));
#280=VECTOR('',#279,14.);
#281=LINE('',#278,#280);
#282=EDGE_CURVE('',#269,#277,#281,.T.);
#283=ORIENTED_EDGE('',*,*,#282,.T.);
#284=CARTESIAN_POINT('',(207.85,-14.,3.462132034));
#285=DIRECTION('',(0.707106781,0.,0.707106781));
#286=VECTOR('',#285,3.535533906);
#287=LINE('',#284,#286);
#288=EDGE_CURVE('',#140,#277,#287,.T.);
#289=ORIENTED_EDGE('',*,*,#288,.F.);
#290=ORIENTED_EDGE('',*,*,#145,.F.);
#291=EDGE_LOOP('',(#251,#259,#267,#275,#283,#289,#290));
#292=FACE_BOUND('',#291,.T.);
#293=ADVANCED_FACE('',(#292),#250,.T.);
#294=CARTESIAN_POINT('',(168.,0.,6.4));
#295=DIRECTION('',(0.,0.,1.));
#296=DIRECTION('',(1.,0.,0.));
#297=AXIS2_PLACEMENT_3D('',#294,#295,#296);
#298=PLANE('',#297);
#299=CARTESIAN_POINT('',(225.65,-0.,6.4));
#300=VERTEX_POINT('',#299);
#301=CARTESIAN_POINT('',(210.35,-0.,6.4));
#302=VERTEX_POINT('',#301);
#303=CARTESIAN_POINT('',(218.,-0.,6.4));
#304=DIRECTION('',(0.,0.,1.));
#305=DIRECTION('',(1.,0.,-0.));
#306=AXIS2_PLACEMENT_3D('',#303,#304,#305);
#307=CIRCLE('',#306,7.65);
#308=EDGE_CURVE('',#300,#302,#307,.T.);
#309=ORIENTED_EDGE('',*,*,#308,.F.);
#310=CARTESIAN_POINT('',(225.65,-14.,6.4));
#311=VERTEX_POINT('',#310);
#312=CARTESIAN_POINT('',(225.65,-0.,6.4));
#313=DIRECTION('',(0.,-1.,0.));
#314=VECTOR('',#313,14.);
#315=LINE('',#312,#314);
#316=EDGE_CURVE('',#300,#311,#315,.T.);
#317=ORIENTED_EDGE('',*,*,#316,.T.);
#318=CARTESIAN_POINT('',(232.,-14.,6.4));
#319=VERTEX_POINT('',#318);
#320=CARTESIAN_POINT('',(232.,-14.,6.4));
#321=DIRECTION('',(-1.,-0.,0.));
#322=VECTOR('',#321,6.35);
#323=LINE('',#320,#322);
#324=EDGE_CURVE('',#319,#311,#323,.T.);
#325=ORIENTED_EDGE('',*,*,#324,.F.);
#326=CARTESIAN_POINT('',(232.,14.,6.4));
#327=VERTEX_POINT('',#326);
#328=CARTESIAN_POINT('',(232.,14.,6.4));
#329=DIRECTION('',(0.,-1.,0.));
#330=VECTOR('',#329,28.);
#331=LINE('',#328,#330);
#332=EDGE_CURVE('',#327,#319,#331,.T.);
#333=ORIENTED_EDGE('',*,*,#332,.F.);
#334=CARTESIAN_POINT('',(204.,14.,6.4));
#335=VERTEX_POINT('',#334);
#336=CARTESIAN_POINT('',(204.,14.,6.4));
#337=DIRECTION('',(1.,0.,-0.));
#338=VECTOR('',#337,28.);
#339=LINE('',#336,#338);
#340=EDGE_CURVE('',#335,#327,#339,.T.);
#341=ORIENTED_EDGE('',*,*,#340,.F.);
#342=CARTESIAN_POINT('',(204.,-14.,6.4));
#343=VERTEX_POINT('',#342);
#344=CARTESIAN_POINT('',(204.,-14.,6.4));
#345=DIRECTION('',(-0.,1.,0.));
#346=VECTOR('',#345,28.);
#347=LINE('',#344,#346);
#348=EDGE_CURVE('',#343,#335,#347,.T.);
#349=ORIENTED_EDGE('',*,*,#348,.F.);
#350=CARTESIAN_POINT('',(210.35,-14.,6.4));
#351=VERTEX_POINT('',#350);
#352=CARTESIAN_POINT('',(210.35,-14.,6.4));
#353=DIRECTION('',(-1.,-0.,0.));
#354=VECTOR('',#353,6.35);
#355=LINE('',#352,#354);
#356=EDGE_CURVE('',#351,#343,#355,.T.);
#357=ORIENTED_EDGE('',*,*,#356,.F.);
#358=CARTESIAN_POINT('',(210.35,-0.,6.4));
#359=DIRECTION('',(0.,-1.,0.));
#360=VECTOR('',#359,14.);
#361=LINE('',#358,#360);
#362=EDGE_CURVE('',#302,#351,#361,.T.);
#363=ORIENTED_EDGE('',*,*,#362,.F.);
#364=EDGE_LOOP('',(#309,#317,#325,#333,#341,#349,#357,#363));
#365=FACE_BOUND('',#364,.T.);
#366=ADVANCED_FACE('',(#365),#298,.T.);
#367=CARTESIAN_POINT('',(218.,-14.,6.4));
#368=DIRECTION('',(0.,-1.,0.));
#369=DIRECTION('',(1.,0.,0.));
#370=AXIS2_PLACEMENT_3D('',#367,#368,#369);
#371=PLANE('',#370);
#372=ORIENTED_EDGE('',*,*,#288,.T.);
#373=CARTESIAN_POINT('',(210.35,-14.,5.962132034));
#374=DIRECTION('',(0.,0.,1.));
#375=VECTOR('',#374,0.437867966);
#376=LINE('',#373,#375);
#377=EDGE_CURVE('',#277,#351,#376,.T.);
#378=ORIENTED_EDGE('',*,*,#377,.T.);
#379=ORIENTED_EDGE('',*,*,#356,.T.);
#380=CARTESIAN_POINT('',(204.,-14.,0.));
#381=VERTEX_POINT('',#380);
#382=CARTESIAN_POINT('',(204.,-14.,6.4));
#383=DIRECTION('',(0.,0.,-1.));
#384=VECTOR('',#383,6.4);
#385=LINE('',#382,#384);
#386=EDGE_CURVE('',#343,#381,#385,.T.);
#387=ORIENTED_EDGE('',*,*,#386,.T.);
#388=CARTESIAN_POINT('',(232.,-14.,0.));
#389=VERTEX_POINT('',#388);
#390=CARTESIAN_POINT('',(232.,-14.,0.));
#391=DIRECTION('',(-1.,-0.,0.));
#392=VECTOR('',#391,28.);
#393=LINE('',#390,#392);
#394=EDGE_CURVE('',#389,#381,#393,.T.);
#395=ORIENTED_EDGE('',*,*,#394,.F.);
#396=CARTESIAN_POINT('',(232.,-14.,6.4));
#397=DIRECTION('',(0.,0.,-1.));
#398=VECTOR('',#397,6.4);
#399=LINE('',#396,#398);
#400=EDGE_CURVE('',#319,#389,#399,.T.);
#401=ORIENTED_EDGE('',*,*,#400,.F.);
#402=ORIENTED_EDGE('',*,*,#324,.T.);
#403=CARTESIAN_POINT('',(225.65,-14.,5.962132034));
#404=VERTEX_POINT('',#403);
#405=CARTESIAN_POINT('',(225.65,-14.,5.962132034));
#406=DIRECTION('',(0.,0.,1.));
#407=VECTOR('',#406,0.437867966);
#408=LINE('',#405,#407);
#409=EDGE_CURVE('',#404,#311,#408,.T.);
#410=ORIENTED_EDGE('',*,*,#409,.F.);
#411=CARTESIAN_POINT('',(228.15,-14.,3.462132034));
#412=DIRECTION('',(-0.707106781,-0.,0.707106781));
#413=VECTOR('',#412,3.535533906);
#414=LINE('',#411,#413);
#415=EDGE_CURVE('',#230,#404,#414,.T.);
#416=ORIENTED_EDGE('',*,*,#415,.F.);
#417=ORIENTED_EDGE('',*,*,#235,.F.);
#418=ORIENTED_EDGE('',*,*,#211,.F.);
#419=ORIENTED_EDGE('',*,*,#151,.T.);
#420=EDGE_LOOP('',(#372,#378,#379,#387,#395,#401,#402,#410,#416,#417,#418,#419));
#421=FACE_BOUND('',#420,.T.);
#422=ADVANCED_FACE('',(#421),#371,.T.);
#423=CARTESIAN_POINT('',(232.,0.,6.4));
#424=DIRECTION('',(1.,0.,0.));
#425=DIRECTION('',(0.,0.,-1.));
#426=AXIS2_PLACEMENT_3D('',#423,#424,#425);
#427=PLANE('',#426);
#428=CARTESIAN_POINT('',(232.,14.,0.));
#429=VERTEX_POINT('',#428);
#430=CARTESIAN_POINT('',(232.,14.,0.));
#431=DIRECTION('',(0.,-1.,0.));
#432=VECTOR('',#431,28.);
#433=LINE('',#430,#432);
#434=EDGE_CURVE('',#429,#389,#433,.T.);
#435=ORIENTED_EDGE('',*,*,#434,.F.);
#436=CARTESIAN_POINT('',(232.,14.,6.4));
#437=DIRECTION('',(0.,0.,-1.));
#438=VECTOR('',#437,6.4);
#439=LINE('',#436,#438);
#440=EDGE_CURVE('',#327,#429,#439,.T.);
#441=ORIENTED_EDGE('',*,*,#440,.F.);
#442=ORIENTED_EDGE('',*,*,#332,.T.);
#443=ORIENTED_EDGE('',*,*,#400,.T.);
#444=EDGE_LOOP('',(#435,#441,#442,#443));
#445=FACE_BOUND('',#444,.T.);
#446=ADVANCED_FACE('',(#445),#427,.T.);
#447=CARTESIAN_POINT('',(218.,14.,6.4));
#448=DIRECTION('',(0.,1.,0.));
#449=DIRECTION('',(0.,0.,1.));
#450=AXIS2_PLACEMENT_3D('',#447,#448,#449);
#451=PLANE('',#450);
#452=CARTESIAN_POINT('',(204.,14.,0.));
#453=VERTEX_POINT('',#452);
#454=CARTESIAN_POINT('',(204.,14.,0.));
#455=DIRECTION('',(1.,0.,-0.));
#456=VECTOR('',#455,28.);
#457=LINE('',#454,#456);
#458=EDGE_CURVE('',#453,#429,#457,.T.);
#459=ORIENTED_EDGE('',*,*,#458,.F.);
#460=CARTESIAN_POINT('',(204.,14.,6.4));
#461=DIRECTION('',(0.,0.,-1.));
#462=VECTOR('',#461,6.4);
#463=LINE('',#460,#462);
#464=EDGE_CURVE('',#335,#453,#463,.T.);
#465=ORIENTED_EDGE('',*,*,#464,.F.);
#466=ORIENTED_EDGE('',*,*,#340,.T.);
#467=ORIENTED_EDGE('',*,*,#440,.T.);
#468=EDGE_LOOP('',(#459,#465,#466,#467));
#469=FACE_BOUND('',#468,.T.);
#470=ADVANCED_FACE('',(#469),#451,.T.);
#471=CARTESIAN_POINT('',(204.,0.,6.4));
#472=DIRECTION('',(-1.,-0.,0.));
#473=DIRECTION('',(0.,-1.,0.));
#474=AXIS2_PLACEMENT_3D('',#471,#472,#473);
#475=PLANE('',#474);
#476=CARTESIAN_POINT('',(204.,-14.,0.));
#477=DIRECTION('',(-0.,1.,0.));
#478=VECTOR('',#477,28.);
#479=LINE('',#476,#478);
#480=EDGE_CURVE('',#381,#453,#479,.T.);
#481=ORIENTED_EDGE('',*,*,#480,.F.);
#482=ORIENTED_EDGE('',*,*,#386,.F.);
#483=ORIENTED_EDGE('',*,*,#348,.T.);
#484=ORIENTED_EDGE('',*,*,#464,.T.);
#485=EDGE_LOOP('',(#481,#482,#483,#484));
#486=FACE_BOUND('',#485,.T.);
#487=ADVANCED_FACE('',(#486),#475,.T.);
#488=CARTESIAN_POINT('',(168.,0.,0.));
#489=DIRECTION('',(0.,0.,1.));
#490=DIRECTION('',(1.,0.,0.));
#491=AXIS2_PLACEMENT_3D('',#488,#489,#490);
#492=PLANE('',#491);
#493=ORIENTED_EDGE('',*,*,#434,.T.);
#494=ORIENTED_EDGE('',*,*,#394,.T.);
#495=ORIENTED_EDGE('',*,*,#480,.T.);
#496=ORIENTED_EDGE('',*,*,#458,.T.);
#497=EDGE_LOOP('',(#493,#494,#495,#496));
#498=FACE_BOUND('',#497,.T.);
#499=ADVANCED_FACE('',(#498),#492,.F.);
#500=CARTESIAN_POINT('',(210.35,-0.,6.181066017));
#501=DIRECTION('',(1.,0.,0.));
#502=DIRECTION('',(0.,0.,-1.));
#503=AXIS2_PLACEMENT_3D('',#500,#501,#502);
#504=PLANE('',#503);
#505=ORIENTED_EDGE('',*,*,#377,.F.);
#506=ORIENTED_EDGE('',*,*,#282,.F.);
#507=CARTESIAN_POINT('',(210.35,-0.,5.962132034));
#508=DIRECTION('',(0.,0.,1.));
#509=VECTOR('',#508,0.437867966);
#510=LINE('',#507,#509);
#511=EDGE_CURVE('',#269,#302,#510,.T.);
#512=ORIENTED_EDGE('',*,*,#511,.T.);
#513=ORIENTED_EDGE('',*,*,#362,.T.);
#514=EDGE_LOOP('',(#505,#506,#512,#513));
#515=FACE_BOUND('',#514,.T.);
#516=ADVANCED_FACE('',(#515),#504,.T.);
#517=CARTESIAN_POINT('',(207.85,-0.,2.856066017));
#518=DIRECTION('',(1.,0.,0.));
#519=DIRECTION('',(0.,0.,-1.));
#520=AXIS2_PLACEMENT_3D('',#517,#518,#519);
#521=PLANE('',#520);
#522=CARTESIAN_POINT('',(207.85,-0.758557449,2.25));
#523=DIRECTION('',(0.,0.,1.));
#524=VECTOR('',#523,1.212132034);
#525=LINE('',#522,#524);
#526=EDGE_CURVE('',#189,#253,#525,.T.);
#527=ORIENTED_EDGE('',*,*,#526,.F.);
#528=ORIENTED_EDGE('',*,*,#194,.F.);
#529=CARTESIAN_POINT('',(207.85,-0.,2.25));
#530=DIRECTION('',(-0.,0.,1.));
#531=VECTOR('',#530,1.212132034);
#532=LINE('',#529,#531);
#533=EDGE_CURVE('',#180,#261,#532,.T.);
#534=ORIENTED_EDGE('',*,*,#533,.T.);
#535=ORIENTED_EDGE('',*,*,#266,.T.);
#536=EDGE_LOOP('',(#527,#528,#534,#535));
#537=FACE_BOUND('',#536,.T.);
#538=ADVANCED_FACE('',(#537),#521,.T.);
#539=CARTESIAN_POINT('',(228.15,-0.,2.856066017));
#540=DIRECTION('',(1.,0.,0.));
#541=DIRECTION('',(0.,0.,-1.));
#542=AXIS2_PLACEMENT_3D('',#539,#540,#541);
#543=PLANE('',#542);
#544=ORIENTED_EDGE('',*,*,#177,.T.);
#545=CARTESIAN_POINT('',(228.15,-0.758557449,3.462132034));
#546=VERTEX_POINT('',#545);
#547=CARTESIAN_POINT('',(228.15,-0.758557449,2.25));
#548=DIRECTION('',(0.,0.,1.));
#549=VECTOR('',#548,1.212132034);
#550=LINE('',#547,#549);
#551=EDGE_CURVE('',#163,#546,#550,.T.);
#552=ORIENTED_EDGE('',*,*,#551,.T.);
#553=CARTESIAN_POINT('',(228.15,-0.,3.462132034));
#554=VERTEX_POINT('',#553);
#555=CARTESIAN_POINT('',(228.15,-0.,3.462132034));
#556=DIRECTION('',(0.,-1.,0.));
#557=VECTOR('',#556,0.758557449);
#558=LINE('',#555,#557);
#559=EDGE_CURVE('',#554,#546,#558,.T.);
#560=ORIENTED_EDGE('',*,*,#559,.F.);
#561=CARTESIAN_POINT('',(228.15,-0.,2.25));
#562=DIRECTION('',(-0.,0.,1.));
#563=VECTOR('',#562,1.212132034);
#564=LINE('',#561,#563);
#565=EDGE_CURVE('',#172,#554,#564,.T.);
#566=ORIENTED_EDGE('',*,*,#565,.F.);
#567=EDGE_LOOP('',(#544,#552,#560,#566));
#568=FACE_BOUND('',#567,.T.);
#569=ADVANCED_FACE('',(#568),#543,.F.);
#570=CARTESIAN_POINT('',(226.9,-0.,4.712132034));
#571=DIRECTION('',(0.707106781,0.,0.707106781));
#572=DIRECTION('',(0.707106781,0.,-0.707106781));
#573=AXIS2_PLACEMENT_3D('',#570,#571,#572);
#574=PLANE('',#573);
#575=ORIENTED_EDGE('',*,*,#415,.T.);
#576=CARTESIAN_POINT('',(225.65,-0.,5.962132034));
#577=VERTEX_POINT('',#576);
#578=CARTESIAN_POINT('',(225.65,-0.,5.962132034));
#579=DIRECTION('',(0.,-1.,0.));
#580=VECTOR('',#579,14.);
#581=LINE('',#578,#580);
#582=EDGE_CURVE('',#577,#404,#581,.T.);
#583=ORIENTED_EDGE('',*,*,#582,.F.);
#584=CARTESIAN_POINT('',(228.15,-0.,3.462132034));
#585=DIRECTION('',(-0.707106781,0.,0.707106781));
#586=VECTOR('',#585,3.535533906);
#587=LINE('',#584,#586);
#588=EDGE_CURVE('',#554,#577,#587,.T.);
#589=ORIENTED_EDGE('',*,*,#588,.F.);
#590=ORIENTED_EDGE('',*,*,#559,.T.);
#591=CARTESIAN_POINT('',(228.15,-0.758557449,3.462132034));
#592=DIRECTION('',(-0.707106781,0.,0.707106781));
#593=VECTOR('',#592,0.848528137);
#594=LINE('',#591,#593);
#595=EDGE_CURVE('',#546,#33,#594,.T.);
#596=ORIENTED_EDGE('',*,*,#595,.T.);
#597=ORIENTED_EDGE('',*,*,#71,.T.);
#598=ORIENTED_EDGE('',*,*,#241,.T.);
#599=EDGE_LOOP('',(#575,#583,#589,#590,#596,#597,#598));
#600=FACE_BOUND('',#599,.T.);
#601=ADVANCED_FACE('',(#600),#574,.F.);
#602=CARTESIAN_POINT('',(225.65,-0.,6.181066017));
#603=DIRECTION('',(1.,0.,0.));
#604=DIRECTION('',(0.,0.,-1.));
#605=AXIS2_PLACEMENT_3D('',#602,#603,#604);
#606=PLANE('',#605);
#607=ORIENTED_EDGE('',*,*,#409,.T.);
#608=ORIENTED_EDGE('',*,*,#316,.F.);
#609=CARTESIAN_POINT('',(225.65,-0.,5.962132034));
#610=DIRECTION('',(0.,0.,1.));
#611=VECTOR('',#610,0.437867966);
#612=LINE('',#609,#611);
#613=EDGE_CURVE('',#577,#300,#612,.T.);
#614=ORIENTED_EDGE('',*,*,#613,.F.);
#615=ORIENTED_EDGE('',*,*,#582,.T.);
#616=EDGE_LOOP('',(#607,#608,#614,#615));
#617=FACE_BOUND('',#616,.T.);
#618=ADVANCED_FACE('',(#617),#606,.F.);
#619=CARTESIAN_POINT('',(218.,-0.,12.4));
#620=DIRECTION('',(0.,0.,1.));
#621=DIRECTION('',(1.,0.,-0.));
#622=AXIS2_PLACEMENT_3D('',#619,#620,#621);
#623=CYLINDRICAL_SURFACE('',#622,10.15);
#624=CARTESIAN_POINT('',(218.,-0.,3.462132034));
#625=DIRECTION('',(0.,0.,1.));
#626=DIRECTION('',(1.,0.,-0.));
#627=AXIS2_PLACEMENT_3D('',#624,#625,#626);
#628=CIRCLE('',#627,10.15);
#629=EDGE_CURVE('',#554,#261,#628,.T.);
#630=ORIENTED_EDGE('',*,*,#629,.T.);
#631=ORIENTED_EDGE('',*,*,#533,.F.);
#632=ORIENTED_EDGE('',*,*,#186,.F.);
#633=ORIENTED_EDGE('',*,*,#565,.T.);
#634=EDGE_LOOP('',(#630,#631,#632,#633));
#635=FACE_BOUND('',#634,.T.);
#636=ADVANCED_FACE('',(#635),#623,.F.);
#637=CARTESIAN_POINT('',(218.,-0.,3.462132034));
#638=DIRECTION('',(0.,0.,-1.));
#639=DIRECTION('',(-1.,0.,0.));
#640=AXIS2_PLACEMENT_3D('',#637,#638,#639);
#641=CONICAL_SURFACE('',#640,10.15,45.);
#642=ORIENTED_EDGE('',*,*,#629,.F.);
#643=ORIENTED_EDGE('',*,*,#588,.T.);
#644=CARTESIAN_POINT('',(218.,-0.,5.962132034));
#645=DIRECTION('',(0.,0.,1.));
#646=DIRECTION('',(1.,0.,-0.));
#647=AXIS2_PLACEMENT_3D('',#644,#645,#646);
#648=CIRCLE('',#647,7.65);
#649=EDGE_CURVE('',#577,#269,#648,.T.);
#650=ORIENTED_EDGE('',*,*,#649,.T.);
#651=ORIENTED_EDGE('',*,*,#274,.F.);
#652=EDGE_LOOP('',(#642,#643,#650,#651));
#653=FACE_BOUND('',#652,.T.);
#654=ADVANCED_FACE('',(#653),#641,.F.);
#655=CARTESIAN_POINT('',(218.,-0.,12.4));
#656=DIRECTION('',(0.,0.,1.));
#657=DIRECTION('',(1.,0.,-0.));
#658=AXIS2_PLACEMENT_3D('',#655,#656,#657);
#659=CYLINDRICAL_SURFACE('',#658,7.65);
#660=ORIENTED_EDGE('',*,*,#308,.T.);
#661=ORIENTED_EDGE('',*,*,#511,.F.);
#662=ORIENTED_EDGE('',*,*,#649,.F.);
#663=ORIENTED_EDGE('',*,*,#613,.T.);
#664=EDGE_LOOP('',(#660,#661,#662,#663));
#665=FACE_BOUND('',#664,.T.);
#666=ADVANCED_FACE('',(#665),#659,.F.);
#667=CARTESIAN_POINT('',(218.,-0.758557449,3.462132034));
#668=DIRECTION('',(0.,0.,-1.));
#669=DIRECTION('',(-1.,0.,0.));
#670=AXIS2_PLACEMENT_3D('',#667,#668,#669);
#671=CONICAL_SURFACE('',#670,10.15,45.);
#672=ORIENTED_EDGE('',*,*,#258,.F.);
#673=ORIENTED_EDGE('',*,*,#106,.F.);
#674=CARTESIAN_POINT('',(218.,-0.758557449,3.462132034));
#675=DIRECTION('',(0.,0.,1.));
#676=DIRECTION('',(1.,0.,-0.));
#677=AXIS2_PLACEMENT_3D('',#674,#675,#676);
#678=CIRCLE('',#677,10.15);
#679=EDGE_CURVE('',#253,#92,#678,.T.);
#680=ORIENTED_EDGE('',*,*,#679,.F.);
#681=EDGE_LOOP('',(#672,#673,#680));
#682=FACE_BOUND('',#681,.T.);
#683=ADVANCED_FACE('',(#682),#671,.F.);
#684=CARTESIAN_POINT('',(218.,-0.758557449,12.4));
#685=DIRECTION('',(0.,0.,1.));
#686=DIRECTION('',(1.,0.,-0.));
#687=AXIS2_PLACEMENT_3D('',#684,#685,#686);
#688=CYLINDRICAL_SURFACE('',#687,10.15);
#689=ORIENTED_EDGE('',*,*,#526,.T.);
#690=ORIENTED_EDGE('',*,*,#679,.T.);
#691=ORIENTED_EDGE('',*,*,#97,.F.);
#692=ORIENTED_EDGE('',*,*,#201,.F.);
#693=EDGE_LOOP('',(#689,#690,#691,#692));
#694=FACE_BOUND('',#693,.T.);
#695=ADVANCED_FACE('',(#694),#688,.F.);
#696=CARTESIAN_POINT('',(218.,-0.758557449,12.4));
#697=DIRECTION('',(0.,0.,1.));
#698=DIRECTION('',(1.,0.,-0.));
#699=AXIS2_PLACEMENT_3D('',#696,#697,#698);
#700=CYLINDRICAL_SURFACE('',#699,10.15);
#701=ORIENTED_EDGE('',*,*,#169,.F.);
#702=ORIENTED_EDGE('',*,*,#49,.F.);
#703=CARTESIAN_POINT('',(218.,-0.758557449,3.462132034));
#704=DIRECTION('',(0.,0.,1.));
#705=DIRECTION('',(1.,0.,-0.));
#706=AXIS2_PLACEMENT_3D('',#703,#704,#705);
#707=CIRCLE('',#706,10.15);
#708=EDGE_CURVE('',#35,#546,#707,.T.);
#709=ORIENTED_EDGE('',*,*,#708,.T.);
#710=ORIENTED_EDGE('',*,*,#551,.F.);
#711=EDGE_LOOP('',(#701,#702,#709,#710));
#712=FACE_BOUND('',#711,.T.);
#713=ADVANCED_FACE('',(#712),#700,.F.);
#714=CARTESIAN_POINT('',(218.,-0.758557449,3.462132034));
#715=DIRECTION('',(0.,0.,-1.));
#716=DIRECTION('',(-1.,0.,0.));
#717=AXIS2_PLACEMENT_3D('',#714,#715,#716);
#718=CONICAL_SURFACE('',#717,10.15,45.);
#719=ORIENTED_EDGE('',*,*,#708,.F.);
#720=ORIENTED_EDGE('',*,*,#41,.F.);
#721=ORIENTED_EDGE('',*,*,#595,.F.);
#722=EDGE_LOOP('',(#719,#720,#721));
#723=FACE_BOUND('',#722,.T.);
#724=ADVANCED_FACE('',(#723),#718,.F.);
#725=CLOSED_SHELL('',(#75,#124,#155,#221,#245,#293,#366,#422,#446,#470,#487,#499,#516,#538,#569,#601,#618,#636,#654,#666,#683,#695,#713,#724));
#726=MANIFOLD_SOLID_BREP('Snap In Top Back',#725);
#727=COLOUR_RGB('',0.262745112,0.262745112,0.796078444);
#728=FILL_AREA_STYLE_COLOUR('',#727);
#729=FILL_AREA_STYLE('',(#728));
#730=SURFACE_STYLE_FILL_AREA(#729);
#731=SURFACE_SIDE_STYLE('',(#730));
#732=SURFACE_STYLE_USAGE(.BOTH.,#731);
#733=PRESENTATION_STYLE_ASSIGNMENT((#732));
#26=STYLED_ITEM('',(#733),#726);
#16=SHAPE_REPRESENTATION('Snap In Top Back',(#15),#10);
#17=ADVANCED_BREP_SHAPE_REPRESENTATION('Snap In Top Back',(#726),#10);
#741=SHAPE_REPRESENTATION_RELATIONSHIP('','',#16,#17);
#742=CARTESIAN_POINT('',(0.,0.,0.));
#743=DIRECTION('',(0.,0.,1.));
#744=DIRECTION('',(1.,0.,0.));
#745=AXIS2_PLACEMENT_3D('',#742,#743,#744);
#747=MAPPED_ITEM('',#746,#745);
#746=REPRESENTATION_MAP(#745,#16);
#748=APPLICATION_CONTEXT('Managed model based 3d engineering');
#749=APPLICATION_PROTOCOL_DEFINITION('international standard','ap242_managed_model_based_3d_engineering',2014,#748);
#750=PRODUCT_CONTEXT('',#748,'mechanical');
#751=PRODUCT_DEFINITION_CONTEXT('part definition',#748,'design');
#24=PRODUCT('Snap In Top Back','Snap In Top Back','',(#750));
#752=PRODUCT_RELATED_PRODUCT_CATEGORY('part','',(#24));
#753=PRODUCT_DEFINITION_FORMATION_WITH_SPECIFIED_SOURCE('','',#24,.NOT_KNOWN.);
#25=PRODUCT_DEFINITION('design','',#753,#751);
#23=PRODUCT_DEFINITION_SHAPE('','',#25);
#754=SHAPE_DEFINITION_REPRESENTATION(#23,#16);
#11=DRAUGHTING_MODEL('',(#747),#10);
#755=DESCRIPTIVE_REPRESENTATION_ITEM('KEY','/Users/ddanier/Library/Containers/com.shapr3d.shapr/Data/tmp/AB1B24C3-A83E-4427-9C76-8252154F3098.tmp');
#756=PROPERTY_DEFINITION('KEY','',#25);
#757=REPRESENTATION('',(#755),#10);
#758=PROPERTY_DEFINITION_REPRESENTATION(#756,#757);
#759=GENERAL_PROPERTY('','KEY','');
#760=GENERAL_PROPERTY_ASSOCIATION('','',#759,#756);
#1=MECHANICAL_DESIGN_GEOMETRIC_PRESENTATION_REPRESENTATION('',(#26),#10);
ENDSEC;
END-ISO-10303-21;
