ISO-10303-21;
HEADER;

/* File generated by Shapr3D Version 5.911.0.9224 */

FILE_DESCRIPTION(('HOOPS Exchange Step'),'2;1');

FILE_NAME('/Users/ddanier/Library/Containers/com.shapr3d.shapr/Data/tmp/export/temp_export',
'2025-08-07T20:12:19+02:00',
('ddanier'),
('Shapr3D Limited'),
'HOOPS Exchange 2024.8',
'Shapr3D',
'Authorized');

FILE_SCHEMA( ('AP242_MANAGED_MODEL_BASED_3D_ENGINEERING_MIM_LF {1 0 10303 442 1 1 4}') );

ENDSEC;

DATA;
#3=(NAMED_UNIT(*)PLANE_ANGLE_UNIT()SI_UNIT($,.RADIAN.));
#4=PLANE_ANGLE_MEASURE_WITH_UNIT(PLANE_ANGLE_MEASURE(0.0174532925),#3);
#5=(CONVERSION_BASED_UNIT('DEGREE',#4)NAMED_UNIT(#6)PLANE_ANGLE_UNIT());
#6=DIMENSIONAL_EXPONENTS(0.,0.,0.,0.,0.,0.,0.);
#7=(NAMED_UNIT(*)SI_UNIT($,.STERADIAN.)SOLID_ANGLE_UNIT());
#8=(LENGTH_UNIT()NAMED_UNIT(*)SI_UNIT(.MILLI.,.METRE.));
#9=UNCERTAINTY_MEASURE_WITH_UNIT(LENGTH_MEASURE(1.000000E-05),#8,'DISTANCE_ACCURACY_VALUE','Maximum Tolerance applied to model');
#10=(GEOMETRIC_REPRESENTATION_CONTEXT(3)GLOBAL_UNCERTAINTY_ASSIGNED_CONTEXT((#9))GLOBAL_UNIT_ASSIGNED_CONTEXT((#8,#5,#7))REPRESENTATION_CONTEXT('','openGrid Multiconnect Thread Modeling Lite Mount Positive'));
#12=CARTESIAN_POINT('',(0.,0.,0.));
#13=DIRECTION('',(0.,0.,1.));
#14=DIRECTION('',(1.,0.,0.));
#15=AXIS2_PLACEMENT_3D('TS3D_PRODUCT_CSYS',#12,#13,#14);
#27=CARTESIAN_POINT('',(0.,50.,4.4));
#28=DIRECTION('',(0.,0.,1.));
#29=DIRECTION('',(1.,0.,0.));
#30=AXIS2_PLACEMENT_3D('',#27,#28,#29);
#31=PLANE('',#30);
#32=CARTESIAN_POINT('',(-1.549193338,50.4,4.4));
#33=VERTEX_POINT('',#32);
#34=CARTESIAN_POINT('',(-0.4,50.4,4.4));
#35=VERTEX_POINT('',#34);
#36=CARTESIAN_POINT('',(-1.549193338,50.4,4.4));
#37=DIRECTION('',(1.,0.,-0.));
#38=VECTOR('',#37,1.149193338);
#39=LINE('',#36,#38);
#40=EDGE_CURVE('',#33,#35,#39,.T.);
#41=ORIENTED_EDGE('',*,*,#40,.T.);
#42=CARTESIAN_POINT('',(-0.4,51.549193338,4.4));
#43=VERTEX_POINT('',#42);
#44=CARTESIAN_POINT('',(-0.4,50.4,4.4));
#45=DIRECTION('',(0.,1.,0.));
#46=VECTOR('',#45,1.149193338);
#47=LINE('',#44,#46);
#48=EDGE_CURVE('',#35,#43,#47,.T.);
#49=ORIENTED_EDGE('',*,*,#48,.T.);
#50=CARTESIAN_POINT('',(-0.,50.,4.4));
#51=DIRECTION('',(0.,0.,1.));
#52=DIRECTION('',(1.,0.,-0.));
#53=AXIS2_PLACEMENT_3D('',#50,#51,#52);
#54=CIRCLE('',#53,1.6);
#55=EDGE_CURVE('',#43,#33,#54,.T.);
#56=ORIENTED_EDGE('',*,*,#55,.T.);
#57=EDGE_LOOP('',(#41,#49,#56));
#58=FACE_BOUND('',#57,.T.);
#59=ADVANCED_FACE('',(#58),#31,.T.);
#60=CARTESIAN_POINT('',(0.,50.,4.));
#61=DIRECTION('',(0.,0.,1.));
#62=DIRECTION('',(1.,0.,0.));
#63=AXIS2_PLACEMENT_3D('',#60,#61,#62);
#64=PLANE('',#63);
#65=CARTESIAN_POINT('',(-0.,50.,4.));
#66=VERTEX_POINT('',#65);
#67=CARTESIAN_POINT('',(-2.,50.,4.));
#68=VERTEX_POINT('',#67);
#69=CARTESIAN_POINT('',(-0.,50.,4.));
#70=DIRECTION('',(-1.,0.,0.));
#71=VECTOR('',#70,2.);
#72=LINE('',#69,#71);
#73=EDGE_CURVE('',#66,#68,#72,.T.);
#74=ORIENTED_EDGE('',*,*,#73,.T.);
#75=CARTESIAN_POINT('',(-0.,52.,4.));
#76=VERTEX_POINT('',#75);
#77=CARTESIAN_POINT('',(-0.,50.,4.));
#78=DIRECTION('',(0.,0.,1.));
#79=DIRECTION('',(1.,0.,-0.));
#80=AXIS2_PLACEMENT_3D('',#77,#78,#79);
#81=CIRCLE('',#80,2.);
#82=EDGE_CURVE('',#76,#68,#81,.T.);
#83=ORIENTED_EDGE('',*,*,#82,.F.);
#84=CARTESIAN_POINT('',(-0.,50.,4.));
#85=DIRECTION('',(0.,1.,0.));
#86=VECTOR('',#85,2.);
#87=LINE('',#84,#86);
#88=EDGE_CURVE('',#66,#76,#87,.T.);
#89=ORIENTED_EDGE('',*,*,#88,.F.);
#90=EDGE_LOOP('',(#74,#83,#89));
#91=FACE_BOUND('',#90,.T.);
#92=ADVANCED_FACE('',(#91),#64,.F.);
#93=CARTESIAN_POINT('',(-1.,50.,4.));
#94=DIRECTION('',(0.,0.707106781,-0.707106781));
#95=DIRECTION('',(-1.,0.,0.));
#96=AXIS2_PLACEMENT_3D('',#93,#94,#95);
#97=PLANE('',#96);
#98=CARTESIAN_POINT('',(-0.4,50.4,4.4));
#99=DIRECTION('',(0.577350269,-0.577350269,-0.577350269));
#100=VECTOR('',#99,0.692820323);
#101=LINE('',#98,#100);
#102=EDGE_CURVE('',#35,#66,#101,.T.);
#103=ORIENTED_EDGE('',*,*,#102,.F.);
#104=ORIENTED_EDGE('',*,*,#40,.F.);
#105=CARTESIAN_POINT('',(-2.,50.,4.));
#106=CARTESIAN_POINT('',(-1.860562877,50.139437123,4.139437123));
#107=CARTESIAN_POINT('',(-1.712118597,50.273798637,4.273798637));
#108=CARTESIAN_POINT('',(-1.549193338,50.4,4.4));
#109=B_SPLINE_CURVE_WITH_KNOTS('',3,(#105,#106,#107,#108),.UNSPECIFIED.,.F.,.F.,(4,4),(0.,0.000723344),.UNSPECIFIED.);
#110=EDGE_CURVE('',#68,#33,#109,.T.);
#111=ORIENTED_EDGE('',*,*,#110,.F.);
#112=ORIENTED_EDGE('',*,*,#73,.F.);
#113=EDGE_LOOP('',(#103,#104,#111,#112));
#114=FACE_BOUND('',#113,.T.);
#115=ADVANCED_FACE('',(#114),#97,.F.);
#116=CARTESIAN_POINT('',(-0.,50.,4.4));
#117=DIRECTION('',(0.,0.,-1.));
#118=DIRECTION('',(-1.,0.,0.));
#119=AXIS2_PLACEMENT_3D('',#116,#117,#118);
#120=CONICAL_SURFACE('',#119,1.6,45.);
#121=ORIENTED_EDGE('',*,*,#110,.T.);
#122=ORIENTED_EDGE('',*,*,#55,.F.);
#123=CARTESIAN_POINT('',(-0.,52.,4.));
#124=CARTESIAN_POINT('',(-0.139437123,51.860562877,4.139437123));
#125=CARTESIAN_POINT('',(-0.273798637,51.712118597,4.273798637));
#126=CARTESIAN_POINT('',(-0.4,51.549193338,4.4));
#127=B_SPLINE_CURVE_WITH_KNOTS('',3,(#123,#124,#125,#126),.UNSPECIFIED.,.F.,.F.,(4,4),(0.,0.000723344),.UNSPECIFIED.);
#128=EDGE_CURVE('',#76,#43,#127,.T.);
#129=ORIENTED_EDGE('',*,*,#128,.F.);
#130=ORIENTED_EDGE('',*,*,#82,.T.);
#131=EDGE_LOOP('',(#121,#122,#129,#130));
#132=FACE_BOUND('',#131,.T.);
#133=ADVANCED_FACE('',(#132),#120,.T.);
#134=CARTESIAN_POINT('',(-0.4,50.,4.4));
#135=DIRECTION('',(0.707106781,0.,0.707106781));
#136=DIRECTION('',(0.,-1.,0.));
#137=AXIS2_PLACEMENT_3D('',#134,#135,#136);
#138=PLANE('',#137);
#139=ORIENTED_EDGE('',*,*,#102,.T.);
#140=ORIENTED_EDGE('',*,*,#88,.T.);
#141=ORIENTED_EDGE('',*,*,#128,.T.);
#142=ORIENTED_EDGE('',*,*,#48,.F.);
#143=EDGE_LOOP('',(#139,#140,#141,#142));
#144=FACE_BOUND('',#143,.T.);
#145=ADVANCED_FACE('',(#144),#138,.T.);
#146=CLOSED_SHELL('',(#59,#92,#115,#133,#145));
#147=MANIFOLD_SOLID_BREP('Body 05 (1)',#146);
#148=COLOUR_RGB('',0.75686276,0.772549033,0.247058824);
#149=FILL_AREA_STYLE_COLOUR('',#148);
#150=FILL_AREA_STYLE('',(#149));
#151=SURFACE_STYLE_FILL_AREA(#150);
#152=SURFACE_SIDE_STYLE('',(#151));
#153=SURFACE_STYLE_USAGE(.BOTH.,#152);
#154=PRESENTATION_STYLE_ASSIGNMENT((#153));
#26=STYLED_ITEM('',(#154),#147);
#156=CARTESIAN_POINT('',(0.,50.,4.4));
#157=DIRECTION('',(0.,0.,1.));
#158=DIRECTION('',(1.,0.,0.));
#159=AXIS2_PLACEMENT_3D('',#156,#157,#158);
#160=PLANE('',#159);
#161=CARTESIAN_POINT('',(0.4,49.6,4.4));
#162=VERTEX_POINT('',#161);
#163=CARTESIAN_POINT('',(0.4,48.450806662,4.4));
#164=VERTEX_POINT('',#163);
#165=CARTESIAN_POINT('',(0.4,49.6,4.4));
#166=DIRECTION('',(0.,-1.,0.));
#167=VECTOR('',#166,1.149193338);
#168=LINE('',#165,#167);
#169=EDGE_CURVE('',#162,#164,#168,.T.);
#170=ORIENTED_EDGE('',*,*,#169,.T.);
#171=CARTESIAN_POINT('',(1.549193338,49.6,4.4));
#172=VERTEX_POINT('',#171);
#173=CARTESIAN_POINT('',(-0.,50.,4.4));
#174=DIRECTION('',(0.,0.,1.));
#175=DIRECTION('',(1.,0.,-0.));
#176=AXIS2_PLACEMENT_3D('',#173,#174,#175);
#177=CIRCLE('',#176,1.6);
#178=EDGE_CURVE('',#164,#172,#177,.T.);
#179=ORIENTED_EDGE('',*,*,#178,.T.);
#180=CARTESIAN_POINT('',(1.549193338,49.6,4.4));
#181=DIRECTION('',(-1.,0.,0.));
#182=VECTOR('',#181,1.149193338);
#183=LINE('',#180,#182);
#184=EDGE_CURVE('',#172,#162,#183,.T.);
#185=ORIENTED_EDGE('',*,*,#184,.T.);
#186=EDGE_LOOP('',(#170,#179,#185));
#187=FACE_BOUND('',#186,.T.);
#188=ADVANCED_FACE('',(#187),#160,.T.);
#189=CARTESIAN_POINT('',(0.,50.,4.));
#190=DIRECTION('',(0.,0.,1.));
#191=DIRECTION('',(1.,0.,0.));
#192=AXIS2_PLACEMENT_3D('',#189,#190,#191);
#193=PLANE('',#192);
#194=CARTESIAN_POINT('',(-0.,48.,4.));
#195=VERTEX_POINT('',#194);
#196=CARTESIAN_POINT('',(-0.,50.,4.));
#197=VERTEX_POINT('',#196);
#198=CARTESIAN_POINT('',(-0.,48.,4.));
#199=DIRECTION('',(0.,1.,0.));
#200=VECTOR('',#199,2.);
#201=LINE('',#198,#200);
#202=EDGE_CURVE('',#195,#197,#201,.T.);
#203=ORIENTED_EDGE('',*,*,#202,.T.);
#204=CARTESIAN_POINT('',(2.,50.,4.));
#205=VERTEX_POINT('',#204);
#206=CARTESIAN_POINT('',(2.,50.,4.));
#207=DIRECTION('',(-1.,0.,0.));
#208=VECTOR('',#207,2.);
#209=LINE('',#206,#208);
#210=EDGE_CURVE('',#205,#197,#209,.T.);
#211=ORIENTED_EDGE('',*,*,#210,.F.);
#212=CARTESIAN_POINT('',(-0.,50.,4.));
#213=DIRECTION('',(0.,0.,1.));
#214=DIRECTION('',(1.,0.,-0.));
#215=AXIS2_PLACEMENT_3D('',#212,#213,#214);
#216=CIRCLE('',#215,2.);
#217=EDGE_CURVE('',#195,#205,#216,.T.);
#218=ORIENTED_EDGE('',*,*,#217,.F.);
#219=EDGE_LOOP('',(#203,#211,#218));
#220=FACE_BOUND('',#219,.T.);
#221=ADVANCED_FACE('',(#220),#193,.F.);
#222=CARTESIAN_POINT('',(-0.,49.,4.));
#223=DIRECTION('',(0.707106781,0.,-0.707106781));
#224=DIRECTION('',(0.,1.,0.));
#225=AXIS2_PLACEMENT_3D('',#222,#223,#224);
#226=PLANE('',#225);
#227=CARTESIAN_POINT('',(0.4,48.450806662,4.4));
#228=CARTESIAN_POINT('',(0.273798637,48.287881403,4.273798637));
#229=CARTESIAN_POINT('',(0.139437123,48.139437123,4.139437123));
#230=CARTESIAN_POINT('',(-0.,48.,4.));
#231=B_SPLINE_CURVE_WITH_KNOTS('',3,(#227,#228,#229,#230),.UNSPECIFIED.,.F.,.F.,(4,4),(0.,0.000723344),.UNSPECIFIED.);
#232=EDGE_CURVE('',#164,#195,#231,.T.);
#233=ORIENTED_EDGE('',*,*,#232,.F.);
#234=ORIENTED_EDGE('',*,*,#169,.F.);
#235=CARTESIAN_POINT('',(-0.,50.,4.));
#236=DIRECTION('',(0.577350269,-0.577350269,0.577350269));
#237=VECTOR('',#236,0.692820323);
#238=LINE('',#235,#237);
#239=EDGE_CURVE('',#197,#162,#238,.T.);
#240=ORIENTED_EDGE('',*,*,#239,.F.);
#241=ORIENTED_EDGE('',*,*,#202,.F.);
#242=EDGE_LOOP('',(#233,#234,#240,#241));
#243=FACE_BOUND('',#242,.T.);
#244=ADVANCED_FACE('',(#243),#226,.F.);
#245=CARTESIAN_POINT('',(0.,49.6,4.4));
#246=DIRECTION('',(0.,0.707106781,0.707106781));
#247=DIRECTION('',(1.,0.,0.));
#248=AXIS2_PLACEMENT_3D('',#245,#246,#247);
#249=PLANE('',#248);
#250=ORIENTED_EDGE('',*,*,#239,.T.);
#251=ORIENTED_EDGE('',*,*,#184,.F.);
#252=CARTESIAN_POINT('',(2.,50.,4.));
#253=CARTESIAN_POINT('',(1.860562877,49.860562877,4.139437123));
#254=CARTESIAN_POINT('',(1.712118597,49.726201363,4.273798637));
#255=CARTESIAN_POINT('',(1.549193338,49.6,4.4));
#256=B_SPLINE_CURVE_WITH_KNOTS('',3,(#252,#253,#254,#255),.UNSPECIFIED.,.F.,.F.,(4,4),(0.,0.000723344),.UNSPECIFIED.);
#257=EDGE_CURVE('',#205,#172,#256,.T.);
#258=ORIENTED_EDGE('',*,*,#257,.F.);
#259=ORIENTED_EDGE('',*,*,#210,.T.);
#260=EDGE_LOOP('',(#250,#251,#258,#259));
#261=FACE_BOUND('',#260,.T.);
#262=ADVANCED_FACE('',(#261),#249,.T.);
#263=CARTESIAN_POINT('',(-0.,50.,4.4));
#264=DIRECTION('',(0.,0.,-1.));
#265=DIRECTION('',(-1.,0.,0.));
#266=AXIS2_PLACEMENT_3D('',#263,#264,#265);
#267=CONICAL_SURFACE('',#266,1.6,45.);
#268=ORIENTED_EDGE('',*,*,#232,.T.);
#269=ORIENTED_EDGE('',*,*,#217,.T.);
#270=ORIENTED_EDGE('',*,*,#257,.T.);
#271=ORIENTED_EDGE('',*,*,#178,.F.);
#272=EDGE_LOOP('',(#268,#269,#270,#271));
#273=FACE_BOUND('',#272,.T.);
#274=ADVANCED_FACE('',(#273),#267,.T.);
#275=CLOSED_SHELL('',(#188,#221,#244,#262,#274));
#276=MANIFOLD_SOLID_BREP('Body 06 (1)',#275);
#155=STYLED_ITEM('',(#154),#276);
#278=CARTESIAN_POINT('',(20.,50.,4.));
#279=DIRECTION('',(0.,0.,1.));
#280=DIRECTION('',(1.,0.,0.));
#281=AXIS2_PLACEMENT_3D('',#278,#279,#280);
#282=PLANE('',#281);
#283=CARTESIAN_POINT('',(7.,50.000000184,4.));
#284=VERTEX_POINT('',#283);
#285=CARTESIAN_POINT('',(3.500871988,43.938325699,4.));
#286=VERTEX_POINT('',#285);
#287=CARTESIAN_POINT('',(0.,50.,4.));
#288=DIRECTION('',(0.,0.,1.));
#289=DIRECTION('',(1.,0.,-0.));
#290=AXIS2_PLACEMENT_3D('',#287,#288,#289);
#291=CIRCLE('',#290,7.);
#292=EDGE_CURVE('',#284,#286,#291,.T.);
#293=ORIENTED_EDGE('',*,*,#292,.F.);
#294=CARTESIAN_POINT('',(-4.000996467,56.927627824,4.));
#295=VERTEX_POINT('',#294);
#296=CARTESIAN_POINT('',(-4.000996467,56.927627824,4.));
#297=CARTESIAN_POINT('',(-3.408743383,57.224011629,4.));
#298=CARTESIAN_POINT('',(-2.792658419,57.442010709,4.));
#299=CARTESIAN_POINT('',(-2.152960854,57.58234628,4.));
#300=CARTESIAN_POINT('',(-1.993036462,57.617430173,4.));
#301=CARTESIAN_POINT('',(-1.831623059,57.647616603,4.));
#302=CARTESIAN_POINT('',(-1.668689279,57.672802405,4.));
#303=CARTESIAN_POINT('',(-1.505755499,57.697988206,4.));
#304=CARTESIAN_POINT('',(-1.340953396,57.718170499,4.));
#305=CARTESIAN_POINT('',(-1.176922046,57.733041848,4.));
#306=CARTESIAN_POINT('',(-0.848859348,57.762784547,4.));
#307=CARTESIAN_POINT('',(-0.521798316,57.771489103,4.));
#308=CARTESIAN_POINT('',(-0.195717207,57.759612199,4.));
#309=CARTESIAN_POINT('',(0.130363902,57.747735294,4.));
#310=CARTESIAN_POINT('',(0.455467061,57.715318353,4.));
#311=CARTESIAN_POINT('',(0.77957257,57.661947632,4.));
#312=CARTESIAN_POINT('',(1.103678079,57.608576911,4.));
#313=CARTESIAN_POINT('',(1.428147296,57.533548485,4.));
#314=CARTESIAN_POINT('',(1.742232181,57.438936294,4.));
#315=CARTESIAN_POINT('',(2.370401953,57.249711913,4.));
#316=CARTESIAN_POINT('',(2.966561187,56.983377362,4.));
#317=CARTESIAN_POINT('',(3.529339934,56.636632573,4.));
#318=CARTESIAN_POINT('',(3.810729308,56.463260178,4.));
#319=CARTESIAN_POINT('',(4.079645182,56.271670182,4.));
#320=CARTESIAN_POINT('',(4.332937025,56.064972692,4.));
#321=CARTESIAN_POINT('',(4.586228868,55.858275202,4.));
#322=CARTESIAN_POINT('',(4.825186518,55.635831943,4.));
#323=CARTESIAN_POINT('',(5.049413314,55.397207193,4.));
#324=CARTESIAN_POINT('',(5.161526712,55.277894818,4.));
#325=CARTESIAN_POINT('',(5.269938929,55.154516785,4.));
#326=CARTESIAN_POINT('',(5.374564853,55.026979599,4.));
#327=CARTESIAN_POINT('',(5.479190778,54.899442414,4.));
#328=CARTESIAN_POINT('',(5.580155006,54.767493476,4.));
#329=CARTESIAN_POINT('',(5.675765704,54.633386777,4.));
#330=CARTESIAN_POINT('',(5.866987099,54.36517338,4.));
#331=CARTESIAN_POINT('',(6.038581214,54.086558589,4.));
#332=CARTESIAN_POINT('',(6.190773076,53.797661654,4.));
#333=CARTESIAN_POINT('',(6.342964938,53.50876472,4.));
#334=CARTESIAN_POINT('',(6.475596229,53.209501742,4.));
#335=CARTESIAN_POINT('',(6.588084487,52.899564049,4.));
#336=CARTESIAN_POINT('',(6.644328616,52.744595202,4.));
#337=CARTESIAN_POINT('',(6.695627241,52.586439133,4.));
#338=CARTESIAN_POINT('',(6.7410276,52.42807025,4.));
#339=CARTESIAN_POINT('',(6.786427959,52.269701368,4.));
#340=CARTESIAN_POINT('',(6.826168312,52.110627899,4.));
#341=CARTESIAN_POINT('',(6.860319721,51.95085869,4.));
#342=CARTESIAN_POINT('',(6.996925357,51.311781853,4.));
#343=CARTESIAN_POINT('',(7.044824277,50.661662348,4.));
#344=CARTESIAN_POINT('',(7.,50.000000184,4.));
#345=B_SPLINE_CURVE_WITH_KNOTS('',3,(#296,#297,#298,#299,#300,#301,#302,#303,#304,#305,#306,#307,#308,#309,#310,#311,#312,#313,#314,#315,#316,#317,#318,#319,#320,#321,
#322,#323,#324,#325,#326,#327,#328,#329,#330,#331,#332,#333,#334,#335,#336,#337,#338,#339,#340,#341,#342,#343,#344),.UNSPECIFIED.,.F.,.F.,(4,3,3,3,3,3,3,3,3,3,3,3,3,3,3,3,4),(0.,0.001958571,0.002448214,0.002937857,0.003917142,0.004896428,0.005875713,0.007834284,0.00881357,0.009792856,0.010282498,0.010772141,0.011751427,0.012730712,0.013220355,0.013709998,0.015668569),.UNSPECIFIED.);
#346=EDGE_CURVE('',#295,#284,#345,.T.);
#347=ORIENTED_EDGE('',*,*,#346,.F.);
#348=CARTESIAN_POINT('',(-8.,49.999999684,4.));
#349=VERTEX_POINT('',#348);
#350=CARTESIAN_POINT('',(0.,50.,4.));
#351=DIRECTION('',(-0.,-0.,-1.));
#352=DIRECTION('',(1.,0.,-0.));
#353=AXIS2_PLACEMENT_3D('',#350,#351,#352);
#354=CIRCLE('',#353,8.);
#355=EDGE_CURVE('',#349,#295,#354,.T.);
#356=ORIENTED_EDGE('',*,*,#355,.F.);
#357=CARTESIAN_POINT('',(3.500871988,43.938325699,4.));
#358=CARTESIAN_POINT('',(2.951546301,43.568927273,4.));
#359=CARTESIAN_POINT('',(2.363640287,43.285166146,4.));
#360=CARTESIAN_POINT('',(1.739063072,43.082804609,4.));
#361=CARTESIAN_POINT('',(1.426774464,42.98162384,4.));
#362=CARTESIAN_POINT('',(1.103931064,42.901519497,4.));
#363=CARTESIAN_POINT('',(0.781342304,42.844538367,4.));
#364=CARTESIAN_POINT('',(0.458753544,42.787557238,4.));
#365=CARTESIAN_POINT('',(0.134139994,42.752710131,4.));
#366=CARTESIAN_POINT('',(-0.192485232,42.739853681,4.));
#367=CARTESIAN_POINT('',(-0.355797845,42.733425456,4.));
#368=CARTESIAN_POINT('',(-0.519615083,42.732513542,4.));
#369=CARTESIAN_POINT('',(-0.683945824,42.737215,4.));
#370=CARTESIAN_POINT('',(-0.848276566,42.741916458,4.));
#371=CARTESIAN_POINT('',(-1.01373411,42.752340127,4.));
#372=CARTESIAN_POINT('',(-1.177789679,42.768246233,4.));
#373=CARTESIAN_POINT('',(-1.505900817,42.800058445,4.));
#374=CARTESIAN_POINT('',(-1.828776531,42.853480091,4.));
#375=CARTESIAN_POINT('',(-2.146570843,42.927875446,4.));
#376=CARTESIAN_POINT('',(-2.464365154,43.002270801,4.));
#377=CARTESIAN_POINT('',(-2.777077784,43.097641013,4.));
#378=CARTESIAN_POINT('',(-3.084588709,43.214481487,4.));
#379=CARTESIAN_POINT('',(-3.238344171,43.272901724,4.));
#380=CARTESIAN_POINT('',(-3.391330991,43.336878224,4.));
#381=CARTESIAN_POINT('',(-3.541130518,43.40541021,4.));
#382=CARTESIAN_POINT('',(-3.690930045,43.473942196,4.));
#383=CARTESIAN_POINT('',(-3.837789767,43.547084855,4.));
#384=CARTESIAN_POINT('',(-3.981770482,43.624742835,4.));
#385=CARTESIAN_POINT('',(-4.269731912,43.780058795,4.));
#386=CARTESIAN_POINT('',(-4.54621319,43.953379772,4.));
#387=CARTESIAN_POINT('',(-4.811251047,44.144648157,4.));
#388=CARTESIAN_POINT('',(-4.943769975,44.24028235,4.));
#389=CARTESIAN_POINT('',(-5.073412285,44.340428118,4.));
#390=CARTESIAN_POINT('',(-5.200201761,44.445048157,4.));
#391=CARTESIAN_POINT('',(-5.326991236,44.549668196,4.));
#392=CARTESIAN_POINT('',(-5.451336687,44.65920594,4.));
#393=CARTESIAN_POINT('',(-5.571403599,44.772100259,4.));
#394=CARTESIAN_POINT('',(-6.051671244,45.223677532,4.));
#395=CARTESIAN_POINT('',(-6.46528188,45.728371785,4.));
#396=CARTESIAN_POINT('',(-6.814432756,46.284432093,4.));
#397=CARTESIAN_POINT('',(-7.512734509,47.396552709,4.));
#398=CARTESIAN_POINT('',(-7.921745808,48.679852518,4.));
#399=CARTESIAN_POINT('',(-8.,49.999999684,4.));
#400=B_SPLINE_CURVE_WITH_KNOTS('',3,(#357,#358,#359,#360,#361,#362,#363,#364,#365,#366,#367,#368,#369,#370,#371,#372,#373,#374,#375,#376,#377,#378,#379,#380,#381,#382,
#383,#384,#385,#386,#387,#388,#389,#390,#391,#392,#393,#394,#395,#396,#397,#398,#399),.UNSPECIFIED.,.F.,.F.,(4,3,3,3,3,3,3,3,3,3,3,3,3,3,4),(0.,0.001957731,0.002936597,0.003915462,0.004404895,0.004894328,0.005873193,0.006852059,0.007341492,0.007830924,0.00880979,0.009299223,0.009788655,0.011746386,0.015661849),.UNSPECIFIED.);
#401=EDGE_CURVE('',#286,#349,#400,.T.);
#402=ORIENTED_EDGE('',*,*,#401,.F.);
#403=EDGE_LOOP('',(#293,#347,#356,#402));
#404=FACE_BOUND('',#403,.T.);
#405=ADVANCED_FACE('',(#404),#282,.T.);
#406=CARTESIAN_POINT('',(0.,50.,0.));
#407=DIRECTION('',(0.,0.,1.));
#408=DIRECTION('',(1.,0.,-0.));
#409=AXIS2_PLACEMENT_3D('',#406,#407,#408);
#410=CONICAL_SURFACE('',#409,6.,45.);
#411=CARTESIAN_POINT('',(-4.000996105,43.072371967,2.));
#412=VERTEX_POINT('',#411);
#413=CARTESIAN_POINT('',(7.,50.,1.));
#414=VERTEX_POINT('',#413);
#415=CARTESIAN_POINT('',(-4.000996105,43.072371967,2.));
#416=CARTESIAN_POINT('',(-4.563004803,43.41976597,1.980247272));
#417=CARTESIAN_POINT('',(-5.070972385,43.82846158,1.960924759));
#418=CARTESIAN_POINT('',(-5.526226889,44.296919624,1.941304011));
#419=CARTESIAN_POINT('',(-5.640040514,44.414034135,1.936398824));
#420=CARTESIAN_POINT('',(-5.75050495,44.53494525,1.931464235));
#421=CARTESIAN_POINT('',(-5.857551915,44.659730363,1.926499494));
#422=CARTESIAN_POINT('',(-5.964598879,44.784515477,1.921534753));
#423=CARTESIAN_POINT('',(-6.068465113,44.913535181,1.916526849));
#424=CARTESIAN_POINT('',(-6.167498709,45.044733108,1.911555491));
#425=CARTESIAN_POINT('',(-6.365565901,45.307128964,1.901612776));
#426=CARTESIAN_POINT('',(-6.545670155,45.579518585,1.891800703));
#427=CARTESIAN_POINT('',(-6.708203522,45.861679284,1.881985336));
#428=CARTESIAN_POINT('',(-6.870736888,46.143839984,1.872169969));
#429=CARTESIAN_POINT('',(-7.01562678,46.435809289,1.862269854));
#430=CARTESIAN_POINT('',(-7.142558355,46.737762187,1.852282178));
#431=CARTESIAN_POINT('',(-7.269489931,47.039715086,1.842294503));
#432=CARTESIAN_POINT('',(-7.378726231,47.353419348,1.832166044));
#433=CARTESIAN_POINT('',(-7.466790387,47.6688692,1.82222024));
#434=CARTESIAN_POINT('',(-7.642918699,48.299768903,1.802328632));
#435=CARTESIAN_POINT('',(-7.738473793,48.944142181,1.782413915));
#436=CARTESIAN_POINT('',(-7.751996663,49.602224274,1.762195424));
#437=CARTESIAN_POINT('',(-7.755377381,49.766744797,1.757140801));
#438=CARTESIAN_POINT('',(-7.753522067,49.932365884,1.752078293));
#439=CARTESIAN_POINT('',(-7.746443315,50.096488333,1.747044213));
#440=CARTESIAN_POINT('',(-7.739364563,50.260610782,1.742010132));
#441=CARTESIAN_POINT('',(-7.727077816,50.423809034,1.736971624));
#442=CARTESIAN_POINT('',(-7.709682536,50.586100731,1.731928535));
#443=CARTESIAN_POINT('',(-7.674891974,50.910684126,1.721842355));
#444=CARTESIAN_POINT('',(-7.619727516,51.231651989,1.711737786));
#445=CARTESIAN_POINT('',(-7.54423131,51.549011783,1.701614348));
#446=CARTESIAN_POINT('',(-7.468735104,51.866371577,1.691490909));
#447=CARTESIAN_POINT('',(-7.372463447,52.181461069,1.681368184));
#448=CARTESIAN_POINT('',(-7.255831423,52.489802297,1.671128021));
#449=CARTESIAN_POINT('',(-7.1391994,52.798143525,1.660887858));
#450=CARTESIAN_POINT('',(-7.003882684,53.095862855,1.65066597));
#451=CARTESIAN_POINT('',(-6.850527913,53.383327851,1.640460722));
#452=CARTESIAN_POINT('',(-6.697173143,53.670792847,1.630255473));
#453=CARTESIAN_POINT('',(-6.525809516,53.948021478,1.620104721));
#454=CARTESIAN_POINT('',(-6.336073534,54.214802722,1.609887635));
#455=CARTESIAN_POINT('',(-6.146337553,54.481583966,1.599670549));
#456=CARTESIAN_POINT('',(-5.936552838,54.739283572,1.589215111));
#457=CARTESIAN_POINT('',(-5.713550472,54.979407486,1.578862574));
#458=CARTESIAN_POINT('',(-5.267545741,55.459655315,1.5581575));
#459=CARTESIAN_POINT('',(-4.766669132,55.876422841,1.537892024));
#460=CARTESIAN_POINT('',(-4.20932333,56.227805462,1.516911851));
#461=CARTESIAN_POINT('',(-4.069986879,56.315651118,1.511666808));
#462=CARTESIAN_POINT('',(-3.927096879,56.399273305,1.506388202));
#463=CARTESIAN_POINT('',(-3.782761148,56.477500505,1.501152891));
#464=CARTESIAN_POINT('',(-3.638425417,56.555727706,1.495917581));
#465=CARTESIAN_POINT('',(-3.492121483,56.628903352,1.490705681));
#466=CARTESIAN_POINT('',(-3.343884839,56.69711855,1.485516862));
#467=CARTESIAN_POINT('',(-3.047411551,56.833548947,1.475139224));
#468=CARTESIAN_POINT('',(-2.743222306,56.950173256,1.464825536));
#469=CARTESIAN_POINT('',(-2.431224143,57.046732551,1.454347086));
#470=CARTESIAN_POINT('',(-2.275225062,57.095012199,1.449107861));
#471=CARTESIAN_POINT('',(-2.117272762,57.138274414,1.443842831));
#472=CARTESIAN_POINT('',(-1.957326346,57.176414132,1.438551352));
#473=CARTESIAN_POINT('',(-1.79737993,57.214553849,1.433259872));
#474=CARTESIAN_POINT('',(-1.634952004,57.247622955,1.427926274));
#475=CARTESIAN_POINT('',(-1.472800492,57.275057444,1.422641181));
#476=CARTESIAN_POINT('',(-1.148497468,57.32992642,1.412070994));
#477=CARTESIAN_POINT('',(-0.823531867,57.362915105,1.401667558));
#478=CARTESIAN_POINT('',(-0.497922913,57.37434661,1.391137609));
#479=CARTESIAN_POINT('',(-0.17231396,57.385778115,1.380607659));
#480=CARTESIAN_POINT('',(0.153938451,57.375714699,1.370012003));
#481=CARTESIAN_POINT('',(0.48085028,57.343622524,1.359348392));
#482=CARTESIAN_POINT('',(0.644306194,57.327576436,1.354016587));
#483=CARTESIAN_POINT('',(0.808552307,57.305884632,1.348647269));
#484=CARTESIAN_POINT('',(0.970994969,57.278845726,1.343325291));
#485=CARTESIAN_POINT('',(1.133437631,57.25180682,1.338003313));
#486=CARTESIAN_POINT('',(1.294166051,57.219441306,1.332702014));
#487=CARTESIAN_POINT('',(1.453205694,57.181832506,1.327381861));
#488=CARTESIAN_POINT('',(1.77128498,57.106614905,1.316741555));
#489=CARTESIAN_POINT('',(2.082647701,57.010538767,1.306073543));
#490=CARTESIAN_POINT('',(2.387326946,56.893706958,1.295377));
#491=CARTESIAN_POINT('',(2.539666569,56.835291054,1.290028728));
#492=CARTESIAN_POINT('',(2.690329771,56.771668985,1.284673336));
#493=CARTESIAN_POINT('',(2.8392864,56.702747102,1.279310817));
#494=CARTESIAN_POINT('',(2.988243028,56.633825219,1.273948298));
#495=CARTESIAN_POINT('',(3.136045592,56.559298256,1.26856528));
#496=CARTESIAN_POINT('',(3.280569658,56.480074928,1.263161045));
#497=CARTESIAN_POINT('',(3.858665923,56.163181619,1.241544104));
#498=CARTESIAN_POINT('',(4.382473857,55.775320172,1.220112994));
#499=CARTESIAN_POINT('',(4.852427751,55.317082039,1.19843153));
#500=CARTESIAN_POINT('',(4.969916224,55.202522506,1.193011164));
#501=CARTESIAN_POINT('',(5.084365123,55.082993663,1.187519984));
#502=CARTESIAN_POINT('',(5.194189484,54.960036335,1.182030691));
#503=CARTESIAN_POINT('',(5.304013844,54.837079008,1.176541397));
#504=CARTESIAN_POINT('',(5.409018078,54.710989029,1.171065812));
#505=CARTESIAN_POINT('',(5.509318904,54.581842259,1.165603483));
#506=CARTESIAN_POINT('',(5.709920557,54.323548721,1.154678825));
#507=CARTESIAN_POINT('',(5.891804587,54.053088921,1.143844335));
#508=CARTESIAN_POINT('',(6.054990027,53.770479974,1.132981387));
#509=CARTESIAN_POINT('',(6.136582747,53.629175501,1.127549913));
#510=CARTESIAN_POINT('',(6.213456582,53.484806313,1.12207842));
#511=CARTESIAN_POINT('',(6.285525309,53.337316426,1.116565838));
#512=CARTESIAN_POINT('',(6.357594035,53.189826538,1.111053257));
#513=CARTESIAN_POINT('',(6.42509249,53.03860671,1.105477567));
#514=CARTESIAN_POINT('',(6.486967566,52.885848241,1.0999203));
#515=CARTESIAN_POINT('',(6.610717717,52.580331303,1.088805767));
#516=CARTESIAN_POINT('',(6.712011558,52.269439046,1.077805316));
#517=CARTESIAN_POINT('',(6.791543897,51.953339491,1.066866609));
#518=CARTESIAN_POINT('',(6.871076236,51.637239936,1.055927902));
#519=CARTESIAN_POINT('',(6.928668306,51.315896678,1.044868886));
#520=CARTESIAN_POINT('',(6.963780383,50.989180804,1.033684374));
#521=CARTESIAN_POINT('',(6.99889246,50.662464929,1.022499862));
#522=CARTESIAN_POINT('',(7.011197014,50.330563662,1.011197014));
#523=CARTESIAN_POINT('',(7.,50.,1.));
#524=B_SPLINE_CURVE_WITH_KNOTS('',3,(#415,#416,#417,#418,#419,#420,#421,#422,#423,#424,#425,#426,#427,#428,#429,#430,#431,#432,#433,#434,#435,#436,#437,#438,#439,#440,
#441,#442,#443,#444,#445,#446,#447,#448,#449,#450,#451,#452,#453,#454,#455,#456,#457,#458,#459,#460,#461,#462,#463,#464,#465,
#466,#467,#468,#469,#470,#471,#472,#473,#474,#475,#476,#477,#478,#479,#480,#481,#482,#483,#484,#485,#486,#487,#488,#489,#490,
#491,#492,#493,#494,#495,#496,#497,#498,#499,#500,#501,#502,#503,#504,#505,#506,#507,#508,#509,#510,#511,#512,#513,#514,#515,
#516,#517,#518,#519,#520,#521,#522,#523),.UNSPECIFIED.,.F.,.F.,(4,3,3,3,3,3,3,3,3,3,3,3,3,3,3,3,3,3,3,3,3,3,3,3,3,3,
3,3,3,3,3,3,3,3,3,3,4),(0.,0.00195477,0.002443463,0.002932156,0.003909541,0.004886926,0.005864311,0.007819082,0.008307774,0.008796467,0.009773852,0.010751237,0.011728622,0.012706008,0.013683393,0.015638163,0.016126856,0.016615549,0.017592934,0.018081626,0.018570319,0.019547704,0.020525089,0.021013782,0.021502475,0.02247986,
0.022968552,0.023457245,0.025412015,0.025900708,0.026389401,0.027366786,0.027855478,0.028344171,0.029321556,0.030298941,0.031276327),.UNSPECIFIED.);
#525=EDGE_CURVE('',#412,#414,#524,.T.);
#526=ORIENTED_EDGE('',*,*,#525,.T.);
#527=CARTESIAN_POINT('',(3.500871829,43.938325608,1.));
#528=VERTEX_POINT('',#527);
#529=CARTESIAN_POINT('',(0.,50.,1.));
#530=DIRECTION('',(0.,0.,1.));
#531=DIRECTION('',(1.,0.,-0.));
#532=AXIS2_PLACEMENT_3D('',#529,#530,#531);
#533=CIRCLE('',#532,7.);
#534=EDGE_CURVE('',#414,#528,#533,.T.);
#535=ORIENTED_EDGE('',*,*,#534,.T.);
#536=CARTESIAN_POINT('',(4.000996376,43.072372123,2.));
#537=VERTEX_POINT('',#536);
#538=CARTESIAN_POINT('',(3.500871829,43.938325608,1.));
#539=CARTESIAN_POINT('',(3.667580085,43.649674489,1.333333333));
#540=CARTESIAN_POINT('',(3.834288194,43.361023285,1.666666667));
#541=CARTESIAN_POINT('',(4.000996376,43.072372123,2.));
#542=B_SPLINE_CURVE_WITH_KNOTS('',3,(#538,#539,#540,#541),.UNSPECIFIED.,.F.,.F.,(4,4),(0.,0.001414214),.UNSPECIFIED.);
#543=EDGE_CURVE('',#528,#537,#542,.T.);
#544=ORIENTED_EDGE('',*,*,#543,.T.);
#545=CARTESIAN_POINT('',(0.,50.,2.));
#546=DIRECTION('',(0.,0.,1.));
#547=DIRECTION('',(1.,0.,-0.));
#548=AXIS2_PLACEMENT_3D('',#545,#546,#547);
#549=CIRCLE('',#548,8.);
#550=EDGE_CURVE('',#412,#537,#549,.T.);
#551=ORIENTED_EDGE('',*,*,#550,.F.);
#552=EDGE_LOOP('',(#526,#535,#544,#551));
#553=FACE_BOUND('',#552,.T.);
#554=ADVANCED_FACE('',(#553),#410,.T.);
#555=CARTESIAN_POINT('',(0.,50.,0.));
#556=DIRECTION('',(0.,0.,1.));
#557=DIRECTION('',(1.,0.,-0.));
#558=AXIS2_PLACEMENT_3D('',#555,#556,#557);
#559=CYLINDRICAL_SURFACE('',#558,8.);
#560=CARTESIAN_POINT('',(8.,50.,2.999999988));
#561=VERTEX_POINT('',#560);
#562=CARTESIAN_POINT('',(8.,50.,2.499999988));
#563=VERTEX_POINT('',#562);
#564=CARTESIAN_POINT('',(8.,50.,2.999999988));
#565=DIRECTION('',(-0.,-0.,-1.));
#566=VECTOR('',#565,0.5);
#567=LINE('',#564,#566);
#568=EDGE_CURVE('',#561,#563,#567,.T.);
#569=ORIENTED_EDGE('',*,*,#568,.T.);
#570=CARTESIAN_POINT('',(4.000998125,43.072373134,2.000000121));
#571=CARTESIAN_POINT('',(4.662002696,43.454131288,2.045661514));
#572=CARTESIAN_POINT('',(5.238885872,43.954003405,2.09090908));
#573=CARTESIAN_POINT('',(6.108168947,44.707241478,2.159090898));
#574=CARTESIAN_POINT('',(6.730028263,45.67487346,2.227272716));
#575=CARTESIAN_POINT('',(7.351887578,46.642505442,2.295454534));
#576=CARTESIAN_POINT('',(7.675943789,47.746139545,2.363636352));
#577=CARTESIAN_POINT('',(8.,48.849773648,2.43181817));
#578=CARTESIAN_POINT('',(8.,50.,2.499999988));
#579=CARTESIAN_POINT('',(8.,51.150226352,2.568181805));
#580=CARTESIAN_POINT('',(7.675943789,52.253860455,2.636363623));
#581=CARTESIAN_POINT('',(7.351887578,53.357494558,2.704545441));
#582=CARTESIAN_POINT('',(6.730028263,54.32512654,2.772727259));
#583=CARTESIAN_POINT('',(6.108168947,55.292758522,2.840909077));
#584=CARTESIAN_POINT('',(5.238885872,56.045996595,2.909090895));
#585=CARTESIAN_POINT('',(4.369602796,56.799234668,2.977272713));
#586=CARTESIAN_POINT('',(3.323320104,57.277055963,3.045454531));
#587=CARTESIAN_POINT('',(2.277037412,57.754877258,3.113636349));
#588=CARTESIAN_POINT('',(1.138518706,57.918571535,3.181818166));
#589=CARTESIAN_POINT('',(0.,58.082265812,3.249999984));
#590=CARTESIAN_POINT('',(-1.138518706,57.918571535,3.318181802));
#591=CARTESIAN_POINT('',(-2.277037412,57.754877258,3.38636362));
#592=CARTESIAN_POINT('',(-3.323320104,57.277055963,3.454545438));
#593=CARTESIAN_POINT('',(-4.369602796,56.799234668,3.522727256));
#594=CARTESIAN_POINT('',(-5.238885872,56.045996595,3.590909074));
#595=CARTESIAN_POINT('',(-6.108168947,55.292758522,3.659090892));
#596=CARTESIAN_POINT('',(-6.730028263,54.32512654,3.72727271));
#597=CARTESIAN_POINT('',(-7.351887578,53.357494558,3.795454528));
#598=CARTESIAN_POINT('',(-7.675943789,52.253860455,3.863636345));
#599=CARTESIAN_POINT('',(-8.,51.150226352,3.931818163));
#600=CARTESIAN_POINT('',(-8.,49.999999684,4.));
#601=(BOUNDED_CURVE()
B_SPLINE_CURVE(2,(#570,#571,#572,#573,#574,#575,#576,#577,#578,#579,#580,#581,#582,#583,#584,#585,#586,#587,#588,#589,#590,#591,#592,#593,#594,#595,
#596,#597,#598,#599,#600),.UNSPECIFIED.,.F.,.F.)
B_SPLINE_CURVE_WITH_KNOTS((3,2,2,2,2,2,2,2,2,2,2,2,2,2,2,3),(0.043861457,0.045454545,0.04784689,0.050239235,0.052631579,0.055023924,0.057416268,0.059808613,0.062200957,0.064593302,0.066985646,0.069377991,0.071770335,0.07416268,0.076555024,0.078947369),.UNSPECIFIED.)
CURVE()
GEOMETRIC_REPRESENTATION_ITEM()
RATIONAL_B_SPLINE_CURVE((0.99547108,0.993221987,1.,0.989821442,1.,0.989821442,1.,0.989821442,1.,0.989821442,1.,0.989821442,1.,0.989821442,1.,0.989821442,1.,0.989821442,1.,0.989821442,1.,0.989821442,1.,0.989821442,1.,0.989821442,
1.,0.989821442,1.,0.989821442,1.))
REPRESENTATION_ITEM(''));
#602=EDGE_CURVE('',#563,#349,#601,.T.);
#603=ORIENTED_EDGE('',*,*,#602,.T.);
#604=ORIENTED_EDGE('',*,*,#355,.T.);
#605=CARTESIAN_POINT('',(-4.000997854,43.072372977,1.999999879));
#606=CARTESIAN_POINT('',(-3.670494266,42.881493164,2.022830665));
#607=CARTESIAN_POINT('',(-3.323320104,42.722944037,2.045454537));
#608=CARTESIAN_POINT('',(-2.277037412,42.245122742,2.113636355));
#609=CARTESIAN_POINT('',(-1.138518706,42.081428465,2.181818173));
#610=CARTESIAN_POINT('',(-0.,41.917734188,2.249999991));
#611=CARTESIAN_POINT('',(1.138518706,42.081428465,2.318181809));
#612=CARTESIAN_POINT('',(2.277037412,42.245122742,2.386363626));
#613=CARTESIAN_POINT('',(3.323320104,42.722944037,2.454545444));
#614=CARTESIAN_POINT('',(4.369602796,43.200765332,2.522727262));
#615=CARTESIAN_POINT('',(5.238885872,43.954003405,2.59090908));
#616=CARTESIAN_POINT('',(6.108168947,44.707241478,2.659090898));
#617=CARTESIAN_POINT('',(6.730028263,45.67487346,2.727272716));
#618=CARTESIAN_POINT('',(7.351887578,46.642505442,2.795454534));
#619=CARTESIAN_POINT('',(7.675943789,47.746139545,2.863636352));
#620=CARTESIAN_POINT('',(8.,48.849773648,2.93181817));
#621=CARTESIAN_POINT('',(8.,50.,2.999999988));
#622=CARTESIAN_POINT('',(8.,51.150226352,3.068181805));
#623=CARTESIAN_POINT('',(7.675943789,52.253860455,3.136363623));
#624=CARTESIAN_POINT('',(7.351887578,53.357494558,3.204545441));
#625=CARTESIAN_POINT('',(6.730028263,54.32512654,3.272727259));
#626=CARTESIAN_POINT('',(6.108168947,55.292758522,3.340909077));
#627=CARTESIAN_POINT('',(5.238885872,56.045996595,3.409090895));
#628=CARTESIAN_POINT('',(4.369602796,56.799234668,3.477272713));
#629=CARTESIAN_POINT('',(3.323320104,57.277055963,3.545454531));
#630=CARTESIAN_POINT('',(2.277037412,57.754877258,3.613636349));
#631=CARTESIAN_POINT('',(1.138518706,57.918571535,3.681818166));
#632=CARTESIAN_POINT('',(0.,58.082265812,3.749999984));
#633=CARTESIAN_POINT('',(-1.138518706,57.918571535,3.818181802));
#634=CARTESIAN_POINT('',(-2.277037412,57.754877258,3.88636362));
#635=CARTESIAN_POINT('',(-3.323320104,57.277055963,3.954545438));
#636=CARTESIAN_POINT('',(-3.670494456,57.118506749,3.977169322));
#637=CARTESIAN_POINT('',(-4.000998216,56.927626814,4.000000121));
#638=(BOUNDED_CURVE()
B_SPLINE_CURVE(2,(#605,#606,#607,#608,#609,#610,#611,#612,#613,#614,#615,#616,#617,#618,#619,#620,#621,#622,#623,#624,#625,#626,#627,#628,#629,#630,
#631,#632,#633,#634,#635,#636,#637),.UNSPECIFIED.,.F.,.F.)
B_SPLINE_CURVE_WITH_KNOTS((3,2,2,2,2,2,2,2,2,2,2,2,2,2,2,2,3),(0.035085912,0.035885167,0.038277512,0.040669856,0.043062201,0.045454545,0.04784689,0.050239234,0.052631579,0.055023923,0.057416268,0.059808612,0.062200957,0.064593301,0.066985646,0.06937799,0.070177247),.UNSPECIFIED.)
CURVE()
GEOMETRIC_REPRESENTATION_ITEM()
RATIONAL_B_SPLINE_CURVE((0.99547108,0.996599456,1.,0.989821442,1.,0.989821442,1.,0.989821442,1.,0.989821442,1.,0.989821442,1.,0.989821442,1.,0.989821442,1.,0.989821442,1.,0.989821442,1.,0.989821442,1.,0.989821442,1.,0.989821442,
1.,0.989821442,1.,0.989821442,1.,0.996599454,0.995471079))
REPRESENTATION_ITEM(''));
#639=EDGE_CURVE('',#561,#295,#638,.T.);
#640=ORIENTED_EDGE('',*,*,#639,.F.);
#641=EDGE_LOOP('',(#569,#603,#604,#640));
#642=FACE_BOUND('',#641,.T.);
#643=ADVANCED_FACE('',(#642),#559,.T.);
#644=CARTESIAN_POINT('',(4.000996376,43.072372123,2.));
#645=CARTESIAN_POINT('',(4.662001926,43.454130621,2.045661453));
#646=CARTESIAN_POINT('',(5.238885872,43.954003405,2.09090908));
#647=CARTESIAN_POINT('',(6.108168947,44.707241478,2.159090898));
#648=CARTESIAN_POINT('',(6.730028263,45.67487346,2.227272716));
#649=CARTESIAN_POINT('',(7.351887578,46.642505442,2.295454534));
#650=CARTESIAN_POINT('',(7.675943789,47.746139545,2.363636352));
#651=CARTESIAN_POINT('',(8.,48.849773648,2.43181817));
#652=CARTESIAN_POINT('',(8.,50.,2.499999988));
#653=CARTESIAN_POINT('',(8.,51.150226352,2.568181805));
#654=CARTESIAN_POINT('',(7.675943789,52.253860455,2.636363623));
#655=CARTESIAN_POINT('',(7.351887578,53.357494558,2.704545441));
#656=CARTESIAN_POINT('',(6.730028263,54.32512654,2.772727259));
#657=CARTESIAN_POINT('',(6.108168947,55.292758522,2.840909077));
#658=CARTESIAN_POINT('',(5.238885872,56.045996595,2.909090895));
#659=CARTESIAN_POINT('',(4.369602796,56.799234668,2.977272713));
#660=CARTESIAN_POINT('',(3.323320104,57.277055963,3.045454531));
#661=CARTESIAN_POINT('',(2.277037412,57.754877258,3.113636349));
#662=CARTESIAN_POINT('',(1.138518706,57.918571535,3.181818166));
#663=CARTESIAN_POINT('',(0.,58.082265812,3.249999984));
#664=CARTESIAN_POINT('',(-1.138518706,57.918571535,3.318181802));
#665=CARTESIAN_POINT('',(-2.277037412,57.754877258,3.38636362));
#666=CARTESIAN_POINT('',(-3.323320104,57.277055963,3.454545438));
#667=CARTESIAN_POINT('',(-4.369602796,56.799234668,3.522727256));
#668=CARTESIAN_POINT('',(-5.238885872,56.045996595,3.590909074));
#669=CARTESIAN_POINT('',(-6.108168947,55.292758522,3.659090892));
#670=CARTESIAN_POINT('',(-6.730028263,54.32512654,3.72727271));
#671=CARTESIAN_POINT('',(-7.351887578,53.357494558,3.795454528));
#672=CARTESIAN_POINT('',(-7.675943789,52.253860455,3.863636345));
#673=CARTESIAN_POINT('',(-8.,51.150226352,3.931818163));
#674=CARTESIAN_POINT('',(-8.,50.,3.999999981));
#675=CARTESIAN_POINT('',(-8.,48.849773648,4.068181799));
#676=CARTESIAN_POINT('',(-7.675943789,47.746139545,4.136363617));
#677=CARTESIAN_POINT('',(-7.351887578,46.642505442,4.204545435));
#678=CARTESIAN_POINT('',(-6.730028263,45.67487346,4.272727253));
#679=CARTESIAN_POINT('',(-6.108168947,44.707241478,4.340909071));
#680=CARTESIAN_POINT('',(-5.238885872,43.954003405,4.409090889));
#681=CARTESIAN_POINT('',(-4.369602796,43.200765332,4.477272707));
#682=CARTESIAN_POINT('',(-3.323320104,42.722944037,4.545454524));
#683=CARTESIAN_POINT('',(-2.277037412,42.245122742,4.613636342));
#684=CARTESIAN_POINT('',(-1.138518706,42.081428465,4.68181816));
#685=CARTESIAN_POINT('',(-0.,41.917734188,4.749999978));
#686=CARTESIAN_POINT('',(1.138518706,42.081428465,4.818181796));
#687=CARTESIAN_POINT('',(2.277037412,42.245122742,4.886363614));
#688=CARTESIAN_POINT('',(3.323320104,42.722944037,4.954545432));
#689=CARTESIAN_POINT('',(3.670493583,42.881492853,4.977169259));
#690=CARTESIAN_POINT('',(4.000996557,43.072372228,5.));
#691=CARTESIAN_POINT('',(3.500871829,43.938325608,1.));
#692=CARTESIAN_POINT('',(4.079251685,44.272364293,1.045661453));
#693=CARTESIAN_POINT('',(4.584025138,44.70975298,1.09090908));
#694=CARTESIAN_POINT('',(5.344647829,45.368836293,1.159090898));
#695=CARTESIAN_POINT('',(5.88877473,46.215514278,1.227272716));
#696=CARTESIAN_POINT('',(6.432901631,47.062192262,1.295454534));
#697=CARTESIAN_POINT('',(6.716450815,48.027872102,1.363636352));
#698=CARTESIAN_POINT('',(7.,48.993551942,1.43181817));
#699=CARTESIAN_POINT('',(7.,50.,1.499999988));
#700=CARTESIAN_POINT('',(7.,51.006448058,1.568181805));
#701=CARTESIAN_POINT('',(6.716450815,51.972127898,1.636363623));
#702=CARTESIAN_POINT('',(6.432901631,52.937807738,1.704545441));
#703=CARTESIAN_POINT('',(5.88877473,53.784485722,1.772727259));
#704=CARTESIAN_POINT('',(5.344647829,54.631163707,1.840909077));
#705=CARTESIAN_POINT('',(4.584025138,55.29024702,1.909090895));
#706=CARTESIAN_POINT('',(3.823402446,55.949330334,1.977272713));
#707=CARTESIAN_POINT('',(2.907905091,56.367423967,2.045454531));
#708=CARTESIAN_POINT('',(1.992407736,56.785517601,2.113636349));
#709=CARTESIAN_POINT('',(0.996203868,56.928750093,2.181818166));
#710=CARTESIAN_POINT('',(0.,57.071982586,2.249999984));
#711=CARTESIAN_POINT('',(-0.996203868,56.928750093,2.318181802));
#712=CARTESIAN_POINT('',(-1.992407736,56.785517601,2.38636362));
#713=CARTESIAN_POINT('',(-2.907905091,56.367423967,2.454545438));
#714=CARTESIAN_POINT('',(-3.823402446,55.949330334,2.522727256));
#715=CARTESIAN_POINT('',(-4.584025138,55.29024702,2.590909074));
#716=CARTESIAN_POINT('',(-5.344647829,54.631163707,2.659090892));
#717=CARTESIAN_POINT('',(-5.88877473,53.784485722,2.72727271));
#718=CARTESIAN_POINT('',(-6.432901631,52.937807738,2.795454528));
#719=CARTESIAN_POINT('',(-6.716450815,51.972127898,2.863636345));
#720=CARTESIAN_POINT('',(-7.,51.006448058,2.931818163));
#721=CARTESIAN_POINT('',(-7.,50.,2.999999981));
#722=CARTESIAN_POINT('',(-7.,48.993551942,3.068181799));
#723=CARTESIAN_POINT('',(-6.716450815,48.027872102,3.136363617));
#724=CARTESIAN_POINT('',(-6.432901631,47.062192262,3.204545435));
#725=CARTESIAN_POINT('',(-5.88877473,46.215514278,3.272727253));
#726=CARTESIAN_POINT('',(-5.344647829,45.368836293,3.340909071));
#727=CARTESIAN_POINT('',(-4.584025138,44.70975298,3.409090889));
#728=CARTESIAN_POINT('',(-3.823402446,44.050669666,3.477272707));
#729=CARTESIAN_POINT('',(-2.907905091,43.632576033,3.545454524));
#730=CARTESIAN_POINT('',(-1.992407736,43.214482399,3.613636342));
#731=CARTESIAN_POINT('',(-0.996203868,43.071249907,3.68181816));
#732=CARTESIAN_POINT('',(-0.,42.928017414,3.749999978));
#733=CARTESIAN_POINT('',(0.996203868,43.071249907,3.818181796));
#734=CARTESIAN_POINT('',(1.992407736,43.214482399,3.886363614));
#735=CARTESIAN_POINT('',(2.907905091,43.632576033,3.954545432));
#736=CARTESIAN_POINT('',(3.211681885,43.771306246,3.977169259));
#737=CARTESIAN_POINT('',(3.500871988,43.938325699,4.));
#738=(BOUNDED_SURFACE()
B_SPLINE_SURFACE(1,2,((#644,#645,#646,#647,#648,#649,#650,#651,#652,#653,#654,#655,#656,#657,#658,#659,#660,#661,#662,#663,#664,#665,#666,#667,#668,#669,
#670,#671,#672,#673,#674,#675,#676,#677,#678,#679,#680,#681,#682,#683,#684,#685,#686,#687,#688,#689,#690),(#691,#692,#693,#694,#695,#696,#697,#698,#699,#700,#701,#702,#703,#704,#705,#706,#707,#708,#709,#710,#711,#712,#713,#714,#715,#716,
#717,#718,#719,#720,#721,#722,#723,#724,#725,#726,#727,#728,#729,#730,#731,#732,#733,#734,#735,#736,#737)),.UNSPECIFIED.,.F.,.F.,.U.)
B_SPLINE_SURFACE_WITH_KNOTS((2,2),(3,2,2,2,2,2,2,2,2,2,2,2,2,2,2,2,2,2,2,2,2,2,2,3),(0.,1.),(0.043861455,0.045454545,0.04784689,0.050239234,0.052631579,0.055023923,0.057416268,0.059808612,0.062200957,0.064593301,0.066985646,0.06937799,0.071770335,0.074162679,0.076555024,0.078947368,0.081339713,0.083732057,0.086124402,0.088516746,0.090909091,0.093301435,0.09569378,0.096493034),.UNSPECIFIED.)
GEOMETRIC_REPRESENTATION_ITEM()
RATIONAL_B_SPLINE_SURFACE(((0.995471085,0.993221978,1.,0.989821442,1.,0.989821442,1.,0.989821442,1.,0.989821442,1.,0.989821442,1.,0.989821442,1.,0.989821442,1.,0.989821442,1.,0.989821442,1.,0.989821442,1.,0.989821442,1.,0.989821442,
1.,0.989821442,1.,0.989821442,1.,0.989821442,1.,0.989821442,1.,0.989821442,1.,0.989821442,1.,0.989821442,1.,0.989821442,1.,0.989821442,1.,0.996599463,0.995471085),(0.995471085,0.993221978,1.,0.989821442,1.,0.989821442,1.,0.989821442,1.,0.989821442,1.,0.989821442,1.,0.989821442,1.,0.989821442,1.,0.989821442,1.,0.989821442,1.,0.989821442,1.,0.989821442,1.,0.989821442,
1.,0.989821442,1.,0.989821442,1.,0.989821442,1.,0.989821442,1.,0.989821442,1.,0.989821442,1.,0.989821442,1.,0.989821442,1.,0.989821442,1.,0.996599463,0.995471085)))
REPRESENTATION_ITEM('')
SURFACE()
);
#739=CARTESIAN_POINT('',(7.,50.,1.499999988));
#740=VERTEX_POINT('',#739);
#741=CARTESIAN_POINT('',(3.500873363,43.938326494,1.000000121));
#742=CARTESIAN_POINT('',(4.079252361,44.272364878,1.045661514));
#743=CARTESIAN_POINT('',(4.584025138,44.70975298,1.09090908));
#744=CARTESIAN_POINT('',(5.344647829,45.368836293,1.159090898));
#745=CARTESIAN_POINT('',(5.88877473,46.215514278,1.227272716));
#746=CARTESIAN_POINT('',(6.432901631,47.062192262,1.295454534));
#747=CARTESIAN_POINT('',(6.716450815,48.027872102,1.363636352));
#748=CARTESIAN_POINT('',(7.,48.993551942,1.43181817));
#749=CARTESIAN_POINT('',(7.,50.,1.499999988));
#750=CARTESIAN_POINT('',(7.,51.006448058,1.568181805));
#751=CARTESIAN_POINT('',(6.716450815,51.972127898,1.636363623));
#752=CARTESIAN_POINT('',(6.432901631,52.937807738,1.704545441));
#753=CARTESIAN_POINT('',(5.88877473,53.784485722,1.772727259));
#754=CARTESIAN_POINT('',(5.344647829,54.631163707,1.840909077));
#755=CARTESIAN_POINT('',(4.584025138,55.29024702,1.909090895));
#756=CARTESIAN_POINT('',(3.823402446,55.949330334,1.977272713));
#757=CARTESIAN_POINT('',(2.907905091,56.367423967,2.045454531));
#758=CARTESIAN_POINT('',(1.992407736,56.785517601,2.113636349));
#759=CARTESIAN_POINT('',(0.996203868,56.928750093,2.181818166));
#760=CARTESIAN_POINT('',(0.,57.071982586,2.249999984));
#761=CARTESIAN_POINT('',(-0.996203868,56.928750093,2.318181802));
#762=CARTESIAN_POINT('',(-1.992407736,56.785517601,2.38636362));
#763=CARTESIAN_POINT('',(-2.907905091,56.367423967,2.454545438));
#764=CARTESIAN_POINT('',(-3.823402446,55.949330334,2.522727256));
#765=CARTESIAN_POINT('',(-4.584025138,55.29024702,2.590909074));
#766=CARTESIAN_POINT('',(-5.344647829,54.631163707,2.659090892));
#767=CARTESIAN_POINT('',(-5.88877473,53.784485722,2.72727271));
#768=CARTESIAN_POINT('',(-6.432901631,52.937807738,2.795454528));
#769=CARTESIAN_POINT('',(-6.716450815,51.972127898,2.863636345));
#770=CARTESIAN_POINT('',(-7.,51.006448058,2.931818163));
#771=CARTESIAN_POINT('',(-7.,50.,2.999999981));
#772=CARTESIAN_POINT('',(-7.,48.993551942,3.068181799));
#773=CARTESIAN_POINT('',(-6.716450815,48.027872102,3.136363617));
#774=CARTESIAN_POINT('',(-6.432901631,47.062192262,3.204545435));
#775=CARTESIAN_POINT('',(-5.88877473,46.215514278,3.272727253));
#776=CARTESIAN_POINT('',(-5.344647829,45.368836293,3.340909071));
#777=CARTESIAN_POINT('',(-4.584025138,44.70975298,3.409090889));
#778=CARTESIAN_POINT('',(-3.823402446,44.050669666,3.477272707));
#779=CARTESIAN_POINT('',(-2.907905091,43.632576033,3.545454524));
#780=CARTESIAN_POINT('',(-1.992407736,43.214482399,3.613636342));
#781=CARTESIAN_POINT('',(-0.996203868,43.071249907,3.68181816));
#782=CARTESIAN_POINT('',(-0.,42.928017414,3.749999978));
#783=CARTESIAN_POINT('',(0.996203868,43.071249907,3.818181796));
#784=CARTESIAN_POINT('',(1.992407736,43.214482399,3.886363614));
#785=CARTESIAN_POINT('',(2.907905091,43.632576033,3.954545432));
#786=CARTESIAN_POINT('',(3.211682693,43.771306615,3.977169319));
#787=CARTESIAN_POINT('',(3.500873521,43.938326585,4.000000121));
#788=(BOUNDED_CURVE()
B_SPLINE_CURVE(2,(#741,#742,#743,#744,#745,#746,#747,#748,#749,#750,#751,#752,#753,#754,#755,#756,#757,#758,#759,#760,#761,#762,#763,#764,#765,#766,
#767,#768,#769,#770,#771,#772,#773,#774,#775,#776,#777,#778,#779,#780,#781,#782,#783,#784,#785,#786,#787),.UNSPECIFIED.,.F.,.F.)
B_SPLINE_CURVE_WITH_KNOTS((3,2,2,2,2,2,2,2,2,2,2,2,2,2,2,2,2,2,2,2,2,2,2,3),(0.043861457,0.045454545,0.04784689,0.050239234,0.052631579,0.055023923,0.057416268,0.059808612,0.062200957,0.064593301,0.066985646,0.06937799,0.071770335,0.074162679,0.076555024,0.078947368,0.081339713,0.083732057,0.086124402,0.088516746,0.090909091,0.093301435,0.09569378,0.096493036),.UNSPECIFIED.)
CURVE()
GEOMETRIC_REPRESENTATION_ITEM()
RATIONAL_B_SPLINE_CURVE((0.99547108,0.993221987,1.,0.989821442,1.,0.989821442,1.,0.989821442,1.,0.989821442,1.,0.989821442,1.,0.989821442,1.,0.989821442,1.,0.989821442,1.,0.989821442,1.,0.989821442,1.,0.989821442,1.,0.989821442,
1.,0.989821442,1.,0.989821442,1.,0.989821442,1.,0.989821442,1.,0.989821442,1.,0.989821442,1.,0.989821442,1.,0.989821442,1.,0.989821442,1.,0.996599454,0.995471079))
REPRESENTATION_ITEM(''));
#789=EDGE_CURVE('',#528,#740,#788,.T.);
#790=ORIENTED_EDGE('',*,*,#789,.T.);
#791=CARTESIAN_POINT('',(3.500873363,43.938326494,1.000000121));
#792=CARTESIAN_POINT('',(4.079252361,44.272364878,1.045661514));
#793=CARTESIAN_POINT('',(4.584025138,44.70975298,1.09090908));
#794=CARTESIAN_POINT('',(5.344647829,45.368836293,1.159090898));
#795=CARTESIAN_POINT('',(5.88877473,46.215514278,1.227272716));
#796=CARTESIAN_POINT('',(6.432901631,47.062192262,1.295454534));
#797=CARTESIAN_POINT('',(6.716450815,48.027872102,1.363636352));
#798=CARTESIAN_POINT('',(7.,48.993551942,1.43181817));
#799=CARTESIAN_POINT('',(7.,50.,1.499999988));
#800=CARTESIAN_POINT('',(7.,51.006448058,1.568181805));
#801=CARTESIAN_POINT('',(6.716450815,51.972127898,1.636363623));
#802=CARTESIAN_POINT('',(6.432901631,52.937807738,1.704545441));
#803=CARTESIAN_POINT('',(5.88877473,53.784485722,1.772727259));
#804=CARTESIAN_POINT('',(5.344647829,54.631163707,1.840909077));
#805=CARTESIAN_POINT('',(4.584025138,55.29024702,1.909090895));
#806=CARTESIAN_POINT('',(3.823402446,55.949330334,1.977272713));
#807=CARTESIAN_POINT('',(2.907905091,56.367423967,2.045454531));
#808=CARTESIAN_POINT('',(1.992407736,56.785517601,2.113636349));
#809=CARTESIAN_POINT('',(0.996203868,56.928750093,2.181818166));
#810=CARTESIAN_POINT('',(0.,57.071982586,2.249999984));
#811=CARTESIAN_POINT('',(-0.996203868,56.928750093,2.318181802));
#812=CARTESIAN_POINT('',(-1.992407736,56.785517601,2.38636362));
#813=CARTESIAN_POINT('',(-2.907905091,56.367423967,2.454545438));
#814=CARTESIAN_POINT('',(-3.823402446,55.949330334,2.522727256));
#815=CARTESIAN_POINT('',(-4.584025138,55.29024702,2.590909074));
#816=CARTESIAN_POINT('',(-5.344647829,54.631163707,2.659090892));
#817=CARTESIAN_POINT('',(-5.88877473,53.784485722,2.72727271));
#818=CARTESIAN_POINT('',(-6.432901631,52.937807738,2.795454528));
#819=CARTESIAN_POINT('',(-6.716450815,51.972127898,2.863636345));
#820=CARTESIAN_POINT('',(-7.,51.006448058,2.931818163));
#821=CARTESIAN_POINT('',(-7.,50.,2.999999981));
#822=CARTESIAN_POINT('',(-7.,48.993551942,3.068181799));
#823=CARTESIAN_POINT('',(-6.716450815,48.027872102,3.136363617));
#824=CARTESIAN_POINT('',(-6.432901631,47.062192262,3.204545435));
#825=CARTESIAN_POINT('',(-5.88877473,46.215514278,3.272727253));
#826=CARTESIAN_POINT('',(-5.344647829,45.368836293,3.340909071));
#827=CARTESIAN_POINT('',(-4.584025138,44.70975298,3.409090889));
#828=CARTESIAN_POINT('',(-3.823402446,44.050669666,3.477272707));
#829=CARTESIAN_POINT('',(-2.907905091,43.632576033,3.545454524));
#830=CARTESIAN_POINT('',(-1.992407736,43.214482399,3.613636342));
#831=CARTESIAN_POINT('',(-0.996203868,43.071249907,3.68181816));
#832=CARTESIAN_POINT('',(-0.,42.928017414,3.749999978));
#833=CARTESIAN_POINT('',(0.996203868,43.071249907,3.818181796));
#834=CARTESIAN_POINT('',(1.992407736,43.214482399,3.886363614));
#835=CARTESIAN_POINT('',(2.907905091,43.632576033,3.954545432));
#836=CARTESIAN_POINT('',(3.211682693,43.771306615,3.977169319));
#837=CARTESIAN_POINT('',(3.500873521,43.938326585,4.000000121));
#838=(BOUNDED_CURVE()
B_SPLINE_CURVE(2,(#791,#792,#793,#794,#795,#796,#797,#798,#799,#800,#801,#802,#803,#804,#805,#806,#807,#808,#809,#810,#811,#812,#813,#814,#815,#816,
#817,#818,#819,#820,#821,#822,#823,#824,#825,#826,#827,#828,#829,#830,#831,#832,#833,#834,#835,#836,#837),.UNSPECIFIED.,.F.,.F.)
B_SPLINE_CURVE_WITH_KNOTS((3,2,2,2,2,2,2,2,2,2,2,2,2,2,2,2,2,2,2,2,2,2,2,3),(0.043861457,0.045454545,0.04784689,0.050239234,0.052631579,0.055023923,0.057416268,0.059808612,0.062200957,0.064593301,0.066985646,0.06937799,0.071770335,0.074162679,0.076555024,0.078947368,0.081339713,0.083732057,0.086124402,0.088516746,0.090909091,0.093301435,0.09569378,0.096493036),.UNSPECIFIED.)
CURVE()
GEOMETRIC_REPRESENTATION_ITEM()
RATIONAL_B_SPLINE_CURVE((0.99547108,0.993221987,1.,0.989821442,1.,0.989821442,1.,0.989821442,1.,0.989821442,1.,0.989821442,1.,0.989821442,1.,0.989821442,1.,0.989821442,1.,0.989821442,1.,0.989821442,1.,0.989821442,1.,0.989821442,
1.,0.989821442,1.,0.989821442,1.,0.989821442,1.,0.989821442,1.,0.989821442,1.,0.989821442,1.,0.989821442,1.,0.989821442,1.,0.989821442,1.,0.996599454,0.995471079))
REPRESENTATION_ITEM(''));
#839=EDGE_CURVE('',#740,#286,#838,.T.);
#840=ORIENTED_EDGE('',*,*,#839,.T.);
#841=ORIENTED_EDGE('',*,*,#401,.T.);
#842=ORIENTED_EDGE('',*,*,#602,.F.);
#843=CARTESIAN_POINT('',(4.000998125,43.072373134,2.000000121));
#844=CARTESIAN_POINT('',(4.662002696,43.454131288,2.045661514));
#845=CARTESIAN_POINT('',(5.238885872,43.954003405,2.09090908));
#846=CARTESIAN_POINT('',(6.108168947,44.707241478,2.159090898));
#847=CARTESIAN_POINT('',(6.730028263,45.67487346,2.227272716));
#848=CARTESIAN_POINT('',(7.351887578,46.642505442,2.295454534));
#849=CARTESIAN_POINT('',(7.675943789,47.746139545,2.363636352));
#850=CARTESIAN_POINT('',(8.,48.849773648,2.43181817));
#851=CARTESIAN_POINT('',(8.,50.,2.499999988));
#852=CARTESIAN_POINT('',(8.,51.150226352,2.568181805));
#853=CARTESIAN_POINT('',(7.675943789,52.253860455,2.636363623));
#854=CARTESIAN_POINT('',(7.351887578,53.357494558,2.704545441));
#855=CARTESIAN_POINT('',(6.730028263,54.32512654,2.772727259));
#856=CARTESIAN_POINT('',(6.108168947,55.292758522,2.840909077));
#857=CARTESIAN_POINT('',(5.238885872,56.045996595,2.909090895));
#858=CARTESIAN_POINT('',(4.369602796,56.799234668,2.977272713));
#859=CARTESIAN_POINT('',(3.323320104,57.277055963,3.045454531));
#860=CARTESIAN_POINT('',(2.277037412,57.754877258,3.113636349));
#861=CARTESIAN_POINT('',(1.138518706,57.918571535,3.181818166));
#862=CARTESIAN_POINT('',(0.,58.082265812,3.249999984));
#863=CARTESIAN_POINT('',(-1.138518706,57.918571535,3.318181802));
#864=CARTESIAN_POINT('',(-2.277037412,57.754877258,3.38636362));
#865=CARTESIAN_POINT('',(-3.323320104,57.277055963,3.454545438));
#866=CARTESIAN_POINT('',(-4.369602796,56.799234668,3.522727256));
#867=CARTESIAN_POINT('',(-5.238885872,56.045996595,3.590909074));
#868=CARTESIAN_POINT('',(-6.108168947,55.292758522,3.659090892));
#869=CARTESIAN_POINT('',(-6.730028263,54.32512654,3.72727271));
#870=CARTESIAN_POINT('',(-7.351887578,53.357494558,3.795454528));
#871=CARTESIAN_POINT('',(-7.675943789,52.253860455,3.863636345));
#872=CARTESIAN_POINT('',(-8.,51.150226352,3.931818163));
#873=CARTESIAN_POINT('',(-8.,49.999999684,4.));
#874=(BOUNDED_CURVE()
B_SPLINE_CURVE(2,(#843,#844,#845,#846,#847,#848,#849,#850,#851,#852,#853,#854,#855,#856,#857,#858,#859,#860,#861,#862,#863,#864,#865,#866,#867,#868,
#869,#870,#871,#872,#873),.UNSPECIFIED.,.F.,.F.)
B_SPLINE_CURVE_WITH_KNOTS((3,2,2,2,2,2,2,2,2,2,2,2,2,2,2,3),(0.043861457,0.045454545,0.04784689,0.050239235,0.052631579,0.055023924,0.057416268,0.059808613,0.062200957,0.064593302,0.066985646,0.069377991,0.071770335,0.07416268,0.076555024,0.078947369),.UNSPECIFIED.)
CURVE()
GEOMETRIC_REPRESENTATION_ITEM()
RATIONAL_B_SPLINE_CURVE((0.99547108,0.993221987,1.,0.989821442,1.,0.989821442,1.,0.989821442,1.,0.989821442,1.,0.989821442,1.,0.989821442,1.,0.989821442,1.,0.989821442,1.,0.989821442,1.,0.989821442,1.,0.989821442,1.,0.989821442,
1.,0.989821442,1.,0.989821442,1.))
REPRESENTATION_ITEM(''));
#875=EDGE_CURVE('',#537,#563,#874,.T.);
#876=ORIENTED_EDGE('',*,*,#875,.F.);
#877=ORIENTED_EDGE('',*,*,#543,.F.);
#878=EDGE_LOOP('',(#790,#840,#841,#842,#876,#877));
#879=FACE_BOUND('',#878,.T.);
#880=ADVANCED_FACE('',(#879),#738,.T.);
#881=CARTESIAN_POINT('',(7.,50.00000076,1.000000052));
#882=CARTESIAN_POINT('',(6.999999891,51.00644843,1.068181844));
#883=CARTESIAN_POINT('',(6.716450815,51.972127898,1.136363636));
#884=CARTESIAN_POINT('',(6.432901631,52.937807738,1.204545454));
#885=CARTESIAN_POINT('',(5.88877473,53.784485722,1.272727272));
#886=CARTESIAN_POINT('',(5.344647829,54.631163707,1.340909089));
#887=CARTESIAN_POINT('',(4.584025138,55.29024702,1.409090907));
#888=CARTESIAN_POINT('',(3.823402446,55.949330334,1.477272725));
#889=CARTESIAN_POINT('',(2.907905091,56.367423967,1.545454543));
#890=CARTESIAN_POINT('',(1.992407736,56.785517601,1.613636361));
#891=CARTESIAN_POINT('',(0.996203868,56.928750093,1.681818179));
#892=CARTESIAN_POINT('',(0.,57.071982586,1.749999997));
#893=CARTESIAN_POINT('',(-0.996203868,56.928750093,1.818181815));
#894=CARTESIAN_POINT('',(-1.992407736,56.785517601,1.886363633));
#895=CARTESIAN_POINT('',(-2.907905091,56.367423967,1.954545451));
#896=CARTESIAN_POINT('',(-3.823402446,55.949330334,2.022727268));
#897=CARTESIAN_POINT('',(-4.584025138,55.29024702,2.090909086));
#898=CARTESIAN_POINT('',(-5.344647829,54.631163707,2.159090904));
#899=CARTESIAN_POINT('',(-5.88877473,53.784485722,2.227272722));
#900=CARTESIAN_POINT('',(-6.432901631,52.937807738,2.29545454));
#901=CARTESIAN_POINT('',(-6.716450815,51.972127898,2.363636358));
#902=CARTESIAN_POINT('',(-7.,51.006448058,2.431818176));
#903=CARTESIAN_POINT('',(-7.,50.,2.499999994));
#904=CARTESIAN_POINT('',(-7.,48.993551942,2.568181812));
#905=CARTESIAN_POINT('',(-6.716450815,48.027872102,2.63636363));
#906=CARTESIAN_POINT('',(-6.432901631,47.062192262,2.704545447));
#907=CARTESIAN_POINT('',(-5.88877473,46.215514278,2.772727265));
#908=CARTESIAN_POINT('',(-5.344647829,45.368836293,2.840909083));
#909=CARTESIAN_POINT('',(-4.584025138,44.70975298,2.909090901));
#910=CARTESIAN_POINT('',(-3.823402446,44.050669666,2.977272719));
#911=CARTESIAN_POINT('',(-2.907905091,43.632576033,3.045454537));
#912=CARTESIAN_POINT('',(-1.992407736,43.214482399,3.113636355));
#913=CARTESIAN_POINT('',(-0.996203868,43.071249907,3.181818173));
#914=CARTESIAN_POINT('',(-0.,42.928017414,3.249999991));
#915=CARTESIAN_POINT('',(0.996203868,43.071249907,3.318181809));
#916=CARTESIAN_POINT('',(1.992407736,43.214482399,3.386363626));
#917=CARTESIAN_POINT('',(2.907905091,43.632576033,3.454545444));
#918=CARTESIAN_POINT('',(3.823402446,44.050669666,3.522727262));
#919=CARTESIAN_POINT('',(4.584025138,44.70975298,3.59090908));
#920=CARTESIAN_POINT('',(5.344647829,45.368836293,3.659090898));
#921=CARTESIAN_POINT('',(5.88877473,46.215514278,3.727272716));
#922=CARTESIAN_POINT('',(6.432901631,47.062192262,3.795454534));
#923=CARTESIAN_POINT('',(6.716450815,48.027872102,3.863636352));
#924=CARTESIAN_POINT('',(7.,48.993551942,3.93181817));
#925=CARTESIAN_POINT('',(7.,50.,3.999999988));
#926=CARTESIAN_POINT('',(7.,51.006448058,4.068181805));
#927=CARTESIAN_POINT('',(6.716450815,51.972127898,4.136363623));
#928=CARTESIAN_POINT('',(6.432901631,52.937807738,4.204545441));
#929=CARTESIAN_POINT('',(5.88877473,53.784485722,4.272727259));
#930=CARTESIAN_POINT('',(5.344647829,54.631163707,4.340909077));
#931=CARTESIAN_POINT('',(4.584025138,55.29024702,4.409090895));
#932=CARTESIAN_POINT('',(3.823402446,55.949330334,4.477272713));
#933=CARTESIAN_POINT('',(2.907905091,56.367423967,4.545454531));
#934=CARTESIAN_POINT('',(1.992407736,56.785517601,4.613636349));
#935=CARTESIAN_POINT('',(0.996203868,56.928750093,4.681818166));
#936=CARTESIAN_POINT('',(0.,57.071982586,4.749999984));
#937=CARTESIAN_POINT('',(-0.996203868,56.928750093,4.818181802));
#938=CARTESIAN_POINT('',(-1.992407736,56.785517601,4.88636362));
#939=CARTESIAN_POINT('',(-2.907905091,56.367423967,4.954545438));
#940=CARTESIAN_POINT('',(-3.211681038,56.228694141,4.977169202));
#941=CARTESIAN_POINT('',(-3.500870378,56.06167523,4.999999879));
#942=CARTESIAN_POINT('',(8.,50.000000869,0.000000052));
#943=CARTESIAN_POINT('',(7.999999875,51.150226777,0.068181844));
#944=CARTESIAN_POINT('',(7.675943789,52.253860455,0.136363636));
#945=CARTESIAN_POINT('',(7.351887578,53.357494558,0.204545454));
#946=CARTESIAN_POINT('',(6.730028263,54.32512654,0.272727272));
#947=CARTESIAN_POINT('',(6.108168947,55.292758522,0.340909089));
#948=CARTESIAN_POINT('',(5.238885872,56.045996595,0.409090907));
#949=CARTESIAN_POINT('',(4.369602796,56.799234668,0.477272725));
#950=CARTESIAN_POINT('',(3.323320104,57.277055963,0.545454543));
#951=CARTESIAN_POINT('',(2.277037412,57.754877258,0.613636361));
#952=CARTESIAN_POINT('',(1.138518706,57.918571535,0.681818179));
#953=CARTESIAN_POINT('',(0.,58.082265812,0.749999997));
#954=CARTESIAN_POINT('',(-1.138518706,57.918571535,0.818181815));
#955=CARTESIAN_POINT('',(-2.277037412,57.754877258,0.886363633));
#956=CARTESIAN_POINT('',(-3.323320104,57.277055963,0.954545451));
#957=CARTESIAN_POINT('',(-4.369602796,56.799234668,1.022727268));
#958=CARTESIAN_POINT('',(-5.238885872,56.045996595,1.090909086));
#959=CARTESIAN_POINT('',(-6.108168947,55.292758522,1.159090904));
#960=CARTESIAN_POINT('',(-6.730028263,54.32512654,1.227272722));
#961=CARTESIAN_POINT('',(-7.351887578,53.357494558,1.29545454));
#962=CARTESIAN_POINT('',(-7.675943789,52.253860455,1.363636358));
#963=CARTESIAN_POINT('',(-8.,51.150226352,1.431818176));
#964=CARTESIAN_POINT('',(-8.,50.,1.499999994));
#965=CARTESIAN_POINT('',(-8.,48.849773648,1.568181812));
#966=CARTESIAN_POINT('',(-7.675943789,47.746139545,1.63636363));
#967=CARTESIAN_POINT('',(-7.351887578,46.642505442,1.704545447));
#968=CARTESIAN_POINT('',(-6.730028263,45.67487346,1.772727265));
#969=CARTESIAN_POINT('',(-6.108168947,44.707241478,1.840909083));
#970=CARTESIAN_POINT('',(-5.238885872,43.954003405,1.909090901));
#971=CARTESIAN_POINT('',(-4.369602796,43.200765332,1.977272719));
#972=CARTESIAN_POINT('',(-3.323320104,42.722944037,2.045454537));
#973=CARTESIAN_POINT('',(-2.277037412,42.245122742,2.113636355));
#974=CARTESIAN_POINT('',(-1.138518706,42.081428465,2.181818173));
#975=CARTESIAN_POINT('',(-0.,41.917734188,2.249999991));
#976=CARTESIAN_POINT('',(1.138518706,42.081428465,2.318181809));
#977=CARTESIAN_POINT('',(2.277037412,42.245122742,2.386363626));
#978=CARTESIAN_POINT('',(3.323320104,42.722944037,2.454545444));
#979=CARTESIAN_POINT('',(4.369602796,43.200765332,2.522727262));
#980=CARTESIAN_POINT('',(5.238885872,43.954003405,2.59090908));
#981=CARTESIAN_POINT('',(6.108168947,44.707241478,2.659090898));
#982=CARTESIAN_POINT('',(6.730028263,45.67487346,2.727272716));
#983=CARTESIAN_POINT('',(7.351887578,46.642505442,2.795454534));
#984=CARTESIAN_POINT('',(7.675943789,47.746139545,2.863636352));
#985=CARTESIAN_POINT('',(8.,48.849773648,2.93181817));
#986=CARTESIAN_POINT('',(8.,50.,2.999999988));
#987=CARTESIAN_POINT('',(8.,51.150226352,3.068181805));
#988=CARTESIAN_POINT('',(7.675943789,52.253860455,3.136363623));
#989=CARTESIAN_POINT('',(7.351887578,53.357494558,3.204545441));
#990=CARTESIAN_POINT('',(6.730028263,54.32512654,3.272727259));
#991=CARTESIAN_POINT('',(6.108168947,55.292758522,3.340909077));
#992=CARTESIAN_POINT('',(5.238885872,56.045996595,3.409090895));
#993=CARTESIAN_POINT('',(4.369602796,56.799234668,3.477272713));
#994=CARTESIAN_POINT('',(3.323320104,57.277055963,3.545454531));
#995=CARTESIAN_POINT('',(2.277037412,57.754877258,3.613636349));
#996=CARTESIAN_POINT('',(1.138518706,57.918571535,3.681818166));
#997=CARTESIAN_POINT('',(0.,58.082265812,3.749999984));
#998=CARTESIAN_POINT('',(-1.138518706,57.918571535,3.818181802));
#999=CARTESIAN_POINT('',(-2.277037412,57.754877258,3.88636362));
#1000=CARTESIAN_POINT('',(-3.323320104,57.277055963,3.954545438));
#1001=CARTESIAN_POINT('',(-3.670492615,57.118507589,3.977169202));
#1002=CARTESIAN_POINT('',(-4.000994718,56.927628834,3.999999879));
#1003=(BOUNDED_SURFACE()
B_SPLINE_SURFACE(1,2,((#881,#882,#883,#884,#885,#886,#887,#888,#889,#890,#891,#892,#893,#894,#895,#896,#897,#898,#899,#900,#901,#902,#903,#904,#905,#906,
#907,#908,#909,#910,#911,#912,#913,#914,#915,#916,#917,#918,#919,#920,#921,#922,#923,#924,#925,#926,#927,#928,#929,#930,#931,
#932,#933,#934,#935,#936,#937,#938,#939,#940,#941),(#942,#943,#944,#945,#946,#947,#948,#949,#950,#951,#952,#953,#954,#955,#956,#957,#958,#959,#960,#961,#962,#963,#964,#965,#966,#967,
#968,#969,#970,#971,#972,#973,#974,#975,#976,#977,#978,#979,#980,#981,#982,#983,#984,#985,#986,#987,#988,#989,#990,#991,#992,
#993,#994,#995,#996,#997,#998,#999,#1000,#1001,#1002)),.UNSPECIFIED.,.F.,.F.,.U.)
B_SPLINE_SURFACE_WITH_KNOTS((2,2),(3,2,2,2,2,2,2,2,2,2,2,2,2,2,2,2,2,2,2,2,2,2,2,2,2,2,
2,2,2,2,3),(0.,1.),(0.000000001,0.002392344,0.004784689,0.007177033,0.009569378,0.011961722,0.014354067,0.016746411,0.019138756,0.0215311,0.023923445,0.026315789,0.028708134,0.031100478,0.033492823,0.035885167,0.038277512,0.040669856,0.043062201,0.045454545,0.04784689,0.050239234,0.052631579,0.055023923,0.057416268,0.059808612,
0.062200957,0.064593301,0.066985646,0.06937799,0.070177243),.UNSPECIFIED.)
GEOMETRIC_REPRESENTATION_ITEM()
RATIONAL_B_SPLINE_SURFACE(((0.999999992,0.989821446,1.,0.989821442,1.,0.989821442,1.,0.989821442,1.,0.989821442,1.,0.989821442,1.,0.989821442,1.,0.989821442,1.,0.989821442,1.,0.989821442,1.,0.989821442,1.,0.989821442,1.,0.989821442,
1.,0.989821442,1.,0.989821442,1.,0.989821442,1.,0.989821442,1.,0.989821442,1.,0.989821442,1.,0.989821442,1.,0.989821442,1.,0.989821442,1.,0.989821442,1.,0.989821442,1.,0.989821442,1.,
0.989821442,1.,0.989821442,1.,0.989821442,1.,0.989821442,1.,0.996599472,0.995471091),(0.999999992,0.989821446,1.,0.989821442,1.,0.989821442,1.,0.989821442,1.,0.989821442,1.,0.989821442,1.,0.989821442,1.,0.989821442,1.,0.989821442,1.,0.989821442,1.,0.989821442,1.,0.989821442,1.,0.989821442,
1.,0.989821442,1.,0.989821442,1.,0.989821442,1.,0.989821442,1.,0.989821442,1.,0.989821442,1.,0.989821442,1.,0.989821442,1.,0.989821442,1.,0.989821442,1.,0.989821442,1.,0.989821442,1.,
0.989821442,1.,0.989821442,1.,0.989821442,1.,0.989821442,1.,0.996599472,0.995471091)))
REPRESENTATION_ITEM('')
SURFACE()
);
#1004=CARTESIAN_POINT('',(-4.000997854,43.072372977,1.999999879));
#1005=CARTESIAN_POINT('',(-3.670494266,42.881493164,2.022830665));
#1006=CARTESIAN_POINT('',(-3.323320104,42.722944037,2.045454537));
#1007=CARTESIAN_POINT('',(-2.277037412,42.245122742,2.113636355));
#1008=CARTESIAN_POINT('',(-1.138518706,42.081428465,2.181818173));
#1009=CARTESIAN_POINT('',(-0.,41.917734188,2.249999991));
#1010=CARTESIAN_POINT('',(1.138518706,42.081428465,2.318181809));
#1011=CARTESIAN_POINT('',(2.277037412,42.245122742,2.386363626));
#1012=CARTESIAN_POINT('',(3.323320104,42.722944037,2.454545444));
#1013=CARTESIAN_POINT('',(4.369602796,43.200765332,2.522727262));
#1014=CARTESIAN_POINT('',(5.238885872,43.954003405,2.59090908));
#1015=CARTESIAN_POINT('',(6.108168947,44.707241478,2.659090898));
#1016=CARTESIAN_POINT('',(6.730028263,45.67487346,2.727272716));
#1017=CARTESIAN_POINT('',(7.351887578,46.642505442,2.795454534));
#1018=CARTESIAN_POINT('',(7.675943789,47.746139545,2.863636352));
#1019=CARTESIAN_POINT('',(8.,48.849773648,2.93181817));
#1020=CARTESIAN_POINT('',(8.,50.,2.999999988));
#1021=CARTESIAN_POINT('',(8.,51.150226352,3.068181805));
#1022=CARTESIAN_POINT('',(7.675943789,52.253860455,3.136363623));
#1023=CARTESIAN_POINT('',(7.351887578,53.357494558,3.204545441));
#1024=CARTESIAN_POINT('',(6.730028263,54.32512654,3.272727259));
#1025=CARTESIAN_POINT('',(6.108168947,55.292758522,3.340909077));
#1026=CARTESIAN_POINT('',(5.238885872,56.045996595,3.409090895));
#1027=CARTESIAN_POINT('',(4.369602796,56.799234668,3.477272713));
#1028=CARTESIAN_POINT('',(3.323320104,57.277055963,3.545454531));
#1029=CARTESIAN_POINT('',(2.277037412,57.754877258,3.613636349));
#1030=CARTESIAN_POINT('',(1.138518706,57.918571535,3.681818166));
#1031=CARTESIAN_POINT('',(0.,58.082265812,3.749999984));
#1032=CARTESIAN_POINT('',(-1.138518706,57.918571535,3.818181802));
#1033=CARTESIAN_POINT('',(-2.277037412,57.754877258,3.88636362));
#1034=CARTESIAN_POINT('',(-3.323320104,57.277055963,3.954545438));
#1035=CARTESIAN_POINT('',(-3.670494456,57.118506749,3.977169322));
#1036=CARTESIAN_POINT('',(-4.000998216,56.927626814,4.000000121));
#1037=(BOUNDED_CURVE()
B_SPLINE_CURVE(2,(#1004,#1005,#1006,#1007,#1008,#1009,#1010,#1011,#1012,#1013,#1014,#1015,#1016,#1017,#1018,#1019,#1020,#1021,#1022,#1023,#1024,#1025,#1026,#1027,#1028,#1029,
#1030,#1031,#1032,#1033,#1034,#1035,#1036),.UNSPECIFIED.,.F.,.F.)
B_SPLINE_CURVE_WITH_KNOTS((3,2,2,2,2,2,2,2,2,2,2,2,2,2,2,2,3),(0.035085912,0.035885167,0.038277512,0.040669856,0.043062201,0.045454545,0.04784689,0.050239234,0.052631579,0.055023923,0.057416268,0.059808612,0.062200957,0.064593301,0.066985646,0.06937799,0.070177247),.UNSPECIFIED.)
CURVE()
GEOMETRIC_REPRESENTATION_ITEM()
RATIONAL_B_SPLINE_CURVE((0.99547108,0.996599456,1.,0.989821442,1.,0.989821442,1.,0.989821442,1.,0.989821442,1.,0.989821442,1.,0.989821442,1.,0.989821442,1.,0.989821442,1.,0.989821442,1.,0.989821442,1.,0.989821442,1.,0.989821442,
1.,0.989821442,1.,0.989821442,1.,0.996599454,0.995471079))
REPRESENTATION_ITEM(''));
#1038=EDGE_CURVE('',#412,#561,#1037,.T.);
#1039=ORIENTED_EDGE('',*,*,#1038,.T.);
#1040=ORIENTED_EDGE('',*,*,#639,.T.);
#1041=ORIENTED_EDGE('',*,*,#346,.T.);
#1042=CARTESIAN_POINT('',(7.,50.,1.));
#1043=CARTESIAN_POINT('',(7.,51.006448058,1.068181818));
#1044=CARTESIAN_POINT('',(6.716450815,51.972127898,1.136363636));
#1045=CARTESIAN_POINT('',(6.432901631,52.937807738,1.204545454));
#1046=CARTESIAN_POINT('',(5.88877473,53.784485722,1.272727272));
#1047=CARTESIAN_POINT('',(5.344647829,54.631163707,1.340909089));
#1048=CARTESIAN_POINT('',(4.584025138,55.29024702,1.409090907));
#1049=CARTESIAN_POINT('',(3.823402446,55.949330334,1.477272725));
#1050=CARTESIAN_POINT('',(2.907905091,56.367423967,1.545454543));
#1051=CARTESIAN_POINT('',(1.992407736,56.785517601,1.613636361));
#1052=CARTESIAN_POINT('',(0.996203868,56.928750093,1.681818179));
#1053=CARTESIAN_POINT('',(0.,57.071982586,1.749999997));
#1054=CARTESIAN_POINT('',(-0.996203868,56.928750093,1.818181815));
#1055=CARTESIAN_POINT('',(-1.992407736,56.785517601,1.886363633));
#1056=CARTESIAN_POINT('',(-2.907905091,56.367423967,1.954545451));
#1057=CARTESIAN_POINT('',(-3.823402446,55.949330334,2.022727268));
#1058=CARTESIAN_POINT('',(-4.584025138,55.29024702,2.090909086));
#1059=CARTESIAN_POINT('',(-5.344647829,54.631163707,2.159090904));
#1060=CARTESIAN_POINT('',(-5.88877473,53.784485722,2.227272722));
#1061=CARTESIAN_POINT('',(-6.432901631,52.937807738,2.29545454));
#1062=CARTESIAN_POINT('',(-6.716450815,51.972127898,2.363636358));
#1063=CARTESIAN_POINT('',(-7.,51.006448058,2.431818176));
#1064=CARTESIAN_POINT('',(-7.,50.,2.499999994));
#1065=CARTESIAN_POINT('',(-7.,48.993551942,2.568181812));
#1066=CARTESIAN_POINT('',(-6.716450815,48.027872102,2.63636363));
#1067=CARTESIAN_POINT('',(-6.432901631,47.062192262,2.704545447));
#1068=CARTESIAN_POINT('',(-5.88877473,46.215514278,2.772727265));
#1069=CARTESIAN_POINT('',(-5.344647829,45.368836293,2.840909083));
#1070=CARTESIAN_POINT('',(-4.584025138,44.70975298,2.909090901));
#1071=CARTESIAN_POINT('',(-3.823402446,44.050669666,2.977272719));
#1072=CARTESIAN_POINT('',(-2.907905091,43.632576033,3.045454537));
#1073=CARTESIAN_POINT('',(-1.992407736,43.214482399,3.113636355));
#1074=CARTESIAN_POINT('',(-0.996203868,43.071249907,3.181818173));
#1075=CARTESIAN_POINT('',(-0.,42.928017414,3.249999991));
#1076=CARTESIAN_POINT('',(0.996203868,43.071249907,3.318181809));
#1077=CARTESIAN_POINT('',(1.992407736,43.214482399,3.386363626));
#1078=CARTESIAN_POINT('',(2.907905091,43.632576033,3.454545444));
#1079=CARTESIAN_POINT('',(3.823402446,44.050669666,3.522727262));
#1080=CARTESIAN_POINT('',(4.584025138,44.70975298,3.59090908));
#1081=CARTESIAN_POINT('',(5.344647829,45.368836293,3.659090898));
#1082=CARTESIAN_POINT('',(5.88877473,46.215514278,3.727272716));
#1083=CARTESIAN_POINT('',(6.432901631,47.062192262,3.795454534));
#1084=CARTESIAN_POINT('',(6.716450815,48.027872102,3.863636352));
#1085=CARTESIAN_POINT('',(7.,48.993551942,3.93181817));
#1086=CARTESIAN_POINT('',(7.,50.000000184,4.));
#1087=(BOUNDED_CURVE()
B_SPLINE_CURVE(2,(#1042,#1043,#1044,#1045,#1046,#1047,#1048,#1049,#1050,#1051,#1052,#1053,#1054,#1055,#1056,#1057,#1058,#1059,#1060,#1061,#1062,#1063,#1064,#1065,#1066,#1067,
#1068,#1069,#1070,#1071,#1072,#1073,#1074,#1075,#1076,#1077,#1078,#1079,#1080,#1081,#1082,#1083,#1084,#1085,#1086),.UNSPECIFIED.,.F.,.F.)
B_SPLINE_CURVE_WITH_KNOTS((3,2,2,2,2,2,2,2,2,2,2,2,2,2,2,2,2,2,2,2,2,2,3),(0.,0.002392345,0.004784689,0.007177034,0.009569378,0.011961723,0.014354067,0.016746412,0.019138756,0.021531101,0.023923445,0.02631579,0.028708134,0.031100479,0.033492823,0.035885168,0.038277512,0.040669857,0.043062201,0.045454546,0.04784689,0.050239235,0.052631579),.UNSPECIFIED.)
CURVE()
GEOMETRIC_REPRESENTATION_ITEM()
RATIONAL_B_SPLINE_CURVE((1.,0.989821442,1.,0.989821442,1.,0.989821442,1.,0.989821442,1.,0.989821442,1.,0.989821442,1.,0.989821442,1.,0.989821442,1.,0.989821442,1.,0.989821442,1.,0.989821442,1.,0.989821442,1.,0.989821442,
1.,0.989821442,1.,0.989821442,1.,0.989821442,1.,0.989821442,1.,0.989821442,1.,0.989821442,1.,0.989821442,1.,0.989821442,1.,0.989821442,1.))
REPRESENTATION_ITEM(''));
#1088=EDGE_CURVE('',#414,#284,#1087,.T.);
#1089=ORIENTED_EDGE('',*,*,#1088,.F.);
#1090=ORIENTED_EDGE('',*,*,#525,.F.);
#1091=EDGE_LOOP('',(#1039,#1040,#1041,#1089,#1090));
#1092=FACE_BOUND('',#1091,.T.);
#1093=ADVANCED_FACE('',(#1092),#1003,.T.);
#1094=CARTESIAN_POINT('',(0.,50.,0.));
#1095=DIRECTION('',(0.,0.,1.));
#1096=DIRECTION('',(1.,0.,-0.));
#1097=AXIS2_PLACEMENT_3D('',#1094,#1095,#1096);
#1098=CYLINDRICAL_SURFACE('',#1097,7.);
#1099=CARTESIAN_POINT('',(7.,50.,4.));
#1100=DIRECTION('',(-0.,-0.,-1.));
#1101=VECTOR('',#1100,2.500000012);
#1102=LINE('',#1099,#1101);
#1103=EDGE_CURVE('',#284,#740,#1102,.T.);
#1104=ORIENTED_EDGE('',*,*,#1103,.F.);
#1105=ORIENTED_EDGE('',*,*,#292,.T.);
#1106=ORIENTED_EDGE('',*,*,#839,.F.);
#1107=EDGE_LOOP('',(#1104,#1105,#1106));
#1108=FACE_BOUND('',#1107,.T.);
#1109=ADVANCED_FACE('',(#1108),#1098,.F.);
#1110=CARTESIAN_POINT('',(0.,50.,0.));
#1111=DIRECTION('',(0.,0.,1.));
#1112=DIRECTION('',(1.,0.,-0.));
#1113=AXIS2_PLACEMENT_3D('',#1110,#1111,#1112);
#1114=CYLINDRICAL_SURFACE('',#1113,8.);
#1115=ORIENTED_EDGE('',*,*,#568,.F.);
#1116=ORIENTED_EDGE('',*,*,#1038,.F.);
#1117=ORIENTED_EDGE('',*,*,#550,.T.);
#1118=ORIENTED_EDGE('',*,*,#875,.T.);
#1119=EDGE_LOOP('',(#1115,#1116,#1117,#1118));
#1120=FACE_BOUND('',#1119,.T.);
#1121=ADVANCED_FACE('',(#1120),#1114,.T.);
#1122=CARTESIAN_POINT('',(0.,50.,0.));
#1123=DIRECTION('',(0.,0.,1.));
#1124=DIRECTION('',(1.,0.,-0.));
#1125=AXIS2_PLACEMENT_3D('',#1122,#1123,#1124);
#1126=CYLINDRICAL_SURFACE('',#1125,7.);
#1127=ORIENTED_EDGE('',*,*,#1103,.T.);
#1128=ORIENTED_EDGE('',*,*,#789,.F.);
#1129=ORIENTED_EDGE('',*,*,#534,.F.);
#1130=ORIENTED_EDGE('',*,*,#1088,.T.);
#1131=EDGE_LOOP('',(#1127,#1128,#1129,#1130));
#1132=FACE_BOUND('',#1131,.T.);
#1133=ADVANCED_FACE('',(#1132),#1126,.F.);
#1134=CLOSED_SHELL('',(#405,#554,#643,#880,#1093,#1109,#1121,#1133));
#1135=MANIFOLD_SOLID_BREP('Body 02 (1)*',#1134);
#277=STYLED_ITEM('',(#154),#1135);
#1137=CARTESIAN_POINT('',(0.,50.,0.));
#1138=DIRECTION('',(0.,0.,1.));
#1139=DIRECTION('',(1.,0.,-0.));
#1140=AXIS2_PLACEMENT_3D('',#1137,#1138,#1139);
#1141=CONICAL_SURFACE('',#1140,6.,45.);
#1142=CARTESIAN_POINT('',(7.,50.,1.));
#1143=VERTEX_POINT('',#1142);
#1144=CARTESIAN_POINT('',(6.6,50.,0.6));
#1145=VERTEX_POINT('',#1144);
#1146=CARTESIAN_POINT('',(7.,50.,1.));
#1147=DIRECTION('',(-0.707106781,-0.,-0.707106781));
#1148=VECTOR('',#1147,0.565685425);
#1149=LINE('',#1146,#1148);
#1150=EDGE_CURVE('',#1143,#1145,#1149,.T.);
#1151=ORIENTED_EDGE('',*,*,#1150,.T.);
#1152=CARTESIAN_POINT('',(-6.6,50.,0.6));
#1153=VERTEX_POINT('',#1152);
#1154=CARTESIAN_POINT('',(0.,50.,0.6));
#1155=DIRECTION('',(0.,0.,-1.));
#1156=DIRECTION('',(-1.,0.,0.));
#1157=AXIS2_PLACEMENT_3D('',#1154,#1155,#1156);
#1158=CIRCLE('',#1157,6.6);
#1159=EDGE_CURVE('',#1153,#1145,#1158,.T.);
#1160=ORIENTED_EDGE('',*,*,#1159,.F.);
#1161=CARTESIAN_POINT('',(0.,50.,0.6));
#1162=DIRECTION('',(0.,0.,-1.));
#1163=DIRECTION('',(-1.,0.,0.));
#1164=AXIS2_PLACEMENT_3D('',#1161,#1162,#1163);
#1165=CIRCLE('',#1164,6.6);
#1166=EDGE_CURVE('',#1145,#1153,#1165,.T.);
#1167=ORIENTED_EDGE('',*,*,#1166,.F.);
#1168=ORIENTED_EDGE('',*,*,#1150,.F.);
#1169=CARTESIAN_POINT('',(-7.,50.,1.));
#1170=VERTEX_POINT('',#1169);
#1171=CARTESIAN_POINT('',(0.,50.,1.));
#1172=DIRECTION('',(0.,0.,1.));
#1173=DIRECTION('',(1.,0.,-0.));
#1174=AXIS2_PLACEMENT_3D('',#1171,#1172,#1173);
#1175=CIRCLE('',#1174,7.);
#1176=EDGE_CURVE('',#1170,#1143,#1175,.T.);
#1177=ORIENTED_EDGE('',*,*,#1176,.F.);
#1178=CARTESIAN_POINT('',(0.,50.,1.));
#1179=DIRECTION('',(0.,0.,1.));
#1180=DIRECTION('',(1.,0.,-0.));
#1181=AXIS2_PLACEMENT_3D('',#1178,#1179,#1180);
#1182=CIRCLE('',#1181,7.);
#1183=EDGE_CURVE('',#1143,#1170,#1182,.T.);
#1184=ORIENTED_EDGE('',*,*,#1183,.F.);
#1185=EDGE_LOOP('',(#1151,#1160,#1167,#1168,#1177,#1184));
#1186=FACE_BOUND('',#1185,.T.);
#1187=ADVANCED_FACE('',(#1186),#1141,.T.);
#1188=CARTESIAN_POINT('',(0.,50.,50.));
#1189=DIRECTION('',(0.,0.,-1.));
#1190=DIRECTION('',(-1.,0.,0.));
#1191=AXIS2_PLACEMENT_3D('',#1188,#1189,#1190);
#1192=CYLINDRICAL_SURFACE('',#1191,7.);
#1193=CARTESIAN_POINT('',(-7.,50.,4.));
#1194=VERTEX_POINT('',#1193);
#1195=CARTESIAN_POINT('',(-7.,50.,1.));
#1196=DIRECTION('',(-0.,-0.,1.));
#1197=VECTOR('',#1196,3.);
#1198=LINE('',#1195,#1197);
#1199=EDGE_CURVE('',#1170,#1194,#1198,.T.);
#1200=ORIENTED_EDGE('',*,*,#1199,.T.);
#1201=CARTESIAN_POINT('',(7.,50.,4.));
#1202=VERTEX_POINT('',#1201);
#1203=CARTESIAN_POINT('',(0.,50.,4.));
#1204=DIRECTION('',(0.,0.,1.));
#1205=DIRECTION('',(1.,0.,-0.));
#1206=AXIS2_PLACEMENT_3D('',#1203,#1204,#1205);
#1207=CIRCLE('',#1206,7.);
#1208=EDGE_CURVE('',#1202,#1194,#1207,.T.);
#1209=ORIENTED_EDGE('',*,*,#1208,.F.);
#1210=CARTESIAN_POINT('',(0.,50.,4.));
#1211=DIRECTION('',(0.,0.,1.));
#1212=DIRECTION('',(1.,0.,-0.));
#1213=AXIS2_PLACEMENT_3D('',#1210,#1211,#1212);
#1214=CIRCLE('',#1213,7.);
#1215=EDGE_CURVE('',#1194,#1202,#1214,.T.);
#1216=ORIENTED_EDGE('',*,*,#1215,.F.);
#1217=ORIENTED_EDGE('',*,*,#1199,.F.);
#1218=ORIENTED_EDGE('',*,*,#1176,.T.);
#1219=ORIENTED_EDGE('',*,*,#1183,.T.);
#1220=EDGE_LOOP('',(#1200,#1209,#1216,#1217,#1218,#1219));
#1221=FACE_BOUND('',#1220,.T.);
#1222=ADVANCED_FACE('',(#1221),#1192,.T.);
#1223=CARTESIAN_POINT('',(20.,50.,4.));
#1224=DIRECTION('',(0.,0.,1.));
#1225=DIRECTION('',(1.,0.,0.));
#1226=AXIS2_PLACEMENT_3D('',#1223,#1224,#1225);
#1227=PLANE('',#1226);
#1228=ORIENTED_EDGE('',*,*,#1208,.T.);
#1229=ORIENTED_EDGE('',*,*,#1215,.T.);
#1230=EDGE_LOOP('',(#1228,#1229));
#1231=FACE_BOUND('',#1230,.T.);
#1232=ADVANCED_FACE('',(#1231),#1227,.T.);
#1233=CARTESIAN_POINT('',(20.,50.,0.6));
#1234=DIRECTION('',(0.,0.,-1.));
#1235=DIRECTION('',(-1.,0.,0.));
#1236=AXIS2_PLACEMENT_3D('',#1233,#1234,#1235);
#1237=PLANE('',#1236);
#1238=ORIENTED_EDGE('',*,*,#1159,.T.);
#1239=ORIENTED_EDGE('',*,*,#1166,.T.);
#1240=EDGE_LOOP('',(#1238,#1239));
#1241=FACE_BOUND('',#1240,.T.);
#1242=ADVANCED_FACE('',(#1241),#1237,.T.);
#1243=CLOSED_SHELL('',(#1187,#1222,#1232,#1242));
#1244=MANIFOLD_SOLID_BREP('Body 01 (1)**',#1243);
#1136=STYLED_ITEM('',(#154),#1244);
#16=SHAPE_REPRESENTATION('openGrid Multiconnect Thread Modeling Lite Mount Positive',(#15),#10);
#17=ADVANCED_BREP_SHAPE_REPRESENTATION('openGrid Multiconnect Thread Modeling Lite Mount Positive',(#147,#276,#1135,#1244),#10);
#1252=SHAPE_REPRESENTATION_RELATIONSHIP('','',#16,#17);
#1253=CARTESIAN_POINT('',(0.,0.,0.));
#1254=DIRECTION('',(0.,0.,1.));
#1255=DIRECTION('',(1.,0.,0.));
#1256=AXIS2_PLACEMENT_3D('',#1253,#1254,#1255);
#1258=MAPPED_ITEM('',#1257,#1256);
#1257=REPRESENTATION_MAP(#1256,#16);
#1259=APPLICATION_CONTEXT('Managed model based 3d engineering');
#1260=APPLICATION_PROTOCOL_DEFINITION('international standard','ap242_managed_model_based_3d_engineering',2014,#1259);
#1261=PRODUCT_CONTEXT('',#1259,'mechanical');
#1262=PRODUCT_DEFINITION_CONTEXT('part definition',#1259,'design');
#24=PRODUCT('openGrid Multiconnect Thread Modeling Lite Mount Positive','openGrid Multiconnect Thread Modeling Lite Mount Positive','',(#1261));
#1263=PRODUCT_RELATED_PRODUCT_CATEGORY('part','',(#24));
#1264=PRODUCT_DEFINITION_FORMATION_WITH_SPECIFIED_SOURCE('','',#24,.NOT_KNOWN.);
#25=PRODUCT_DEFINITION('design','',#1264,#1262);
#23=PRODUCT_DEFINITION_SHAPE('','',#25);
#1265=SHAPE_DEFINITION_REPRESENTATION(#23,#16);
#11=DRAUGHTING_MODEL('',(#1258),#10);
#1266=DESCRIPTIVE_REPRESENTATION_ITEM('KEY','/Users/ddanier/Library/Containers/com.shapr3d.shapr/Data/tmp/3979E4C6-3005-4274-AF3F-7AAF472309E0.tmp');
#1267=PROPERTY_DEFINITION('KEY','',#25);
#1268=REPRESENTATION('',(#1266),#10);
#1269=PROPERTY_DEFINITION_REPRESENTATION(#1267,#1268);
#1270=GENERAL_PROPERTY('','KEY','');
#1271=GENERAL_PROPERTY_ASSOCIATION('','',#1270,#1267);
#1=MECHANICAL_DESIGN_GEOMETRIC_PRESENTATION_REPRESENTATION('',(#26,#155,#277,#1136),#10);
ENDSEC;
END-ISO-10303-21;
