ISO-10303-21;
HEADER;

/* File generated by Shapr3D Version 5.911.0.9224 */

FILE_DESCRIPTION(('HOOPS Exchange Step'),'2;1');

FILE_NAME('/Users/ddanier/Library/Containers/com.shapr3d.shapr/Data/tmp/export/temp_export',
'2025-08-07T20:12:18+02:00',
('ddanier'),
('Shapr3D Limited'),
'HOOPS Exchange 2024.8',
'Shapr3D',
'Authorized');

FILE_SCHEMA( ('AP242_MANAGED_MODEL_BASED_3D_ENGINEERING_MIM_LF {1 0 10303 442 1 1 4}') );

ENDSEC;

DATA;
#3=(NAMED_UNIT(*)PLANE_ANGLE_UNIT()SI_UNIT($,.RADIAN.));
#4=PLANE_ANGLE_MEASURE_WITH_UNIT(PLANE_ANGLE_MEASURE(0.0174532925),#3);
#5=(CONVERSION_BASED_UNIT('DEGREE',#4)NAMED_UNIT(#6)PLANE_ANGLE_UNIT());
#6=DIMENSIONAL_EXPONENTS(0.,0.,0.,0.,0.,0.,0.);
#7=(NAMED_UNIT(*)SI_UNIT($,.STERADIAN.)SOLID_ANGLE_UNIT());
#8=(LENGTH_UNIT()NAMED_UNIT(*)SI_UNIT(.MILLI.,.METRE.));
#9=UNCERTAINTY_MEASURE_WITH_UNIT(LENGTH_MEASURE(1.000000E-05),#8,'DISTANCE_ACCURACY_VALUE','Maximum Tolerance applied to model');
#10=(GEOMETRIC_REPRESENTATION_CONTEXT(3)GLOBAL_UNCERTAINTY_ASSIGNED_CONTEXT((#9))GLOBAL_UNIT_ASSIGNED_CONTEXT((#8,#5,#7))REPRESENTATION_CONTEXT('','openGrid Multiconnect Thread Modeling Lite Mount Negative'));
#12=CARTESIAN_POINT('',(0.,0.,0.));
#13=DIRECTION('',(0.,0.,1.));
#14=DIRECTION('',(1.,0.,0.));
#15=AXIS2_PLACEMENT_3D('TS3D_PRODUCT_CSYS',#12,#13,#14);
#27=CARTESIAN_POINT('',(0.,50.,4.4));
#28=DIRECTION('',(0.,0.,1.));
#29=DIRECTION('',(1.,0.,0.));
#30=AXIS2_PLACEMENT_3D('',#27,#28,#29);
#31=PLANE('',#30);
#32=CARTESIAN_POINT('',(18.450806662,50.4,4.4));
#33=VERTEX_POINT('',#32);
#34=CARTESIAN_POINT('',(19.6,50.4,4.4));
#35=VERTEX_POINT('',#34);
#36=CARTESIAN_POINT('',(18.450806662,50.4,4.4));
#37=DIRECTION('',(1.,0.,0.));
#38=VECTOR('',#37,1.149193338);
#39=LINE('',#36,#38);
#40=EDGE_CURVE('',#33,#35,#39,.T.);
#41=ORIENTED_EDGE('',*,*,#40,.T.);
#42=CARTESIAN_POINT('',(19.6,51.549193338,4.4));
#43=VERTEX_POINT('',#42);
#44=CARTESIAN_POINT('',(19.6,50.4,4.4));
#45=DIRECTION('',(0.,1.,0.));
#46=VECTOR('',#45,1.149193338);
#47=LINE('',#44,#46);
#48=EDGE_CURVE('',#35,#43,#47,.T.);
#49=ORIENTED_EDGE('',*,*,#48,.T.);
#50=CARTESIAN_POINT('',(20.,50.,4.4));
#51=DIRECTION('',(0.,0.,1.));
#52=DIRECTION('',(1.,0.,-0.));
#53=AXIS2_PLACEMENT_3D('',#50,#51,#52);
#54=CIRCLE('',#53,1.6);
#55=EDGE_CURVE('',#43,#33,#54,.T.);
#56=ORIENTED_EDGE('',*,*,#55,.T.);
#57=EDGE_LOOP('',(#41,#49,#56));
#58=FACE_BOUND('',#57,.T.);
#59=ADVANCED_FACE('',(#58),#31,.T.);
#60=CARTESIAN_POINT('',(0.,50.,4.));
#61=DIRECTION('',(0.,0.,1.));
#62=DIRECTION('',(1.,0.,0.));
#63=AXIS2_PLACEMENT_3D('',#60,#61,#62);
#64=PLANE('',#63);
#65=CARTESIAN_POINT('',(20.,50.,4.));
#66=VERTEX_POINT('',#65);
#67=CARTESIAN_POINT('',(18.,50.,4.));
#68=VERTEX_POINT('',#67);
#69=CARTESIAN_POINT('',(20.,50.,4.));
#70=DIRECTION('',(-1.,-0.,0.));
#71=VECTOR('',#70,2.);
#72=LINE('',#69,#71);
#73=EDGE_CURVE('',#66,#68,#72,.T.);
#74=ORIENTED_EDGE('',*,*,#73,.T.);
#75=CARTESIAN_POINT('',(20.,52.,4.));
#76=VERTEX_POINT('',#75);
#77=CARTESIAN_POINT('',(20.,50.,4.));
#78=DIRECTION('',(0.,0.,1.));
#79=DIRECTION('',(1.,0.,-0.));
#80=AXIS2_PLACEMENT_3D('',#77,#78,#79);
#81=CIRCLE('',#80,2.);
#82=EDGE_CURVE('',#76,#68,#81,.T.);
#83=ORIENTED_EDGE('',*,*,#82,.F.);
#84=CARTESIAN_POINT('',(20.,50.,4.));
#85=DIRECTION('',(0.,1.,0.));
#86=VECTOR('',#85,2.);
#87=LINE('',#84,#86);
#88=EDGE_CURVE('',#66,#76,#87,.T.);
#89=ORIENTED_EDGE('',*,*,#88,.F.);
#90=EDGE_LOOP('',(#74,#83,#89));
#91=FACE_BOUND('',#90,.T.);
#92=ADVANCED_FACE('',(#91),#64,.F.);
#93=CARTESIAN_POINT('',(19.,50.,4.));
#94=DIRECTION('',(-0.,0.707106781,-0.707106781));
#95=DIRECTION('',(-1.,-0.,0.));
#96=AXIS2_PLACEMENT_3D('',#93,#94,#95);
#97=PLANE('',#96);
#98=CARTESIAN_POINT('',(19.6,50.4,4.4));
#99=DIRECTION('',(0.577350269,-0.577350269,-0.577350269));
#100=VECTOR('',#99,0.692820323);
#101=LINE('',#98,#100);
#102=EDGE_CURVE('',#35,#66,#101,.T.);
#103=ORIENTED_EDGE('',*,*,#102,.F.);
#104=ORIENTED_EDGE('',*,*,#40,.F.);
#105=CARTESIAN_POINT('',(18.,50.,4.));
#106=CARTESIAN_POINT('',(18.139437123,50.139437123,4.139437123));
#107=CARTESIAN_POINT('',(18.287881403,50.273798637,4.273798637));
#108=CARTESIAN_POINT('',(18.450806662,50.4,4.4));
#109=B_SPLINE_CURVE_WITH_KNOTS('',3,(#105,#106,#107,#108),.UNSPECIFIED.,.F.,.F.,(4,4),(0.,0.000723344),.UNSPECIFIED.);
#110=EDGE_CURVE('',#68,#33,#109,.T.);
#111=ORIENTED_EDGE('',*,*,#110,.F.);
#112=ORIENTED_EDGE('',*,*,#73,.F.);
#113=EDGE_LOOP('',(#103,#104,#111,#112));
#114=FACE_BOUND('',#113,.T.);
#115=ADVANCED_FACE('',(#114),#97,.F.);
#116=CARTESIAN_POINT('',(20.,50.,4.4));
#117=DIRECTION('',(0.,0.,-1.));
#118=DIRECTION('',(-1.,0.,0.));
#119=AXIS2_PLACEMENT_3D('',#116,#117,#118);
#120=CONICAL_SURFACE('',#119,1.6,45.);
#121=ORIENTED_EDGE('',*,*,#110,.T.);
#122=ORIENTED_EDGE('',*,*,#55,.F.);
#123=CARTESIAN_POINT('',(20.,52.,4.));
#124=CARTESIAN_POINT('',(19.860562877,51.860562877,4.139437123));
#125=CARTESIAN_POINT('',(19.726201363,51.712118597,4.273798637));
#126=CARTESIAN_POINT('',(19.6,51.549193338,4.4));
#127=B_SPLINE_CURVE_WITH_KNOTS('',3,(#123,#124,#125,#126),.UNSPECIFIED.,.F.,.F.,(4,4),(0.,0.000723344),.UNSPECIFIED.);
#128=EDGE_CURVE('',#76,#43,#127,.T.);
#129=ORIENTED_EDGE('',*,*,#128,.F.);
#130=ORIENTED_EDGE('',*,*,#82,.T.);
#131=EDGE_LOOP('',(#121,#122,#129,#130));
#132=FACE_BOUND('',#131,.T.);
#133=ADVANCED_FACE('',(#132),#120,.T.);
#134=CARTESIAN_POINT('',(19.6,50.,4.4));
#135=DIRECTION('',(0.707106781,0.,0.707106781));
#136=DIRECTION('',(0.,-1.,0.));
#137=AXIS2_PLACEMENT_3D('',#134,#135,#136);
#138=PLANE('',#137);
#139=ORIENTED_EDGE('',*,*,#102,.T.);
#140=ORIENTED_EDGE('',*,*,#88,.T.);
#141=ORIENTED_EDGE('',*,*,#128,.T.);
#142=ORIENTED_EDGE('',*,*,#48,.F.);
#143=EDGE_LOOP('',(#139,#140,#141,#142));
#144=FACE_BOUND('',#143,.T.);
#145=ADVANCED_FACE('',(#144),#138,.T.);
#146=CLOSED_SHELL('',(#59,#92,#115,#133,#145));
#147=MANIFOLD_SOLID_BREP('Body 08 (1)',#146);
#148=COLOUR_RGB('',0.733333349,0.105882354,0.070588239);
#149=FILL_AREA_STYLE_COLOUR('',#148);
#150=FILL_AREA_STYLE('',(#149));
#151=SURFACE_STYLE_FILL_AREA(#150);
#152=SURFACE_SIDE_STYLE('',(#151));
#153=SURFACE_STYLE_USAGE(.BOTH.,#152);
#154=PRESENTATION_STYLE_ASSIGNMENT((#153));
#26=STYLED_ITEM('',(#154),#147);
#156=CARTESIAN_POINT('',(0.,50.,4.4));
#157=DIRECTION('',(0.,0.,1.));
#158=DIRECTION('',(1.,0.,0.));
#159=AXIS2_PLACEMENT_3D('',#156,#157,#158);
#160=PLANE('',#159);
#161=CARTESIAN_POINT('',(20.4,49.6,4.4));
#162=VERTEX_POINT('',#161);
#163=CARTESIAN_POINT('',(20.4,48.450806662,4.4));
#164=VERTEX_POINT('',#163);
#165=CARTESIAN_POINT('',(20.4,49.6,4.4));
#166=DIRECTION('',(0.,-1.,0.));
#167=VECTOR('',#166,1.149193338);
#168=LINE('',#165,#167);
#169=EDGE_CURVE('',#162,#164,#168,.T.);
#170=ORIENTED_EDGE('',*,*,#169,.T.);
#171=CARTESIAN_POINT('',(21.549193338,49.6,4.4));
#172=VERTEX_POINT('',#171);
#173=CARTESIAN_POINT('',(20.,50.,4.4));
#174=DIRECTION('',(0.,0.,1.));
#175=DIRECTION('',(1.,0.,-0.));
#176=AXIS2_PLACEMENT_3D('',#173,#174,#175);
#177=CIRCLE('',#176,1.6);
#178=EDGE_CURVE('',#164,#172,#177,.T.);
#179=ORIENTED_EDGE('',*,*,#178,.T.);
#180=CARTESIAN_POINT('',(21.549193338,49.6,4.4));
#181=DIRECTION('',(-1.,-0.,0.));
#182=VECTOR('',#181,1.149193338);
#183=LINE('',#180,#182);
#184=EDGE_CURVE('',#172,#162,#183,.T.);
#185=ORIENTED_EDGE('',*,*,#184,.T.);
#186=EDGE_LOOP('',(#170,#179,#185));
#187=FACE_BOUND('',#186,.T.);
#188=ADVANCED_FACE('',(#187),#160,.T.);
#189=CARTESIAN_POINT('',(0.,50.,4.));
#190=DIRECTION('',(0.,0.,1.));
#191=DIRECTION('',(1.,0.,0.));
#192=AXIS2_PLACEMENT_3D('',#189,#190,#191);
#193=PLANE('',#192);
#194=CARTESIAN_POINT('',(20.,48.,4.));
#195=VERTEX_POINT('',#194);
#196=CARTESIAN_POINT('',(20.,50.,4.));
#197=VERTEX_POINT('',#196);
#198=CARTESIAN_POINT('',(20.,48.,4.));
#199=DIRECTION('',(0.,1.,0.));
#200=VECTOR('',#199,2.);
#201=LINE('',#198,#200);
#202=EDGE_CURVE('',#195,#197,#201,.T.);
#203=ORIENTED_EDGE('',*,*,#202,.T.);
#204=CARTESIAN_POINT('',(22.,50.,4.));
#205=VERTEX_POINT('',#204);
#206=CARTESIAN_POINT('',(22.,50.,4.));
#207=DIRECTION('',(-1.,-0.,0.));
#208=VECTOR('',#207,2.);
#209=LINE('',#206,#208);
#210=EDGE_CURVE('',#205,#197,#209,.T.);
#211=ORIENTED_EDGE('',*,*,#210,.F.);
#212=CARTESIAN_POINT('',(20.,50.,4.));
#213=DIRECTION('',(0.,0.,1.));
#214=DIRECTION('',(1.,0.,-0.));
#215=AXIS2_PLACEMENT_3D('',#212,#213,#214);
#216=CIRCLE('',#215,2.);
#217=EDGE_CURVE('',#195,#205,#216,.T.);
#218=ORIENTED_EDGE('',*,*,#217,.F.);
#219=EDGE_LOOP('',(#203,#211,#218));
#220=FACE_BOUND('',#219,.T.);
#221=ADVANCED_FACE('',(#220),#193,.F.);
#222=CARTESIAN_POINT('',(20.,49.,4.));
#223=DIRECTION('',(0.707106781,0.,-0.707106781));
#224=DIRECTION('',(0.,1.,0.));
#225=AXIS2_PLACEMENT_3D('',#222,#223,#224);
#226=PLANE('',#225);
#227=CARTESIAN_POINT('',(20.4,48.450806662,4.4));
#228=CARTESIAN_POINT('',(20.273798637,48.287881403,4.273798637));
#229=CARTESIAN_POINT('',(20.139437123,48.139437123,4.139437123));
#230=CARTESIAN_POINT('',(20.,48.,4.));
#231=B_SPLINE_CURVE_WITH_KNOTS('',3,(#227,#228,#229,#230),.UNSPECIFIED.,.F.,.F.,(4,4),(0.,0.000723344),.UNSPECIFIED.);
#232=EDGE_CURVE('',#164,#195,#231,.T.);
#233=ORIENTED_EDGE('',*,*,#232,.F.);
#234=ORIENTED_EDGE('',*,*,#169,.F.);
#235=CARTESIAN_POINT('',(20.,50.,4.));
#236=DIRECTION('',(0.577350269,-0.577350269,0.577350269));
#237=VECTOR('',#236,0.692820323);
#238=LINE('',#235,#237);
#239=EDGE_CURVE('',#197,#162,#238,.T.);
#240=ORIENTED_EDGE('',*,*,#239,.F.);
#241=ORIENTED_EDGE('',*,*,#202,.F.);
#242=EDGE_LOOP('',(#233,#234,#240,#241));
#243=FACE_BOUND('',#242,.T.);
#244=ADVANCED_FACE('',(#243),#226,.F.);
#245=CARTESIAN_POINT('',(0.,49.6,4.4));
#246=DIRECTION('',(-0.,0.707106781,0.707106781));
#247=DIRECTION('',(1.,0.,0.));
#248=AXIS2_PLACEMENT_3D('',#245,#246,#247);
#249=PLANE('',#248);
#250=ORIENTED_EDGE('',*,*,#239,.T.);
#251=ORIENTED_EDGE('',*,*,#184,.F.);
#252=CARTESIAN_POINT('',(22.,50.,4.));
#253=CARTESIAN_POINT('',(21.860562877,49.860562877,4.139437123));
#254=CARTESIAN_POINT('',(21.712118597,49.726201363,4.273798637));
#255=CARTESIAN_POINT('',(21.549193338,49.6,4.4));
#256=B_SPLINE_CURVE_WITH_KNOTS('',3,(#252,#253,#254,#255),.UNSPECIFIED.,.F.,.F.,(4,4),(0.,0.000723344),.UNSPECIFIED.);
#257=EDGE_CURVE('',#205,#172,#256,.T.);
#258=ORIENTED_EDGE('',*,*,#257,.F.);
#259=ORIENTED_EDGE('',*,*,#210,.T.);
#260=EDGE_LOOP('',(#250,#251,#258,#259));
#261=FACE_BOUND('',#260,.T.);
#262=ADVANCED_FACE('',(#261),#249,.T.);
#263=CARTESIAN_POINT('',(20.,50.,4.4));
#264=DIRECTION('',(0.,0.,-1.));
#265=DIRECTION('',(-1.,0.,0.));
#266=AXIS2_PLACEMENT_3D('',#263,#264,#265);
#267=CONICAL_SURFACE('',#266,1.6,45.);
#268=ORIENTED_EDGE('',*,*,#232,.T.);
#269=ORIENTED_EDGE('',*,*,#217,.T.);
#270=ORIENTED_EDGE('',*,*,#257,.T.);
#271=ORIENTED_EDGE('',*,*,#178,.F.);
#272=EDGE_LOOP('',(#268,#269,#270,#271));
#273=FACE_BOUND('',#272,.T.);
#274=ADVANCED_FACE('',(#273),#267,.T.);
#275=CLOSED_SHELL('',(#188,#221,#244,#262,#274));
#276=MANIFOLD_SOLID_BREP('Body 07 (1)',#275);
#155=STYLED_ITEM('',(#154),#276);
#278=CARTESIAN_POINT('',(20.,50.,4.));
#279=DIRECTION('',(0.,0.,1.));
#280=DIRECTION('',(1.,0.,0.));
#281=AXIS2_PLACEMENT_3D('',#278,#279,#280);
#282=PLANE('',#281);
#283=CARTESIAN_POINT('',(27.25,50.000000191,4.));
#284=VERTEX_POINT('',#283);
#285=CARTESIAN_POINT('',(23.62590313,43.721837332,4.));
#286=VERTEX_POINT('',#285);
#287=CARTESIAN_POINT('',(20.,50.,4.));
#288=DIRECTION('',(0.,0.,1.));
#289=DIRECTION('',(1.,0.,-0.));
#290=AXIS2_PLACEMENT_3D('',#287,#288,#289);
#291=CIRCLE('',#290,7.25);
#292=EDGE_CURVE('',#284,#286,#291,.T.);
#293=ORIENTED_EDGE('',*,*,#292,.F.);
#294=CARTESIAN_POINT('',(15.873972394,57.144116194,4.));
#295=VERTEX_POINT('',#294);
#296=CARTESIAN_POINT('',(15.873972394,57.144116194,4.));
#297=CARTESIAN_POINT('',(16.485344758,57.451450174,4.));
#298=CARTESIAN_POINT('',(17.121530701,57.677684169,4.));
#299=CARTESIAN_POINT('',(17.782284783,57.823620368,4.));
#300=CARTESIAN_POINT('',(17.947473304,57.860104417,4.));
#301=CARTESIAN_POINT('',(18.114211413,57.891523835,4.));
#302=CARTESIAN_POINT('',(18.282531914,57.91777141,4.));
#303=CARTESIAN_POINT('',(18.450852416,57.944018984,4.));
#304=CARTESIAN_POINT('',(18.621097162,57.96508951,4.));
#305=CARTESIAN_POINT('',(18.790545497,57.980664633,4.));
#306=CARTESIAN_POINT('',(19.129442168,58.011814881,4.));
#307=CARTESIAN_POINT('',(19.467342601,58.021203878,4.));
#308=CARTESIAN_POINT('',(19.804268844,58.009313223,4.));
#309=CARTESIAN_POINT('',(20.141195087,57.997422568,4.));
#310=CARTESIAN_POINT('',(20.477148906,57.964290828,4.));
#311=CARTESIAN_POINT('',(20.812110417,57.909483653,4.));
#312=CARTESIAN_POINT('',(21.147071927,57.854676477,4.));
#313=CARTESIAN_POINT('',(21.48237308,57.777475775,4.));
#314=CARTESIAN_POINT('',(21.806950843,57.680039347,4.));
#315=CARTESIAN_POINT('',(22.45610637,57.485166491,4.));
#316=CARTESIAN_POINT('',(23.072349687,57.210550422,4.));
#317=CARTESIAN_POINT('',(23.654254779,56.852736032,4.));
#318=CARTESIAN_POINT('',(23.945207325,56.673828837,4.));
#319=CARTESIAN_POINT('',(24.223100984,56.476220538,4.));
#320=CARTESIAN_POINT('',(24.484990467,56.26292151,4.));
#321=CARTESIAN_POINT('',(24.746879949,56.049622482,4.));
#322=CARTESIAN_POINT('',(24.994002465,55.820027127,4.));
#323=CARTESIAN_POINT('',(25.225946906,55.573681761,4.));
#324=CARTESIAN_POINT('',(25.341919127,55.450509078,4.));
#325=CARTESIAN_POINT('',(25.45407928,55.323129527,4.));
#326=CARTESIAN_POINT('',(25.562338793,55.19144536,4.));
#327=CARTESIAN_POINT('',(25.670598305,55.059761192,4.));
#328=CARTESIAN_POINT('',(25.775045558,54.923562929,4.));
#329=CARTESIAN_POINT('',(25.873967394,54.785139627,4.));
#330=CARTESIAN_POINT('',(26.071811067,54.508293022,4.));
#331=CARTESIAN_POINT('',(26.249433568,54.220663981,4.));
#332=CARTESIAN_POINT('',(26.407054648,53.922369681,4.));
#333=CARTESIAN_POINT('',(26.564675729,53.624075381,4.));
#334=CARTESIAN_POINT('',(26.702145305,53.315035793,4.));
#335=CARTESIAN_POINT('',(26.818854339,52.994926163,4.));
#336=CARTESIAN_POINT('',(26.877208856,52.834871349,4.));
#337=CARTESIAN_POINT('',(26.930453403,52.671552672,4.));
#338=CARTESIAN_POINT('',(26.977608426,52.508033575,4.));
#339=CARTESIAN_POINT('',(27.024763448,52.344514478,4.));
#340=CARTESIAN_POINT('',(27.066085277,52.180254426,4.));
#341=CARTESIAN_POINT('',(27.101644365,52.01526237,4.));
#342=CARTESIAN_POINT('',(27.243880718,51.355294144,4.));
#343=CARTESIAN_POINT('',(27.294721147,50.683716463,4.));
#344=CARTESIAN_POINT('',(27.25,50.000000191,4.));
#345=B_SPLINE_CURVE_WITH_KNOTS('',3,(#296,#297,#298,#299,#300,#301,#302,#303,#304,#305,#306,#307,#308,#309,#310,#311,#312,#313,#314,#315,#316,#317,#318,#319,#320,#321,
#322,#323,#324,#325,#326,#327,#328,#329,#330,#331,#332,#333,#334,#335,#336,#337,#338,#339,#340,#341,#342,#343,#344),.UNSPECIFIED.,.F.,.F.,(4,3,3,3,3,3,3,3,3,3,3,3,3,3,3,3,4),(0.,0.002023615,0.002529519,0.003035423,0.004047231,0.005059039,0.006070846,0.008094462,0.00910627,0.010118077,0.010623981,0.011129885,0.012141693,0.013153501,0.013659404,0.014165308,0.016188924),.UNSPECIFIED.);
#346=EDGE_CURVE('',#295,#284,#345,.T.);
#347=ORIENTED_EDGE('',*,*,#346,.F.);
#348=CARTESIAN_POINT('',(11.75,49.999999674,4.));
#349=VERTEX_POINT('',#348);
#350=CARTESIAN_POINT('',(20.,50.,4.));
#351=DIRECTION('',(-0.,-0.,-1.));
#352=DIRECTION('',(1.,0.,-0.));
#353=AXIS2_PLACEMENT_3D('',#350,#351,#352);
#354=CIRCLE('',#353,8.25);
#355=EDGE_CURVE('',#349,#295,#354,.T.);
#356=ORIENTED_EDGE('',*,*,#355,.F.);
#357=CARTESIAN_POINT('',(23.62590313,43.721837332,4.));
#358=CARTESIAN_POINT('',(23.057447551,43.341509121,4.));
#359=CARTESIAN_POINT('',(22.449436389,43.049522924,4.));
#360=CARTESIAN_POINT('',(21.803800439,42.84156657,4.));
#361=CARTESIAN_POINT('',(21.480982464,42.737588393,4.));
#362=CARTESIAN_POINT('',(21.147277137,42.655340644,4.));
#363=CARTESIAN_POINT('',(20.813869822,42.59695744,4.));
#364=CARTESIAN_POINT('',(20.480462507,42.538574236,4.));
#365=CARTESIAN_POINT('',(20.14501961,42.503038052,4.));
#366=CARTESIAN_POINT('',(19.807555084,42.490192275,4.));
#367=CARTESIAN_POINT('',(19.638822822,42.483769386,4.));
#368=CARTESIAN_POINT('',(19.469583441,42.483038302,4.));
#369=CARTESIAN_POINT('',(19.299828146,42.488097748,4.));
#370=CARTESIAN_POINT('',(19.130072852,42.493157195,4.));
#371=CARTESIAN_POINT('',(18.9591653,42.504117031,4.));
#372=CARTESIAN_POINT('',(18.789648112,42.520745517,4.));
#373=CARTESIAN_POINT('',(18.450613736,42.554002489,4.));
#374=CARTESIAN_POINT('',(18.117045437,42.609568757,4.));
#375=CARTESIAN_POINT('',(17.788779337,42.686775463,4.));
#376=CARTESIAN_POINT('',(17.460513237,42.763982169,4.));
#377=CARTESIAN_POINT('',(17.137549685,42.862830737,4.));
#378=CARTESIAN_POINT('',(16.820010425,42.98381806,4.));
#379=CARTESIAN_POINT('',(16.661240795,43.044311721,4.));
#380=CARTESIAN_POINT('',(16.503261232,43.110550418,4.));
#381=CARTESIAN_POINT('',(16.348514062,43.181520276,4.));
#382=CARTESIAN_POINT('',(16.193766891,43.252490134,4.));
#383=CARTESIAN_POINT('',(16.042072467,43.328218111,4.));
#384=CARTESIAN_POINT('',(15.893366538,43.40860406,4.));
#385=CARTESIAN_POINT('',(15.595954681,43.569375958,4.));
#386=CARTESIAN_POINT('',(15.310459592,43.748721747,4.));
#387=CARTESIAN_POINT('',(15.036834489,43.946568512,4.));
#388=CARTESIAN_POINT('',(14.900021938,44.045491894,4.));
#389=CARTESIAN_POINT('',(14.766194299,44.149067665,4.));
#390=CARTESIAN_POINT('',(14.635327347,44.257258066,4.));
#391=CARTESIAN_POINT('',(14.504460395,44.365448467,4.));
#392=CARTESIAN_POINT('',(14.376129585,44.478708813,4.));
#393=CARTESIAN_POINT('',(14.252150338,44.595505566,4.));
#394=CARTESIAN_POINT('',(13.756233349,45.062692578,4.));
#395=CARTESIAN_POINT('',(13.329429998,45.584610934,4.));
#396=CARTESIAN_POINT('',(12.969413438,46.159417997,4.));
#397=CARTESIAN_POINT('',(12.249380319,47.309032124,4.));
#398=CARTESIAN_POINT('',(11.828412718,48.635840006,4.));
#399=CARTESIAN_POINT('',(11.75,49.999999674,4.));
#400=B_SPLINE_CURVE_WITH_KNOTS('',3,(#357,#358,#359,#360,#361,#362,#363,#364,#365,#366,#367,#368,#369,#370,#371,#372,#373,#374,#375,#376,#377,#378,#379,#380,#381,#382,
#383,#384,#385,#386,#387,#388,#389,#390,#391,#392,#393,#394,#395,#396,#397,#398,#399),.UNSPECIFIED.,.F.,.F.,(4,3,3,3,3,3,3,3,3,3,3,3,3,3,4),(0.,0.00202274,0.003034111,0.004045481,0.004551166,0.005056851,0.006068221,0.007079591,0.007585276,0.008090961,0.009102332,0.009608017,0.010113702,0.012136442,0.016181923),.UNSPECIFIED.);
#401=EDGE_CURVE('',#286,#349,#400,.T.);
#402=ORIENTED_EDGE('',*,*,#401,.F.);
#403=EDGE_LOOP('',(#293,#347,#356,#402));
#404=FACE_BOUND('',#403,.T.);
#405=ADVANCED_FACE('',(#404),#282,.T.);
#406=CARTESIAN_POINT('',(20.,50.,0.));
#407=DIRECTION('',(0.,0.,1.));
#408=DIRECTION('',(1.,0.,-0.));
#409=AXIS2_PLACEMENT_3D('',#406,#407,#408);
#410=CONICAL_SURFACE('',#409,6.25,45.);
#411=CARTESIAN_POINT('',(15.873972766,42.855883591,2.));
#412=VERTEX_POINT('',#411);
#413=CARTESIAN_POINT('',(27.25,50.,1.));
#414=VERTEX_POINT('',#413);
#415=CARTESIAN_POINT('',(15.873972766,42.855883591,2.));
#416=CARTESIAN_POINT('',(15.292920968,43.214321874,1.98020736));
#417=CARTESIAN_POINT('',(14.767760339,43.636276854,1.96084944));
#418=CARTESIAN_POINT('',(14.297110121,44.120147372,1.941191605));
#419=CARTESIAN_POINT('',(14.179447566,44.241115001,1.936277146));
#420=CARTESIAN_POINT('',(14.065248232,44.366015865,1.931333312));
#421=CARTESIAN_POINT('',(13.954583204,44.494930692,1.926359356));
#422=CARTESIAN_POINT('',(13.843918175,44.623845518,1.921385401));
#423=CARTESIAN_POINT('',(13.736556232,44.757131236,1.916368895));
#424=CARTESIAN_POINT('',(13.63420293,44.892661198,1.911389708));
#425=CARTESIAN_POINT('',(13.429496325,45.163721123,1.901431335));
#426=CARTESIAN_POINT('',(13.243365253,45.445140298,1.89160585));
#427=CARTESIAN_POINT('',(13.075410167,45.73669129,1.881773823));
#428=CARTESIAN_POINT('',(12.907455081,46.028242282,1.871941797));
#429=CARTESIAN_POINT('',(12.757745345,46.32996112,1.862025241));
#430=CARTESIAN_POINT('',(12.626614582,46.642033687,1.85202137));
#431=CARTESIAN_POINT('',(12.49548382,46.954106253,1.842017499));
#432=CARTESIAN_POINT('',(12.38269343,47.278282625,1.831875502));
#433=CARTESIAN_POINT('',(12.291815618,47.604217553,1.821919226));
#434=CARTESIAN_POINT('',(12.110059996,48.25608741,1.802006675));
#435=CARTESIAN_POINT('',(12.011614513,48.921988073,1.782059445));
#436=CARTESIAN_POINT('',(11.9980674,49.602179127,1.761815449));
#437=CARTESIAN_POINT('',(11.994680622,49.772226891,1.75675445));
#438=CARTESIAN_POINT('',(11.99671359,49.943327136,1.751689315));
#439=CARTESIAN_POINT('',(12.004146515,50.112865969,1.746650029));
#440=CARTESIAN_POINT('',(12.011579439,50.282404802,1.741610743));
#441=CARTESIAN_POINT('',(12.024395367,50.450995582,1.736567109));
#442=CARTESIAN_POINT('',(12.042493486,50.618656057,1.73151898));
#443=CARTESIAN_POINT('',(12.078689725,50.953977008,1.721422723));
#444=CARTESIAN_POINT('',(12.135952292,51.285587734,1.711308428));
#445=CARTESIAN_POINT('',(12.214254381,51.613492941,1.701175657));
#446=CARTESIAN_POINT('',(12.253405425,51.777445545,1.696109271));
#447=CARTESIAN_POINT('',(12.297831996,51.940469015,1.691038278));
#448=CARTESIAN_POINT('',(12.347627753,52.102546858,1.68596272));
#449=CARTESIAN_POINT('',(12.397423511,52.264624701,1.680887162));
#450=CARTESIAN_POINT('',(12.452819355,52.426325438,1.675782586));
#451=CARTESIAN_POINT('',(12.513213077,52.585511092,1.670659445));
#452=CARTESIAN_POINT('',(12.634000521,52.903882399,1.660413163));
#453=CARTESIAN_POINT('',(12.774099907,53.211311604,1.650185462));
#454=CARTESIAN_POINT('',(12.932860332,53.508167473,1.639974785));
#455=CARTESIAN_POINT('',(13.091620757,53.805023343,1.629764109));
#456=CARTESIAN_POINT('',(13.2690095,54.091325875,1.619612143));
#457=CARTESIAN_POINT('',(13.465429584,54.366841997,1.609384171));
#458=CARTESIAN_POINT('',(13.661849667,54.642358118,1.5991562));
#459=CARTESIAN_POINT('',(13.878949003,54.908395133,1.588693892));
#460=CARTESIAN_POINT('',(14.10960053,55.156171685,1.578340333));
#461=CARTESIAN_POINT('',(14.570903582,55.651724789,1.557633214));
#462=CARTESIAN_POINT('',(15.088978772,56.081803597,1.537362148));
#463=CARTESIAN_POINT('',(15.665584447,56.44432524,1.516368906));
#464=CARTESIAN_POINT('',(15.809735865,56.534955651,1.511120596));
#465=CARTESIAN_POINT('',(15.957408192,56.621125708,1.505844588));
#466=CARTESIAN_POINT('',(16.106595691,56.701744439,1.500611308));
#467=CARTESIAN_POINT('',(16.255783191,56.78236317,1.495378027));
#468=CARTESIAN_POINT('',(16.407010938,56.85777129,1.490168198));
#469=CARTESIAN_POINT('',(16.560243299,56.928059812,1.484981507));
#470=CARTESIAN_POINT('',(16.866708021,57.068636855,1.474608126));
#471=CARTESIAN_POINT('',(17.181178168,57.188765686,1.46429076));
#472=CARTESIAN_POINT('',(17.50375384,57.288171884,1.453810375));
#473=CARTESIAN_POINT('',(17.665041677,57.337874983,1.448570183));
#474=CARTESIAN_POINT('',(17.828357205,57.382395355,1.443304241));
#475=CARTESIAN_POINT('',(17.993744084,57.4216214,1.438011902));
#476=CARTESIAN_POINT('',(18.159130963,57.460847445,1.432719563));
#477=CARTESIAN_POINT('',(18.326999827,57.494810493,1.427388143));
#478=CARTESIAN_POINT('',(18.494515039,57.522948302,1.422107672));
#479=CARTESIAN_POINT('',(18.829545461,57.579223922,1.411546729));
#480=CARTESIAN_POINT('',(19.16530031,57.612920733,1.401147651));
#481=CARTESIAN_POINT('',(19.501760301,57.624358369,1.390620612));
#482=CARTESIAN_POINT('',(19.838220293,57.635796005,1.380093573));
#483=CARTESIAN_POINT('',(20.175385342,57.625038721,1.36950106));
#484=CARTESIAN_POINT('',(20.513273778,57.591508995,1.358840831));
#485=CARTESIAN_POINT('',(20.682217996,57.574744132,1.353510717));
#486=CARTESIAN_POINT('',(20.851964477,57.552142021,1.348143941));
#487=CARTESIAN_POINT('',(21.019714184,57.524043904,1.342829097));
#488=CARTESIAN_POINT('',(21.187463892,57.495945788,1.337514252));
#489=CARTESIAN_POINT('',(21.35345499,57.462346777,1.332215039));
#490=CARTESIAN_POINT('',(21.517715321,57.423337324,1.326898892));
#491=CARTESIAN_POINT('',(21.846235983,57.345318419,1.316266599));
#492=CARTESIAN_POINT('',(22.167869923,57.245767217,1.305606739));
#493=CARTESIAN_POINT('',(22.48264316,57.124765169,1.29491854));
#494=CARTESIAN_POINT('',(22.640029779,57.064264145,1.289574441));
#495=CARTESIAN_POINT('',(22.795695542,56.998382645,1.284223268));
#496=CARTESIAN_POINT('',(22.94960853,56.927020856,1.278865016));
#497=CARTESIAN_POINT('',(23.103521517,56.855659068,1.273506763));
#498=CARTESIAN_POINT('',(23.256264907,56.778487535,1.268125175));
#499=CARTESIAN_POINT('',(23.405476027,56.696552086,1.262727654));
#500=CARTESIAN_POINT('',(24.002320509,56.368810291,1.24113757));
#501=CARTESIAN_POINT('',(24.543363882,55.967802742,1.219739603));
#502=CARTESIAN_POINT('',(25.028925786,55.493973276,1.198076055));
#503=CARTESIAN_POINT('',(25.150316262,55.37551591,1.192660168));
#504=CARTESIAN_POINT('',(25.268593508,55.25189755,1.187172743));
#505=CARTESIAN_POINT('',(25.381992097,55.124862856,1.181692824));
#506=CARTESIAN_POINT('',(25.495390687,54.997828162,1.176212905));
#507=CARTESIAN_POINT('',(25.603829489,54.867554146,1.170746626));
#508=CARTESIAN_POINT('',(25.707425884,54.734117475,1.165293554));
#509=CARTESIAN_POINT('',(25.914618672,54.467244133,1.154387409));
#510=CARTESIAN_POINT('',(26.102541388,54.187783659,1.143573452));
#511=CARTESIAN_POINT('',(26.27119189,53.895739547,1.132725401));
#512=CARTESIAN_POINT('',(26.355517141,53.749717491,1.127301375));
#513=CARTESIAN_POINT('',(26.434981037,53.600522464,1.121837441));
#514=CARTESIAN_POINT('',(26.50949267,53.448095145,1.11633253));
#515=CARTESIAN_POINT('',(26.584004303,53.295667825,1.11082762));
#516=CARTESIAN_POINT('',(26.653807475,53.139369489,1.105259461));
#517=CARTESIAN_POINT('',(26.717766695,52.981594565,1.099713975));
#518=CARTESIAN_POINT('',(26.845685135,52.666044716,1.088623002));
#519=CARTESIAN_POINT('',(26.950479304,52.344901068,1.077647132));
#520=CARTESIAN_POINT('',(27.032841472,52.018332894,1.066729245));
#521=CARTESIAN_POINT('',(27.115203641,51.69176472,1.055811358));
#522=CARTESIAN_POINT('',(27.174959554,51.359735901,1.044773526));
#523=CARTESIAN_POINT('',(27.211537822,51.022108485,1.03361061));
#524=CARTESIAN_POINT('',(27.24811609,50.684481069,1.022447694));
#525=CARTESIAN_POINT('',(27.261171044,50.341575454,1.011171044));
#526=CARTESIAN_POINT('',(27.25,50.,1.));
#527=B_SPLINE_CURVE_WITH_KNOTS('',3,(#415,#416,#417,#418,#419,#420,#421,#422,#423,#424,#425,#426,#427,#428,#429,#430,#431,#432,#433,#434,#435,#436,#437,#438,#439,#440,
#441,#442,#443,#444,#445,#446,#447,#448,#449,#450,#451,#452,#453,#454,#455,#456,#457,#458,#459,#460,#461,#462,#463,#464,#465,
#466,#467,#468,#469,#470,#471,#472,#473,#474,#475,#476,#477,#478,#479,#480,#481,#482,#483,#484,#485,#486,#487,#488,#489,#490,
#491,#492,#493,#494,#495,#496,#497,#498,#499,#500,#501,#502,#503,#504,#505,#506,#507,#508,#509,#510,#511,#512,#513,#514,#515,
#516,#517,#518,#519,#520,#521,#522,#523,#524,#525,#526),.UNSPECIFIED.,.F.,.F.,(4,3,3,3,3,3,3,3,3,3,3,3,3,3,3,3,3,3,3,3,3,3,3,3,3,3,
3,3,3,3,3,3,3,3,3,3,3,4),(0.,0.002019825,0.002524782,0.003029738,0.004039651,0.005049563,0.006059476,0.008079301,0.008584257,0.009089214,0.010099126,0.010604083,0.011109039,0.012118952,0.013128864,0.014138777,0.016158602,0.016663559,0.017168515,0.018178428,0.018683384,0.01918834,0.020198253,0.021208166,0.021713122,0.022218078,
0.023227991,0.023732947,0.024237903,0.026257729,0.026762685,0.027267641,0.028277554,0.02878251,0.029287467,0.030297379,0.031307292,0.032317205),.UNSPECIFIED.);
#528=EDGE_CURVE('',#412,#414,#527,.T.);
#529=ORIENTED_EDGE('',*,*,#528,.T.);
#530=CARTESIAN_POINT('',(23.625902966,43.721837237,1.));
#531=VERTEX_POINT('',#530);
#532=CARTESIAN_POINT('',(20.,50.,1.));
#533=DIRECTION('',(0.,0.,1.));
#534=DIRECTION('',(1.,0.,-0.));
#535=AXIS2_PLACEMENT_3D('',#532,#533,#534);
#536=CIRCLE('',#535,7.25);
#537=EDGE_CURVE('',#414,#531,#536,.T.);
#538=ORIENTED_EDGE('',*,*,#537,.T.);
#539=CARTESIAN_POINT('',(24.126027513,42.855883752,2.));
#540=VERTEX_POINT('',#539);
#541=CARTESIAN_POINT('',(23.625902966,43.721837237,1.));
#542=CARTESIAN_POINT('',(23.792611222,43.433186118,1.333333333));
#543=CARTESIAN_POINT('',(23.959319331,43.144534914,1.666666667));
#544=CARTESIAN_POINT('',(24.126027513,42.855883752,2.));
#545=B_SPLINE_CURVE_WITH_KNOTS('',3,(#541,#542,#543,#544),.UNSPECIFIED.,.F.,.F.,(4,4),(0.,0.001414214),.UNSPECIFIED.);
#546=EDGE_CURVE('',#531,#540,#545,.T.);
#547=ORIENTED_EDGE('',*,*,#546,.T.);
#548=CARTESIAN_POINT('',(20.,50.,2.));
#549=DIRECTION('',(0.,0.,1.));
#550=DIRECTION('',(1.,0.,-0.));
#551=AXIS2_PLACEMENT_3D('',#548,#549,#550);
#552=CIRCLE('',#551,8.25);
#553=EDGE_CURVE('',#412,#540,#552,.T.);
#554=ORIENTED_EDGE('',*,*,#553,.F.);
#555=EDGE_LOOP('',(#529,#538,#547,#554));
#556=FACE_BOUND('',#555,.T.);
#557=ADVANCED_FACE('',(#556),#410,.T.);
#558=CARTESIAN_POINT('',(20.,50.,0.));
#559=DIRECTION('',(0.,0.,1.));
#560=DIRECTION('',(1.,0.,-0.));
#561=AXIS2_PLACEMENT_3D('',#558,#559,#560);
#562=CYLINDRICAL_SURFACE('',#561,8.25);
#563=CARTESIAN_POINT('',(28.25,50.,2.999999988));
#564=VERTEX_POINT('',#563);
#565=CARTESIAN_POINT('',(28.25,50.,2.499999988));
#566=VERTEX_POINT('',#565);
#567=CARTESIAN_POINT('',(28.25,50.,2.999999988));
#568=DIRECTION('',(-0.,-0.,-1.));
#569=VECTOR('',#568,0.5);
#570=LINE('',#567,#569);
#571=EDGE_CURVE('',#564,#566,#570,.T.);
#572=ORIENTED_EDGE('',*,*,#571,.T.);
#573=CARTESIAN_POINT('',(24.126029316,42.855884793,2.000000121));
#574=CARTESIAN_POINT('',(24.80769028,43.249572891,2.045661514));
#575=CARTESIAN_POINT('',(25.402601055,43.765066012,2.09090908));
#576=CARTESIAN_POINT('',(26.299049227,44.541842774,2.159090898));
#577=CARTESIAN_POINT('',(26.940341646,45.539713256,2.227272716));
#578=CARTESIAN_POINT('',(27.581634065,46.537583738,2.295454534));
#579=CARTESIAN_POINT('',(27.915817032,47.675706406,2.363636352));
#580=CARTESIAN_POINT('',(28.25,48.813829075,2.43181817));
#581=CARTESIAN_POINT('',(28.25,50.,2.499999988));
#582=CARTESIAN_POINT('',(28.25,51.186170925,2.568181805));
#583=CARTESIAN_POINT('',(27.915817032,52.324293594,2.636363623));
#584=CARTESIAN_POINT('',(27.581634065,53.462416262,2.704545441));
#585=CARTESIAN_POINT('',(26.940341646,54.460286744,2.772727259));
#586=CARTESIAN_POINT('',(26.299049227,55.458157226,2.840909077));
#587=CARTESIAN_POINT('',(25.402601055,56.234933988,2.909090895));
#588=CARTESIAN_POINT('',(24.506152883,57.011710751,2.977272713));
#589=CARTESIAN_POINT('',(23.427173857,57.504463962,3.045454531));
#590=CARTESIAN_POINT('',(22.348194832,57.997217172,3.113636349));
#591=CARTESIAN_POINT('',(21.174097416,58.166026896,3.181818166));
#592=CARTESIAN_POINT('',(20.,58.334836619,3.249999984));
#593=CARTESIAN_POINT('',(18.825902584,58.166026896,3.318181802));
#594=CARTESIAN_POINT('',(17.651805168,57.997217172,3.38636362));
#595=CARTESIAN_POINT('',(16.572826143,57.504463962,3.454545438));
#596=CARTESIAN_POINT('',(15.493847117,57.011710751,3.522727256));
#597=CARTESIAN_POINT('',(14.597398945,56.234933988,3.590909074));
#598=CARTESIAN_POINT('',(13.700950773,55.458157226,3.659090892));
#599=CARTESIAN_POINT('',(13.059658354,54.460286744,3.72727271));
#600=CARTESIAN_POINT('',(12.418365935,53.462416262,3.795454528));
#601=CARTESIAN_POINT('',(12.084182968,52.324293594,3.863636345));
#602=CARTESIAN_POINT('',(11.75,51.186170925,3.931818163));
#603=CARTESIAN_POINT('',(11.75,49.999999674,4.));
#604=(BOUNDED_CURVE()
B_SPLINE_CURVE(2,(#573,#574,#575,#576,#577,#578,#579,#580,#581,#582,#583,#584,#585,#586,#587,#588,#589,#590,#591,#592,#593,#594,#595,#596,#597,#598,
#599,#600,#601,#602,#603),.UNSPECIFIED.,.F.,.F.)
B_SPLINE_CURVE_WITH_KNOTS((3,2,2,2,2,2,2,2,2,2,2,2,2,2,2,3),(0.043861457,0.045454545,0.04784689,0.050239235,0.052631579,0.055023924,0.057416268,0.059808613,0.062200957,0.064593302,0.066985646,0.069377991,0.071770335,0.07416268,0.076555024,0.078947369),.UNSPECIFIED.)
CURVE()
GEOMETRIC_REPRESENTATION_ITEM()
RATIONAL_B_SPLINE_CURVE((0.99547108,0.993221987,1.,0.989821442,1.,0.989821442,1.,0.989821442,1.,0.989821442,1.,0.989821442,1.,0.989821442,1.,0.989821442,1.,0.989821442,1.,0.989821442,1.,0.989821442,1.,0.989821442,1.,0.989821442,
1.,0.989821442,1.,0.989821442,1.))
REPRESENTATION_ITEM(''));
#605=EDGE_CURVE('',#566,#349,#604,.T.);
#606=ORIENTED_EDGE('',*,*,#605,.T.);
#607=ORIENTED_EDGE('',*,*,#355,.T.);
#608=CARTESIAN_POINT('',(15.873970964,42.855884632,1.999999879));
#609=CARTESIAN_POINT('',(16.214802789,42.659039826,2.022830665));
#610=CARTESIAN_POINT('',(16.572826143,42.495536038,2.045454537));
#611=CARTESIAN_POINT('',(17.651805168,42.002782828,2.113636355));
#612=CARTESIAN_POINT('',(18.825902584,41.833973104,2.181818173));
#613=CARTESIAN_POINT('',(20.,41.665163381,2.249999991));
#614=CARTESIAN_POINT('',(21.174097416,41.833973104,2.318181809));
#615=CARTESIAN_POINT('',(22.348194832,42.002782828,2.386363626));
#616=CARTESIAN_POINT('',(23.427173857,42.495536038,2.454545444));
#617=CARTESIAN_POINT('',(24.506152883,42.988289249,2.522727262));
#618=CARTESIAN_POINT('',(25.402601055,43.765066012,2.59090908));
#619=CARTESIAN_POINT('',(26.299049227,44.541842774,2.659090898));
#620=CARTESIAN_POINT('',(26.940341646,45.539713256,2.727272716));
#621=CARTESIAN_POINT('',(27.581634065,46.537583738,2.795454534));
#622=CARTESIAN_POINT('',(27.915817032,47.675706406,2.863636352));
#623=CARTESIAN_POINT('',(28.25,48.813829075,2.93181817));
#624=CARTESIAN_POINT('',(28.25,50.,2.999999988));
#625=CARTESIAN_POINT('',(28.25,51.186170925,3.068181805));
#626=CARTESIAN_POINT('',(27.915817032,52.324293594,3.136363623));
#627=CARTESIAN_POINT('',(27.581634065,53.462416262,3.204545441));
#628=CARTESIAN_POINT('',(26.940341646,54.460286744,3.272727259));
#629=CARTESIAN_POINT('',(26.299049227,55.458157226,3.340909077));
#630=CARTESIAN_POINT('',(25.402601055,56.234933988,3.409090895));
#631=CARTESIAN_POINT('',(24.506152883,57.011710751,3.477272713));
#632=CARTESIAN_POINT('',(23.427173857,57.504463962,3.545454531));
#633=CARTESIAN_POINT('',(22.348194832,57.997217172,3.613636349));
#634=CARTESIAN_POINT('',(21.174097416,58.166026896,3.681818166));
#635=CARTESIAN_POINT('',(20.,58.334836619,3.749999984));
#636=CARTESIAN_POINT('',(18.825902584,58.166026896,3.818181802));
#637=CARTESIAN_POINT('',(17.651805168,57.997217172,3.88636362));
#638=CARTESIAN_POINT('',(16.572826143,57.504463962,3.954545438));
#639=CARTESIAN_POINT('',(16.214802592,57.340960085,3.977169322));
#640=CARTESIAN_POINT('',(15.873970591,57.144115153,4.000000121));
#641=(BOUNDED_CURVE()
B_SPLINE_CURVE(2,(#608,#609,#610,#611,#612,#613,#614,#615,#616,#617,#618,#619,#620,#621,#622,#623,#624,#625,#626,#627,#628,#629,#630,#631,#632,#633,
#634,#635,#636,#637,#638,#639,#640),.UNSPECIFIED.,.F.,.F.)
B_SPLINE_CURVE_WITH_KNOTS((3,2,2,2,2,2,2,2,2,2,2,2,2,2,2,2,3),(0.035085912,0.035885167,0.038277512,0.040669856,0.043062201,0.045454545,0.04784689,0.050239234,0.052631579,0.055023923,0.057416268,0.059808612,0.062200957,0.064593301,0.066985646,0.06937799,0.070177247),.UNSPECIFIED.)
CURVE()
GEOMETRIC_REPRESENTATION_ITEM()
RATIONAL_B_SPLINE_CURVE((0.99547108,0.996599456,1.,0.989821442,1.,0.989821442,1.,0.989821442,1.,0.989821442,1.,0.989821442,1.,0.989821442,1.,0.989821442,1.,0.989821442,1.,0.989821442,1.,0.989821442,1.,0.989821442,1.,0.989821442,
1.,0.989821442,1.,0.989821442,1.,0.996599454,0.995471079))
REPRESENTATION_ITEM(''));
#642=EDGE_CURVE('',#564,#295,#641,.T.);
#643=ORIENTED_EDGE('',*,*,#642,.F.);
#644=EDGE_LOOP('',(#572,#606,#607,#643));
#645=FACE_BOUND('',#644,.T.);
#646=ADVANCED_FACE('',(#645),#562,.T.);
#647=CARTESIAN_POINT('',(20.,50.,0.));
#648=DIRECTION('',(0.,0.,1.));
#649=DIRECTION('',(1.,0.,-0.));
#650=AXIS2_PLACEMENT_3D('',#647,#648,#649);
#651=CYLINDRICAL_SURFACE('',#650,7.25);
#652=CARTESIAN_POINT('',(27.25,50.,1.499999988));
#653=VERTEX_POINT('',#652);
#654=CARTESIAN_POINT('',(27.25,50.,4.));
#655=DIRECTION('',(-0.,-0.,-1.));
#656=VECTOR('',#655,2.500000012);
#657=LINE('',#654,#656);
#658=EDGE_CURVE('',#284,#653,#657,.T.);
#659=ORIENTED_EDGE('',*,*,#658,.F.);
#660=ORIENTED_EDGE('',*,*,#292,.T.);
#661=CARTESIAN_POINT('',(23.625904554,43.721838154,1.000000121));
#662=CARTESIAN_POINT('',(24.224939945,44.067806481,1.045661514));
#663=CARTESIAN_POINT('',(24.747740321,44.520815586,1.09090908));
#664=CARTESIAN_POINT('',(25.535528109,45.20343759,1.159090898));
#665=CARTESIAN_POINT('',(26.099088113,46.080354073,1.227272716));
#666=CARTESIAN_POINT('',(26.662648117,46.957270557,1.295454534));
#667=CARTESIAN_POINT('',(26.956324059,47.957438963,1.363636352));
#668=CARTESIAN_POINT('',(27.25,48.957607369,1.43181817));
#669=CARTESIAN_POINT('',(27.25,50.,1.499999988));
#670=CARTESIAN_POINT('',(27.25,51.042392631,1.568181805));
#671=CARTESIAN_POINT('',(26.956324059,52.042561037,1.636363623));
#672=CARTESIAN_POINT('',(26.662648117,53.042729443,1.704545441));
#673=CARTESIAN_POINT('',(26.099088113,53.919645927,1.772727259));
#674=CARTESIAN_POINT('',(25.535528109,54.79656241,1.840909077));
#675=CARTESIAN_POINT('',(24.747740321,55.479184414,1.909090895));
#676=CARTESIAN_POINT('',(23.959952534,56.161806418,1.977272713));
#677=CARTESIAN_POINT('',(23.011758844,56.594831966,2.045454531));
#678=CARTESIAN_POINT('',(22.063565155,57.027857515,2.113636349));
#679=CARTESIAN_POINT('',(21.031782577,57.176205454,2.181818166));
#680=CARTESIAN_POINT('',(20.,57.324553392,2.249999984));
#681=CARTESIAN_POINT('',(18.968217423,57.176205454,2.318181802));
#682=CARTESIAN_POINT('',(17.936434845,57.027857515,2.38636362));
#683=CARTESIAN_POINT('',(16.988241156,56.594831966,2.454545438));
#684=CARTESIAN_POINT('',(16.040047466,56.161806418,2.522727256));
#685=CARTESIAN_POINT('',(15.252259679,55.479184414,2.590909074));
#686=CARTESIAN_POINT('',(14.464471891,54.79656241,2.659090892));
#687=CARTESIAN_POINT('',(13.900911887,53.919645927,2.72727271));
#688=CARTESIAN_POINT('',(13.337351883,53.042729443,2.795454528));
#689=CARTESIAN_POINT('',(13.043675941,52.042561037,2.863636345));
#690=CARTESIAN_POINT('',(12.75,51.042392631,2.931818163));
#691=CARTESIAN_POINT('',(12.75,50.,2.999999981));
#692=CARTESIAN_POINT('',(12.75,48.957607369,3.068181799));
#693=CARTESIAN_POINT('',(13.043675941,47.957438963,3.136363617));
#694=CARTESIAN_POINT('',(13.337351883,46.957270557,3.204545435));
#695=CARTESIAN_POINT('',(13.900911887,46.080354073,3.272727253));
#696=CARTESIAN_POINT('',(14.464471891,45.20343759,3.340909071));
#697=CARTESIAN_POINT('',(15.252259679,44.520815586,3.409090889));
#698=CARTESIAN_POINT('',(16.040047466,43.838193582,3.477272707));
#699=CARTESIAN_POINT('',(16.988241156,43.405168034,3.545454524));
#700=CARTESIAN_POINT('',(17.936434845,42.972142485,3.613636342));
#701=CARTESIAN_POINT('',(18.968217423,42.823794546,3.68181816));
#702=CARTESIAN_POINT('',(20.,42.675446608,3.749999978));
#703=CARTESIAN_POINT('',(21.031782577,42.823794546,3.818181796));
#704=CARTESIAN_POINT('',(22.063565155,42.972142485,3.886363614));
#705=CARTESIAN_POINT('',(23.011758844,43.405168034,3.954545432));
#706=CARTESIAN_POINT('',(23.326385646,43.548853279,3.977169319));
#707=CARTESIAN_POINT('',(23.625904717,43.721838248,4.000000121));
#708=(BOUNDED_CURVE()
B_SPLINE_CURVE(2,(#661,#662,#663,#664,#665,#666,#667,#668,#669,#670,#671,#672,#673,#674,#675,#676,#677,#678,#679,#680,#681,#682,#683,#684,#685,#686,
#687,#688,#689,#690,#691,#692,#693,#694,#695,#696,#697,#698,#699,#700,#701,#702,#703,#704,#705,#706,#707),.UNSPECIFIED.,.F.,.F.)
B_SPLINE_CURVE_WITH_KNOTS((3,2,2,2,2,2,2,2,2,2,2,2,2,2,2,2,2,2,2,2,2,2,2,3),(0.043861457,0.045454545,0.04784689,0.050239234,0.052631579,0.055023923,0.057416268,0.059808612,0.062200957,0.064593301,0.066985646,0.06937799,0.071770335,0.074162679,0.076555024,0.078947368,0.081339713,0.083732057,0.086124402,0.088516746,0.090909091,0.093301435,0.09569378,0.096493036),.UNSPECIFIED.)
CURVE()
GEOMETRIC_REPRESENTATION_ITEM()
RATIONAL_B_SPLINE_CURVE((0.99547108,0.993221987,1.,0.989821442,1.,0.989821442,1.,0.989821442,1.,0.989821442,1.,0.989821442,1.,0.989821442,1.,0.989821442,1.,0.989821442,1.,0.989821442,1.,0.989821442,1.,0.989821442,1.,0.989821442,
1.,0.989821442,1.,0.989821442,1.,0.989821442,1.,0.989821442,1.,0.989821442,1.,0.989821442,1.,0.989821442,1.,0.989821442,1.,0.989821442,1.,0.996599454,0.995471079))
REPRESENTATION_ITEM(''));
#709=EDGE_CURVE('',#653,#286,#708,.T.);
#710=ORIENTED_EDGE('',*,*,#709,.F.);
#711=EDGE_LOOP('',(#659,#660,#710));
#712=FACE_BOUND('',#711,.T.);
#713=ADVANCED_FACE('',(#712),#651,.F.);
#714=CARTESIAN_POINT('',(24.126027513,42.855883752,2.));
#715=CARTESIAN_POINT('',(24.807689486,43.249572203,2.045661453));
#716=CARTESIAN_POINT('',(25.402601055,43.765066012,2.09090908));
#717=CARTESIAN_POINT('',(26.299049227,44.541842774,2.159090898));
#718=CARTESIAN_POINT('',(26.940341646,45.539713256,2.227272716));
#719=CARTESIAN_POINT('',(27.581634065,46.537583738,2.295454534));
#720=CARTESIAN_POINT('',(27.915817032,47.675706406,2.363636352));
#721=CARTESIAN_POINT('',(28.25,48.813829075,2.43181817));
#722=CARTESIAN_POINT('',(28.25,50.,2.499999988));
#723=CARTESIAN_POINT('',(28.25,51.186170925,2.568181805));
#724=CARTESIAN_POINT('',(27.915817032,52.324293594,2.636363623));
#725=CARTESIAN_POINT('',(27.581634065,53.462416262,2.704545441));
#726=CARTESIAN_POINT('',(26.940341646,54.460286744,2.772727259));
#727=CARTESIAN_POINT('',(26.299049227,55.458157226,2.840909077));
#728=CARTESIAN_POINT('',(25.402601055,56.234933988,2.909090895));
#729=CARTESIAN_POINT('',(24.506152883,57.011710751,2.977272713));
#730=CARTESIAN_POINT('',(23.427173857,57.504463962,3.045454531));
#731=CARTESIAN_POINT('',(22.348194832,57.997217172,3.113636349));
#732=CARTESIAN_POINT('',(21.174097416,58.166026896,3.181818166));
#733=CARTESIAN_POINT('',(20.,58.334836619,3.249999984));
#734=CARTESIAN_POINT('',(18.825902584,58.166026896,3.318181802));
#735=CARTESIAN_POINT('',(17.651805168,57.997217172,3.38636362));
#736=CARTESIAN_POINT('',(16.572826143,57.504463962,3.454545438));
#737=CARTESIAN_POINT('',(15.493847117,57.011710751,3.522727256));
#738=CARTESIAN_POINT('',(14.597398945,56.234933988,3.590909074));
#739=CARTESIAN_POINT('',(13.700950773,55.458157226,3.659090892));
#740=CARTESIAN_POINT('',(13.059658354,54.460286744,3.72727271));
#741=CARTESIAN_POINT('',(12.418365935,53.462416262,3.795454528));
#742=CARTESIAN_POINT('',(12.084182968,52.324293594,3.863636345));
#743=CARTESIAN_POINT('',(11.75,51.186170925,3.931818163));
#744=CARTESIAN_POINT('',(11.75,50.,3.999999981));
#745=CARTESIAN_POINT('',(11.75,48.813829075,4.068181799));
#746=CARTESIAN_POINT('',(12.084182968,47.675706406,4.136363617));
#747=CARTESIAN_POINT('',(12.418365935,46.537583738,4.204545435));
#748=CARTESIAN_POINT('',(13.059658354,45.539713256,4.272727253));
#749=CARTESIAN_POINT('',(13.700950773,44.541842774,4.340909071));
#750=CARTESIAN_POINT('',(14.597398945,43.765066012,4.409090889));
#751=CARTESIAN_POINT('',(15.493847117,42.988289249,4.477272707));
#752=CARTESIAN_POINT('',(16.572826143,42.495536038,4.545454524));
#753=CARTESIAN_POINT('',(17.651805168,42.002782828,4.613636342));
#754=CARTESIAN_POINT('',(18.825902584,41.833973104,4.68181816));
#755=CARTESIAN_POINT('',(20.,41.665163381,4.749999978));
#756=CARTESIAN_POINT('',(21.174097416,41.833973104,4.818181796));
#757=CARTESIAN_POINT('',(22.348194832,42.002782828,4.886363614));
#758=CARTESIAN_POINT('',(23.427173857,42.495536038,4.954545432));
#759=CARTESIAN_POINT('',(23.785195557,42.65903907,4.977169199));
#760=CARTESIAN_POINT('',(24.126025893,42.855882816,4.999999879));
#761=CARTESIAN_POINT('',(23.625902966,43.721837237,1.));
#762=CARTESIAN_POINT('',(24.224939246,44.067805875,1.045661453));
#763=CARTESIAN_POINT('',(24.747740321,44.520815586,1.09090908));
#764=CARTESIAN_POINT('',(25.535528109,45.20343759,1.159090898));
#765=CARTESIAN_POINT('',(26.099088113,46.080354073,1.227272716));
#766=CARTESIAN_POINT('',(26.662648117,46.957270557,1.295454534));
#767=CARTESIAN_POINT('',(26.956324059,47.957438963,1.363636352));
#768=CARTESIAN_POINT('',(27.25,48.957607369,1.43181817));
#769=CARTESIAN_POINT('',(27.25,50.,1.499999988));
#770=CARTESIAN_POINT('',(27.25,51.042392631,1.568181805));
#771=CARTESIAN_POINT('',(26.956324059,52.042561037,1.636363623));
#772=CARTESIAN_POINT('',(26.662648117,53.042729443,1.704545441));
#773=CARTESIAN_POINT('',(26.099088113,53.919645927,1.772727259));
#774=CARTESIAN_POINT('',(25.535528109,54.79656241,1.840909077));
#775=CARTESIAN_POINT('',(24.747740321,55.479184414,1.909090895));
#776=CARTESIAN_POINT('',(23.959952534,56.161806418,1.977272713));
#777=CARTESIAN_POINT('',(23.011758844,56.594831966,2.045454531));
#778=CARTESIAN_POINT('',(22.063565155,57.027857515,2.113636349));
#779=CARTESIAN_POINT('',(21.031782577,57.176205454,2.181818166));
#780=CARTESIAN_POINT('',(20.,57.324553392,2.249999984));
#781=CARTESIAN_POINT('',(18.968217423,57.176205454,2.318181802));
#782=CARTESIAN_POINT('',(17.936434845,57.027857515,2.38636362));
#783=CARTESIAN_POINT('',(16.988241156,56.594831966,2.454545438));
#784=CARTESIAN_POINT('',(16.040047466,56.161806418,2.522727256));
#785=CARTESIAN_POINT('',(15.252259679,55.479184414,2.590909074));
#786=CARTESIAN_POINT('',(14.464471891,54.79656241,2.659090892));
#787=CARTESIAN_POINT('',(13.900911887,53.919645927,2.72727271));
#788=CARTESIAN_POINT('',(13.337351883,53.042729443,2.795454528));
#789=CARTESIAN_POINT('',(13.043675941,52.042561037,2.863636345));
#790=CARTESIAN_POINT('',(12.75,51.042392631,2.931818163));
#791=CARTESIAN_POINT('',(12.75,50.,2.999999981));
#792=CARTESIAN_POINT('',(12.75,48.957607369,3.068181799));
#793=CARTESIAN_POINT('',(13.043675941,47.957438963,3.136363617));
#794=CARTESIAN_POINT('',(13.337351883,46.957270557,3.204545435));
#795=CARTESIAN_POINT('',(13.900911887,46.080354073,3.272727253));
#796=CARTESIAN_POINT('',(14.464471891,45.20343759,3.340909071));
#797=CARTESIAN_POINT('',(15.252259679,44.520815586,3.409090889));
#798=CARTESIAN_POINT('',(16.040047466,43.838193582,3.477272707));
#799=CARTESIAN_POINT('',(16.988241156,43.405168034,3.545454524));
#800=CARTESIAN_POINT('',(17.936434845,42.972142485,3.613636342));
#801=CARTESIAN_POINT('',(18.968217423,42.823794546,3.68181816));
#802=CARTESIAN_POINT('',(20.,42.675446608,3.749999978));
#803=CARTESIAN_POINT('',(21.031782577,42.823794546,3.818181796));
#804=CARTESIAN_POINT('',(22.063565155,42.972142485,3.886363614));
#805=CARTESIAN_POINT('',(23.011758844,43.405168034,3.954545432));
#806=CARTESIAN_POINT('',(23.326383974,43.548852516,3.977169199));
#807=CARTESIAN_POINT('',(23.625901542,43.721836414,3.999999879));
#808=(BOUNDED_SURFACE()
B_SPLINE_SURFACE(1,2,((#714,#715,#716,#717,#718,#719,#720,#721,#722,#723,#724,#725,#726,#727,#728,#729,#730,#731,#732,#733,#734,#735,#736,#737,#738,#739,
#740,#741,#742,#743,#744,#745,#746,#747,#748,#749,#750,#751,#752,#753,#754,#755,#756,#757,#758,#759,#760),(#761,#762,#763,#764,#765,#766,#767,#768,#769,#770,#771,#772,#773,#774,#775,#776,#777,#778,#779,#780,#781,#782,#783,#784,#785,#786,
#787,#788,#789,#790,#791,#792,#793,#794,#795,#796,#797,#798,#799,#800,#801,#802,#803,#804,#805,#806,#807)),.UNSPECIFIED.,.F.,.F.,.U.)
B_SPLINE_SURFACE_WITH_KNOTS((2,2),(3,2,2,2,2,2,2,2,2,2,2,2,2,2,2,2,2,2,2,2,2,2,2,3),(0.,1.),(0.043861455,0.045454545,0.04784689,0.050239234,0.052631579,0.055023923,0.057416268,0.059808612,0.062200957,0.064593301,0.066985646,0.06937799,0.071770335,0.074162679,0.076555024,0.078947368,0.081339713,0.083732057,0.086124402,0.088516746,0.090909091,0.093301435,0.09569378,0.096493032),.UNSPECIFIED.)
GEOMETRIC_REPRESENTATION_ITEM()
RATIONAL_B_SPLINE_SURFACE(((0.995471085,0.993221978,1.,0.989821442,1.,0.989821442,1.,0.989821442,1.,0.989821442,1.,0.989821442,1.,0.989821442,1.,0.989821442,1.,0.989821442,1.,0.989821442,1.,0.989821442,1.,0.989821442,1.,0.989821442,
1.,0.989821442,1.,0.989821442,1.,0.989821442,1.,0.989821442,1.,0.989821442,1.,0.989821442,1.,0.989821442,1.,0.989821442,1.,0.989821442,1.,0.996599472,0.995471091),(0.995471085,0.993221978,1.,0.989821442,1.,0.989821442,1.,0.989821442,1.,0.989821442,1.,0.989821442,1.,0.989821442,1.,0.989821442,1.,0.989821442,1.,0.989821442,1.,0.989821442,1.,0.989821442,1.,0.989821442,
1.,0.989821442,1.,0.989821442,1.,0.989821442,1.,0.989821442,1.,0.989821442,1.,0.989821442,1.,0.989821442,1.,0.989821442,1.,0.989821442,1.,0.996599472,0.995471091)))
REPRESENTATION_ITEM('')
SURFACE()
);
#809=CARTESIAN_POINT('',(23.625904554,43.721838154,1.000000121));
#810=CARTESIAN_POINT('',(24.224939945,44.067806481,1.045661514));
#811=CARTESIAN_POINT('',(24.747740321,44.520815586,1.09090908));
#812=CARTESIAN_POINT('',(25.535528109,45.20343759,1.159090898));
#813=CARTESIAN_POINT('',(26.099088113,46.080354073,1.227272716));
#814=CARTESIAN_POINT('',(26.662648117,46.957270557,1.295454534));
#815=CARTESIAN_POINT('',(26.956324059,47.957438963,1.363636352));
#816=CARTESIAN_POINT('',(27.25,48.957607369,1.43181817));
#817=CARTESIAN_POINT('',(27.25,50.,1.499999988));
#818=CARTESIAN_POINT('',(27.25,51.042392631,1.568181805));
#819=CARTESIAN_POINT('',(26.956324059,52.042561037,1.636363623));
#820=CARTESIAN_POINT('',(26.662648117,53.042729443,1.704545441));
#821=CARTESIAN_POINT('',(26.099088113,53.919645927,1.772727259));
#822=CARTESIAN_POINT('',(25.535528109,54.79656241,1.840909077));
#823=CARTESIAN_POINT('',(24.747740321,55.479184414,1.909090895));
#824=CARTESIAN_POINT('',(23.959952534,56.161806418,1.977272713));
#825=CARTESIAN_POINT('',(23.011758844,56.594831966,2.045454531));
#826=CARTESIAN_POINT('',(22.063565155,57.027857515,2.113636349));
#827=CARTESIAN_POINT('',(21.031782577,57.176205454,2.181818166));
#828=CARTESIAN_POINT('',(20.,57.324553392,2.249999984));
#829=CARTESIAN_POINT('',(18.968217423,57.176205454,2.318181802));
#830=CARTESIAN_POINT('',(17.936434845,57.027857515,2.38636362));
#831=CARTESIAN_POINT('',(16.988241156,56.594831966,2.454545438));
#832=CARTESIAN_POINT('',(16.040047466,56.161806418,2.522727256));
#833=CARTESIAN_POINT('',(15.252259679,55.479184414,2.590909074));
#834=CARTESIAN_POINT('',(14.464471891,54.79656241,2.659090892));
#835=CARTESIAN_POINT('',(13.900911887,53.919645927,2.72727271));
#836=CARTESIAN_POINT('',(13.337351883,53.042729443,2.795454528));
#837=CARTESIAN_POINT('',(13.043675941,52.042561037,2.863636345));
#838=CARTESIAN_POINT('',(12.75,51.042392631,2.931818163));
#839=CARTESIAN_POINT('',(12.75,50.,2.999999981));
#840=CARTESIAN_POINT('',(12.75,48.957607369,3.068181799));
#841=CARTESIAN_POINT('',(13.043675941,47.957438963,3.136363617));
#842=CARTESIAN_POINT('',(13.337351883,46.957270557,3.204545435));
#843=CARTESIAN_POINT('',(13.900911887,46.080354073,3.272727253));
#844=CARTESIAN_POINT('',(14.464471891,45.20343759,3.340909071));
#845=CARTESIAN_POINT('',(15.252259679,44.520815586,3.409090889));
#846=CARTESIAN_POINT('',(16.040047466,43.838193582,3.477272707));
#847=CARTESIAN_POINT('',(16.988241156,43.405168034,3.545454524));
#848=CARTESIAN_POINT('',(17.936434845,42.972142485,3.613636342));
#849=CARTESIAN_POINT('',(18.968217423,42.823794546,3.68181816));
#850=CARTESIAN_POINT('',(20.,42.675446608,3.749999978));
#851=CARTESIAN_POINT('',(21.031782577,42.823794546,3.818181796));
#852=CARTESIAN_POINT('',(22.063565155,42.972142485,3.886363614));
#853=CARTESIAN_POINT('',(23.011758844,43.405168034,3.954545432));
#854=CARTESIAN_POINT('',(23.326385646,43.548853279,3.977169319));
#855=CARTESIAN_POINT('',(23.625904717,43.721838248,4.000000121));
#856=(BOUNDED_CURVE()
B_SPLINE_CURVE(2,(#809,#810,#811,#812,#813,#814,#815,#816,#817,#818,#819,#820,#821,#822,#823,#824,#825,#826,#827,#828,#829,#830,#831,#832,#833,#834,
#835,#836,#837,#838,#839,#840,#841,#842,#843,#844,#845,#846,#847,#848,#849,#850,#851,#852,#853,#854,#855),.UNSPECIFIED.,.F.,.F.)
B_SPLINE_CURVE_WITH_KNOTS((3,2,2,2,2,2,2,2,2,2,2,2,2,2,2,2,2,2,2,2,2,2,2,3),(0.043861457,0.045454545,0.04784689,0.050239234,0.052631579,0.055023923,0.057416268,0.059808612,0.062200957,0.064593301,0.066985646,0.06937799,0.071770335,0.074162679,0.076555024,0.078947368,0.081339713,0.083732057,0.086124402,0.088516746,0.090909091,0.093301435,0.09569378,0.096493036),.UNSPECIFIED.)
CURVE()
GEOMETRIC_REPRESENTATION_ITEM()
RATIONAL_B_SPLINE_CURVE((0.99547108,0.993221987,1.,0.989821442,1.,0.989821442,1.,0.989821442,1.,0.989821442,1.,0.989821442,1.,0.989821442,1.,0.989821442,1.,0.989821442,1.,0.989821442,1.,0.989821442,1.,0.989821442,1.,0.989821442,
1.,0.989821442,1.,0.989821442,1.,0.989821442,1.,0.989821442,1.,0.989821442,1.,0.989821442,1.,0.989821442,1.,0.989821442,1.,0.989821442,1.,0.996599454,0.995471079))
REPRESENTATION_ITEM(''));
#857=EDGE_CURVE('',#531,#653,#856,.T.);
#858=ORIENTED_EDGE('',*,*,#857,.T.);
#859=ORIENTED_EDGE('',*,*,#709,.T.);
#860=ORIENTED_EDGE('',*,*,#401,.T.);
#861=ORIENTED_EDGE('',*,*,#605,.F.);
#862=CARTESIAN_POINT('',(24.126029316,42.855884793,2.000000121));
#863=CARTESIAN_POINT('',(24.80769028,43.249572891,2.045661514));
#864=CARTESIAN_POINT('',(25.402601055,43.765066012,2.09090908));
#865=CARTESIAN_POINT('',(26.299049227,44.541842774,2.159090898));
#866=CARTESIAN_POINT('',(26.940341646,45.539713256,2.227272716));
#867=CARTESIAN_POINT('',(27.581634065,46.537583738,2.295454534));
#868=CARTESIAN_POINT('',(27.915817032,47.675706406,2.363636352));
#869=CARTESIAN_POINT('',(28.25,48.813829075,2.43181817));
#870=CARTESIAN_POINT('',(28.25,50.,2.499999988));
#871=CARTESIAN_POINT('',(28.25,51.186170925,2.568181805));
#872=CARTESIAN_POINT('',(27.915817032,52.324293594,2.636363623));
#873=CARTESIAN_POINT('',(27.581634065,53.462416262,2.704545441));
#874=CARTESIAN_POINT('',(26.940341646,54.460286744,2.772727259));
#875=CARTESIAN_POINT('',(26.299049227,55.458157226,2.840909077));
#876=CARTESIAN_POINT('',(25.402601055,56.234933988,2.909090895));
#877=CARTESIAN_POINT('',(24.506152883,57.011710751,2.977272713));
#878=CARTESIAN_POINT('',(23.427173857,57.504463962,3.045454531));
#879=CARTESIAN_POINT('',(22.348194832,57.997217172,3.113636349));
#880=CARTESIAN_POINT('',(21.174097416,58.166026896,3.181818166));
#881=CARTESIAN_POINT('',(20.,58.334836619,3.249999984));
#882=CARTESIAN_POINT('',(18.825902584,58.166026896,3.318181802));
#883=CARTESIAN_POINT('',(17.651805168,57.997217172,3.38636362));
#884=CARTESIAN_POINT('',(16.572826143,57.504463962,3.454545438));
#885=CARTESIAN_POINT('',(15.493847117,57.011710751,3.522727256));
#886=CARTESIAN_POINT('',(14.597398945,56.234933988,3.590909074));
#887=CARTESIAN_POINT('',(13.700950773,55.458157226,3.659090892));
#888=CARTESIAN_POINT('',(13.059658354,54.460286744,3.72727271));
#889=CARTESIAN_POINT('',(12.418365935,53.462416262,3.795454528));
#890=CARTESIAN_POINT('',(12.084182968,52.324293594,3.863636345));
#891=CARTESIAN_POINT('',(11.75,51.186170925,3.931818163));
#892=CARTESIAN_POINT('',(11.75,49.999999674,4.));
#893=(BOUNDED_CURVE()
B_SPLINE_CURVE(2,(#862,#863,#864,#865,#866,#867,#868,#869,#870,#871,#872,#873,#874,#875,#876,#877,#878,#879,#880,#881,#882,#883,#884,#885,#886,#887,
#888,#889,#890,#891,#892),.UNSPECIFIED.,.F.,.F.)
B_SPLINE_CURVE_WITH_KNOTS((3,2,2,2,2,2,2,2,2,2,2,2,2,2,2,3),(0.043861457,0.045454545,0.04784689,0.050239235,0.052631579,0.055023924,0.057416268,0.059808613,0.062200957,0.064593302,0.066985646,0.069377991,0.071770335,0.07416268,0.076555024,0.078947369),.UNSPECIFIED.)
CURVE()
GEOMETRIC_REPRESENTATION_ITEM()
RATIONAL_B_SPLINE_CURVE((0.99547108,0.993221987,1.,0.989821442,1.,0.989821442,1.,0.989821442,1.,0.989821442,1.,0.989821442,1.,0.989821442,1.,0.989821442,1.,0.989821442,1.,0.989821442,1.,0.989821442,1.,0.989821442,1.,0.989821442,
1.,0.989821442,1.,0.989821442,1.))
REPRESENTATION_ITEM(''));
#894=EDGE_CURVE('',#540,#566,#893,.T.);
#895=ORIENTED_EDGE('',*,*,#894,.F.);
#896=ORIENTED_EDGE('',*,*,#546,.F.);
#897=EDGE_LOOP('',(#858,#859,#860,#861,#895,#896));
#898=FACE_BOUND('',#897,.T.);
#899=ADVANCED_FACE('',(#898),#808,.T.);
#900=CARTESIAN_POINT('',(27.25,50.00000073,1.000000048));
#901=CARTESIAN_POINT('',(27.249999895,51.042392989,1.068181842));
#902=CARTESIAN_POINT('',(26.956324059,52.042561037,1.136363636));
#903=CARTESIAN_POINT('',(26.662648117,53.042729443,1.204545454));
#904=CARTESIAN_POINT('',(26.099088113,53.919645927,1.272727272));
#905=CARTESIAN_POINT('',(25.535528109,54.79656241,1.340909089));
#906=CARTESIAN_POINT('',(24.747740321,55.479184414,1.409090907));
#907=CARTESIAN_POINT('',(23.959952534,56.161806418,1.477272725));
#908=CARTESIAN_POINT('',(23.011758844,56.594831966,1.545454543));
#909=CARTESIAN_POINT('',(22.063565155,57.027857515,1.613636361));
#910=CARTESIAN_POINT('',(21.031782577,57.176205454,1.681818179));
#911=CARTESIAN_POINT('',(20.,57.324553392,1.749999997));
#912=CARTESIAN_POINT('',(18.968217423,57.176205454,1.818181815));
#913=CARTESIAN_POINT('',(17.936434845,57.027857515,1.886363633));
#914=CARTESIAN_POINT('',(16.988241156,56.594831966,1.954545451));
#915=CARTESIAN_POINT('',(16.040047466,56.161806418,2.022727268));
#916=CARTESIAN_POINT('',(15.252259679,55.479184414,2.090909086));
#917=CARTESIAN_POINT('',(14.464471891,54.79656241,2.159090904));
#918=CARTESIAN_POINT('',(13.900911887,53.919645927,2.227272722));
#919=CARTESIAN_POINT('',(13.337351883,53.042729443,2.29545454));
#920=CARTESIAN_POINT('',(13.043675941,52.042561037,2.363636358));
#921=CARTESIAN_POINT('',(12.75,51.042392631,2.431818176));
#922=CARTESIAN_POINT('',(12.75,50.,2.499999994));
#923=CARTESIAN_POINT('',(12.75,48.957607369,2.568181812));
#924=CARTESIAN_POINT('',(13.043675941,47.957438963,2.63636363));
#925=CARTESIAN_POINT('',(13.337351883,46.957270557,2.704545447));
#926=CARTESIAN_POINT('',(13.900911887,46.080354073,2.772727265));
#927=CARTESIAN_POINT('',(14.464471891,45.20343759,2.840909083));
#928=CARTESIAN_POINT('',(15.252259679,44.520815586,2.909090901));
#929=CARTESIAN_POINT('',(16.040047466,43.838193582,2.977272719));
#930=CARTESIAN_POINT('',(16.988241156,43.405168034,3.045454537));
#931=CARTESIAN_POINT('',(17.936434845,42.972142485,3.113636355));
#932=CARTESIAN_POINT('',(18.968217423,42.823794546,3.181818173));
#933=CARTESIAN_POINT('',(20.,42.675446608,3.249999991));
#934=CARTESIAN_POINT('',(21.031782577,42.823794546,3.318181809));
#935=CARTESIAN_POINT('',(22.063565155,42.972142485,3.386363626));
#936=CARTESIAN_POINT('',(23.011758844,43.405168034,3.454545444));
#937=CARTESIAN_POINT('',(23.959952534,43.838193582,3.522727262));
#938=CARTESIAN_POINT('',(24.747740321,44.520815586,3.59090908));
#939=CARTESIAN_POINT('',(25.535528109,45.20343759,3.659090898));
#940=CARTESIAN_POINT('',(26.099088113,46.080354073,3.727272716));
#941=CARTESIAN_POINT('',(26.662648117,46.957270557,3.795454534));
#942=CARTESIAN_POINT('',(26.956324059,47.957438963,3.863636352));
#943=CARTESIAN_POINT('',(27.25,48.957607369,3.93181817));
#944=CARTESIAN_POINT('',(27.25,50.,3.999999988));
#945=CARTESIAN_POINT('',(27.25,51.042392631,4.068181805));
#946=CARTESIAN_POINT('',(26.956324059,52.042561037,4.136363623));
#947=CARTESIAN_POINT('',(26.662648117,53.042729443,4.204545441));
#948=CARTESIAN_POINT('',(26.099088113,53.919645927,4.272727259));
#949=CARTESIAN_POINT('',(25.535528109,54.79656241,4.340909077));
#950=CARTESIAN_POINT('',(24.747740321,55.479184414,4.409090895));
#951=CARTESIAN_POINT('',(23.959952534,56.161806418,4.477272713));
#952=CARTESIAN_POINT('',(23.011758844,56.594831966,4.545454531));
#953=CARTESIAN_POINT('',(22.063565155,57.027857515,4.613636349));
#954=CARTESIAN_POINT('',(21.031782577,57.176205454,4.681818166));
#955=CARTESIAN_POINT('',(20.,57.324553392,4.749999984));
#956=CARTESIAN_POINT('',(18.968217423,57.176205454,4.818181802));
#957=CARTESIAN_POINT('',(17.936434845,57.027857515,4.88636362));
#958=CARTESIAN_POINT('',(16.988241156,56.594831966,4.954545438));
#959=CARTESIAN_POINT('',(16.673615233,56.451147122,4.977169262));
#960=CARTESIAN_POINT('',(16.374096952,56.278162716,5.));
#961=CARTESIAN_POINT('',(28.25,50.000000831,0.000000048));
#962=CARTESIAN_POINT('',(28.24999988,51.186171332,0.068181842));
#963=CARTESIAN_POINT('',(27.915817032,52.324293594,0.136363636));
#964=CARTESIAN_POINT('',(27.581634065,53.462416262,0.204545454));
#965=CARTESIAN_POINT('',(26.940341646,54.460286744,0.272727272));
#966=CARTESIAN_POINT('',(26.299049227,55.458157226,0.340909089));
#967=CARTESIAN_POINT('',(25.402601055,56.234933988,0.409090907));
#968=CARTESIAN_POINT('',(24.506152883,57.011710751,0.477272725));
#969=CARTESIAN_POINT('',(23.427173857,57.504463962,0.545454543));
#970=CARTESIAN_POINT('',(22.348194832,57.997217172,0.613636361));
#971=CARTESIAN_POINT('',(21.174097416,58.166026896,0.681818179));
#972=CARTESIAN_POINT('',(20.,58.334836619,0.749999997));
#973=CARTESIAN_POINT('',(18.825902584,58.166026896,0.818181815));
#974=CARTESIAN_POINT('',(17.651805168,57.997217172,0.886363633));
#975=CARTESIAN_POINT('',(16.572826143,57.504463962,0.954545451));
#976=CARTESIAN_POINT('',(15.493847117,57.011710751,1.022727268));
#977=CARTESIAN_POINT('',(14.597398945,56.234933988,1.090909086));
#978=CARTESIAN_POINT('',(13.700950773,55.458157226,1.159090904));
#979=CARTESIAN_POINT('',(13.059658354,54.460286744,1.227272722));
#980=CARTESIAN_POINT('',(12.418365935,53.462416262,1.29545454));
#981=CARTESIAN_POINT('',(12.084182968,52.324293594,1.363636358));
#982=CARTESIAN_POINT('',(11.75,51.186170925,1.431818176));
#983=CARTESIAN_POINT('',(11.75,50.,1.499999994));
#984=CARTESIAN_POINT('',(11.75,48.813829075,1.568181812));
#985=CARTESIAN_POINT('',(12.084182968,47.675706406,1.63636363));
#986=CARTESIAN_POINT('',(12.418365935,46.537583738,1.704545447));
#987=CARTESIAN_POINT('',(13.059658354,45.539713256,1.772727265));
#988=CARTESIAN_POINT('',(13.700950773,44.541842774,1.840909083));
#989=CARTESIAN_POINT('',(14.597398945,43.765066012,1.909090901));
#990=CARTESIAN_POINT('',(15.493847117,42.988289249,1.977272719));
#991=CARTESIAN_POINT('',(16.572826143,42.495536038,2.045454537));
#992=CARTESIAN_POINT('',(17.651805168,42.002782828,2.113636355));
#993=CARTESIAN_POINT('',(18.825902584,41.833973104,2.181818173));
#994=CARTESIAN_POINT('',(20.,41.665163381,2.249999991));
#995=CARTESIAN_POINT('',(21.174097416,41.833973104,2.318181809));
#996=CARTESIAN_POINT('',(22.348194832,42.002782828,2.386363626));
#997=CARTESIAN_POINT('',(23.427173857,42.495536038,2.454545444));
#998=CARTESIAN_POINT('',(24.506152883,42.988289249,2.522727262));
#999=CARTESIAN_POINT('',(25.402601055,43.765066012,2.59090908));
#1000=CARTESIAN_POINT('',(26.299049227,44.541842774,2.659090898));
#1001=CARTESIAN_POINT('',(26.940341646,45.539713256,2.727272716));
#1002=CARTESIAN_POINT('',(27.581634065,46.537583738,2.795454534));
#1003=CARTESIAN_POINT('',(27.915817032,47.675706406,2.863636352));
#1004=CARTESIAN_POINT('',(28.25,48.813829075,2.93181817));
#1005=CARTESIAN_POINT('',(28.25,50.,2.999999988));
#1006=CARTESIAN_POINT('',(28.25,51.186170925,3.068181805));
#1007=CARTESIAN_POINT('',(27.915817032,52.324293594,3.136363623));
#1008=CARTESIAN_POINT('',(27.581634065,53.462416262,3.204545441));
#1009=CARTESIAN_POINT('',(26.940341646,54.460286744,3.272727259));
#1010=CARTESIAN_POINT('',(26.299049227,55.458157226,3.340909077));
#1011=CARTESIAN_POINT('',(25.402601055,56.234933988,3.409090895));
#1012=CARTESIAN_POINT('',(24.506152883,57.011710751,3.477272713));
#1013=CARTESIAN_POINT('',(23.427173857,57.504463962,3.545454531));
#1014=CARTESIAN_POINT('',(22.348194832,57.997217172,3.613636349));
#1015=CARTESIAN_POINT('',(21.174097416,58.166026896,3.681818166));
#1016=CARTESIAN_POINT('',(20.,58.334836619,3.749999984));
#1017=CARTESIAN_POINT('',(18.825902584,58.166026896,3.818181802));
#1018=CARTESIAN_POINT('',(17.651805168,57.997217172,3.88636362));
#1019=CARTESIAN_POINT('',(16.572826143,57.504463962,3.954545438));
#1020=CARTESIAN_POINT('',(16.214803541,57.340960518,3.977169262));
#1021=CARTESIAN_POINT('',(15.873972393,57.144116194,4.));
#1022=(BOUNDED_SURFACE()
B_SPLINE_SURFACE(1,2,((#900,#901,#902,#903,#904,#905,#906,#907,#908,#909,#910,#911,#912,#913,#914,#915,#916,#917,#918,#919,#920,#921,#922,#923,#924,#925,
#926,#927,#928,#929,#930,#931,#932,#933,#934,#935,#936,#937,#938,#939,#940,#941,#942,#943,#944,#945,#946,#947,#948,#949,#950,
#951,#952,#953,#954,#955,#956,#957,#958,#959,#960),(#961,#962,#963,#964,#965,#966,#967,#968,#969,#970,#971,#972,#973,#974,#975,#976,#977,#978,#979,#980,#981,#982,#983,#984,#985,#986,
#987,#988,#989,#990,#991,#992,#993,#994,#995,#996,#997,#998,#999,#1000,#1001,#1002,#1003,#1004,#1005,#1006,#1007,#1008,#1009,#1010,#1011,
#1012,#1013,#1014,#1015,#1016,#1017,#1018,#1019,#1020,#1021)),.UNSPECIFIED.,.F.,.F.,.U.)
B_SPLINE_SURFACE_WITH_KNOTS((2,2),(3,2,2,2,2,2,2,2,2,2,2,2,2,2,2,2,2,2,2,2,2,2,2,2,2,2,
2,2,2,2,3),(0.,1.),(0.000000001,0.002392344,0.004784689,0.007177033,0.009569378,0.011961722,0.014354067,0.016746411,0.019138756,0.0215311,0.023923445,0.026315789,0.028708134,0.031100478,0.033492823,0.035885167,0.038277512,0.040669856,0.043062201,0.045454545,0.04784689,0.050239234,0.052631579,0.055023923,0.057416268,0.059808612,
0.062200957,0.064593301,0.066985646,0.06937799,0.070177245),.UNSPECIFIED.)
GEOMETRIC_REPRESENTATION_ITEM()
RATIONAL_B_SPLINE_SURFACE(((0.999999993,0.989821445,1.,0.989821442,1.,0.989821442,1.,0.989821442,1.,0.989821442,1.,0.989821442,1.,0.989821442,1.,0.989821442,1.,0.989821442,1.,0.989821442,1.,0.989821442,1.,0.989821442,1.,0.989821442,
1.,0.989821442,1.,0.989821442,1.,0.989821442,1.,0.989821442,1.,0.989821442,1.,0.989821442,1.,0.989821442,1.,0.989821442,1.,0.989821442,1.,0.989821442,1.,0.989821442,1.,0.989821442,1.,
0.989821442,1.,0.989821442,1.,0.989821442,1.,0.989821442,1.,0.996599463,0.995471085),(0.999999993,0.989821445,1.,0.989821442,1.,0.989821442,1.,0.989821442,1.,0.989821442,1.,0.989821442,1.,0.989821442,1.,0.989821442,1.,0.989821442,1.,0.989821442,1.,0.989821442,1.,0.989821442,1.,0.989821442,
1.,0.989821442,1.,0.989821442,1.,0.989821442,1.,0.989821442,1.,0.989821442,1.,0.989821442,1.,0.989821442,1.,0.989821442,1.,0.989821442,1.,0.989821442,1.,0.989821442,1.,0.989821442,1.,
0.989821442,1.,0.989821442,1.,0.989821442,1.,0.989821442,1.,0.996599463,0.995471085)))
REPRESENTATION_ITEM('')
SURFACE()
);
#1023=CARTESIAN_POINT('',(15.873970964,42.855884632,1.999999879));
#1024=CARTESIAN_POINT('',(16.214802789,42.659039826,2.022830665));
#1025=CARTESIAN_POINT('',(16.572826143,42.495536038,2.045454537));
#1026=CARTESIAN_POINT('',(17.651805168,42.002782828,2.113636355));
#1027=CARTESIAN_POINT('',(18.825902584,41.833973104,2.181818173));
#1028=CARTESIAN_POINT('',(20.,41.665163381,2.249999991));
#1029=CARTESIAN_POINT('',(21.174097416,41.833973104,2.318181809));
#1030=CARTESIAN_POINT('',(22.348194832,42.002782828,2.386363626));
#1031=CARTESIAN_POINT('',(23.427173857,42.495536038,2.454545444));
#1032=CARTESIAN_POINT('',(24.506152883,42.988289249,2.522727262));
#1033=CARTESIAN_POINT('',(25.402601055,43.765066012,2.59090908));
#1034=CARTESIAN_POINT('',(26.299049227,44.541842774,2.659090898));
#1035=CARTESIAN_POINT('',(26.940341646,45.539713256,2.727272716));
#1036=CARTESIAN_POINT('',(27.581634065,46.537583738,2.795454534));
#1037=CARTESIAN_POINT('',(27.915817032,47.675706406,2.863636352));
#1038=CARTESIAN_POINT('',(28.25,48.813829075,2.93181817));
#1039=CARTESIAN_POINT('',(28.25,50.,2.999999988));
#1040=CARTESIAN_POINT('',(28.25,51.186170925,3.068181805));
#1041=CARTESIAN_POINT('',(27.915817032,52.324293594,3.136363623));
#1042=CARTESIAN_POINT('',(27.581634065,53.462416262,3.204545441));
#1043=CARTESIAN_POINT('',(26.940341646,54.460286744,3.272727259));
#1044=CARTESIAN_POINT('',(26.299049227,55.458157226,3.340909077));
#1045=CARTESIAN_POINT('',(25.402601055,56.234933988,3.409090895));
#1046=CARTESIAN_POINT('',(24.506152883,57.011710751,3.477272713));
#1047=CARTESIAN_POINT('',(23.427173857,57.504463962,3.545454531));
#1048=CARTESIAN_POINT('',(22.348194832,57.997217172,3.613636349));
#1049=CARTESIAN_POINT('',(21.174097416,58.166026896,3.681818166));
#1050=CARTESIAN_POINT('',(20.,58.334836619,3.749999984));
#1051=CARTESIAN_POINT('',(18.825902584,58.166026896,3.818181802));
#1052=CARTESIAN_POINT('',(17.651805168,57.997217172,3.88636362));
#1053=CARTESIAN_POINT('',(16.572826143,57.504463962,3.954545438));
#1054=CARTESIAN_POINT('',(16.214802592,57.340960085,3.977169322));
#1055=CARTESIAN_POINT('',(15.873970591,57.144115153,4.000000121));
#1056=(BOUNDED_CURVE()
B_SPLINE_CURVE(2,(#1023,#1024,#1025,#1026,#1027,#1028,#1029,#1030,#1031,#1032,#1033,#1034,#1035,#1036,#1037,#1038,#1039,#1040,#1041,#1042,#1043,#1044,#1045,#1046,#1047,#1048,
#1049,#1050,#1051,#1052,#1053,#1054,#1055),.UNSPECIFIED.,.F.,.F.)
B_SPLINE_CURVE_WITH_KNOTS((3,2,2,2,2,2,2,2,2,2,2,2,2,2,2,2,3),(0.035085912,0.035885167,0.038277512,0.040669856,0.043062201,0.045454545,0.04784689,0.050239234,0.052631579,0.055023923,0.057416268,0.059808612,0.062200957,0.064593301,0.066985646,0.06937799,0.070177247),.UNSPECIFIED.)
CURVE()
GEOMETRIC_REPRESENTATION_ITEM()
RATIONAL_B_SPLINE_CURVE((0.99547108,0.996599456,1.,0.989821442,1.,0.989821442,1.,0.989821442,1.,0.989821442,1.,0.989821442,1.,0.989821442,1.,0.989821442,1.,0.989821442,1.,0.989821442,1.,0.989821442,1.,0.989821442,1.,0.989821442,
1.,0.989821442,1.,0.989821442,1.,0.996599454,0.995471079))
REPRESENTATION_ITEM(''));
#1057=EDGE_CURVE('',#412,#564,#1056,.T.);
#1058=ORIENTED_EDGE('',*,*,#1057,.T.);
#1059=ORIENTED_EDGE('',*,*,#642,.T.);
#1060=ORIENTED_EDGE('',*,*,#346,.T.);
#1061=CARTESIAN_POINT('',(27.25,50.,1.));
#1062=CARTESIAN_POINT('',(27.25,51.042392631,1.068181818));
#1063=CARTESIAN_POINT('',(26.956324059,52.042561037,1.136363636));
#1064=CARTESIAN_POINT('',(26.662648117,53.042729443,1.204545454));
#1065=CARTESIAN_POINT('',(26.099088113,53.919645927,1.272727272));
#1066=CARTESIAN_POINT('',(25.535528109,54.79656241,1.340909089));
#1067=CARTESIAN_POINT('',(24.747740321,55.479184414,1.409090907));
#1068=CARTESIAN_POINT('',(23.959952534,56.161806418,1.477272725));
#1069=CARTESIAN_POINT('',(23.011758844,56.594831966,1.545454543));
#1070=CARTESIAN_POINT('',(22.063565155,57.027857515,1.613636361));
#1071=CARTESIAN_POINT('',(21.031782577,57.176205454,1.681818179));
#1072=CARTESIAN_POINT('',(20.,57.324553392,1.749999997));
#1073=CARTESIAN_POINT('',(18.968217423,57.176205454,1.818181815));
#1074=CARTESIAN_POINT('',(17.936434845,57.027857515,1.886363633));
#1075=CARTESIAN_POINT('',(16.988241156,56.594831966,1.954545451));
#1076=CARTESIAN_POINT('',(16.040047466,56.161806418,2.022727268));
#1077=CARTESIAN_POINT('',(15.252259679,55.479184414,2.090909086));
#1078=CARTESIAN_POINT('',(14.464471891,54.79656241,2.159090904));
#1079=CARTESIAN_POINT('',(13.900911887,53.919645927,2.227272722));
#1080=CARTESIAN_POINT('',(13.337351883,53.042729443,2.29545454));
#1081=CARTESIAN_POINT('',(13.043675941,52.042561037,2.363636358));
#1082=CARTESIAN_POINT('',(12.75,51.042392631,2.431818176));
#1083=CARTESIAN_POINT('',(12.75,50.,2.499999994));
#1084=CARTESIAN_POINT('',(12.75,48.957607369,2.568181812));
#1085=CARTESIAN_POINT('',(13.043675941,47.957438963,2.63636363));
#1086=CARTESIAN_POINT('',(13.337351883,46.957270557,2.704545447));
#1087=CARTESIAN_POINT('',(13.900911887,46.080354073,2.772727265));
#1088=CARTESIAN_POINT('',(14.464471891,45.20343759,2.840909083));
#1089=CARTESIAN_POINT('',(15.252259679,44.520815586,2.909090901));
#1090=CARTESIAN_POINT('',(16.040047466,43.838193582,2.977272719));
#1091=CARTESIAN_POINT('',(16.988241156,43.405168034,3.045454537));
#1092=CARTESIAN_POINT('',(17.936434845,42.972142485,3.113636355));
#1093=CARTESIAN_POINT('',(18.968217423,42.823794546,3.181818173));
#1094=CARTESIAN_POINT('',(20.,42.675446608,3.249999991));
#1095=CARTESIAN_POINT('',(21.031782577,42.823794546,3.318181809));
#1096=CARTESIAN_POINT('',(22.063565155,42.972142485,3.386363626));
#1097=CARTESIAN_POINT('',(23.011758844,43.405168034,3.454545444));
#1098=CARTESIAN_POINT('',(23.959952534,43.838193582,3.522727262));
#1099=CARTESIAN_POINT('',(24.747740321,44.520815586,3.59090908));
#1100=CARTESIAN_POINT('',(25.535528109,45.20343759,3.659090898));
#1101=CARTESIAN_POINT('',(26.099088113,46.080354073,3.727272716));
#1102=CARTESIAN_POINT('',(26.662648117,46.957270557,3.795454534));
#1103=CARTESIAN_POINT('',(26.956324059,47.957438963,3.863636352));
#1104=CARTESIAN_POINT('',(27.25,48.957607369,3.93181817));
#1105=CARTESIAN_POINT('',(27.25,50.000000191,4.));
#1106=(BOUNDED_CURVE()
B_SPLINE_CURVE(2,(#1061,#1062,#1063,#1064,#1065,#1066,#1067,#1068,#1069,#1070,#1071,#1072,#1073,#1074,#1075,#1076,#1077,#1078,#1079,#1080,#1081,#1082,#1083,#1084,#1085,#1086,
#1087,#1088,#1089,#1090,#1091,#1092,#1093,#1094,#1095,#1096,#1097,#1098,#1099,#1100,#1101,#1102,#1103,#1104,#1105),.UNSPECIFIED.,.F.,.F.)
B_SPLINE_CURVE_WITH_KNOTS((3,2,2,2,2,2,2,2,2,2,2,2,2,2,2,2,2,2,2,2,2,2,3),(0.,0.002392345,0.004784689,0.007177034,0.009569378,0.011961723,0.014354067,0.016746412,0.019138756,0.021531101,0.023923445,0.02631579,0.028708134,0.031100479,0.033492823,0.035885168,0.038277512,0.040669857,0.043062201,0.045454546,0.04784689,0.050239235,0.052631579),.UNSPECIFIED.)
CURVE()
GEOMETRIC_REPRESENTATION_ITEM()
RATIONAL_B_SPLINE_CURVE((1.,0.989821442,1.,0.989821442,1.,0.989821442,1.,0.989821442,1.,0.989821442,1.,0.989821442,1.,0.989821442,1.,0.989821442,1.,0.989821442,1.,0.989821442,1.,0.989821442,1.,0.989821442,1.,0.989821442,
1.,0.989821442,1.,0.989821442,1.,0.989821442,1.,0.989821442,1.,0.989821442,1.,0.989821442,1.,0.989821442,1.,0.989821442,1.,0.989821442,1.))
REPRESENTATION_ITEM(''));
#1107=EDGE_CURVE('',#414,#284,#1106,.T.);
#1108=ORIENTED_EDGE('',*,*,#1107,.F.);
#1109=ORIENTED_EDGE('',*,*,#528,.F.);
#1110=EDGE_LOOP('',(#1058,#1059,#1060,#1108,#1109));
#1111=FACE_BOUND('',#1110,.T.);
#1112=ADVANCED_FACE('',(#1111),#1022,.T.);
#1113=CARTESIAN_POINT('',(20.,50.,0.));
#1114=DIRECTION('',(0.,0.,1.));
#1115=DIRECTION('',(1.,0.,-0.));
#1116=AXIS2_PLACEMENT_3D('',#1113,#1114,#1115);
#1117=CYLINDRICAL_SURFACE('',#1116,8.25);
#1118=ORIENTED_EDGE('',*,*,#571,.F.);
#1119=ORIENTED_EDGE('',*,*,#1057,.F.);
#1120=ORIENTED_EDGE('',*,*,#553,.T.);
#1121=ORIENTED_EDGE('',*,*,#894,.T.);
#1122=EDGE_LOOP('',(#1118,#1119,#1120,#1121));
#1123=FACE_BOUND('',#1122,.T.);
#1124=ADVANCED_FACE('',(#1123),#1117,.T.);
#1125=CARTESIAN_POINT('',(20.,50.,0.));
#1126=DIRECTION('',(0.,0.,1.));
#1127=DIRECTION('',(1.,0.,-0.));
#1128=AXIS2_PLACEMENT_3D('',#1125,#1126,#1127);
#1129=CYLINDRICAL_SURFACE('',#1128,7.25);
#1130=ORIENTED_EDGE('',*,*,#658,.T.);
#1131=ORIENTED_EDGE('',*,*,#857,.F.);
#1132=ORIENTED_EDGE('',*,*,#537,.F.);
#1133=ORIENTED_EDGE('',*,*,#1107,.T.);
#1134=EDGE_LOOP('',(#1130,#1131,#1132,#1133));
#1135=FACE_BOUND('',#1134,.T.);
#1136=ADVANCED_FACE('',(#1135),#1129,.F.);
#1137=CLOSED_SHELL('',(#405,#557,#646,#713,#899,#1112,#1124,#1136));
#1138=MANIFOLD_SOLID_BREP('Body 04 (1)*',#1137);
#277=STYLED_ITEM('',(#154),#1138);
#1140=CARTESIAN_POINT('',(20.,50.,0.));
#1141=DIRECTION('',(0.,0.,1.));
#1142=DIRECTION('',(1.,0.,-0.));
#1143=AXIS2_PLACEMENT_3D('',#1140,#1141,#1142);
#1144=CONICAL_SURFACE('',#1143,6.25,45.);
#1145=CARTESIAN_POINT('',(27.25,50.,1.));
#1146=VERTEX_POINT('',#1145);
#1147=CARTESIAN_POINT('',(27.05,50.,0.8));
#1148=VERTEX_POINT('',#1147);
#1149=CARTESIAN_POINT('',(27.25,50.,1.));
#1150=DIRECTION('',(-0.707106781,-0.,-0.707106781));
#1151=VECTOR('',#1150,0.282842712);
#1152=LINE('',#1149,#1151);
#1153=EDGE_CURVE('',#1146,#1148,#1152,.T.);
#1154=ORIENTED_EDGE('',*,*,#1153,.T.);
#1155=CARTESIAN_POINT('',(12.95,50.,0.8));
#1156=VERTEX_POINT('',#1155);
#1157=CARTESIAN_POINT('',(20.,50.,0.8));
#1158=DIRECTION('',(0.,0.,-1.));
#1159=DIRECTION('',(-1.,0.,0.));
#1160=AXIS2_PLACEMENT_3D('',#1157,#1158,#1159);
#1161=CIRCLE('',#1160,7.05);
#1162=EDGE_CURVE('',#1156,#1148,#1161,.T.);
#1163=ORIENTED_EDGE('',*,*,#1162,.F.);
#1164=CARTESIAN_POINT('',(20.,50.,0.8));
#1165=DIRECTION('',(0.,0.,-1.));
#1166=DIRECTION('',(-1.,0.,0.));
#1167=AXIS2_PLACEMENT_3D('',#1164,#1165,#1166);
#1168=CIRCLE('',#1167,7.05);
#1169=EDGE_CURVE('',#1148,#1156,#1168,.T.);
#1170=ORIENTED_EDGE('',*,*,#1169,.F.);
#1171=ORIENTED_EDGE('',*,*,#1153,.F.);
#1172=CARTESIAN_POINT('',(12.75,50.,1.));
#1173=VERTEX_POINT('',#1172);
#1174=CARTESIAN_POINT('',(20.,50.,1.));
#1175=DIRECTION('',(0.,0.,1.));
#1176=DIRECTION('',(1.,0.,-0.));
#1177=AXIS2_PLACEMENT_3D('',#1174,#1175,#1176);
#1178=CIRCLE('',#1177,7.25);
#1179=EDGE_CURVE('',#1173,#1146,#1178,.T.);
#1180=ORIENTED_EDGE('',*,*,#1179,.F.);
#1181=CARTESIAN_POINT('',(20.,50.,1.));
#1182=DIRECTION('',(0.,0.,1.));
#1183=DIRECTION('',(1.,0.,-0.));
#1184=AXIS2_PLACEMENT_3D('',#1181,#1182,#1183);
#1185=CIRCLE('',#1184,7.25);
#1186=EDGE_CURVE('',#1146,#1173,#1185,.T.);
#1187=ORIENTED_EDGE('',*,*,#1186,.F.);
#1188=EDGE_LOOP('',(#1154,#1163,#1170,#1171,#1180,#1187));
#1189=FACE_BOUND('',#1188,.T.);
#1190=ADVANCED_FACE('',(#1189),#1144,.T.);
#1191=CARTESIAN_POINT('',(20.,50.,50.));
#1192=DIRECTION('',(0.,0.,-1.));
#1193=DIRECTION('',(-1.,0.,0.));
#1194=AXIS2_PLACEMENT_3D('',#1191,#1192,#1193);
#1195=CYLINDRICAL_SURFACE('',#1194,7.25);
#1196=CARTESIAN_POINT('',(12.75,50.,4.));
#1197=VERTEX_POINT('',#1196);
#1198=CARTESIAN_POINT('',(12.75,50.,1.));
#1199=DIRECTION('',(-0.,-0.,1.));
#1200=VECTOR('',#1199,3.);
#1201=LINE('',#1198,#1200);
#1202=EDGE_CURVE('',#1173,#1197,#1201,.T.);
#1203=ORIENTED_EDGE('',*,*,#1202,.T.);
#1204=CARTESIAN_POINT('',(27.25,50.,4.));
#1205=VERTEX_POINT('',#1204);
#1206=CARTESIAN_POINT('',(20.,50.,4.));
#1207=DIRECTION('',(0.,0.,1.));
#1208=DIRECTION('',(1.,0.,-0.));
#1209=AXIS2_PLACEMENT_3D('',#1206,#1207,#1208);
#1210=CIRCLE('',#1209,7.25);
#1211=EDGE_CURVE('',#1205,#1197,#1210,.T.);
#1212=ORIENTED_EDGE('',*,*,#1211,.F.);
#1213=CARTESIAN_POINT('',(20.,50.,4.));
#1214=DIRECTION('',(0.,0.,1.));
#1215=DIRECTION('',(1.,0.,-0.));
#1216=AXIS2_PLACEMENT_3D('',#1213,#1214,#1215);
#1217=CIRCLE('',#1216,7.25);
#1218=EDGE_CURVE('',#1197,#1205,#1217,.T.);
#1219=ORIENTED_EDGE('',*,*,#1218,.F.);
#1220=ORIENTED_EDGE('',*,*,#1202,.F.);
#1221=ORIENTED_EDGE('',*,*,#1179,.T.);
#1222=ORIENTED_EDGE('',*,*,#1186,.T.);
#1223=EDGE_LOOP('',(#1203,#1212,#1219,#1220,#1221,#1222));
#1224=FACE_BOUND('',#1223,.T.);
#1225=ADVANCED_FACE('',(#1224),#1195,.T.);
#1226=CARTESIAN_POINT('',(20.,50.,4.));
#1227=DIRECTION('',(0.,0.,1.));
#1228=DIRECTION('',(1.,0.,0.));
#1229=AXIS2_PLACEMENT_3D('',#1226,#1227,#1228);
#1230=PLANE('',#1229);
#1231=ORIENTED_EDGE('',*,*,#1211,.T.);
#1232=ORIENTED_EDGE('',*,*,#1218,.T.);
#1233=EDGE_LOOP('',(#1231,#1232));
#1234=FACE_BOUND('',#1233,.T.);
#1235=ADVANCED_FACE('',(#1234),#1230,.T.);
#1236=CARTESIAN_POINT('',(20.,50.,0.6));
#1237=DIRECTION('',(0.,0.,1.));
#1238=DIRECTION('',(1.,0.,-0.));
#1239=AXIS2_PLACEMENT_3D('',#1236,#1237,#1238);
#1240=CYLINDRICAL_SURFACE('',#1239,7.05);
#1241=CARTESIAN_POINT('',(27.05,50.,0.6));
#1242=VERTEX_POINT('',#1241);
#1243=CARTESIAN_POINT('',(27.05,50.,0.8));
#1244=DIRECTION('',(-0.,-0.,-1.));
#1245=VECTOR('',#1244,0.2);
#1246=LINE('',#1243,#1245);
#1247=EDGE_CURVE('',#1148,#1242,#1246,.T.);
#1248=ORIENTED_EDGE('',*,*,#1247,.T.);
#1249=CARTESIAN_POINT('',(12.95,50.,0.6));
#1250=VERTEX_POINT('',#1249);
#1251=CARTESIAN_POINT('',(20.,50.,0.6));
#1252=DIRECTION('',(0.,0.,-1.));
#1253=DIRECTION('',(-1.,0.,0.));
#1254=AXIS2_PLACEMENT_3D('',#1251,#1252,#1253);
#1255=CIRCLE('',#1254,7.05);
#1256=EDGE_CURVE('',#1250,#1242,#1255,.T.);
#1257=ORIENTED_EDGE('',*,*,#1256,.F.);
#1258=CARTESIAN_POINT('',(20.,50.,0.6));
#1259=DIRECTION('',(0.,0.,-1.));
#1260=DIRECTION('',(-1.,0.,0.));
#1261=AXIS2_PLACEMENT_3D('',#1258,#1259,#1260);
#1262=CIRCLE('',#1261,7.05);
#1263=EDGE_CURVE('',#1242,#1250,#1262,.T.);
#1264=ORIENTED_EDGE('',*,*,#1263,.F.);
#1265=ORIENTED_EDGE('',*,*,#1247,.F.);
#1266=ORIENTED_EDGE('',*,*,#1169,.T.);
#1267=ORIENTED_EDGE('',*,*,#1162,.T.);
#1268=EDGE_LOOP('',(#1248,#1257,#1264,#1265,#1266,#1267));
#1269=FACE_BOUND('',#1268,.T.);
#1270=ADVANCED_FACE('',(#1269),#1240,.T.);
#1271=CARTESIAN_POINT('',(20.,50.,0.6));
#1272=DIRECTION('',(0.,0.,-1.));
#1273=DIRECTION('',(-1.,0.,0.));
#1274=AXIS2_PLACEMENT_3D('',#1271,#1272,#1273);
#1275=PLANE('',#1274);
#1276=ORIENTED_EDGE('',*,*,#1256,.T.);
#1277=ORIENTED_EDGE('',*,*,#1263,.T.);
#1278=EDGE_LOOP('',(#1276,#1277));
#1279=FACE_BOUND('',#1278,.T.);
#1280=ADVANCED_FACE('',(#1279),#1275,.T.);
#1281=CLOSED_SHELL('',(#1190,#1225,#1235,#1270,#1280));
#1282=MANIFOLD_SOLID_BREP('Body 01* (1)***',#1281);
#1139=STYLED_ITEM('',(#154),#1282);
#16=SHAPE_REPRESENTATION('openGrid Multiconnect Thread Modeling Lite Mount Negative',(#15),#10);
#17=ADVANCED_BREP_SHAPE_REPRESENTATION('openGrid Multiconnect Thread Modeling Lite Mount Negative',(#147,#276,#1138,#1282),#10);
#1290=SHAPE_REPRESENTATION_RELATIONSHIP('','',#16,#17);
#1291=CARTESIAN_POINT('',(0.,0.,0.));
#1292=DIRECTION('',(0.,0.,1.));
#1293=DIRECTION('',(1.,0.,0.));
#1294=AXIS2_PLACEMENT_3D('',#1291,#1292,#1293);
#1296=MAPPED_ITEM('',#1295,#1294);
#1295=REPRESENTATION_MAP(#1294,#16);
#1297=APPLICATION_CONTEXT('Managed model based 3d engineering');
#1298=APPLICATION_PROTOCOL_DEFINITION('international standard','ap242_managed_model_based_3d_engineering',2014,#1297);
#1299=PRODUCT_CONTEXT('',#1297,'mechanical');
#1300=PRODUCT_DEFINITION_CONTEXT('part definition',#1297,'design');
#24=PRODUCT('openGrid Multiconnect Thread Modeling Lite Mount Negative','openGrid Multiconnect Thread Modeling Lite Mount Negative','',(#1299));
#1301=PRODUCT_RELATED_PRODUCT_CATEGORY('part','',(#24));
#1302=PRODUCT_DEFINITION_FORMATION_WITH_SPECIFIED_SOURCE('','',#24,.NOT_KNOWN.);
#25=PRODUCT_DEFINITION('design','',#1302,#1300);
#23=PRODUCT_DEFINITION_SHAPE('','',#25);
#1303=SHAPE_DEFINITION_REPRESENTATION(#23,#16);
#11=DRAUGHTING_MODEL('',(#1296),#10);
#1304=DESCRIPTIVE_REPRESENTATION_ITEM('KEY','/Users/ddanier/Library/Containers/com.shapr3d.shapr/Data/tmp/20BE608C-EC59-4E7D-BC91-104AC5C6C447.tmp');
#1305=PROPERTY_DEFINITION('KEY','',#25);
#1306=REPRESENTATION('',(#1304),#10);
#1307=PROPERTY_DEFINITION_REPRESENTATION(#1305,#1306);
#1308=GENERAL_PROPERTY('','KEY','');
#1309=GENERAL_PROPERTY_ASSOCIATION('','',#1308,#1305);
#1=MECHANICAL_DESIGN_GEOMETRIC_PRESENTATION_REPRESENTATION('',(#26,#155,#277,#1139),#10);
ENDSEC;
END-ISO-10303-21;
