ISO-10303-21;
HEADER;

/* File generated by Shapr3D Version 5.800.0.8232 */

FILE_DESCRIPTION(('HOOPS Exchange Step'),'2;1');

FILE_NAME('/Users/ddanier/Library/Containers/com.shapr3d.shapr/Data/tmp/export/temp_export',
'2025-03-02T22:00:28+01:00',
('ddanier'),
('Shapr3D Limited'),
'HOOPS Exchange 2024.8',
'Shapr3D',
'Authorized');

FILE_SCHEMA( ('AP242_MANAGED_MODEL_BASED_3D_ENGINEERING_MIM_LF {1 0 10303 442 1 1 4}') );

ENDSEC;

DATA;
#3=(NAMED_UNIT(*)PLANE_ANGLE_UNIT()SI_UNIT($,.RADIAN.));
#4=PLANE_ANGLE_MEASURE_WITH_UNIT(PLANE_ANGLE_MEASURE(0.0174532925),#3);
#5=(CONVERSION_BASED_UNIT('DEGREE',#4)NAMED_UNIT(#6)PLANE_ANGLE_UNIT());
#6=DIMENSIONAL_EXPONENTS(0.,0.,0.,0.,0.,0.,0.);
#7=(NAMED_UNIT(*)SI_UNIT($,.STERADIAN.)SOLID_ANGLE_UNIT());
#8=(LENGTH_UNIT()NAMED_UNIT(*)SI_UNIT(.MILLI.,.METRE.));
#9=UNCERTAINTY_MEASURE_WITH_UNIT(LENGTH_MEASURE(1.000000E-05),#8,'DISTANCE_ACCURACY_VALUE','Maximum Tolerance applied to model');
#10=(GEOMETRIC_REPRESENTATION_CONTEXT(3)GLOBAL_UNCERTAINTY_ASSIGNED_CONTEXT((#9))GLOBAL_UNIT_ASSIGNED_CONTEXT((#8,#5,#7))REPRESENTATION_CONTEXT('','EXAMPLE 1x Snap In Embed Back'));
#12=CARTESIAN_POINT('',(0.,0.,0.));
#13=DIRECTION('',(0.,0.,1.));
#14=DIRECTION('',(1.,0.,0.));
#15=AXIS2_PLACEMENT_3D('TS3D_PRODUCT_CSYS',#12,#13,#14);
#27=CARTESIAN_POINT('',(316.,-128.,6.4));
#28=DIRECTION('',(1.,0.,0.));
#29=DIRECTION('',(0.,0.,-1.));
#30=AXIS2_PLACEMENT_3D('',#27,#28,#29);
#31=PLANE('',#30);
#32=CARTESIAN_POINT('',(316.,-114.,0.));
#33=VERTEX_POINT('',#32);
#34=CARTESIAN_POINT('',(316.,-128.,0.));
#35=VERTEX_POINT('',#34);
#36=CARTESIAN_POINT('',(316.,-114.,0.));
#37=DIRECTION('',(0.,-1.,0.));
#38=VECTOR('',#37,14.);
#39=LINE('',#36,#38);
#40=EDGE_CURVE('',#33,#35,#39,.T.);
#41=ORIENTED_EDGE('',*,*,#40,.F.);
#42=CARTESIAN_POINT('',(316.,-114.,6.4));
#43=VERTEX_POINT('',#42);
#44=CARTESIAN_POINT('',(316.,-114.,6.4));
#45=DIRECTION('',(0.,0.,-1.));
#46=VECTOR('',#45,6.4);
#47=LINE('',#44,#46);
#48=EDGE_CURVE('',#43,#33,#47,.T.);
#49=ORIENTED_EDGE('',*,*,#48,.F.);
#50=CARTESIAN_POINT('',(316.,-128.,6.4));
#51=VERTEX_POINT('',#50);
#52=CARTESIAN_POINT('',(316.,-114.,6.4));
#53=DIRECTION('',(0.,-1.,0.));
#54=VECTOR('',#53,14.);
#55=LINE('',#52,#54);
#56=EDGE_CURVE('',#43,#51,#55,.T.);
#57=ORIENTED_EDGE('',*,*,#56,.T.);
#58=CARTESIAN_POINT('',(316.,-128.,6.4));
#59=DIRECTION('',(0.,0.,-1.));
#60=VECTOR('',#59,6.4);
#61=LINE('',#58,#60);
#62=EDGE_CURVE('',#51,#35,#61,.T.);
#63=ORIENTED_EDGE('',*,*,#62,.T.);
#64=EDGE_LOOP('',(#41,#49,#57,#63));
#65=FACE_BOUND('',#64,.T.);
#66=ADVANCED_FACE('',(#65),#31,.T.);
#67=CARTESIAN_POINT('',(302.,-114.,6.4));
#68=DIRECTION('',(0.,1.,0.));
#69=DIRECTION('',(0.,0.,1.));
#70=AXIS2_PLACEMENT_3D('',#67,#68,#69);
#71=PLANE('',#70);
#72=CARTESIAN_POINT('',(291.85,-114.,2.25));
#73=VERTEX_POINT('',#72);
#74=CARTESIAN_POINT('',(291.,-114.,6.4));
#75=VERTEX_POINT('',#74);
#76=CARTESIAN_POINT('',(291.85,-114.,2.25));
#77=DIRECTION('',(-0.20065371,0.,0.979662232));
#78=VECTOR('',#77,4.236153916);
#79=LINE('',#76,#78);
#80=EDGE_CURVE('',#73,#75,#79,.T.);
#81=ORIENTED_EDGE('',*,*,#80,.F.);
#82=CARTESIAN_POINT('',(312.15,-114.,2.25));
#83=VERTEX_POINT('',#82);
#84=CARTESIAN_POINT('',(291.85,-114.,2.25));
#85=DIRECTION('',(1.,0.,-0.));
#86=VECTOR('',#85,20.3);
#87=LINE('',#84,#86);
#88=EDGE_CURVE('',#73,#83,#87,.T.);
#89=ORIENTED_EDGE('',*,*,#88,.T.);
#90=CARTESIAN_POINT('',(313.,-114.,6.4));
#91=VERTEX_POINT('',#90);
#92=CARTESIAN_POINT('',(313.,-114.,6.4));
#93=DIRECTION('',(-0.20065371,0.,-0.979662232));
#94=VECTOR('',#93,4.236153916);
#95=LINE('',#92,#94);
#96=EDGE_CURVE('',#91,#83,#95,.T.);
#97=ORIENTED_EDGE('',*,*,#96,.F.);
#98=CARTESIAN_POINT('',(313.,-114.,6.4));
#99=DIRECTION('',(1.,0.,-0.));
#100=VECTOR('',#99,3.);
#101=LINE('',#98,#100);
#102=EDGE_CURVE('',#91,#43,#101,.T.);
#103=ORIENTED_EDGE('',*,*,#102,.T.);
#104=ORIENTED_EDGE('',*,*,#48,.T.);
#105=CARTESIAN_POINT('',(288.,-114.,0.));
#106=VERTEX_POINT('',#105);
#107=CARTESIAN_POINT('',(288.,-114.,0.));
#108=DIRECTION('',(1.,0.,-0.));
#109=VECTOR('',#108,28.);
#110=LINE('',#107,#109);
#111=EDGE_CURVE('',#106,#33,#110,.T.);
#112=ORIENTED_EDGE('',*,*,#111,.F.);
#113=CARTESIAN_POINT('',(288.,-114.,6.4));
#114=VERTEX_POINT('',#113);
#115=CARTESIAN_POINT('',(288.,-114.,6.4));
#116=DIRECTION('',(0.,0.,-1.));
#117=VECTOR('',#116,6.4);
#118=LINE('',#115,#117);
#119=EDGE_CURVE('',#114,#106,#118,.T.);
#120=ORIENTED_EDGE('',*,*,#119,.F.);
#121=CARTESIAN_POINT('',(288.,-114.,6.4));
#122=DIRECTION('',(1.,0.,-0.));
#123=VECTOR('',#122,3.);
#124=LINE('',#121,#123);
#125=EDGE_CURVE('',#114,#75,#124,.T.);
#126=ORIENTED_EDGE('',*,*,#125,.T.);
#127=EDGE_LOOP('',(#81,#89,#97,#103,#104,#112,#120,#126));
#128=FACE_BOUND('',#127,.T.);
#129=ADVANCED_FACE('',(#128),#71,.T.);
#130=CARTESIAN_POINT('',(288.,-128.,6.4));
#131=DIRECTION('',(-1.,-0.,0.));
#132=DIRECTION('',(0.,-1.,0.));
#133=AXIS2_PLACEMENT_3D('',#130,#131,#132);
#134=PLANE('',#133);
#135=CARTESIAN_POINT('',(288.,-128.,0.));
#136=VERTEX_POINT('',#135);
#137=CARTESIAN_POINT('',(288.,-128.,0.));
#138=DIRECTION('',(-0.,1.,0.));
#139=VECTOR('',#138,14.);
#140=LINE('',#137,#139);
#141=EDGE_CURVE('',#136,#106,#140,.T.);
#142=ORIENTED_EDGE('',*,*,#141,.F.);
#143=CARTESIAN_POINT('',(288.,-128.,6.4));
#144=VERTEX_POINT('',#143);
#145=CARTESIAN_POINT('',(288.,-128.,6.4));
#146=DIRECTION('',(0.,0.,-1.));
#147=VECTOR('',#146,6.4);
#148=LINE('',#145,#147);
#149=EDGE_CURVE('',#144,#136,#148,.T.);
#150=ORIENTED_EDGE('',*,*,#149,.F.);
#151=CARTESIAN_POINT('',(288.,-128.,6.4));
#152=DIRECTION('',(-0.,1.,0.));
#153=VECTOR('',#152,14.);
#154=LINE('',#151,#153);
#155=EDGE_CURVE('',#144,#114,#154,.T.);
#156=ORIENTED_EDGE('',*,*,#155,.T.);
#157=ORIENTED_EDGE('',*,*,#119,.T.);
#158=EDGE_LOOP('',(#142,#150,#156,#157));
#159=FACE_BOUND('',#158,.T.);
#160=ADVANCED_FACE('',(#159),#134,.T.);
#161=CARTESIAN_POINT('',(302.,-128.,6.4));
#162=DIRECTION('',(0.,-1.,0.));
#163=DIRECTION('',(1.,0.,0.));
#164=AXIS2_PLACEMENT_3D('',#161,#162,#163);
#165=PLANE('',#164);
#166=CARTESIAN_POINT('',(316.,-128.,0.));
#167=DIRECTION('',(-1.,-0.,0.));
#168=VECTOR('',#167,28.);
#169=LINE('',#166,#168);
#170=EDGE_CURVE('',#35,#136,#169,.T.);
#171=ORIENTED_EDGE('',*,*,#170,.F.);
#172=ORIENTED_EDGE('',*,*,#62,.F.);
#173=CARTESIAN_POINT('',(316.,-128.,6.4));
#174=DIRECTION('',(-1.,-0.,0.));
#175=VECTOR('',#174,28.);
#176=LINE('',#173,#175);
#177=EDGE_CURVE('',#51,#144,#176,.T.);
#178=ORIENTED_EDGE('',*,*,#177,.T.);
#179=ORIENTED_EDGE('',*,*,#149,.T.);
#180=EDGE_LOOP('',(#171,#172,#178,#179));
#181=FACE_BOUND('',#180,.T.);
#182=ADVANCED_FACE('',(#181),#165,.T.);
#183=CARTESIAN_POINT('',(252.,-128.,6.4));
#184=DIRECTION('',(0.,0.,1.));
#185=DIRECTION('',(1.,0.,0.));
#186=AXIS2_PLACEMENT_3D('',#183,#184,#185);
#187=PLANE('',#186);
#188=CARTESIAN_POINT('',(302.,-114.,6.4));
#189=DIRECTION('',(0.,-0.,1.));
#190=DIRECTION('',(-1.,-0.,0.));
#191=AXIS2_PLACEMENT_3D('',#188,#189,#190);
#192=CIRCLE('',#191,11.);
#193=EDGE_CURVE('',#75,#91,#192,.T.);
#194=ORIENTED_EDGE('',*,*,#193,.F.);
#195=ORIENTED_EDGE('',*,*,#125,.F.);
#196=ORIENTED_EDGE('',*,*,#155,.F.);
#197=ORIENTED_EDGE('',*,*,#177,.F.);
#198=ORIENTED_EDGE('',*,*,#56,.F.);
#199=ORIENTED_EDGE('',*,*,#102,.F.);
#200=EDGE_LOOP('',(#194,#195,#196,#197,#198,#199));
#201=FACE_BOUND('',#200,.T.);
#202=ADVANCED_FACE('',(#201),#187,.T.);
#203=CARTESIAN_POINT('',(252.,-128.,0.));
#204=DIRECTION('',(0.,0.,1.));
#205=DIRECTION('',(1.,0.,0.));
#206=AXIS2_PLACEMENT_3D('',#203,#204,#205);
#207=PLANE('',#206);
#208=ORIENTED_EDGE('',*,*,#40,.T.);
#209=ORIENTED_EDGE('',*,*,#170,.T.);
#210=ORIENTED_EDGE('',*,*,#141,.T.);
#211=ORIENTED_EDGE('',*,*,#111,.T.);
#212=EDGE_LOOP('',(#208,#209,#210,#211));
#213=FACE_BOUND('',#212,.T.);
#214=ADVANCED_FACE('',(#213),#207,.F.);
#215=CARTESIAN_POINT('',(277.,-114.,2.25));
#216=DIRECTION('',(0.,-0.,1.));
#217=DIRECTION('',(-1.,-0.,0.));
#218=AXIS2_PLACEMENT_3D('',#215,#216,#217);
#219=PLANE('',#218);
#220=CARTESIAN_POINT('',(302.,-114.,2.25));
#221=DIRECTION('',(0.,-0.,1.));
#222=DIRECTION('',(-1.,-0.,0.));
#223=AXIS2_PLACEMENT_3D('',#220,#221,#222);
#224=CIRCLE('',#223,10.15);
#225=EDGE_CURVE('',#73,#83,#224,.T.);
#226=ORIENTED_EDGE('',*,*,#225,.T.);
#227=ORIENTED_EDGE('',*,*,#88,.F.);
#228=EDGE_LOOP('',(#226,#227));
#229=FACE_BOUND('',#228,.T.);
#230=ADVANCED_FACE('',(#229),#219,.T.);
#231=CARTESIAN_POINT('',(302.,-114.,2.25));
#232=DIRECTION('',(0.,-0.,1.));
#233=DIRECTION('',(-1.,-0.,0.));
#234=AXIS2_PLACEMENT_3D('',#231,#232,#233);
#235=CONICAL_SURFACE('',#234,10.15,11.575188817);
#236=ORIENTED_EDGE('',*,*,#80,.T.);
#237=ORIENTED_EDGE('',*,*,#193,.T.);
#238=ORIENTED_EDGE('',*,*,#96,.T.);
#239=ORIENTED_EDGE('',*,*,#225,.F.);
#240=EDGE_LOOP('',(#236,#237,#238,#239));
#241=FACE_BOUND('',#240,.T.);
#242=ADVANCED_FACE('',(#241),#235,.F.);
#243=CLOSED_SHELL('',(#66,#129,#160,#182,#202,#214,#230,#242));
#244=MANIFOLD_SOLID_BREP('Base Back (3)',#243);
#245=COLOUR_RGB('',0.580392182,0.580392182,0.580392182);
#246=FILL_AREA_STYLE_COLOUR('',#245);
#247=FILL_AREA_STYLE('',(#246));
#248=SURFACE_STYLE_FILL_AREA(#247);
#249=SURFACE_SIDE_STYLE('',(#248));
#250=SURFACE_STYLE_USAGE(.BOTH.,#249);
#251=PRESENTATION_STYLE_ASSIGNMENT((#250));
#26=STYLED_ITEM('',(#251),#244);
#253=CARTESIAN_POINT('',(311.85,-104.758557449,2.248));
#254=DIRECTION('',(-0.99719931,-0.074789948,0.));
#255=DIRECTION('',(0.074789948,-0.99719931,0.));
#256=AXIS2_PLACEMENT_3D('',#253,#254,#255);
#257=PLANE('',#256);
#258=CARTESIAN_POINT('',(311.55,-100.758557449,4.062132034));
#259=VERTEX_POINT('',#258);
#260=CARTESIAN_POINT('',(311.759201437,-103.547909939,3.462132034));
#261=VERTEX_POINT('',#260);
#262=CARTESIAN_POINT('',(311.55,-100.758557449,4.062132034));
#263=CARTESIAN_POINT('',(311.621450415,-101.711229643,3.990681619));
#264=CARTESIAN_POINT('',(311.691009104,-102.638678839,3.777567378));
#265=CARTESIAN_POINT('',(311.759201437,-103.547909939,3.462132034));
#266=B_SPLINE_CURVE_WITH_KNOTS('',3,(#262,#263,#264,#265),.UNSPECIFIED.,.F.,.F.,(4,4),(0.000708517,0.003567616),.UNSPECIFIED.);
#267=EDGE_CURVE('',#259,#261,#266,.T.);
#268=ORIENTED_EDGE('',*,*,#267,.T.);
#269=CARTESIAN_POINT('',(311.759201437,-103.547909939,2.25));
#270=VERTEX_POINT('',#269);
#271=CARTESIAN_POINT('',(311.759201437,-103.547909939,3.462132034));
#272=DIRECTION('',(-0.,-0.,-1.));
#273=VECTOR('',#272,1.212132034);
#274=LINE('',#271,#273);
#275=EDGE_CURVE('',#261,#270,#274,.T.);
#276=ORIENTED_EDGE('',*,*,#275,.T.);
#277=CARTESIAN_POINT('',(312.15,-108.758557449,2.25));
#278=VERTEX_POINT('',#277);
#279=CARTESIAN_POINT('',(311.759201437,-103.547909939,2.25));
#280=DIRECTION('',(0.074789948,-0.99719931,0.));
#281=VECTOR('',#280,5.225281905);
#282=LINE('',#279,#281);
#283=EDGE_CURVE('',#270,#278,#282,.T.);
#284=ORIENTED_EDGE('',*,*,#283,.T.);
#285=CARTESIAN_POINT('',(312.15,-108.758557449,3.462132034));
#286=VERTEX_POINT('',#285);
#287=CARTESIAN_POINT('',(312.15,-108.758557449,2.25));
#288=DIRECTION('',(0.,0.,1.));
#289=VECTOR('',#288,1.212132034);
#290=LINE('',#287,#289);
#291=EDGE_CURVE('',#278,#286,#290,.T.);
#292=ORIENTED_EDGE('',*,*,#291,.T.);
#293=CARTESIAN_POINT('',(311.55,-100.758557449,4.062132034));
#294=DIRECTION('',(0.074581652,-0.99442202,-0.074581652));
#295=VECTOR('',#294,8.044874144);
#296=LINE('',#293,#295);
#297=EDGE_CURVE('',#259,#286,#296,.T.);
#298=ORIENTED_EDGE('',*,*,#297,.F.);
#299=EDGE_LOOP('',(#268,#276,#284,#292,#298));
#300=FACE_BOUND('',#299,.T.);
#301=ADVANCED_FACE('',(#300),#257,.T.);
#302=CARTESIAN_POINT('',(292.15,-104.758557449,2.248));
#303=DIRECTION('',(0.99719931,-0.074789948,0.));
#304=DIRECTION('',(0.074789948,0.99719931,0.));
#305=AXIS2_PLACEMENT_3D('',#302,#303,#304);
#306=PLANE('',#305);
#307=CARTESIAN_POINT('',(291.85,-108.758557449,2.25));
#308=VERTEX_POINT('',#307);
#309=CARTESIAN_POINT('',(292.240798563,-103.547909939,2.25));
#310=VERTEX_POINT('',#309);
#311=CARTESIAN_POINT('',(291.85,-108.758557449,2.25));
#312=DIRECTION('',(0.074789948,0.99719931,0.));
#313=VECTOR('',#312,5.225281905);
#314=LINE('',#311,#313);
#315=EDGE_CURVE('',#308,#310,#314,.T.);
#316=ORIENTED_EDGE('',*,*,#315,.T.);
#317=CARTESIAN_POINT('',(292.240798563,-103.547909939,3.462132034));
#318=VERTEX_POINT('',#317);
#319=CARTESIAN_POINT('',(292.240798563,-103.547909939,2.25));
#320=DIRECTION('',(0.,0.,1.));
#321=VECTOR('',#320,1.212132034);
#322=LINE('',#319,#321);
#323=EDGE_CURVE('',#310,#318,#322,.T.);
#324=ORIENTED_EDGE('',*,*,#323,.T.);
#325=CARTESIAN_POINT('',(292.45,-100.758557449,4.062132034));
#326=VERTEX_POINT('',#325);
#327=CARTESIAN_POINT('',(292.240798563,-103.547909939,3.462132034));
#328=CARTESIAN_POINT('',(292.308990896,-102.638678839,3.777567378));
#329=CARTESIAN_POINT('',(292.378549585,-101.711229643,3.99068162));
#330=CARTESIAN_POINT('',(292.45,-100.758557449,4.062132034));
#331=B_SPLINE_CURVE_WITH_KNOTS('',3,(#327,#328,#329,#330),.UNSPECIFIED.,.F.,.F.,(4,4),(0.000002114,0.002861214),.UNSPECIFIED.);
#332=EDGE_CURVE('',#318,#326,#331,.T.);
#333=ORIENTED_EDGE('',*,*,#332,.T.);
#334=CARTESIAN_POINT('',(291.85,-108.758557449,3.462132034));
#335=VERTEX_POINT('',#334);
#336=CARTESIAN_POINT('',(292.45,-100.758557449,4.062132034));
#337=DIRECTION('',(-0.074581652,-0.99442202,-0.074581652));
#338=VECTOR('',#337,8.044874144);
#339=LINE('',#336,#338);
#340=EDGE_CURVE('',#326,#335,#339,.T.);
#341=ORIENTED_EDGE('',*,*,#340,.T.);
#342=CARTESIAN_POINT('',(291.85,-108.758557449,2.25));
#343=DIRECTION('',(0.,0.,1.));
#344=VECTOR('',#343,1.212132034);
#345=LINE('',#342,#344);
#346=EDGE_CURVE('',#308,#335,#345,.T.);
#347=ORIENTED_EDGE('',*,*,#346,.F.);
#348=EDGE_LOOP('',(#316,#324,#333,#341,#347));
#349=FACE_BOUND('',#348,.T.);
#350=ADVANCED_FACE('',(#349),#306,.T.);
#351=CARTESIAN_POINT('',(291.85,-100.,2.856066017));
#352=DIRECTION('',(1.,0.,0.));
#353=DIRECTION('',(0.,0.,-1.));
#354=AXIS2_PLACEMENT_3D('',#351,#352,#353);
#355=PLANE('',#354);
#356=CARTESIAN_POINT('',(291.85,-114.,2.25));
#357=VERTEX_POINT('',#356);
#358=CARTESIAN_POINT('',(291.85,-111.741354931,3.462132034));
#359=VERTEX_POINT('',#358);
#360=CARTESIAN_POINT('',(291.85,-114.,2.25));
#361=CARTESIAN_POINT('',(291.85,-113.778206111,2.249999986));
#362=CARTESIAN_POINT('',(291.85,-113.561806043,2.285429967));
#363=CARTESIAN_POINT('',(291.85,-113.350069051,2.35148996));
#364=CARTESIAN_POINT('',(291.85,-113.138332058,2.417549953));
#365=CARTESIAN_POINT('',(291.85,-112.939230015,2.511535346));
#366=CARTESIAN_POINT('',(291.85,-112.750907709,2.623841188));
#367=CARTESIAN_POINT('',(291.85,-112.562585403,2.736147031));
#368=CARTESIAN_POINT('',(291.85,-112.383312388,2.868213234));
#369=CARTESIAN_POINT('',(291.85,-112.215799906,3.009807491));
#370=CARTESIAN_POINT('',(291.85,-112.048287425,3.151401748));
#371=CARTESIAN_POINT('',(291.85,-111.891201291,3.303217964));
#372=CARTESIAN_POINT('',(291.85,-111.741354931,3.462132034));
#373=B_SPLINE_CURVE_WITH_KNOTS('',3,(#360,#361,#362,#363,#364,#365,#366,#367,#368,#369,#370,#371,#372),.UNSPECIFIED.,.F.,.F.,(4,3,3,3,4),(0.008824968,0.00948392,0.010142872,0.010801824,0.011460777),.UNSPECIFIED.);
#374=EDGE_CURVE('',#357,#359,#373,.T.);
#375=ORIENTED_EDGE('',*,*,#374,.F.);
#376=CARTESIAN_POINT('',(291.85,-108.758557449,2.25));
#377=DIRECTION('',(0.,-1.,0.));
#378=VECTOR('',#377,5.241442551);
#379=LINE('',#376,#378);
#380=EDGE_CURVE('',#308,#357,#379,.T.);
#381=ORIENTED_EDGE('',*,*,#380,.F.);
#382=ORIENTED_EDGE('',*,*,#346,.T.);
#383=CARTESIAN_POINT('',(291.85,-108.758557449,3.462132034));
#384=DIRECTION('',(0.,-1.,0.));
#385=VECTOR('',#384,2.982797483);
#386=LINE('',#383,#385);
#387=EDGE_CURVE('',#335,#359,#386,.T.);
#388=ORIENTED_EDGE('',*,*,#387,.T.);
#389=EDGE_LOOP('',(#375,#381,#382,#388));
#390=FACE_BOUND('',#389,.T.);
#391=ADVANCED_FACE('',(#390),#355,.T.);
#392=CARTESIAN_POINT('',(307.075,-100.,2.25));
#393=DIRECTION('',(0.,0.,-1.));
#394=DIRECTION('',(-1.,0.,-0.));
#395=AXIS2_PLACEMENT_3D('',#392,#393,#394);
#396=PLANE('',#395);
#397=CARTESIAN_POINT('',(312.15,-114.,2.25));
#398=VERTEX_POINT('',#397);
#399=CARTESIAN_POINT('',(291.85,-114.,2.25));
#400=DIRECTION('',(1.,0.,0.));
#401=VECTOR('',#400,20.3);
#402=LINE('',#399,#401);
#403=EDGE_CURVE('',#357,#398,#402,.T.);
#404=ORIENTED_EDGE('',*,*,#403,.T.);
#405=CARTESIAN_POINT('',(312.15,-108.758557449,2.25));
#406=DIRECTION('',(0.,-1.,0.));
#407=VECTOR('',#406,5.241442551);
#408=LINE('',#405,#407);
#409=EDGE_CURVE('',#278,#398,#408,.T.);
#410=ORIENTED_EDGE('',*,*,#409,.F.);
#411=ORIENTED_EDGE('',*,*,#283,.F.);
#412=CARTESIAN_POINT('',(312.15,-100.758557449,2.25));
#413=VERTEX_POINT('',#412);
#414=CARTESIAN_POINT('',(302.,-100.758557449,2.25));
#415=DIRECTION('',(0.,0.,1.));
#416=DIRECTION('',(1.,0.,-0.));
#417=AXIS2_PLACEMENT_3D('',#414,#415,#416);
#418=CIRCLE('',#417,10.15);
#419=EDGE_CURVE('',#270,#413,#418,.T.);
#420=ORIENTED_EDGE('',*,*,#419,.T.);
#421=CARTESIAN_POINT('',(312.15,-100.,2.25));
#422=VERTEX_POINT('',#421);
#423=CARTESIAN_POINT('',(312.15,-100.,2.25));
#424=DIRECTION('',(0.,-1.,0.));
#425=VECTOR('',#424,0.758557449);
#426=LINE('',#423,#425);
#427=EDGE_CURVE('',#422,#413,#426,.T.);
#428=ORIENTED_EDGE('',*,*,#427,.F.);
#429=CARTESIAN_POINT('',(291.85,-100.,2.25));
#430=VERTEX_POINT('',#429);
#431=CARTESIAN_POINT('',(302.,-100.,2.25));
#432=DIRECTION('',(0.,0.,1.));
#433=DIRECTION('',(1.,0.,-0.));
#434=AXIS2_PLACEMENT_3D('',#431,#432,#433);
#435=CIRCLE('',#434,10.15);
#436=EDGE_CURVE('',#422,#430,#435,.T.);
#437=ORIENTED_EDGE('',*,*,#436,.T.);
#438=CARTESIAN_POINT('',(291.85,-100.758557449,2.25));
#439=VERTEX_POINT('',#438);
#440=CARTESIAN_POINT('',(291.85,-100.,2.25));
#441=DIRECTION('',(0.,-1.,0.));
#442=VECTOR('',#441,0.758557449);
#443=LINE('',#440,#442);
#444=EDGE_CURVE('',#430,#439,#443,.T.);
#445=ORIENTED_EDGE('',*,*,#444,.T.);
#446=CARTESIAN_POINT('',(302.,-100.758557449,2.25));
#447=DIRECTION('',(0.,0.,1.));
#448=DIRECTION('',(1.,0.,-0.));
#449=AXIS2_PLACEMENT_3D('',#446,#447,#448);
#450=CIRCLE('',#449,10.15);
#451=EDGE_CURVE('',#439,#310,#450,.T.);
#452=ORIENTED_EDGE('',*,*,#451,.T.);
#453=ORIENTED_EDGE('',*,*,#315,.F.);
#454=ORIENTED_EDGE('',*,*,#380,.T.);
#455=EDGE_LOOP('',(#404,#410,#411,#420,#428,#437,#445,#452,#453,#454));
#456=FACE_BOUND('',#455,.T.);
#457=ADVANCED_FACE('',(#456),#396,.F.);
#458=CARTESIAN_POINT('',(312.15,-100.,2.856066017));
#459=DIRECTION('',(1.,0.,0.));
#460=DIRECTION('',(0.,0.,-1.));
#461=AXIS2_PLACEMENT_3D('',#458,#459,#460);
#462=PLANE('',#461);
#463=ORIENTED_EDGE('',*,*,#409,.T.);
#464=CARTESIAN_POINT('',(312.15,-111.741354931,3.462132034));
#465=VERTEX_POINT('',#464);
#466=CARTESIAN_POINT('',(312.15,-114.,2.25));
#467=CARTESIAN_POINT('',(312.15,-113.778206111,2.249999986));
#468=CARTESIAN_POINT('',(312.15,-113.561806043,2.285429967));
#469=CARTESIAN_POINT('',(312.15,-113.350069051,2.35148996));
#470=CARTESIAN_POINT('',(312.15,-113.138332058,2.417549953));
#471=CARTESIAN_POINT('',(312.15,-112.939230015,2.511535346));
#472=CARTESIAN_POINT('',(312.15,-112.750907709,2.623841188));
#473=CARTESIAN_POINT('',(312.15,-112.562585403,2.736147031));
#474=CARTESIAN_POINT('',(312.15,-112.383312388,2.868213234));
#475=CARTESIAN_POINT('',(312.15,-112.215799906,3.009807491));
#476=CARTESIAN_POINT('',(312.15,-112.048287425,3.151401748));
#477=CARTESIAN_POINT('',(312.15,-111.891201291,3.303217964));
#478=CARTESIAN_POINT('',(312.15,-111.741354931,3.462132034));
#479=B_SPLINE_CURVE_WITH_KNOTS('',3,(#466,#467,#468,#469,#470,#471,#472,#473,#474,#475,#476,#477,#478),.UNSPECIFIED.,.F.,.F.,(4,3,3,3,4),(0.008824968,0.00948392,0.010142872,0.010801824,0.011460777),.UNSPECIFIED.);
#480=EDGE_CURVE('',#398,#465,#479,.T.);
#481=ORIENTED_EDGE('',*,*,#480,.T.);
#482=CARTESIAN_POINT('',(312.15,-108.758557449,3.462132034));
#483=DIRECTION('',(0.,-1.,0.));
#484=VECTOR('',#483,2.982797483);
#485=LINE('',#482,#484);
#486=EDGE_CURVE('',#286,#465,#485,.T.);
#487=ORIENTED_EDGE('',*,*,#486,.F.);
#488=ORIENTED_EDGE('',*,*,#291,.F.);
#489=EDGE_LOOP('',(#463,#481,#487,#488));
#490=FACE_BOUND('',#489,.T.);
#491=ADVANCED_FACE('',(#490),#462,.F.);
#492=CARTESIAN_POINT('',(293.1,-100.,4.712132034));
#493=DIRECTION('',(0.707106781,0.,-0.707106781));
#494=DIRECTION('',(-0.707106781,0.,-0.707106781));
#495=AXIS2_PLACEMENT_3D('',#492,#493,#494);
#496=PLANE('',#495);
#497=CARTESIAN_POINT('',(294.35,-106.221021945,5.962132034));
#498=VERTEX_POINT('',#497);
#499=CARTESIAN_POINT('',(304.66747063,-114.,16.279602664));
#500=DIRECTION('',(0.707106781,0.,-0.707106781));
#501=DIRECTION('',(0.707106781,0.,0.707106781));
#502=AXIS2_PLACEMENT_3D('',#499,#500,#501);
#503=ELLIPSE('',#502,18.418057106,12.747431671);
#504=EDGE_CURVE('',#359,#498,#503,.T.);
#505=ORIENTED_EDGE('',*,*,#504,.F.);
#506=ORIENTED_EDGE('',*,*,#387,.F.);
#507=ORIENTED_EDGE('',*,*,#340,.F.);
#508=CARTESIAN_POINT('',(291.85,-100.758557449,3.462132034));
#509=VERTEX_POINT('',#508);
#510=CARTESIAN_POINT('',(292.45,-100.758557449,4.062132034));
#511=DIRECTION('',(-0.707106781,0.,-0.707106781));
#512=VECTOR('',#511,0.848528137);
#513=LINE('',#510,#512);
#514=EDGE_CURVE('',#326,#509,#513,.T.);
#515=ORIENTED_EDGE('',*,*,#514,.T.);
#516=CARTESIAN_POINT('',(291.85,-100.,3.462132034));
#517=VERTEX_POINT('',#516);
#518=CARTESIAN_POINT('',(291.85,-100.,3.462132034));
#519=DIRECTION('',(0.,-1.,0.));
#520=VECTOR('',#519,0.758557449);
#521=LINE('',#518,#520);
#522=EDGE_CURVE('',#517,#509,#521,.T.);
#523=ORIENTED_EDGE('',*,*,#522,.F.);
#524=CARTESIAN_POINT('',(294.35,-100.,5.962132034));
#525=VERTEX_POINT('',#524);
#526=CARTESIAN_POINT('',(291.85,-100.,3.462132034));
#527=DIRECTION('',(0.707106781,0.,0.707106781));
#528=VECTOR('',#527,3.535533906);
#529=LINE('',#526,#528);
#530=EDGE_CURVE('',#517,#525,#529,.T.);
#531=ORIENTED_EDGE('',*,*,#530,.T.);
#532=CARTESIAN_POINT('',(294.35,-100.,5.962132034));
#533=DIRECTION('',(0.,-1.,0.));
#534=VECTOR('',#533,6.221021945);
#535=LINE('',#532,#534);
#536=EDGE_CURVE('',#525,#498,#535,.T.);
#537=ORIENTED_EDGE('',*,*,#536,.T.);
#538=EDGE_LOOP('',(#505,#506,#507,#515,#523,#531,#537));
#539=FACE_BOUND('',#538,.T.);
#540=ADVANCED_FACE('',(#539),#496,.T.);
#541=CARTESIAN_POINT('',(252.,-100.,6.4));
#542=DIRECTION('',(0.,0.,1.));
#543=DIRECTION('',(1.,0.,0.));
#544=AXIS2_PLACEMENT_3D('',#541,#542,#543);
#545=PLANE('',#544);
#546=CARTESIAN_POINT('',(313.,-114.,6.4));
#547=VERTEX_POINT('',#546);
#548=CARTESIAN_POINT('',(309.65,-106.095729003,6.4));
#549=VERTEX_POINT('',#548);
#550=CARTESIAN_POINT('',(302.,-114.,6.4));
#551=DIRECTION('',(0.,0.,1.));
#552=DIRECTION('',(1.,0.,-0.));
#553=AXIS2_PLACEMENT_3D('',#550,#551,#552);
#554=CIRCLE('',#553,11.);
#555=EDGE_CURVE('',#547,#549,#554,.T.);
#556=ORIENTED_EDGE('',*,*,#555,.F.);
#557=CARTESIAN_POINT('',(316.,-114.,6.4));
#558=VERTEX_POINT('',#557);
#559=CARTESIAN_POINT('',(316.,-114.,6.4));
#560=DIRECTION('',(-1.,-0.,0.));
#561=VECTOR('',#560,3.);
#562=LINE('',#559,#561);
#563=EDGE_CURVE('',#558,#547,#562,.T.);
#564=ORIENTED_EDGE('',*,*,#563,.F.);
#565=CARTESIAN_POINT('',(316.,-86.,6.4));
#566=VERTEX_POINT('',#565);
#567=CARTESIAN_POINT('',(316.,-86.,6.4));
#568=DIRECTION('',(0.,-1.,0.));
#569=VECTOR('',#568,28.);
#570=LINE('',#567,#569);
#571=EDGE_CURVE('',#566,#558,#570,.T.);
#572=ORIENTED_EDGE('',*,*,#571,.F.);
#573=CARTESIAN_POINT('',(288.,-86.,6.4));
#574=VERTEX_POINT('',#573);
#575=CARTESIAN_POINT('',(288.,-86.,6.4));
#576=DIRECTION('',(1.,0.,-0.));
#577=VECTOR('',#576,28.);
#578=LINE('',#575,#577);
#579=EDGE_CURVE('',#574,#566,#578,.T.);
#580=ORIENTED_EDGE('',*,*,#579,.F.);
#581=CARTESIAN_POINT('',(288.,-114.,6.4));
#582=VERTEX_POINT('',#581);
#583=CARTESIAN_POINT('',(288.,-114.,6.4));
#584=DIRECTION('',(-0.,1.,0.));
#585=VECTOR('',#584,28.);
#586=LINE('',#583,#585);
#587=EDGE_CURVE('',#582,#574,#586,.T.);
#588=ORIENTED_EDGE('',*,*,#587,.F.);
#589=CARTESIAN_POINT('',(291.,-114.,6.4));
#590=VERTEX_POINT('',#589);
#591=CARTESIAN_POINT('',(291.,-114.,6.4));
#592=DIRECTION('',(-1.,-0.,0.));
#593=VECTOR('',#592,3.);
#594=LINE('',#591,#593);
#595=EDGE_CURVE('',#590,#582,#594,.T.);
#596=ORIENTED_EDGE('',*,*,#595,.F.);
#597=CARTESIAN_POINT('',(294.35,-106.095729003,6.4));
#598=VERTEX_POINT('',#597);
#599=CARTESIAN_POINT('',(302.,-114.,6.4));
#600=DIRECTION('',(0.,0.,1.));
#601=DIRECTION('',(1.,0.,-0.));
#602=AXIS2_PLACEMENT_3D('',#599,#600,#601);
#603=CIRCLE('',#602,11.);
#604=EDGE_CURVE('',#598,#590,#603,.T.);
#605=ORIENTED_EDGE('',*,*,#604,.F.);
#606=CARTESIAN_POINT('',(294.35,-100.,6.4));
#607=VERTEX_POINT('',#606);
#608=CARTESIAN_POINT('',(294.35,-100.,6.4));
#609=DIRECTION('',(0.,-1.,0.));
#610=VECTOR('',#609,6.095729003);
#611=LINE('',#608,#610);
#612=EDGE_CURVE('',#607,#598,#611,.T.);
#613=ORIENTED_EDGE('',*,*,#612,.F.);
#614=CARTESIAN_POINT('',(309.65,-100.,6.4));
#615=VERTEX_POINT('',#614);
#616=CARTESIAN_POINT('',(302.,-100.,6.4));
#617=DIRECTION('',(0.,0.,1.));
#618=DIRECTION('',(1.,0.,-0.));
#619=AXIS2_PLACEMENT_3D('',#616,#617,#618);
#620=CIRCLE('',#619,7.65);
#621=EDGE_CURVE('',#615,#607,#620,.T.);
#622=ORIENTED_EDGE('',*,*,#621,.F.);
#623=CARTESIAN_POINT('',(309.65,-100.,6.4));
#624=DIRECTION('',(0.,-1.,0.));
#625=VECTOR('',#624,6.095729003);
#626=LINE('',#623,#625);
#627=EDGE_CURVE('',#615,#549,#626,.T.);
#628=ORIENTED_EDGE('',*,*,#627,.T.);
#629=EDGE_LOOP('',(#556,#564,#572,#580,#588,#596,#605,#613,#622,#628));
#630=FACE_BOUND('',#629,.T.);
#631=ADVANCED_FACE('',(#630),#545,.T.);
#632=CARTESIAN_POINT('',(302.,-114.,6.4));
#633=DIRECTION('',(0.,-1.,0.));
#634=DIRECTION('',(1.,0.,0.));
#635=AXIS2_PLACEMENT_3D('',#632,#633,#634);
#636=PLANE('',#635);
#637=CARTESIAN_POINT('',(312.15,-114.,2.25));
#638=DIRECTION('',(0.20065371,0.,0.979662232));
#639=VECTOR('',#638,4.236153916);
#640=LINE('',#637,#639);
#641=EDGE_CURVE('',#398,#547,#640,.T.);
#642=ORIENTED_EDGE('',*,*,#641,.F.);
#643=ORIENTED_EDGE('',*,*,#403,.F.);
#644=CARTESIAN_POINT('',(291.,-114.,6.4));
#645=DIRECTION('',(0.20065371,0.,-0.979662232));
#646=VECTOR('',#645,4.236153916);
#647=LINE('',#644,#646);
#648=EDGE_CURVE('',#590,#357,#647,.T.);
#649=ORIENTED_EDGE('',*,*,#648,.F.);
#650=ORIENTED_EDGE('',*,*,#595,.T.);
#651=CARTESIAN_POINT('',(288.,-114.,0.));
#652=VERTEX_POINT('',#651);
#653=CARTESIAN_POINT('',(288.,-114.,6.4));
#654=DIRECTION('',(0.,0.,-1.));
#655=VECTOR('',#654,6.4);
#656=LINE('',#653,#655);
#657=EDGE_CURVE('',#582,#652,#656,.T.);
#658=ORIENTED_EDGE('',*,*,#657,.T.);
#659=CARTESIAN_POINT('',(316.,-114.,0.));
#660=VERTEX_POINT('',#659);
#661=CARTESIAN_POINT('',(316.,-114.,0.));
#662=DIRECTION('',(-1.,-0.,0.));
#663=VECTOR('',#662,28.);
#664=LINE('',#661,#663);
#665=EDGE_CURVE('',#660,#652,#664,.T.);
#666=ORIENTED_EDGE('',*,*,#665,.F.);
#667=CARTESIAN_POINT('',(316.,-114.,6.4));
#668=DIRECTION('',(0.,0.,-1.));
#669=VECTOR('',#668,6.4);
#670=LINE('',#667,#669);
#671=EDGE_CURVE('',#558,#660,#670,.T.);
#672=ORIENTED_EDGE('',*,*,#671,.F.);
#673=ORIENTED_EDGE('',*,*,#563,.T.);
#674=EDGE_LOOP('',(#642,#643,#649,#650,#658,#666,#672,#673));
#675=FACE_BOUND('',#674,.T.);
#676=ADVANCED_FACE('',(#675),#636,.T.);
#677=CARTESIAN_POINT('',(316.,-100.,6.4));
#678=DIRECTION('',(1.,0.,0.));
#679=DIRECTION('',(0.,0.,-1.));
#680=AXIS2_PLACEMENT_3D('',#677,#678,#679);
#681=PLANE('',#680);
#682=CARTESIAN_POINT('',(316.,-86.,0.));
#683=VERTEX_POINT('',#682);
#684=CARTESIAN_POINT('',(316.,-86.,0.));
#685=DIRECTION('',(0.,-1.,0.));
#686=VECTOR('',#685,28.);
#687=LINE('',#684,#686);
#688=EDGE_CURVE('',#683,#660,#687,.T.);
#689=ORIENTED_EDGE('',*,*,#688,.F.);
#690=CARTESIAN_POINT('',(316.,-86.,6.4));
#691=DIRECTION('',(0.,0.,-1.));
#692=VECTOR('',#691,6.4);
#693=LINE('',#690,#692);
#694=EDGE_CURVE('',#566,#683,#693,.T.);
#695=ORIENTED_EDGE('',*,*,#694,.F.);
#696=ORIENTED_EDGE('',*,*,#571,.T.);
#697=ORIENTED_EDGE('',*,*,#671,.T.);
#698=EDGE_LOOP('',(#689,#695,#696,#697));
#699=FACE_BOUND('',#698,.T.);
#700=ADVANCED_FACE('',(#699),#681,.T.);
#701=CARTESIAN_POINT('',(302.,-86.,6.4));
#702=DIRECTION('',(0.,1.,0.));
#703=DIRECTION('',(0.,0.,1.));
#704=AXIS2_PLACEMENT_3D('',#701,#702,#703);
#705=PLANE('',#704);
#706=CARTESIAN_POINT('',(288.,-86.,0.));
#707=VERTEX_POINT('',#706);
#708=CARTESIAN_POINT('',(288.,-86.,0.));
#709=DIRECTION('',(1.,0.,-0.));
#710=VECTOR('',#709,28.);
#711=LINE('',#708,#710);
#712=EDGE_CURVE('',#707,#683,#711,.T.);
#713=ORIENTED_EDGE('',*,*,#712,.F.);
#714=CARTESIAN_POINT('',(288.,-86.,6.4));
#715=DIRECTION('',(0.,0.,-1.));
#716=VECTOR('',#715,6.4);
#717=LINE('',#714,#716);
#718=EDGE_CURVE('',#574,#707,#717,.T.);
#719=ORIENTED_EDGE('',*,*,#718,.F.);
#720=ORIENTED_EDGE('',*,*,#579,.T.);
#721=ORIENTED_EDGE('',*,*,#694,.T.);
#722=EDGE_LOOP('',(#713,#719,#720,#721));
#723=FACE_BOUND('',#722,.T.);
#724=ADVANCED_FACE('',(#723),#705,.T.);
#725=CARTESIAN_POINT('',(288.,-100.,6.4));
#726=DIRECTION('',(-1.,-0.,0.));
#727=DIRECTION('',(0.,-1.,0.));
#728=AXIS2_PLACEMENT_3D('',#725,#726,#727);
#729=PLANE('',#728);
#730=CARTESIAN_POINT('',(288.,-114.,0.));
#731=DIRECTION('',(-0.,1.,0.));
#732=VECTOR('',#731,28.);
#733=LINE('',#730,#732);
#734=EDGE_CURVE('',#652,#707,#733,.T.);
#735=ORIENTED_EDGE('',*,*,#734,.F.);
#736=ORIENTED_EDGE('',*,*,#657,.F.);
#737=ORIENTED_EDGE('',*,*,#587,.T.);
#738=ORIENTED_EDGE('',*,*,#718,.T.);
#739=EDGE_LOOP('',(#735,#736,#737,#738));
#740=FACE_BOUND('',#739,.T.);
#741=ADVANCED_FACE('',(#740),#729,.T.);
#742=CARTESIAN_POINT('',(252.,-100.,0.));
#743=DIRECTION('',(0.,0.,1.));
#744=DIRECTION('',(1.,0.,0.));
#745=AXIS2_PLACEMENT_3D('',#742,#743,#744);
#746=PLANE('',#745);
#747=ORIENTED_EDGE('',*,*,#688,.T.);
#748=ORIENTED_EDGE('',*,*,#665,.T.);
#749=ORIENTED_EDGE('',*,*,#734,.T.);
#750=ORIENTED_EDGE('',*,*,#712,.T.);
#751=EDGE_LOOP('',(#747,#748,#749,#750));
#752=FACE_BOUND('',#751,.T.);
#753=ADVANCED_FACE('',(#752),#746,.F.);
#754=CARTESIAN_POINT('',(294.35,-100.,6.181066017));
#755=DIRECTION('',(1.,0.,0.));
#756=DIRECTION('',(0.,0.,-1.));
#757=AXIS2_PLACEMENT_3D('',#754,#755,#756);
#758=PLANE('',#757);
#759=CARTESIAN_POINT('',(294.35,-106.221021945,5.962132034));
#760=CARTESIAN_POINT('',(294.35,-106.179107709,6.108038972));
#761=CARTESIAN_POINT('',(294.35,-106.137345672,6.253995706));
#762=CARTESIAN_POINT('',(294.35,-106.095729003,6.4));
#763=B_SPLINE_CURVE_WITH_KNOTS('',3,(#759,#760,#761,#762),.UNSPECIFIED.,.F.,.F.,(4,4),(0.01162298,0.012078101),.UNSPECIFIED.);
#764=EDGE_CURVE('',#498,#598,#763,.T.);
#765=ORIENTED_EDGE('',*,*,#764,.F.);
#766=ORIENTED_EDGE('',*,*,#536,.F.);
#767=CARTESIAN_POINT('',(294.35,-100.,5.962132034));
#768=DIRECTION('',(0.,0.,1.));
#769=VECTOR('',#768,0.437867966);
#770=LINE('',#767,#769);
#771=EDGE_CURVE('',#525,#607,#770,.T.);
#772=ORIENTED_EDGE('',*,*,#771,.T.);
#773=ORIENTED_EDGE('',*,*,#612,.T.);
#774=EDGE_LOOP('',(#765,#766,#772,#773));
#775=FACE_BOUND('',#774,.T.);
#776=ADVANCED_FACE('',(#775),#758,.T.);
#777=CARTESIAN_POINT('',(291.85,-100.,2.856066017));
#778=DIRECTION('',(1.,0.,0.));
#779=DIRECTION('',(0.,0.,-1.));
#780=AXIS2_PLACEMENT_3D('',#777,#778,#779);
#781=PLANE('',#780);
#782=CARTESIAN_POINT('',(291.85,-100.758557449,2.25));
#783=DIRECTION('',(0.,0.,1.));
#784=VECTOR('',#783,1.212132034);
#785=LINE('',#782,#784);
#786=EDGE_CURVE('',#439,#509,#785,.T.);
#787=ORIENTED_EDGE('',*,*,#786,.F.);
#788=ORIENTED_EDGE('',*,*,#444,.F.);
#789=CARTESIAN_POINT('',(291.85,-100.,2.25));
#790=DIRECTION('',(-0.,0.,1.));
#791=VECTOR('',#790,1.212132034);
#792=LINE('',#789,#791);
#793=EDGE_CURVE('',#430,#517,#792,.T.);
#794=ORIENTED_EDGE('',*,*,#793,.T.);
#795=ORIENTED_EDGE('',*,*,#522,.T.);
#796=EDGE_LOOP('',(#787,#788,#794,#795));
#797=FACE_BOUND('',#796,.T.);
#798=ADVANCED_FACE('',(#797),#781,.T.);
#799=CARTESIAN_POINT('',(312.15,-100.,2.856066017));
#800=DIRECTION('',(1.,0.,0.));
#801=DIRECTION('',(0.,0.,-1.));
#802=AXIS2_PLACEMENT_3D('',#799,#800,#801);
#803=PLANE('',#802);
#804=ORIENTED_EDGE('',*,*,#427,.T.);
#805=CARTESIAN_POINT('',(312.15,-100.758557449,3.462132034));
#806=VERTEX_POINT('',#805);
#807=CARTESIAN_POINT('',(312.15,-100.758557449,2.25));
#808=DIRECTION('',(0.,0.,1.));
#809=VECTOR('',#808,1.212132034);
#810=LINE('',#807,#809);
#811=EDGE_CURVE('',#413,#806,#810,.T.);
#812=ORIENTED_EDGE('',*,*,#811,.T.);
#813=CARTESIAN_POINT('',(312.15,-100.,3.462132034));
#814=VERTEX_POINT('',#813);
#815=CARTESIAN_POINT('',(312.15,-100.,3.462132034));
#816=DIRECTION('',(0.,-1.,0.));
#817=VECTOR('',#816,0.758557449);
#818=LINE('',#815,#817);
#819=EDGE_CURVE('',#814,#806,#818,.T.);
#820=ORIENTED_EDGE('',*,*,#819,.F.);
#821=CARTESIAN_POINT('',(312.15,-100.,2.25));
#822=DIRECTION('',(-0.,0.,1.));
#823=VECTOR('',#822,1.212132034);
#824=LINE('',#821,#823);
#825=EDGE_CURVE('',#422,#814,#824,.T.);
#826=ORIENTED_EDGE('',*,*,#825,.F.);
#827=EDGE_LOOP('',(#804,#812,#820,#826));
#828=FACE_BOUND('',#827,.T.);
#829=ADVANCED_FACE('',(#828),#803,.F.);
#830=CARTESIAN_POINT('',(310.9,-100.,4.712132034));
#831=DIRECTION('',(0.707106781,0.,0.707106781));
#832=DIRECTION('',(0.707106781,0.,-0.707106781));
#833=AXIS2_PLACEMENT_3D('',#830,#831,#832);
#834=PLANE('',#833);
#835=ORIENTED_EDGE('',*,*,#486,.T.);
#836=CARTESIAN_POINT('',(309.65,-106.221021945,5.962132034));
#837=VERTEX_POINT('',#836);
#838=CARTESIAN_POINT('',(299.33252937,-114.,16.279602664));
#839=DIRECTION('',(0.707106781,0.,0.707106781));
#840=DIRECTION('',(-0.707106781,0.,0.707106781));
#841=AXIS2_PLACEMENT_3D('',#838,#839,#840);
#842=ELLIPSE('',#841,18.418057106,12.747431671);
#843=EDGE_CURVE('',#465,#837,#842,.T.);
#844=ORIENTED_EDGE('',*,*,#843,.T.);
#845=CARTESIAN_POINT('',(309.65,-100.,5.962132034));
#846=VERTEX_POINT('',#845);
#847=CARTESIAN_POINT('',(309.65,-100.,5.962132034));
#848=DIRECTION('',(0.,-1.,0.));
#849=VECTOR('',#848,6.221021945);
#850=LINE('',#847,#849);
#851=EDGE_CURVE('',#846,#837,#850,.T.);
#852=ORIENTED_EDGE('',*,*,#851,.F.);
#853=CARTESIAN_POINT('',(312.15,-100.,3.462132034));
#854=DIRECTION('',(-0.707106781,0.,0.707106781));
#855=VECTOR('',#854,3.535533906);
#856=LINE('',#853,#855);
#857=EDGE_CURVE('',#814,#846,#856,.T.);
#858=ORIENTED_EDGE('',*,*,#857,.F.);
#859=ORIENTED_EDGE('',*,*,#819,.T.);
#860=CARTESIAN_POINT('',(312.15,-100.758557449,3.462132034));
#861=DIRECTION('',(-0.707106781,0.,0.707106781));
#862=VECTOR('',#861,0.848528137);
#863=LINE('',#860,#862);
#864=EDGE_CURVE('',#806,#259,#863,.T.);
#865=ORIENTED_EDGE('',*,*,#864,.T.);
#866=ORIENTED_EDGE('',*,*,#297,.T.);
#867=EDGE_LOOP('',(#835,#844,#852,#858,#859,#865,#866));
#868=FACE_BOUND('',#867,.T.);
#869=ADVANCED_FACE('',(#868),#834,.F.);
#870=CARTESIAN_POINT('',(309.65,-100.,6.181066017));
#871=DIRECTION('',(1.,0.,0.));
#872=DIRECTION('',(0.,0.,-1.));
#873=AXIS2_PLACEMENT_3D('',#870,#871,#872);
#874=PLANE('',#873);
#875=ORIENTED_EDGE('',*,*,#851,.T.);
#876=CARTESIAN_POINT('',(309.65,-106.221021945,5.962132034));
#877=CARTESIAN_POINT('',(309.65,-106.179107709,6.108038972));
#878=CARTESIAN_POINT('',(309.65,-106.137345672,6.253995706));
#879=CARTESIAN_POINT('',(309.65,-106.095729003,6.4));
#880=B_SPLINE_CURVE_WITH_KNOTS('',3,(#876,#877,#878,#879),.UNSPECIFIED.,.F.,.F.,(4,4),(0.01162298,0.012078101),.UNSPECIFIED.);
#881=EDGE_CURVE('',#837,#549,#880,.T.);
#882=ORIENTED_EDGE('',*,*,#881,.T.);
#883=ORIENTED_EDGE('',*,*,#627,.F.);
#884=CARTESIAN_POINT('',(309.65,-100.,5.962132034));
#885=DIRECTION('',(0.,0.,1.));
#886=VECTOR('',#885,0.437867966);
#887=LINE('',#884,#886);
#888=EDGE_CURVE('',#846,#615,#887,.T.);
#889=ORIENTED_EDGE('',*,*,#888,.F.);
#890=EDGE_LOOP('',(#875,#882,#883,#889));
#891=FACE_BOUND('',#890,.T.);
#892=ADVANCED_FACE('',(#891),#874,.F.);
#893=CARTESIAN_POINT('',(302.,-100.,12.4));
#894=DIRECTION('',(0.,0.,1.));
#895=DIRECTION('',(1.,0.,-0.));
#896=AXIS2_PLACEMENT_3D('',#893,#894,#895);
#897=CYLINDRICAL_SURFACE('',#896,10.15);
#898=CARTESIAN_POINT('',(302.,-100.,3.462132034));
#899=DIRECTION('',(0.,0.,1.));
#900=DIRECTION('',(1.,0.,-0.));
#901=AXIS2_PLACEMENT_3D('',#898,#899,#900);
#902=CIRCLE('',#901,10.15);
#903=EDGE_CURVE('',#814,#517,#902,.T.);
#904=ORIENTED_EDGE('',*,*,#903,.T.);
#905=ORIENTED_EDGE('',*,*,#793,.F.);
#906=ORIENTED_EDGE('',*,*,#436,.F.);
#907=ORIENTED_EDGE('',*,*,#825,.T.);
#908=EDGE_LOOP('',(#904,#905,#906,#907));
#909=FACE_BOUND('',#908,.T.);
#910=ADVANCED_FACE('',(#909),#897,.F.);
#911=CARTESIAN_POINT('',(302.,-100.,3.462132034));
#912=DIRECTION('',(0.,0.,-1.));
#913=DIRECTION('',(-1.,0.,0.));
#914=AXIS2_PLACEMENT_3D('',#911,#912,#913);
#915=CONICAL_SURFACE('',#914,10.15,45.);
#916=ORIENTED_EDGE('',*,*,#903,.F.);
#917=ORIENTED_EDGE('',*,*,#857,.T.);
#918=CARTESIAN_POINT('',(302.,-100.,5.962132034));
#919=DIRECTION('',(0.,0.,1.));
#920=DIRECTION('',(1.,0.,-0.));
#921=AXIS2_PLACEMENT_3D('',#918,#919,#920);
#922=CIRCLE('',#921,7.65);
#923=EDGE_CURVE('',#846,#525,#922,.T.);
#924=ORIENTED_EDGE('',*,*,#923,.T.);
#925=ORIENTED_EDGE('',*,*,#530,.F.);
#926=EDGE_LOOP('',(#916,#917,#924,#925));
#927=FACE_BOUND('',#926,.T.);
#928=ADVANCED_FACE('',(#927),#915,.F.);
#929=CARTESIAN_POINT('',(302.,-100.,12.4));
#930=DIRECTION('',(0.,0.,1.));
#931=DIRECTION('',(1.,0.,-0.));
#932=AXIS2_PLACEMENT_3D('',#929,#930,#931);
#933=CYLINDRICAL_SURFACE('',#932,7.65);
#934=ORIENTED_EDGE('',*,*,#621,.T.);
#935=ORIENTED_EDGE('',*,*,#771,.F.);
#936=ORIENTED_EDGE('',*,*,#923,.F.);
#937=ORIENTED_EDGE('',*,*,#888,.T.);
#938=EDGE_LOOP('',(#934,#935,#936,#937));
#939=FACE_BOUND('',#938,.T.);
#940=ADVANCED_FACE('',(#939),#933,.F.);
#941=CARTESIAN_POINT('',(302.,-100.758557449,3.462132034));
#942=DIRECTION('',(0.,0.,-1.));
#943=DIRECTION('',(-1.,0.,0.));
#944=AXIS2_PLACEMENT_3D('',#941,#942,#943);
#945=CONICAL_SURFACE('',#944,10.15,45.);
#946=ORIENTED_EDGE('',*,*,#514,.F.);
#947=ORIENTED_EDGE('',*,*,#332,.F.);
#948=CARTESIAN_POINT('',(302.,-100.758557449,3.462132034));
#949=DIRECTION('',(0.,0.,1.));
#950=DIRECTION('',(1.,0.,-0.));
#951=AXIS2_PLACEMENT_3D('',#948,#949,#950);
#952=CIRCLE('',#951,10.15);
#953=EDGE_CURVE('',#509,#318,#952,.T.);
#954=ORIENTED_EDGE('',*,*,#953,.F.);
#955=EDGE_LOOP('',(#946,#947,#954));
#956=FACE_BOUND('',#955,.T.);
#957=ADVANCED_FACE('',(#956),#945,.F.);
#958=CARTESIAN_POINT('',(302.,-100.758557449,12.4));
#959=DIRECTION('',(0.,0.,1.));
#960=DIRECTION('',(1.,0.,-0.));
#961=AXIS2_PLACEMENT_3D('',#958,#959,#960);
#962=CYLINDRICAL_SURFACE('',#961,10.15);
#963=ORIENTED_EDGE('',*,*,#786,.T.);
#964=ORIENTED_EDGE('',*,*,#953,.T.);
#965=ORIENTED_EDGE('',*,*,#323,.F.);
#966=ORIENTED_EDGE('',*,*,#451,.F.);
#967=EDGE_LOOP('',(#963,#964,#965,#966));
#968=FACE_BOUND('',#967,.T.);
#969=ADVANCED_FACE('',(#968),#962,.F.);
#970=CARTESIAN_POINT('',(302.,-100.758557449,12.4));
#971=DIRECTION('',(0.,0.,1.));
#972=DIRECTION('',(1.,0.,-0.));
#973=AXIS2_PLACEMENT_3D('',#970,#971,#972);
#974=CYLINDRICAL_SURFACE('',#973,10.15);
#975=ORIENTED_EDGE('',*,*,#419,.F.);
#976=ORIENTED_EDGE('',*,*,#275,.F.);
#977=CARTESIAN_POINT('',(302.,-100.758557449,3.462132034));
#978=DIRECTION('',(0.,0.,1.));
#979=DIRECTION('',(1.,0.,-0.));
#980=AXIS2_PLACEMENT_3D('',#977,#978,#979);
#981=CIRCLE('',#980,10.15);
#982=EDGE_CURVE('',#261,#806,#981,.T.);
#983=ORIENTED_EDGE('',*,*,#982,.T.);
#984=ORIENTED_EDGE('',*,*,#811,.F.);
#985=EDGE_LOOP('',(#975,#976,#983,#984));
#986=FACE_BOUND('',#985,.T.);
#987=ADVANCED_FACE('',(#986),#974,.F.);
#988=CARTESIAN_POINT('',(302.,-100.758557449,3.462132034));
#989=DIRECTION('',(0.,0.,-1.));
#990=DIRECTION('',(-1.,0.,0.));
#991=AXIS2_PLACEMENT_3D('',#988,#989,#990);
#992=CONICAL_SURFACE('',#991,10.15,45.);
#993=ORIENTED_EDGE('',*,*,#982,.F.);
#994=ORIENTED_EDGE('',*,*,#267,.F.);
#995=ORIENTED_EDGE('',*,*,#864,.F.);
#996=EDGE_LOOP('',(#993,#994,#995));
#997=FACE_BOUND('',#996,.T.);
#998=ADVANCED_FACE('',(#997),#992,.F.);
#999=CARTESIAN_POINT('',(302.,-114.,2.25));
#1000=DIRECTION('',(0.,0.,1.));
#1001=DIRECTION('',(1.,0.,-0.));
#1002=AXIS2_PLACEMENT_3D('',#999,#1000,#1001);
#1003=CONICAL_SURFACE('',#1002,10.15,11.575188817);
#1004=ORIENTED_EDGE('',*,*,#641,.T.);
#1005=ORIENTED_EDGE('',*,*,#555,.T.);
#1006=ORIENTED_EDGE('',*,*,#881,.F.);
#1007=ORIENTED_EDGE('',*,*,#843,.F.);
#1008=ORIENTED_EDGE('',*,*,#480,.F.);
#1009=EDGE_LOOP('',(#1004,#1005,#1006,#1007,#1008));
#1010=FACE_BOUND('',#1009,.T.);
#1011=ADVANCED_FACE('',(#1010),#1003,.F.);
#1012=CARTESIAN_POINT('',(302.,-114.,2.25));
#1013=DIRECTION('',(0.,0.,1.));
#1014=DIRECTION('',(1.,0.,-0.));
#1015=AXIS2_PLACEMENT_3D('',#1012,#1013,#1014);
#1016=CONICAL_SURFACE('',#1015,10.15,11.575188817);
#1017=ORIENTED_EDGE('',*,*,#648,.T.);
#1018=ORIENTED_EDGE('',*,*,#374,.T.);
#1019=ORIENTED_EDGE('',*,*,#504,.T.);
#1020=ORIENTED_EDGE('',*,*,#764,.T.);
#1021=ORIENTED_EDGE('',*,*,#604,.T.);
#1022=EDGE_LOOP('',(#1017,#1018,#1019,#1020,#1021));
#1023=FACE_BOUND('',#1022,.T.);
#1024=ADVANCED_FACE('',(#1023),#1016,.F.);
#1025=CLOSED_SHELL('',(#301,#350,#391,#457,#491,#540,#631,#676,#700,#724,#741,#753,#776,#798,#829,#869,#892,#910,#928,#940,#957,#969,#987,#998,#1011,#1024));
#1026=MANIFOLD_SOLID_BREP('Snap In Quick Connect Top Back (1)',#1025);
#252=STYLED_ITEM('',(#251),#1026);
#16=SHAPE_REPRESENTATION('EXAMPLE 1x Snap In Embed Back',(#15),#10);
#17=ADVANCED_BREP_SHAPE_REPRESENTATION('EXAMPLE 1x Snap In Embed Back',(#244,#1026),#10);
#1034=SHAPE_REPRESENTATION_RELATIONSHIP('','',#16,#17);
#1035=CARTESIAN_POINT('',(0.,0.,0.));
#1036=DIRECTION('',(0.,0.,1.));
#1037=DIRECTION('',(1.,0.,0.));
#1038=AXIS2_PLACEMENT_3D('',#1035,#1036,#1037);
#1040=MAPPED_ITEM('',#1039,#1038);
#1039=REPRESENTATION_MAP(#1038,#16);
#1041=APPLICATION_CONTEXT('Managed model based 3d engineering');
#1042=APPLICATION_PROTOCOL_DEFINITION('international standard','ap242_managed_model_based_3d_engineering',2014,#1041);
#1043=PRODUCT_CONTEXT('',#1041,'mechanical');
#1044=PRODUCT_DEFINITION_CONTEXT('part definition',#1041,'design');
#24=PRODUCT('EXAMPLE 1x Snap In Embed Back','EXAMPLE 1x Snap In Embed Back','',(#1043));
#1045=PRODUCT_RELATED_PRODUCT_CATEGORY('part','',(#24));
#1046=PRODUCT_DEFINITION_FORMATION_WITH_SPECIFIED_SOURCE('','',#24,.NOT_KNOWN.);
#25=PRODUCT_DEFINITION('design','',#1046,#1044);
#23=PRODUCT_DEFINITION_SHAPE('','',#25);
#1047=SHAPE_DEFINITION_REPRESENTATION(#23,#16);
#11=DRAUGHTING_MODEL('',(#1040),#10);
#1048=DESCRIPTIVE_REPRESENTATION_ITEM('KEY','/Users/ddanier/Library/Containers/com.shapr3d.shapr/Data/tmp/BEB64153-2A61-491E-B54C-C87C8449B8E0.tmp');
#1049=PROPERTY_DEFINITION('KEY','',#25);
#1050=REPRESENTATION('',(#1048),#10);
#1051=PROPERTY_DEFINITION_REPRESENTATION(#1049,#1050);
#1052=GENERAL_PROPERTY('','KEY','');
#1053=GENERAL_PROPERTY_ASSOCIATION('','',#1052,#1049);
#1=MECHANICAL_DESIGN_GEOMETRIC_PRESENTATION_REPRESENTATION('',(#26,#252),#10);
ENDSEC;
END-ISO-10303-21;
