ISO-10303-21;
HEADER;

/* File generated by Shapr3D Version 5.800.0.8232 */

FILE_DESCRIPTION(('HOOPS Exchange Step'),'2;1');

FILE_NAME('/Users/ddanier/Library/Containers/com.shapr3d.shapr/Data/tmp/export/temp_export',
'2025-03-02T22:00:28+01:00',
('ddanier'),
('Shapr3D Limited'),
'HOOPS Exchange 2024.8',
'Shapr3D',
'Authorized');

FILE_SCHEMA( ('AP242_MANAGED_MODEL_BASED_3D_ENGINEERING_MIM_LF {1 0 10303 442 1 1 4}') );

ENDSEC;

DATA;
#3=(NAMED_UNIT(*)PLANE_ANGLE_UNIT()SI_UNIT($,.RADIAN.));
#4=PLANE_ANGLE_MEASURE_WITH_UNIT(PLANE_ANGLE_MEASURE(0.0174532925),#3);
#5=(CONVERSION_BASED_UNIT('DEGREE',#4)NAMED_UNIT(#6)PLANE_ANGLE_UNIT());
#6=DIMENSIONAL_EXPONENTS(0.,0.,0.,0.,0.,0.,0.);
#7=(NAMED_UNIT(*)SI_UNIT($,.STERADIAN.)SOLID_ANGLE_UNIT());
#8=(LENGTH_UNIT()NAMED_UNIT(*)SI_UNIT(.MILLI.,.METRE.));
#9=UNCERTAINTY_MEASURE_WITH_UNIT(LENGTH_MEASURE(1.000000E-05),#8,'DISTANCE_ACCURACY_VALUE','Maximum Tolerance applied to model');
#10=(GEOMETRIC_REPRESENTATION_CONTEXT(3)GLOBAL_UNCERTAINTY_ASSIGNED_CONTEXT((#9))GLOBAL_UNIT_ASSIGNED_CONTEXT((#8,#5,#7))REPRESENTATION_CONTEXT('','EXAMPLE 1x Embed Back'));
#12=CARTESIAN_POINT('',(0.,0.,0.));
#13=DIRECTION('',(0.,0.,1.));
#14=DIRECTION('',(1.,0.,0.));
#15=AXIS2_PLACEMENT_3D('TS3D_PRODUCT_CSYS',#12,#13,#14);
#27=CARTESIAN_POINT('',(288.,-128.,6.4));
#28=DIRECTION('',(1.,0.,0.));
#29=DIRECTION('',(0.,0.,-1.));
#30=AXIS2_PLACEMENT_3D('',#27,#28,#29);
#31=PLANE('',#30);
#32=CARTESIAN_POINT('',(288.,-114.,0.));
#33=VERTEX_POINT('',#32);
#34=CARTESIAN_POINT('',(288.,-128.,0.));
#35=VERTEX_POINT('',#34);
#36=CARTESIAN_POINT('',(288.,-114.,0.));
#37=DIRECTION('',(0.,-1.,0.));
#38=VECTOR('',#37,14.);
#39=LINE('',#36,#38);
#40=EDGE_CURVE('',#33,#35,#39,.T.);
#41=ORIENTED_EDGE('',*,*,#40,.F.);
#42=CARTESIAN_POINT('',(288.,-114.,6.4));
#43=VERTEX_POINT('',#42);
#44=CARTESIAN_POINT('',(288.,-114.,6.4));
#45=DIRECTION('',(0.,0.,-1.));
#46=VECTOR('',#45,6.4);
#47=LINE('',#44,#46);
#48=EDGE_CURVE('',#43,#33,#47,.T.);
#49=ORIENTED_EDGE('',*,*,#48,.F.);
#50=CARTESIAN_POINT('',(288.,-128.,6.4));
#51=VERTEX_POINT('',#50);
#52=CARTESIAN_POINT('',(288.,-114.,6.4));
#53=DIRECTION('',(0.,-1.,0.));
#54=VECTOR('',#53,14.);
#55=LINE('',#52,#54);
#56=EDGE_CURVE('',#43,#51,#55,.T.);
#57=ORIENTED_EDGE('',*,*,#56,.T.);
#58=CARTESIAN_POINT('',(288.,-128.,6.4));
#59=DIRECTION('',(0.,0.,-1.));
#60=VECTOR('',#59,6.4);
#61=LINE('',#58,#60);
#62=EDGE_CURVE('',#51,#35,#61,.T.);
#63=ORIENTED_EDGE('',*,*,#62,.T.);
#64=EDGE_LOOP('',(#41,#49,#57,#63));
#65=FACE_BOUND('',#64,.T.);
#66=ADVANCED_FACE('',(#65),#31,.T.);
#67=CARTESIAN_POINT('',(274.,-114.,6.4));
#68=DIRECTION('',(0.,1.,0.));
#69=DIRECTION('',(0.,0.,1.));
#70=AXIS2_PLACEMENT_3D('',#67,#68,#69);
#71=PLANE('',#70);
#72=CARTESIAN_POINT('',(263.85,-114.,2.25));
#73=VERTEX_POINT('',#72);
#74=CARTESIAN_POINT('',(263.,-114.,6.4));
#75=VERTEX_POINT('',#74);
#76=CARTESIAN_POINT('',(263.85,-114.,2.25));
#77=DIRECTION('',(-0.20065371,0.,0.979662232));
#78=VECTOR('',#77,4.236153916);
#79=LINE('',#76,#78);
#80=EDGE_CURVE('',#73,#75,#79,.T.);
#81=ORIENTED_EDGE('',*,*,#80,.F.);
#82=CARTESIAN_POINT('',(284.15,-114.,2.25));
#83=VERTEX_POINT('',#82);
#84=CARTESIAN_POINT('',(263.85,-114.,2.25));
#85=DIRECTION('',(1.,0.,-0.));
#86=VECTOR('',#85,20.3);
#87=LINE('',#84,#86);
#88=EDGE_CURVE('',#73,#83,#87,.T.);
#89=ORIENTED_EDGE('',*,*,#88,.T.);
#90=CARTESIAN_POINT('',(285.,-114.,6.4));
#91=VERTEX_POINT('',#90);
#92=CARTESIAN_POINT('',(285.,-114.,6.4));
#93=DIRECTION('',(-0.20065371,0.,-0.979662232));
#94=VECTOR('',#93,4.236153916);
#95=LINE('',#92,#94);
#96=EDGE_CURVE('',#91,#83,#95,.T.);
#97=ORIENTED_EDGE('',*,*,#96,.F.);
#98=CARTESIAN_POINT('',(285.,-114.,6.4));
#99=DIRECTION('',(1.,0.,-0.));
#100=VECTOR('',#99,3.);
#101=LINE('',#98,#100);
#102=EDGE_CURVE('',#91,#43,#101,.T.);
#103=ORIENTED_EDGE('',*,*,#102,.T.);
#104=ORIENTED_EDGE('',*,*,#48,.T.);
#105=CARTESIAN_POINT('',(260.,-114.,0.));
#106=VERTEX_POINT('',#105);
#107=CARTESIAN_POINT('',(260.,-114.,0.));
#108=DIRECTION('',(1.,0.,-0.));
#109=VECTOR('',#108,28.);
#110=LINE('',#107,#109);
#111=EDGE_CURVE('',#106,#33,#110,.T.);
#112=ORIENTED_EDGE('',*,*,#111,.F.);
#113=CARTESIAN_POINT('',(260.,-114.,6.4));
#114=VERTEX_POINT('',#113);
#115=CARTESIAN_POINT('',(260.,-114.,6.4));
#116=DIRECTION('',(0.,0.,-1.));
#117=VECTOR('',#116,6.4);
#118=LINE('',#115,#117);
#119=EDGE_CURVE('',#114,#106,#118,.T.);
#120=ORIENTED_EDGE('',*,*,#119,.F.);
#121=CARTESIAN_POINT('',(260.,-114.,6.4));
#122=DIRECTION('',(1.,0.,-0.));
#123=VECTOR('',#122,3.);
#124=LINE('',#121,#123);
#125=EDGE_CURVE('',#114,#75,#124,.T.);
#126=ORIENTED_EDGE('',*,*,#125,.T.);
#127=EDGE_LOOP('',(#81,#89,#97,#103,#104,#112,#120,#126));
#128=FACE_BOUND('',#127,.T.);
#129=ADVANCED_FACE('',(#128),#71,.T.);
#130=CARTESIAN_POINT('',(260.,-128.,6.4));
#131=DIRECTION('',(-1.,-0.,0.));
#132=DIRECTION('',(0.,-1.,0.));
#133=AXIS2_PLACEMENT_3D('',#130,#131,#132);
#134=PLANE('',#133);
#135=CARTESIAN_POINT('',(260.,-128.,0.));
#136=VERTEX_POINT('',#135);
#137=CARTESIAN_POINT('',(260.,-128.,0.));
#138=DIRECTION('',(-0.,1.,0.));
#139=VECTOR('',#138,14.);
#140=LINE('',#137,#139);
#141=EDGE_CURVE('',#136,#106,#140,.T.);
#142=ORIENTED_EDGE('',*,*,#141,.F.);
#143=CARTESIAN_POINT('',(260.,-128.,6.4));
#144=VERTEX_POINT('',#143);
#145=CARTESIAN_POINT('',(260.,-128.,6.4));
#146=DIRECTION('',(0.,0.,-1.));
#147=VECTOR('',#146,6.4);
#148=LINE('',#145,#147);
#149=EDGE_CURVE('',#144,#136,#148,.T.);
#150=ORIENTED_EDGE('',*,*,#149,.F.);
#151=CARTESIAN_POINT('',(260.,-128.,6.4));
#152=DIRECTION('',(-0.,1.,0.));
#153=VECTOR('',#152,14.);
#154=LINE('',#151,#153);
#155=EDGE_CURVE('',#144,#114,#154,.T.);
#156=ORIENTED_EDGE('',*,*,#155,.T.);
#157=ORIENTED_EDGE('',*,*,#119,.T.);
#158=EDGE_LOOP('',(#142,#150,#156,#157));
#159=FACE_BOUND('',#158,.T.);
#160=ADVANCED_FACE('',(#159),#134,.T.);
#161=CARTESIAN_POINT('',(274.,-128.,6.4));
#162=DIRECTION('',(0.,-1.,0.));
#163=DIRECTION('',(1.,0.,0.));
#164=AXIS2_PLACEMENT_3D('',#161,#162,#163);
#165=PLANE('',#164);
#166=CARTESIAN_POINT('',(288.,-128.,0.));
#167=DIRECTION('',(-1.,-0.,0.));
#168=VECTOR('',#167,28.);
#169=LINE('',#166,#168);
#170=EDGE_CURVE('',#35,#136,#169,.T.);
#171=ORIENTED_EDGE('',*,*,#170,.F.);
#172=ORIENTED_EDGE('',*,*,#62,.F.);
#173=CARTESIAN_POINT('',(288.,-128.,6.4));
#174=DIRECTION('',(-1.,-0.,0.));
#175=VECTOR('',#174,28.);
#176=LINE('',#173,#175);
#177=EDGE_CURVE('',#51,#144,#176,.T.);
#178=ORIENTED_EDGE('',*,*,#177,.T.);
#179=ORIENTED_EDGE('',*,*,#149,.T.);
#180=EDGE_LOOP('',(#171,#172,#178,#179));
#181=FACE_BOUND('',#180,.T.);
#182=ADVANCED_FACE('',(#181),#165,.T.);
#183=CARTESIAN_POINT('',(224.,-128.,6.4));
#184=DIRECTION('',(0.,0.,1.));
#185=DIRECTION('',(1.,0.,0.));
#186=AXIS2_PLACEMENT_3D('',#183,#184,#185);
#187=PLANE('',#186);
#188=CARTESIAN_POINT('',(274.,-114.,6.4));
#189=DIRECTION('',(0.,-0.,1.));
#190=DIRECTION('',(-1.,-0.,0.));
#191=AXIS2_PLACEMENT_3D('',#188,#189,#190);
#192=CIRCLE('',#191,11.);
#193=EDGE_CURVE('',#75,#91,#192,.T.);
#194=ORIENTED_EDGE('',*,*,#193,.F.);
#195=ORIENTED_EDGE('',*,*,#125,.F.);
#196=ORIENTED_EDGE('',*,*,#155,.F.);
#197=ORIENTED_EDGE('',*,*,#177,.F.);
#198=ORIENTED_EDGE('',*,*,#56,.F.);
#199=ORIENTED_EDGE('',*,*,#102,.F.);
#200=EDGE_LOOP('',(#194,#195,#196,#197,#198,#199));
#201=FACE_BOUND('',#200,.T.);
#202=ADVANCED_FACE('',(#201),#187,.T.);
#203=CARTESIAN_POINT('',(224.,-128.,0.));
#204=DIRECTION('',(0.,0.,1.));
#205=DIRECTION('',(1.,0.,0.));
#206=AXIS2_PLACEMENT_3D('',#203,#204,#205);
#207=PLANE('',#206);
#208=ORIENTED_EDGE('',*,*,#40,.T.);
#209=ORIENTED_EDGE('',*,*,#170,.T.);
#210=ORIENTED_EDGE('',*,*,#141,.T.);
#211=ORIENTED_EDGE('',*,*,#111,.T.);
#212=EDGE_LOOP('',(#208,#209,#210,#211));
#213=FACE_BOUND('',#212,.T.);
#214=ADVANCED_FACE('',(#213),#207,.F.);
#215=CARTESIAN_POINT('',(249.,-114.,2.25));
#216=DIRECTION('',(0.,-0.,1.));
#217=DIRECTION('',(-1.,-0.,0.));
#218=AXIS2_PLACEMENT_3D('',#215,#216,#217);
#219=PLANE('',#218);
#220=CARTESIAN_POINT('',(274.,-114.,2.25));
#221=DIRECTION('',(0.,-0.,1.));
#222=DIRECTION('',(-1.,-0.,0.));
#223=AXIS2_PLACEMENT_3D('',#220,#221,#222);
#224=CIRCLE('',#223,10.15);
#225=EDGE_CURVE('',#73,#83,#224,.T.);
#226=ORIENTED_EDGE('',*,*,#225,.T.);
#227=ORIENTED_EDGE('',*,*,#88,.F.);
#228=EDGE_LOOP('',(#226,#227));
#229=FACE_BOUND('',#228,.T.);
#230=ADVANCED_FACE('',(#229),#219,.T.);
#231=CARTESIAN_POINT('',(274.,-114.,2.25));
#232=DIRECTION('',(0.,-0.,1.));
#233=DIRECTION('',(-1.,-0.,0.));
#234=AXIS2_PLACEMENT_3D('',#231,#232,#233);
#235=CONICAL_SURFACE('',#234,10.15,11.575188817);
#236=ORIENTED_EDGE('',*,*,#80,.T.);
#237=ORIENTED_EDGE('',*,*,#193,.T.);
#238=ORIENTED_EDGE('',*,*,#96,.T.);
#239=ORIENTED_EDGE('',*,*,#225,.F.);
#240=EDGE_LOOP('',(#236,#237,#238,#239));
#241=FACE_BOUND('',#240,.T.);
#242=ADVANCED_FACE('',(#241),#235,.F.);
#243=CLOSED_SHELL('',(#66,#129,#160,#182,#202,#214,#230,#242));
#244=MANIFOLD_SOLID_BREP('Base Back (2)',#243);
#245=COLOUR_RGB('',0.580392182,0.580392182,0.580392182);
#246=FILL_AREA_STYLE_COLOUR('',#245);
#247=FILL_AREA_STYLE('',(#246));
#248=SURFACE_STYLE_FILL_AREA(#247);
#249=SURFACE_SIDE_STYLE('',(#248));
#250=SURFACE_STYLE_USAGE(.BOTH.,#249);
#251=PRESENTATION_STYLE_ASSIGNMENT((#250));
#26=STYLED_ITEM('',(#251),#244);
#253=CARTESIAN_POINT('',(224.,-100.,6.4));
#254=DIRECTION('',(0.,0.,1.));
#255=DIRECTION('',(1.,0.,0.));
#256=AXIS2_PLACEMENT_3D('',#253,#254,#255);
#257=PLANE('',#256);
#258=CARTESIAN_POINT('',(265.247498014,-107.33713958,6.4));
#259=VERTEX_POINT('',#258);
#260=CARTESIAN_POINT('',(263.,-114.,6.4));
#261=VERTEX_POINT('',#260);
#262=CARTESIAN_POINT('',(274.,-114.,6.4));
#263=DIRECTION('',(0.,0.,1.));
#264=DIRECTION('',(1.,0.,-0.));
#265=AXIS2_PLACEMENT_3D('',#262,#263,#264);
#266=CIRCLE('',#265,11.);
#267=EDGE_CURVE('',#259,#261,#266,.T.);
#268=ORIENTED_EDGE('',*,*,#267,.F.);
#269=CARTESIAN_POINT('',(266.35,-104.034566182,6.4));
#270=VERTEX_POINT('',#269);
#271=CARTESIAN_POINT('',(265.247498014,-107.33713958,6.4));
#272=CARTESIAN_POINT('',(265.428025071,-107.09999385,6.4));
#273=CARTESIAN_POINT('',(265.586063221,-106.850788817,6.4));
#274=CARTESIAN_POINT('',(265.722962287,-106.5902483,6.4));
#275=CARTESIAN_POINT('',(265.859861353,-106.329707782,6.4));
#276=CARTESIAN_POINT('',(265.976010929,-106.056580479,6.4));
#277=CARTESIAN_POINT('',(266.069580193,-105.774510764,6.4));
#278=CARTESIAN_POINT('',(266.163149457,-105.492441049,6.4));
#279=CARTESIAN_POINT('',(266.232753904,-105.206318039,6.4));
#280=CARTESIAN_POINT('',(266.279467134,-104.916323317,6.4));
#281=CARTESIAN_POINT('',(266.326180364,-104.626328595,6.4));
#282=CARTESIAN_POINT('',(266.35,-104.332461759,6.4));
#283=CARTESIAN_POINT('',(266.35,-104.034566182,6.4));
#284=B_SPLINE_CURVE_WITH_KNOTS('',3,(#271,#272,#273,#274,#275,#276,#277,#278,#279,#280,#281,#282,#283),.UNSPECIFIED.,.F.,.F.,(4,3,3,3,4),(0.,0.000882921,0.001765842,0.002648762,0.003531683),.UNSPECIFIED.);
#285=EDGE_CURVE('',#259,#270,#284,.T.);
#286=ORIENTED_EDGE('',*,*,#285,.T.);
#287=CARTESIAN_POINT('',(266.35,-100.,6.4));
#288=VERTEX_POINT('',#287);
#289=CARTESIAN_POINT('',(266.35,-100.,6.4));
#290=DIRECTION('',(0.,-1.,0.));
#291=VECTOR('',#290,4.034566182);
#292=LINE('',#289,#291);
#293=EDGE_CURVE('',#288,#270,#292,.T.);
#294=ORIENTED_EDGE('',*,*,#293,.F.);
#295=CARTESIAN_POINT('',(281.65,-100.,6.4));
#296=VERTEX_POINT('',#295);
#297=CARTESIAN_POINT('',(274.,-100.,6.4));
#298=DIRECTION('',(0.,0.,1.));
#299=DIRECTION('',(1.,0.,-0.));
#300=AXIS2_PLACEMENT_3D('',#297,#298,#299);
#301=CIRCLE('',#300,7.65);
#302=EDGE_CURVE('',#296,#288,#301,.T.);
#303=ORIENTED_EDGE('',*,*,#302,.F.);
#304=CARTESIAN_POINT('',(281.65,-104.034566182,6.4));
#305=VERTEX_POINT('',#304);
#306=CARTESIAN_POINT('',(281.65,-100.,6.4));
#307=DIRECTION('',(0.,-1.,0.));
#308=VECTOR('',#307,4.034566182);
#309=LINE('',#306,#308);
#310=EDGE_CURVE('',#296,#305,#309,.T.);
#311=ORIENTED_EDGE('',*,*,#310,.T.);
#312=CARTESIAN_POINT('',(282.752501986,-107.33713958,6.4));
#313=VERTEX_POINT('',#312);
#314=CARTESIAN_POINT('',(281.65,-104.034566182,6.4));
#315=CARTESIAN_POINT('',(281.65,-104.332460847,6.4));
#316=CARTESIAN_POINT('',(281.673820542,-104.626615974,6.4));
#317=CARTESIAN_POINT('',(281.72066711,-104.917156294,6.4));
#318=CARTESIAN_POINT('',(281.767513678,-105.207696614,6.4));
#319=CARTESIAN_POINT('',(281.837632881,-105.495372177,6.4));
#320=CARTESIAN_POINT('',(281.931471179,-105.777676952,6.4));
#321=CARTESIAN_POINT('',(282.025309476,-106.059981727,6.4));
#322=CARTESIAN_POINT('',(282.140775713,-106.331022748,6.4));
#323=CARTESIAN_POINT('',(282.277444182,-106.591021721,6.4));
#324=CARTESIAN_POINT('',(282.41411265,-106.851020694,6.4));
#325=CARTESIAN_POINT('',(282.571968822,-107.099985186,6.4));
#326=CARTESIAN_POINT('',(282.752501986,-107.33713958,6.4));
#327=B_SPLINE_CURVE_WITH_KNOTS('',3,(#314,#315,#316,#317,#318,#319,#320,#321,#322,#323,#324,#325,#326),.UNSPECIFIED.,.F.,.F.,(4,3,3,3,4),(0.,0.000882871,0.001765742,0.002648613,0.003531484),.UNSPECIFIED.);
#328=EDGE_CURVE('',#305,#313,#327,.T.);
#329=ORIENTED_EDGE('',*,*,#328,.T.);
#330=CARTESIAN_POINT('',(285.,-114.,6.4));
#331=VERTEX_POINT('',#330);
#332=CARTESIAN_POINT('',(274.,-114.,6.4));
#333=DIRECTION('',(0.,0.,1.));
#334=DIRECTION('',(1.,0.,-0.));
#335=AXIS2_PLACEMENT_3D('',#332,#333,#334);
#336=CIRCLE('',#335,11.);
#337=EDGE_CURVE('',#331,#313,#336,.T.);
#338=ORIENTED_EDGE('',*,*,#337,.F.);
#339=CARTESIAN_POINT('',(288.,-114.,6.4));
#340=VERTEX_POINT('',#339);
#341=CARTESIAN_POINT('',(288.,-114.,6.4));
#342=DIRECTION('',(-1.,-0.,0.));
#343=VECTOR('',#342,3.);
#344=LINE('',#341,#343);
#345=EDGE_CURVE('',#340,#331,#344,.T.);
#346=ORIENTED_EDGE('',*,*,#345,.F.);
#347=CARTESIAN_POINT('',(288.,-86.,6.4));
#348=VERTEX_POINT('',#347);
#349=CARTESIAN_POINT('',(288.,-86.,6.4));
#350=DIRECTION('',(0.,-1.,0.));
#351=VECTOR('',#350,28.);
#352=LINE('',#349,#351);
#353=EDGE_CURVE('',#348,#340,#352,.T.);
#354=ORIENTED_EDGE('',*,*,#353,.F.);
#355=CARTESIAN_POINT('',(260.,-86.,6.4));
#356=VERTEX_POINT('',#355);
#357=CARTESIAN_POINT('',(260.,-86.,6.4));
#358=DIRECTION('',(1.,0.,-0.));
#359=VECTOR('',#358,28.);
#360=LINE('',#357,#359);
#361=EDGE_CURVE('',#356,#348,#360,.T.);
#362=ORIENTED_EDGE('',*,*,#361,.F.);
#363=CARTESIAN_POINT('',(260.,-114.,6.4));
#364=VERTEX_POINT('',#363);
#365=CARTESIAN_POINT('',(260.,-114.,6.4));
#366=DIRECTION('',(-0.,1.,0.));
#367=VECTOR('',#366,28.);
#368=LINE('',#365,#367);
#369=EDGE_CURVE('',#364,#356,#368,.T.);
#370=ORIENTED_EDGE('',*,*,#369,.F.);
#371=CARTESIAN_POINT('',(263.,-114.,6.4));
#372=DIRECTION('',(-1.,-0.,0.));
#373=VECTOR('',#372,3.);
#374=LINE('',#371,#373);
#375=EDGE_CURVE('',#261,#364,#374,.T.);
#376=ORIENTED_EDGE('',*,*,#375,.F.);
#377=EDGE_LOOP('',(#268,#286,#294,#303,#311,#329,#338,#346,#354,#362,#370,#376));
#378=FACE_BOUND('',#377,.T.);
#379=ADVANCED_FACE('',(#378),#257,.T.);
#380=CARTESIAN_POINT('',(274.,-114.,6.4));
#381=DIRECTION('',(0.,-1.,0.));
#382=DIRECTION('',(1.,0.,0.));
#383=AXIS2_PLACEMENT_3D('',#380,#381,#382);
#384=PLANE('',#383);
#385=CARTESIAN_POINT('',(263.824250314,-114.,2.25));
#386=VERTEX_POINT('',#385);
#387=CARTESIAN_POINT('',(284.175749686,-114.,2.25));
#388=VERTEX_POINT('',#387);
#389=CARTESIAN_POINT('',(263.824250314,-114.,2.25));
#390=DIRECTION('',(1.,0.,0.));
#391=VECTOR('',#390,20.351499372);
#392=LINE('',#389,#391);
#393=EDGE_CURVE('',#386,#388,#392,.T.);
#394=ORIENTED_EDGE('',*,*,#393,.F.);
#395=CARTESIAN_POINT('',(263.748311159,-114.,2.74648081));
#396=VERTEX_POINT('',#395);
#397=CARTESIAN_POINT('',(258.85,-114.,1.743212259));
#398=DIRECTION('',(0.,-1.,0.));
#399=DIRECTION('',(1.,0.,0.));
#400=AXIS2_PLACEMENT_3D('',#397,#398,#399);
#401=CIRCLE('',#400,5.);
#402=EDGE_CURVE('',#386,#396,#401,.T.);
#403=ORIENTED_EDGE('',*,*,#402,.T.);
#404=CARTESIAN_POINT('',(263.,-114.,6.4));
#405=DIRECTION('',(0.20065371,0.,-0.979662232));
#406=VECTOR('',#405,3.729366175);
#407=LINE('',#404,#406);
#408=EDGE_CURVE('',#261,#396,#407,.T.);
#409=ORIENTED_EDGE('',*,*,#408,.F.);
#410=ORIENTED_EDGE('',*,*,#375,.T.);
#411=CARTESIAN_POINT('',(260.,-114.,0.));
#412=VERTEX_POINT('',#411);
#413=CARTESIAN_POINT('',(260.,-114.,6.4));
#414=DIRECTION('',(0.,0.,-1.));
#415=VECTOR('',#414,6.4);
#416=LINE('',#413,#415);
#417=EDGE_CURVE('',#364,#412,#416,.T.);
#418=ORIENTED_EDGE('',*,*,#417,.T.);
#419=CARTESIAN_POINT('',(288.,-114.,0.));
#420=VERTEX_POINT('',#419);
#421=CARTESIAN_POINT('',(288.,-114.,0.));
#422=DIRECTION('',(-1.,-0.,0.));
#423=VECTOR('',#422,28.);
#424=LINE('',#421,#423);
#425=EDGE_CURVE('',#420,#412,#424,.T.);
#426=ORIENTED_EDGE('',*,*,#425,.F.);
#427=CARTESIAN_POINT('',(288.,-114.,6.4));
#428=DIRECTION('',(0.,0.,-1.));
#429=VECTOR('',#428,6.4);
#430=LINE('',#427,#429);
#431=EDGE_CURVE('',#340,#420,#430,.T.);
#432=ORIENTED_EDGE('',*,*,#431,.F.);
#433=ORIENTED_EDGE('',*,*,#345,.T.);
#434=CARTESIAN_POINT('',(284.251688841,-114.,2.74648081));
#435=VERTEX_POINT('',#434);
#436=CARTESIAN_POINT('',(284.251688841,-114.,2.74648081));
#437=DIRECTION('',(0.20065371,0.,0.979662232));
#438=VECTOR('',#437,3.729366175);
#439=LINE('',#436,#438);
#440=EDGE_CURVE('',#435,#331,#439,.T.);
#441=ORIENTED_EDGE('',*,*,#440,.F.);
#442=CARTESIAN_POINT('',(289.15,-114.,1.743212259));
#443=DIRECTION('',(0.,-1.,0.));
#444=DIRECTION('',(1.,0.,0.));
#445=AXIS2_PLACEMENT_3D('',#442,#443,#444);
#446=CIRCLE('',#445,5.);
#447=EDGE_CURVE('',#435,#388,#446,.T.);
#448=ORIENTED_EDGE('',*,*,#447,.T.);
#449=EDGE_LOOP('',(#394,#403,#409,#410,#418,#426,#432,#433,#441,#448));
#450=FACE_BOUND('',#449,.T.);
#451=ADVANCED_FACE('',(#450),#384,.T.);
#452=CARTESIAN_POINT('',(288.,-100.,6.4));
#453=DIRECTION('',(1.,0.,0.));
#454=DIRECTION('',(0.,0.,-1.));
#455=AXIS2_PLACEMENT_3D('',#452,#453,#454);
#456=PLANE('',#455);
#457=CARTESIAN_POINT('',(288.,-86.,0.));
#458=VERTEX_POINT('',#457);
#459=CARTESIAN_POINT('',(288.,-86.,0.));
#460=DIRECTION('',(0.,-1.,0.));
#461=VECTOR('',#460,28.);
#462=LINE('',#459,#461);
#463=EDGE_CURVE('',#458,#420,#462,.T.);
#464=ORIENTED_EDGE('',*,*,#463,.F.);
#465=CARTESIAN_POINT('',(288.,-86.,6.4));
#466=DIRECTION('',(0.,0.,-1.));
#467=VECTOR('',#466,6.4);
#468=LINE('',#465,#467);
#469=EDGE_CURVE('',#348,#458,#468,.T.);
#470=ORIENTED_EDGE('',*,*,#469,.F.);
#471=ORIENTED_EDGE('',*,*,#353,.T.);
#472=ORIENTED_EDGE('',*,*,#431,.T.);
#473=EDGE_LOOP('',(#464,#470,#471,#472));
#474=FACE_BOUND('',#473,.T.);
#475=ADVANCED_FACE('',(#474),#456,.T.);
#476=CARTESIAN_POINT('',(274.,-86.,6.4));
#477=DIRECTION('',(0.,1.,0.));
#478=DIRECTION('',(0.,0.,1.));
#479=AXIS2_PLACEMENT_3D('',#476,#477,#478);
#480=PLANE('',#479);
#481=CARTESIAN_POINT('',(260.,-86.,0.));
#482=VERTEX_POINT('',#481);
#483=CARTESIAN_POINT('',(260.,-86.,0.));
#484=DIRECTION('',(1.,0.,-0.));
#485=VECTOR('',#484,28.);
#486=LINE('',#483,#485);
#487=EDGE_CURVE('',#482,#458,#486,.T.);
#488=ORIENTED_EDGE('',*,*,#487,.F.);
#489=CARTESIAN_POINT('',(260.,-86.,6.4));
#490=DIRECTION('',(0.,0.,-1.));
#491=VECTOR('',#490,6.4);
#492=LINE('',#489,#491);
#493=EDGE_CURVE('',#356,#482,#492,.T.);
#494=ORIENTED_EDGE('',*,*,#493,.F.);
#495=ORIENTED_EDGE('',*,*,#361,.T.);
#496=ORIENTED_EDGE('',*,*,#469,.T.);
#497=EDGE_LOOP('',(#488,#494,#495,#496));
#498=FACE_BOUND('',#497,.T.);
#499=ADVANCED_FACE('',(#498),#480,.T.);
#500=CARTESIAN_POINT('',(260.,-100.,6.4));
#501=DIRECTION('',(-1.,-0.,0.));
#502=DIRECTION('',(0.,-1.,0.));
#503=AXIS2_PLACEMENT_3D('',#500,#501,#502);
#504=PLANE('',#503);
#505=CARTESIAN_POINT('',(260.,-114.,0.));
#506=DIRECTION('',(-0.,1.,0.));
#507=VECTOR('',#506,28.);
#508=LINE('',#505,#507);
#509=EDGE_CURVE('',#412,#482,#508,.T.);
#510=ORIENTED_EDGE('',*,*,#509,.F.);
#511=ORIENTED_EDGE('',*,*,#417,.F.);
#512=ORIENTED_EDGE('',*,*,#369,.T.);
#513=ORIENTED_EDGE('',*,*,#493,.T.);
#514=EDGE_LOOP('',(#510,#511,#512,#513));
#515=FACE_BOUND('',#514,.T.);
#516=ADVANCED_FACE('',(#515),#504,.T.);
#517=CARTESIAN_POINT('',(224.,-100.,0.));
#518=DIRECTION('',(0.,0.,1.));
#519=DIRECTION('',(1.,0.,0.));
#520=AXIS2_PLACEMENT_3D('',#517,#518,#519);
#521=PLANE('',#520);
#522=ORIENTED_EDGE('',*,*,#463,.T.);
#523=ORIENTED_EDGE('',*,*,#425,.T.);
#524=ORIENTED_EDGE('',*,*,#509,.T.);
#525=ORIENTED_EDGE('',*,*,#487,.T.);
#526=EDGE_LOOP('',(#522,#523,#524,#525));
#527=FACE_BOUND('',#526,.T.);
#528=ADVANCED_FACE('',(#527),#521,.F.);
#529=CARTESIAN_POINT('',(266.35,-100.,6.181066017));
#530=DIRECTION('',(1.,0.,0.));
#531=DIRECTION('',(0.,0.,-1.));
#532=AXIS2_PLACEMENT_3D('',#529,#530,#531);
#533=PLANE('',#532);
#534=ORIENTED_EDGE('',*,*,#293,.T.);
#535=CARTESIAN_POINT('',(266.35,-104.180152016,5.962132034));
#536=VERTEX_POINT('',#535);
#537=CARTESIAN_POINT('',(266.35,-104.034566181,6.4));
#538=CARTESIAN_POINT('',(266.35,-104.082893782,6.253986754));
#539=CARTESIAN_POINT('',(266.349999953,-104.131375434,6.108017383));
#540=CARTESIAN_POINT('',(266.35,-104.180107882,5.962119463));
#541=B_SPLINE_CURVE_WITH_KNOTS('',3,(#537,#538,#539,#540),.UNSPECIFIED.,.F.,.F.,(4,4),(0.025770474,0.026231474),.UNSPECIFIED.);
#542=EDGE_CURVE('',#270,#536,#541,.T.);
#543=ORIENTED_EDGE('',*,*,#542,.T.);
#544=CARTESIAN_POINT('',(266.35,-100.,5.962132034));
#545=VERTEX_POINT('',#544);
#546=CARTESIAN_POINT('',(266.35,-100.,5.962132034));
#547=DIRECTION('',(0.,-1.,0.));
#548=VECTOR('',#547,4.180152016);
#549=LINE('',#546,#548);
#550=EDGE_CURVE('',#545,#536,#549,.T.);
#551=ORIENTED_EDGE('',*,*,#550,.F.);
#552=CARTESIAN_POINT('',(266.35,-100.,5.962132034));
#553=DIRECTION('',(0.,0.,1.));
#554=VECTOR('',#553,0.437867966);
#555=LINE('',#552,#554);
#556=EDGE_CURVE('',#545,#288,#555,.T.);
#557=ORIENTED_EDGE('',*,*,#556,.T.);
#558=EDGE_LOOP('',(#534,#543,#551,#557));
#559=FACE_BOUND('',#558,.T.);
#560=ADVANCED_FACE('',(#559),#533,.T.);
#561=CARTESIAN_POINT('',(265.1,-100.,4.712132034));
#562=DIRECTION('',(0.707106781,0.,-0.707106781));
#563=DIRECTION('',(-0.707106781,0.,-0.707106781));
#564=AXIS2_PLACEMENT_3D('',#561,#562,#563);
#565=PLANE('',#564);
#566=ORIENTED_EDGE('',*,*,#550,.T.);
#567=CARTESIAN_POINT('',(265.322492919,-107.739973016,4.934624953));
#568=VERTEX_POINT('',#567);
#569=CARTESIAN_POINT('',(266.35,-104.180152016,5.962132034));
#570=CARTESIAN_POINT('',(266.350001632,-104.511394757,5.962133667));
#571=CARTESIAN_POINT('',(266.320867303,-104.834456641,5.932999337));
#572=CARTESIAN_POINT('',(266.269246409,-105.1512047,5.881378443));
#573=CARTESIAN_POINT('',(266.243435962,-105.309578729,5.855567996));
#574=CARTESIAN_POINT('',(266.21192111,-105.466351064,5.824053144));
#575=CARTESIAN_POINT('',(266.17516279,-105.621651127,5.787294824));
#576=CARTESIAN_POINT('',(266.138404469,-105.77695119,5.750536503));
#577=CARTESIAN_POINT('',(266.096190865,-105.931342094,5.708322899));
#578=CARTESIAN_POINT('',(266.049947414,-106.081650945,5.662079448));
#579=CARTESIAN_POINT('',(265.957460513,-106.382268647,5.569592547));
#580=CARTESIAN_POINT('',(265.848586093,-106.669077489,5.460718128));
#581=CARTESIAN_POINT('',(265.726557248,-106.94480182,5.338689283));
#582=CARTESIAN_POINT('',(265.604528403,-107.220526151,5.216660438));
#583=CARTESIAN_POINT('',(265.469280443,-107.485111461,5.081412477));
#584=CARTESIAN_POINT('',(265.322492919,-107.739973016,4.934624953));
#585=B_SPLINE_CURVE_WITH_KNOTS('',3,(#569,#570,#571,#572,#573,#574,#575,#576,#577,#578,#579,#580,#581,#582,#583,#584),.UNSPECIFIED.,.F.,.F.,(4,3,3,3,3,4),(0.,0.000974702,0.001462052,0.001949403,0.002924105,0.003898806),.UNSPECIFIED.);
#586=EDGE_CURVE('',#536,#568,#585,.T.);
#587=ORIENTED_EDGE('',*,*,#586,.T.);
#588=CARTESIAN_POINT('',(263.710454908,-112.71327566,3.322586942));
#589=VERTEX_POINT('',#588);
#590=CARTESIAN_POINT('',(276.66747063,-114.,16.279602664));
#591=DIRECTION('',(0.707106781,0.,-0.707106781));
#592=DIRECTION('',(0.707106781,0.,0.707106781));
#593=AXIS2_PLACEMENT_3D('',#590,#591,#592);
#594=ELLIPSE('',#593,18.418057106,12.747431671);
#595=EDGE_CURVE('',#589,#568,#594,.T.);
#596=ORIENTED_EDGE('',*,*,#595,.F.);
#597=CARTESIAN_POINT('',(263.85,-110.714941499,3.462132034));
#598=VERTEX_POINT('',#597);
#599=CARTESIAN_POINT('',(263.710454908,-112.71327566,3.322586942));
#600=CARTESIAN_POINT('',(263.744817235,-112.38177088,3.35694927));
#601=CARTESIAN_POINT('',(263.780186142,-112.050406681,3.392318176));
#602=CARTESIAN_POINT('',(263.806387921,-111.717762187,3.418519956));
#603=CARTESIAN_POINT('',(263.832589701,-111.385117694,3.444721735));
#604=CARTESIAN_POINT('',(263.850000003,-111.05124537,3.462132037));
#605=CARTESIAN_POINT('',(263.85,-110.714941499,3.462132034));
#606=B_SPLINE_CURVE_WITH_KNOTS('',3,(#599,#600,#601,#602,#603,#604,#605),.UNSPECIFIED.,.F.,.F.,(4,3,4),(0.,0.001004028,0.002008055),.UNSPECIFIED.);
#607=EDGE_CURVE('',#589,#598,#606,.T.);
#608=ORIENTED_EDGE('',*,*,#607,.T.);
#609=CARTESIAN_POINT('',(263.85,-100.,3.462132034));
#610=VERTEX_POINT('',#609);
#611=CARTESIAN_POINT('',(263.85,-100.,3.462132034));
#612=DIRECTION('',(0.,-1.,0.));
#613=VECTOR('',#612,10.714941499);
#614=LINE('',#611,#613);
#615=EDGE_CURVE('',#610,#598,#614,.T.);
#616=ORIENTED_EDGE('',*,*,#615,.F.);
#617=CARTESIAN_POINT('',(263.85,-100.,3.462132034));
#618=DIRECTION('',(0.707106781,0.,0.707106781));
#619=VECTOR('',#618,3.535533906);
#620=LINE('',#617,#619);
#621=EDGE_CURVE('',#610,#545,#620,.T.);
#622=ORIENTED_EDGE('',*,*,#621,.T.);
#623=EDGE_LOOP('',(#566,#587,#596,#608,#616,#622));
#624=FACE_BOUND('',#623,.T.);
#625=ADVANCED_FACE('',(#624),#565,.T.);
#626=CARTESIAN_POINT('',(263.85,-100.,2.856066017));
#627=DIRECTION('',(1.,0.,0.));
#628=DIRECTION('',(0.,0.,-1.));
#629=AXIS2_PLACEMENT_3D('',#626,#627,#628);
#630=PLANE('',#629);
#631=ORIENTED_EDGE('',*,*,#615,.T.);
#632=CARTESIAN_POINT('',(263.85,-112.223511511,2.25));
#633=VERTEX_POINT('',#632);
#634=CARTESIAN_POINT('',(263.85,-110.714941434,3.462131992));
#635=CARTESIAN_POINT('',(263.850000001,-110.939071331,3.230241771));
#636=CARTESIAN_POINT('',(263.85,-111.178167088,3.005666827));
#637=CARTESIAN_POINT('',(263.85,-111.428796506,2.800919245));
#638=CARTESIAN_POINT('',(263.85,-111.679425924,2.596171662));
#639=CARTESIAN_POINT('',(263.85,-111.942480893,2.409796461));
#640=CARTESIAN_POINT('',(263.85,-112.22351151,2.249999998));
#641=B_SPLINE_CURVE_WITH_KNOTS('',3,(#634,#635,#636,#637,#638,#639,#640),.UNSPECIFIED.,.F.,.F.,(4,3,4),(0.026518303,0.027476149,0.028433995),.UNSPECIFIED.);
#642=EDGE_CURVE('',#598,#633,#641,.T.);
#643=ORIENTED_EDGE('',*,*,#642,.T.);
#644=CARTESIAN_POINT('',(263.85,-100.,2.25));
#645=VERTEX_POINT('',#644);
#646=CARTESIAN_POINT('',(263.85,-100.,2.25));
#647=DIRECTION('',(0.,-1.,0.));
#648=VECTOR('',#647,12.223511511);
#649=LINE('',#646,#648);
#650=EDGE_CURVE('',#645,#633,#649,.T.);
#651=ORIENTED_EDGE('',*,*,#650,.F.);
#652=CARTESIAN_POINT('',(263.85,-100.,2.25));
#653=DIRECTION('',(-0.,0.,1.));
#654=VECTOR('',#653,1.212132034);
#655=LINE('',#652,#654);
#656=EDGE_CURVE('',#645,#610,#655,.T.);
#657=ORIENTED_EDGE('',*,*,#656,.T.);
#658=EDGE_LOOP('',(#631,#643,#651,#657));
#659=FACE_BOUND('',#658,.T.);
#660=ADVANCED_FACE('',(#659),#630,.T.);
#661=CARTESIAN_POINT('',(279.075,-100.,2.25));
#662=DIRECTION('',(0.,0.,-1.));
#663=DIRECTION('',(-1.,0.,-0.));
#664=AXIS2_PLACEMENT_3D('',#661,#662,#663);
#665=PLANE('',#664);
#666=ORIENTED_EDGE('',*,*,#393,.T.);
#667=CARTESIAN_POINT('',(284.15,-112.223511511,2.25));
#668=VERTEX_POINT('',#667);
#669=CARTESIAN_POINT('',(284.175749686,-114.,2.25));
#670=CARTESIAN_POINT('',(284.175749669,-113.407712759,2.25));
#671=CARTESIAN_POINT('',(284.150000002,-112.815798752,2.25));
#672=CARTESIAN_POINT('',(284.15,-112.223511511,2.25));
#673=B_SPLINE_CURVE_WITH_KNOTS('',3,(#669,#670,#671,#672),.UNSPECIFIED.,.F.,.F.,(4,4),(0.,0.001776675),.UNSPECIFIED.);
#674=EDGE_CURVE('',#388,#668,#673,.T.);
#675=ORIENTED_EDGE('',*,*,#674,.T.);
#676=CARTESIAN_POINT('',(284.15,-100.,2.25));
#677=VERTEX_POINT('',#676);
#678=CARTESIAN_POINT('',(284.15,-100.,2.25));
#679=DIRECTION('',(0.,-1.,0.));
#680=VECTOR('',#679,12.223511511);
#681=LINE('',#678,#680);
#682=EDGE_CURVE('',#677,#668,#681,.T.);
#683=ORIENTED_EDGE('',*,*,#682,.F.);
#684=CARTESIAN_POINT('',(274.,-100.,2.25));
#685=DIRECTION('',(0.,0.,1.));
#686=DIRECTION('',(1.,0.,-0.));
#687=AXIS2_PLACEMENT_3D('',#684,#685,#686);
#688=CIRCLE('',#687,10.15);
#689=EDGE_CURVE('',#677,#645,#688,.T.);
#690=ORIENTED_EDGE('',*,*,#689,.T.);
#691=ORIENTED_EDGE('',*,*,#650,.T.);
#692=CARTESIAN_POINT('',(263.85,-112.223511511,2.25));
#693=CARTESIAN_POINT('',(263.849999998,-112.815798752,2.25));
#694=CARTESIAN_POINT('',(263.824250311,-113.407712759,2.25));
#695=CARTESIAN_POINT('',(263.824250314,-114.,2.25));
#696=B_SPLINE_CURVE_WITH_KNOTS('',3,(#692,#693,#694,#695),.UNSPECIFIED.,.F.,.F.,(4,4),(0.,0.001776675),.UNSPECIFIED.);
#697=EDGE_CURVE('',#633,#386,#696,.T.);
#698=ORIENTED_EDGE('',*,*,#697,.T.);
#699=EDGE_LOOP('',(#666,#675,#683,#690,#691,#698));
#700=FACE_BOUND('',#699,.T.);
#701=ADVANCED_FACE('',(#700),#665,.F.);
#702=CARTESIAN_POINT('',(284.15,-100.,2.856066017));
#703=DIRECTION('',(1.,0.,0.));
#704=DIRECTION('',(0.,0.,-1.));
#705=AXIS2_PLACEMENT_3D('',#702,#703,#704);
#706=PLANE('',#705);
#707=ORIENTED_EDGE('',*,*,#682,.T.);
#708=CARTESIAN_POINT('',(284.15,-110.714941499,3.462132034));
#709=VERTEX_POINT('',#708);
#710=CARTESIAN_POINT('',(284.15,-112.22351151,2.249999998));
#711=CARTESIAN_POINT('',(284.15,-111.942480893,2.409796461));
#712=CARTESIAN_POINT('',(284.15,-111.679425924,2.596171662));
#713=CARTESIAN_POINT('',(284.15,-111.428796506,2.800919245));
#714=CARTESIAN_POINT('',(284.15,-111.178167088,3.005666827));
#715=CARTESIAN_POINT('',(284.15,-110.939071329,3.230241769));
#716=CARTESIAN_POINT('',(284.15,-110.714941434,3.462131992));
#717=B_SPLINE_CURVE_WITH_KNOTS('',3,(#710,#711,#712,#713,#714,#715,#716),.UNSPECIFIED.,.F.,.F.,(4,3,4),(0.026518303,0.027476149,0.028433995),.UNSPECIFIED.);
#718=EDGE_CURVE('',#668,#709,#717,.T.);
#719=ORIENTED_EDGE('',*,*,#718,.T.);
#720=CARTESIAN_POINT('',(284.15,-100.,3.462132034));
#721=VERTEX_POINT('',#720);
#722=CARTESIAN_POINT('',(284.15,-100.,3.462132034));
#723=DIRECTION('',(0.,-1.,0.));
#724=VECTOR('',#723,10.714941499);
#725=LINE('',#722,#724);
#726=EDGE_CURVE('',#721,#709,#725,.T.);
#727=ORIENTED_EDGE('',*,*,#726,.F.);
#728=CARTESIAN_POINT('',(284.15,-100.,2.25));
#729=DIRECTION('',(-0.,0.,1.));
#730=VECTOR('',#729,1.212132034);
#731=LINE('',#728,#730);
#732=EDGE_CURVE('',#677,#721,#731,.T.);
#733=ORIENTED_EDGE('',*,*,#732,.F.);
#734=EDGE_LOOP('',(#707,#719,#727,#733));
#735=FACE_BOUND('',#734,.T.);
#736=ADVANCED_FACE('',(#735),#706,.F.);
#737=CARTESIAN_POINT('',(282.9,-100.,4.712132034));
#738=DIRECTION('',(0.707106781,0.,0.707106781));
#739=DIRECTION('',(0.707106781,0.,-0.707106781));
#740=AXIS2_PLACEMENT_3D('',#737,#738,#739);
#741=PLANE('',#740);
#742=CARTESIAN_POINT('',(284.289545092,-112.71327566,3.322586942));
#743=VERTEX_POINT('',#742);
#744=CARTESIAN_POINT('',(282.677507081,-107.739973016,4.934624953));
#745=VERTEX_POINT('',#744);
#746=CARTESIAN_POINT('',(271.33252937,-114.,16.279602664));
#747=DIRECTION('',(0.707106781,0.,0.707106781));
#748=DIRECTION('',(-0.707106781,0.,0.707106781));
#749=AXIS2_PLACEMENT_3D('',#746,#747,#748);
#750=ELLIPSE('',#749,18.418057106,12.747431671);
#751=EDGE_CURVE('',#743,#745,#750,.T.);
#752=ORIENTED_EDGE('',*,*,#751,.T.);
#753=CARTESIAN_POINT('',(281.65,-104.180152016,5.962132034));
#754=VERTEX_POINT('',#753);
#755=CARTESIAN_POINT('',(282.677507081,-107.739973016,4.934624953));
#756=CARTESIAN_POINT('',(282.530729991,-107.485129578,5.081402043));
#757=CARTESIAN_POINT('',(282.395738614,-107.220978876,5.21639342));
#758=CARTESIAN_POINT('',(282.274098985,-106.9462842,5.338033049));
#759=CARTESIAN_POINT('',(282.152459356,-106.671589524,5.459672678));
#760=CARTESIAN_POINT('',(282.044119682,-106.386391776,5.568012352));
#761=CARTESIAN_POINT('',(281.952102781,-106.088303815,5.660029253));
#762=CARTESIAN_POINT('',(281.906094331,-105.939259834,5.706037704));
#763=CARTESIAN_POINT('',(281.864197727,-105.786968697,5.747934308));
#764=CARTESIAN_POINT('',(281.827041141,-105.630934334,5.785090893));
#765=CARTESIAN_POINT('',(281.789884556,-105.47489997,5.822247479));
#766=CARTESIAN_POINT('',(281.757679303,-105.315681179,5.854452732));
#767=CARTESIAN_POINT('',(281.731521676,-105.15590703,5.880610358));
#768=CARTESIAN_POINT('',(281.679206423,-104.836358731,5.932925612));
#769=CARTESIAN_POINT('',(281.649997118,-104.511568797,5.962134916));
#770=CARTESIAN_POINT('',(281.65,-104.180152016,5.962132034));
#771=B_SPLINE_CURVE_WITH_KNOTS('',3,(#755,#756,#757,#758,#759,#760,#761,#762,#763,#764,#765,#766,#767,#768,#769,#770),.UNSPECIFIED.,.F.,.F.,(4,3,3,3,3,4),(0.,0.000971115,0.00194223,0.002427787,0.002913345,0.00388446),.UNSPECIFIED.);
#772=EDGE_CURVE('',#745,#754,#771,.T.);
#773=ORIENTED_EDGE('',*,*,#772,.T.);
#774=CARTESIAN_POINT('',(281.65,-100.,5.962132034));
#775=VERTEX_POINT('',#774);
#776=CARTESIAN_POINT('',(281.65,-100.,5.962132034));
#777=DIRECTION('',(0.,-1.,0.));
#778=VECTOR('',#777,4.180152016);
#779=LINE('',#776,#778);
#780=EDGE_CURVE('',#775,#754,#779,.T.);
#781=ORIENTED_EDGE('',*,*,#780,.F.);
#782=CARTESIAN_POINT('',(284.15,-100.,3.462132034));
#783=DIRECTION('',(-0.707106781,0.,0.707106781));
#784=VECTOR('',#783,3.535533906);
#785=LINE('',#782,#784);
#786=EDGE_CURVE('',#721,#775,#785,.T.);
#787=ORIENTED_EDGE('',*,*,#786,.F.);
#788=ORIENTED_EDGE('',*,*,#726,.T.);
#789=CARTESIAN_POINT('',(284.15,-110.714941499,3.462132034));
#790=CARTESIAN_POINT('',(284.149999996,-111.05124537,3.462132038));
#791=CARTESIAN_POINT('',(284.1674103,-111.385117694,3.444721734));
#792=CARTESIAN_POINT('',(284.193612079,-111.717762187,3.418519956));
#793=CARTESIAN_POINT('',(284.219813857,-112.050406681,3.392318177));
#794=CARTESIAN_POINT('',(284.255182765,-112.38177088,3.35694927));
#795=CARTESIAN_POINT('',(284.289545092,-112.71327566,3.322586942));
#796=B_SPLINE_CURVE_WITH_KNOTS('',3,(#789,#790,#791,#792,#793,#794,#795),.UNSPECIFIED.,.F.,.F.,(4,3,4),(0.,0.001004028,0.002008055),.UNSPECIFIED.);
#797=EDGE_CURVE('',#709,#743,#796,.T.);
#798=ORIENTED_EDGE('',*,*,#797,.T.);
#799=EDGE_LOOP('',(#752,#773,#781,#787,#788,#798));
#800=FACE_BOUND('',#799,.T.);
#801=ADVANCED_FACE('',(#800),#741,.F.);
#802=CARTESIAN_POINT('',(281.65,-100.,6.181066017));
#803=DIRECTION('',(1.,0.,0.));
#804=DIRECTION('',(0.,0.,-1.));
#805=AXIS2_PLACEMENT_3D('',#802,#803,#804);
#806=PLANE('',#805);
#807=ORIENTED_EDGE('',*,*,#780,.T.);
#808=CARTESIAN_POINT('',(281.65,-104.180107882,5.962119463));
#809=CARTESIAN_POINT('',(281.65,-104.13137556,6.108017425));
#810=CARTESIAN_POINT('',(281.65,-104.082893782,6.253986754));
#811=CARTESIAN_POINT('',(281.65,-104.034566181,6.4));
#812=B_SPLINE_CURVE_WITH_KNOTS('',3,(#808,#809,#810,#811),.UNSPECIFIED.,.F.,.F.,(4,4),(0.025770474,0.026231474),.UNSPECIFIED.);
#813=EDGE_CURVE('',#754,#305,#812,.T.);
#814=ORIENTED_EDGE('',*,*,#813,.T.);
#815=ORIENTED_EDGE('',*,*,#310,.F.);
#816=CARTESIAN_POINT('',(281.65,-100.,5.962132034));
#817=DIRECTION('',(0.,0.,1.));
#818=VECTOR('',#817,0.437867966);
#819=LINE('',#816,#818);
#820=EDGE_CURVE('',#775,#296,#819,.T.);
#821=ORIENTED_EDGE('',*,*,#820,.F.);
#822=EDGE_LOOP('',(#807,#814,#815,#821));
#823=FACE_BOUND('',#822,.T.);
#824=ADVANCED_FACE('',(#823),#806,.F.);
#825=CARTESIAN_POINT('',(274.,-100.,12.4));
#826=DIRECTION('',(0.,0.,1.));
#827=DIRECTION('',(1.,0.,-0.));
#828=AXIS2_PLACEMENT_3D('',#825,#826,#827);
#829=CYLINDRICAL_SURFACE('',#828,10.15);
#830=CARTESIAN_POINT('',(274.,-100.,3.462132034));
#831=DIRECTION('',(0.,0.,1.));
#832=DIRECTION('',(1.,0.,-0.));
#833=AXIS2_PLACEMENT_3D('',#830,#831,#832);
#834=CIRCLE('',#833,10.15);
#835=EDGE_CURVE('',#721,#610,#834,.T.);
#836=ORIENTED_EDGE('',*,*,#835,.T.);
#837=ORIENTED_EDGE('',*,*,#656,.F.);
#838=ORIENTED_EDGE('',*,*,#689,.F.);
#839=ORIENTED_EDGE('',*,*,#732,.T.);
#840=EDGE_LOOP('',(#836,#837,#838,#839));
#841=FACE_BOUND('',#840,.T.);
#842=ADVANCED_FACE('',(#841),#829,.F.);
#843=CARTESIAN_POINT('',(274.,-100.,3.462132034));
#844=DIRECTION('',(0.,0.,-1.));
#845=DIRECTION('',(-1.,0.,0.));
#846=AXIS2_PLACEMENT_3D('',#843,#844,#845);
#847=CONICAL_SURFACE('',#846,10.15,45.);
#848=ORIENTED_EDGE('',*,*,#835,.F.);
#849=ORIENTED_EDGE('',*,*,#786,.T.);
#850=CARTESIAN_POINT('',(274.,-100.,5.962132034));
#851=DIRECTION('',(0.,0.,1.));
#852=DIRECTION('',(1.,0.,-0.));
#853=AXIS2_PLACEMENT_3D('',#850,#851,#852);
#854=CIRCLE('',#853,7.65);
#855=EDGE_CURVE('',#775,#545,#854,.T.);
#856=ORIENTED_EDGE('',*,*,#855,.T.);
#857=ORIENTED_EDGE('',*,*,#621,.F.);
#858=EDGE_LOOP('',(#848,#849,#856,#857));
#859=FACE_BOUND('',#858,.T.);
#860=ADVANCED_FACE('',(#859),#847,.F.);
#861=CARTESIAN_POINT('',(274.,-100.,12.4));
#862=DIRECTION('',(0.,0.,1.));
#863=DIRECTION('',(1.,0.,-0.));
#864=AXIS2_PLACEMENT_3D('',#861,#862,#863);
#865=CYLINDRICAL_SURFACE('',#864,7.65);
#866=ORIENTED_EDGE('',*,*,#302,.T.);
#867=ORIENTED_EDGE('',*,*,#556,.F.);
#868=ORIENTED_EDGE('',*,*,#855,.F.);
#869=ORIENTED_EDGE('',*,*,#820,.T.);
#870=EDGE_LOOP('',(#866,#867,#868,#869));
#871=FACE_BOUND('',#870,.T.);
#872=ADVANCED_FACE('',(#871),#865,.F.);
#873=CARTESIAN_POINT('',(274.,-114.,2.25));
#874=DIRECTION('',(0.,0.,1.));
#875=DIRECTION('',(1.,0.,-0.));
#876=AXIS2_PLACEMENT_3D('',#873,#874,#875);
#877=CONICAL_SURFACE('',#876,10.15,11.575188817);
#878=ORIENTED_EDGE('',*,*,#751,.F.);
#879=CARTESIAN_POINT('',(284.289545092,-112.713275659,3.32258694));
#880=CARTESIAN_POINT('',(284.283948497,-112.810201574,3.23675317));
#881=CARTESIAN_POINT('',(284.278758651,-112.909973058,3.157561193));
#882=CARTESIAN_POINT('',(284.27410953,-113.013372253,3.086708278));
#883=CARTESIAN_POINT('',(284.269460408,-113.116771448,3.015855364));
#884=CARTESIAN_POINT('',(284.265361807,-113.22390916,2.953528881));
#885=CARTESIAN_POINT('',(284.262035631,-113.331830586,2.903088672));
#886=CARTESIAN_POINT('',(284.258709455,-113.439752012,2.852648463));
#887=CARTESIAN_POINT('',(284.256121827,-113.54925699,2.813517361));
#888=CARTESIAN_POINT('',(284.254365214,-113.660604753,2.786962481));
#889=CARTESIAN_POINT('',(284.252608602,-113.771952517,2.760407601));
#890=CARTESIAN_POINT('',(284.251688514,-113.886187224,2.746479262));
#891=CARTESIAN_POINT('',(284.251688512,-113.999999641,2.746479204));
#892=B_SPLINE_CURVE_WITH_KNOTS('',3,(#879,#880,#881,#882,#883,#884,#885,#886,#887,#888,#889,#890,#891),.UNSPECIFIED.,.F.,.F.,(4,3,3,3,4),(0.028298665,0.028790338,0.02928201,0.029773683,0.030265355),.UNSPECIFIED.);
#893=EDGE_CURVE('',#743,#435,#892,.T.);
#894=ORIENTED_EDGE('',*,*,#893,.T.);
#895=ORIENTED_EDGE('',*,*,#440,.T.);
#896=ORIENTED_EDGE('',*,*,#337,.T.);
#897=CARTESIAN_POINT('',(282.752496706,-107.337134515,6.399994464));
#898=CARTESIAN_POINT('',(282.727921391,-107.470350899,5.910561097));
#899=CARTESIAN_POINT('',(282.702932947,-107.604574781,5.42205873));
#900=CARTESIAN_POINT('',(282.677507077,-107.739973012,4.934624949));
#901=B_SPLINE_CURVE_WITH_KNOTS('',3,(#897,#898,#899,#900),.UNSPECIFIED.,.F.,.F.,(4,4),(0.026827314,0.028375676),.UNSPECIFIED.);
#902=EDGE_CURVE('',#313,#745,#901,.T.);
#903=ORIENTED_EDGE('',*,*,#902,.T.);
#904=EDGE_LOOP('',(#878,#894,#895,#896,#903));
#905=FACE_BOUND('',#904,.T.);
#906=ADVANCED_FACE('',(#905),#877,.F.);
#907=CARTESIAN_POINT('',(274.,-114.,2.25));
#908=DIRECTION('',(0.,0.,1.));
#909=DIRECTION('',(1.,0.,-0.));
#910=AXIS2_PLACEMENT_3D('',#907,#908,#909);
#911=CONICAL_SURFACE('',#910,10.15,11.575188817);
#912=ORIENTED_EDGE('',*,*,#595,.T.);
#913=CARTESIAN_POINT('',(265.322492923,-107.739973012,4.934624949));
#914=CARTESIAN_POINT('',(265.297067053,-107.604574781,5.42205873));
#915=CARTESIAN_POINT('',(265.272078609,-107.470351027,5.91056114));
#916=CARTESIAN_POINT('',(265.247503294,-107.337134515,6.399994464));
#917=B_SPLINE_CURVE_WITH_KNOTS('',3,(#913,#914,#915,#916),.UNSPECIFIED.,.F.,.F.,(4,4),(0.026827314,0.028375676),.UNSPECIFIED.);
#918=EDGE_CURVE('',#568,#259,#917,.T.);
#919=ORIENTED_EDGE('',*,*,#918,.T.);
#920=ORIENTED_EDGE('',*,*,#267,.T.);
#921=ORIENTED_EDGE('',*,*,#408,.T.);
#922=CARTESIAN_POINT('',(263.748311488,-113.999999641,2.746479204));
#923=CARTESIAN_POINT('',(263.748311486,-113.886187224,2.746479233));
#924=CARTESIAN_POINT('',(263.747391398,-113.771952493,2.760407456));
#925=CARTESIAN_POINT('',(263.745634786,-113.660604753,2.786962481));
#926=CARTESIAN_POINT('',(263.743878173,-113.549257013,2.813517505));
#927=CARTESIAN_POINT('',(263.741290545,-113.439751978,2.852648358));
#928=CARTESIAN_POINT('',(263.737964369,-113.331830586,2.903088672));
#929=CARTESIAN_POINT('',(263.734638193,-113.223909193,2.953528987));
#930=CARTESIAN_POINT('',(263.730539592,-113.116771833,3.015856189));
#931=CARTESIAN_POINT('',(263.72589047,-113.013372253,3.086708278));
#932=CARTESIAN_POINT('',(263.721241349,-112.909972672,3.157560368));
#933=CARTESIAN_POINT('',(263.716051503,-112.810201574,3.23675317));
#934=CARTESIAN_POINT('',(263.710454908,-112.713275659,3.32258694));
#935=B_SPLINE_CURVE_WITH_KNOTS('',3,(#922,#923,#924,#925,#926,#927,#928,#929,#930,#931,#932,#933,#934),.UNSPECIFIED.,.F.,.F.,(4,3,3,3,4),(0.028298665,0.028790338,0.02928201,0.029773683,0.030265355),.UNSPECIFIED.);
#936=EDGE_CURVE('',#396,#589,#935,.T.);
#937=ORIENTED_EDGE('',*,*,#936,.T.);
#938=EDGE_LOOP('',(#912,#919,#920,#921,#937));
#939=FACE_BOUND('',#938,.T.);
#940=ADVANCED_FACE('',(#939),#911,.F.);
#941=CARTESIAN_POINT('',(265.197765087,-107.065747011,7.403257594));
#942=CARTESIAN_POINT('',(265.382064273,-106.854896453,7.333470604));
#943=CARTESIAN_POINT('',(265.547083096,-106.628862619,7.258658212));
#944=CARTESIAN_POINT('',(265.833633995,-106.153175752,7.101215886));
#945=CARTESIAN_POINT('',(265.955161783,-105.903529838,7.018588308));
#946=CARTESIAN_POINT('',(266.151094276,-105.388085258,6.847986873));
#947=CARTESIAN_POINT('',(266.225496049,-105.122294306,6.76001557));
#948=CARTESIAN_POINT('',(266.324949656,-104.582509244,6.581357863));
#949=CARTESIAN_POINT('',(266.350000003,-104.308523212,6.490674132));
#950=CARTESIAN_POINT('',(266.35,-104.034533079,6.399989044));
#951=CARTESIAN_POINT('',(265.215987916,-107.165866755,7.030899164));
#952=CARTESIAN_POINT('',(265.39750094,-106.955914478,6.96087671));
#953=CARTESIAN_POINT('',(265.559960917,-106.731145551,6.885911862));
#954=CARTESIAN_POINT('',(265.842005945,-106.258573331,6.728298549));
#955=CARTESIAN_POINT('',(265.961586917,-106.010776875,6.645652365));
#956=CARTESIAN_POINT('',(266.154355638,-105.499438049,6.475107586));
#957=CARTESIAN_POINT('',(266.227540599,-105.235903077,6.387211459));
#958=CARTESIAN_POINT('',(266.325363488,-104.700838704,6.208752474));
#959=CARTESIAN_POINT('',(266.350000001,-104.429317043,6.118192199));
#960=CARTESIAN_POINT('',(266.35,-104.157791455,6.027630613));
#961=CARTESIAN_POINT('',(265.234450478,-107.266536563,6.658933445));
#962=CARTESIAN_POINT('',(265.413134265,-107.057543393,6.588673313));
#963=CARTESIAN_POINT('',(265.572999145,-106.834100878,6.513554706));
#964=CARTESIAN_POINT('',(265.850477681,-106.364766453,6.355769026));
#965=CARTESIAN_POINT('',(265.968087458,-106.118881104,6.27310416));
#966=CARTESIAN_POINT('',(266.157654054,-105.61177098,6.102616627));
#967=CARTESIAN_POINT('',(266.229608224,-105.350553295,6.014796344));
#968=CARTESIAN_POINT('',(266.325781869,-104.820331909,5.836537764));
#969=CARTESIAN_POINT('',(266.35,-104.551335621,5.746101961));
#970=CARTESIAN_POINT('',(266.35,-104.282335572,5.655664894));
#971=CARTESIAN_POINT('',(265.27590946,-107.490950335,5.835644847));
#972=CARTESIAN_POINT('',(265.448224994,-107.284231039,5.764853044));
#973=CARTESIAN_POINT('',(265.602256367,-107.063877223,5.689390793));
#974=CARTESIAN_POINT('',(265.869477395,-106.602015736,5.531220071));
#975=CARTESIAN_POINT('',(265.982663599,-106.360514031,5.448513644));
#976=CARTESIAN_POINT('',(266.165047231,-105.863070439,5.278154297));
#977=CARTESIAN_POINT('',(266.234242305,-105.607134978,5.190503579));
#978=CARTESIAN_POINT('',(266.326719286,-105.087938791,5.012692863));
#979=CARTESIAN_POINT('',(266.35,-104.824684772,4.922535162));
#980=CARTESIAN_POINT('',(266.35,-104.561427353,4.832376296));
#981=CARTESIAN_POINT('',(265.299018178,-107.614929204,5.384654866));
#982=CARTESIAN_POINT('',(265.46777424,-107.409555113,5.313568067));
#983=CARTESIAN_POINT('',(265.618550112,-107.190994131,5.237915351));
#984=CARTESIAN_POINT('',(265.880051672,-106.733428582,5.079531341));
#985=CARTESIAN_POINT('',(265.990774132,-106.494429667,4.996802004));
#986=CARTESIAN_POINT('',(266.1691591,-106.002483981,4.826513868));
#987=CARTESIAN_POINT('',(266.236819406,-105.749543285,4.738957173));
#988=CARTESIAN_POINT('',(266.327240415,-105.23658868,4.561394665));
#989=CARTESIAN_POINT('',(266.350000001,-104.976581103,4.471391046));
#990=CARTESIAN_POINT('',(266.35,-104.716570317,4.381386315));
#991=CARTESIAN_POINT('',(265.32249481,-107.739927082,4.934590717));
#992=CARTESIAN_POINT('',(265.487624083,-107.536015087,4.863205669));
#993=CARTESIAN_POINT('',(265.635088356,-107.319363412,4.7873606));
#994=CARTESIAN_POINT('',(265.890777184,-106.86632465,4.628761322));
#995=CARTESIAN_POINT('',(265.998998723,-106.629942906,4.546008983));
#996=CARTESIAN_POINT('',(266.173326773,-106.14372176,4.375792935));
#997=CARTESIAN_POINT('',(266.239431227,-105.893888093,4.288331235));
#998=CARTESIAN_POINT('',(266.327768362,-105.387398297,4.111019371));
#999=CARTESIAN_POINT('',(266.350000002,-105.130748143,4.021171298));
#1000=CARTESIAN_POINT('',(266.349999999,-104.874094961,3.931322166));
#1001=B_SPLINE_SURFACE_WITH_KNOTS('',3,3,((#941,#942,#943,#944,#945,#946,#947,#948,#949,#950),(#951,#952,#953,#954,#955,#956,#957,#958,#959,#960),(#961,#962,#963,#964,#965,#966,#967,#968,#969,#970),(#971,#972,#973,#974,#975,#976,#977,#978,#979,#980),(#981,#982,#983,#984,#985,#986,#987,#988,#989,#990),(#991,#992,#993,#994,#995,#996,#997,#998,#999,#1000)),.UNSPECIFIED.,.F.,.F.,.U.,(4,2,4),(4,2,2,2,4),(0.025770374,0.02694606,0.028375676),(0.,0.25,0.5,0.75,1.),.UNSPECIFIED.);
#1002=ORIENTED_EDGE('',*,*,#586,.F.);
#1003=ORIENTED_EDGE('',*,*,#542,.F.);
#1004=ORIENTED_EDGE('',*,*,#285,.F.);
#1005=ORIENTED_EDGE('',*,*,#918,.F.);
#1006=EDGE_LOOP('',(#1002,#1003,#1004,#1005));
#1007=FACE_BOUND('',#1006,.T.);
#1008=ADVANCED_FACE('',(#1007),#1001,.T.);
#1009=CARTESIAN_POINT('',(263.637066099,-111.752938961,4.465392248));
#1010=CARTESIAN_POINT('',(263.707535942,-111.584912787,4.302989809));
#1011=CARTESIAN_POINT('',(263.760863947,-111.413171044,4.136996156));
#1012=CARTESIAN_POINT('',(263.832096254,-111.065927829,3.801374955));
#1013=CARTESIAN_POINT('',(263.850000011,-110.890429015,3.631749976));
#1014=CARTESIAN_POINT('',(263.850000001,-110.714928858,3.462123699));
#1015=CARTESIAN_POINT('',(263.642885284,-111.815025213,4.373387127));
#1016=CARTESIAN_POINT('',(263.711443286,-111.651205247,4.210851552));
#1017=CARTESIAN_POINT('',(263.763311325,-111.483868192,4.044823757));
#1018=CARTESIAN_POINT('',(263.832589935,-111.145636415,3.709235624));
#1019=CARTESIAN_POINT('',(263.850000006,-110.974744136,3.539677715));
#1020=CARTESIAN_POINT('',(263.850000001,-110.803850624,3.370118578));
#1021=CARTESIAN_POINT('',(263.648637367,-111.878442077,4.282777631));
#1022=CARTESIAN_POINT('',(263.715304419,-111.718967934,4.120110598));
#1023=CARTESIAN_POINT('',(263.765729536,-111.556168793,3.954049126));
#1024=CARTESIAN_POINT('',(263.833077557,-111.227208233,3.618493653));
#1025=CARTESIAN_POINT('',(263.85,-111.06104906,3.449001946));
#1026=CARTESIAN_POINT('',(263.85,-110.894888752,3.279509081));
#1027=CARTESIAN_POINT('',(263.659329687,-112.000972467,4.1149364));
#1028=CARTESIAN_POINT('',(263.722479684,-111.84999389,3.952025257));
#1029=CARTESIAN_POINT('',(263.770222995,-111.696040041,3.785901311));
#1030=CARTESIAN_POINT('',(263.833983349,-111.385125502,3.450406502));
#1031=CARTESIAN_POINT('',(263.85,-111.228166714,3.281037695));
#1032=CARTESIAN_POINT('',(263.85,-111.071206967,3.111667849));
#1033=CARTESIAN_POINT('',(263.664282769,-112.059727121,4.037435367));
#1034=CARTESIAN_POINT('',(263.725802666,-111.912862814,3.87441125));
#1035=CARTESIAN_POINT('',(263.772303824,-111.763182139,3.708258418));
#1036=CARTESIAN_POINT('',(263.834402671,-111.460975322,3.372791691));
#1037=CARTESIAN_POINT('',(263.85,-111.308450933,3.203479746));
#1038=CARTESIAN_POINT('',(263.85,-111.15592566,3.034166816));
#1039=CARTESIAN_POINT('',(263.673917804,-112.178696595,3.887117864));
#1040=CARTESIAN_POINT('',(263.732265182,-112.040245825,3.723874174));
#1041=CARTESIAN_POINT('',(263.776350313,-111.899282377,3.557665248));
#1042=CARTESIAN_POINT('',(263.835217875,-111.614818215,3.222253112));
#1043=CARTESIAN_POINT('',(263.85,-111.471318982,3.053051655));
#1044=CARTESIAN_POINT('',(263.85,-111.327819001,2.883849314));
#1045=CARTESIAN_POINT('',(263.67861308,-112.239060645,3.81409199));
#1046=CARTESIAN_POINT('',(263.735413657,-112.104919438,3.650741396));
#1047=CARTESIAN_POINT('',(263.778321572,-111.968410778,3.484505183));
#1048=CARTESIAN_POINT('',(263.835614885,-111.693003458,3.149119633));
#1049=CARTESIAN_POINT('',(263.85,-111.554106158,2.979971954));
#1050=CARTESIAN_POINT('',(263.85,-111.415208172,2.810823439));
#1051=CARTESIAN_POINT('',(263.692275349,-112.42314395,3.602183972));
#1052=CARTESIAN_POINT('',(263.744573001,-112.302267681,3.438522563));
#1053=CARTESIAN_POINT('',(263.784055845,-112.179439869,3.272207079));
#1054=CARTESIAN_POINT('',(263.836769453,-111.931815731,2.93689884));
#1055=CARTESIAN_POINT('',(263.85,-111.807020429,2.767907483));
#1056=CARTESIAN_POINT('',(263.85,-111.682224611,2.598915422));
#1057=CARTESIAN_POINT('',(263.70082377,-112.549819918,3.470398965));
#1058=CARTESIAN_POINT('',(263.750301116,-112.438233026,3.30654343));
#1059=CARTESIAN_POINT('',(263.787641431,-112.324945379,3.140178522));
#1060=CARTESIAN_POINT('',(263.837490966,-112.09665533,2.80491859));
#1061=CARTESIAN_POINT('',(263.85,-111.981653773,2.636024818));
#1062=CARTESIAN_POINT('',(263.85,-111.866651791,2.467130415));
#1063=CARTESIAN_POINT('',(263.716401017,-112.813626304,3.231312841));
#1064=CARTESIAN_POINT('',(263.76073531,-112.721702706,3.067104024));
#1065=CARTESIAN_POINT('',(263.79417213,-112.628529979,2.900649288));
#1066=CARTESIAN_POINT('',(263.838804541,-112.440926231,2.565477298));
#1067=CARTESIAN_POINT('',(263.85,-112.346495763,2.396761046));
#1068=CARTESIAN_POINT('',(263.85,-112.252065017,2.22804429));
#1069=CARTESIAN_POINT('',(263.723434468,-112.950725593,3.123946285));
#1070=CARTESIAN_POINT('',(263.765444575,-112.869173907,2.959578201));
#1071=CARTESIAN_POINT('',(263.797119313,-112.786573788,2.793083022));
#1072=CARTESIAN_POINT('',(263.839397123,-112.620317818,2.457950668));
#1073=CARTESIAN_POINT('',(263.85000008,-112.536662408,2.289314394));
#1074=CARTESIAN_POINT('',(263.849999986,-112.453006779,2.120677671));
#1075=CARTESIAN_POINT('',(263.735379241,-113.239337264,2.942172145));
#1076=CARTESIAN_POINT('',(263.773439999,-113.179897618,2.777533868));
#1077=CARTESIAN_POINT('',(263.802122541,-113.119769756,2.610970173));
#1078=CARTESIAN_POINT('',(263.840402631,-112.998821505,2.275905169));
#1079=CARTESIAN_POINT('',(263.850000097,-112.938001377,2.107404597));
#1080=CARTESIAN_POINT('',(263.850000014,-112.87718112,1.938903657));
#1081=CARTESIAN_POINT('',(263.740117403,-113.387190395,2.870386854));
#1082=CARTESIAN_POINT('',(263.776610301,-113.33921157,2.70564152));
#1083=CARTESIAN_POINT('',(263.804106093,-113.290699234,2.539050701));
#1084=CARTESIAN_POINT('',(263.840800979,-113.193137826,2.204012351));
#1085=CARTESIAN_POINT('',(263.85,-113.14408895,2.035565498));
#1086=CARTESIAN_POINT('',(263.85,-113.095039975,1.867118304));
#1087=CARTESIAN_POINT('',(263.744961544,-113.613219532,2.797088703));
#1088=CARTESIAN_POINT('',(263.779851284,-113.582879183,2.63223397));
#1089=CARTESIAN_POINT('',(263.806133886,-113.552215208,2.46561545));
#1090=CARTESIAN_POINT('',(263.841208277,-113.490561756,2.130604361));
#1091=CARTESIAN_POINT('',(263.85,-113.459572392,1.962212412));
#1092=CARTESIAN_POINT('',(263.85,-113.42858297,1.793820152));
#1093=CARTESIAN_POINT('',(263.746203,-113.689380309,2.778326914));
#1094=CARTESIAN_POINT('',(263.780681799,-113.665002127,2.613444154));
#1095=CARTESIAN_POINT('',(263.8066535,-113.640366786,2.446818539));
#1096=CARTESIAN_POINT('',(263.841312632,-113.590837469,2.111814436));
#1097=CARTESIAN_POINT('',(263.85,-113.565943583,1.943436551));
#1098=CARTESIAN_POINT('',(263.85,-113.541049652,1.775058363));
#1099=CARTESIAN_POINT('',(263.747878686,-113.843517925,2.753009852));
#1100=CARTESIAN_POINT('',(263.78180278,-113.831226702,2.588089266));
#1101=CARTESIAN_POINT('',(263.807354841,-113.818808217,2.421454078));
#1102=CARTESIAN_POINT('',(263.841453481,-113.793843271,2.086459401));
#1103=CARTESIAN_POINT('',(263.85,-113.781296853,1.918100499));
#1104=CARTESIAN_POINT('',(263.85,-113.768750412,1.749741302));
#1105=CARTESIAN_POINT('',(263.748311487,-113.922059757,2.746479224));
#1106=CARTESIAN_POINT('',(263.782092346,-113.915937848,2.581548868));
#1107=CARTESIAN_POINT('',(263.80753605,-113.909752567,2.414911204));
#1108=CARTESIAN_POINT('',(263.841489932,-113.897318275,2.079918953));
#1109=CARTESIAN_POINT('',(263.850000051,-113.891069286,1.911564948));
#1110=CARTESIAN_POINT('',(263.849999996,-113.884820285,1.743210653));
#1111=CARTESIAN_POINT('',(263.748311488,-113.999999641,2.746479204));
#1112=CARTESIAN_POINT('',(263.782092347,-113.999999744,2.581548852));
#1113=CARTESIAN_POINT('',(263.807536052,-113.999999847,2.414911191));
#1114=CARTESIAN_POINT('',(263.841489935,-114.000000053,2.079918947));
#1115=CARTESIAN_POINT('',(263.850000054,-114.000000156,1.911564945));
#1116=CARTESIAN_POINT('',(263.85,-114.000000259,1.743210653));
#1117=B_SPLINE_SURFACE_WITH_KNOTS('',3,3,((#1009,#1010,#1011,#1012,#1013,#1014),(#1015,#1016,#1017,#1018,#1019,#1020),(#1021,#1022,#1023,#1024,#1025,#1026),(#1027,#1028,#1029,#1030,#1031,#1032),(#1033,#1034,#1035,#1036,#1037,#1038),(#1039,#1040,#1041,#1042,#1043,#1044),(#1045,#1046,#1047,#1048,#1049,#1050),(#1051,#1052,#1053,#1054,#1055,#1056),(#1057,#1058,#1059,#1060,#1061,#1062),(#1063,#1064,#1065,#1066,#1067,#1068),(#1069,#1070,#1071,#1072,#1073,#1074),(#1075,#1076,#1077,#1078,#1079,#1080),(#1081,#1082,#1083,#1084,#1085,#1086),(#1087,#1088,#1089,#1090,#1091,#1092),(#1093,#1094,#1095,#1096,#1097,#1098),(#1099,#1100,#1101,#1102,#1103,#1104),(#1105,#1106,#1107,#1108,#1109,#1110),(#1111,#1112,#1113,#1114,#1115,#1116)),.UNSPECIFIED.,.F.,.F.,.U.,(4,2,2,2,2,2,2,2,4),(4,2,4),(0.026518303,0.026898332,0.027235034,0.027571737,0.028245141,0.028918546,0.029591951,0.029928653,0.030265355),(0.,0.5,1.),.UNSPECIFIED.);
#1118=ORIENTED_EDGE('',*,*,#697,.F.);
#1119=ORIENTED_EDGE('',*,*,#642,.F.);
#1120=ORIENTED_EDGE('',*,*,#607,.F.);
#1121=ORIENTED_EDGE('',*,*,#936,.F.);
#1122=ORIENTED_EDGE('',*,*,#402,.F.);
#1123=EDGE_LOOP('',(#1118,#1119,#1120,#1121,#1122));
#1124=FACE_BOUND('',#1123,.T.);
#1125=ADVANCED_FACE('',(#1124),#1117,.T.);
#1126=CARTESIAN_POINT('',(284.15,-110.714928856,3.462123697));
#1127=CARTESIAN_POINT('',(284.14999999,-110.890429012,3.631749974));
#1128=CARTESIAN_POINT('',(284.167903746,-111.065927826,3.801374953));
#1129=CARTESIAN_POINT('',(284.239136053,-111.413171042,4.136996154));
#1130=CARTESIAN_POINT('',(284.292464058,-111.584912784,4.302989806));
#1131=CARTESIAN_POINT('',(284.362933901,-111.752938958,4.465392245));
#1132=CARTESIAN_POINT('',(284.15,-110.803850622,3.370118576));
#1133=CARTESIAN_POINT('',(284.149999994,-110.974744135,3.539677713));
#1134=CARTESIAN_POINT('',(284.167410066,-111.145636413,3.709235622));
#1135=CARTESIAN_POINT('',(284.236688676,-111.48386819,4.044823755));
#1136=CARTESIAN_POINT('',(284.288556714,-111.651205246,4.21085155));
#1137=CARTESIAN_POINT('',(284.357114716,-111.815025211,4.373387125));
#1138=CARTESIAN_POINT('',(284.15,-110.894888752,3.279509081));
#1139=CARTESIAN_POINT('',(284.15,-111.06104906,3.449001946));
#1140=CARTESIAN_POINT('',(284.166922443,-111.227208233,3.618493653));
#1141=CARTESIAN_POINT('',(284.234270464,-111.556168793,3.954049126));
#1142=CARTESIAN_POINT('',(284.284695581,-111.718967934,4.120110598));
#1143=CARTESIAN_POINT('',(284.351362633,-111.878442077,4.282777631));
#1144=CARTESIAN_POINT('',(284.15,-111.071206967,3.111667849));
#1145=CARTESIAN_POINT('',(284.15,-111.228166715,3.281037695));
#1146=CARTESIAN_POINT('',(284.166016651,-111.385125502,3.450406502));
#1147=CARTESIAN_POINT('',(284.229777005,-111.696040041,3.785901311));
#1148=CARTESIAN_POINT('',(284.277520316,-111.84999389,3.952025257));
#1149=CARTESIAN_POINT('',(284.340670313,-112.000972467,4.1149364));
#1150=CARTESIAN_POINT('',(284.15,-111.15592566,3.034166816));
#1151=CARTESIAN_POINT('',(284.15,-111.308450933,3.203479746));
#1152=CARTESIAN_POINT('',(284.165597329,-111.460975322,3.372791691));
#1153=CARTESIAN_POINT('',(284.227696176,-111.763182139,3.708258418));
#1154=CARTESIAN_POINT('',(284.274197334,-111.912862814,3.87441125));
#1155=CARTESIAN_POINT('',(284.335717231,-112.059727121,4.037435367));
#1156=CARTESIAN_POINT('',(284.15,-111.327819001,2.883849314));
#1157=CARTESIAN_POINT('',(284.15,-111.471318982,3.053051655));
#1158=CARTESIAN_POINT('',(284.164782125,-111.614818215,3.222253112));
#1159=CARTESIAN_POINT('',(284.223649687,-111.899282377,3.557665248));
#1160=CARTESIAN_POINT('',(284.267734818,-112.040245825,3.723874174));
#1161=CARTESIAN_POINT('',(284.326082196,-112.178696595,3.887117864));
#1162=CARTESIAN_POINT('',(284.15,-111.415208172,2.810823439));
#1163=CARTESIAN_POINT('',(284.15,-111.554106158,2.979971954));
#1164=CARTESIAN_POINT('',(284.164385115,-111.693003458,3.149119633));
#1165=CARTESIAN_POINT('',(284.221678428,-111.968410778,3.484505183));
#1166=CARTESIAN_POINT('',(284.264586343,-112.104919438,3.650741396));
#1167=CARTESIAN_POINT('',(284.32138692,-112.239060645,3.81409199));
#1168=CARTESIAN_POINT('',(284.15,-111.682224611,2.598915422));
#1169=CARTESIAN_POINT('',(284.15,-111.807020429,2.767907483));
#1170=CARTESIAN_POINT('',(284.163230547,-111.931815731,2.93689884));
#1171=CARTESIAN_POINT('',(284.215944155,-112.179439869,3.272207079));
#1172=CARTESIAN_POINT('',(284.255426999,-112.302267681,3.438522563));
#1173=CARTESIAN_POINT('',(284.307724651,-112.42314395,3.602183972));
#1174=CARTESIAN_POINT('',(284.15,-111.866651791,2.467130415));
#1175=CARTESIAN_POINT('',(284.15,-111.981653773,2.636024818));
#1176=CARTESIAN_POINT('',(284.162509034,-112.09665533,2.80491859));
#1177=CARTESIAN_POINT('',(284.212358569,-112.324945379,3.140178522));
#1178=CARTESIAN_POINT('',(284.249698884,-112.438233026,3.30654343));
#1179=CARTESIAN_POINT('',(284.29917623,-112.549819918,3.470398966));
#1180=CARTESIAN_POINT('',(284.15,-112.252065017,2.22804429));
#1181=CARTESIAN_POINT('',(284.15,-112.346495763,2.396761046));
#1182=CARTESIAN_POINT('',(284.161195459,-112.440926231,2.565477298));
#1183=CARTESIAN_POINT('',(284.20582787,-112.628529979,2.900649288));
#1184=CARTESIAN_POINT('',(284.23926469,-112.721702706,3.067104024));
#1185=CARTESIAN_POINT('',(284.283598983,-112.813626304,3.231312841));
#1186=CARTESIAN_POINT('',(284.15,-112.453006806,2.120677734));
#1187=CARTESIAN_POINT('',(284.149999908,-112.536662435,2.289314457));
#1188=CARTESIAN_POINT('',(284.160602868,-112.620317845,2.457950731));
#1189=CARTESIAN_POINT('',(284.202880682,-112.786573815,2.793083084));
#1190=CARTESIAN_POINT('',(284.234555423,-112.869173934,2.959578263));
#1191=CARTESIAN_POINT('',(284.276565532,-112.95072562,3.123946346));
#1192=CARTESIAN_POINT('',(284.15,-112.877181093,1.938903594));
#1193=CARTESIAN_POINT('',(284.149999915,-112.93800135,2.107404534));
#1194=CARTESIAN_POINT('',(284.159597378,-112.998821478,2.275905106));
#1195=CARTESIAN_POINT('',(284.197877464,-113.119769729,2.610970111));
#1196=CARTESIAN_POINT('',(284.226560003,-113.179897592,2.777533806));
#1197=CARTESIAN_POINT('',(284.264620759,-113.239337238,2.942172084));
#1198=CARTESIAN_POINT('',(284.15,-113.095039975,1.867118304));
#1199=CARTESIAN_POINT('',(284.15,-113.14408895,2.035565498));
#1200=CARTESIAN_POINT('',(284.159199021,-113.193137826,2.204012351));
#1201=CARTESIAN_POINT('',(284.195893907,-113.290699234,2.539050701));
#1202=CARTESIAN_POINT('',(284.223389699,-113.33921157,2.70564152));
#1203=CARTESIAN_POINT('',(284.259882597,-113.387190395,2.870386854));
#1204=CARTESIAN_POINT('',(284.15,-113.42858297,1.793820152));
#1205=CARTESIAN_POINT('',(284.15,-113.459572392,1.962212412));
#1206=CARTESIAN_POINT('',(284.158791723,-113.490561756,2.130604361));
#1207=CARTESIAN_POINT('',(284.193866114,-113.552215208,2.46561545));
#1208=CARTESIAN_POINT('',(284.220148716,-113.582879183,2.63223397));
#1209=CARTESIAN_POINT('',(284.255038456,-113.613219532,2.797088703));
#1210=CARTESIAN_POINT('',(284.15,-113.541049652,1.775058363));
#1211=CARTESIAN_POINT('',(284.15,-113.565943583,1.943436551));
#1212=CARTESIAN_POINT('',(284.158687368,-113.590837469,2.111814436));
#1213=CARTESIAN_POINT('',(284.1933465,-113.640366786,2.446818539));
#1214=CARTESIAN_POINT('',(284.219318201,-113.665002127,2.613444154));
#1215=CARTESIAN_POINT('',(284.253797,-113.689380309,2.778326914));
#1216=CARTESIAN_POINT('',(284.15,-113.768750412,1.749741302));
#1217=CARTESIAN_POINT('',(284.15,-113.781296853,1.918100499));
#1218=CARTESIAN_POINT('',(284.158546519,-113.793843271,2.086459401));
#1219=CARTESIAN_POINT('',(284.192645159,-113.818808217,2.421454078));
#1220=CARTESIAN_POINT('',(284.21819722,-113.831226702,2.588089266));
#1221=CARTESIAN_POINT('',(284.252121314,-113.843517925,2.753009852));
#1222=CARTESIAN_POINT('',(284.15,-113.884820285,1.743210673));
#1223=CARTESIAN_POINT('',(284.149999946,-113.891069286,1.911564968));
#1224=CARTESIAN_POINT('',(284.158510065,-113.897318275,2.079918973));
#1225=CARTESIAN_POINT('',(284.192463949,-113.909752567,2.414911224));
#1226=CARTESIAN_POINT('',(284.217907654,-113.915937848,2.581548888));
#1227=CARTESIAN_POINT('',(284.251688513,-113.922059757,2.746479243));
#1228=CARTESIAN_POINT('',(284.15,-114.000000259,1.743210653));
#1229=CARTESIAN_POINT('',(284.149999946,-114.000000156,1.911564945));
#1230=CARTESIAN_POINT('',(284.158510065,-114.000000053,2.079918947));
#1231=CARTESIAN_POINT('',(284.192463948,-113.999999847,2.414911191));
#1232=CARTESIAN_POINT('',(284.217907653,-113.999999744,2.581548852));
#1233=CARTESIAN_POINT('',(284.251688512,-113.999999641,2.746479204));
#1234=B_SPLINE_SURFACE_WITH_KNOTS('',3,3,((#1126,#1127,#1128,#1129,#1130,#1131),(#1132,#1133,#1134,#1135,#1136,#1137),(#1138,#1139,#1140,#1141,#1142,#1143),(#1144,#1145,#1146,#1147,#1148,#1149),(#1150,#1151,#1152,#1153,#1154,#1155),(#1156,#1157,#1158,#1159,#1160,#1161),(#1162,#1163,#1164,#1165,#1166,#1167),(#1168,#1169,#1170,#1171,#1172,#1173),(#1174,#1175,#1176,#1177,#1178,#1179),(#1180,#1181,#1182,#1183,#1184,#1185),(#1186,#1187,#1188,#1189,#1190,#1191),(#1192,#1193,#1194,#1195,#1196,#1197),(#1198,#1199,#1200,#1201,#1202,#1203),(#1204,#1205,#1206,#1207,#1208,#1209),(#1210,#1211,#1212,#1213,#1214,#1215),(#1216,#1217,#1218,#1219,#1220,#1221),(#1222,#1223,#1224,#1225,#1226,#1227),(#1228,#1229,#1230,#1231,#1232,#1233)),.UNSPECIFIED.,.F.,.F.,.U.,(4,2,2,2,2,2,2,2,4),(4,2,4),(0.026518303,0.026898332,0.027235034,0.027571737,0.028245141,0.028918546,0.029591951,0.029928653,0.030265355),(0.,0.5,1.),.UNSPECIFIED.);
#1235=ORIENTED_EDGE('',*,*,#447,.F.);
#1236=ORIENTED_EDGE('',*,*,#893,.F.);
#1237=ORIENTED_EDGE('',*,*,#797,.F.);
#1238=ORIENTED_EDGE('',*,*,#718,.F.);
#1239=ORIENTED_EDGE('',*,*,#674,.F.);
#1240=EDGE_LOOP('',(#1235,#1236,#1237,#1238,#1239));
#1241=FACE_BOUND('',#1240,.T.);
#1242=ADVANCED_FACE('',(#1241),#1234,.T.);
#1243=CARTESIAN_POINT('',(281.65,-104.034534039,6.399989361));
#1244=CARTESIAN_POINT('',(281.649999997,-104.308524135,6.49067445));
#1245=CARTESIAN_POINT('',(281.675050344,-104.582510131,6.581358181));
#1246=CARTESIAN_POINT('',(281.774503954,-105.122295119,6.760015888));
#1247=CARTESIAN_POINT('',(281.848905727,-105.388086034,6.847987192));
#1248=CARTESIAN_POINT('',(282.044838223,-105.903530536,7.018588626));
#1249=CARTESIAN_POINT('',(282.166366013,-106.153176411,7.101216205));
#1250=CARTESIAN_POINT('',(282.452916915,-106.628863193,7.258658531));
#1251=CARTESIAN_POINT('',(282.617935739,-106.854896983,7.333470922));
#1252=CARTESIAN_POINT('',(282.802234926,-107.065747495,7.403257912));
#1253=CARTESIAN_POINT('',(281.65,-104.155780707,6.033708167));
#1254=CARTESIAN_POINT('',(281.649999999,-104.427346483,6.124271768));
#1255=CARTESIAN_POINT('',(281.674643266,-104.698908329,6.214834059));
#1256=CARTESIAN_POINT('',(281.772492772,-105.234049675,6.393296287));
#1257=CARTESIAN_POINT('',(281.845697593,-105.49762143,6.481193641));
#1258=CARTESIAN_POINT('',(282.038517952,-106.009027189,6.651739345));
#1259=CARTESIAN_POINT('',(282.158130699,-106.25685379,6.734385225));
#1260=CARTESIAN_POINT('',(282.44024927,-106.729476761,6.891995747));
#1261=CARTESIAN_POINT('',(282.602751011,-106.954266289,6.966958107));
#1262=CARTESIAN_POINT('',(282.784309507,-107.164233182,7.036976717));
#1263=CARTESIAN_POINT('',(281.65,-104.278271577,5.667805944));
#1264=CARTESIAN_POINT('',(281.65,-104.547354015,5.758247076));
#1265=CARTESIAN_POINT('',(281.674231786,-104.816432686,5.848686941));
#1266=CARTESIAN_POINT('',(281.770459257,-105.346812058,6.026952061));
#1267=CARTESIAN_POINT('',(281.842453596,-105.608105334,6.11477482));
#1268=CARTESIAN_POINT('',(282.032124698,-106.11535339,6.285264222));
#1269=CARTESIAN_POINT('',(282.149798808,-106.36130107,6.367928478));
#1270=CARTESIAN_POINT('',(282.427426376,-106.83074108,6.525708532));
#1271=CARTESIAN_POINT('',(282.58737595,-107.05422684,6.60082212));
#1272=CARTESIAN_POINT('',(282.76615207,-107.263251265,6.671074495));
#1273=CARTESIAN_POINT('',(281.65,-104.55726228,4.8444798));
#1274=CARTESIAN_POINT('',(281.65,-104.820606877,4.934642802));
#1275=CARTESIAN_POINT('',(281.673294698,-105.083948068,5.024804638));
#1276=CARTESIAN_POINT('',(281.765826851,-105.603311856,5.202622015));
#1277=CARTESIAN_POINT('',(281.835063109,-105.859327737,5.290275255));
#1278=CARTESIAN_POINT('',(282.017554043,-106.356918976,5.460636513));
#1279=CARTESIAN_POINT('',(282.130806361,-106.598487898,5.543342326));
#1280=CARTESIAN_POINT('',(282.398180866,-107.060464781,5.701507325));
#1281=CARTESIAN_POINT('',(282.552299598,-107.280866766,5.776964464));
#1282=CARTESIAN_POINT('',(282.724710647,-107.487622221,5.847748351));
#1283=CARTESIAN_POINT('',(281.65,-104.714455323,4.38742545));
#1284=CARTESIAN_POINT('',(281.649999999,-104.974511208,4.477432268));
#1285=CARTESIAN_POINT('',(281.672766669,-105.234563881,4.567437974));
#1286=CARTESIAN_POINT('',(281.76321564,-105.747605325,4.745003846));
#1287=CARTESIAN_POINT('',(281.830896823,-106.000587758,4.832561816));
#1288=CARTESIAN_POINT('',(282.009336229,-106.492610352,5.002850919));
#1289=CARTESIAN_POINT('',(282.120092247,-106.731644434,5.085579948));
#1290=CARTESIAN_POINT('',(282.381671805,-107.189270824,5.243961069));
#1291=CARTESIAN_POINT('',(282.532492114,-107.407857478,5.319611204));
#1292=CARTESIAN_POINT('',(282.701296843,-107.613251241,5.390694001));
#1293=CARTESIAN_POINT('',(281.65,-104.874094957,3.931322165));
#1294=CARTESIAN_POINT('',(281.649999997,-105.13074814,4.021171297));
#1295=CARTESIAN_POINT('',(281.672231637,-105.387398295,4.111019369));
#1296=CARTESIAN_POINT('',(281.760568773,-105.893888093,4.288331233));
#1297=CARTESIAN_POINT('',(281.826673227,-106.143721761,4.375792934));
#1298=CARTESIAN_POINT('',(282.001001277,-106.629942909,4.546008981));
#1299=CARTESIAN_POINT('',(282.109222817,-106.866324654,4.62876132));
#1300=CARTESIAN_POINT('',(282.364911647,-107.319363419,4.787360598));
#1301=CARTESIAN_POINT('',(282.51237592,-107.536015096,4.863205667));
#1302=CARTESIAN_POINT('',(282.677505195,-107.739927094,4.934590716));
#1303=B_SPLINE_SURFACE_WITH_KNOTS('',3,3,((#1243,#1244,#1245,#1246,#1247,#1248,#1249,#1250,#1251,#1252),(#1253,#1254,#1255,#1256,#1257,#1258,#1259,#1260,#1261,#1262),(#1263,#1264,#1265,#1266,#1267,#1268,#1269,#1270,#1271,#1272),(#1273,#1274,#1275,#1276,#1277,#1278,#1279,#1280,#1281,#1282),(#1283,#1284,#1285,#1286,#1287,#1288,#1289,#1290,#1291,#1292),(#1293,#1294,#1295,#1296,#1297,#1298,#1299,#1300,#1301,#1302)),.UNSPECIFIED.,.F.,.F.,.U.,(4,2,4),(4,2,2,2,4),(0.025770379,0.026926875,0.028375676),(0.,0.25,0.5,0.75,1.),.UNSPECIFIED.);
#1304=ORIENTED_EDGE('',*,*,#772,.F.);
#1305=ORIENTED_EDGE('',*,*,#902,.F.);
#1306=ORIENTED_EDGE('',*,*,#328,.F.);
#1307=ORIENTED_EDGE('',*,*,#813,.F.);
#1308=EDGE_LOOP('',(#1304,#1305,#1306,#1307));
#1309=FACE_BOUND('',#1308,.T.);
#1310=ADVANCED_FACE('',(#1309),#1303,.T.);
#1311=CLOSED_SHELL('',(#379,#451,#475,#499,#516,#528,#560,#625,#660,#701,#736,#801,#824,#842,#860,#872,#906,#940,#1008,#1125,#1242,#1310));
#1312=MANIFOLD_SOLID_BREP('Quick Connect Top Back (1)',#1311);
#252=STYLED_ITEM('',(#251),#1312);
#16=SHAPE_REPRESENTATION('EXAMPLE 1x Embed Back',(#15),#10);
#17=ADVANCED_BREP_SHAPE_REPRESENTATION('EXAMPLE 1x Embed Back',(#244,#1312),#10);
#1320=SHAPE_REPRESENTATION_RELATIONSHIP('','',#16,#17);
#1321=CARTESIAN_POINT('',(0.,0.,0.));
#1322=DIRECTION('',(0.,0.,1.));
#1323=DIRECTION('',(1.,0.,0.));
#1324=AXIS2_PLACEMENT_3D('',#1321,#1322,#1323);
#1326=MAPPED_ITEM('',#1325,#1324);
#1325=REPRESENTATION_MAP(#1324,#16);
#1327=APPLICATION_CONTEXT('Managed model based 3d engineering');
#1328=APPLICATION_PROTOCOL_DEFINITION('international standard','ap242_managed_model_based_3d_engineering',2014,#1327);
#1329=PRODUCT_CONTEXT('',#1327,'mechanical');
#1330=PRODUCT_DEFINITION_CONTEXT('part definition',#1327,'design');
#24=PRODUCT('EXAMPLE 1x Embed Back','EXAMPLE 1x Embed Back','',(#1329));
#1331=PRODUCT_RELATED_PRODUCT_CATEGORY('part','',(#24));
#1332=PRODUCT_DEFINITION_FORMATION_WITH_SPECIFIED_SOURCE('','',#24,.NOT_KNOWN.);
#25=PRODUCT_DEFINITION('design','',#1332,#1330);
#23=PRODUCT_DEFINITION_SHAPE('','',#25);
#1333=SHAPE_DEFINITION_REPRESENTATION(#23,#16);
#11=DRAUGHTING_MODEL('',(#1326),#10);
#1334=DESCRIPTIVE_REPRESENTATION_ITEM('KEY','/Users/ddanier/Library/Containers/com.shapr3d.shapr/Data/tmp/E751A686-70CB-4BD8-9C2F-706BD1B083F1.tmp');
#1335=PROPERTY_DEFINITION('KEY','',#25);
#1336=REPRESENTATION('',(#1334),#10);
#1337=PROPERTY_DEFINITION_REPRESENTATION(#1335,#1336);
#1338=GENERAL_PROPERTY('','KEY','');
#1339=GENERAL_PROPERTY_ASSOCIATION('','',#1338,#1335);
#1=MECHANICAL_DESIGN_GEOMETRIC_PRESENTATION_REPRESENTATION('',(#26,#252),#10);
ENDSEC;
END-ISO-10303-21;
