ISO-10303-21;
HEADER;

/* File generated by Shapr3D Version 5.800.0.8232 */

FILE_DESCRIPTION(('HOOPS Exchange Step'),'2;1');

FILE_NAME('/Users/ddanier/Library/Containers/com.shapr3d.shapr/Data/tmp/export/temp_export',
'2025-03-02T22:00:28+01:00',
('ddanier'),
('Shapr3D Limited'),
'HOOPS Exchange 2024.8',
'Shapr3D',
'Authorized');

FILE_SCHEMA( ('AP242_MANAGED_MODEL_BASED_3D_ENGINEERING_MIM_LF {1 0 10303 442 1 1 4}') );

ENDSEC;

DATA;
#3=(NAMED_UNIT(*)PLANE_ANGLE_UNIT()SI_UNIT($,.RADIAN.));
#4=PLANE_ANGLE_MEASURE_WITH_UNIT(PLANE_ANGLE_MEASURE(0.0174532925),#3);
#5=(CONVERSION_BASED_UNIT('DEGREE',#4)NAMED_UNIT(#6)PLANE_ANGLE_UNIT());
#6=DIMENSIONAL_EXPONENTS(0.,0.,0.,0.,0.,0.,0.);
#7=(NAMED_UNIT(*)SI_UNIT($,.STERADIAN.)SOLID_ANGLE_UNIT());
#8=(LENGTH_UNIT()NAMED_UNIT(*)SI_UNIT(.MILLI.,.METRE.));
#9=UNCERTAINTY_MEASURE_WITH_UNIT(LENGTH_MEASURE(1.000000E-05),#8,'DISTANCE_ACCURACY_VALUE','Maximum Tolerance applied to model');
#10=(GEOMETRIC_REPRESENTATION_CONTEXT(3)GLOBAL_UNCERTAINTY_ASSIGNED_CONTEXT((#9))GLOBAL_UNIT_ASSIGNED_CONTEXT((#8,#5,#7))REPRESENTATION_CONTEXT('','EXAMPLE Round'));
#12=CARTESIAN_POINT('',(0.,0.,0.));
#13=DIRECTION('',(0.,0.,1.));
#14=DIRECTION('',(1.,0.,0.));
#15=AXIS2_PLACEMENT_3D('TS3D_PRODUCT_CSYS',#12,#13,#14);
#27=CARTESIAN_POINT('',(5.,-105.,-0.));
#28=DIRECTION('',(0.,0.,1.));
#29=DIRECTION('',(1.,0.,0.));
#30=AXIS2_PLACEMENT_3D('',#27,#28,#29);
#31=PLANE('',#30);
#32=CARTESIAN_POINT('',(-1.05,-105.,-0.));
#33=VERTEX_POINT('',#32);
#34=CARTESIAN_POINT('',(0.,-105.,0.));
#35=DIRECTION('',(0.,0.,-1.));
#36=DIRECTION('',(-1.,0.,0.));
#37=AXIS2_PLACEMENT_3D('',#34,#35,#36);
#38=CIRCLE('',#37,1.05);
#39=EDGE_CURVE('',#33,#33,#38,.T.);
#40=ORIENTED_EDGE('',*,*,#39,.F.);
#41=EDGE_LOOP('',(#40));
#42=FACE_BOUND('',#41,.T.);
#43=CARTESIAN_POINT('',(10.,-105.,0.));
#44=VERTEX_POINT('',#43);
#45=CARTESIAN_POINT('',(0.,-105.,0.));
#46=DIRECTION('',(0.,0.,1.));
#47=DIRECTION('',(1.,0.,-0.));
#48=AXIS2_PLACEMENT_3D('',#45,#46,#47);
#49=CIRCLE('',#48,10.);
#50=EDGE_CURVE('',#44,#44,#49,.T.);
#51=ORIENTED_EDGE('',*,*,#50,.F.);
#52=EDGE_LOOP('',(#51));
#53=FACE_BOUND('',#52,.T.);
#54=ADVANCED_FACE('',(#42,#53),#31,.F.);
#55=CARTESIAN_POINT('',(0.,-105.,0.));
#56=DIRECTION('',(0.,0.,1.));
#57=DIRECTION('',(1.,0.,-0.));
#58=AXIS2_PLACEMENT_3D('',#55,#56,#57);
#59=CYLINDRICAL_SURFACE('',#58,10.);
#60=CARTESIAN_POINT('',(10.,-105.,1.));
#61=VERTEX_POINT('',#60);
#62=CARTESIAN_POINT('',(10.,-105.,1.));
#63=DIRECTION('',(-0.,-0.,-1.));
#64=VECTOR('',#63,1.);
#65=LINE('',#62,#64);
#66=EDGE_CURVE('',#61,#44,#65,.T.);
#67=ORIENTED_EDGE('',*,*,#66,.T.);
#68=ORIENTED_EDGE('',*,*,#50,.T.);
#69=ORIENTED_EDGE('',*,*,#66,.F.);
#70=CARTESIAN_POINT('',(-10.,-105.,1.));
#71=VERTEX_POINT('',#70);
#72=CARTESIAN_POINT('',(0.,-105.,1.));
#73=DIRECTION('',(0.,0.,1.));
#74=DIRECTION('',(1.,0.,-0.));
#75=AXIS2_PLACEMENT_3D('',#72,#73,#74);
#76=CIRCLE('',#75,10.);
#77=EDGE_CURVE('',#71,#61,#76,.T.);
#78=ORIENTED_EDGE('',*,*,#77,.F.);
#79=CARTESIAN_POINT('',(0.,-105.,1.));
#80=DIRECTION('',(0.,0.,1.));
#81=DIRECTION('',(1.,0.,-0.));
#82=AXIS2_PLACEMENT_3D('',#79,#80,#81);
#83=CIRCLE('',#82,10.);
#84=EDGE_CURVE('',#61,#71,#83,.T.);
#85=ORIENTED_EDGE('',*,*,#84,.F.);
#86=EDGE_LOOP('',(#67,#68,#69,#78,#85));
#87=FACE_BOUND('',#86,.T.);
#88=ADVANCED_FACE('',(#87),#59,.T.);
#89=CARTESIAN_POINT('',(0.,-105.,1.));
#90=DIRECTION('',(0.,0.,-1.));
#91=DIRECTION('',(-1.,0.,0.));
#92=AXIS2_PLACEMENT_3D('',#89,#90,#91);
#93=CONICAL_SURFACE('',#92,10.,45.);
#94=CARTESIAN_POINT('',(-7.5,-105.,3.5));
#95=VERTEX_POINT('',#94);
#96=CARTESIAN_POINT('',(-10.,-105.,1.));
#97=DIRECTION('',(0.707106781,-0.,0.707106781));
#98=VECTOR('',#97,3.535533906);
#99=LINE('',#96,#98);
#100=EDGE_CURVE('',#71,#95,#99,.T.);
#101=ORIENTED_EDGE('',*,*,#100,.T.);
#102=CARTESIAN_POINT('',(7.5,-105.,3.5));
#103=VERTEX_POINT('',#102);
#104=CARTESIAN_POINT('',(0.,-105.,3.5));
#105=DIRECTION('',(0.,0.,1.));
#106=DIRECTION('',(1.,0.,-0.));
#107=AXIS2_PLACEMENT_3D('',#104,#105,#106);
#108=CIRCLE('',#107,7.5);
#109=EDGE_CURVE('',#103,#95,#108,.T.);
#110=ORIENTED_EDGE('',*,*,#109,.F.);
#111=CARTESIAN_POINT('',(0.,-105.,3.5));
#112=DIRECTION('',(0.,0.,1.));
#113=DIRECTION('',(1.,0.,-0.));
#114=AXIS2_PLACEMENT_3D('',#111,#112,#113);
#115=CIRCLE('',#114,7.5);
#116=EDGE_CURVE('',#95,#103,#115,.T.);
#117=ORIENTED_EDGE('',*,*,#116,.F.);
#118=ORIENTED_EDGE('',*,*,#100,.F.);
#119=ORIENTED_EDGE('',*,*,#77,.T.);
#120=ORIENTED_EDGE('',*,*,#84,.T.);
#121=EDGE_LOOP('',(#101,#110,#117,#118,#119,#120));
#122=FACE_BOUND('',#121,.T.);
#123=ADVANCED_FACE('',(#122),#93,.T.);
#124=CARTESIAN_POINT('',(0.,-105.,0.));
#125=DIRECTION('',(0.,0.,1.));
#126=DIRECTION('',(1.,0.,-0.));
#127=AXIS2_PLACEMENT_3D('',#124,#125,#126);
#128=CYLINDRICAL_SURFACE('',#127,7.5);
#129=CARTESIAN_POINT('',(7.5,-105.,10.));
#130=VERTEX_POINT('',#129);
#131=CARTESIAN_POINT('',(7.5,-105.,10.));
#132=DIRECTION('',(-0.,-0.,-1.));
#133=VECTOR('',#132,6.5);
#134=LINE('',#131,#133);
#135=EDGE_CURVE('',#130,#103,#134,.T.);
#136=ORIENTED_EDGE('',*,*,#135,.T.);
#137=ORIENTED_EDGE('',*,*,#109,.T.);
#138=ORIENTED_EDGE('',*,*,#116,.T.);
#139=ORIENTED_EDGE('',*,*,#135,.F.);
#140=CARTESIAN_POINT('',(-7.5,-105.,10.));
#141=VERTEX_POINT('',#140);
#142=CARTESIAN_POINT('',(0.,-105.,10.));
#143=DIRECTION('',(-0.,-0.,1.));
#144=DIRECTION('',(-1.,0.,0.));
#145=AXIS2_PLACEMENT_3D('',#142,#143,#144);
#146=CIRCLE('',#145,7.5);
#147=EDGE_CURVE('',#141,#130,#146,.T.);
#148=ORIENTED_EDGE('',*,*,#147,.F.);
#149=CARTESIAN_POINT('',(0.,-105.,10.));
#150=DIRECTION('',(-0.,-0.,1.));
#151=DIRECTION('',(-1.,0.,0.));
#152=AXIS2_PLACEMENT_3D('',#149,#150,#151);
#153=CIRCLE('',#152,7.5);
#154=EDGE_CURVE('',#130,#141,#153,.T.);
#155=ORIENTED_EDGE('',*,*,#154,.F.);
#156=EDGE_LOOP('',(#136,#137,#138,#139,#148,#155));
#157=FACE_BOUND('',#156,.T.);
#158=ADVANCED_FACE('',(#157),#128,.T.);
#159=CARTESIAN_POINT('',(3.75,-105.,10.));
#160=DIRECTION('',(0.,0.,-1.));
#161=DIRECTION('',(-1.,0.,0.));
#162=AXIS2_PLACEMENT_3D('',#159,#160,#161);
#163=PLANE('',#162);
#164=ORIENTED_EDGE('',*,*,#147,.T.);
#165=ORIENTED_EDGE('',*,*,#154,.T.);
#166=EDGE_LOOP('',(#164,#165));
#167=FACE_BOUND('',#166,.T.);
#168=ADVANCED_FACE('',(#167),#163,.F.);
#169=CARTESIAN_POINT('',(0.,-105.,1.));
#170=DIRECTION('',(0.,0.,-1.));
#171=DIRECTION('',(-1.,0.,0.));
#172=AXIS2_PLACEMENT_3D('',#169,#170,#171);
#173=PLANE('',#172);
#174=CARTESIAN_POINT('',(-0.05,-105.,1.));
#175=VERTEX_POINT('',#174);
#176=CARTESIAN_POINT('',(0.,-105.,1.));
#177=DIRECTION('',(0.,0.,-1.));
#178=DIRECTION('',(-1.,0.,0.));
#179=AXIS2_PLACEMENT_3D('',#176,#177,#178);
#180=CIRCLE('',#179,0.05);
#181=EDGE_CURVE('',#175,#175,#180,.T.);
#182=ORIENTED_EDGE('',*,*,#181,.T.);
#183=EDGE_LOOP('',(#182));
#184=FACE_BOUND('',#183,.T.);
#185=ADVANCED_FACE('',(#184),#173,.T.);
#186=COLOUR_RGB('',0.70588237,0.698039234,0.211764708);
#187=FILL_AREA_STYLE_COLOUR('',#186);
#188=FILL_AREA_STYLE('',(#187));
#189=SURFACE_STYLE_FILL_AREA(#188);
#190=SURFACE_SIDE_STYLE('',(#189));
#191=SURFACE_STYLE_USAGE(.BOTH.,#190);
#192=PRESENTATION_STYLE_ASSIGNMENT((#191));
#193=OVER_RIDING_STYLED_ITEM('',(#192),#185,#26);
#194=CARTESIAN_POINT('',(0.,-105.,1.));
#195=DIRECTION('',(0.,0.,-1.));
#196=DIRECTION('',(-1.,0.,0.));
#197=AXIS2_PLACEMENT_3D('',#194,#195,#196);
#198=CONICAL_SURFACE('',#197,0.05,45.);
#199=CARTESIAN_POINT('',(-1.05,-105.,-0.));
#200=DIRECTION('',(0.707106781,-0.,0.707106781));
#201=VECTOR('',#200,1.414213562);
#202=LINE('',#199,#201);
#203=EDGE_CURVE('',#33,#175,#202,.T.);
#204=ORIENTED_EDGE('',*,*,#203,.F.);
#205=ORIENTED_EDGE('',*,*,#39,.T.);
#206=ORIENTED_EDGE('',*,*,#203,.T.);
#207=ORIENTED_EDGE('',*,*,#181,.F.);
#208=EDGE_LOOP('',(#204,#205,#206,#207));
#209=FACE_BOUND('',#208,.T.);
#210=ADVANCED_FACE('',(#209),#198,.F.);
#211=OVER_RIDING_STYLED_ITEM('',(#192),#210,#26);
#212=CLOSED_SHELL('',(#54,#88,#123,#158,#168,#185,#210));
#213=MANIFOLD_SOLID_BREP('EXAMPLE Round',#212);
#214=COLOUR_RGB('',0.580392182,0.580392182,0.580392182);
#215=FILL_AREA_STYLE_COLOUR('',#214);
#216=FILL_AREA_STYLE('',(#215));
#217=SURFACE_STYLE_FILL_AREA(#216);
#218=SURFACE_SIDE_STYLE('',(#217));
#219=SURFACE_STYLE_USAGE(.BOTH.,#218);
#220=PRESENTATION_STYLE_ASSIGNMENT((#219));
#26=STYLED_ITEM('',(#220),#213);
#16=SHAPE_REPRESENTATION('EXAMPLE Round',(#15),#10);
#17=ADVANCED_BREP_SHAPE_REPRESENTATION('EXAMPLE Round',(#213),#10);
#228=SHAPE_REPRESENTATION_RELATIONSHIP('','',#16,#17);
#229=CARTESIAN_POINT('',(0.,0.,0.));
#230=DIRECTION('',(0.,0.,1.));
#231=DIRECTION('',(1.,0.,0.));
#232=AXIS2_PLACEMENT_3D('',#229,#230,#231);
#234=MAPPED_ITEM('',#233,#232);
#233=REPRESENTATION_MAP(#232,#16);
#235=APPLICATION_CONTEXT('Managed model based 3d engineering');
#236=APPLICATION_PROTOCOL_DEFINITION('international standard','ap242_managed_model_based_3d_engineering',2014,#235);
#237=PRODUCT_CONTEXT('',#235,'mechanical');
#238=PRODUCT_DEFINITION_CONTEXT('part definition',#235,'design');
#24=PRODUCT('EXAMPLE Round','EXAMPLE Round','',(#237));
#239=PRODUCT_RELATED_PRODUCT_CATEGORY('part','',(#24));
#240=PRODUCT_DEFINITION_FORMATION_WITH_SPECIFIED_SOURCE('','',#24,.NOT_KNOWN.);
#25=PRODUCT_DEFINITION('design','',#240,#238);
#23=PRODUCT_DEFINITION_SHAPE('','',#25);
#241=SHAPE_DEFINITION_REPRESENTATION(#23,#16);
#11=DRAUGHTING_MODEL('',(#234),#10);
#242=DESCRIPTIVE_REPRESENTATION_ITEM('KEY','/Users/ddanier/Library/Containers/com.shapr3d.shapr/Data/tmp/53732006-D2BF-4621-97DB-165BA7C32354.tmp');
#243=PROPERTY_DEFINITION('KEY','',#25);
#244=REPRESENTATION('',(#242),#10);
#245=PROPERTY_DEFINITION_REPRESENTATION(#243,#244);
#246=GENERAL_PROPERTY('','KEY','');
#247=GENERAL_PROPERTY_ASSOCIATION('','',#246,#243);
#1=MECHANICAL_DESIGN_GEOMETRIC_PRESENTATION_REPRESENTATION('',(#193,#211,#26),#10);
ENDSEC;
END-ISO-10303-21;
