ISO-10303-21;
HEADER;

/* File generated by Shapr3D Version 5.800.0.8232 */

FILE_DESCRIPTION(('HOOPS Exchange Step'),'2;1');

FILE_NAME('/Users/ddanier/Library/Containers/com.shapr3d.shapr/Data/tmp/export/temp_export',
'2025-03-02T22:00:28+01:00',
('ddanier'),
('Shapr3D Limited'),
'HOOPS Exchange 2024.8',
'Shapr3D',
'Authorized');

FILE_SCHEMA( ('AP242_MANAGED_MODEL_BASED_3D_ENGINEERING_MIM_LF {1 0 10303 442 1 1 4}') );

ENDSEC;

DATA;
#3=(NAMED_UNIT(*)PLANE_ANGLE_UNIT()SI_UNIT($,.RADIAN.));
#4=PLANE_ANGLE_MEASURE_WITH_UNIT(PLANE_ANGLE_MEASURE(0.0174532925),#3);
#5=(CONVERSION_BASED_UNIT('DEGREE',#4)NAMED_UNIT(#6)PLANE_ANGLE_UNIT());
#6=DIMENSIONAL_EXPONENTS(0.,0.,0.,0.,0.,0.,0.);
#7=(NAMED_UNIT(*)SI_UNIT($,.STERADIAN.)SOLID_ANGLE_UNIT());
#8=(LENGTH_UNIT()NAMED_UNIT(*)SI_UNIT(.MILLI.,.METRE.));
#9=UNCERTAINTY_MEASURE_WITH_UNIT(LENGTH_MEASURE(1.000000E-05),#8,'DISTANCE_ACCURACY_VALUE','Maximum Tolerance applied to model');
#10=(GEOMETRIC_REPRESENTATION_CONTEXT(3)GLOBAL_UNCERTAINTY_ASSIGNED_CONTEXT((#9))GLOBAL_UNIT_ASSIGNED_CONTEXT((#8,#5,#7))REPRESENTATION_CONTEXT('','Quick Connect Slot Back'));
#12=CARTESIAN_POINT('',(0.,0.,0.));
#13=DIRECTION('',(0.,0.,1.));
#14=DIRECTION('',(1.,0.,0.));
#15=AXIS2_PLACEMENT_3D('TS3D_PRODUCT_CSYS',#12,#13,#14);
#27=CARTESIAN_POINT('',(56.,0.,6.4));
#28=DIRECTION('',(0.,0.,1.));
#29=DIRECTION('',(1.,0.,0.));
#30=AXIS2_PLACEMENT_3D('',#27,#28,#29);
#31=PLANE('',#30);
#32=CARTESIAN_POINT('',(114.752501986,7.33713958,6.4));
#33=VERTEX_POINT('',#32);
#34=CARTESIAN_POINT('',(117.,14.,6.4));
#35=VERTEX_POINT('',#34);
#36=CARTESIAN_POINT('',(106.,14.,6.4));
#37=DIRECTION('',(0.,0.,1.));
#38=DIRECTION('',(1.,0.,-0.));
#39=AXIS2_PLACEMENT_3D('',#36,#37,#38);
#40=CIRCLE('',#39,11.);
#41=EDGE_CURVE('',#33,#35,#40,.T.);
#42=ORIENTED_EDGE('',*,*,#41,.F.);
#43=CARTESIAN_POINT('',(113.65,4.034566182,6.4));
#44=VERTEX_POINT('',#43);
#45=CARTESIAN_POINT('',(114.752501986,7.33713958,6.4));
#46=CARTESIAN_POINT('',(114.571975276,7.099993664,6.4));
#47=CARTESIAN_POINT('',(114.413936787,6.850788813,6.4));
#48=CARTESIAN_POINT('',(114.277037713,6.5902483,6.4));
#49=CARTESIAN_POINT('',(114.14013864,6.329707786,6.4));
#50=CARTESIAN_POINT('',(114.023989095,6.056580475,6.4));
#51=CARTESIAN_POINT('',(113.930419807,5.774510764,6.4));
#52=CARTESIAN_POINT('',(113.836850519,5.492441054,6.4));
#53=CARTESIAN_POINT('',(113.767246097,5.206318039,6.4));
#54=CARTESIAN_POINT('',(113.720532866,4.916323317,6.4));
#55=CARTESIAN_POINT('',(113.673819636,4.626328595,6.4));
#56=CARTESIAN_POINT('',(113.65,4.332461759,6.4));
#57=CARTESIAN_POINT('',(113.65,4.034566182,6.4));
#58=B_SPLINE_CURVE_WITH_KNOTS('',3,(#45,#46,#47,#48,#49,#50,#51,#52,#53,#54,#55,#56,#57),.UNSPECIFIED.,.F.,.F.,(4,3,3,3,4),(0.,0.000882921,0.001765842,0.002648762,0.003531683),.UNSPECIFIED.);
#59=EDGE_CURVE('',#33,#44,#58,.T.);
#60=ORIENTED_EDGE('',*,*,#59,.T.);
#61=CARTESIAN_POINT('',(113.65,-4.034566182,6.4));
#62=VERTEX_POINT('',#61);
#63=CARTESIAN_POINT('',(113.65,4.034566182,6.4));
#64=DIRECTION('',(0.,-1.,0.));
#65=VECTOR('',#64,8.069132364);
#66=LINE('',#63,#65);
#67=EDGE_CURVE('',#44,#62,#66,.T.);
#68=ORIENTED_EDGE('',*,*,#67,.T.);
#69=CARTESIAN_POINT('',(114.752501986,-7.33713958,6.4));
#70=VERTEX_POINT('',#69);
#71=CARTESIAN_POINT('',(113.65,-4.034566182,6.4));
#72=CARTESIAN_POINT('',(113.65,-4.332460847,6.4));
#73=CARTESIAN_POINT('',(113.673820542,-4.626615974,6.4));
#74=CARTESIAN_POINT('',(113.72066711,-4.917156294,6.4));
#75=CARTESIAN_POINT('',(113.767513678,-5.207696614,6.4));
#76=CARTESIAN_POINT('',(113.837632881,-5.495372177,6.4));
#77=CARTESIAN_POINT('',(113.931471179,-5.777676952,6.4));
#78=CARTESIAN_POINT('',(114.025309476,-6.059981727,6.4));
#79=CARTESIAN_POINT('',(114.140775713,-6.331022748,6.4));
#80=CARTESIAN_POINT('',(114.277444182,-6.591021721,6.4));
#81=CARTESIAN_POINT('',(114.41411265,-6.851020694,6.4));
#82=CARTESIAN_POINT('',(114.571968822,-7.099985186,6.4));
#83=CARTESIAN_POINT('',(114.752501986,-7.33713958,6.4));
#84=B_SPLINE_CURVE_WITH_KNOTS('',3,(#71,#72,#73,#74,#75,#76,#77,#78,#79,#80,#81,#82,#83),.UNSPECIFIED.,.F.,.F.,(4,3,3,3,4),(0.,0.000882871,0.001765742,0.002648613,0.003531484),.UNSPECIFIED.);
#85=EDGE_CURVE('',#62,#70,#84,.T.);
#86=ORIENTED_EDGE('',*,*,#85,.T.);
#87=CARTESIAN_POINT('',(117.,-14.,6.4));
#88=VERTEX_POINT('',#87);
#89=CARTESIAN_POINT('',(106.,-14.,6.4));
#90=DIRECTION('',(0.,0.,1.));
#91=DIRECTION('',(1.,0.,-0.));
#92=AXIS2_PLACEMENT_3D('',#89,#90,#91);
#93=CIRCLE('',#92,11.);
#94=EDGE_CURVE('',#88,#70,#93,.T.);
#95=ORIENTED_EDGE('',*,*,#94,.F.);
#96=CARTESIAN_POINT('',(120.,-14.,6.4));
#97=VERTEX_POINT('',#96);
#98=CARTESIAN_POINT('',(120.,-14.,6.4));
#99=DIRECTION('',(-1.,-0.,0.));
#100=VECTOR('',#99,3.);
#101=LINE('',#98,#100);
#102=EDGE_CURVE('',#97,#88,#101,.T.);
#103=ORIENTED_EDGE('',*,*,#102,.F.);
#104=CARTESIAN_POINT('',(120.,14.,6.4));
#105=VERTEX_POINT('',#104);
#106=CARTESIAN_POINT('',(120.,14.,6.4));
#107=DIRECTION('',(0.,-1.,0.));
#108=VECTOR('',#107,28.);
#109=LINE('',#106,#108);
#110=EDGE_CURVE('',#105,#97,#109,.T.);
#111=ORIENTED_EDGE('',*,*,#110,.F.);
#112=CARTESIAN_POINT('',(117.,14.,6.4));
#113=DIRECTION('',(1.,0.,-0.));
#114=VECTOR('',#113,3.);
#115=LINE('',#112,#114);
#116=EDGE_CURVE('',#35,#105,#115,.T.);
#117=ORIENTED_EDGE('',*,*,#116,.F.);
#118=EDGE_LOOP('',(#42,#60,#68,#86,#95,#103,#111,#117));
#119=FACE_BOUND('',#118,.T.);
#120=ADVANCED_FACE('',(#119),#31,.T.);
#121=CARTESIAN_POINT('',(106.,14.,6.4));
#122=DIRECTION('',(0.,1.,0.));
#123=DIRECTION('',(0.,0.,1.));
#124=AXIS2_PLACEMENT_3D('',#121,#122,#123);
#125=PLANE('',#124);
#126=CARTESIAN_POINT('',(95.748311159,14.,2.74648081));
#127=VERTEX_POINT('',#126);
#128=CARTESIAN_POINT('',(95.824250314,14.,2.25));
#129=VERTEX_POINT('',#128);
#130=CARTESIAN_POINT('',(90.85,14.,1.743212259));
#131=DIRECTION('',(0.,1.,0.));
#132=DIRECTION('',(0.,-0.,1.));
#133=AXIS2_PLACEMENT_3D('',#130,#131,#132);
#134=CIRCLE('',#133,5.);
#135=EDGE_CURVE('',#127,#129,#134,.T.);
#136=ORIENTED_EDGE('',*,*,#135,.T.);
#137=CARTESIAN_POINT('',(116.175749686,14.,2.25));
#138=VERTEX_POINT('',#137);
#139=CARTESIAN_POINT('',(95.824250314,14.,2.25));
#140=DIRECTION('',(1.,0.,0.));
#141=VECTOR('',#140,20.351499372);
#142=LINE('',#139,#141);
#143=EDGE_CURVE('',#129,#138,#142,.T.);
#144=ORIENTED_EDGE('',*,*,#143,.T.);
#145=CARTESIAN_POINT('',(116.251688841,14.,2.74648081));
#146=VERTEX_POINT('',#145);
#147=CARTESIAN_POINT('',(121.15,14.,1.743212259));
#148=DIRECTION('',(0.,1.,0.));
#149=DIRECTION('',(0.,-0.,1.));
#150=AXIS2_PLACEMENT_3D('',#147,#148,#149);
#151=CIRCLE('',#150,5.);
#152=EDGE_CURVE('',#138,#146,#151,.T.);
#153=ORIENTED_EDGE('',*,*,#152,.T.);
#154=CARTESIAN_POINT('',(117.,14.,6.4));
#155=DIRECTION('',(-0.20065371,0.,-0.979662232));
#156=VECTOR('',#155,3.729366175);
#157=LINE('',#154,#156);
#158=EDGE_CURVE('',#35,#146,#157,.T.);
#159=ORIENTED_EDGE('',*,*,#158,.F.);
#160=ORIENTED_EDGE('',*,*,#116,.T.);
#161=CARTESIAN_POINT('',(120.,14.,0.));
#162=VERTEX_POINT('',#161);
#163=CARTESIAN_POINT('',(120.,14.,6.4));
#164=DIRECTION('',(0.,0.,-1.));
#165=VECTOR('',#164,6.4);
#166=LINE('',#163,#165);
#167=EDGE_CURVE('',#105,#162,#166,.T.);
#168=ORIENTED_EDGE('',*,*,#167,.T.);
#169=CARTESIAN_POINT('',(92.,14.,0.));
#170=VERTEX_POINT('',#169);
#171=CARTESIAN_POINT('',(92.,14.,0.));
#172=DIRECTION('',(1.,0.,-0.));
#173=VECTOR('',#172,28.);
#174=LINE('',#171,#173);
#175=EDGE_CURVE('',#170,#162,#174,.T.);
#176=ORIENTED_EDGE('',*,*,#175,.F.);
#177=CARTESIAN_POINT('',(92.,14.,6.4));
#178=VERTEX_POINT('',#177);
#179=CARTESIAN_POINT('',(92.,14.,6.4));
#180=DIRECTION('',(0.,0.,-1.));
#181=VECTOR('',#180,6.4);
#182=LINE('',#179,#181);
#183=EDGE_CURVE('',#178,#170,#182,.T.);
#184=ORIENTED_EDGE('',*,*,#183,.F.);
#185=CARTESIAN_POINT('',(95.,14.,6.4));
#186=VERTEX_POINT('',#185);
#187=CARTESIAN_POINT('',(92.,14.,6.4));
#188=DIRECTION('',(1.,0.,-0.));
#189=VECTOR('',#188,3.);
#190=LINE('',#187,#189);
#191=EDGE_CURVE('',#178,#186,#190,.T.);
#192=ORIENTED_EDGE('',*,*,#191,.T.);
#193=CARTESIAN_POINT('',(95.748311159,14.,2.74648081));
#194=DIRECTION('',(-0.20065371,0.,0.979662232));
#195=VECTOR('',#194,3.729366175);
#196=LINE('',#193,#195);
#197=EDGE_CURVE('',#127,#186,#196,.T.);
#198=ORIENTED_EDGE('',*,*,#197,.F.);
#199=EDGE_LOOP('',(#136,#144,#153,#159,#160,#168,#176,#184,#192,#198));
#200=FACE_BOUND('',#199,.T.);
#201=ADVANCED_FACE('',(#200),#125,.T.);
#202=CARTESIAN_POINT('',(106.,-14.,6.4));
#203=DIRECTION('',(0.,-1.,0.));
#204=DIRECTION('',(1.,0.,0.));
#205=AXIS2_PLACEMENT_3D('',#202,#203,#204);
#206=PLANE('',#205);
#207=CARTESIAN_POINT('',(95.824250314,-14.,2.25));
#208=VERTEX_POINT('',#207);
#209=CARTESIAN_POINT('',(116.175749686,-14.,2.25));
#210=VERTEX_POINT('',#209);
#211=CARTESIAN_POINT('',(95.824250314,-14.,2.25));
#212=DIRECTION('',(1.,0.,0.));
#213=VECTOR('',#212,20.351499372);
#214=LINE('',#211,#213);
#215=EDGE_CURVE('',#208,#210,#214,.T.);
#216=ORIENTED_EDGE('',*,*,#215,.F.);
#217=CARTESIAN_POINT('',(95.748311159,-14.,2.74648081));
#218=VERTEX_POINT('',#217);
#219=CARTESIAN_POINT('',(90.85,-14.,1.743212259));
#220=DIRECTION('',(0.,-1.,0.));
#221=DIRECTION('',(1.,0.,0.));
#222=AXIS2_PLACEMENT_3D('',#219,#220,#221);
#223=CIRCLE('',#222,5.);
#224=EDGE_CURVE('',#208,#218,#223,.T.);
#225=ORIENTED_EDGE('',*,*,#224,.T.);
#226=CARTESIAN_POINT('',(95.,-14.,6.4));
#227=VERTEX_POINT('',#226);
#228=CARTESIAN_POINT('',(95.,-14.,6.4));
#229=DIRECTION('',(0.20065371,0.,-0.979662232));
#230=VECTOR('',#229,3.729366175);
#231=LINE('',#228,#230);
#232=EDGE_CURVE('',#227,#218,#231,.T.);
#233=ORIENTED_EDGE('',*,*,#232,.F.);
#234=CARTESIAN_POINT('',(92.,-14.,6.4));
#235=VERTEX_POINT('',#234);
#236=CARTESIAN_POINT('',(95.,-14.,6.4));
#237=DIRECTION('',(-1.,-0.,0.));
#238=VECTOR('',#237,3.);
#239=LINE('',#236,#238);
#240=EDGE_CURVE('',#227,#235,#239,.T.);
#241=ORIENTED_EDGE('',*,*,#240,.T.);
#242=CARTESIAN_POINT('',(92.,-14.,0.));
#243=VERTEX_POINT('',#242);
#244=CARTESIAN_POINT('',(92.,-14.,6.4));
#245=DIRECTION('',(0.,0.,-1.));
#246=VECTOR('',#245,6.4);
#247=LINE('',#244,#246);
#248=EDGE_CURVE('',#235,#243,#247,.T.);
#249=ORIENTED_EDGE('',*,*,#248,.T.);
#250=CARTESIAN_POINT('',(120.,-14.,0.));
#251=VERTEX_POINT('',#250);
#252=CARTESIAN_POINT('',(120.,-14.,0.));
#253=DIRECTION('',(-1.,-0.,0.));
#254=VECTOR('',#253,28.);
#255=LINE('',#252,#254);
#256=EDGE_CURVE('',#251,#243,#255,.T.);
#257=ORIENTED_EDGE('',*,*,#256,.F.);
#258=CARTESIAN_POINT('',(120.,-14.,6.4));
#259=DIRECTION('',(0.,0.,-1.));
#260=VECTOR('',#259,6.4);
#261=LINE('',#258,#260);
#262=EDGE_CURVE('',#97,#251,#261,.T.);
#263=ORIENTED_EDGE('',*,*,#262,.F.);
#264=ORIENTED_EDGE('',*,*,#102,.T.);
#265=CARTESIAN_POINT('',(116.251688841,-14.,2.74648081));
#266=VERTEX_POINT('',#265);
#267=CARTESIAN_POINT('',(116.251688841,-14.,2.74648081));
#268=DIRECTION('',(0.20065371,0.,0.979662232));
#269=VECTOR('',#268,3.729366175);
#270=LINE('',#267,#269);
#271=EDGE_CURVE('',#266,#88,#270,.T.);
#272=ORIENTED_EDGE('',*,*,#271,.F.);
#273=CARTESIAN_POINT('',(121.15,-14.,1.743212259));
#274=DIRECTION('',(0.,-1.,0.));
#275=DIRECTION('',(1.,0.,0.));
#276=AXIS2_PLACEMENT_3D('',#273,#274,#275);
#277=CIRCLE('',#276,5.);
#278=EDGE_CURVE('',#266,#210,#277,.T.);
#279=ORIENTED_EDGE('',*,*,#278,.T.);
#280=EDGE_LOOP('',(#216,#225,#233,#241,#249,#257,#263,#264,#272,#279));
#281=FACE_BOUND('',#280,.T.);
#282=ADVANCED_FACE('',(#281),#206,.T.);
#283=CARTESIAN_POINT('',(120.,0.,6.4));
#284=DIRECTION('',(1.,0.,0.));
#285=DIRECTION('',(0.,0.,-1.));
#286=AXIS2_PLACEMENT_3D('',#283,#284,#285);
#287=PLANE('',#286);
#288=CARTESIAN_POINT('',(120.,14.,0.));
#289=DIRECTION('',(0.,-1.,0.));
#290=VECTOR('',#289,28.);
#291=LINE('',#288,#290);
#292=EDGE_CURVE('',#162,#251,#291,.T.);
#293=ORIENTED_EDGE('',*,*,#292,.F.);
#294=ORIENTED_EDGE('',*,*,#167,.F.);
#295=ORIENTED_EDGE('',*,*,#110,.T.);
#296=ORIENTED_EDGE('',*,*,#262,.T.);
#297=EDGE_LOOP('',(#293,#294,#295,#296));
#298=FACE_BOUND('',#297,.T.);
#299=ADVANCED_FACE('',(#298),#287,.T.);
#300=CARTESIAN_POINT('',(92.,0.,6.4));
#301=DIRECTION('',(-1.,-0.,0.));
#302=DIRECTION('',(0.,-1.,0.));
#303=AXIS2_PLACEMENT_3D('',#300,#301,#302);
#304=PLANE('',#303);
#305=CARTESIAN_POINT('',(92.,-14.,0.));
#306=DIRECTION('',(-0.,1.,0.));
#307=VECTOR('',#306,28.);
#308=LINE('',#305,#307);
#309=EDGE_CURVE('',#243,#170,#308,.T.);
#310=ORIENTED_EDGE('',*,*,#309,.F.);
#311=ORIENTED_EDGE('',*,*,#248,.F.);
#312=CARTESIAN_POINT('',(92.,-14.,6.4));
#313=DIRECTION('',(-0.,1.,0.));
#314=VECTOR('',#313,28.);
#315=LINE('',#312,#314);
#316=EDGE_CURVE('',#235,#178,#315,.T.);
#317=ORIENTED_EDGE('',*,*,#316,.T.);
#318=ORIENTED_EDGE('',*,*,#183,.T.);
#319=EDGE_LOOP('',(#310,#311,#317,#318));
#320=FACE_BOUND('',#319,.T.);
#321=ADVANCED_FACE('',(#320),#304,.T.);
#322=CARTESIAN_POINT('',(56.,0.,6.4));
#323=DIRECTION('',(0.,0.,1.));
#324=DIRECTION('',(1.,0.,0.));
#325=AXIS2_PLACEMENT_3D('',#322,#323,#324);
#326=PLANE('',#325);
#327=CARTESIAN_POINT('',(98.35,4.034566182,6.4));
#328=VERTEX_POINT('',#327);
#329=CARTESIAN_POINT('',(98.35,-4.034566182,6.4));
#330=VERTEX_POINT('',#329);
#331=CARTESIAN_POINT('',(98.35,4.034566182,6.4));
#332=DIRECTION('',(0.,-1.,0.));
#333=VECTOR('',#332,8.069132364);
#334=LINE('',#331,#333);
#335=EDGE_CURVE('',#328,#330,#334,.T.);
#336=ORIENTED_EDGE('',*,*,#335,.F.);
#337=CARTESIAN_POINT('',(97.247498014,7.33713958,6.4));
#338=VERTEX_POINT('',#337);
#339=CARTESIAN_POINT('',(98.35,4.034566182,6.4));
#340=CARTESIAN_POINT('',(98.35,4.332460847,6.4));
#341=CARTESIAN_POINT('',(98.326179458,4.626615974,6.4));
#342=CARTESIAN_POINT('',(98.27933289,4.917156294,6.4));
#343=CARTESIAN_POINT('',(98.232486323,5.207696614,6.4));
#344=CARTESIAN_POINT('',(98.162367095,5.495372165,6.4));
#345=CARTESIAN_POINT('',(98.068528821,5.777676952,6.4));
#346=CARTESIAN_POINT('',(97.974690548,6.05998174,6.4));
#347=CARTESIAN_POINT('',(97.859224277,6.331022743,6.4));
#348=CARTESIAN_POINT('',(97.722555818,6.591021721,6.4));
#349=CARTESIAN_POINT('',(97.58588736,6.851020699,6.4));
#350=CARTESIAN_POINT('',(97.428031528,7.099985368,6.4));
#351=CARTESIAN_POINT('',(97.247498014,7.33713958,6.4));
#352=B_SPLINE_CURVE_WITH_KNOTS('',3,(#339,#340,#341,#342,#343,#344,#345,#346,#347,#348,#349,#350,#351),.UNSPECIFIED.,.F.,.F.,(4,3,3,3,4),(0.,0.000882871,0.001765742,0.002648613,0.003531484),.UNSPECIFIED.);
#353=EDGE_CURVE('',#328,#338,#352,.T.);
#354=ORIENTED_EDGE('',*,*,#353,.T.);
#355=CARTESIAN_POINT('',(106.,14.,6.4));
#356=DIRECTION('',(0.,0.,1.));
#357=DIRECTION('',(1.,0.,-0.));
#358=AXIS2_PLACEMENT_3D('',#355,#356,#357);
#359=CIRCLE('',#358,11.);
#360=EDGE_CURVE('',#186,#338,#359,.T.);
#361=ORIENTED_EDGE('',*,*,#360,.F.);
#362=ORIENTED_EDGE('',*,*,#191,.F.);
#363=ORIENTED_EDGE('',*,*,#316,.F.);
#364=ORIENTED_EDGE('',*,*,#240,.F.);
#365=CARTESIAN_POINT('',(97.247498014,-7.33713958,6.4));
#366=VERTEX_POINT('',#365);
#367=CARTESIAN_POINT('',(106.,-14.,6.4));
#368=DIRECTION('',(0.,0.,1.));
#369=DIRECTION('',(1.,0.,-0.));
#370=AXIS2_PLACEMENT_3D('',#367,#368,#369);
#371=CIRCLE('',#370,11.);
#372=EDGE_CURVE('',#366,#227,#371,.T.);
#373=ORIENTED_EDGE('',*,*,#372,.F.);
#374=CARTESIAN_POINT('',(97.247498014,-7.33713958,6.4));
#375=CARTESIAN_POINT('',(97.428025515,-7.099994088,6.4));
#376=CARTESIAN_POINT('',(97.586063221,-6.850788817,6.4));
#377=CARTESIAN_POINT('',(97.722962287,-6.5902483,6.4));
#378=CARTESIAN_POINT('',(97.859861353,-6.329707782,6.4));
#379=CARTESIAN_POINT('',(97.976010929,-6.056580479,6.4));
#380=CARTESIAN_POINT('',(98.069580193,-5.774510764,6.4));
#381=CARTESIAN_POINT('',(98.163149457,-5.492441049,6.4));
#382=CARTESIAN_POINT('',(98.232753904,-5.206318039,6.4));
#383=CARTESIAN_POINT('',(98.279467134,-4.916323317,6.4));
#384=CARTESIAN_POINT('',(98.326180364,-4.626328595,6.4));
#385=CARTESIAN_POINT('',(98.35,-4.332461759,6.4));
#386=CARTESIAN_POINT('',(98.35,-4.034566182,6.4));
#387=B_SPLINE_CURVE_WITH_KNOTS('',3,(#374,#375,#376,#377,#378,#379,#380,#381,#382,#383,#384,#385,#386),.UNSPECIFIED.,.F.,.F.,(4,3,3,3,4),(0.,0.000882921,0.001765842,0.002648762,0.003531683),.UNSPECIFIED.);
#388=EDGE_CURVE('',#366,#330,#387,.T.);
#389=ORIENTED_EDGE('',*,*,#388,.T.);
#390=EDGE_LOOP('',(#336,#354,#361,#362,#363,#364,#373,#389));
#391=FACE_BOUND('',#390,.T.);
#392=ADVANCED_FACE('',(#391),#326,.T.);
#393=CARTESIAN_POINT('',(56.,0.,0.));
#394=DIRECTION('',(0.,0.,1.));
#395=DIRECTION('',(1.,0.,0.));
#396=AXIS2_PLACEMENT_3D('',#393,#394,#395);
#397=PLANE('',#396);
#398=ORIENTED_EDGE('',*,*,#292,.T.);
#399=ORIENTED_EDGE('',*,*,#256,.T.);
#400=ORIENTED_EDGE('',*,*,#309,.T.);
#401=ORIENTED_EDGE('',*,*,#175,.T.);
#402=EDGE_LOOP('',(#398,#399,#400,#401));
#403=FACE_BOUND('',#402,.T.);
#404=ADVANCED_FACE('',(#403),#397,.F.);
#405=CARTESIAN_POINT('',(98.35,14.,6.181066017));
#406=DIRECTION('',(1.,0.,0.));
#407=DIRECTION('',(0.,0.,-1.));
#408=AXIS2_PLACEMENT_3D('',#405,#406,#407);
#409=PLANE('',#408);
#410=CARTESIAN_POINT('',(98.35,4.180152016,5.962132034));
#411=VERTEX_POINT('',#410);
#412=CARTESIAN_POINT('',(98.35,-4.180152016,5.962132034));
#413=VERTEX_POINT('',#412);
#414=CARTESIAN_POINT('',(98.35,4.180152016,5.962132034));
#415=DIRECTION('',(0.,-1.,0.));
#416=VECTOR('',#415,8.360304033);
#417=LINE('',#414,#416);
#418=EDGE_CURVE('',#411,#413,#417,.T.);
#419=ORIENTED_EDGE('',*,*,#418,.F.);
#420=CARTESIAN_POINT('',(98.35,4.180107883,5.962119463));
#421=CARTESIAN_POINT('',(98.349999953,4.131375434,6.108017383));
#422=CARTESIAN_POINT('',(98.35,4.082893782,6.253986754));
#423=CARTESIAN_POINT('',(98.35,4.034566181,6.4));
#424=B_SPLINE_CURVE_WITH_KNOTS('',3,(#420,#421,#422,#423),.UNSPECIFIED.,.F.,.F.,(4,4),(0.025770478,0.026231478),.UNSPECIFIED.);
#425=EDGE_CURVE('',#411,#328,#424,.T.);
#426=ORIENTED_EDGE('',*,*,#425,.T.);
#427=ORIENTED_EDGE('',*,*,#335,.T.);
#428=CARTESIAN_POINT('',(98.35,-4.034566181,6.4));
#429=CARTESIAN_POINT('',(98.35,-4.082893782,6.253986754));
#430=CARTESIAN_POINT('',(98.349999953,-4.131375434,6.108017383));
#431=CARTESIAN_POINT('',(98.35,-4.180107882,5.962119463));
#432=B_SPLINE_CURVE_WITH_KNOTS('',3,(#428,#429,#430,#431),.UNSPECIFIED.,.F.,.F.,(4,4),(0.025770474,0.026231474),.UNSPECIFIED.);
#433=EDGE_CURVE('',#330,#413,#432,.T.);
#434=ORIENTED_EDGE('',*,*,#433,.T.);
#435=EDGE_LOOP('',(#419,#426,#427,#434));
#436=FACE_BOUND('',#435,.T.);
#437=ADVANCED_FACE('',(#436),#409,.T.);
#438=CARTESIAN_POINT('',(97.1,14.,4.712132034));
#439=DIRECTION('',(0.707106781,0.,-0.707106781));
#440=DIRECTION('',(-0.707106781,0.,-0.707106781));
#441=AXIS2_PLACEMENT_3D('',#438,#439,#440);
#442=PLANE('',#441);
#443=CARTESIAN_POINT('',(97.322492919,7.739973016,4.934624953));
#444=VERTEX_POINT('',#443);
#445=CARTESIAN_POINT('',(95.710454908,12.71327566,3.322586942));
#446=VERTEX_POINT('',#445);
#447=CARTESIAN_POINT('',(108.66747063,14.,16.279602664));
#448=DIRECTION('',(0.707106781,0.,-0.707106781));
#449=DIRECTION('',(0.707106781,0.,0.707106781));
#450=AXIS2_PLACEMENT_3D('',#447,#448,#449);
#451=ELLIPSE('',#450,18.418057106,12.747431671);
#452=EDGE_CURVE('',#444,#446,#451,.T.);
#453=ORIENTED_EDGE('',*,*,#452,.F.);
#454=CARTESIAN_POINT('',(97.322492919,7.739973016,4.934624953));
#455=CARTESIAN_POINT('',(97.469259525,7.485147779,5.08139156));
#456=CARTESIAN_POINT('',(97.604274393,7.220962968,5.216406427));
#457=CARTESIAN_POINT('',(97.725956336,6.946159264,5.33808837));
#458=CARTESIAN_POINT('',(97.847638279,6.671355559,5.459770314));
#459=CARTESIAN_POINT('',(97.956041887,6.385976437,5.568173921));
#460=CARTESIAN_POINT('',(98.048116767,6.087592439,5.660248801));
#461=CARTESIAN_POINT('',(98.094154207,5.938400439,5.706286242));
#462=CARTESIAN_POINT('',(98.13607915,5.785933077,5.748211184));
#463=CARTESIAN_POINT('',(98.173256376,5.629684435,5.78538841));
#464=CARTESIAN_POINT('',(98.210433601,5.473435793,5.822565636));
#465=CARTESIAN_POINT('',(98.242503438,5.31468626,5.854635472));
#466=CARTESIAN_POINT('',(98.268606769,5.155122165,5.880738804));
#467=CARTESIAN_POINT('',(98.320813431,4.835993975,5.932945466));
#468=CARTESIAN_POINT('',(98.350001633,4.511484815,5.962133667));
#469=CARTESIAN_POINT('',(98.35,4.180152016,5.962132034));
#470=B_SPLINE_CURVE_WITH_KNOTS('',3,(#454,#455,#456,#457,#458,#459,#460,#461,#462,#463,#464,#465,#466,#467,#468,#469),.UNSPECIFIED.,.F.,.F.,(4,3,3,3,3,4),(0.,0.000971658,0.001943317,0.002429146,0.002914975,0.003886634),.UNSPECIFIED.);
#471=EDGE_CURVE('',#444,#411,#470,.T.);
#472=ORIENTED_EDGE('',*,*,#471,.T.);
#473=ORIENTED_EDGE('',*,*,#418,.T.);
#474=CARTESIAN_POINT('',(97.322492919,-7.739973016,4.934624953));
#475=VERTEX_POINT('',#474);
#476=CARTESIAN_POINT('',(98.35,-4.180152016,5.962132034));
#477=CARTESIAN_POINT('',(98.350001632,-4.511394757,5.962133667));
#478=CARTESIAN_POINT('',(98.320867303,-4.834456641,5.932999337));
#479=CARTESIAN_POINT('',(98.269246409,-5.1512047,5.881378443));
#480=CARTESIAN_POINT('',(98.243435962,-5.309578729,5.855567996));
#481=CARTESIAN_POINT('',(98.21192111,-5.466351064,5.824053144));
#482=CARTESIAN_POINT('',(98.17516279,-5.621651127,5.787294824));
#483=CARTESIAN_POINT('',(98.138404469,-5.77695119,5.750536503));
#484=CARTESIAN_POINT('',(98.096190865,-5.931342094,5.708322899));
#485=CARTESIAN_POINT('',(98.049947414,-6.081650945,5.662079448));
#486=CARTESIAN_POINT('',(97.957460513,-6.382268647,5.569592547));
#487=CARTESIAN_POINT('',(97.848586093,-6.669077489,5.460718128));
#488=CARTESIAN_POINT('',(97.726557248,-6.94480182,5.338689283));
#489=CARTESIAN_POINT('',(97.604528403,-7.220526151,5.216660438));
#490=CARTESIAN_POINT('',(97.469280443,-7.485111461,5.081412477));
#491=CARTESIAN_POINT('',(97.322492919,-7.739973016,4.934624953));
#492=B_SPLINE_CURVE_WITH_KNOTS('',3,(#476,#477,#478,#479,#480,#481,#482,#483,#484,#485,#486,#487,#488,#489,#490,#491),.UNSPECIFIED.,.F.,.F.,(4,3,3,3,3,4),(0.,0.000974702,0.001462052,0.001949403,0.002924105,0.003898806),.UNSPECIFIED.);
#493=EDGE_CURVE('',#413,#475,#492,.T.);
#494=ORIENTED_EDGE('',*,*,#493,.T.);
#495=CARTESIAN_POINT('',(95.710454908,-12.71327566,3.322586942));
#496=VERTEX_POINT('',#495);
#497=CARTESIAN_POINT('',(108.66747063,-14.,16.279602664));
#498=DIRECTION('',(0.707106781,0.,-0.707106781));
#499=DIRECTION('',(0.707106781,0.,0.707106781));
#500=AXIS2_PLACEMENT_3D('',#497,#498,#499);
#501=ELLIPSE('',#500,18.418057106,12.747431671);
#502=EDGE_CURVE('',#496,#475,#501,.T.);
#503=ORIENTED_EDGE('',*,*,#502,.F.);
#504=CARTESIAN_POINT('',(95.85,-10.714941499,3.462132034));
#505=VERTEX_POINT('',#504);
#506=CARTESIAN_POINT('',(95.710454908,-12.71327566,3.322586942));
#507=CARTESIAN_POINT('',(95.744817235,-12.38177088,3.35694927));
#508=CARTESIAN_POINT('',(95.780186142,-12.050406681,3.392318176));
#509=CARTESIAN_POINT('',(95.806387921,-11.717762187,3.418519956));
#510=CARTESIAN_POINT('',(95.832589701,-11.385117694,3.444721735));
#511=CARTESIAN_POINT('',(95.850000003,-11.05124537,3.462132037));
#512=CARTESIAN_POINT('',(95.85,-10.714941499,3.462132034));
#513=B_SPLINE_CURVE_WITH_KNOTS('',3,(#506,#507,#508,#509,#510,#511,#512),.UNSPECIFIED.,.F.,.F.,(4,3,4),(0.,0.001004028,0.002008055),.UNSPECIFIED.);
#514=EDGE_CURVE('',#496,#505,#513,.T.);
#515=ORIENTED_EDGE('',*,*,#514,.T.);
#516=CARTESIAN_POINT('',(95.85,10.714941499,3.462132034));
#517=VERTEX_POINT('',#516);
#518=CARTESIAN_POINT('',(95.85,10.714941499,3.462132034));
#519=DIRECTION('',(0.,-1.,0.));
#520=VECTOR('',#519,21.429882997);
#521=LINE('',#518,#520);
#522=EDGE_CURVE('',#517,#505,#521,.T.);
#523=ORIENTED_EDGE('',*,*,#522,.F.);
#524=CARTESIAN_POINT('',(95.85,10.714941499,3.462132034));
#525=CARTESIAN_POINT('',(95.85,11.05124537,3.462132034));
#526=CARTESIAN_POINT('',(95.8325897,11.385117694,3.444721735));
#527=CARTESIAN_POINT('',(95.806387921,11.717762187,3.418519956));
#528=CARTESIAN_POINT('',(95.780186142,12.050406681,3.392318177));
#529=CARTESIAN_POINT('',(95.744817204,12.381770876,3.356949239));
#530=CARTESIAN_POINT('',(95.710454908,12.71327566,3.322586942));
#531=B_SPLINE_CURVE_WITH_KNOTS('',3,(#524,#525,#526,#527,#528,#529,#530),.UNSPECIFIED.,.F.,.F.,(4,3,4),(0.,0.001004028,0.002008055),.UNSPECIFIED.);
#532=EDGE_CURVE('',#517,#446,#531,.T.);
#533=ORIENTED_EDGE('',*,*,#532,.T.);
#534=EDGE_LOOP('',(#453,#472,#473,#494,#503,#515,#523,#533));
#535=FACE_BOUND('',#534,.T.);
#536=ADVANCED_FACE('',(#535),#442,.T.);
#537=CARTESIAN_POINT('',(95.85,14.,2.856066017));
#538=DIRECTION('',(1.,0.,0.));
#539=DIRECTION('',(0.,0.,-1.));
#540=AXIS2_PLACEMENT_3D('',#537,#538,#539);
#541=PLANE('',#540);
#542=CARTESIAN_POINT('',(95.85,12.223511511,2.25));
#543=VERTEX_POINT('',#542);
#544=CARTESIAN_POINT('',(95.85,-12.223511511,2.25));
#545=VERTEX_POINT('',#544);
#546=CARTESIAN_POINT('',(95.85,12.223511511,2.25));
#547=DIRECTION('',(0.,-1.,0.));
#548=VECTOR('',#547,24.447023022);
#549=LINE('',#546,#548);
#550=EDGE_CURVE('',#543,#545,#549,.T.);
#551=ORIENTED_EDGE('',*,*,#550,.F.);
#552=CARTESIAN_POINT('',(95.85,12.223511189,2.249999397));
#553=CARTESIAN_POINT('',(95.849999996,11.939249614,2.411633009));
#554=CARTESIAN_POINT('',(95.85,11.674228617,2.60009975));
#555=CARTESIAN_POINT('',(95.85,11.424639184,2.804318161));
#556=CARTESIAN_POINT('',(95.85,11.175049751,3.008536571));
#557=CARTESIAN_POINT('',(95.85,10.939872538,3.22941293));
#558=CARTESIAN_POINT('',(95.85,10.714941498,3.462132034));
#559=B_SPLINE_CURVE_WITH_KNOTS('',3,(#552,#553,#554,#555,#556,#557,#558),.UNSPECIFIED.,.F.,.F.,(4,3,4),(0.039307443,0.040264125,0.041220807),.UNSPECIFIED.);
#560=EDGE_CURVE('',#543,#517,#559,.T.);
#561=ORIENTED_EDGE('',*,*,#560,.T.);
#562=ORIENTED_EDGE('',*,*,#522,.T.);
#563=CARTESIAN_POINT('',(95.85,-10.714941434,3.462131992));
#564=CARTESIAN_POINT('',(95.850000001,-10.939071331,3.230241771));
#565=CARTESIAN_POINT('',(95.85,-11.178167088,3.005666827));
#566=CARTESIAN_POINT('',(95.85,-11.428796506,2.800919245));
#567=CARTESIAN_POINT('',(95.85,-11.679425924,2.596171662));
#568=CARTESIAN_POINT('',(95.85,-11.942480893,2.409796461));
#569=CARTESIAN_POINT('',(95.85,-12.22351151,2.249999998));
#570=B_SPLINE_CURVE_WITH_KNOTS('',3,(#563,#564,#565,#566,#567,#568,#569),.UNSPECIFIED.,.F.,.F.,(4,3,4),(0.026518303,0.027476149,0.028433995),.UNSPECIFIED.);
#571=EDGE_CURVE('',#505,#545,#570,.T.);
#572=ORIENTED_EDGE('',*,*,#571,.T.);
#573=EDGE_LOOP('',(#551,#561,#562,#572));
#574=FACE_BOUND('',#573,.T.);
#575=ADVANCED_FACE('',(#574),#541,.T.);
#576=CARTESIAN_POINT('',(111.075,14.,2.25));
#577=DIRECTION('',(0.,0.,-1.));
#578=DIRECTION('',(-1.,0.,-0.));
#579=AXIS2_PLACEMENT_3D('',#576,#577,#578);
#580=PLANE('',#579);
#581=ORIENTED_EDGE('',*,*,#143,.F.);
#582=CARTESIAN_POINT('',(95.824250314,14.,2.25));
#583=CARTESIAN_POINT('',(95.824250279,13.407712758,2.25));
#584=CARTESIAN_POINT('',(95.850000041,12.815798753,2.25));
#585=CARTESIAN_POINT('',(95.85,12.223511511,2.25));
#586=B_SPLINE_CURVE_WITH_KNOTS('',3,(#582,#583,#584,#585),.UNSPECIFIED.,.F.,.F.,(4,4),(0.,0.001776675),.UNSPECIFIED.);
#587=EDGE_CURVE('',#129,#543,#586,.T.);
#588=ORIENTED_EDGE('',*,*,#587,.T.);
#589=ORIENTED_EDGE('',*,*,#550,.T.);
#590=CARTESIAN_POINT('',(95.85,-12.223511511,2.25));
#591=CARTESIAN_POINT('',(95.849999998,-12.815798752,2.25));
#592=CARTESIAN_POINT('',(95.824250311,-13.407712759,2.25));
#593=CARTESIAN_POINT('',(95.824250314,-14.,2.25));
#594=B_SPLINE_CURVE_WITH_KNOTS('',3,(#590,#591,#592,#593),.UNSPECIFIED.,.F.,.F.,(4,4),(0.,0.001776675),.UNSPECIFIED.);
#595=EDGE_CURVE('',#545,#208,#594,.T.);
#596=ORIENTED_EDGE('',*,*,#595,.T.);
#597=ORIENTED_EDGE('',*,*,#215,.T.);
#598=CARTESIAN_POINT('',(116.15,-12.223511511,2.25));
#599=VERTEX_POINT('',#598);
#600=CARTESIAN_POINT('',(116.175749686,-14.,2.25));
#601=CARTESIAN_POINT('',(116.175749669,-13.407712759,2.25));
#602=CARTESIAN_POINT('',(116.150000002,-12.815798752,2.25));
#603=CARTESIAN_POINT('',(116.15,-12.223511511,2.25));
#604=B_SPLINE_CURVE_WITH_KNOTS('',3,(#600,#601,#602,#603),.UNSPECIFIED.,.F.,.F.,(4,4),(0.,0.001776675),.UNSPECIFIED.);
#605=EDGE_CURVE('',#210,#599,#604,.T.);
#606=ORIENTED_EDGE('',*,*,#605,.T.);
#607=CARTESIAN_POINT('',(116.15,12.223511511,2.25));
#608=VERTEX_POINT('',#607);
#609=CARTESIAN_POINT('',(116.15,12.223511511,2.25));
#610=DIRECTION('',(0.,-1.,0.));
#611=VECTOR('',#610,24.447023022);
#612=LINE('',#609,#611);
#613=EDGE_CURVE('',#608,#599,#612,.T.);
#614=ORIENTED_EDGE('',*,*,#613,.F.);
#615=CARTESIAN_POINT('',(116.15,12.223511511,2.25));
#616=CARTESIAN_POINT('',(116.15,12.815798752,2.25));
#617=CARTESIAN_POINT('',(116.175749616,13.40771276,2.25));
#618=CARTESIAN_POINT('',(116.175749686,14.,2.25));
#619=B_SPLINE_CURVE_WITH_KNOTS('',3,(#615,#616,#617,#618),.UNSPECIFIED.,.F.,.F.,(4,4),(0.,0.001776675),.UNSPECIFIED.);
#620=EDGE_CURVE('',#608,#138,#619,.T.);
#621=ORIENTED_EDGE('',*,*,#620,.T.);
#622=EDGE_LOOP('',(#581,#588,#589,#596,#597,#606,#614,#621));
#623=FACE_BOUND('',#622,.T.);
#624=ADVANCED_FACE('',(#623),#580,.F.);
#625=CARTESIAN_POINT('',(116.15,14.,2.856066017));
#626=DIRECTION('',(1.,0.,0.));
#627=DIRECTION('',(0.,0.,-1.));
#628=AXIS2_PLACEMENT_3D('',#625,#626,#627);
#629=PLANE('',#628);
#630=CARTESIAN_POINT('',(116.15,10.714941499,3.462132034));
#631=VERTEX_POINT('',#630);
#632=CARTESIAN_POINT('',(116.15,-10.714941499,3.462132034));
#633=VERTEX_POINT('',#632);
#634=CARTESIAN_POINT('',(116.15,10.714941499,3.462132034));
#635=DIRECTION('',(0.,-1.,0.));
#636=VECTOR('',#635,21.429882997);
#637=LINE('',#634,#636);
#638=EDGE_CURVE('',#631,#633,#637,.T.);
#639=ORIENTED_EDGE('',*,*,#638,.F.);
#640=CARTESIAN_POINT('',(116.15,10.714941498,3.462132034));
#641=CARTESIAN_POINT('',(116.15,10.939872538,3.22941293));
#642=CARTESIAN_POINT('',(116.15,11.175049751,3.008536571));
#643=CARTESIAN_POINT('',(116.15,11.424639184,2.804318161));
#644=CARTESIAN_POINT('',(116.15,11.674228616,2.60009975));
#645=CARTESIAN_POINT('',(116.15,11.939249623,2.411633024));
#646=CARTESIAN_POINT('',(116.15,12.223511189,2.249999397));
#647=B_SPLINE_CURVE_WITH_KNOTS('',3,(#640,#641,#642,#643,#644,#645,#646),.UNSPECIFIED.,.F.,.F.,(4,3,4),(0.039307443,0.040264125,0.041220807),.UNSPECIFIED.);
#648=EDGE_CURVE('',#631,#608,#647,.T.);
#649=ORIENTED_EDGE('',*,*,#648,.T.);
#650=ORIENTED_EDGE('',*,*,#613,.T.);
#651=CARTESIAN_POINT('',(116.15,-12.22351151,2.249999998));
#652=CARTESIAN_POINT('',(116.15,-11.942480893,2.409796461));
#653=CARTESIAN_POINT('',(116.15,-11.679425924,2.596171662));
#654=CARTESIAN_POINT('',(116.15,-11.428796506,2.800919245));
#655=CARTESIAN_POINT('',(116.15,-11.178167088,3.005666827));
#656=CARTESIAN_POINT('',(116.15,-10.939071329,3.230241769));
#657=CARTESIAN_POINT('',(116.15,-10.714941434,3.462131992));
#658=B_SPLINE_CURVE_WITH_KNOTS('',3,(#651,#652,#653,#654,#655,#656,#657),.UNSPECIFIED.,.F.,.F.,(4,3,4),(0.026518303,0.027476149,0.028433995),.UNSPECIFIED.);
#659=EDGE_CURVE('',#599,#633,#658,.T.);
#660=ORIENTED_EDGE('',*,*,#659,.T.);
#661=EDGE_LOOP('',(#639,#649,#650,#660));
#662=FACE_BOUND('',#661,.T.);
#663=ADVANCED_FACE('',(#662),#629,.F.);
#664=CARTESIAN_POINT('',(114.9,14.,4.712132034));
#665=DIRECTION('',(0.707106781,0.,0.707106781));
#666=DIRECTION('',(0.707106781,0.,-0.707106781));
#667=AXIS2_PLACEMENT_3D('',#664,#665,#666);
#668=PLANE('',#667);
#669=CARTESIAN_POINT('',(113.65,4.180152016,5.962132034));
#670=VERTEX_POINT('',#669);
#671=CARTESIAN_POINT('',(113.65,-4.180152016,5.962132034));
#672=VERTEX_POINT('',#671);
#673=CARTESIAN_POINT('',(113.65,4.180152016,5.962132034));
#674=DIRECTION('',(0.,-1.,0.));
#675=VECTOR('',#674,8.360304033);
#676=LINE('',#673,#675);
#677=EDGE_CURVE('',#670,#672,#676,.T.);
#678=ORIENTED_EDGE('',*,*,#677,.F.);
#679=CARTESIAN_POINT('',(114.677507081,7.739973016,4.934624953));
#680=VERTEX_POINT('',#679);
#681=CARTESIAN_POINT('',(113.65,4.180152016,5.962132034));
#682=CARTESIAN_POINT('',(113.649997119,4.511392601,5.962134915));
#683=CARTESIAN_POINT('',(113.679132345,4.834462799,5.932999689));
#684=CARTESIAN_POINT('',(113.730757202,5.151226856,5.881374832));
#685=CARTESIAN_POINT('',(113.75656963,5.309608884,5.855562404));
#686=CARTESIAN_POINT('',(113.788087071,5.466391215,5.824044964));
#687=CARTESIAN_POINT('',(113.824849454,5.621702853,5.787282581));
#688=CARTESIAN_POINT('',(113.861611837,5.777014491,5.750520198));
#689=CARTESIAN_POINT('',(113.903827886,5.931407298,5.708304149));
#690=CARTESIAN_POINT('',(113.950069634,6.081706357,5.6620624));
#691=CARTESIAN_POINT('',(114.042553131,6.382304475,5.569578904));
#692=CARTESIAN_POINT('',(114.1514233,6.669100614,5.460708735));
#693=CARTESIAN_POINT('',(114.273449104,6.944816173,5.33868293));
#694=CARTESIAN_POINT('',(114.395474908,7.220531733,5.216657126));
#695=CARTESIAN_POINT('',(114.530720338,7.485112818,5.081411697));
#696=CARTESIAN_POINT('',(114.677507081,7.739973016,4.934624953));
#697=B_SPLINE_CURVE_WITH_KNOTS('',3,(#681,#682,#683,#684,#685,#686,#687,#688,#689,#690,#691,#692,#693,#694,#695,#696),.UNSPECIFIED.,.F.,.F.,(4,3,3,3,3,4),(0.,0.000974744,0.001462116,0.001949488,0.002924232,0.003898976),.UNSPECIFIED.);
#698=EDGE_CURVE('',#670,#680,#697,.T.);
#699=ORIENTED_EDGE('',*,*,#698,.T.);
#700=CARTESIAN_POINT('',(116.289545092,12.71327566,3.322586942));
#701=VERTEX_POINT('',#700);
#702=CARTESIAN_POINT('',(103.33252937,14.,16.279602664));
#703=DIRECTION('',(0.707106781,0.,0.707106781));
#704=DIRECTION('',(-0.707106781,0.,0.707106781));
#705=AXIS2_PLACEMENT_3D('',#702,#703,#704);
#706=ELLIPSE('',#705,18.418057106,12.747431671);
#707=EDGE_CURVE('',#680,#701,#706,.T.);
#708=ORIENTED_EDGE('',*,*,#707,.T.);
#709=CARTESIAN_POINT('',(116.289545092,12.71327566,3.322586942));
#710=CARTESIAN_POINT('',(116.255182787,12.381770877,3.356949248));
#711=CARTESIAN_POINT('',(116.219813857,12.050406681,3.392318177));
#712=CARTESIAN_POINT('',(116.193612079,11.717762187,3.418519956));
#713=CARTESIAN_POINT('',(116.1674103,11.385117694,3.444721734));
#714=CARTESIAN_POINT('',(116.15,11.05124537,3.462132034));
#715=CARTESIAN_POINT('',(116.15,10.714941499,3.462132034));
#716=B_SPLINE_CURVE_WITH_KNOTS('',3,(#709,#710,#711,#712,#713,#714,#715),.UNSPECIFIED.,.F.,.F.,(4,3,4),(0.,0.001004028,0.002008055),.UNSPECIFIED.);
#717=EDGE_CURVE('',#701,#631,#716,.T.);
#718=ORIENTED_EDGE('',*,*,#717,.T.);
#719=ORIENTED_EDGE('',*,*,#638,.T.);
#720=CARTESIAN_POINT('',(116.289545092,-12.71327566,3.322586942));
#721=VERTEX_POINT('',#720);
#722=CARTESIAN_POINT('',(116.15,-10.714941499,3.462132034));
#723=CARTESIAN_POINT('',(116.149999996,-11.05124537,3.462132038));
#724=CARTESIAN_POINT('',(116.1674103,-11.385117694,3.444721734));
#725=CARTESIAN_POINT('',(116.193612079,-11.717762187,3.418519956));
#726=CARTESIAN_POINT('',(116.219813857,-12.050406681,3.392318177));
#727=CARTESIAN_POINT('',(116.255182765,-12.38177088,3.35694927));
#728=CARTESIAN_POINT('',(116.289545092,-12.71327566,3.322586942));
#729=B_SPLINE_CURVE_WITH_KNOTS('',3,(#722,#723,#724,#725,#726,#727,#728),.UNSPECIFIED.,.F.,.F.,(4,3,4),(0.,0.001004028,0.002008055),.UNSPECIFIED.);
#730=EDGE_CURVE('',#633,#721,#729,.T.);
#731=ORIENTED_EDGE('',*,*,#730,.T.);
#732=CARTESIAN_POINT('',(114.677507081,-7.739973016,4.934624953));
#733=VERTEX_POINT('',#732);
#734=CARTESIAN_POINT('',(103.33252937,-14.,16.279602664));
#735=DIRECTION('',(0.707106781,0.,0.707106781));
#736=DIRECTION('',(-0.707106781,0.,0.707106781));
#737=AXIS2_PLACEMENT_3D('',#734,#735,#736);
#738=ELLIPSE('',#737,18.418057106,12.747431671);
#739=EDGE_CURVE('',#721,#733,#738,.T.);
#740=ORIENTED_EDGE('',*,*,#739,.T.);
#741=CARTESIAN_POINT('',(114.677507081,-7.739973016,4.934624953));
#742=CARTESIAN_POINT('',(114.530729991,-7.485129578,5.081402043));
#743=CARTESIAN_POINT('',(114.395738614,-7.220978876,5.21639342));
#744=CARTESIAN_POINT('',(114.274098985,-6.9462842,5.338033049));
#745=CARTESIAN_POINT('',(114.152459356,-6.671589524,5.459672678));
#746=CARTESIAN_POINT('',(114.044119682,-6.386391776,5.568012352));
#747=CARTESIAN_POINT('',(113.952102781,-6.088303815,5.660029253));
#748=CARTESIAN_POINT('',(113.906094331,-5.939259834,5.706037704));
#749=CARTESIAN_POINT('',(113.864197727,-5.786968697,5.747934308));
#750=CARTESIAN_POINT('',(113.827041141,-5.630934334,5.785090893));
#751=CARTESIAN_POINT('',(113.789884556,-5.47489997,5.822247479));
#752=CARTESIAN_POINT('',(113.757679303,-5.315681179,5.854452732));
#753=CARTESIAN_POINT('',(113.731521676,-5.15590703,5.880610358));
#754=CARTESIAN_POINT('',(113.679206423,-4.836358731,5.932925612));
#755=CARTESIAN_POINT('',(113.649997118,-4.511568797,5.962134916));
#756=CARTESIAN_POINT('',(113.65,-4.180152016,5.962132034));
#757=B_SPLINE_CURVE_WITH_KNOTS('',3,(#741,#742,#743,#744,#745,#746,#747,#748,#749,#750,#751,#752,#753,#754,#755,#756),.UNSPECIFIED.,.F.,.F.,(4,3,3,3,3,4),(0.,0.000971115,0.00194223,0.002427787,0.002913345,0.00388446),.UNSPECIFIED.);
#758=EDGE_CURVE('',#733,#672,#757,.T.);
#759=ORIENTED_EDGE('',*,*,#758,.T.);
#760=EDGE_LOOP('',(#678,#699,#708,#718,#719,#731,#740,#759));
#761=FACE_BOUND('',#760,.T.);
#762=ADVANCED_FACE('',(#761),#668,.F.);
#763=CARTESIAN_POINT('',(113.65,14.,6.181066017));
#764=DIRECTION('',(1.,0.,0.));
#765=DIRECTION('',(0.,0.,-1.));
#766=AXIS2_PLACEMENT_3D('',#763,#764,#765);
#767=PLANE('',#766);
#768=ORIENTED_EDGE('',*,*,#67,.F.);
#769=CARTESIAN_POINT('',(113.65,4.034566181,6.4));
#770=CARTESIAN_POINT('',(113.65,4.082893782,6.253986754));
#771=CARTESIAN_POINT('',(113.65,4.131375561,6.108017426));
#772=CARTESIAN_POINT('',(113.65,4.180107883,5.962119463));
#773=B_SPLINE_CURVE_WITH_KNOTS('',3,(#769,#770,#771,#772),.UNSPECIFIED.,.F.,.F.,(4,4),(0.025770478,0.026231478),.UNSPECIFIED.);
#774=EDGE_CURVE('',#44,#670,#773,.T.);
#775=ORIENTED_EDGE('',*,*,#774,.T.);
#776=ORIENTED_EDGE('',*,*,#677,.T.);
#777=CARTESIAN_POINT('',(113.65,-4.180107882,5.962119463));
#778=CARTESIAN_POINT('',(113.65,-4.13137556,6.108017425));
#779=CARTESIAN_POINT('',(113.65,-4.082893782,6.253986754));
#780=CARTESIAN_POINT('',(113.65,-4.034566181,6.4));
#781=B_SPLINE_CURVE_WITH_KNOTS('',3,(#777,#778,#779,#780),.UNSPECIFIED.,.F.,.F.,(4,4),(0.025770474,0.026231474),.UNSPECIFIED.);
#782=EDGE_CURVE('',#672,#62,#781,.T.);
#783=ORIENTED_EDGE('',*,*,#782,.T.);
#784=EDGE_LOOP('',(#768,#775,#776,#783));
#785=FACE_BOUND('',#784,.T.);
#786=ADVANCED_FACE('',(#785),#767,.F.);
#787=CARTESIAN_POINT('',(106.,-14.,2.25));
#788=DIRECTION('',(0.,0.,1.));
#789=DIRECTION('',(1.,0.,-0.));
#790=AXIS2_PLACEMENT_3D('',#787,#788,#789);
#791=CONICAL_SURFACE('',#790,10.15,11.575188817);
#792=ORIENTED_EDGE('',*,*,#739,.F.);
#793=CARTESIAN_POINT('',(116.289545092,-12.713275659,3.32258694));
#794=CARTESIAN_POINT('',(116.283948497,-12.810201574,3.23675317));
#795=CARTESIAN_POINT('',(116.278758651,-12.909973058,3.157561193));
#796=CARTESIAN_POINT('',(116.27410953,-13.013372253,3.086708278));
#797=CARTESIAN_POINT('',(116.269460408,-13.116771448,3.015855364));
#798=CARTESIAN_POINT('',(116.265361807,-13.22390916,2.953528881));
#799=CARTESIAN_POINT('',(116.262035631,-13.331830586,2.903088672));
#800=CARTESIAN_POINT('',(116.258709455,-13.439752012,2.852648463));
#801=CARTESIAN_POINT('',(116.256121827,-13.54925699,2.813517361));
#802=CARTESIAN_POINT('',(116.254365214,-13.660604753,2.786962481));
#803=CARTESIAN_POINT('',(116.252608602,-13.771952517,2.760407601));
#804=CARTESIAN_POINT('',(116.251688514,-13.886187224,2.746479262));
#805=CARTESIAN_POINT('',(116.251688512,-13.999999641,2.746479204));
#806=B_SPLINE_CURVE_WITH_KNOTS('',3,(#793,#794,#795,#796,#797,#798,#799,#800,#801,#802,#803,#804,#805),.UNSPECIFIED.,.F.,.F.,(4,3,3,3,4),(0.028298665,0.028790338,0.02928201,0.029773683,0.030265355),.UNSPECIFIED.);
#807=EDGE_CURVE('',#721,#266,#806,.T.);
#808=ORIENTED_EDGE('',*,*,#807,.T.);
#809=ORIENTED_EDGE('',*,*,#271,.T.);
#810=ORIENTED_EDGE('',*,*,#94,.T.);
#811=CARTESIAN_POINT('',(114.752496706,-7.337134515,6.399994464));
#812=CARTESIAN_POINT('',(114.727921391,-7.470350899,5.910561097));
#813=CARTESIAN_POINT('',(114.702932947,-7.604574781,5.42205873));
#814=CARTESIAN_POINT('',(114.677507077,-7.739973012,4.934624949));
#815=B_SPLINE_CURVE_WITH_KNOTS('',3,(#811,#812,#813,#814),.UNSPECIFIED.,.F.,.F.,(4,4),(0.026827314,0.028375676),.UNSPECIFIED.);
#816=EDGE_CURVE('',#70,#733,#815,.T.);
#817=ORIENTED_EDGE('',*,*,#816,.T.);
#818=EDGE_LOOP('',(#792,#808,#809,#810,#817));
#819=FACE_BOUND('',#818,.T.);
#820=ADVANCED_FACE('',(#819),#791,.F.);
#821=CARTESIAN_POINT('',(106.,-14.,2.25));
#822=DIRECTION('',(0.,0.,1.));
#823=DIRECTION('',(1.,0.,-0.));
#824=AXIS2_PLACEMENT_3D('',#821,#822,#823);
#825=CONICAL_SURFACE('',#824,10.15,11.575188817);
#826=ORIENTED_EDGE('',*,*,#502,.T.);
#827=CARTESIAN_POINT('',(97.322492923,-7.739973012,4.934624949));
#828=CARTESIAN_POINT('',(97.297067053,-7.604574781,5.42205873));
#829=CARTESIAN_POINT('',(97.272078609,-7.470351027,5.91056114));
#830=CARTESIAN_POINT('',(97.247503294,-7.337134515,6.399994464));
#831=B_SPLINE_CURVE_WITH_KNOTS('',3,(#827,#828,#829,#830),.UNSPECIFIED.,.F.,.F.,(4,4),(0.026827314,0.028375676),.UNSPECIFIED.);
#832=EDGE_CURVE('',#475,#366,#831,.T.);
#833=ORIENTED_EDGE('',*,*,#832,.T.);
#834=ORIENTED_EDGE('',*,*,#372,.T.);
#835=ORIENTED_EDGE('',*,*,#232,.T.);
#836=CARTESIAN_POINT('',(95.748311488,-13.999999641,2.746479204));
#837=CARTESIAN_POINT('',(95.748311486,-13.886187224,2.746479233));
#838=CARTESIAN_POINT('',(95.747391398,-13.771952493,2.760407456));
#839=CARTESIAN_POINT('',(95.745634786,-13.660604753,2.786962481));
#840=CARTESIAN_POINT('',(95.743878173,-13.549257013,2.813517505));
#841=CARTESIAN_POINT('',(95.741290545,-13.439751978,2.852648358));
#842=CARTESIAN_POINT('',(95.737964369,-13.331830586,2.903088672));
#843=CARTESIAN_POINT('',(95.734638193,-13.223909193,2.953528987));
#844=CARTESIAN_POINT('',(95.730539592,-13.116771833,3.015856189));
#845=CARTESIAN_POINT('',(95.72589047,-13.013372253,3.086708278));
#846=CARTESIAN_POINT('',(95.721241349,-12.909972672,3.157560368));
#847=CARTESIAN_POINT('',(95.716051503,-12.810201574,3.23675317));
#848=CARTESIAN_POINT('',(95.710454908,-12.713275659,3.32258694));
#849=B_SPLINE_CURVE_WITH_KNOTS('',3,(#836,#837,#838,#839,#840,#841,#842,#843,#844,#845,#846,#847,#848),.UNSPECIFIED.,.F.,.F.,(4,3,3,3,4),(0.028298665,0.028790338,0.02928201,0.029773683,0.030265355),.UNSPECIFIED.);
#850=EDGE_CURVE('',#218,#496,#849,.T.);
#851=ORIENTED_EDGE('',*,*,#850,.T.);
#852=EDGE_LOOP('',(#826,#833,#834,#835,#851));
#853=FACE_BOUND('',#852,.T.);
#854=ADVANCED_FACE('',(#853),#825,.F.);
#855=CARTESIAN_POINT('',(106.,14.,2.25));
#856=DIRECTION('',(0.,0.,1.));
#857=DIRECTION('',(1.,0.,-0.));
#858=AXIS2_PLACEMENT_3D('',#855,#856,#857);
#859=CONICAL_SURFACE('',#858,10.15,11.575188817);
#860=ORIENTED_EDGE('',*,*,#158,.T.);
#861=CARTESIAN_POINT('',(116.251688129,13.999998428,2.746477334));
#862=CARTESIAN_POINT('',(116.251688137,13.887458548,2.746477583));
#863=CARTESIAN_POINT('',(116.252598375,13.772941486,2.760235211));
#864=CARTESIAN_POINT('',(116.254355872,13.661307661,2.786803488));
#865=CARTESIAN_POINT('',(116.256113369,13.549673836,2.813371765));
#866=CARTESIAN_POINT('',(116.258693326,13.440337113,2.852440889));
#867=CARTESIAN_POINT('',(116.261997736,13.332946357,2.902550392));
#868=CARTESIAN_POINT('',(116.268606556,13.118164844,3.002769397));
#869=CARTESIAN_POINT('',(116.278195105,12.909837821,3.148517668));
#870=CARTESIAN_POINT('',(116.289544825,12.71327519,3.322585929));
#871=B_SPLINE_CURVE_WITH_KNOTS('',3,(#861,#862,#863,#864,#865,#866,#867,#868,#869,#870),.UNSPECIFIED.,.F.,.F.,(4,3,3,4),(0.041087358,0.04157877,0.042070182,0.043053005),.UNSPECIFIED.);
#872=EDGE_CURVE('',#146,#701,#871,.T.);
#873=ORIENTED_EDGE('',*,*,#872,.T.);
#874=ORIENTED_EDGE('',*,*,#707,.F.);
#875=CARTESIAN_POINT('',(114.677507077,7.739973012,4.934624949));
#876=CARTESIAN_POINT('',(114.702932947,7.604574781,5.42205873));
#877=CARTESIAN_POINT('',(114.727921391,7.470350898,5.910561097));
#878=CARTESIAN_POINT('',(114.752496705,7.337134515,6.399994464));
#879=B_SPLINE_CURVE_WITH_KNOTS('',3,(#875,#876,#877,#878),.UNSPECIFIED.,.F.,.F.,(4,4),(0.026827318,0.02837568),.UNSPECIFIED.);
#880=EDGE_CURVE('',#680,#33,#879,.T.);
#881=ORIENTED_EDGE('',*,*,#880,.T.);
#882=ORIENTED_EDGE('',*,*,#41,.T.);
#883=EDGE_LOOP('',(#860,#873,#874,#881,#882));
#884=FACE_BOUND('',#883,.T.);
#885=ADVANCED_FACE('',(#884),#859,.F.);
#886=CARTESIAN_POINT('',(106.,14.,2.25));
#887=DIRECTION('',(0.,0.,1.));
#888=DIRECTION('',(1.,0.,-0.));
#889=AXIS2_PLACEMENT_3D('',#886,#887,#888);
#890=CONICAL_SURFACE('',#889,10.15,11.575188817);
#891=ORIENTED_EDGE('',*,*,#452,.T.);
#892=CARTESIAN_POINT('',(95.710455175,12.71327519,3.322585929));
#893=CARTESIAN_POINT('',(95.721804895,12.909837851,3.148517717));
#894=CARTESIAN_POINT('',(95.731393444,13.11816486,3.002769449));
#895=CARTESIAN_POINT('',(95.738002264,13.332946357,2.902550392));
#896=CARTESIAN_POINT('',(95.741306674,13.440337105,2.852440863));
#897=CARTESIAN_POINT('',(95.743886631,13.549673837,2.813371771));
#898=CARTESIAN_POINT('',(95.745644128,13.661307661,2.786803488));
#899=CARTESIAN_POINT('',(95.747401625,13.772941485,2.760235205));
#900=CARTESIAN_POINT('',(95.748311863,13.887458548,2.746477458));
#901=CARTESIAN_POINT('',(95.748311871,13.999998428,2.746477334));
#902=B_SPLINE_CURVE_WITH_KNOTS('',3,(#892,#893,#894,#895,#896,#897,#898,#899,#900,#901),.UNSPECIFIED.,.F.,.F.,(4,3,3,4),(0.041087358,0.042070182,0.042561593,0.043053005),.UNSPECIFIED.);
#903=EDGE_CURVE('',#446,#127,#902,.T.);
#904=ORIENTED_EDGE('',*,*,#903,.T.);
#905=ORIENTED_EDGE('',*,*,#197,.T.);
#906=ORIENTED_EDGE('',*,*,#360,.T.);
#907=CARTESIAN_POINT('',(97.247503295,7.337134515,6.399994464));
#908=CARTESIAN_POINT('',(97.272078609,7.470351027,5.91056114));
#909=CARTESIAN_POINT('',(97.297067053,7.604574781,5.42205873));
#910=CARTESIAN_POINT('',(97.322492923,7.739973012,4.934624949));
#911=B_SPLINE_CURVE_WITH_KNOTS('',3,(#907,#908,#909,#910),.UNSPECIFIED.,.F.,.F.,(4,4),(0.026827318,0.02837568),.UNSPECIFIED.);
#912=EDGE_CURVE('',#338,#444,#911,.T.);
#913=ORIENTED_EDGE('',*,*,#912,.T.);
#914=EDGE_LOOP('',(#891,#904,#905,#906,#913));
#915=FACE_BOUND('',#914,.T.);
#916=ADVANCED_FACE('',(#915),#890,.F.);
#917=CARTESIAN_POINT('',(95.85,10.714902685,3.46209452));
#918=CARTESIAN_POINT('',(95.85,11.065905752,3.80134703));
#919=CARTESIAN_POINT('',(95.778006445,11.416865942,4.1405581));
#920=CARTESIAN_POINT('',(95.637068181,11.752920866,4.465363071));
#921=CARTESIAN_POINT('',(95.85,10.856908071,3.315151125));
#922=CARTESIAN_POINT('',(95.85,11.193197806,3.654189169));
#923=CARTESIAN_POINT('',(95.781193548,11.529450223,3.993189433));
#924=CARTESIAN_POINT('',(95.646362224,11.852070795,4.318419675));
#925=CARTESIAN_POINT('',(95.85,11.003097721,3.17304399));
#926=CARTESIAN_POINT('',(95.850000001,11.324154318,3.511873869));
#927=CARTESIAN_POINT('',(95.784288345,11.645178397,3.850669285));
#928=CARTESIAN_POINT('',(95.655404222,11.953767373,4.176312541));
#929=CARTESIAN_POINT('',(95.85,11.416481006,2.800457723));
#930=CARTESIAN_POINT('',(95.850000001,11.694218193,3.138740067));
#931=CARTESIAN_POINT('',(95.792431687,11.971934196,3.476996108));
#932=CARTESIAN_POINT('',(95.679236904,12.240268978,3.803726274));
#933=CARTESIAN_POINT('',(95.85,11.693544401,2.581386268));
#934=CARTESIAN_POINT('',(95.85,11.941987763,2.919344651));
#935=CARTESIAN_POINT('',(95.797253444,12.190415172,3.257280913));
#936=CARTESIAN_POINT('',(95.693395033,12.431157187,3.584654819));
#937=CARTESIAN_POINT('',(95.85,12.293844416,2.196611351));
#938=CARTESIAN_POINT('',(95.85,12.478277861,2.533998323));
#939=CARTESIAN_POINT('',(95.805762382,12.662703128,2.871369771));
#940=CARTESIAN_POINT('',(95.718436564,12.842363778,3.199879902));
#941=CARTESIAN_POINT('',(95.85,12.617751008,2.03246456));
#942=CARTESIAN_POINT('',(95.85,12.767384051,2.369606384));
#943=CARTESIAN_POINT('',(95.809415326,12.917011427,2.706735067));
#944=CARTESIAN_POINT('',(95.729219495,13.06308383,3.035733111));
#945=CARTESIAN_POINT('',(95.85,13.120934066,1.863120726));
#946=CARTESIAN_POINT('',(95.85,13.216227443,2.200009137));
#947=CARTESIAN_POINT('',(95.813192287,13.311517796,2.536886708));
#948=CARTESIAN_POINT('',(95.740380556,13.404735449,2.866389277));
#949=CARTESIAN_POINT('',(95.85,13.292121574,1.818979257));
#950=CARTESIAN_POINT('',(95.85,13.368886097,2.1558015));
#951=CARTESIAN_POINT('',(95.814178668,13.445648299,2.492613468));
#952=CARTESIAN_POINT('',(95.743298019,13.520782183,2.822247808));
#953=CARTESIAN_POINT('',(95.85,13.642419202,1.758876799));
#954=CARTESIAN_POINT('',(95.85,13.681220042,2.095608909));
#955=CARTESIAN_POINT('',(95.815522356,13.720019807,2.432331501));
#956=CARTESIAN_POINT('',(95.747273229,13.758031017,2.762145349));
#957=CARTESIAN_POINT('',(95.849999974,13.822797688,1.743208781));
#958=CARTESIAN_POINT('',(95.850000216,13.842025348,2.079917395));
#959=CARTESIAN_POINT('',(95.815873448,13.861252474,2.416616704));
#960=CARTESIAN_POINT('',(95.748311863,13.880089082,2.746477467));
#961=CARTESIAN_POINT('',(95.85,14.000000358,1.743208783));
#962=CARTESIAN_POINT('',(95.850000234,13.999999713,2.079917353));
#963=CARTESIAN_POINT('',(95.815873461,13.999999065,2.416616617));
#964=CARTESIAN_POINT('',(95.748311871,13.999998428,2.746477334));
#965=B_SPLINE_SURFACE_WITH_KNOTS('',3,3,((#917,#918,#919,#920),(#921,#922,#923,#924),(#925,#926,#927,#928),(#929,#930,#931,#932),(#933,#934,#935,#936),(#937,#938,#939,#940),(#941,#942,#943,#944),(#945,#946,#947,#948),(#949,#950,#951,#952),(#953,#954,#955,#956),(#957,#958,#959,#960),(#961,#962,#963,#964)),.UNSPECIFIED.,.F.,.F.,.U.,(4,2,2,2,2,4),(4,4),(0.039307438,0.03991146,0.040958642,0.042005823,0.042529414,0.043053005),(0.,1.),.UNSPECIFIED.);
#966=ORIENTED_EDGE('',*,*,#532,.F.);
#967=ORIENTED_EDGE('',*,*,#560,.F.);
#968=ORIENTED_EDGE('',*,*,#587,.F.);
#969=ORIENTED_EDGE('',*,*,#135,.F.);
#970=ORIENTED_EDGE('',*,*,#903,.F.);
#971=EDGE_LOOP('',(#966,#967,#968,#969,#970));
#972=FACE_BOUND('',#971,.T.);
#973=ADVANCED_FACE('',(#972),#965,.T.);
#974=CARTESIAN_POINT('',(98.35,4.034533876,6.399989307));
#975=CARTESIAN_POINT('',(98.350000003,4.308523978,6.490674395));
#976=CARTESIAN_POINT('',(98.324949656,4.58250998,6.581358126));
#977=CARTESIAN_POINT('',(98.225496047,5.122294981,6.760015834));
#978=CARTESIAN_POINT('',(98.151094273,5.388085902,6.847987138));
#979=CARTESIAN_POINT('',(97.955161778,5.903530417,7.018588572));
#980=CARTESIAN_POINT('',(97.833633989,6.153176299,7.101216151));
#981=CARTESIAN_POINT('',(97.547083087,6.628863096,7.258658476));
#982=CARTESIAN_POINT('',(97.382064263,6.854896893,7.333470868));
#983=CARTESIAN_POINT('',(97.197765076,7.065747413,7.403257858));
#984=CARTESIAN_POINT('',(98.35,4.156147171,6.032600535));
#985=CARTESIAN_POINT('',(98.350000001,4.427705623,6.12316377));
#986=CARTESIAN_POINT('',(98.325357965,4.699260145,6.213725693));
#987=CARTESIAN_POINT('',(98.22751331,5.234387463,6.39218733));
#988=CARTESIAN_POINT('',(98.154312108,5.497952514,6.480084461));
#989=CARTESIAN_POINT('',(97.96150116,6.009346073,6.650629996));
#990=CARTESIAN_POINT('',(97.841894204,6.25716718,6.733275931));
#991=CARTESIAN_POINT('',(97.559789037,6.729780902,6.890886962));
#992=CARTESIAN_POINT('',(97.397294907,6.954566675,6.965849775));
#993=CARTESIAN_POINT('',(97.215744698,7.164530903,7.035869086));
#994=CARTESIAN_POINT('',(98.35,4.279012189,5.665593223));
#995=CARTESIAN_POINT('',(98.35,4.548079614,5.756033614));
#996=CARTESIAN_POINT('',(98.325770703,4.817143274,5.846472739));
#997=CARTESIAN_POINT('',(98.229553041,5.347493857,6.024736667));
#998=CARTESIAN_POINT('',(98.157566022,5.608773359,6.112558974));
#999=CARTESIAN_POINT('',(97.967913964,6.115996282,6.283048036));
#1000=CARTESIAN_POINT('',(97.850251578,6.361932605,6.365712403));
#1001=CARTESIAN_POINT('',(97.572651169,6.831353377,6.523493482));
#1002=CARTESIAN_POINT('',(97.412717029,7.054831257,6.598607985));
#1003=CARTESIAN_POINT('',(97.233957735,7.263849989,6.668861773));
#1004=CARTESIAN_POINT('',(98.35,4.5580213,4.842273918));
#1005=CARTESIAN_POINT('',(98.35,4.821350012,4.932436166));
#1006=CARTESIAN_POINT('',(98.32670785,5.084675319,5.022597248));
#1007=CARTESIAN_POINT('',(98.234185752,5.604008568,5.200413411));
#1008=CARTESIAN_POINT('',(98.164956999,5.860009795,5.288066192));
#1009=CARTESIAN_POINT('',(97.982485619,6.357574131,5.458427102));
#1010=CARTESIAN_POINT('',(97.86924535,6.599130806,5.541133027));
#1011=CARTESIAN_POINT('',(97.601898813,7.061086665,5.699299068));
#1012=CARTESIAN_POINT('',(97.447796,7.281479874,5.774757139));
#1013=CARTESIAN_POINT('',(97.275402357,7.488228742,5.845542469));
#1014=CARTESIAN_POINT('',(98.35,4.714840796,4.386324827));
#1015=CARTESIAN_POINT('',(98.350000001,4.974888462,4.476331265));
#1016=CARTESIAN_POINT('',(98.327234622,5.234932915,4.566336591));
#1017=CARTESIAN_POINT('',(98.236790747,5.747958531,4.743901849));
#1018=CARTESIAN_POINT('',(98.169113368,6.000933357,4.831459586));
#1019=CARTESIAN_POINT('',(97.990683884,6.492941933,5.001748514));
#1020=CARTESIAN_POINT('',(97.879933982,6.731969606,5.084477598));
#1021=CARTESIAN_POINT('',(97.618368639,7.189584906,5.242859246));
#1022=CARTESIAN_POINT('',(97.467556429,7.40816688,5.318509851));
#1023=CARTESIAN_POINT('',(97.298760569,7.613557057,5.389593378));
#1024=CARTESIAN_POINT('',(98.349999999,4.87409499,3.931322177));
#1025=CARTESIAN_POINT('',(98.350000002,5.130748171,4.021171309));
#1026=CARTESIAN_POINT('',(98.327768362,5.387398325,4.111019382));
#1027=CARTESIAN_POINT('',(98.239431226,5.89388812,4.288331246));
#1028=CARTESIAN_POINT('',(98.173326772,6.143721787,4.375792947));
#1029=CARTESIAN_POINT('',(97.998998722,6.629942932,4.546008994));
#1030=CARTESIAN_POINT('',(97.890777182,6.866324675,4.628761333));
#1031=CARTESIAN_POINT('',(97.635088353,7.319363437,4.787360611));
#1032=CARTESIAN_POINT('',(97.48762408,7.536015112,4.86320568));
#1033=CARTESIAN_POINT('',(97.322494806,7.739927108,4.934590729));
#1034=B_SPLINE_SURFACE_WITH_KNOTS('',3,3,((#974,#975,#976,#977,#978,#979,#980,#981,#982,#983),(#984,#985,#986,#987,#988,#989,#990,#991,#992,#993),(#994,#995,#996,#997,#998,#999,#1000,#1001,#1002,#1003),(#1004,#1005,#1006,#1007,#1008,#1009,#1010,#1011,#1012,#1013),(#1014,#1015,#1016,#1017,#1018,#1019,#1020,#1021,#1022,#1023),(#1024,#1025,#1026,#1027,#1028,#1029,#1030,#1031,#1032,#1033)),.UNSPECIFIED.,.F.,.F.,.U.,(4,2,4),(4,2,2,2,4),(0.025770382,0.026930375,0.02837568),(0.,0.25,0.5,0.75,1.),.UNSPECIFIED.);
#1035=ORIENTED_EDGE('',*,*,#353,.F.);
#1036=ORIENTED_EDGE('',*,*,#425,.F.);
#1037=ORIENTED_EDGE('',*,*,#471,.F.);
#1038=ORIENTED_EDGE('',*,*,#912,.F.);
#1039=EDGE_LOOP('',(#1035,#1036,#1037,#1038));
#1040=FACE_BOUND('',#1039,.T.);
#1041=ADVANCED_FACE('',(#1040),#1034,.T.);
#1042=CARTESIAN_POINT('',(116.362931819,11.752920866,4.465363071));
#1043=CARTESIAN_POINT('',(116.221993555,11.416865942,4.140558099));
#1044=CARTESIAN_POINT('',(116.15,11.065905752,3.80134703));
#1045=CARTESIAN_POINT('',(116.15,10.714902685,3.46209452));
#1046=CARTESIAN_POINT('',(116.353637776,11.852070795,4.318419675));
#1047=CARTESIAN_POINT('',(116.218806452,11.529450223,3.993189433));
#1048=CARTESIAN_POINT('',(116.15,11.193197806,3.654189168));
#1049=CARTESIAN_POINT('',(116.15,10.856908071,3.315151125));
#1050=CARTESIAN_POINT('',(116.344595778,11.953767373,4.176312541));
#1051=CARTESIAN_POINT('',(116.215711655,11.645178397,3.850669285));
#1052=CARTESIAN_POINT('',(116.149999999,11.324154319,3.511873869));
#1053=CARTESIAN_POINT('',(116.15,11.003097721,3.17304399));
#1054=CARTESIAN_POINT('',(116.320763096,12.240268978,3.803726273));
#1055=CARTESIAN_POINT('',(116.207568313,11.971934196,3.476996107));
#1056=CARTESIAN_POINT('',(116.149999999,11.694218193,3.138740067));
#1057=CARTESIAN_POINT('',(116.15,11.416481006,2.800457723));
#1058=CARTESIAN_POINT('',(116.306604967,12.431157187,3.584654819));
#1059=CARTESIAN_POINT('',(116.202746556,12.190415172,3.257280913));
#1060=CARTESIAN_POINT('',(116.15,11.941987763,2.919344651));
#1061=CARTESIAN_POINT('',(116.15,11.693544401,2.581386268));
#1062=CARTESIAN_POINT('',(116.281563436,12.842363778,3.199879902));
#1063=CARTESIAN_POINT('',(116.194237618,12.662703128,2.871369771));
#1064=CARTESIAN_POINT('',(116.15,12.478277861,2.533998323));
#1065=CARTESIAN_POINT('',(116.15,12.293844416,2.196611351));
#1066=CARTESIAN_POINT('',(116.270780505,13.06308383,3.035733111));
#1067=CARTESIAN_POINT('',(116.190584674,12.917011427,2.706735067));
#1068=CARTESIAN_POINT('',(116.15,12.767384051,2.369606384));
#1069=CARTESIAN_POINT('',(116.15,12.617751008,2.03246456));
#1070=CARTESIAN_POINT('',(116.259619444,13.404735449,2.866389277));
#1071=CARTESIAN_POINT('',(116.186807713,13.311517796,2.536886708));
#1072=CARTESIAN_POINT('',(116.15,13.216227443,2.200009137));
#1073=CARTESIAN_POINT('',(116.15,13.120934066,1.863120726));
#1074=CARTESIAN_POINT('',(116.256701981,13.520782183,2.822247808));
#1075=CARTESIAN_POINT('',(116.185821332,13.445648299,2.492613468));
#1076=CARTESIAN_POINT('',(116.15,13.368886097,2.1558015));
#1077=CARTESIAN_POINT('',(116.15,13.292121574,1.818979257));
#1078=CARTESIAN_POINT('',(116.252726771,13.758031017,2.762145349));
#1079=CARTESIAN_POINT('',(116.184477644,13.720019807,2.432331501));
#1080=CARTESIAN_POINT('',(116.15,13.681220042,2.095608909));
#1081=CARTESIAN_POINT('',(116.15,13.642419202,1.758876799));
#1082=CARTESIAN_POINT('',(116.251688137,13.880089082,2.746477599));
#1083=CARTESIAN_POINT('',(116.184126543,13.861252474,2.416616839));
#1084=CARTESIAN_POINT('',(116.149999767,13.842025348,2.07991753));
#1085=CARTESIAN_POINT('',(116.15,13.822797688,1.743208916));
#1086=CARTESIAN_POINT('',(116.251688129,13.999998428,2.746477334));
#1087=CARTESIAN_POINT('',(116.184126539,13.999999065,2.416616617));
#1088=CARTESIAN_POINT('',(116.149999766,13.999999713,2.079917353));
#1089=CARTESIAN_POINT('',(116.15,14.000000358,1.743208783));
#1090=B_SPLINE_SURFACE_WITH_KNOTS('',3,3,((#1042,#1043,#1044,#1045),(#1046,#1047,#1048,#1049),(#1050,#1051,#1052,#1053),(#1054,#1055,#1056,#1057),(#1058,#1059,#1060,#1061),(#1062,#1063,#1064,#1065),(#1066,#1067,#1068,#1069),(#1070,#1071,#1072,#1073),(#1074,#1075,#1076,#1077),(#1078,#1079,#1080,#1081),(#1082,#1083,#1084,#1085),(#1086,#1087,#1088,#1089)),.UNSPECIFIED.,.F.,.F.,.U.,(4,2,2,2,2,4),(4,4),(0.039307438,0.03991146,0.040958642,0.042005823,0.042529414,0.043053005),(0.,1.),.UNSPECIFIED.);
#1091=ORIENTED_EDGE('',*,*,#717,.F.);
#1092=ORIENTED_EDGE('',*,*,#872,.F.);
#1093=ORIENTED_EDGE('',*,*,#152,.F.);
#1094=ORIENTED_EDGE('',*,*,#620,.F.);
#1095=ORIENTED_EDGE('',*,*,#648,.F.);
#1096=EDGE_LOOP('',(#1091,#1092,#1093,#1094,#1095));
#1097=FACE_BOUND('',#1096,.T.);
#1098=ADVANCED_FACE('',(#1097),#1090,.T.);
#1099=CARTESIAN_POINT('',(97.197765087,-7.065747011,7.403257594));
#1100=CARTESIAN_POINT('',(97.382064273,-6.854896453,7.333470604));
#1101=CARTESIAN_POINT('',(97.547083096,-6.628862619,7.258658212));
#1102=CARTESIAN_POINT('',(97.833633995,-6.153175752,7.101215886));
#1103=CARTESIAN_POINT('',(97.955161783,-5.903529838,7.018588308));
#1104=CARTESIAN_POINT('',(98.151094276,-5.388085258,6.847986873));
#1105=CARTESIAN_POINT('',(98.225496049,-5.122294306,6.76001557));
#1106=CARTESIAN_POINT('',(98.324949656,-4.582509244,6.581357863));
#1107=CARTESIAN_POINT('',(98.350000003,-4.308523212,6.490674132));
#1108=CARTESIAN_POINT('',(98.35,-4.034533079,6.399989044));
#1109=CARTESIAN_POINT('',(97.215987916,-7.165866755,7.030899164));
#1110=CARTESIAN_POINT('',(97.39750094,-6.955914478,6.96087671));
#1111=CARTESIAN_POINT('',(97.559960917,-6.731145551,6.885911862));
#1112=CARTESIAN_POINT('',(97.842005945,-6.258573331,6.728298549));
#1113=CARTESIAN_POINT('',(97.961586917,-6.010776875,6.645652365));
#1114=CARTESIAN_POINT('',(98.154355638,-5.499438049,6.475107586));
#1115=CARTESIAN_POINT('',(98.227540599,-5.235903077,6.387211459));
#1116=CARTESIAN_POINT('',(98.325363488,-4.700838704,6.208752474));
#1117=CARTESIAN_POINT('',(98.350000001,-4.429317043,6.118192199));
#1118=CARTESIAN_POINT('',(98.35,-4.157791455,6.027630613));
#1119=CARTESIAN_POINT('',(97.234450478,-7.266536563,6.658933445));
#1120=CARTESIAN_POINT('',(97.413134265,-7.057543393,6.588673313));
#1121=CARTESIAN_POINT('',(97.572999145,-6.834100878,6.513554706));
#1122=CARTESIAN_POINT('',(97.850477681,-6.364766453,6.355769026));
#1123=CARTESIAN_POINT('',(97.968087458,-6.118881104,6.27310416));
#1124=CARTESIAN_POINT('',(98.157654054,-5.61177098,6.102616627));
#1125=CARTESIAN_POINT('',(98.229608224,-5.350553295,6.014796344));
#1126=CARTESIAN_POINT('',(98.325781869,-4.820331909,5.836537764));
#1127=CARTESIAN_POINT('',(98.35,-4.551335621,5.746101961));
#1128=CARTESIAN_POINT('',(98.35,-4.282335572,5.655664894));
#1129=CARTESIAN_POINT('',(97.27590946,-7.490950335,5.835644847));
#1130=CARTESIAN_POINT('',(97.448224994,-7.284231039,5.764853044));
#1131=CARTESIAN_POINT('',(97.602256367,-7.063877223,5.689390793));
#1132=CARTESIAN_POINT('',(97.869477395,-6.602015736,5.531220071));
#1133=CARTESIAN_POINT('',(97.982663599,-6.360514031,5.448513644));
#1134=CARTESIAN_POINT('',(98.165047231,-5.863070439,5.278154297));
#1135=CARTESIAN_POINT('',(98.234242305,-5.607134978,5.190503579));
#1136=CARTESIAN_POINT('',(98.326719286,-5.087938791,5.012692863));
#1137=CARTESIAN_POINT('',(98.35,-4.824684772,4.922535162));
#1138=CARTESIAN_POINT('',(98.35,-4.561427353,4.832376296));
#1139=CARTESIAN_POINT('',(97.299018178,-7.614929204,5.384654866));
#1140=CARTESIAN_POINT('',(97.46777424,-7.409555113,5.313568067));
#1141=CARTESIAN_POINT('',(97.618550112,-7.190994131,5.237915351));
#1142=CARTESIAN_POINT('',(97.880051672,-6.733428582,5.079531341));
#1143=CARTESIAN_POINT('',(97.990774132,-6.494429667,4.996802004));
#1144=CARTESIAN_POINT('',(98.1691591,-6.002483981,4.826513868));
#1145=CARTESIAN_POINT('',(98.236819406,-5.749543285,4.738957173));
#1146=CARTESIAN_POINT('',(98.327240415,-5.23658868,4.561394665));
#1147=CARTESIAN_POINT('',(98.350000001,-4.976581103,4.471391046));
#1148=CARTESIAN_POINT('',(98.35,-4.716570317,4.381386315));
#1149=CARTESIAN_POINT('',(97.32249481,-7.739927082,4.934590717));
#1150=CARTESIAN_POINT('',(97.487624083,-7.536015087,4.863205669));
#1151=CARTESIAN_POINT('',(97.635088356,-7.319363412,4.7873606));
#1152=CARTESIAN_POINT('',(97.890777184,-6.86632465,4.628761322));
#1153=CARTESIAN_POINT('',(97.998998723,-6.629942906,4.546008983));
#1154=CARTESIAN_POINT('',(98.173326773,-6.14372176,4.375792935));
#1155=CARTESIAN_POINT('',(98.239431227,-5.893888093,4.288331235));
#1156=CARTESIAN_POINT('',(98.327768362,-5.387398297,4.111019371));
#1157=CARTESIAN_POINT('',(98.350000002,-5.130748143,4.021171298));
#1158=CARTESIAN_POINT('',(98.349999999,-4.874094961,3.931322166));
#1159=B_SPLINE_SURFACE_WITH_KNOTS('',3,3,((#1099,#1100,#1101,#1102,#1103,#1104,#1105,#1106,#1107,#1108),(#1109,#1110,#1111,#1112,#1113,#1114,#1115,#1116,#1117,#1118),(#1119,#1120,#1121,#1122,#1123,#1124,#1125,#1126,#1127,#1128),(#1129,#1130,#1131,#1132,#1133,#1134,#1135,#1136,#1137,#1138),(#1139,#1140,#1141,#1142,#1143,#1144,#1145,#1146,#1147,#1148),(#1149,#1150,#1151,#1152,#1153,#1154,#1155,#1156,#1157,#1158)),.UNSPECIFIED.,.F.,.F.,.U.,(4,2,4),(4,2,2,2,4),(0.025770374,0.02694606,0.028375676),(0.,0.25,0.5,0.75,1.),.UNSPECIFIED.);
#1160=ORIENTED_EDGE('',*,*,#493,.F.);
#1161=ORIENTED_EDGE('',*,*,#433,.F.);
#1162=ORIENTED_EDGE('',*,*,#388,.F.);
#1163=ORIENTED_EDGE('',*,*,#832,.F.);
#1164=EDGE_LOOP('',(#1160,#1161,#1162,#1163));
#1165=FACE_BOUND('',#1164,.T.);
#1166=ADVANCED_FACE('',(#1165),#1159,.T.);
#1167=CARTESIAN_POINT('',(95.637066099,-11.752938961,4.465392248));
#1168=CARTESIAN_POINT('',(95.707535942,-11.584912787,4.302989809));
#1169=CARTESIAN_POINT('',(95.760863947,-11.413171044,4.136996156));
#1170=CARTESIAN_POINT('',(95.832096254,-11.065927829,3.801374955));
#1171=CARTESIAN_POINT('',(95.850000011,-10.890429015,3.631749976));
#1172=CARTESIAN_POINT('',(95.850000001,-10.714928858,3.462123699));
#1173=CARTESIAN_POINT('',(95.642885284,-11.815025213,4.373387127));
#1174=CARTESIAN_POINT('',(95.711443286,-11.651205247,4.210851552));
#1175=CARTESIAN_POINT('',(95.763311325,-11.483868192,4.044823757));
#1176=CARTESIAN_POINT('',(95.832589935,-11.145636415,3.709235624));
#1177=CARTESIAN_POINT('',(95.850000006,-10.974744136,3.539677715));
#1178=CARTESIAN_POINT('',(95.850000001,-10.803850624,3.370118578));
#1179=CARTESIAN_POINT('',(95.648637367,-11.878442077,4.282777631));
#1180=CARTESIAN_POINT('',(95.715304419,-11.718967934,4.120110598));
#1181=CARTESIAN_POINT('',(95.765729536,-11.556168793,3.954049126));
#1182=CARTESIAN_POINT('',(95.833077557,-11.227208233,3.618493653));
#1183=CARTESIAN_POINT('',(95.85,-11.06104906,3.449001946));
#1184=CARTESIAN_POINT('',(95.85,-10.894888752,3.279509081));
#1185=CARTESIAN_POINT('',(95.659329687,-12.000972467,4.1149364));
#1186=CARTESIAN_POINT('',(95.722479684,-11.84999389,3.952025257));
#1187=CARTESIAN_POINT('',(95.770222995,-11.696040041,3.785901311));
#1188=CARTESIAN_POINT('',(95.833983349,-11.385125502,3.450406502));
#1189=CARTESIAN_POINT('',(95.85,-11.228166714,3.281037695));
#1190=CARTESIAN_POINT('',(95.85,-11.071206967,3.111667849));
#1191=CARTESIAN_POINT('',(95.664282769,-12.059727121,4.037435367));
#1192=CARTESIAN_POINT('',(95.725802666,-11.912862814,3.87441125));
#1193=CARTESIAN_POINT('',(95.772303824,-11.763182139,3.708258418));
#1194=CARTESIAN_POINT('',(95.834402671,-11.460975322,3.372791691));
#1195=CARTESIAN_POINT('',(95.85,-11.308450933,3.203479746));
#1196=CARTESIAN_POINT('',(95.85,-11.15592566,3.034166816));
#1197=CARTESIAN_POINT('',(95.673917804,-12.178696595,3.887117864));
#1198=CARTESIAN_POINT('',(95.732265182,-12.040245825,3.723874174));
#1199=CARTESIAN_POINT('',(95.776350313,-11.899282377,3.557665248));
#1200=CARTESIAN_POINT('',(95.835217875,-11.614818215,3.222253112));
#1201=CARTESIAN_POINT('',(95.85,-11.471318982,3.053051655));
#1202=CARTESIAN_POINT('',(95.85,-11.327819001,2.883849314));
#1203=CARTESIAN_POINT('',(95.67861308,-12.239060645,3.81409199));
#1204=CARTESIAN_POINT('',(95.735413657,-12.104919438,3.650741396));
#1205=CARTESIAN_POINT('',(95.778321572,-11.968410778,3.484505183));
#1206=CARTESIAN_POINT('',(95.835614885,-11.693003458,3.149119633));
#1207=CARTESIAN_POINT('',(95.85,-11.554106158,2.979971954));
#1208=CARTESIAN_POINT('',(95.85,-11.415208172,2.810823439));
#1209=CARTESIAN_POINT('',(95.692275349,-12.42314395,3.602183972));
#1210=CARTESIAN_POINT('',(95.744573001,-12.302267681,3.438522563));
#1211=CARTESIAN_POINT('',(95.784055845,-12.179439869,3.272207079));
#1212=CARTESIAN_POINT('',(95.836769453,-11.931815731,2.93689884));
#1213=CARTESIAN_POINT('',(95.85,-11.807020429,2.767907483));
#1214=CARTESIAN_POINT('',(95.85,-11.682224611,2.598915422));
#1215=CARTESIAN_POINT('',(95.70082377,-12.549819918,3.470398965));
#1216=CARTESIAN_POINT('',(95.750301116,-12.438233026,3.30654343));
#1217=CARTESIAN_POINT('',(95.787641431,-12.324945379,3.140178522));
#1218=CARTESIAN_POINT('',(95.837490966,-12.09665533,2.80491859));
#1219=CARTESIAN_POINT('',(95.85,-11.981653773,2.636024818));
#1220=CARTESIAN_POINT('',(95.85,-11.866651791,2.467130415));
#1221=CARTESIAN_POINT('',(95.716401017,-12.813626304,3.231312841));
#1222=CARTESIAN_POINT('',(95.76073531,-12.721702706,3.067104024));
#1223=CARTESIAN_POINT('',(95.79417213,-12.628529979,2.900649288));
#1224=CARTESIAN_POINT('',(95.838804541,-12.440926231,2.565477298));
#1225=CARTESIAN_POINT('',(95.85,-12.346495763,2.396761046));
#1226=CARTESIAN_POINT('',(95.85,-12.252065017,2.22804429));
#1227=CARTESIAN_POINT('',(95.723434468,-12.950725593,3.123946285));
#1228=CARTESIAN_POINT('',(95.765444575,-12.869173907,2.959578201));
#1229=CARTESIAN_POINT('',(95.797119313,-12.786573788,2.793083022));
#1230=CARTESIAN_POINT('',(95.839397123,-12.620317818,2.457950668));
#1231=CARTESIAN_POINT('',(95.85000008,-12.536662408,2.289314394));
#1232=CARTESIAN_POINT('',(95.849999986,-12.453006779,2.120677671));
#1233=CARTESIAN_POINT('',(95.735379241,-13.239337264,2.942172145));
#1234=CARTESIAN_POINT('',(95.773439999,-13.179897618,2.777533868));
#1235=CARTESIAN_POINT('',(95.802122541,-13.119769756,2.610970173));
#1236=CARTESIAN_POINT('',(95.840402631,-12.998821505,2.275905169));
#1237=CARTESIAN_POINT('',(95.850000097,-12.938001377,2.107404597));
#1238=CARTESIAN_POINT('',(95.850000014,-12.87718112,1.938903657));
#1239=CARTESIAN_POINT('',(95.740117403,-13.387190395,2.870386854));
#1240=CARTESIAN_POINT('',(95.776610301,-13.33921157,2.70564152));
#1241=CARTESIAN_POINT('',(95.804106093,-13.290699234,2.539050701));
#1242=CARTESIAN_POINT('',(95.840800979,-13.193137826,2.204012351));
#1243=CARTESIAN_POINT('',(95.85,-13.14408895,2.035565498));
#1244=CARTESIAN_POINT('',(95.85,-13.095039975,1.867118304));
#1245=CARTESIAN_POINT('',(95.744961544,-13.613219532,2.797088703));
#1246=CARTESIAN_POINT('',(95.779851284,-13.582879183,2.63223397));
#1247=CARTESIAN_POINT('',(95.806133886,-13.552215208,2.46561545));
#1248=CARTESIAN_POINT('',(95.841208277,-13.490561756,2.130604361));
#1249=CARTESIAN_POINT('',(95.85,-13.459572392,1.962212412));
#1250=CARTESIAN_POINT('',(95.85,-13.42858297,1.793820152));
#1251=CARTESIAN_POINT('',(95.746203,-13.689380309,2.778326914));
#1252=CARTESIAN_POINT('',(95.780681799,-13.665002127,2.613444154));
#1253=CARTESIAN_POINT('',(95.8066535,-13.640366786,2.446818539));
#1254=CARTESIAN_POINT('',(95.841312632,-13.590837469,2.111814436));
#1255=CARTESIAN_POINT('',(95.85,-13.565943583,1.943436551));
#1256=CARTESIAN_POINT('',(95.85,-13.541049652,1.775058363));
#1257=CARTESIAN_POINT('',(95.747878686,-13.843517925,2.753009852));
#1258=CARTESIAN_POINT('',(95.78180278,-13.831226702,2.588089266));
#1259=CARTESIAN_POINT('',(95.807354841,-13.818808217,2.421454078));
#1260=CARTESIAN_POINT('',(95.841453481,-13.793843271,2.086459401));
#1261=CARTESIAN_POINT('',(95.85,-13.781296853,1.918100499));
#1262=CARTESIAN_POINT('',(95.85,-13.768750412,1.749741302));
#1263=CARTESIAN_POINT('',(95.748311487,-13.922059757,2.746479224));
#1264=CARTESIAN_POINT('',(95.782092346,-13.915937848,2.581548868));
#1265=CARTESIAN_POINT('',(95.80753605,-13.909752567,2.414911204));
#1266=CARTESIAN_POINT('',(95.841489932,-13.897318275,2.079918953));
#1267=CARTESIAN_POINT('',(95.850000051,-13.891069286,1.911564948));
#1268=CARTESIAN_POINT('',(95.849999996,-13.884820285,1.743210653));
#1269=CARTESIAN_POINT('',(95.748311488,-13.999999641,2.746479204));
#1270=CARTESIAN_POINT('',(95.782092347,-13.999999744,2.581548852));
#1271=CARTESIAN_POINT('',(95.807536052,-13.999999847,2.414911191));
#1272=CARTESIAN_POINT('',(95.841489935,-14.000000053,2.079918947));
#1273=CARTESIAN_POINT('',(95.850000054,-14.000000156,1.911564945));
#1274=CARTESIAN_POINT('',(95.85,-14.000000259,1.743210653));
#1275=B_SPLINE_SURFACE_WITH_KNOTS('',3,3,((#1167,#1168,#1169,#1170,#1171,#1172),(#1173,#1174,#1175,#1176,#1177,#1178),(#1179,#1180,#1181,#1182,#1183,#1184),(#1185,#1186,#1187,#1188,#1189,#1190),(#1191,#1192,#1193,#1194,#1195,#1196),(#1197,#1198,#1199,#1200,#1201,#1202),(#1203,#1204,#1205,#1206,#1207,#1208),(#1209,#1210,#1211,#1212,#1213,#1214),(#1215,#1216,#1217,#1218,#1219,#1220),(#1221,#1222,#1223,#1224,#1225,#1226),(#1227,#1228,#1229,#1230,#1231,#1232),(#1233,#1234,#1235,#1236,#1237,#1238),(#1239,#1240,#1241,#1242,#1243,#1244),(#1245,#1246,#1247,#1248,#1249,#1250),(#1251,#1252,#1253,#1254,#1255,#1256),(#1257,#1258,#1259,#1260,#1261,#1262),(#1263,#1264,#1265,#1266,#1267,#1268),(#1269,#1270,#1271,#1272,#1273,#1274)),.UNSPECIFIED.,.F.,.F.,.U.,(4,2,2,2,2,2,2,2,4),(4,2,4),(0.026518303,0.026898332,0.027235034,0.027571737,0.028245141,0.028918546,0.029591951,0.029928653,0.030265355),(0.,0.5,1.),.UNSPECIFIED.);
#1276=ORIENTED_EDGE('',*,*,#595,.F.);
#1277=ORIENTED_EDGE('',*,*,#571,.F.);
#1278=ORIENTED_EDGE('',*,*,#514,.F.);
#1279=ORIENTED_EDGE('',*,*,#850,.F.);
#1280=ORIENTED_EDGE('',*,*,#224,.F.);
#1281=EDGE_LOOP('',(#1276,#1277,#1278,#1279,#1280));
#1282=FACE_BOUND('',#1281,.T.);
#1283=ADVANCED_FACE('',(#1282),#1275,.T.);
#1284=CARTESIAN_POINT('',(116.15,-10.714928856,3.462123697));
#1285=CARTESIAN_POINT('',(116.14999999,-10.890429012,3.631749974));
#1286=CARTESIAN_POINT('',(116.167903746,-11.065927826,3.801374953));
#1287=CARTESIAN_POINT('',(116.239136053,-11.413171042,4.136996154));
#1288=CARTESIAN_POINT('',(116.292464058,-11.584912784,4.302989806));
#1289=CARTESIAN_POINT('',(116.362933901,-11.752938958,4.465392245));
#1290=CARTESIAN_POINT('',(116.15,-10.803850622,3.370118576));
#1291=CARTESIAN_POINT('',(116.149999994,-10.974744135,3.539677713));
#1292=CARTESIAN_POINT('',(116.167410066,-11.145636413,3.709235622));
#1293=CARTESIAN_POINT('',(116.236688676,-11.48386819,4.044823755));
#1294=CARTESIAN_POINT('',(116.288556714,-11.651205246,4.21085155));
#1295=CARTESIAN_POINT('',(116.357114716,-11.815025211,4.373387125));
#1296=CARTESIAN_POINT('',(116.15,-10.894888752,3.279509081));
#1297=CARTESIAN_POINT('',(116.15,-11.06104906,3.449001946));
#1298=CARTESIAN_POINT('',(116.166922443,-11.227208233,3.618493653));
#1299=CARTESIAN_POINT('',(116.234270464,-11.556168793,3.954049126));
#1300=CARTESIAN_POINT('',(116.284695581,-11.718967934,4.120110598));
#1301=CARTESIAN_POINT('',(116.351362633,-11.878442077,4.282777631));
#1302=CARTESIAN_POINT('',(116.15,-11.071206967,3.111667849));
#1303=CARTESIAN_POINT('',(116.15,-11.228166714,3.281037695));
#1304=CARTESIAN_POINT('',(116.166016651,-11.385125502,3.450406502));
#1305=CARTESIAN_POINT('',(116.229777005,-11.696040041,3.785901311));
#1306=CARTESIAN_POINT('',(116.277520316,-11.84999389,3.952025257));
#1307=CARTESIAN_POINT('',(116.340670313,-12.000972467,4.1149364));
#1308=CARTESIAN_POINT('',(116.15,-11.15592566,3.034166816));
#1309=CARTESIAN_POINT('',(116.15,-11.308450933,3.203479746));
#1310=CARTESIAN_POINT('',(116.165597329,-11.460975322,3.372791691));
#1311=CARTESIAN_POINT('',(116.227696176,-11.763182139,3.708258418));
#1312=CARTESIAN_POINT('',(116.274197334,-11.912862814,3.87441125));
#1313=CARTESIAN_POINT('',(116.335717231,-12.059727121,4.037435367));
#1314=CARTESIAN_POINT('',(116.15,-11.327819001,2.883849314));
#1315=CARTESIAN_POINT('',(116.15,-11.471318982,3.053051655));
#1316=CARTESIAN_POINT('',(116.164782125,-11.614818215,3.222253112));
#1317=CARTESIAN_POINT('',(116.223649687,-11.899282377,3.557665248));
#1318=CARTESIAN_POINT('',(116.267734818,-12.040245825,3.723874174));
#1319=CARTESIAN_POINT('',(116.326082196,-12.178696595,3.887117864));
#1320=CARTESIAN_POINT('',(116.15,-11.415208172,2.810823439));
#1321=CARTESIAN_POINT('',(116.15,-11.554106158,2.979971954));
#1322=CARTESIAN_POINT('',(116.164385115,-11.693003458,3.149119633));
#1323=CARTESIAN_POINT('',(116.221678428,-11.968410778,3.484505183));
#1324=CARTESIAN_POINT('',(116.264586343,-12.104919438,3.650741396));
#1325=CARTESIAN_POINT('',(116.32138692,-12.239060645,3.81409199));
#1326=CARTESIAN_POINT('',(116.15,-11.682224611,2.598915422));
#1327=CARTESIAN_POINT('',(116.15,-11.807020429,2.767907483));
#1328=CARTESIAN_POINT('',(116.163230547,-11.931815731,2.93689884));
#1329=CARTESIAN_POINT('',(116.215944155,-12.179439869,3.272207079));
#1330=CARTESIAN_POINT('',(116.255426999,-12.302267681,3.438522563));
#1331=CARTESIAN_POINT('',(116.307724651,-12.42314395,3.602183972));
#1332=CARTESIAN_POINT('',(116.15,-11.866651791,2.467130415));
#1333=CARTESIAN_POINT('',(116.15,-11.981653773,2.636024818));
#1334=CARTESIAN_POINT('',(116.162509034,-12.09665533,2.80491859));
#1335=CARTESIAN_POINT('',(116.212358569,-12.324945379,3.140178522));
#1336=CARTESIAN_POINT('',(116.249698884,-12.438233026,3.30654343));
#1337=CARTESIAN_POINT('',(116.29917623,-12.549819918,3.470398966));
#1338=CARTESIAN_POINT('',(116.15,-12.252065017,2.22804429));
#1339=CARTESIAN_POINT('',(116.15,-12.346495763,2.396761046));
#1340=CARTESIAN_POINT('',(116.161195459,-12.440926231,2.565477298));
#1341=CARTESIAN_POINT('',(116.20582787,-12.628529979,2.900649288));
#1342=CARTESIAN_POINT('',(116.23926469,-12.721702706,3.067104024));
#1343=CARTESIAN_POINT('',(116.283598983,-12.813626304,3.231312841));
#1344=CARTESIAN_POINT('',(116.15,-12.453006806,2.120677734));
#1345=CARTESIAN_POINT('',(116.149999908,-12.536662435,2.289314457));
#1346=CARTESIAN_POINT('',(116.160602868,-12.620317845,2.457950731));
#1347=CARTESIAN_POINT('',(116.202880682,-12.786573815,2.793083084));
#1348=CARTESIAN_POINT('',(116.234555423,-12.869173934,2.959578263));
#1349=CARTESIAN_POINT('',(116.276565532,-12.95072562,3.123946346));
#1350=CARTESIAN_POINT('',(116.15,-12.877181093,1.938903594));
#1351=CARTESIAN_POINT('',(116.149999915,-12.93800135,2.107404534));
#1352=CARTESIAN_POINT('',(116.159597378,-12.998821478,2.275905106));
#1353=CARTESIAN_POINT('',(116.197877464,-13.119769729,2.610970111));
#1354=CARTESIAN_POINT('',(116.226560003,-13.179897592,2.777533806));
#1355=CARTESIAN_POINT('',(116.264620759,-13.239337238,2.942172084));
#1356=CARTESIAN_POINT('',(116.15,-13.095039975,1.867118304));
#1357=CARTESIAN_POINT('',(116.15,-13.14408895,2.035565498));
#1358=CARTESIAN_POINT('',(116.159199021,-13.193137826,2.204012351));
#1359=CARTESIAN_POINT('',(116.195893907,-13.290699234,2.539050701));
#1360=CARTESIAN_POINT('',(116.223389699,-13.33921157,2.70564152));
#1361=CARTESIAN_POINT('',(116.259882597,-13.387190395,2.870386854));
#1362=CARTESIAN_POINT('',(116.15,-13.42858297,1.793820152));
#1363=CARTESIAN_POINT('',(116.15,-13.459572392,1.962212412));
#1364=CARTESIAN_POINT('',(116.158791723,-13.490561756,2.130604361));
#1365=CARTESIAN_POINT('',(116.193866114,-13.552215208,2.46561545));
#1366=CARTESIAN_POINT('',(116.220148716,-13.582879183,2.63223397));
#1367=CARTESIAN_POINT('',(116.255038456,-13.613219532,2.797088703));
#1368=CARTESIAN_POINT('',(116.15,-13.541049652,1.775058363));
#1369=CARTESIAN_POINT('',(116.15,-13.565943583,1.943436551));
#1370=CARTESIAN_POINT('',(116.158687368,-13.590837469,2.111814436));
#1371=CARTESIAN_POINT('',(116.1933465,-13.640366786,2.446818539));
#1372=CARTESIAN_POINT('',(116.219318201,-13.665002127,2.613444154));
#1373=CARTESIAN_POINT('',(116.253797,-13.689380309,2.778326914));
#1374=CARTESIAN_POINT('',(116.15,-13.768750412,1.749741302));
#1375=CARTESIAN_POINT('',(116.15,-13.781296853,1.918100499));
#1376=CARTESIAN_POINT('',(116.158546519,-13.793843271,2.086459401));
#1377=CARTESIAN_POINT('',(116.192645159,-13.818808217,2.421454078));
#1378=CARTESIAN_POINT('',(116.21819722,-13.831226702,2.588089266));
#1379=CARTESIAN_POINT('',(116.252121314,-13.843517925,2.753009852));
#1380=CARTESIAN_POINT('',(116.15,-13.884820285,1.743210673));
#1381=CARTESIAN_POINT('',(116.149999946,-13.891069286,1.911564968));
#1382=CARTESIAN_POINT('',(116.158510065,-13.897318275,2.079918973));
#1383=CARTESIAN_POINT('',(116.192463949,-13.909752567,2.414911224));
#1384=CARTESIAN_POINT('',(116.217907654,-13.915937848,2.581548888));
#1385=CARTESIAN_POINT('',(116.251688513,-13.922059757,2.746479243));
#1386=CARTESIAN_POINT('',(116.15,-14.000000259,1.743210653));
#1387=CARTESIAN_POINT('',(116.149999946,-14.000000156,1.911564945));
#1388=CARTESIAN_POINT('',(116.158510065,-14.000000053,2.079918947));
#1389=CARTESIAN_POINT('',(116.192463948,-13.999999847,2.414911191));
#1390=CARTESIAN_POINT('',(116.217907653,-13.999999744,2.581548852));
#1391=CARTESIAN_POINT('',(116.251688512,-13.999999641,2.746479204));
#1392=B_SPLINE_SURFACE_WITH_KNOTS('',3,3,((#1284,#1285,#1286,#1287,#1288,#1289),(#1290,#1291,#1292,#1293,#1294,#1295),(#1296,#1297,#1298,#1299,#1300,#1301),(#1302,#1303,#1304,#1305,#1306,#1307),(#1308,#1309,#1310,#1311,#1312,#1313),(#1314,#1315,#1316,#1317,#1318,#1319),(#1320,#1321,#1322,#1323,#1324,#1325),(#1326,#1327,#1328,#1329,#1330,#1331),(#1332,#1333,#1334,#1335,#1336,#1337),(#1338,#1339,#1340,#1341,#1342,#1343),(#1344,#1345,#1346,#1347,#1348,#1349),(#1350,#1351,#1352,#1353,#1354,#1355),(#1356,#1357,#1358,#1359,#1360,#1361),(#1362,#1363,#1364,#1365,#1366,#1367),(#1368,#1369,#1370,#1371,#1372,#1373),(#1374,#1375,#1376,#1377,#1378,#1379),(#1380,#1381,#1382,#1383,#1384,#1385),(#1386,#1387,#1388,#1389,#1390,#1391)),.UNSPECIFIED.,.F.,.F.,.U.,(4,2,2,2,2,2,2,2,4),(4,2,4),(0.026518303,0.026898332,0.027235034,0.027571737,0.028245141,0.028918546,0.029591951,0.029928653,0.030265355),(0.,0.5,1.),.UNSPECIFIED.);
#1393=ORIENTED_EDGE('',*,*,#278,.F.);
#1394=ORIENTED_EDGE('',*,*,#807,.F.);
#1395=ORIENTED_EDGE('',*,*,#730,.F.);
#1396=ORIENTED_EDGE('',*,*,#659,.F.);
#1397=ORIENTED_EDGE('',*,*,#605,.F.);
#1398=EDGE_LOOP('',(#1393,#1394,#1395,#1396,#1397));
#1399=FACE_BOUND('',#1398,.T.);
#1400=ADVANCED_FACE('',(#1399),#1392,.T.);
#1401=CARTESIAN_POINT('',(114.802234912,7.065746984,7.403257577));
#1402=CARTESIAN_POINT('',(114.617935726,6.854896423,7.333470586));
#1403=CARTESIAN_POINT('',(114.452916904,6.628862587,7.258658195));
#1404=CARTESIAN_POINT('',(114.166366005,6.153175716,7.101215869));
#1405=CARTESIAN_POINT('',(114.044838216,5.903529799,7.01858829));
#1406=CARTESIAN_POINT('',(113.848905724,5.388085215,6.847986856));
#1407=CARTESIAN_POINT('',(113.774503951,5.122294261,6.760015553));
#1408=CARTESIAN_POINT('',(113.675050344,4.582509195,6.581357845));
#1409=CARTESIAN_POINT('',(113.649999997,4.308523161,6.490674114));
#1410=CARTESIAN_POINT('',(113.65,4.034533026,6.399989026));
#1411=CARTESIAN_POINT('',(114.783995078,7.165960155,7.030551676));
#1412=CARTESIAN_POINT('',(114.602484655,6.956008714,6.960529003));
#1413=CARTESIAN_POINT('',(114.440027066,6.731240965,6.885564013));
#1414=CARTESIAN_POINT('',(114.157986242,6.258671647,6.72795054));
#1415=CARTESIAN_POINT('',(114.038407087,6.010876915,6.645304339));
#1416=CARTESIAN_POINT('',(113.845641318,5.499541916,6.474759613));
#1417=CARTESIAN_POINT('',(113.772457493,5.236009047,6.386863556));
#1418=CARTESIAN_POINT('',(113.674636126,4.700949074,6.208404756));
#1419=CARTESIAN_POINT('',(113.649999999,4.429429711,6.117844596));
#1420=CARTESIAN_POINT('',(113.65,4.157906421,6.027283126));
#1421=CARTESIAN_POINT('',(114.765515068,7.26672441,6.658239281));
#1422=CARTESIAN_POINT('',(114.58683656,7.057733028,6.587978706));
#1423=CARTESIAN_POINT('',(114.426976523,6.834292986,6.512859812));
#1424=CARTESIAN_POINT('',(114.149506509,6.3649646,6.35507381));
#1425=CARTESIAN_POINT('',(114.03190041,6.119082817,6.27240891));
#1426=CARTESIAN_POINT('',(113.84233979,5.611980581,6.101921483));
#1427=CARTESIAN_POINT('',(113.770387917,5.350767218,6.014101341));
#1428=CARTESIAN_POINT('',(113.67421735,4.820554867,5.835843136));
#1429=CARTESIAN_POINT('',(113.65,4.55156329,5.745407566));
#1430=CARTESIAN_POINT('',(113.65,4.282567953,5.65497073));
#1431=CARTESIAN_POINT('',(114.724055081,7.491140632,5.834952834));
#1432=CARTESIAN_POINT('',(114.551745009,7.284423405,5.764160578));
#1433=CARTESIAN_POINT('',(114.397718631,7.064072344,5.688698036));
#1434=CARTESIAN_POINT('',(114.13050638,6.602217457,5.530526986));
#1435=CARTESIAN_POINT('',(114.017323956,6.360719597,5.447820523));
#1436=CARTESIAN_POINT('',(113.834946459,5.863284449,5.277461286));
#1437=CARTESIAN_POINT('',(113.765753741,5.607353587,5.189810713));
#1438=CARTESIAN_POINT('',(113.673279914,5.088166985,5.012000377));
#1439=CARTESIAN_POINT('',(113.65,4.824917952,4.921842913));
#1440=CARTESIAN_POINT('',(113.65,4.561665518,4.831684284));
#1441=CARTESIAN_POINT('',(114.700963811,7.615025146,5.384309579));
#1442=CARTESIAN_POINT('',(114.532210531,7.40965218,5.313222551));
#1443=CARTESIAN_POINT('',(114.3814372,7.191092666,5.237569688));
#1444=CARTESIAN_POINT('',(114.1199401,6.733530597,5.079185513));
#1445=CARTESIAN_POINT('',(114.009219558,6.494533692,4.996456158));
#1446=CARTESIAN_POINT('',(113.830837703,6.002592404,4.826168077));
#1447=CARTESIAN_POINT('',(113.76317859,5.749654095,4.738611455));
#1448=CARTESIAN_POINT('',(113.67275918,5.236704455,4.561049139));
#1449=CARTESIAN_POINT('',(113.649999999,4.976699457,4.471045639));
#1450=CARTESIAN_POINT('',(113.65,4.71669125,4.381041028));
#1451=CARTESIAN_POINT('',(114.67750519,7.73992709,4.934590723));
#1452=CARTESIAN_POINT('',(114.512375917,7.536015095,4.863205674));
#1453=CARTESIAN_POINT('',(114.364911644,7.319363421,4.787360606));
#1454=CARTESIAN_POINT('',(114.109222816,6.86632466,4.628761328));
#1455=CARTESIAN_POINT('',(114.001001276,6.629942917,4.546008989));
#1456=CARTESIAN_POINT('',(113.826673227,6.143721772,4.375792941));
#1457=CARTESIAN_POINT('',(113.760568773,5.893888106,4.288331241));
#1458=CARTESIAN_POINT('',(113.672231637,5.387398311,4.111019376));
#1459=CARTESIAN_POINT('',(113.649999998,5.130748157,4.021171304));
#1460=CARTESIAN_POINT('',(113.65,4.874094976,3.931322172));
#1461=B_SPLINE_SURFACE_WITH_KNOTS('',3,3,((#1401,#1402,#1403,#1404,#1405,#1406,#1407,#1408,#1409,#1410),(#1411,#1412,#1413,#1414,#1415,#1416,#1417,#1418,#1419,#1420),(#1421,#1422,#1423,#1424,#1425,#1426,#1427,#1428,#1429,#1430),(#1431,#1432,#1433,#1434,#1435,#1436,#1437,#1438,#1439,#1440),(#1441,#1442,#1443,#1444,#1445,#1446,#1447,#1448,#1449,#1450),(#1451,#1452,#1453,#1454,#1455,#1456,#1457,#1458,#1459,#1460)),.UNSPECIFIED.,.F.,.F.,.U.,(4,2,4),(4,2,2,2,4),(0.025770377,0.02694716,0.02837568),(0.,0.25,0.5,0.75,1.),.UNSPECIFIED.);
#1462=ORIENTED_EDGE('',*,*,#59,.F.);
#1463=ORIENTED_EDGE('',*,*,#880,.F.);
#1464=ORIENTED_EDGE('',*,*,#698,.F.);
#1465=ORIENTED_EDGE('',*,*,#774,.F.);
#1466=EDGE_LOOP('',(#1462,#1463,#1464,#1465));
#1467=FACE_BOUND('',#1466,.T.);
#1468=ADVANCED_FACE('',(#1467),#1461,.T.);
#1469=CARTESIAN_POINT('',(113.65,-4.034534039,6.399989361));
#1470=CARTESIAN_POINT('',(113.649999997,-4.308524135,6.49067445));
#1471=CARTESIAN_POINT('',(113.675050344,-4.582510131,6.581358181));
#1472=CARTESIAN_POINT('',(113.774503954,-5.122295119,6.760015888));
#1473=CARTESIAN_POINT('',(113.848905727,-5.388086034,6.847987192));
#1474=CARTESIAN_POINT('',(114.044838223,-5.903530536,7.018588626));
#1475=CARTESIAN_POINT('',(114.166366013,-6.153176411,7.101216205));
#1476=CARTESIAN_POINT('',(114.452916915,-6.628863193,7.258658531));
#1477=CARTESIAN_POINT('',(114.617935739,-6.854896983,7.333470922));
#1478=CARTESIAN_POINT('',(114.802234926,-7.065747495,7.403257912));
#1479=CARTESIAN_POINT('',(113.65,-4.155780707,6.033708167));
#1480=CARTESIAN_POINT('',(113.649999999,-4.427346483,6.124271768));
#1481=CARTESIAN_POINT('',(113.674643266,-4.698908329,6.214834059));
#1482=CARTESIAN_POINT('',(113.772492772,-5.234049675,6.393296287));
#1483=CARTESIAN_POINT('',(113.845697593,-5.49762143,6.481193641));
#1484=CARTESIAN_POINT('',(114.038517952,-6.009027189,6.651739345));
#1485=CARTESIAN_POINT('',(114.158130699,-6.25685379,6.734385225));
#1486=CARTESIAN_POINT('',(114.44024927,-6.729476761,6.891995747));
#1487=CARTESIAN_POINT('',(114.602751011,-6.954266289,6.966958107));
#1488=CARTESIAN_POINT('',(114.784309507,-7.164233182,7.036976717));
#1489=CARTESIAN_POINT('',(113.65,-4.278271577,5.667805944));
#1490=CARTESIAN_POINT('',(113.65,-4.547354015,5.758247076));
#1491=CARTESIAN_POINT('',(113.674231786,-4.816432686,5.848686941));
#1492=CARTESIAN_POINT('',(113.770459257,-5.346812058,6.026952061));
#1493=CARTESIAN_POINT('',(113.842453596,-5.608105334,6.11477482));
#1494=CARTESIAN_POINT('',(114.032124698,-6.11535339,6.285264222));
#1495=CARTESIAN_POINT('',(114.149798808,-6.36130107,6.367928478));
#1496=CARTESIAN_POINT('',(114.427426376,-6.83074108,6.525708532));
#1497=CARTESIAN_POINT('',(114.58737595,-7.05422684,6.60082212));
#1498=CARTESIAN_POINT('',(114.76615207,-7.263251265,6.671074495));
#1499=CARTESIAN_POINT('',(113.65,-4.55726228,4.8444798));
#1500=CARTESIAN_POINT('',(113.65,-4.820606877,4.934642802));
#1501=CARTESIAN_POINT('',(113.673294698,-5.083948068,5.024804638));
#1502=CARTESIAN_POINT('',(113.765826851,-5.603311856,5.202622015));
#1503=CARTESIAN_POINT('',(113.835063109,-5.859327737,5.290275255));
#1504=CARTESIAN_POINT('',(114.017554043,-6.356918976,5.460636513));
#1505=CARTESIAN_POINT('',(114.130806361,-6.598487898,5.543342326));
#1506=CARTESIAN_POINT('',(114.398180866,-7.060464781,5.701507325));
#1507=CARTESIAN_POINT('',(114.552299598,-7.280866766,5.776964464));
#1508=CARTESIAN_POINT('',(114.724710647,-7.487622221,5.847748351));
#1509=CARTESIAN_POINT('',(113.65,-4.714455323,4.38742545));
#1510=CARTESIAN_POINT('',(113.649999999,-4.974511208,4.477432268));
#1511=CARTESIAN_POINT('',(113.672766669,-5.234563881,4.567437974));
#1512=CARTESIAN_POINT('',(113.76321564,-5.747605325,4.745003846));
#1513=CARTESIAN_POINT('',(113.830896823,-6.000587758,4.832561816));
#1514=CARTESIAN_POINT('',(114.009336229,-6.492610352,5.002850919));
#1515=CARTESIAN_POINT('',(114.120092247,-6.731644434,5.085579948));
#1516=CARTESIAN_POINT('',(114.381671805,-7.189270824,5.243961069));
#1517=CARTESIAN_POINT('',(114.532492114,-7.407857478,5.319611204));
#1518=CARTESIAN_POINT('',(114.701296843,-7.613251241,5.390694001));
#1519=CARTESIAN_POINT('',(113.65,-4.874094957,3.931322165));
#1520=CARTESIAN_POINT('',(113.649999997,-5.13074814,4.021171297));
#1521=CARTESIAN_POINT('',(113.672231637,-5.387398295,4.111019369));
#1522=CARTESIAN_POINT('',(113.760568773,-5.893888093,4.288331233));
#1523=CARTESIAN_POINT('',(113.826673227,-6.143721761,4.375792934));
#1524=CARTESIAN_POINT('',(114.001001277,-6.629942909,4.546008981));
#1525=CARTESIAN_POINT('',(114.109222817,-6.866324654,4.62876132));
#1526=CARTESIAN_POINT('',(114.364911647,-7.319363419,4.787360598));
#1527=CARTESIAN_POINT('',(114.51237592,-7.536015096,4.863205667));
#1528=CARTESIAN_POINT('',(114.677505195,-7.739927094,4.934590716));
#1529=B_SPLINE_SURFACE_WITH_KNOTS('',3,3,((#1469,#1470,#1471,#1472,#1473,#1474,#1475,#1476,#1477,#1478),(#1479,#1480,#1481,#1482,#1483,#1484,#1485,#1486,#1487,#1488),(#1489,#1490,#1491,#1492,#1493,#1494,#1495,#1496,#1497,#1498),(#1499,#1500,#1501,#1502,#1503,#1504,#1505,#1506,#1507,#1508),(#1509,#1510,#1511,#1512,#1513,#1514,#1515,#1516,#1517,#1518),(#1519,#1520,#1521,#1522,#1523,#1524,#1525,#1526,#1527,#1528)),.UNSPECIFIED.,.F.,.F.,.U.,(4,2,4),(4,2,2,2,4),(0.025770379,0.026926875,0.028375676),(0.,0.25,0.5,0.75,1.),.UNSPECIFIED.);
#1530=ORIENTED_EDGE('',*,*,#758,.F.);
#1531=ORIENTED_EDGE('',*,*,#816,.F.);
#1532=ORIENTED_EDGE('',*,*,#85,.F.);
#1533=ORIENTED_EDGE('',*,*,#782,.F.);
#1534=EDGE_LOOP('',(#1530,#1531,#1532,#1533));
#1535=FACE_BOUND('',#1534,.T.);
#1536=ADVANCED_FACE('',(#1535),#1529,.T.);
#1537=CLOSED_SHELL('',(#120,#201,#282,#299,#321,#392,#404,#437,#536,#575,#624,#663,#762,#786,#820,#854,#885,#916,#973,#1041,#1098,#1166,#1283,#1400,#1468,#1536));
#1538=MANIFOLD_SOLID_BREP('Quick Connect Slot Back',#1537);
#1539=COLOUR_RGB('',0.262745112,0.262745112,0.796078444);
#1540=FILL_AREA_STYLE_COLOUR('',#1539);
#1541=FILL_AREA_STYLE('',(#1540));
#1542=SURFACE_STYLE_FILL_AREA(#1541);
#1543=SURFACE_SIDE_STYLE('',(#1542));
#1544=SURFACE_STYLE_USAGE(.BOTH.,#1543);
#1545=PRESENTATION_STYLE_ASSIGNMENT((#1544));
#26=STYLED_ITEM('',(#1545),#1538);
#16=SHAPE_REPRESENTATION('Quick Connect Slot Back',(#15),#10);
#17=ADVANCED_BREP_SHAPE_REPRESENTATION('Quick Connect Slot Back',(#1538),#10);
#1553=SHAPE_REPRESENTATION_RELATIONSHIP('','',#16,#17);
#1554=CARTESIAN_POINT('',(0.,0.,0.));
#1555=DIRECTION('',(0.,0.,1.));
#1556=DIRECTION('',(1.,0.,0.));
#1557=AXIS2_PLACEMENT_3D('',#1554,#1555,#1556);
#1559=MAPPED_ITEM('',#1558,#1557);
#1558=REPRESENTATION_MAP(#1557,#16);
#1560=APPLICATION_CONTEXT('Managed model based 3d engineering');
#1561=APPLICATION_PROTOCOL_DEFINITION('international standard','ap242_managed_model_based_3d_engineering',2014,#1560);
#1562=PRODUCT_CONTEXT('',#1560,'mechanical');
#1563=PRODUCT_DEFINITION_CONTEXT('part definition',#1560,'design');
#24=PRODUCT('Quick Connect Slot Back','Quick Connect Slot Back','',(#1562));
#1564=PRODUCT_RELATED_PRODUCT_CATEGORY('part','',(#24));
#1565=PRODUCT_DEFINITION_FORMATION_WITH_SPECIFIED_SOURCE('','',#24,.NOT_KNOWN.);
#25=PRODUCT_DEFINITION('design','',#1565,#1563);
#23=PRODUCT_DEFINITION_SHAPE('','',#25);
#1566=SHAPE_DEFINITION_REPRESENTATION(#23,#16);
#11=DRAUGHTING_MODEL('',(#1559),#10);
#1567=DESCRIPTIVE_REPRESENTATION_ITEM('KEY','/Users/ddanier/Library/Containers/com.shapr3d.shapr/Data/tmp/86E7CDC8-2039-4FBF-8505-CC65D81AA8B5.tmp');
#1568=PROPERTY_DEFINITION('KEY','',#25);
#1569=REPRESENTATION('',(#1567),#10);
#1570=PROPERTY_DEFINITION_REPRESENTATION(#1568,#1569);
#1571=GENERAL_PROPERTY('','KEY','');
#1572=GENERAL_PROPERTY_ASSOCIATION('','',#1571,#1568);
#1=MECHANICAL_DESIGN_GEOMETRIC_PRESENTATION_REPRESENTATION('',(#26),#10);
ENDSEC;
END-ISO-10303-21;
