ISO-10303-21;
HEADER;

/* File generated by Shapr3D Version 5.800.0.8232 */

FILE_DESCRIPTION(('HOOPS Exchange Step'),'2;1');

FILE_NAME('/Users/ddanier/Library/Containers/com.shapr3d.shapr/Data/tmp/export/temp_export',
'2025-03-02T22:00:28+01:00',
('ddanier'),
('Shapr3D Limited'),
'HOOPS Exchange 2024.8',
'Shapr3D',
'Authorized');

FILE_SCHEMA( ('AP242_MANAGED_MODEL_BASED_3D_ENGINEERING_MIM_LF {1 0 10303 442 1 1 4}') );

ENDSEC;

DATA;
#3=(NAMED_UNIT(*)PLANE_ANGLE_UNIT()SI_UNIT($,.RADIAN.));
#4=PLANE_ANGLE_MEASURE_WITH_UNIT(PLANE_ANGLE_MEASURE(0.0174532925),#3);
#5=(CONVERSION_BASED_UNIT('DEGREE',#4)NAMED_UNIT(#6)PLANE_ANGLE_UNIT());
#6=DIMENSIONAL_EXPONENTS(0.,0.,0.,0.,0.,0.,0.);
#7=(NAMED_UNIT(*)SI_UNIT($,.STERADIAN.)SOLID_ANGLE_UNIT());
#8=(LENGTH_UNIT()NAMED_UNIT(*)SI_UNIT(.MILLI.,.METRE.));
#9=UNCERTAINTY_MEASURE_WITH_UNIT(LENGTH_MEASURE(1.000000E-05),#8,'DISTANCE_ACCURACY_VALUE','Maximum Tolerance applied to model');
#10=(GEOMETRIC_REPRESENTATION_CONTEXT(3)GLOBAL_UNCERTAINTY_ASSIGNED_CONTEXT((#9))GLOBAL_UNIT_ASSIGNED_CONTEXT((#8,#5,#7))REPRESENTATION_CONTEXT('','Quick Connect Top Back'));
#12=CARTESIAN_POINT('',(0.,0.,0.));
#13=DIRECTION('',(0.,0.,1.));
#14=DIRECTION('',(1.,0.,0.));
#15=AXIS2_PLACEMENT_3D('TS3D_PRODUCT_CSYS',#12,#13,#14);
#27=CARTESIAN_POINT('',(140.,0.,6.4));
#28=DIRECTION('',(0.,0.,1.));
#29=DIRECTION('',(1.,0.,0.));
#30=AXIS2_PLACEMENT_3D('',#27,#28,#29);
#31=PLANE('',#30);
#32=CARTESIAN_POINT('',(181.247498014,-7.33713958,6.4));
#33=VERTEX_POINT('',#32);
#34=CARTESIAN_POINT('',(179.,-14.,6.4));
#35=VERTEX_POINT('',#34);
#36=CARTESIAN_POINT('',(190.,-14.,6.4));
#37=DIRECTION('',(0.,0.,1.));
#38=DIRECTION('',(1.,0.,-0.));
#39=AXIS2_PLACEMENT_3D('',#36,#37,#38);
#40=CIRCLE('',#39,11.);
#41=EDGE_CURVE('',#33,#35,#40,.T.);
#42=ORIENTED_EDGE('',*,*,#41,.F.);
#43=CARTESIAN_POINT('',(182.35,-4.034566182,6.4));
#44=VERTEX_POINT('',#43);
#45=CARTESIAN_POINT('',(181.247498014,-7.33713958,6.4));
#46=CARTESIAN_POINT('',(181.428025071,-7.09999385,6.4));
#47=CARTESIAN_POINT('',(181.586063221,-6.850788817,6.4));
#48=CARTESIAN_POINT('',(181.722962287,-6.5902483,6.4));
#49=CARTESIAN_POINT('',(181.859861353,-6.329707782,6.4));
#50=CARTESIAN_POINT('',(181.976010929,-6.056580479,6.4));
#51=CARTESIAN_POINT('',(182.069580193,-5.774510764,6.4));
#52=CARTESIAN_POINT('',(182.163149457,-5.492441049,6.4));
#53=CARTESIAN_POINT('',(182.232753904,-5.206318039,6.4));
#54=CARTESIAN_POINT('',(182.279467134,-4.916323317,6.4));
#55=CARTESIAN_POINT('',(182.326180364,-4.626328595,6.4));
#56=CARTESIAN_POINT('',(182.35,-4.332461759,6.4));
#57=CARTESIAN_POINT('',(182.35,-4.034566182,6.4));
#58=B_SPLINE_CURVE_WITH_KNOTS('',3,(#45,#46,#47,#48,#49,#50,#51,#52,#53,#54,#55,#56,#57),.UNSPECIFIED.,.F.,.F.,(4,3,3,3,4),(0.,0.000882921,0.001765842,0.002648762,0.003531683),.UNSPECIFIED.);
#59=EDGE_CURVE('',#33,#44,#58,.T.);
#60=ORIENTED_EDGE('',*,*,#59,.T.);
#61=CARTESIAN_POINT('',(182.35,-0.,6.4));
#62=VERTEX_POINT('',#61);
#63=CARTESIAN_POINT('',(182.35,-0.,6.4));
#64=DIRECTION('',(0.,-1.,0.));
#65=VECTOR('',#64,4.034566182);
#66=LINE('',#63,#65);
#67=EDGE_CURVE('',#62,#44,#66,.T.);
#68=ORIENTED_EDGE('',*,*,#67,.F.);
#69=CARTESIAN_POINT('',(197.65,-0.,6.4));
#70=VERTEX_POINT('',#69);
#71=CARTESIAN_POINT('',(190.,-0.,6.4));
#72=DIRECTION('',(0.,0.,1.));
#73=DIRECTION('',(1.,0.,-0.));
#74=AXIS2_PLACEMENT_3D('',#71,#72,#73);
#75=CIRCLE('',#74,7.65);
#76=EDGE_CURVE('',#70,#62,#75,.T.);
#77=ORIENTED_EDGE('',*,*,#76,.F.);
#78=CARTESIAN_POINT('',(197.65,-4.034566182,6.4));
#79=VERTEX_POINT('',#78);
#80=CARTESIAN_POINT('',(197.65,-0.,6.4));
#81=DIRECTION('',(0.,-1.,0.));
#82=VECTOR('',#81,4.034566182);
#83=LINE('',#80,#82);
#84=EDGE_CURVE('',#70,#79,#83,.T.);
#85=ORIENTED_EDGE('',*,*,#84,.T.);
#86=CARTESIAN_POINT('',(198.752501986,-7.33713958,6.4));
#87=VERTEX_POINT('',#86);
#88=CARTESIAN_POINT('',(197.65,-4.034566182,6.4));
#89=CARTESIAN_POINT('',(197.65,-4.332460847,6.4));
#90=CARTESIAN_POINT('',(197.673820542,-4.626615974,6.4));
#91=CARTESIAN_POINT('',(197.72066711,-4.917156294,6.4));
#92=CARTESIAN_POINT('',(197.767513678,-5.207696614,6.4));
#93=CARTESIAN_POINT('',(197.837632881,-5.495372177,6.4));
#94=CARTESIAN_POINT('',(197.931471179,-5.777676952,6.4));
#95=CARTESIAN_POINT('',(198.025309476,-6.059981727,6.4));
#96=CARTESIAN_POINT('',(198.140775713,-6.331022748,6.4));
#97=CARTESIAN_POINT('',(198.277444182,-6.591021721,6.4));
#98=CARTESIAN_POINT('',(198.41411265,-6.851020694,6.4));
#99=CARTESIAN_POINT('',(198.571968822,-7.099985186,6.4));
#100=CARTESIAN_POINT('',(198.752501986,-7.33713958,6.4));
#101=B_SPLINE_CURVE_WITH_KNOTS('',3,(#88,#89,#90,#91,#92,#93,#94,#95,#96,#97,#98,#99,#100),.UNSPECIFIED.,.F.,.F.,(4,3,3,3,4),(0.,0.000882871,0.001765742,0.002648613,0.003531484),.UNSPECIFIED.);
#102=EDGE_CURVE('',#79,#87,#101,.T.);
#103=ORIENTED_EDGE('',*,*,#102,.T.);
#104=CARTESIAN_POINT('',(201.,-14.,6.4));
#105=VERTEX_POINT('',#104);
#106=CARTESIAN_POINT('',(190.,-14.,6.4));
#107=DIRECTION('',(0.,0.,1.));
#108=DIRECTION('',(1.,0.,-0.));
#109=AXIS2_PLACEMENT_3D('',#106,#107,#108);
#110=CIRCLE('',#109,11.);
#111=EDGE_CURVE('',#105,#87,#110,.T.);
#112=ORIENTED_EDGE('',*,*,#111,.F.);
#113=CARTESIAN_POINT('',(204.,-14.,6.4));
#114=VERTEX_POINT('',#113);
#115=CARTESIAN_POINT('',(204.,-14.,6.4));
#116=DIRECTION('',(-1.,-0.,0.));
#117=VECTOR('',#116,3.);
#118=LINE('',#115,#117);
#119=EDGE_CURVE('',#114,#105,#118,.T.);
#120=ORIENTED_EDGE('',*,*,#119,.F.);
#121=CARTESIAN_POINT('',(204.,14.,6.4));
#122=VERTEX_POINT('',#121);
#123=CARTESIAN_POINT('',(204.,14.,6.4));
#124=DIRECTION('',(0.,-1.,0.));
#125=VECTOR('',#124,28.);
#126=LINE('',#123,#125);
#127=EDGE_CURVE('',#122,#114,#126,.T.);
#128=ORIENTED_EDGE('',*,*,#127,.F.);
#129=CARTESIAN_POINT('',(176.,14.,6.4));
#130=VERTEX_POINT('',#129);
#131=CARTESIAN_POINT('',(176.,14.,6.4));
#132=DIRECTION('',(1.,0.,-0.));
#133=VECTOR('',#132,28.);
#134=LINE('',#131,#133);
#135=EDGE_CURVE('',#130,#122,#134,.T.);
#136=ORIENTED_EDGE('',*,*,#135,.F.);
#137=CARTESIAN_POINT('',(176.,-14.,6.4));
#138=VERTEX_POINT('',#137);
#139=CARTESIAN_POINT('',(176.,-14.,6.4));
#140=DIRECTION('',(-0.,1.,0.));
#141=VECTOR('',#140,28.);
#142=LINE('',#139,#141);
#143=EDGE_CURVE('',#138,#130,#142,.T.);
#144=ORIENTED_EDGE('',*,*,#143,.F.);
#145=CARTESIAN_POINT('',(179.,-14.,6.4));
#146=DIRECTION('',(-1.,-0.,0.));
#147=VECTOR('',#146,3.);
#148=LINE('',#145,#147);
#149=EDGE_CURVE('',#35,#138,#148,.T.);
#150=ORIENTED_EDGE('',*,*,#149,.F.);
#151=EDGE_LOOP('',(#42,#60,#68,#77,#85,#103,#112,#120,#128,#136,#144,#150));
#152=FACE_BOUND('',#151,.T.);
#153=ADVANCED_FACE('',(#152),#31,.T.);
#154=CARTESIAN_POINT('',(190.,-14.,6.4));
#155=DIRECTION('',(0.,-1.,0.));
#156=DIRECTION('',(1.,0.,0.));
#157=AXIS2_PLACEMENT_3D('',#154,#155,#156);
#158=PLANE('',#157);
#159=CARTESIAN_POINT('',(179.824250314,-14.,2.25));
#160=VERTEX_POINT('',#159);
#161=CARTESIAN_POINT('',(200.175749686,-14.,2.25));
#162=VERTEX_POINT('',#161);
#163=CARTESIAN_POINT('',(179.824250314,-14.,2.25));
#164=DIRECTION('',(1.,0.,0.));
#165=VECTOR('',#164,20.351499372);
#166=LINE('',#163,#165);
#167=EDGE_CURVE('',#160,#162,#166,.T.);
#168=ORIENTED_EDGE('',*,*,#167,.F.);
#169=CARTESIAN_POINT('',(179.748311159,-14.,2.74648081));
#170=VERTEX_POINT('',#169);
#171=CARTESIAN_POINT('',(174.85,-14.,1.743212259));
#172=DIRECTION('',(0.,-1.,0.));
#173=DIRECTION('',(1.,0.,0.));
#174=AXIS2_PLACEMENT_3D('',#171,#172,#173);
#175=CIRCLE('',#174,5.);
#176=EDGE_CURVE('',#160,#170,#175,.T.);
#177=ORIENTED_EDGE('',*,*,#176,.T.);
#178=CARTESIAN_POINT('',(179.,-14.,6.4));
#179=DIRECTION('',(0.20065371,0.,-0.979662232));
#180=VECTOR('',#179,3.729366175);
#181=LINE('',#178,#180);
#182=EDGE_CURVE('',#35,#170,#181,.T.);
#183=ORIENTED_EDGE('',*,*,#182,.F.);
#184=ORIENTED_EDGE('',*,*,#149,.T.);
#185=CARTESIAN_POINT('',(176.,-14.,0.));
#186=VERTEX_POINT('',#185);
#187=CARTESIAN_POINT('',(176.,-14.,6.4));
#188=DIRECTION('',(0.,0.,-1.));
#189=VECTOR('',#188,6.4);
#190=LINE('',#187,#189);
#191=EDGE_CURVE('',#138,#186,#190,.T.);
#192=ORIENTED_EDGE('',*,*,#191,.T.);
#193=CARTESIAN_POINT('',(204.,-14.,0.));
#194=VERTEX_POINT('',#193);
#195=CARTESIAN_POINT('',(204.,-14.,0.));
#196=DIRECTION('',(-1.,-0.,0.));
#197=VECTOR('',#196,28.);
#198=LINE('',#195,#197);
#199=EDGE_CURVE('',#194,#186,#198,.T.);
#200=ORIENTED_EDGE('',*,*,#199,.F.);
#201=CARTESIAN_POINT('',(204.,-14.,6.4));
#202=DIRECTION('',(0.,0.,-1.));
#203=VECTOR('',#202,6.4);
#204=LINE('',#201,#203);
#205=EDGE_CURVE('',#114,#194,#204,.T.);
#206=ORIENTED_EDGE('',*,*,#205,.F.);
#207=ORIENTED_EDGE('',*,*,#119,.T.);
#208=CARTESIAN_POINT('',(200.251688841,-14.,2.74648081));
#209=VERTEX_POINT('',#208);
#210=CARTESIAN_POINT('',(200.251688841,-14.,2.74648081));
#211=DIRECTION('',(0.20065371,0.,0.979662232));
#212=VECTOR('',#211,3.729366175);
#213=LINE('',#210,#212);
#214=EDGE_CURVE('',#209,#105,#213,.T.);
#215=ORIENTED_EDGE('',*,*,#214,.F.);
#216=CARTESIAN_POINT('',(205.15,-14.,1.743212259));
#217=DIRECTION('',(0.,-1.,0.));
#218=DIRECTION('',(1.,0.,0.));
#219=AXIS2_PLACEMENT_3D('',#216,#217,#218);
#220=CIRCLE('',#219,5.);
#221=EDGE_CURVE('',#209,#162,#220,.T.);
#222=ORIENTED_EDGE('',*,*,#221,.T.);
#223=EDGE_LOOP('',(#168,#177,#183,#184,#192,#200,#206,#207,#215,#222));
#224=FACE_BOUND('',#223,.T.);
#225=ADVANCED_FACE('',(#224),#158,.T.);
#226=CARTESIAN_POINT('',(204.,0.,6.4));
#227=DIRECTION('',(1.,0.,0.));
#228=DIRECTION('',(0.,0.,-1.));
#229=AXIS2_PLACEMENT_3D('',#226,#227,#228);
#230=PLANE('',#229);
#231=CARTESIAN_POINT('',(204.,14.,0.));
#232=VERTEX_POINT('',#231);
#233=CARTESIAN_POINT('',(204.,14.,0.));
#234=DIRECTION('',(0.,-1.,0.));
#235=VECTOR('',#234,28.);
#236=LINE('',#233,#235);
#237=EDGE_CURVE('',#232,#194,#236,.T.);
#238=ORIENTED_EDGE('',*,*,#237,.F.);
#239=CARTESIAN_POINT('',(204.,14.,6.4));
#240=DIRECTION('',(0.,0.,-1.));
#241=VECTOR('',#240,6.4);
#242=LINE('',#239,#241);
#243=EDGE_CURVE('',#122,#232,#242,.T.);
#244=ORIENTED_EDGE('',*,*,#243,.F.);
#245=ORIENTED_EDGE('',*,*,#127,.T.);
#246=ORIENTED_EDGE('',*,*,#205,.T.);
#247=EDGE_LOOP('',(#238,#244,#245,#246));
#248=FACE_BOUND('',#247,.T.);
#249=ADVANCED_FACE('',(#248),#230,.T.);
#250=CARTESIAN_POINT('',(190.,14.,6.4));
#251=DIRECTION('',(0.,1.,0.));
#252=DIRECTION('',(0.,0.,1.));
#253=AXIS2_PLACEMENT_3D('',#250,#251,#252);
#254=PLANE('',#253);
#255=CARTESIAN_POINT('',(176.,14.,0.));
#256=VERTEX_POINT('',#255);
#257=CARTESIAN_POINT('',(176.,14.,0.));
#258=DIRECTION('',(1.,0.,-0.));
#259=VECTOR('',#258,28.);
#260=LINE('',#257,#259);
#261=EDGE_CURVE('',#256,#232,#260,.T.);
#262=ORIENTED_EDGE('',*,*,#261,.F.);
#263=CARTESIAN_POINT('',(176.,14.,6.4));
#264=DIRECTION('',(0.,0.,-1.));
#265=VECTOR('',#264,6.4);
#266=LINE('',#263,#265);
#267=EDGE_CURVE('',#130,#256,#266,.T.);
#268=ORIENTED_EDGE('',*,*,#267,.F.);
#269=ORIENTED_EDGE('',*,*,#135,.T.);
#270=ORIENTED_EDGE('',*,*,#243,.T.);
#271=EDGE_LOOP('',(#262,#268,#269,#270));
#272=FACE_BOUND('',#271,.T.);
#273=ADVANCED_FACE('',(#272),#254,.T.);
#274=CARTESIAN_POINT('',(176.,0.,6.4));
#275=DIRECTION('',(-1.,-0.,0.));
#276=DIRECTION('',(0.,-1.,0.));
#277=AXIS2_PLACEMENT_3D('',#274,#275,#276);
#278=PLANE('',#277);
#279=CARTESIAN_POINT('',(176.,-14.,0.));
#280=DIRECTION('',(-0.,1.,0.));
#281=VECTOR('',#280,28.);
#282=LINE('',#279,#281);
#283=EDGE_CURVE('',#186,#256,#282,.T.);
#284=ORIENTED_EDGE('',*,*,#283,.F.);
#285=ORIENTED_EDGE('',*,*,#191,.F.);
#286=ORIENTED_EDGE('',*,*,#143,.T.);
#287=ORIENTED_EDGE('',*,*,#267,.T.);
#288=EDGE_LOOP('',(#284,#285,#286,#287));
#289=FACE_BOUND('',#288,.T.);
#290=ADVANCED_FACE('',(#289),#278,.T.);
#291=CARTESIAN_POINT('',(140.,0.,0.));
#292=DIRECTION('',(0.,0.,1.));
#293=DIRECTION('',(1.,0.,0.));
#294=AXIS2_PLACEMENT_3D('',#291,#292,#293);
#295=PLANE('',#294);
#296=ORIENTED_EDGE('',*,*,#237,.T.);
#297=ORIENTED_EDGE('',*,*,#199,.T.);
#298=ORIENTED_EDGE('',*,*,#283,.T.);
#299=ORIENTED_EDGE('',*,*,#261,.T.);
#300=EDGE_LOOP('',(#296,#297,#298,#299));
#301=FACE_BOUND('',#300,.T.);
#302=ADVANCED_FACE('',(#301),#295,.F.);
#303=CARTESIAN_POINT('',(182.35,-0.,6.181066017));
#304=DIRECTION('',(1.,0.,0.));
#305=DIRECTION('',(0.,0.,-1.));
#306=AXIS2_PLACEMENT_3D('',#303,#304,#305);
#307=PLANE('',#306);
#308=ORIENTED_EDGE('',*,*,#67,.T.);
#309=CARTESIAN_POINT('',(182.35,-4.180152016,5.962132034));
#310=VERTEX_POINT('',#309);
#311=CARTESIAN_POINT('',(182.35,-4.034566181,6.4));
#312=CARTESIAN_POINT('',(182.35,-4.082893782,6.253986754));
#313=CARTESIAN_POINT('',(182.349999953,-4.131375434,6.108017383));
#314=CARTESIAN_POINT('',(182.35,-4.180107882,5.962119463));
#315=B_SPLINE_CURVE_WITH_KNOTS('',3,(#311,#312,#313,#314),.UNSPECIFIED.,.F.,.F.,(4,4),(0.025770474,0.026231474),.UNSPECIFIED.);
#316=EDGE_CURVE('',#44,#310,#315,.T.);
#317=ORIENTED_EDGE('',*,*,#316,.T.);
#318=CARTESIAN_POINT('',(182.35,-0.,5.962132034));
#319=VERTEX_POINT('',#318);
#320=CARTESIAN_POINT('',(182.35,-0.,5.962132034));
#321=DIRECTION('',(0.,-1.,0.));
#322=VECTOR('',#321,4.180152016);
#323=LINE('',#320,#322);
#324=EDGE_CURVE('',#319,#310,#323,.T.);
#325=ORIENTED_EDGE('',*,*,#324,.F.);
#326=CARTESIAN_POINT('',(182.35,-0.,5.962132034));
#327=DIRECTION('',(0.,0.,1.));
#328=VECTOR('',#327,0.437867966);
#329=LINE('',#326,#328);
#330=EDGE_CURVE('',#319,#62,#329,.T.);
#331=ORIENTED_EDGE('',*,*,#330,.T.);
#332=EDGE_LOOP('',(#308,#317,#325,#331));
#333=FACE_BOUND('',#332,.T.);
#334=ADVANCED_FACE('',(#333),#307,.T.);
#335=CARTESIAN_POINT('',(181.1,-0.,4.712132034));
#336=DIRECTION('',(0.707106781,0.,-0.707106781));
#337=DIRECTION('',(-0.707106781,0.,-0.707106781));
#338=AXIS2_PLACEMENT_3D('',#335,#336,#337);
#339=PLANE('',#338);
#340=ORIENTED_EDGE('',*,*,#324,.T.);
#341=CARTESIAN_POINT('',(181.322492919,-7.739973016,4.934624953));
#342=VERTEX_POINT('',#341);
#343=CARTESIAN_POINT('',(182.35,-4.180152016,5.962132034));
#344=CARTESIAN_POINT('',(182.350001632,-4.511394757,5.962133667));
#345=CARTESIAN_POINT('',(182.320867303,-4.834456641,5.932999337));
#346=CARTESIAN_POINT('',(182.269246409,-5.1512047,5.881378443));
#347=CARTESIAN_POINT('',(182.243435962,-5.309578729,5.855567996));
#348=CARTESIAN_POINT('',(182.21192111,-5.466351064,5.824053144));
#349=CARTESIAN_POINT('',(182.17516279,-5.621651127,5.787294824));
#350=CARTESIAN_POINT('',(182.138404469,-5.77695119,5.750536503));
#351=CARTESIAN_POINT('',(182.096190865,-5.931342094,5.708322899));
#352=CARTESIAN_POINT('',(182.049947414,-6.081650945,5.662079448));
#353=CARTESIAN_POINT('',(181.957460513,-6.382268647,5.569592547));
#354=CARTESIAN_POINT('',(181.848586093,-6.669077489,5.460718128));
#355=CARTESIAN_POINT('',(181.726557248,-6.94480182,5.338689283));
#356=CARTESIAN_POINT('',(181.604528403,-7.220526151,5.216660438));
#357=CARTESIAN_POINT('',(181.469280443,-7.485111461,5.081412477));
#358=CARTESIAN_POINT('',(181.322492919,-7.739973016,4.934624953));
#359=B_SPLINE_CURVE_WITH_KNOTS('',3,(#343,#344,#345,#346,#347,#348,#349,#350,#351,#352,#353,#354,#355,#356,#357,#358),.UNSPECIFIED.,.F.,.F.,(4,3,3,3,3,4),(0.,0.000974702,0.001462052,0.001949403,0.002924105,0.003898806),.UNSPECIFIED.);
#360=EDGE_CURVE('',#310,#342,#359,.T.);
#361=ORIENTED_EDGE('',*,*,#360,.T.);
#362=CARTESIAN_POINT('',(179.710454908,-12.71327566,3.322586942));
#363=VERTEX_POINT('',#362);
#364=CARTESIAN_POINT('',(192.66747063,-14.,16.279602664));
#365=DIRECTION('',(0.707106781,0.,-0.707106781));
#366=DIRECTION('',(0.707106781,0.,0.707106781));
#367=AXIS2_PLACEMENT_3D('',#364,#365,#366);
#368=ELLIPSE('',#367,18.418057106,12.747431671);
#369=EDGE_CURVE('',#363,#342,#368,.T.);
#370=ORIENTED_EDGE('',*,*,#369,.F.);
#371=CARTESIAN_POINT('',(179.85,-10.714941499,3.462132034));
#372=VERTEX_POINT('',#371);
#373=CARTESIAN_POINT('',(179.710454908,-12.71327566,3.322586942));
#374=CARTESIAN_POINT('',(179.744817235,-12.38177088,3.35694927));
#375=CARTESIAN_POINT('',(179.780186142,-12.050406681,3.392318176));
#376=CARTESIAN_POINT('',(179.806387921,-11.717762187,3.418519956));
#377=CARTESIAN_POINT('',(179.832589701,-11.385117694,3.444721735));
#378=CARTESIAN_POINT('',(179.850000003,-11.05124537,3.462132037));
#379=CARTESIAN_POINT('',(179.85,-10.714941499,3.462132034));
#380=B_SPLINE_CURVE_WITH_KNOTS('',3,(#373,#374,#375,#376,#377,#378,#379),.UNSPECIFIED.,.F.,.F.,(4,3,4),(0.,0.001004028,0.002008055),.UNSPECIFIED.);
#381=EDGE_CURVE('',#363,#372,#380,.T.);
#382=ORIENTED_EDGE('',*,*,#381,.T.);
#383=CARTESIAN_POINT('',(179.85,-0.,3.462132034));
#384=VERTEX_POINT('',#383);
#385=CARTESIAN_POINT('',(179.85,-0.,3.462132034));
#386=DIRECTION('',(0.,-1.,0.));
#387=VECTOR('',#386,10.714941499);
#388=LINE('',#385,#387);
#389=EDGE_CURVE('',#384,#372,#388,.T.);
#390=ORIENTED_EDGE('',*,*,#389,.F.);
#391=CARTESIAN_POINT('',(179.85,-0.,3.462132034));
#392=DIRECTION('',(0.707106781,0.,0.707106781));
#393=VECTOR('',#392,3.535533906);
#394=LINE('',#391,#393);
#395=EDGE_CURVE('',#384,#319,#394,.T.);
#396=ORIENTED_EDGE('',*,*,#395,.T.);
#397=EDGE_LOOP('',(#340,#361,#370,#382,#390,#396));
#398=FACE_BOUND('',#397,.T.);
#399=ADVANCED_FACE('',(#398),#339,.T.);
#400=CARTESIAN_POINT('',(179.85,-0.,2.856066017));
#401=DIRECTION('',(1.,0.,0.));
#402=DIRECTION('',(0.,0.,-1.));
#403=AXIS2_PLACEMENT_3D('',#400,#401,#402);
#404=PLANE('',#403);
#405=ORIENTED_EDGE('',*,*,#389,.T.);
#406=CARTESIAN_POINT('',(179.85,-12.223511511,2.25));
#407=VERTEX_POINT('',#406);
#408=CARTESIAN_POINT('',(179.85,-10.714941434,3.462131992));
#409=CARTESIAN_POINT('',(179.850000001,-10.939071331,3.230241771));
#410=CARTESIAN_POINT('',(179.85,-11.178167088,3.005666827));
#411=CARTESIAN_POINT('',(179.85,-11.428796506,2.800919245));
#412=CARTESIAN_POINT('',(179.85,-11.679425924,2.596171662));
#413=CARTESIAN_POINT('',(179.85,-11.942480893,2.409796461));
#414=CARTESIAN_POINT('',(179.85,-12.22351151,2.249999998));
#415=B_SPLINE_CURVE_WITH_KNOTS('',3,(#408,#409,#410,#411,#412,#413,#414),.UNSPECIFIED.,.F.,.F.,(4,3,4),(0.026518303,0.027476149,0.028433995),.UNSPECIFIED.);
#416=EDGE_CURVE('',#372,#407,#415,.T.);
#417=ORIENTED_EDGE('',*,*,#416,.T.);
#418=CARTESIAN_POINT('',(179.85,-0.,2.25));
#419=VERTEX_POINT('',#418);
#420=CARTESIAN_POINT('',(179.85,-0.,2.25));
#421=DIRECTION('',(0.,-1.,0.));
#422=VECTOR('',#421,12.223511511);
#423=LINE('',#420,#422);
#424=EDGE_CURVE('',#419,#407,#423,.T.);
#425=ORIENTED_EDGE('',*,*,#424,.F.);
#426=CARTESIAN_POINT('',(179.85,-0.,2.25));
#427=DIRECTION('',(-0.,0.,1.));
#428=VECTOR('',#427,1.212132034);
#429=LINE('',#426,#428);
#430=EDGE_CURVE('',#419,#384,#429,.T.);
#431=ORIENTED_EDGE('',*,*,#430,.T.);
#432=EDGE_LOOP('',(#405,#417,#425,#431));
#433=FACE_BOUND('',#432,.T.);
#434=ADVANCED_FACE('',(#433),#404,.T.);
#435=CARTESIAN_POINT('',(195.075,-0.,2.25));
#436=DIRECTION('',(0.,0.,-1.));
#437=DIRECTION('',(-1.,0.,-0.));
#438=AXIS2_PLACEMENT_3D('',#435,#436,#437);
#439=PLANE('',#438);
#440=ORIENTED_EDGE('',*,*,#167,.T.);
#441=CARTESIAN_POINT('',(200.15,-12.223511511,2.25));
#442=VERTEX_POINT('',#441);
#443=CARTESIAN_POINT('',(200.175749686,-14.,2.25));
#444=CARTESIAN_POINT('',(200.175749669,-13.407712759,2.25));
#445=CARTESIAN_POINT('',(200.150000002,-12.815798752,2.25));
#446=CARTESIAN_POINT('',(200.15,-12.223511511,2.25));
#447=B_SPLINE_CURVE_WITH_KNOTS('',3,(#443,#444,#445,#446),.UNSPECIFIED.,.F.,.F.,(4,4),(0.,0.001776675),.UNSPECIFIED.);
#448=EDGE_CURVE('',#162,#442,#447,.T.);
#449=ORIENTED_EDGE('',*,*,#448,.T.);
#450=CARTESIAN_POINT('',(200.15,-0.,2.25));
#451=VERTEX_POINT('',#450);
#452=CARTESIAN_POINT('',(200.15,-0.,2.25));
#453=DIRECTION('',(0.,-1.,0.));
#454=VECTOR('',#453,12.223511511);
#455=LINE('',#452,#454);
#456=EDGE_CURVE('',#451,#442,#455,.T.);
#457=ORIENTED_EDGE('',*,*,#456,.F.);
#458=CARTESIAN_POINT('',(190.,-0.,2.25));
#459=DIRECTION('',(0.,0.,1.));
#460=DIRECTION('',(1.,0.,-0.));
#461=AXIS2_PLACEMENT_3D('',#458,#459,#460);
#462=CIRCLE('',#461,10.15);
#463=EDGE_CURVE('',#451,#419,#462,.T.);
#464=ORIENTED_EDGE('',*,*,#463,.T.);
#465=ORIENTED_EDGE('',*,*,#424,.T.);
#466=CARTESIAN_POINT('',(179.85,-12.223511511,2.25));
#467=CARTESIAN_POINT('',(179.849999998,-12.815798752,2.25));
#468=CARTESIAN_POINT('',(179.824250311,-13.407712759,2.25));
#469=CARTESIAN_POINT('',(179.824250314,-14.,2.25));
#470=B_SPLINE_CURVE_WITH_KNOTS('',3,(#466,#467,#468,#469),.UNSPECIFIED.,.F.,.F.,(4,4),(0.,0.001776675),.UNSPECIFIED.);
#471=EDGE_CURVE('',#407,#160,#470,.T.);
#472=ORIENTED_EDGE('',*,*,#471,.T.);
#473=EDGE_LOOP('',(#440,#449,#457,#464,#465,#472));
#474=FACE_BOUND('',#473,.T.);
#475=ADVANCED_FACE('',(#474),#439,.F.);
#476=CARTESIAN_POINT('',(200.15,-0.,2.856066017));
#477=DIRECTION('',(1.,0.,0.));
#478=DIRECTION('',(0.,0.,-1.));
#479=AXIS2_PLACEMENT_3D('',#476,#477,#478);
#480=PLANE('',#479);
#481=ORIENTED_EDGE('',*,*,#456,.T.);
#482=CARTESIAN_POINT('',(200.15,-10.714941499,3.462132034));
#483=VERTEX_POINT('',#482);
#484=CARTESIAN_POINT('',(200.15,-12.22351151,2.249999998));
#485=CARTESIAN_POINT('',(200.15,-11.942480893,2.409796461));
#486=CARTESIAN_POINT('',(200.15,-11.679425924,2.596171662));
#487=CARTESIAN_POINT('',(200.15,-11.428796506,2.800919245));
#488=CARTESIAN_POINT('',(200.15,-11.178167088,3.005666827));
#489=CARTESIAN_POINT('',(200.15,-10.939071329,3.230241769));
#490=CARTESIAN_POINT('',(200.15,-10.714941434,3.462131992));
#491=B_SPLINE_CURVE_WITH_KNOTS('',3,(#484,#485,#486,#487,#488,#489,#490),.UNSPECIFIED.,.F.,.F.,(4,3,4),(0.026518303,0.027476149,0.028433995),.UNSPECIFIED.);
#492=EDGE_CURVE('',#442,#483,#491,.T.);
#493=ORIENTED_EDGE('',*,*,#492,.T.);
#494=CARTESIAN_POINT('',(200.15,-0.,3.462132034));
#495=VERTEX_POINT('',#494);
#496=CARTESIAN_POINT('',(200.15,-0.,3.462132034));
#497=DIRECTION('',(0.,-1.,0.));
#498=VECTOR('',#497,10.714941499);
#499=LINE('',#496,#498);
#500=EDGE_CURVE('',#495,#483,#499,.T.);
#501=ORIENTED_EDGE('',*,*,#500,.F.);
#502=CARTESIAN_POINT('',(200.15,-0.,2.25));
#503=DIRECTION('',(-0.,0.,1.));
#504=VECTOR('',#503,1.212132034);
#505=LINE('',#502,#504);
#506=EDGE_CURVE('',#451,#495,#505,.T.);
#507=ORIENTED_EDGE('',*,*,#506,.F.);
#508=EDGE_LOOP('',(#481,#493,#501,#507));
#509=FACE_BOUND('',#508,.T.);
#510=ADVANCED_FACE('',(#509),#480,.F.);
#511=CARTESIAN_POINT('',(198.9,-0.,4.712132034));
#512=DIRECTION('',(0.707106781,0.,0.707106781));
#513=DIRECTION('',(0.707106781,0.,-0.707106781));
#514=AXIS2_PLACEMENT_3D('',#511,#512,#513);
#515=PLANE('',#514);
#516=CARTESIAN_POINT('',(200.289545092,-12.71327566,3.322586942));
#517=VERTEX_POINT('',#516);
#518=CARTESIAN_POINT('',(198.677507081,-7.739973016,4.934624953));
#519=VERTEX_POINT('',#518);
#520=CARTESIAN_POINT('',(187.33252937,-14.,16.279602664));
#521=DIRECTION('',(0.707106781,0.,0.707106781));
#522=DIRECTION('',(-0.707106781,0.,0.707106781));
#523=AXIS2_PLACEMENT_3D('',#520,#521,#522);
#524=ELLIPSE('',#523,18.418057106,12.747431671);
#525=EDGE_CURVE('',#517,#519,#524,.T.);
#526=ORIENTED_EDGE('',*,*,#525,.T.);
#527=CARTESIAN_POINT('',(197.65,-4.180152016,5.962132034));
#528=VERTEX_POINT('',#527);
#529=CARTESIAN_POINT('',(198.677507081,-7.739973016,4.934624953));
#530=CARTESIAN_POINT('',(198.530729991,-7.485129578,5.081402043));
#531=CARTESIAN_POINT('',(198.395738614,-7.220978876,5.21639342));
#532=CARTESIAN_POINT('',(198.274098985,-6.9462842,5.338033049));
#533=CARTESIAN_POINT('',(198.152459356,-6.671589524,5.459672678));
#534=CARTESIAN_POINT('',(198.044119682,-6.386391776,5.568012352));
#535=CARTESIAN_POINT('',(197.952102781,-6.088303815,5.660029253));
#536=CARTESIAN_POINT('',(197.906094331,-5.939259834,5.706037704));
#537=CARTESIAN_POINT('',(197.864197727,-5.786968697,5.747934308));
#538=CARTESIAN_POINT('',(197.827041141,-5.630934334,5.785090893));
#539=CARTESIAN_POINT('',(197.789884556,-5.47489997,5.822247479));
#540=CARTESIAN_POINT('',(197.757679303,-5.315681179,5.854452732));
#541=CARTESIAN_POINT('',(197.731521676,-5.15590703,5.880610358));
#542=CARTESIAN_POINT('',(197.679206423,-4.836358731,5.932925612));
#543=CARTESIAN_POINT('',(197.649997118,-4.511568797,5.962134916));
#544=CARTESIAN_POINT('',(197.65,-4.180152016,5.962132034));
#545=B_SPLINE_CURVE_WITH_KNOTS('',3,(#529,#530,#531,#532,#533,#534,#535,#536,#537,#538,#539,#540,#541,#542,#543,#544),.UNSPECIFIED.,.F.,.F.,(4,3,3,3,3,4),(0.,0.000971115,0.00194223,0.002427787,0.002913345,0.00388446),.UNSPECIFIED.);
#546=EDGE_CURVE('',#519,#528,#545,.T.);
#547=ORIENTED_EDGE('',*,*,#546,.T.);
#548=CARTESIAN_POINT('',(197.65,-0.,5.962132034));
#549=VERTEX_POINT('',#548);
#550=CARTESIAN_POINT('',(197.65,-0.,5.962132034));
#551=DIRECTION('',(0.,-1.,0.));
#552=VECTOR('',#551,4.180152016);
#553=LINE('',#550,#552);
#554=EDGE_CURVE('',#549,#528,#553,.T.);
#555=ORIENTED_EDGE('',*,*,#554,.F.);
#556=CARTESIAN_POINT('',(200.15,-0.,3.462132034));
#557=DIRECTION('',(-0.707106781,0.,0.707106781));
#558=VECTOR('',#557,3.535533906);
#559=LINE('',#556,#558);
#560=EDGE_CURVE('',#495,#549,#559,.T.);
#561=ORIENTED_EDGE('',*,*,#560,.F.);
#562=ORIENTED_EDGE('',*,*,#500,.T.);
#563=CARTESIAN_POINT('',(200.15,-10.714941499,3.462132034));
#564=CARTESIAN_POINT('',(200.149999996,-11.05124537,3.462132038));
#565=CARTESIAN_POINT('',(200.1674103,-11.385117694,3.444721734));
#566=CARTESIAN_POINT('',(200.193612079,-11.717762187,3.418519956));
#567=CARTESIAN_POINT('',(200.219813857,-12.050406681,3.392318177));
#568=CARTESIAN_POINT('',(200.255182765,-12.38177088,3.35694927));
#569=CARTESIAN_POINT('',(200.289545092,-12.71327566,3.322586942));
#570=B_SPLINE_CURVE_WITH_KNOTS('',3,(#563,#564,#565,#566,#567,#568,#569),.UNSPECIFIED.,.F.,.F.,(4,3,4),(0.,0.001004028,0.002008055),.UNSPECIFIED.);
#571=EDGE_CURVE('',#483,#517,#570,.T.);
#572=ORIENTED_EDGE('',*,*,#571,.T.);
#573=EDGE_LOOP('',(#526,#547,#555,#561,#562,#572));
#574=FACE_BOUND('',#573,.T.);
#575=ADVANCED_FACE('',(#574),#515,.F.);
#576=CARTESIAN_POINT('',(197.65,-0.,6.181066017));
#577=DIRECTION('',(1.,0.,0.));
#578=DIRECTION('',(0.,0.,-1.));
#579=AXIS2_PLACEMENT_3D('',#576,#577,#578);
#580=PLANE('',#579);
#581=ORIENTED_EDGE('',*,*,#554,.T.);
#582=CARTESIAN_POINT('',(197.65,-4.180107882,5.962119463));
#583=CARTESIAN_POINT('',(197.65,-4.13137556,6.108017425));
#584=CARTESIAN_POINT('',(197.65,-4.082893782,6.253986754));
#585=CARTESIAN_POINT('',(197.65,-4.034566181,6.4));
#586=B_SPLINE_CURVE_WITH_KNOTS('',3,(#582,#583,#584,#585),.UNSPECIFIED.,.F.,.F.,(4,4),(0.025770474,0.026231474),.UNSPECIFIED.);
#587=EDGE_CURVE('',#528,#79,#586,.T.);
#588=ORIENTED_EDGE('',*,*,#587,.T.);
#589=ORIENTED_EDGE('',*,*,#84,.F.);
#590=CARTESIAN_POINT('',(197.65,-0.,5.962132034));
#591=DIRECTION('',(0.,0.,1.));
#592=VECTOR('',#591,0.437867966);
#593=LINE('',#590,#592);
#594=EDGE_CURVE('',#549,#70,#593,.T.);
#595=ORIENTED_EDGE('',*,*,#594,.F.);
#596=EDGE_LOOP('',(#581,#588,#589,#595));
#597=FACE_BOUND('',#596,.T.);
#598=ADVANCED_FACE('',(#597),#580,.F.);
#599=CARTESIAN_POINT('',(190.,-0.,12.4));
#600=DIRECTION('',(0.,0.,1.));
#601=DIRECTION('',(1.,0.,-0.));
#602=AXIS2_PLACEMENT_3D('',#599,#600,#601);
#603=CYLINDRICAL_SURFACE('',#602,10.15);
#604=CARTESIAN_POINT('',(190.,-0.,3.462132034));
#605=DIRECTION('',(0.,0.,1.));
#606=DIRECTION('',(1.,0.,-0.));
#607=AXIS2_PLACEMENT_3D('',#604,#605,#606);
#608=CIRCLE('',#607,10.15);
#609=EDGE_CURVE('',#495,#384,#608,.T.);
#610=ORIENTED_EDGE('',*,*,#609,.T.);
#611=ORIENTED_EDGE('',*,*,#430,.F.);
#612=ORIENTED_EDGE('',*,*,#463,.F.);
#613=ORIENTED_EDGE('',*,*,#506,.T.);
#614=EDGE_LOOP('',(#610,#611,#612,#613));
#615=FACE_BOUND('',#614,.T.);
#616=ADVANCED_FACE('',(#615),#603,.F.);
#617=CARTESIAN_POINT('',(190.,-0.,3.462132034));
#618=DIRECTION('',(0.,0.,-1.));
#619=DIRECTION('',(-1.,0.,0.));
#620=AXIS2_PLACEMENT_3D('',#617,#618,#619);
#621=CONICAL_SURFACE('',#620,10.15,45.);
#622=ORIENTED_EDGE('',*,*,#609,.F.);
#623=ORIENTED_EDGE('',*,*,#560,.T.);
#624=CARTESIAN_POINT('',(190.,-0.,5.962132034));
#625=DIRECTION('',(0.,0.,1.));
#626=DIRECTION('',(1.,0.,-0.));
#627=AXIS2_PLACEMENT_3D('',#624,#625,#626);
#628=CIRCLE('',#627,7.65);
#629=EDGE_CURVE('',#549,#319,#628,.T.);
#630=ORIENTED_EDGE('',*,*,#629,.T.);
#631=ORIENTED_EDGE('',*,*,#395,.F.);
#632=EDGE_LOOP('',(#622,#623,#630,#631));
#633=FACE_BOUND('',#632,.T.);
#634=ADVANCED_FACE('',(#633),#621,.F.);
#635=CARTESIAN_POINT('',(190.,-0.,12.4));
#636=DIRECTION('',(0.,0.,1.));
#637=DIRECTION('',(1.,0.,-0.));
#638=AXIS2_PLACEMENT_3D('',#635,#636,#637);
#639=CYLINDRICAL_SURFACE('',#638,7.65);
#640=ORIENTED_EDGE('',*,*,#76,.T.);
#641=ORIENTED_EDGE('',*,*,#330,.F.);
#642=ORIENTED_EDGE('',*,*,#629,.F.);
#643=ORIENTED_EDGE('',*,*,#594,.T.);
#644=EDGE_LOOP('',(#640,#641,#642,#643));
#645=FACE_BOUND('',#644,.T.);
#646=ADVANCED_FACE('',(#645),#639,.F.);
#647=CARTESIAN_POINT('',(190.,-14.,2.25));
#648=DIRECTION('',(0.,0.,1.));
#649=DIRECTION('',(1.,0.,-0.));
#650=AXIS2_PLACEMENT_3D('',#647,#648,#649);
#651=CONICAL_SURFACE('',#650,10.15,11.575188817);
#652=ORIENTED_EDGE('',*,*,#525,.F.);
#653=CARTESIAN_POINT('',(200.289545092,-12.713275659,3.32258694));
#654=CARTESIAN_POINT('',(200.283948497,-12.810201574,3.23675317));
#655=CARTESIAN_POINT('',(200.278758651,-12.909973058,3.157561193));
#656=CARTESIAN_POINT('',(200.27410953,-13.013372253,3.086708278));
#657=CARTESIAN_POINT('',(200.269460408,-13.116771448,3.015855364));
#658=CARTESIAN_POINT('',(200.265361807,-13.22390916,2.953528881));
#659=CARTESIAN_POINT('',(200.262035631,-13.331830586,2.903088672));
#660=CARTESIAN_POINT('',(200.258709455,-13.439752012,2.852648463));
#661=CARTESIAN_POINT('',(200.256121827,-13.54925699,2.813517361));
#662=CARTESIAN_POINT('',(200.254365214,-13.660604753,2.786962481));
#663=CARTESIAN_POINT('',(200.252608602,-13.771952517,2.760407601));
#664=CARTESIAN_POINT('',(200.251688514,-13.886187224,2.746479262));
#665=CARTESIAN_POINT('',(200.251688512,-13.999999641,2.746479204));
#666=B_SPLINE_CURVE_WITH_KNOTS('',3,(#653,#654,#655,#656,#657,#658,#659,#660,#661,#662,#663,#664,#665),.UNSPECIFIED.,.F.,.F.,(4,3,3,3,4),(0.028298665,0.028790338,0.02928201,0.029773683,0.030265355),.UNSPECIFIED.);
#667=EDGE_CURVE('',#517,#209,#666,.T.);
#668=ORIENTED_EDGE('',*,*,#667,.T.);
#669=ORIENTED_EDGE('',*,*,#214,.T.);
#670=ORIENTED_EDGE('',*,*,#111,.T.);
#671=CARTESIAN_POINT('',(198.752496706,-7.337134515,6.399994464));
#672=CARTESIAN_POINT('',(198.727921391,-7.470350899,5.910561097));
#673=CARTESIAN_POINT('',(198.702932947,-7.604574781,5.42205873));
#674=CARTESIAN_POINT('',(198.677507077,-7.739973012,4.934624949));
#675=B_SPLINE_CURVE_WITH_KNOTS('',3,(#671,#672,#673,#674),.UNSPECIFIED.,.F.,.F.,(4,4),(0.026827314,0.028375676),.UNSPECIFIED.);
#676=EDGE_CURVE('',#87,#519,#675,.T.);
#677=ORIENTED_EDGE('',*,*,#676,.T.);
#678=EDGE_LOOP('',(#652,#668,#669,#670,#677));
#679=FACE_BOUND('',#678,.T.);
#680=ADVANCED_FACE('',(#679),#651,.F.);
#681=CARTESIAN_POINT('',(190.,-14.,2.25));
#682=DIRECTION('',(0.,0.,1.));
#683=DIRECTION('',(1.,0.,-0.));
#684=AXIS2_PLACEMENT_3D('',#681,#682,#683);
#685=CONICAL_SURFACE('',#684,10.15,11.575188817);
#686=ORIENTED_EDGE('',*,*,#369,.T.);
#687=CARTESIAN_POINT('',(181.322492923,-7.739973012,4.934624949));
#688=CARTESIAN_POINT('',(181.297067053,-7.604574781,5.42205873));
#689=CARTESIAN_POINT('',(181.272078609,-7.470351027,5.91056114));
#690=CARTESIAN_POINT('',(181.247503294,-7.337134515,6.399994464));
#691=B_SPLINE_CURVE_WITH_KNOTS('',3,(#687,#688,#689,#690),.UNSPECIFIED.,.F.,.F.,(4,4),(0.026827314,0.028375676),.UNSPECIFIED.);
#692=EDGE_CURVE('',#342,#33,#691,.T.);
#693=ORIENTED_EDGE('',*,*,#692,.T.);
#694=ORIENTED_EDGE('',*,*,#41,.T.);
#695=ORIENTED_EDGE('',*,*,#182,.T.);
#696=CARTESIAN_POINT('',(179.748311488,-13.999999641,2.746479204));
#697=CARTESIAN_POINT('',(179.748311486,-13.886187224,2.746479233));
#698=CARTESIAN_POINT('',(179.747391398,-13.771952493,2.760407456));
#699=CARTESIAN_POINT('',(179.745634786,-13.660604753,2.786962481));
#700=CARTESIAN_POINT('',(179.743878173,-13.549257013,2.813517505));
#701=CARTESIAN_POINT('',(179.741290545,-13.439751978,2.852648358));
#702=CARTESIAN_POINT('',(179.737964369,-13.331830586,2.903088672));
#703=CARTESIAN_POINT('',(179.734638193,-13.223909193,2.953528987));
#704=CARTESIAN_POINT('',(179.730539592,-13.116771833,3.015856189));
#705=CARTESIAN_POINT('',(179.72589047,-13.013372253,3.086708278));
#706=CARTESIAN_POINT('',(179.721241349,-12.909972672,3.157560368));
#707=CARTESIAN_POINT('',(179.716051503,-12.810201574,3.23675317));
#708=CARTESIAN_POINT('',(179.710454908,-12.713275659,3.32258694));
#709=B_SPLINE_CURVE_WITH_KNOTS('',3,(#696,#697,#698,#699,#700,#701,#702,#703,#704,#705,#706,#707,#708),.UNSPECIFIED.,.F.,.F.,(4,3,3,3,4),(0.028298665,0.028790338,0.02928201,0.029773683,0.030265355),.UNSPECIFIED.);
#710=EDGE_CURVE('',#170,#363,#709,.T.);
#711=ORIENTED_EDGE('',*,*,#710,.T.);
#712=EDGE_LOOP('',(#686,#693,#694,#695,#711));
#713=FACE_BOUND('',#712,.T.);
#714=ADVANCED_FACE('',(#713),#685,.F.);
#715=CARTESIAN_POINT('',(181.197765087,-7.065747011,7.403257594));
#716=CARTESIAN_POINT('',(181.382064273,-6.854896453,7.333470604));
#717=CARTESIAN_POINT('',(181.547083096,-6.628862619,7.258658212));
#718=CARTESIAN_POINT('',(181.833633995,-6.153175752,7.101215886));
#719=CARTESIAN_POINT('',(181.955161783,-5.903529838,7.018588308));
#720=CARTESIAN_POINT('',(182.151094276,-5.388085258,6.847986873));
#721=CARTESIAN_POINT('',(182.225496049,-5.122294306,6.76001557));
#722=CARTESIAN_POINT('',(182.324949656,-4.582509244,6.581357863));
#723=CARTESIAN_POINT('',(182.350000003,-4.308523212,6.490674132));
#724=CARTESIAN_POINT('',(182.35,-4.034533079,6.399989044));
#725=CARTESIAN_POINT('',(181.215987916,-7.165866755,7.030899164));
#726=CARTESIAN_POINT('',(181.39750094,-6.955914478,6.96087671));
#727=CARTESIAN_POINT('',(181.559960917,-6.731145551,6.885911862));
#728=CARTESIAN_POINT('',(181.842005945,-6.258573331,6.728298549));
#729=CARTESIAN_POINT('',(181.961586917,-6.010776875,6.645652365));
#730=CARTESIAN_POINT('',(182.154355638,-5.499438049,6.475107586));
#731=CARTESIAN_POINT('',(182.227540599,-5.235903077,6.387211459));
#732=CARTESIAN_POINT('',(182.325363488,-4.700838704,6.208752474));
#733=CARTESIAN_POINT('',(182.350000001,-4.429317043,6.118192199));
#734=CARTESIAN_POINT('',(182.35,-4.157791455,6.027630613));
#735=CARTESIAN_POINT('',(181.234450478,-7.266536563,6.658933445));
#736=CARTESIAN_POINT('',(181.413134265,-7.057543393,6.588673313));
#737=CARTESIAN_POINT('',(181.572999145,-6.834100878,6.513554706));
#738=CARTESIAN_POINT('',(181.850477681,-6.364766453,6.355769026));
#739=CARTESIAN_POINT('',(181.968087458,-6.118881104,6.27310416));
#740=CARTESIAN_POINT('',(182.157654054,-5.61177098,6.102616627));
#741=CARTESIAN_POINT('',(182.229608224,-5.350553295,6.014796344));
#742=CARTESIAN_POINT('',(182.325781869,-4.820331909,5.836537764));
#743=CARTESIAN_POINT('',(182.35,-4.551335621,5.746101961));
#744=CARTESIAN_POINT('',(182.35,-4.282335572,5.655664894));
#745=CARTESIAN_POINT('',(181.27590946,-7.490950335,5.835644847));
#746=CARTESIAN_POINT('',(181.448224994,-7.284231039,5.764853044));
#747=CARTESIAN_POINT('',(181.602256367,-7.063877223,5.689390793));
#748=CARTESIAN_POINT('',(181.869477395,-6.602015736,5.531220071));
#749=CARTESIAN_POINT('',(181.982663599,-6.360514031,5.448513644));
#750=CARTESIAN_POINT('',(182.165047231,-5.863070439,5.278154297));
#751=CARTESIAN_POINT('',(182.234242305,-5.607134978,5.190503579));
#752=CARTESIAN_POINT('',(182.326719286,-5.087938791,5.012692863));
#753=CARTESIAN_POINT('',(182.35,-4.824684772,4.922535162));
#754=CARTESIAN_POINT('',(182.35,-4.561427353,4.832376296));
#755=CARTESIAN_POINT('',(181.299018178,-7.614929204,5.384654866));
#756=CARTESIAN_POINT('',(181.46777424,-7.409555113,5.313568067));
#757=CARTESIAN_POINT('',(181.618550112,-7.190994131,5.237915351));
#758=CARTESIAN_POINT('',(181.880051672,-6.733428582,5.079531341));
#759=CARTESIAN_POINT('',(181.990774132,-6.494429667,4.996802004));
#760=CARTESIAN_POINT('',(182.1691591,-6.002483981,4.826513868));
#761=CARTESIAN_POINT('',(182.236819406,-5.749543285,4.738957173));
#762=CARTESIAN_POINT('',(182.327240415,-5.23658868,4.561394665));
#763=CARTESIAN_POINT('',(182.350000001,-4.976581103,4.471391046));
#764=CARTESIAN_POINT('',(182.35,-4.716570317,4.381386315));
#765=CARTESIAN_POINT('',(181.32249481,-7.739927082,4.934590717));
#766=CARTESIAN_POINT('',(181.487624083,-7.536015087,4.863205669));
#767=CARTESIAN_POINT('',(181.635088356,-7.319363412,4.7873606));
#768=CARTESIAN_POINT('',(181.890777184,-6.86632465,4.628761322));
#769=CARTESIAN_POINT('',(181.998998723,-6.629942906,4.546008983));
#770=CARTESIAN_POINT('',(182.173326773,-6.14372176,4.375792935));
#771=CARTESIAN_POINT('',(182.239431227,-5.893888093,4.288331235));
#772=CARTESIAN_POINT('',(182.327768362,-5.387398297,4.111019371));
#773=CARTESIAN_POINT('',(182.350000002,-5.130748143,4.021171298));
#774=CARTESIAN_POINT('',(182.349999999,-4.874094961,3.931322166));
#775=B_SPLINE_SURFACE_WITH_KNOTS('',3,3,((#715,#716,#717,#718,#719,#720,#721,#722,#723,#724),(#725,#726,#727,#728,#729,#730,#731,#732,#733,#734),(#735,#736,#737,#738,#739,#740,#741,#742,#743,#744),(#745,#746,#747,#748,#749,#750,#751,#752,#753,#754),(#755,#756,#757,#758,#759,#760,#761,#762,#763,#764),(#765,#766,#767,#768,#769,#770,#771,#772,#773,#774)),.UNSPECIFIED.,.F.,.F.,.U.,(4,2,4),(4,2,2,2,4),(0.025770374,0.02694606,0.028375676),(0.,0.25,0.5,0.75,1.),.UNSPECIFIED.);
#776=ORIENTED_EDGE('',*,*,#360,.F.);
#777=ORIENTED_EDGE('',*,*,#316,.F.);
#778=ORIENTED_EDGE('',*,*,#59,.F.);
#779=ORIENTED_EDGE('',*,*,#692,.F.);
#780=EDGE_LOOP('',(#776,#777,#778,#779));
#781=FACE_BOUND('',#780,.T.);
#782=ADVANCED_FACE('',(#781),#775,.T.);
#783=CARTESIAN_POINT('',(179.637066099,-11.752938961,4.465392248));
#784=CARTESIAN_POINT('',(179.707535942,-11.584912787,4.302989809));
#785=CARTESIAN_POINT('',(179.760863947,-11.413171044,4.136996156));
#786=CARTESIAN_POINT('',(179.832096254,-11.065927829,3.801374955));
#787=CARTESIAN_POINT('',(179.850000011,-10.890429015,3.631749976));
#788=CARTESIAN_POINT('',(179.850000001,-10.714928858,3.462123699));
#789=CARTESIAN_POINT('',(179.642885284,-11.815025213,4.373387127));
#790=CARTESIAN_POINT('',(179.711443286,-11.651205247,4.210851552));
#791=CARTESIAN_POINT('',(179.763311325,-11.483868192,4.044823757));
#792=CARTESIAN_POINT('',(179.832589935,-11.145636415,3.709235624));
#793=CARTESIAN_POINT('',(179.850000006,-10.974744136,3.539677715));
#794=CARTESIAN_POINT('',(179.850000001,-10.803850624,3.370118578));
#795=CARTESIAN_POINT('',(179.648637367,-11.878442077,4.282777631));
#796=CARTESIAN_POINT('',(179.715304419,-11.718967934,4.120110598));
#797=CARTESIAN_POINT('',(179.765729536,-11.556168793,3.954049126));
#798=CARTESIAN_POINT('',(179.833077557,-11.227208233,3.618493653));
#799=CARTESIAN_POINT('',(179.85,-11.06104906,3.449001946));
#800=CARTESIAN_POINT('',(179.85,-10.894888752,3.279509081));
#801=CARTESIAN_POINT('',(179.659329687,-12.000972467,4.1149364));
#802=CARTESIAN_POINT('',(179.722479684,-11.84999389,3.952025257));
#803=CARTESIAN_POINT('',(179.770222995,-11.696040041,3.785901311));
#804=CARTESIAN_POINT('',(179.833983349,-11.385125502,3.450406502));
#805=CARTESIAN_POINT('',(179.85,-11.228166714,3.281037695));
#806=CARTESIAN_POINT('',(179.85,-11.071206967,3.111667849));
#807=CARTESIAN_POINT('',(179.664282769,-12.059727121,4.037435367));
#808=CARTESIAN_POINT('',(179.725802666,-11.912862814,3.87441125));
#809=CARTESIAN_POINT('',(179.772303824,-11.763182139,3.708258418));
#810=CARTESIAN_POINT('',(179.834402671,-11.460975322,3.372791691));
#811=CARTESIAN_POINT('',(179.85,-11.308450933,3.203479746));
#812=CARTESIAN_POINT('',(179.85,-11.15592566,3.034166816));
#813=CARTESIAN_POINT('',(179.673917804,-12.178696595,3.887117864));
#814=CARTESIAN_POINT('',(179.732265182,-12.040245825,3.723874174));
#815=CARTESIAN_POINT('',(179.776350313,-11.899282377,3.557665248));
#816=CARTESIAN_POINT('',(179.835217875,-11.614818215,3.222253112));
#817=CARTESIAN_POINT('',(179.85,-11.471318982,3.053051655));
#818=CARTESIAN_POINT('',(179.85,-11.327819001,2.883849314));
#819=CARTESIAN_POINT('',(179.67861308,-12.239060645,3.81409199));
#820=CARTESIAN_POINT('',(179.735413657,-12.104919438,3.650741396));
#821=CARTESIAN_POINT('',(179.778321572,-11.968410778,3.484505183));
#822=CARTESIAN_POINT('',(179.835614885,-11.693003458,3.149119633));
#823=CARTESIAN_POINT('',(179.85,-11.554106158,2.979971954));
#824=CARTESIAN_POINT('',(179.85,-11.415208172,2.810823439));
#825=CARTESIAN_POINT('',(179.692275349,-12.42314395,3.602183972));
#826=CARTESIAN_POINT('',(179.744573001,-12.302267681,3.438522563));
#827=CARTESIAN_POINT('',(179.784055845,-12.179439869,3.272207079));
#828=CARTESIAN_POINT('',(179.836769453,-11.931815731,2.93689884));
#829=CARTESIAN_POINT('',(179.85,-11.807020429,2.767907483));
#830=CARTESIAN_POINT('',(179.85,-11.682224611,2.598915422));
#831=CARTESIAN_POINT('',(179.70082377,-12.549819918,3.470398965));
#832=CARTESIAN_POINT('',(179.750301116,-12.438233026,3.30654343));
#833=CARTESIAN_POINT('',(179.787641431,-12.324945379,3.140178522));
#834=CARTESIAN_POINT('',(179.837490966,-12.09665533,2.80491859));
#835=CARTESIAN_POINT('',(179.85,-11.981653773,2.636024818));
#836=CARTESIAN_POINT('',(179.85,-11.866651791,2.467130415));
#837=CARTESIAN_POINT('',(179.716401017,-12.813626304,3.231312841));
#838=CARTESIAN_POINT('',(179.76073531,-12.721702706,3.067104024));
#839=CARTESIAN_POINT('',(179.79417213,-12.628529979,2.900649288));
#840=CARTESIAN_POINT('',(179.838804541,-12.440926231,2.565477298));
#841=CARTESIAN_POINT('',(179.85,-12.346495763,2.396761046));
#842=CARTESIAN_POINT('',(179.85,-12.252065017,2.22804429));
#843=CARTESIAN_POINT('',(179.723434468,-12.950725593,3.123946285));
#844=CARTESIAN_POINT('',(179.765444575,-12.869173907,2.959578201));
#845=CARTESIAN_POINT('',(179.797119313,-12.786573788,2.793083022));
#846=CARTESIAN_POINT('',(179.839397123,-12.620317818,2.457950668));
#847=CARTESIAN_POINT('',(179.85000008,-12.536662408,2.289314394));
#848=CARTESIAN_POINT('',(179.849999986,-12.453006779,2.120677671));
#849=CARTESIAN_POINT('',(179.735379241,-13.239337264,2.942172145));
#850=CARTESIAN_POINT('',(179.773439999,-13.179897618,2.777533868));
#851=CARTESIAN_POINT('',(179.802122541,-13.119769756,2.610970173));
#852=CARTESIAN_POINT('',(179.840402631,-12.998821505,2.275905169));
#853=CARTESIAN_POINT('',(179.850000097,-12.938001377,2.107404597));
#854=CARTESIAN_POINT('',(179.850000014,-12.87718112,1.938903657));
#855=CARTESIAN_POINT('',(179.740117403,-13.387190395,2.870386854));
#856=CARTESIAN_POINT('',(179.776610301,-13.33921157,2.70564152));
#857=CARTESIAN_POINT('',(179.804106093,-13.290699234,2.539050701));
#858=CARTESIAN_POINT('',(179.840800979,-13.193137826,2.204012351));
#859=CARTESIAN_POINT('',(179.85,-13.14408895,2.035565498));
#860=CARTESIAN_POINT('',(179.85,-13.095039975,1.867118304));
#861=CARTESIAN_POINT('',(179.744961544,-13.613219532,2.797088703));
#862=CARTESIAN_POINT('',(179.779851284,-13.582879183,2.63223397));
#863=CARTESIAN_POINT('',(179.806133886,-13.552215208,2.46561545));
#864=CARTESIAN_POINT('',(179.841208277,-13.490561756,2.130604361));
#865=CARTESIAN_POINT('',(179.85,-13.459572392,1.962212412));
#866=CARTESIAN_POINT('',(179.85,-13.42858297,1.793820152));
#867=CARTESIAN_POINT('',(179.746203,-13.689380309,2.778326914));
#868=CARTESIAN_POINT('',(179.780681799,-13.665002127,2.613444154));
#869=CARTESIAN_POINT('',(179.8066535,-13.640366786,2.446818539));
#870=CARTESIAN_POINT('',(179.841312632,-13.590837469,2.111814436));
#871=CARTESIAN_POINT('',(179.85,-13.565943583,1.943436551));
#872=CARTESIAN_POINT('',(179.85,-13.541049652,1.775058363));
#873=CARTESIAN_POINT('',(179.747878686,-13.843517925,2.753009852));
#874=CARTESIAN_POINT('',(179.78180278,-13.831226702,2.588089266));
#875=CARTESIAN_POINT('',(179.807354841,-13.818808217,2.421454078));
#876=CARTESIAN_POINT('',(179.841453481,-13.793843271,2.086459401));
#877=CARTESIAN_POINT('',(179.85,-13.781296853,1.918100499));
#878=CARTESIAN_POINT('',(179.85,-13.768750412,1.749741302));
#879=CARTESIAN_POINT('',(179.748311487,-13.922059757,2.746479224));
#880=CARTESIAN_POINT('',(179.782092346,-13.915937848,2.581548868));
#881=CARTESIAN_POINT('',(179.80753605,-13.909752567,2.414911204));
#882=CARTESIAN_POINT('',(179.841489932,-13.897318275,2.079918953));
#883=CARTESIAN_POINT('',(179.850000051,-13.891069286,1.911564948));
#884=CARTESIAN_POINT('',(179.849999996,-13.884820285,1.743210653));
#885=CARTESIAN_POINT('',(179.748311488,-13.999999641,2.746479204));
#886=CARTESIAN_POINT('',(179.782092347,-13.999999744,2.581548852));
#887=CARTESIAN_POINT('',(179.807536052,-13.999999847,2.414911191));
#888=CARTESIAN_POINT('',(179.841489935,-14.000000053,2.079918947));
#889=CARTESIAN_POINT('',(179.850000054,-14.000000156,1.911564945));
#890=CARTESIAN_POINT('',(179.85,-14.000000259,1.743210653));
#891=B_SPLINE_SURFACE_WITH_KNOTS('',3,3,((#783,#784,#785,#786,#787,#788),(#789,#790,#791,#792,#793,#794),(#795,#796,#797,#798,#799,#800),(#801,#802,#803,#804,#805,#806),(#807,#808,#809,#810,#811,#812),(#813,#814,#815,#816,#817,#818),(#819,#820,#821,#822,#823,#824),(#825,#826,#827,#828,#829,#830),(#831,#832,#833,#834,#835,#836),(#837,#838,#839,#840,#841,#842),(#843,#844,#845,#846,#847,#848),(#849,#850,#851,#852,#853,#854),(#855,#856,#857,#858,#859,#860),(#861,#862,#863,#864,#865,#866),(#867,#868,#869,#870,#871,#872),(#873,#874,#875,#876,#877,#878),(#879,#880,#881,#882,#883,#884),(#885,#886,#887,#888,#889,#890)),.UNSPECIFIED.,.F.,.F.,.U.,(4,2,2,2,2,2,2,2,4),(4,2,4),(0.026518303,0.026898332,0.027235034,0.027571737,0.028245141,0.028918546,0.029591951,0.029928653,0.030265355),(0.,0.5,1.),.UNSPECIFIED.);
#892=ORIENTED_EDGE('',*,*,#471,.F.);
#893=ORIENTED_EDGE('',*,*,#416,.F.);
#894=ORIENTED_EDGE('',*,*,#381,.F.);
#895=ORIENTED_EDGE('',*,*,#710,.F.);
#896=ORIENTED_EDGE('',*,*,#176,.F.);
#897=EDGE_LOOP('',(#892,#893,#894,#895,#896));
#898=FACE_BOUND('',#897,.T.);
#899=ADVANCED_FACE('',(#898),#891,.T.);
#900=CARTESIAN_POINT('',(200.15,-10.714928856,3.462123697));
#901=CARTESIAN_POINT('',(200.14999999,-10.890429012,3.631749974));
#902=CARTESIAN_POINT('',(200.167903746,-11.065927826,3.801374953));
#903=CARTESIAN_POINT('',(200.239136053,-11.413171042,4.136996154));
#904=CARTESIAN_POINT('',(200.292464058,-11.584912784,4.302989806));
#905=CARTESIAN_POINT('',(200.362933901,-11.752938958,4.465392245));
#906=CARTESIAN_POINT('',(200.15,-10.803850622,3.370118576));
#907=CARTESIAN_POINT('',(200.149999994,-10.974744135,3.539677713));
#908=CARTESIAN_POINT('',(200.167410066,-11.145636413,3.709235622));
#909=CARTESIAN_POINT('',(200.236688676,-11.48386819,4.044823755));
#910=CARTESIAN_POINT('',(200.288556714,-11.651205246,4.21085155));
#911=CARTESIAN_POINT('',(200.357114716,-11.815025211,4.373387125));
#912=CARTESIAN_POINT('',(200.15,-10.894888752,3.279509081));
#913=CARTESIAN_POINT('',(200.15,-11.06104906,3.449001946));
#914=CARTESIAN_POINT('',(200.166922443,-11.227208233,3.618493653));
#915=CARTESIAN_POINT('',(200.234270464,-11.556168793,3.954049126));
#916=CARTESIAN_POINT('',(200.284695581,-11.718967934,4.120110598));
#917=CARTESIAN_POINT('',(200.351362633,-11.878442077,4.282777631));
#918=CARTESIAN_POINT('',(200.15,-11.071206967,3.111667849));
#919=CARTESIAN_POINT('',(200.15,-11.228166715,3.281037695));
#920=CARTESIAN_POINT('',(200.166016651,-11.385125502,3.450406502));
#921=CARTESIAN_POINT('',(200.229777005,-11.696040041,3.785901311));
#922=CARTESIAN_POINT('',(200.277520316,-11.84999389,3.952025257));
#923=CARTESIAN_POINT('',(200.340670313,-12.000972467,4.1149364));
#924=CARTESIAN_POINT('',(200.15,-11.15592566,3.034166816));
#925=CARTESIAN_POINT('',(200.15,-11.308450933,3.203479746));
#926=CARTESIAN_POINT('',(200.165597329,-11.460975322,3.372791691));
#927=CARTESIAN_POINT('',(200.227696176,-11.763182139,3.708258418));
#928=CARTESIAN_POINT('',(200.274197334,-11.912862814,3.87441125));
#929=CARTESIAN_POINT('',(200.335717231,-12.059727121,4.037435367));
#930=CARTESIAN_POINT('',(200.15,-11.327819001,2.883849314));
#931=CARTESIAN_POINT('',(200.15,-11.471318982,3.053051655));
#932=CARTESIAN_POINT('',(200.164782125,-11.614818215,3.222253112));
#933=CARTESIAN_POINT('',(200.223649687,-11.899282377,3.557665248));
#934=CARTESIAN_POINT('',(200.267734818,-12.040245825,3.723874174));
#935=CARTESIAN_POINT('',(200.326082196,-12.178696595,3.887117864));
#936=CARTESIAN_POINT('',(200.15,-11.415208172,2.810823439));
#937=CARTESIAN_POINT('',(200.15,-11.554106158,2.979971954));
#938=CARTESIAN_POINT('',(200.164385115,-11.693003458,3.149119633));
#939=CARTESIAN_POINT('',(200.221678428,-11.968410778,3.484505183));
#940=CARTESIAN_POINT('',(200.264586343,-12.104919438,3.650741396));
#941=CARTESIAN_POINT('',(200.32138692,-12.239060645,3.81409199));
#942=CARTESIAN_POINT('',(200.15,-11.682224611,2.598915422));
#943=CARTESIAN_POINT('',(200.15,-11.807020429,2.767907483));
#944=CARTESIAN_POINT('',(200.163230547,-11.931815731,2.93689884));
#945=CARTESIAN_POINT('',(200.215944155,-12.179439869,3.272207079));
#946=CARTESIAN_POINT('',(200.255426999,-12.302267681,3.438522563));
#947=CARTESIAN_POINT('',(200.307724651,-12.42314395,3.602183972));
#948=CARTESIAN_POINT('',(200.15,-11.866651791,2.467130415));
#949=CARTESIAN_POINT('',(200.15,-11.981653773,2.636024818));
#950=CARTESIAN_POINT('',(200.162509034,-12.09665533,2.80491859));
#951=CARTESIAN_POINT('',(200.212358569,-12.324945379,3.140178522));
#952=CARTESIAN_POINT('',(200.249698884,-12.438233026,3.30654343));
#953=CARTESIAN_POINT('',(200.29917623,-12.549819918,3.470398966));
#954=CARTESIAN_POINT('',(200.15,-12.252065017,2.22804429));
#955=CARTESIAN_POINT('',(200.15,-12.346495763,2.396761046));
#956=CARTESIAN_POINT('',(200.161195459,-12.440926231,2.565477298));
#957=CARTESIAN_POINT('',(200.20582787,-12.628529979,2.900649288));
#958=CARTESIAN_POINT('',(200.23926469,-12.721702706,3.067104024));
#959=CARTESIAN_POINT('',(200.283598983,-12.813626304,3.231312841));
#960=CARTESIAN_POINT('',(200.15,-12.453006806,2.120677734));
#961=CARTESIAN_POINT('',(200.149999908,-12.536662435,2.289314457));
#962=CARTESIAN_POINT('',(200.160602868,-12.620317845,2.457950731));
#963=CARTESIAN_POINT('',(200.202880682,-12.786573815,2.793083084));
#964=CARTESIAN_POINT('',(200.234555423,-12.869173934,2.959578263));
#965=CARTESIAN_POINT('',(200.276565532,-12.95072562,3.123946346));
#966=CARTESIAN_POINT('',(200.15,-12.877181093,1.938903594));
#967=CARTESIAN_POINT('',(200.149999915,-12.93800135,2.107404534));
#968=CARTESIAN_POINT('',(200.159597378,-12.998821478,2.275905106));
#969=CARTESIAN_POINT('',(200.197877464,-13.119769729,2.610970111));
#970=CARTESIAN_POINT('',(200.226560003,-13.179897592,2.777533806));
#971=CARTESIAN_POINT('',(200.264620759,-13.239337238,2.942172084));
#972=CARTESIAN_POINT('',(200.15,-13.095039975,1.867118304));
#973=CARTESIAN_POINT('',(200.15,-13.14408895,2.035565498));
#974=CARTESIAN_POINT('',(200.159199021,-13.193137826,2.204012351));
#975=CARTESIAN_POINT('',(200.195893907,-13.290699234,2.539050701));
#976=CARTESIAN_POINT('',(200.223389699,-13.33921157,2.70564152));
#977=CARTESIAN_POINT('',(200.259882597,-13.387190395,2.870386854));
#978=CARTESIAN_POINT('',(200.15,-13.42858297,1.793820152));
#979=CARTESIAN_POINT('',(200.15,-13.459572392,1.962212412));
#980=CARTESIAN_POINT('',(200.158791723,-13.490561756,2.130604361));
#981=CARTESIAN_POINT('',(200.193866114,-13.552215208,2.46561545));
#982=CARTESIAN_POINT('',(200.220148716,-13.582879183,2.63223397));
#983=CARTESIAN_POINT('',(200.255038456,-13.613219532,2.797088703));
#984=CARTESIAN_POINT('',(200.15,-13.541049652,1.775058363));
#985=CARTESIAN_POINT('',(200.15,-13.565943583,1.943436551));
#986=CARTESIAN_POINT('',(200.158687368,-13.590837469,2.111814436));
#987=CARTESIAN_POINT('',(200.1933465,-13.640366786,2.446818539));
#988=CARTESIAN_POINT('',(200.219318201,-13.665002127,2.613444154));
#989=CARTESIAN_POINT('',(200.253797,-13.689380309,2.778326914));
#990=CARTESIAN_POINT('',(200.15,-13.768750412,1.749741302));
#991=CARTESIAN_POINT('',(200.15,-13.781296853,1.918100499));
#992=CARTESIAN_POINT('',(200.158546519,-13.793843271,2.086459401));
#993=CARTESIAN_POINT('',(200.192645159,-13.818808217,2.421454078));
#994=CARTESIAN_POINT('',(200.21819722,-13.831226702,2.588089266));
#995=CARTESIAN_POINT('',(200.252121314,-13.843517925,2.753009852));
#996=CARTESIAN_POINT('',(200.15,-13.884820285,1.743210673));
#997=CARTESIAN_POINT('',(200.149999946,-13.891069286,1.911564968));
#998=CARTESIAN_POINT('',(200.158510065,-13.897318275,2.079918973));
#999=CARTESIAN_POINT('',(200.192463949,-13.909752567,2.414911224));
#1000=CARTESIAN_POINT('',(200.217907654,-13.915937848,2.581548888));
#1001=CARTESIAN_POINT('',(200.251688513,-13.922059757,2.746479243));
#1002=CARTESIAN_POINT('',(200.15,-14.000000259,1.743210653));
#1003=CARTESIAN_POINT('',(200.149999946,-14.000000156,1.911564945));
#1004=CARTESIAN_POINT('',(200.158510065,-14.000000053,2.079918947));
#1005=CARTESIAN_POINT('',(200.192463948,-13.999999847,2.414911191));
#1006=CARTESIAN_POINT('',(200.217907653,-13.999999744,2.581548852));
#1007=CARTESIAN_POINT('',(200.251688512,-13.999999641,2.746479204));
#1008=B_SPLINE_SURFACE_WITH_KNOTS('',3,3,((#900,#901,#902,#903,#904,#905),(#906,#907,#908,#909,#910,#911),(#912,#913,#914,#915,#916,#917),(#918,#919,#920,#921,#922,#923),(#924,#925,#926,#927,#928,#929),(#930,#931,#932,#933,#934,#935),(#936,#937,#938,#939,#940,#941),(#942,#943,#944,#945,#946,#947),(#948,#949,#950,#951,#952,#953),(#954,#955,#956,#957,#958,#959),(#960,#961,#962,#963,#964,#965),(#966,#967,#968,#969,#970,#971),(#972,#973,#974,#975,#976,#977),(#978,#979,#980,#981,#982,#983),(#984,#985,#986,#987,#988,#989),(#990,#991,#992,#993,#994,#995),(#996,#997,#998,#999,#1000,#1001),(#1002,#1003,#1004,#1005,#1006,#1007)),.UNSPECIFIED.,.F.,.F.,.U.,(4,2,2,2,2,2,2,2,4),(4,2,4),(0.026518303,0.026898332,0.027235034,0.027571737,0.028245141,0.028918546,0.029591951,0.029928653,0.030265355),(0.,0.5,1.),.UNSPECIFIED.);
#1009=ORIENTED_EDGE('',*,*,#221,.F.);
#1010=ORIENTED_EDGE('',*,*,#667,.F.);
#1011=ORIENTED_EDGE('',*,*,#571,.F.);
#1012=ORIENTED_EDGE('',*,*,#492,.F.);
#1013=ORIENTED_EDGE('',*,*,#448,.F.);
#1014=EDGE_LOOP('',(#1009,#1010,#1011,#1012,#1013));
#1015=FACE_BOUND('',#1014,.T.);
#1016=ADVANCED_FACE('',(#1015),#1008,.T.);
#1017=CARTESIAN_POINT('',(197.65,-4.034534039,6.399989361));
#1018=CARTESIAN_POINT('',(197.649999997,-4.308524135,6.49067445));
#1019=CARTESIAN_POINT('',(197.675050344,-4.582510131,6.581358181));
#1020=CARTESIAN_POINT('',(197.774503954,-5.122295119,6.760015888));
#1021=CARTESIAN_POINT('',(197.848905727,-5.388086034,6.847987192));
#1022=CARTESIAN_POINT('',(198.044838223,-5.903530536,7.018588626));
#1023=CARTESIAN_POINT('',(198.166366013,-6.153176411,7.101216205));
#1024=CARTESIAN_POINT('',(198.452916915,-6.628863193,7.258658531));
#1025=CARTESIAN_POINT('',(198.617935739,-6.854896983,7.333470922));
#1026=CARTESIAN_POINT('',(198.802234926,-7.065747495,7.403257912));
#1027=CARTESIAN_POINT('',(197.65,-4.155780707,6.033708167));
#1028=CARTESIAN_POINT('',(197.649999999,-4.427346483,6.124271768));
#1029=CARTESIAN_POINT('',(197.674643266,-4.698908329,6.214834059));
#1030=CARTESIAN_POINT('',(197.772492772,-5.234049675,6.393296287));
#1031=CARTESIAN_POINT('',(197.845697593,-5.49762143,6.481193641));
#1032=CARTESIAN_POINT('',(198.038517952,-6.009027189,6.651739345));
#1033=CARTESIAN_POINT('',(198.158130699,-6.25685379,6.734385225));
#1034=CARTESIAN_POINT('',(198.44024927,-6.729476761,6.891995747));
#1035=CARTESIAN_POINT('',(198.602751011,-6.954266289,6.966958107));
#1036=CARTESIAN_POINT('',(198.784309507,-7.164233182,7.036976717));
#1037=CARTESIAN_POINT('',(197.65,-4.278271577,5.667805944));
#1038=CARTESIAN_POINT('',(197.65,-4.547354015,5.758247076));
#1039=CARTESIAN_POINT('',(197.674231786,-4.816432686,5.848686941));
#1040=CARTESIAN_POINT('',(197.770459257,-5.346812058,6.026952061));
#1041=CARTESIAN_POINT('',(197.842453596,-5.608105334,6.11477482));
#1042=CARTESIAN_POINT('',(198.032124698,-6.11535339,6.285264222));
#1043=CARTESIAN_POINT('',(198.149798808,-6.36130107,6.367928478));
#1044=CARTESIAN_POINT('',(198.427426376,-6.83074108,6.525708532));
#1045=CARTESIAN_POINT('',(198.58737595,-7.05422684,6.60082212));
#1046=CARTESIAN_POINT('',(198.76615207,-7.263251265,6.671074495));
#1047=CARTESIAN_POINT('',(197.65,-4.55726228,4.8444798));
#1048=CARTESIAN_POINT('',(197.65,-4.820606877,4.934642802));
#1049=CARTESIAN_POINT('',(197.673294698,-5.083948068,5.024804638));
#1050=CARTESIAN_POINT('',(197.765826851,-5.603311856,5.202622015));
#1051=CARTESIAN_POINT('',(197.835063109,-5.859327737,5.290275255));
#1052=CARTESIAN_POINT('',(198.017554043,-6.356918976,5.460636513));
#1053=CARTESIAN_POINT('',(198.130806361,-6.598487898,5.543342326));
#1054=CARTESIAN_POINT('',(198.398180866,-7.060464781,5.701507325));
#1055=CARTESIAN_POINT('',(198.552299598,-7.280866766,5.776964464));
#1056=CARTESIAN_POINT('',(198.724710647,-7.487622221,5.847748351));
#1057=CARTESIAN_POINT('',(197.65,-4.714455323,4.38742545));
#1058=CARTESIAN_POINT('',(197.649999999,-4.974511208,4.477432268));
#1059=CARTESIAN_POINT('',(197.672766669,-5.234563881,4.567437974));
#1060=CARTESIAN_POINT('',(197.76321564,-5.747605325,4.745003846));
#1061=CARTESIAN_POINT('',(197.830896823,-6.000587758,4.832561816));
#1062=CARTESIAN_POINT('',(198.009336229,-6.492610352,5.002850919));
#1063=CARTESIAN_POINT('',(198.120092247,-6.731644434,5.085579948));
#1064=CARTESIAN_POINT('',(198.381671805,-7.189270824,5.243961069));
#1065=CARTESIAN_POINT('',(198.532492114,-7.407857478,5.319611204));
#1066=CARTESIAN_POINT('',(198.701296843,-7.613251241,5.390694001));
#1067=CARTESIAN_POINT('',(197.65,-4.874094957,3.931322165));
#1068=CARTESIAN_POINT('',(197.649999997,-5.13074814,4.021171297));
#1069=CARTESIAN_POINT('',(197.672231637,-5.387398295,4.111019369));
#1070=CARTESIAN_POINT('',(197.760568773,-5.893888093,4.288331233));
#1071=CARTESIAN_POINT('',(197.826673227,-6.143721761,4.375792934));
#1072=CARTESIAN_POINT('',(198.001001277,-6.629942909,4.546008981));
#1073=CARTESIAN_POINT('',(198.109222817,-6.866324654,4.62876132));
#1074=CARTESIAN_POINT('',(198.364911647,-7.319363419,4.787360598));
#1075=CARTESIAN_POINT('',(198.51237592,-7.536015096,4.863205667));
#1076=CARTESIAN_POINT('',(198.677505195,-7.739927094,4.934590716));
#1077=B_SPLINE_SURFACE_WITH_KNOTS('',3,3,((#1017,#1018,#1019,#1020,#1021,#1022,#1023,#1024,#1025,#1026),(#1027,#1028,#1029,#1030,#1031,#1032,#1033,#1034,#1035,#1036),(#1037,#1038,#1039,#1040,#1041,#1042,#1043,#1044,#1045,#1046),(#1047,#1048,#1049,#1050,#1051,#1052,#1053,#1054,#1055,#1056),(#1057,#1058,#1059,#1060,#1061,#1062,#1063,#1064,#1065,#1066),(#1067,#1068,#1069,#1070,#1071,#1072,#1073,#1074,#1075,#1076)),.UNSPECIFIED.,.F.,.F.,.U.,(4,2,4),(4,2,2,2,4),(0.025770379,0.026926875,0.028375676),(0.,0.25,0.5,0.75,1.),.UNSPECIFIED.);
#1078=ORIENTED_EDGE('',*,*,#546,.F.);
#1079=ORIENTED_EDGE('',*,*,#676,.F.);
#1080=ORIENTED_EDGE('',*,*,#102,.F.);
#1081=ORIENTED_EDGE('',*,*,#587,.F.);
#1082=EDGE_LOOP('',(#1078,#1079,#1080,#1081));
#1083=FACE_BOUND('',#1082,.T.);
#1084=ADVANCED_FACE('',(#1083),#1077,.T.);
#1085=CLOSED_SHELL('',(#153,#225,#249,#273,#290,#302,#334,#399,#434,#475,#510,#575,#598,#616,#634,#646,#680,#714,#782,#899,#1016,#1084));
#1086=MANIFOLD_SOLID_BREP('Quick Connect Top Back',#1085);
#1087=COLOUR_RGB('',0.262745112,0.262745112,0.796078444);
#1088=FILL_AREA_STYLE_COLOUR('',#1087);
#1089=FILL_AREA_STYLE('',(#1088));
#1090=SURFACE_STYLE_FILL_AREA(#1089);
#1091=SURFACE_SIDE_STYLE('',(#1090));
#1092=SURFACE_STYLE_USAGE(.BOTH.,#1091);
#1093=PRESENTATION_STYLE_ASSIGNMENT((#1092));
#26=STYLED_ITEM('',(#1093),#1086);
#16=SHAPE_REPRESENTATION('Quick Connect Top Back',(#15),#10);
#17=ADVANCED_BREP_SHAPE_REPRESENTATION('Quick Connect Top Back',(#1086),#10);
#1101=SHAPE_REPRESENTATION_RELATIONSHIP('','',#16,#17);
#1102=CARTESIAN_POINT('',(0.,0.,0.));
#1103=DIRECTION('',(0.,0.,1.));
#1104=DIRECTION('',(1.,0.,0.));
#1105=AXIS2_PLACEMENT_3D('',#1102,#1103,#1104);
#1107=MAPPED_ITEM('',#1106,#1105);
#1106=REPRESENTATION_MAP(#1105,#16);
#1108=APPLICATION_CONTEXT('Managed model based 3d engineering');
#1109=APPLICATION_PROTOCOL_DEFINITION('international standard','ap242_managed_model_based_3d_engineering',2014,#1108);
#1110=PRODUCT_CONTEXT('',#1108,'mechanical');
#1111=PRODUCT_DEFINITION_CONTEXT('part definition',#1108,'design');
#24=PRODUCT('Quick Connect Top Back','Quick Connect Top Back','',(#1110));
#1112=PRODUCT_RELATED_PRODUCT_CATEGORY('part','',(#24));
#1113=PRODUCT_DEFINITION_FORMATION_WITH_SPECIFIED_SOURCE('','',#24,.NOT_KNOWN.);
#25=PRODUCT_DEFINITION('design','',#1113,#1111);
#23=PRODUCT_DEFINITION_SHAPE('','',#25);
#1114=SHAPE_DEFINITION_REPRESENTATION(#23,#16);
#11=DRAUGHTING_MODEL('',(#1107),#10);
#1115=DESCRIPTIVE_REPRESENTATION_ITEM('KEY','/Users/ddanier/Library/Containers/com.shapr3d.shapr/Data/tmp/BA106FC1-1781-4760-800E-2B02BD93C20E.tmp');
#1116=PROPERTY_DEFINITION('KEY','',#25);
#1117=REPRESENTATION('',(#1115),#10);
#1118=PROPERTY_DEFINITION_REPRESENTATION(#1116,#1117);
#1119=GENERAL_PROPERTY('','KEY','');
#1120=GENERAL_PROPERTY_ASSOCIATION('','',#1119,#1116);
#1=MECHANICAL_DESIGN_GEOMETRIC_PRESENTATION_REPRESENTATION('',(#26),#10);
ENDSEC;
END-ISO-10303-21;
