ISO-10303-21;
HEADER;

/* File generated by Shapr3D Version 5.800.0.8232 */

FILE_DESCRIPTION(('HOOPS Exchange Step'),'2;1');

FILE_NAME('/Users/ddanier/Library/Containers/com.shapr3d.shapr/Data/tmp/export/temp_export',
'2025-03-02T22:00:28+01:00',
('ddanier'),
('Shapr3D Limited'),
'HOOPS Exchange 2024.8',
'Shapr3D',
'Authorized');

FILE_SCHEMA( ('AP242_MANAGED_MODEL_BASED_3D_ENGINEERING_MIM_LF {1 0 10303 442 1 1 4}') );

ENDSEC;

DATA;
#3=(NAMED_UNIT(*)PLANE_ANGLE_UNIT()SI_UNIT($,.RADIAN.));
#4=PLANE_ANGLE_MEASURE_WITH_UNIT(PLANE_ANGLE_MEASURE(0.0174532925),#3);
#5=(CONVERSION_BASED_UNIT('DEGREE',#4)NAMED_UNIT(#6)PLANE_ANGLE_UNIT());
#6=DIMENSIONAL_EXPONENTS(0.,0.,0.,0.,0.,0.,0.);
#7=(NAMED_UNIT(*)SI_UNIT($,.STERADIAN.)SOLID_ANGLE_UNIT());
#8=(LENGTH_UNIT()NAMED_UNIT(*)SI_UNIT(.MILLI.,.METRE.));
#9=UNCERTAINTY_MEASURE_WITH_UNIT(LENGTH_MEASURE(1.000000E-05),#8,'DISTANCE_ACCURACY_VALUE','Maximum Tolerance applied to model');
#10=(GEOMETRIC_REPRESENTATION_CONTEXT(3)GLOBAL_UNCERTAINTY_ASSIGNED_CONTEXT((#9))GLOBAL_UNIT_ASSIGNED_CONTEXT((#8,#5,#7))REPRESENTATION_CONTEXT('','Snap In Quick Connect Top Back'));
#12=CARTESIAN_POINT('',(0.,0.,0.));
#13=DIRECTION('',(0.,0.,1.));
#14=DIRECTION('',(1.,0.,0.));
#15=AXIS2_PLACEMENT_3D('TS3D_PRODUCT_CSYS',#12,#13,#14);
#27=CARTESIAN_POINT('',(255.85,-4.758557449,2.248));
#28=DIRECTION('',(-0.99719931,-0.074789948,0.));
#29=DIRECTION('',(0.074789948,-0.99719931,0.));
#30=AXIS2_PLACEMENT_3D('',#27,#28,#29);
#31=PLANE('',#30);
#32=CARTESIAN_POINT('',(255.55,-0.758557449,4.062132034));
#33=VERTEX_POINT('',#32);
#34=CARTESIAN_POINT('',(255.759201437,-3.547909939,3.462132034));
#35=VERTEX_POINT('',#34);
#36=CARTESIAN_POINT('',(255.55,-0.758557449,4.062132034));
#37=CARTESIAN_POINT('',(255.621450415,-1.711229643,3.990681619));
#38=CARTESIAN_POINT('',(255.691009104,-2.638678839,3.777567378));
#39=CARTESIAN_POINT('',(255.759201437,-3.547909939,3.462132034));
#40=B_SPLINE_CURVE_WITH_KNOTS('',3,(#36,#37,#38,#39),.UNSPECIFIED.,.F.,.F.,(4,4),(0.000708517,0.003567616),.UNSPECIFIED.);
#41=EDGE_CURVE('',#33,#35,#40,.T.);
#42=ORIENTED_EDGE('',*,*,#41,.T.);
#43=CARTESIAN_POINT('',(255.759201437,-3.547909939,2.25));
#44=VERTEX_POINT('',#43);
#45=CARTESIAN_POINT('',(255.759201437,-3.547909939,3.462132034));
#46=DIRECTION('',(-0.,-0.,-1.));
#47=VECTOR('',#46,1.212132034);
#48=LINE('',#45,#47);
#49=EDGE_CURVE('',#35,#44,#48,.T.);
#50=ORIENTED_EDGE('',*,*,#49,.T.);
#51=CARTESIAN_POINT('',(256.15,-8.758557449,2.25));
#52=VERTEX_POINT('',#51);
#53=CARTESIAN_POINT('',(255.759201437,-3.547909939,2.25));
#54=DIRECTION('',(0.074789948,-0.99719931,0.));
#55=VECTOR('',#54,5.225281905);
#56=LINE('',#53,#55);
#57=EDGE_CURVE('',#44,#52,#56,.T.);
#58=ORIENTED_EDGE('',*,*,#57,.T.);
#59=CARTESIAN_POINT('',(256.15,-8.758557449,3.462132034));
#60=VERTEX_POINT('',#59);
#61=CARTESIAN_POINT('',(256.15,-8.758557449,2.25));
#62=DIRECTION('',(0.,0.,1.));
#63=VECTOR('',#62,1.212132034);
#64=LINE('',#61,#63);
#65=EDGE_CURVE('',#52,#60,#64,.T.);
#66=ORIENTED_EDGE('',*,*,#65,.T.);
#67=CARTESIAN_POINT('',(255.55,-0.758557449,4.062132034));
#68=DIRECTION('',(0.074581652,-0.99442202,-0.074581652));
#69=VECTOR('',#68,8.044874144);
#70=LINE('',#67,#69);
#71=EDGE_CURVE('',#33,#60,#70,.T.);
#72=ORIENTED_EDGE('',*,*,#71,.F.);
#73=EDGE_LOOP('',(#42,#50,#58,#66,#72));
#74=FACE_BOUND('',#73,.T.);
#75=ADVANCED_FACE('',(#74),#31,.T.);
#76=CARTESIAN_POINT('',(236.15,-4.758557449,2.248));
#77=DIRECTION('',(0.99719931,-0.074789948,0.));
#78=DIRECTION('',(0.074789948,0.99719931,0.));
#79=AXIS2_PLACEMENT_3D('',#76,#77,#78);
#80=PLANE('',#79);
#81=CARTESIAN_POINT('',(235.85,-8.758557449,2.25));
#82=VERTEX_POINT('',#81);
#83=CARTESIAN_POINT('',(236.240798563,-3.547909939,2.25));
#84=VERTEX_POINT('',#83);
#85=CARTESIAN_POINT('',(235.85,-8.758557449,2.25));
#86=DIRECTION('',(0.074789948,0.99719931,0.));
#87=VECTOR('',#86,5.225281905);
#88=LINE('',#85,#87);
#89=EDGE_CURVE('',#82,#84,#88,.T.);
#90=ORIENTED_EDGE('',*,*,#89,.T.);
#91=CARTESIAN_POINT('',(236.240798563,-3.547909939,3.462132034));
#92=VERTEX_POINT('',#91);
#93=CARTESIAN_POINT('',(236.240798563,-3.547909939,2.25));
#94=DIRECTION('',(0.,0.,1.));
#95=VECTOR('',#94,1.212132034);
#96=LINE('',#93,#95);
#97=EDGE_CURVE('',#84,#92,#96,.T.);
#98=ORIENTED_EDGE('',*,*,#97,.T.);
#99=CARTESIAN_POINT('',(236.45,-0.758557449,4.062132034));
#100=VERTEX_POINT('',#99);
#101=CARTESIAN_POINT('',(236.240798563,-3.547909939,3.462132034));
#102=CARTESIAN_POINT('',(236.308990896,-2.638678839,3.777567378));
#103=CARTESIAN_POINT('',(236.378549585,-1.711229643,3.99068162));
#104=CARTESIAN_POINT('',(236.45,-0.758557449,4.062132034));
#105=B_SPLINE_CURVE_WITH_KNOTS('',3,(#101,#102,#103,#104),.UNSPECIFIED.,.F.,.F.,(4,4),(0.000002114,0.002861214),.UNSPECIFIED.);
#106=EDGE_CURVE('',#92,#100,#105,.T.);
#107=ORIENTED_EDGE('',*,*,#106,.T.);
#108=CARTESIAN_POINT('',(235.85,-8.758557449,3.462132034));
#109=VERTEX_POINT('',#108);
#110=CARTESIAN_POINT('',(236.45,-0.758557449,4.062132034));
#111=DIRECTION('',(-0.074581652,-0.99442202,-0.074581652));
#112=VECTOR('',#111,8.044874144);
#113=LINE('',#110,#112);
#114=EDGE_CURVE('',#100,#109,#113,.T.);
#115=ORIENTED_EDGE('',*,*,#114,.T.);
#116=CARTESIAN_POINT('',(235.85,-8.758557449,2.25));
#117=DIRECTION('',(0.,0.,1.));
#118=VECTOR('',#117,1.212132034);
#119=LINE('',#116,#118);
#120=EDGE_CURVE('',#82,#109,#119,.T.);
#121=ORIENTED_EDGE('',*,*,#120,.F.);
#122=EDGE_LOOP('',(#90,#98,#107,#115,#121));
#123=FACE_BOUND('',#122,.T.);
#124=ADVANCED_FACE('',(#123),#80,.T.);
#125=CARTESIAN_POINT('',(235.85,-0.,2.856066017));
#126=DIRECTION('',(1.,0.,0.));
#127=DIRECTION('',(0.,0.,-1.));
#128=AXIS2_PLACEMENT_3D('',#125,#126,#127);
#129=PLANE('',#128);
#130=CARTESIAN_POINT('',(235.85,-14.,2.25));
#131=VERTEX_POINT('',#130);
#132=CARTESIAN_POINT('',(235.85,-11.741354931,3.462132034));
#133=VERTEX_POINT('',#132);
#134=CARTESIAN_POINT('',(235.85,-14.,2.25));
#135=CARTESIAN_POINT('',(235.85,-13.778206111,2.249999986));
#136=CARTESIAN_POINT('',(235.85,-13.561806043,2.285429967));
#137=CARTESIAN_POINT('',(235.85,-13.350069051,2.35148996));
#138=CARTESIAN_POINT('',(235.85,-13.138332058,2.417549953));
#139=CARTESIAN_POINT('',(235.85,-12.939230015,2.511535346));
#140=CARTESIAN_POINT('',(235.85,-12.750907709,2.623841188));
#141=CARTESIAN_POINT('',(235.85,-12.562585403,2.736147031));
#142=CARTESIAN_POINT('',(235.85,-12.383312388,2.868213234));
#143=CARTESIAN_POINT('',(235.85,-12.215799906,3.009807491));
#144=CARTESIAN_POINT('',(235.85,-12.048287425,3.151401748));
#145=CARTESIAN_POINT('',(235.85,-11.891201291,3.303217964));
#146=CARTESIAN_POINT('',(235.85,-11.741354931,3.462132034));
#147=B_SPLINE_CURVE_WITH_KNOTS('',3,(#134,#135,#136,#137,#138,#139,#140,#141,#142,#143,#144,#145,#146),.UNSPECIFIED.,.F.,.F.,(4,3,3,3,4),(0.008824968,0.00948392,0.010142872,0.010801824,0.011460777),.UNSPECIFIED.);
#148=EDGE_CURVE('',#131,#133,#147,.T.);
#149=ORIENTED_EDGE('',*,*,#148,.F.);
#150=CARTESIAN_POINT('',(235.85,-8.758557449,2.25));
#151=DIRECTION('',(0.,-1.,0.));
#152=VECTOR('',#151,5.241442551);
#153=LINE('',#150,#152);
#154=EDGE_CURVE('',#82,#131,#153,.T.);
#155=ORIENTED_EDGE('',*,*,#154,.F.);
#156=ORIENTED_EDGE('',*,*,#120,.T.);
#157=CARTESIAN_POINT('',(235.85,-8.758557449,3.462132034));
#158=DIRECTION('',(0.,-1.,0.));
#159=VECTOR('',#158,2.982797483);
#160=LINE('',#157,#159);
#161=EDGE_CURVE('',#109,#133,#160,.T.);
#162=ORIENTED_EDGE('',*,*,#161,.T.);
#163=EDGE_LOOP('',(#149,#155,#156,#162));
#164=FACE_BOUND('',#163,.T.);
#165=ADVANCED_FACE('',(#164),#129,.T.);
#166=CARTESIAN_POINT('',(251.075,-0.,2.25));
#167=DIRECTION('',(0.,0.,-1.));
#168=DIRECTION('',(-1.,0.,-0.));
#169=AXIS2_PLACEMENT_3D('',#166,#167,#168);
#170=PLANE('',#169);
#171=CARTESIAN_POINT('',(256.15,-14.,2.25));
#172=VERTEX_POINT('',#171);
#173=CARTESIAN_POINT('',(235.85,-14.,2.25));
#174=DIRECTION('',(1.,0.,0.));
#175=VECTOR('',#174,20.3);
#176=LINE('',#173,#175);
#177=EDGE_CURVE('',#131,#172,#176,.T.);
#178=ORIENTED_EDGE('',*,*,#177,.T.);
#179=CARTESIAN_POINT('',(256.15,-8.758557449,2.25));
#180=DIRECTION('',(0.,-1.,0.));
#181=VECTOR('',#180,5.241442551);
#182=LINE('',#179,#181);
#183=EDGE_CURVE('',#52,#172,#182,.T.);
#184=ORIENTED_EDGE('',*,*,#183,.F.);
#185=ORIENTED_EDGE('',*,*,#57,.F.);
#186=CARTESIAN_POINT('',(256.15,-0.758557449,2.25));
#187=VERTEX_POINT('',#186);
#188=CARTESIAN_POINT('',(246.,-0.758557449,2.25));
#189=DIRECTION('',(0.,0.,1.));
#190=DIRECTION('',(1.,0.,-0.));
#191=AXIS2_PLACEMENT_3D('',#188,#189,#190);
#192=CIRCLE('',#191,10.15);
#193=EDGE_CURVE('',#44,#187,#192,.T.);
#194=ORIENTED_EDGE('',*,*,#193,.T.);
#195=CARTESIAN_POINT('',(256.15,-0.,2.25));
#196=VERTEX_POINT('',#195);
#197=CARTESIAN_POINT('',(256.15,-0.,2.25));
#198=DIRECTION('',(0.,-1.,0.));
#199=VECTOR('',#198,0.758557449);
#200=LINE('',#197,#199);
#201=EDGE_CURVE('',#196,#187,#200,.T.);
#202=ORIENTED_EDGE('',*,*,#201,.F.);
#203=CARTESIAN_POINT('',(235.85,-0.,2.25));
#204=VERTEX_POINT('',#203);
#205=CARTESIAN_POINT('',(246.,-0.,2.25));
#206=DIRECTION('',(0.,0.,1.));
#207=DIRECTION('',(1.,0.,-0.));
#208=AXIS2_PLACEMENT_3D('',#205,#206,#207);
#209=CIRCLE('',#208,10.15);
#210=EDGE_CURVE('',#196,#204,#209,.T.);
#211=ORIENTED_EDGE('',*,*,#210,.T.);
#212=CARTESIAN_POINT('',(235.85,-0.758557449,2.25));
#213=VERTEX_POINT('',#212);
#214=CARTESIAN_POINT('',(235.85,-0.,2.25));
#215=DIRECTION('',(0.,-1.,0.));
#216=VECTOR('',#215,0.758557449);
#217=LINE('',#214,#216);
#218=EDGE_CURVE('',#204,#213,#217,.T.);
#219=ORIENTED_EDGE('',*,*,#218,.T.);
#220=CARTESIAN_POINT('',(246.,-0.758557449,2.25));
#221=DIRECTION('',(0.,0.,1.));
#222=DIRECTION('',(1.,0.,-0.));
#223=AXIS2_PLACEMENT_3D('',#220,#221,#222);
#224=CIRCLE('',#223,10.15);
#225=EDGE_CURVE('',#213,#84,#224,.T.);
#226=ORIENTED_EDGE('',*,*,#225,.T.);
#227=ORIENTED_EDGE('',*,*,#89,.F.);
#228=ORIENTED_EDGE('',*,*,#154,.T.);
#229=EDGE_LOOP('',(#178,#184,#185,#194,#202,#211,#219,#226,#227,#228));
#230=FACE_BOUND('',#229,.T.);
#231=ADVANCED_FACE('',(#230),#170,.F.);
#232=CARTESIAN_POINT('',(256.15,-0.,2.856066017));
#233=DIRECTION('',(1.,0.,0.));
#234=DIRECTION('',(0.,0.,-1.));
#235=AXIS2_PLACEMENT_3D('',#232,#233,#234);
#236=PLANE('',#235);
#237=ORIENTED_EDGE('',*,*,#183,.T.);
#238=CARTESIAN_POINT('',(256.15,-11.741354931,3.462132034));
#239=VERTEX_POINT('',#238);
#240=CARTESIAN_POINT('',(256.15,-14.,2.25));
#241=CARTESIAN_POINT('',(256.15,-13.778206111,2.249999986));
#242=CARTESIAN_POINT('',(256.15,-13.561806043,2.285429967));
#243=CARTESIAN_POINT('',(256.15,-13.350069051,2.35148996));
#244=CARTESIAN_POINT('',(256.15,-13.138332058,2.417549953));
#245=CARTESIAN_POINT('',(256.15,-12.939230015,2.511535346));
#246=CARTESIAN_POINT('',(256.15,-12.750907709,2.623841188));
#247=CARTESIAN_POINT('',(256.15,-12.562585403,2.736147031));
#248=CARTESIAN_POINT('',(256.15,-12.383312388,2.868213234));
#249=CARTESIAN_POINT('',(256.15,-12.215799906,3.009807491));
#250=CARTESIAN_POINT('',(256.15,-12.048287425,3.151401748));
#251=CARTESIAN_POINT('',(256.15,-11.891201291,3.303217964));
#252=CARTESIAN_POINT('',(256.15,-11.741354931,3.462132034));
#253=B_SPLINE_CURVE_WITH_KNOTS('',3,(#240,#241,#242,#243,#244,#245,#246,#247,#248,#249,#250,#251,#252),.UNSPECIFIED.,.F.,.F.,(4,3,3,3,4),(0.008824968,0.00948392,0.010142872,0.010801824,0.011460777),.UNSPECIFIED.);
#254=EDGE_CURVE('',#172,#239,#253,.T.);
#255=ORIENTED_EDGE('',*,*,#254,.T.);
#256=CARTESIAN_POINT('',(256.15,-8.758557449,3.462132034));
#257=DIRECTION('',(0.,-1.,0.));
#258=VECTOR('',#257,2.982797483);
#259=LINE('',#256,#258);
#260=EDGE_CURVE('',#60,#239,#259,.T.);
#261=ORIENTED_EDGE('',*,*,#260,.F.);
#262=ORIENTED_EDGE('',*,*,#65,.F.);
#263=EDGE_LOOP('',(#237,#255,#261,#262));
#264=FACE_BOUND('',#263,.T.);
#265=ADVANCED_FACE('',(#264),#236,.F.);
#266=CARTESIAN_POINT('',(237.1,-0.,4.712132034));
#267=DIRECTION('',(0.707106781,0.,-0.707106781));
#268=DIRECTION('',(-0.707106781,0.,-0.707106781));
#269=AXIS2_PLACEMENT_3D('',#266,#267,#268);
#270=PLANE('',#269);
#271=CARTESIAN_POINT('',(238.35,-6.221021945,5.962132034));
#272=VERTEX_POINT('',#271);
#273=CARTESIAN_POINT('',(248.66747063,-14.,16.279602664));
#274=DIRECTION('',(0.707106781,0.,-0.707106781));
#275=DIRECTION('',(0.707106781,0.,0.707106781));
#276=AXIS2_PLACEMENT_3D('',#273,#274,#275);
#277=ELLIPSE('',#276,18.418057106,12.747431671);
#278=EDGE_CURVE('',#133,#272,#277,.T.);
#279=ORIENTED_EDGE('',*,*,#278,.F.);
#280=ORIENTED_EDGE('',*,*,#161,.F.);
#281=ORIENTED_EDGE('',*,*,#114,.F.);
#282=CARTESIAN_POINT('',(235.85,-0.758557449,3.462132034));
#283=VERTEX_POINT('',#282);
#284=CARTESIAN_POINT('',(236.45,-0.758557449,4.062132034));
#285=DIRECTION('',(-0.707106781,0.,-0.707106781));
#286=VECTOR('',#285,0.848528137);
#287=LINE('',#284,#286);
#288=EDGE_CURVE('',#100,#283,#287,.T.);
#289=ORIENTED_EDGE('',*,*,#288,.T.);
#290=CARTESIAN_POINT('',(235.85,-0.,3.462132034));
#291=VERTEX_POINT('',#290);
#292=CARTESIAN_POINT('',(235.85,-0.,3.462132034));
#293=DIRECTION('',(0.,-1.,0.));
#294=VECTOR('',#293,0.758557449);
#295=LINE('',#292,#294);
#296=EDGE_CURVE('',#291,#283,#295,.T.);
#297=ORIENTED_EDGE('',*,*,#296,.F.);
#298=CARTESIAN_POINT('',(238.35,-0.,5.962132034));
#299=VERTEX_POINT('',#298);
#300=CARTESIAN_POINT('',(235.85,-0.,3.462132034));
#301=DIRECTION('',(0.707106781,0.,0.707106781));
#302=VECTOR('',#301,3.535533906);
#303=LINE('',#300,#302);
#304=EDGE_CURVE('',#291,#299,#303,.T.);
#305=ORIENTED_EDGE('',*,*,#304,.T.);
#306=CARTESIAN_POINT('',(238.35,-0.,5.962132034));
#307=DIRECTION('',(0.,-1.,0.));
#308=VECTOR('',#307,6.221021945);
#309=LINE('',#306,#308);
#310=EDGE_CURVE('',#299,#272,#309,.T.);
#311=ORIENTED_EDGE('',*,*,#310,.T.);
#312=EDGE_LOOP('',(#279,#280,#281,#289,#297,#305,#311));
#313=FACE_BOUND('',#312,.T.);
#314=ADVANCED_FACE('',(#313),#270,.T.);
#315=CARTESIAN_POINT('',(196.,0.,6.4));
#316=DIRECTION('',(0.,0.,1.));
#317=DIRECTION('',(1.,0.,0.));
#318=AXIS2_PLACEMENT_3D('',#315,#316,#317);
#319=PLANE('',#318);
#320=CARTESIAN_POINT('',(257.,-14.,6.4));
#321=VERTEX_POINT('',#320);
#322=CARTESIAN_POINT('',(253.65,-6.095729003,6.4));
#323=VERTEX_POINT('',#322);
#324=CARTESIAN_POINT('',(246.,-14.,6.4));
#325=DIRECTION('',(0.,0.,1.));
#326=DIRECTION('',(1.,0.,-0.));
#327=AXIS2_PLACEMENT_3D('',#324,#325,#326);
#328=CIRCLE('',#327,11.);
#329=EDGE_CURVE('',#321,#323,#328,.T.);
#330=ORIENTED_EDGE('',*,*,#329,.F.);
#331=CARTESIAN_POINT('',(260.,-14.,6.4));
#332=VERTEX_POINT('',#331);
#333=CARTESIAN_POINT('',(260.,-14.,6.4));
#334=DIRECTION('',(-1.,-0.,0.));
#335=VECTOR('',#334,3.);
#336=LINE('',#333,#335);
#337=EDGE_CURVE('',#332,#321,#336,.T.);
#338=ORIENTED_EDGE('',*,*,#337,.F.);
#339=CARTESIAN_POINT('',(260.,14.,6.4));
#340=VERTEX_POINT('',#339);
#341=CARTESIAN_POINT('',(260.,14.,6.4));
#342=DIRECTION('',(0.,-1.,0.));
#343=VECTOR('',#342,28.);
#344=LINE('',#341,#343);
#345=EDGE_CURVE('',#340,#332,#344,.T.);
#346=ORIENTED_EDGE('',*,*,#345,.F.);
#347=CARTESIAN_POINT('',(232.,14.,6.4));
#348=VERTEX_POINT('',#347);
#349=CARTESIAN_POINT('',(232.,14.,6.4));
#350=DIRECTION('',(1.,0.,-0.));
#351=VECTOR('',#350,28.);
#352=LINE('',#349,#351);
#353=EDGE_CURVE('',#348,#340,#352,.T.);
#354=ORIENTED_EDGE('',*,*,#353,.F.);
#355=CARTESIAN_POINT('',(232.,-14.,6.4));
#356=VERTEX_POINT('',#355);
#357=CARTESIAN_POINT('',(232.,-14.,6.4));
#358=DIRECTION('',(-0.,1.,0.));
#359=VECTOR('',#358,28.);
#360=LINE('',#357,#359);
#361=EDGE_CURVE('',#356,#348,#360,.T.);
#362=ORIENTED_EDGE('',*,*,#361,.F.);
#363=CARTESIAN_POINT('',(235.,-14.,6.4));
#364=VERTEX_POINT('',#363);
#365=CARTESIAN_POINT('',(235.,-14.,6.4));
#366=DIRECTION('',(-1.,-0.,0.));
#367=VECTOR('',#366,3.);
#368=LINE('',#365,#367);
#369=EDGE_CURVE('',#364,#356,#368,.T.);
#370=ORIENTED_EDGE('',*,*,#369,.F.);
#371=CARTESIAN_POINT('',(238.35,-6.095729003,6.4));
#372=VERTEX_POINT('',#371);
#373=CARTESIAN_POINT('',(246.,-14.,6.4));
#374=DIRECTION('',(0.,0.,1.));
#375=DIRECTION('',(1.,0.,-0.));
#376=AXIS2_PLACEMENT_3D('',#373,#374,#375);
#377=CIRCLE('',#376,11.);
#378=EDGE_CURVE('',#372,#364,#377,.T.);
#379=ORIENTED_EDGE('',*,*,#378,.F.);
#380=CARTESIAN_POINT('',(238.35,-0.,6.4));
#381=VERTEX_POINT('',#380);
#382=CARTESIAN_POINT('',(238.35,-0.,6.4));
#383=DIRECTION('',(0.,-1.,0.));
#384=VECTOR('',#383,6.095729003);
#385=LINE('',#382,#384);
#386=EDGE_CURVE('',#381,#372,#385,.T.);
#387=ORIENTED_EDGE('',*,*,#386,.F.);
#388=CARTESIAN_POINT('',(253.65,-0.,6.4));
#389=VERTEX_POINT('',#388);
#390=CARTESIAN_POINT('',(246.,-0.,6.4));
#391=DIRECTION('',(0.,0.,1.));
#392=DIRECTION('',(1.,0.,-0.));
#393=AXIS2_PLACEMENT_3D('',#390,#391,#392);
#394=CIRCLE('',#393,7.65);
#395=EDGE_CURVE('',#389,#381,#394,.T.);
#396=ORIENTED_EDGE('',*,*,#395,.F.);
#397=CARTESIAN_POINT('',(253.65,-0.,6.4));
#398=DIRECTION('',(0.,-1.,0.));
#399=VECTOR('',#398,6.095729003);
#400=LINE('',#397,#399);
#401=EDGE_CURVE('',#389,#323,#400,.T.);
#402=ORIENTED_EDGE('',*,*,#401,.T.);
#403=EDGE_LOOP('',(#330,#338,#346,#354,#362,#370,#379,#387,#396,#402));
#404=FACE_BOUND('',#403,.T.);
#405=ADVANCED_FACE('',(#404),#319,.T.);
#406=CARTESIAN_POINT('',(246.,-14.,6.4));
#407=DIRECTION('',(0.,-1.,0.));
#408=DIRECTION('',(1.,0.,0.));
#409=AXIS2_PLACEMENT_3D('',#406,#407,#408);
#410=PLANE('',#409);
#411=CARTESIAN_POINT('',(256.15,-14.,2.25));
#412=DIRECTION('',(0.20065371,0.,0.979662232));
#413=VECTOR('',#412,4.236153916);
#414=LINE('',#411,#413);
#415=EDGE_CURVE('',#172,#321,#414,.T.);
#416=ORIENTED_EDGE('',*,*,#415,.F.);
#417=ORIENTED_EDGE('',*,*,#177,.F.);
#418=CARTESIAN_POINT('',(235.,-14.,6.4));
#419=DIRECTION('',(0.20065371,0.,-0.979662232));
#420=VECTOR('',#419,4.236153916);
#421=LINE('',#418,#420);
#422=EDGE_CURVE('',#364,#131,#421,.T.);
#423=ORIENTED_EDGE('',*,*,#422,.F.);
#424=ORIENTED_EDGE('',*,*,#369,.T.);
#425=CARTESIAN_POINT('',(232.,-14.,0.));
#426=VERTEX_POINT('',#425);
#427=CARTESIAN_POINT('',(232.,-14.,6.4));
#428=DIRECTION('',(0.,0.,-1.));
#429=VECTOR('',#428,6.4);
#430=LINE('',#427,#429);
#431=EDGE_CURVE('',#356,#426,#430,.T.);
#432=ORIENTED_EDGE('',*,*,#431,.T.);
#433=CARTESIAN_POINT('',(260.,-14.,0.));
#434=VERTEX_POINT('',#433);
#435=CARTESIAN_POINT('',(260.,-14.,0.));
#436=DIRECTION('',(-1.,-0.,0.));
#437=VECTOR('',#436,28.);
#438=LINE('',#435,#437);
#439=EDGE_CURVE('',#434,#426,#438,.T.);
#440=ORIENTED_EDGE('',*,*,#439,.F.);
#441=CARTESIAN_POINT('',(260.,-14.,6.4));
#442=DIRECTION('',(0.,0.,-1.));
#443=VECTOR('',#442,6.4);
#444=LINE('',#441,#443);
#445=EDGE_CURVE('',#332,#434,#444,.T.);
#446=ORIENTED_EDGE('',*,*,#445,.F.);
#447=ORIENTED_EDGE('',*,*,#337,.T.);
#448=EDGE_LOOP('',(#416,#417,#423,#424,#432,#440,#446,#447));
#449=FACE_BOUND('',#448,.T.);
#450=ADVANCED_FACE('',(#449),#410,.T.);
#451=CARTESIAN_POINT('',(260.,0.,6.4));
#452=DIRECTION('',(1.,0.,0.));
#453=DIRECTION('',(0.,0.,-1.));
#454=AXIS2_PLACEMENT_3D('',#451,#452,#453);
#455=PLANE('',#454);
#456=CARTESIAN_POINT('',(260.,14.,0.));
#457=VERTEX_POINT('',#456);
#458=CARTESIAN_POINT('',(260.,14.,0.));
#459=DIRECTION('',(0.,-1.,0.));
#460=VECTOR('',#459,28.);
#461=LINE('',#458,#460);
#462=EDGE_CURVE('',#457,#434,#461,.T.);
#463=ORIENTED_EDGE('',*,*,#462,.F.);
#464=CARTESIAN_POINT('',(260.,14.,6.4));
#465=DIRECTION('',(0.,0.,-1.));
#466=VECTOR('',#465,6.4);
#467=LINE('',#464,#466);
#468=EDGE_CURVE('',#340,#457,#467,.T.);
#469=ORIENTED_EDGE('',*,*,#468,.F.);
#470=ORIENTED_EDGE('',*,*,#345,.T.);
#471=ORIENTED_EDGE('',*,*,#445,.T.);
#472=EDGE_LOOP('',(#463,#469,#470,#471));
#473=FACE_BOUND('',#472,.T.);
#474=ADVANCED_FACE('',(#473),#455,.T.);
#475=CARTESIAN_POINT('',(246.,14.,6.4));
#476=DIRECTION('',(0.,1.,0.));
#477=DIRECTION('',(0.,0.,1.));
#478=AXIS2_PLACEMENT_3D('',#475,#476,#477);
#479=PLANE('',#478);
#480=CARTESIAN_POINT('',(232.,14.,0.));
#481=VERTEX_POINT('',#480);
#482=CARTESIAN_POINT('',(232.,14.,0.));
#483=DIRECTION('',(1.,0.,-0.));
#484=VECTOR('',#483,28.);
#485=LINE('',#482,#484);
#486=EDGE_CURVE('',#481,#457,#485,.T.);
#487=ORIENTED_EDGE('',*,*,#486,.F.);
#488=CARTESIAN_POINT('',(232.,14.,6.4));
#489=DIRECTION('',(0.,0.,-1.));
#490=VECTOR('',#489,6.4);
#491=LINE('',#488,#490);
#492=EDGE_CURVE('',#348,#481,#491,.T.);
#493=ORIENTED_EDGE('',*,*,#492,.F.);
#494=ORIENTED_EDGE('',*,*,#353,.T.);
#495=ORIENTED_EDGE('',*,*,#468,.T.);
#496=EDGE_LOOP('',(#487,#493,#494,#495));
#497=FACE_BOUND('',#496,.T.);
#498=ADVANCED_FACE('',(#497),#479,.T.);
#499=CARTESIAN_POINT('',(232.,0.,6.4));
#500=DIRECTION('',(-1.,-0.,0.));
#501=DIRECTION('',(0.,-1.,0.));
#502=AXIS2_PLACEMENT_3D('',#499,#500,#501);
#503=PLANE('',#502);
#504=CARTESIAN_POINT('',(232.,-14.,0.));
#505=DIRECTION('',(-0.,1.,0.));
#506=VECTOR('',#505,28.);
#507=LINE('',#504,#506);
#508=EDGE_CURVE('',#426,#481,#507,.T.);
#509=ORIENTED_EDGE('',*,*,#508,.F.);
#510=ORIENTED_EDGE('',*,*,#431,.F.);
#511=ORIENTED_EDGE('',*,*,#361,.T.);
#512=ORIENTED_EDGE('',*,*,#492,.T.);
#513=EDGE_LOOP('',(#509,#510,#511,#512));
#514=FACE_BOUND('',#513,.T.);
#515=ADVANCED_FACE('',(#514),#503,.T.);
#516=CARTESIAN_POINT('',(196.,0.,0.));
#517=DIRECTION('',(0.,0.,1.));
#518=DIRECTION('',(1.,0.,0.));
#519=AXIS2_PLACEMENT_3D('',#516,#517,#518);
#520=PLANE('',#519);
#521=ORIENTED_EDGE('',*,*,#462,.T.);
#522=ORIENTED_EDGE('',*,*,#439,.T.);
#523=ORIENTED_EDGE('',*,*,#508,.T.);
#524=ORIENTED_EDGE('',*,*,#486,.T.);
#525=EDGE_LOOP('',(#521,#522,#523,#524));
#526=FACE_BOUND('',#525,.T.);
#527=ADVANCED_FACE('',(#526),#520,.F.);
#528=CARTESIAN_POINT('',(238.35,-0.,6.181066017));
#529=DIRECTION('',(1.,0.,0.));
#530=DIRECTION('',(0.,0.,-1.));
#531=AXIS2_PLACEMENT_3D('',#528,#529,#530);
#532=PLANE('',#531);
#533=CARTESIAN_POINT('',(238.35,-6.221021945,5.962132034));
#534=CARTESIAN_POINT('',(238.35,-6.179107709,6.108038972));
#535=CARTESIAN_POINT('',(238.35,-6.137345672,6.253995706));
#536=CARTESIAN_POINT('',(238.35,-6.095729003,6.4));
#537=B_SPLINE_CURVE_WITH_KNOTS('',3,(#533,#534,#535,#536),.UNSPECIFIED.,.F.,.F.,(4,4),(0.01162298,0.012078101),.UNSPECIFIED.);
#538=EDGE_CURVE('',#272,#372,#537,.T.);
#539=ORIENTED_EDGE('',*,*,#538,.F.);
#540=ORIENTED_EDGE('',*,*,#310,.F.);
#541=CARTESIAN_POINT('',(238.35,-0.,5.962132034));
#542=DIRECTION('',(0.,0.,1.));
#543=VECTOR('',#542,0.437867966);
#544=LINE('',#541,#543);
#545=EDGE_CURVE('',#299,#381,#544,.T.);
#546=ORIENTED_EDGE('',*,*,#545,.T.);
#547=ORIENTED_EDGE('',*,*,#386,.T.);
#548=EDGE_LOOP('',(#539,#540,#546,#547));
#549=FACE_BOUND('',#548,.T.);
#550=ADVANCED_FACE('',(#549),#532,.T.);
#551=CARTESIAN_POINT('',(235.85,-0.,2.856066017));
#552=DIRECTION('',(1.,0.,0.));
#553=DIRECTION('',(0.,0.,-1.));
#554=AXIS2_PLACEMENT_3D('',#551,#552,#553);
#555=PLANE('',#554);
#556=CARTESIAN_POINT('',(235.85,-0.758557449,2.25));
#557=DIRECTION('',(0.,0.,1.));
#558=VECTOR('',#557,1.212132034);
#559=LINE('',#556,#558);
#560=EDGE_CURVE('',#213,#283,#559,.T.);
#561=ORIENTED_EDGE('',*,*,#560,.F.);
#562=ORIENTED_EDGE('',*,*,#218,.F.);
#563=CARTESIAN_POINT('',(235.85,-0.,2.25));
#564=DIRECTION('',(-0.,0.,1.));
#565=VECTOR('',#564,1.212132034);
#566=LINE('',#563,#565);
#567=EDGE_CURVE('',#204,#291,#566,.T.);
#568=ORIENTED_EDGE('',*,*,#567,.T.);
#569=ORIENTED_EDGE('',*,*,#296,.T.);
#570=EDGE_LOOP('',(#561,#562,#568,#569));
#571=FACE_BOUND('',#570,.T.);
#572=ADVANCED_FACE('',(#571),#555,.T.);
#573=CARTESIAN_POINT('',(256.15,-0.,2.856066017));
#574=DIRECTION('',(1.,0.,0.));
#575=DIRECTION('',(0.,0.,-1.));
#576=AXIS2_PLACEMENT_3D('',#573,#574,#575);
#577=PLANE('',#576);
#578=ORIENTED_EDGE('',*,*,#201,.T.);
#579=CARTESIAN_POINT('',(256.15,-0.758557449,3.462132034));
#580=VERTEX_POINT('',#579);
#581=CARTESIAN_POINT('',(256.15,-0.758557449,2.25));
#582=DIRECTION('',(0.,0.,1.));
#583=VECTOR('',#582,1.212132034);
#584=LINE('',#581,#583);
#585=EDGE_CURVE('',#187,#580,#584,.T.);
#586=ORIENTED_EDGE('',*,*,#585,.T.);
#587=CARTESIAN_POINT('',(256.15,-0.,3.462132034));
#588=VERTEX_POINT('',#587);
#589=CARTESIAN_POINT('',(256.15,-0.,3.462132034));
#590=DIRECTION('',(0.,-1.,0.));
#591=VECTOR('',#590,0.758557449);
#592=LINE('',#589,#591);
#593=EDGE_CURVE('',#588,#580,#592,.T.);
#594=ORIENTED_EDGE('',*,*,#593,.F.);
#595=CARTESIAN_POINT('',(256.15,-0.,2.25));
#596=DIRECTION('',(-0.,0.,1.));
#597=VECTOR('',#596,1.212132034);
#598=LINE('',#595,#597);
#599=EDGE_CURVE('',#196,#588,#598,.T.);
#600=ORIENTED_EDGE('',*,*,#599,.F.);
#601=EDGE_LOOP('',(#578,#586,#594,#600));
#602=FACE_BOUND('',#601,.T.);
#603=ADVANCED_FACE('',(#602),#577,.F.);
#604=CARTESIAN_POINT('',(254.9,-0.,4.712132034));
#605=DIRECTION('',(0.707106781,0.,0.707106781));
#606=DIRECTION('',(0.707106781,0.,-0.707106781));
#607=AXIS2_PLACEMENT_3D('',#604,#605,#606);
#608=PLANE('',#607);
#609=ORIENTED_EDGE('',*,*,#260,.T.);
#610=CARTESIAN_POINT('',(253.65,-6.221021945,5.962132034));
#611=VERTEX_POINT('',#610);
#612=CARTESIAN_POINT('',(243.33252937,-14.,16.279602664));
#613=DIRECTION('',(0.707106781,0.,0.707106781));
#614=DIRECTION('',(-0.707106781,0.,0.707106781));
#615=AXIS2_PLACEMENT_3D('',#612,#613,#614);
#616=ELLIPSE('',#615,18.418057106,12.747431671);
#617=EDGE_CURVE('',#239,#611,#616,.T.);
#618=ORIENTED_EDGE('',*,*,#617,.T.);
#619=CARTESIAN_POINT('',(253.65,-0.,5.962132034));
#620=VERTEX_POINT('',#619);
#621=CARTESIAN_POINT('',(253.65,-0.,5.962132034));
#622=DIRECTION('',(0.,-1.,0.));
#623=VECTOR('',#622,6.221021945);
#624=LINE('',#621,#623);
#625=EDGE_CURVE('',#620,#611,#624,.T.);
#626=ORIENTED_EDGE('',*,*,#625,.F.);
#627=CARTESIAN_POINT('',(256.15,-0.,3.462132034));
#628=DIRECTION('',(-0.707106781,0.,0.707106781));
#629=VECTOR('',#628,3.535533906);
#630=LINE('',#627,#629);
#631=EDGE_CURVE('',#588,#620,#630,.T.);
#632=ORIENTED_EDGE('',*,*,#631,.F.);
#633=ORIENTED_EDGE('',*,*,#593,.T.);
#634=CARTESIAN_POINT('',(256.15,-0.758557449,3.462132034));
#635=DIRECTION('',(-0.707106781,0.,0.707106781));
#636=VECTOR('',#635,0.848528137);
#637=LINE('',#634,#636);
#638=EDGE_CURVE('',#580,#33,#637,.T.);
#639=ORIENTED_EDGE('',*,*,#638,.T.);
#640=ORIENTED_EDGE('',*,*,#71,.T.);
#641=EDGE_LOOP('',(#609,#618,#626,#632,#633,#639,#640));
#642=FACE_BOUND('',#641,.T.);
#643=ADVANCED_FACE('',(#642),#608,.F.);
#644=CARTESIAN_POINT('',(253.65,-0.,6.181066017));
#645=DIRECTION('',(1.,0.,0.));
#646=DIRECTION('',(0.,0.,-1.));
#647=AXIS2_PLACEMENT_3D('',#644,#645,#646);
#648=PLANE('',#647);
#649=ORIENTED_EDGE('',*,*,#625,.T.);
#650=CARTESIAN_POINT('',(253.65,-6.221021945,5.962132034));
#651=CARTESIAN_POINT('',(253.65,-6.179107709,6.108038972));
#652=CARTESIAN_POINT('',(253.65,-6.137345672,6.253995706));
#653=CARTESIAN_POINT('',(253.65,-6.095729003,6.4));
#654=B_SPLINE_CURVE_WITH_KNOTS('',3,(#650,#651,#652,#653),.UNSPECIFIED.,.F.,.F.,(4,4),(0.01162298,0.012078101),.UNSPECIFIED.);
#655=EDGE_CURVE('',#611,#323,#654,.T.);
#656=ORIENTED_EDGE('',*,*,#655,.T.);
#657=ORIENTED_EDGE('',*,*,#401,.F.);
#658=CARTESIAN_POINT('',(253.65,-0.,5.962132034));
#659=DIRECTION('',(0.,0.,1.));
#660=VECTOR('',#659,0.437867966);
#661=LINE('',#658,#660);
#662=EDGE_CURVE('',#620,#389,#661,.T.);
#663=ORIENTED_EDGE('',*,*,#662,.F.);
#664=EDGE_LOOP('',(#649,#656,#657,#663));
#665=FACE_BOUND('',#664,.T.);
#666=ADVANCED_FACE('',(#665),#648,.F.);
#667=CARTESIAN_POINT('',(246.,-0.,12.4));
#668=DIRECTION('',(0.,0.,1.));
#669=DIRECTION('',(1.,0.,-0.));
#670=AXIS2_PLACEMENT_3D('',#667,#668,#669);
#671=CYLINDRICAL_SURFACE('',#670,10.15);
#672=CARTESIAN_POINT('',(246.,-0.,3.462132034));
#673=DIRECTION('',(0.,0.,1.));
#674=DIRECTION('',(1.,0.,-0.));
#675=AXIS2_PLACEMENT_3D('',#672,#673,#674);
#676=CIRCLE('',#675,10.15);
#677=EDGE_CURVE('',#588,#291,#676,.T.);
#678=ORIENTED_EDGE('',*,*,#677,.T.);
#679=ORIENTED_EDGE('',*,*,#567,.F.);
#680=ORIENTED_EDGE('',*,*,#210,.F.);
#681=ORIENTED_EDGE('',*,*,#599,.T.);
#682=EDGE_LOOP('',(#678,#679,#680,#681));
#683=FACE_BOUND('',#682,.T.);
#684=ADVANCED_FACE('',(#683),#671,.F.);
#685=CARTESIAN_POINT('',(246.,-0.,3.462132034));
#686=DIRECTION('',(0.,0.,-1.));
#687=DIRECTION('',(-1.,0.,0.));
#688=AXIS2_PLACEMENT_3D('',#685,#686,#687);
#689=CONICAL_SURFACE('',#688,10.15,45.);
#690=ORIENTED_EDGE('',*,*,#677,.F.);
#691=ORIENTED_EDGE('',*,*,#631,.T.);
#692=CARTESIAN_POINT('',(246.,-0.,5.962132034));
#693=DIRECTION('',(0.,0.,1.));
#694=DIRECTION('',(1.,0.,-0.));
#695=AXIS2_PLACEMENT_3D('',#692,#693,#694);
#696=CIRCLE('',#695,7.65);
#697=EDGE_CURVE('',#620,#299,#696,.T.);
#698=ORIENTED_EDGE('',*,*,#697,.T.);
#699=ORIENTED_EDGE('',*,*,#304,.F.);
#700=EDGE_LOOP('',(#690,#691,#698,#699));
#701=FACE_BOUND('',#700,.T.);
#702=ADVANCED_FACE('',(#701),#689,.F.);
#703=CARTESIAN_POINT('',(246.,-0.,12.4));
#704=DIRECTION('',(0.,0.,1.));
#705=DIRECTION('',(1.,0.,-0.));
#706=AXIS2_PLACEMENT_3D('',#703,#704,#705);
#707=CYLINDRICAL_SURFACE('',#706,7.65);
#708=ORIENTED_EDGE('',*,*,#395,.T.);
#709=ORIENTED_EDGE('',*,*,#545,.F.);
#710=ORIENTED_EDGE('',*,*,#697,.F.);
#711=ORIENTED_EDGE('',*,*,#662,.T.);
#712=EDGE_LOOP('',(#708,#709,#710,#711));
#713=FACE_BOUND('',#712,.T.);
#714=ADVANCED_FACE('',(#713),#707,.F.);
#715=CARTESIAN_POINT('',(246.,-0.758557449,3.462132034));
#716=DIRECTION('',(0.,0.,-1.));
#717=DIRECTION('',(-1.,0.,0.));
#718=AXIS2_PLACEMENT_3D('',#715,#716,#717);
#719=CONICAL_SURFACE('',#718,10.15,45.);
#720=ORIENTED_EDGE('',*,*,#288,.F.);
#721=ORIENTED_EDGE('',*,*,#106,.F.);
#722=CARTESIAN_POINT('',(246.,-0.758557449,3.462132034));
#723=DIRECTION('',(0.,0.,1.));
#724=DIRECTION('',(1.,0.,-0.));
#725=AXIS2_PLACEMENT_3D('',#722,#723,#724);
#726=CIRCLE('',#725,10.15);
#727=EDGE_CURVE('',#283,#92,#726,.T.);
#728=ORIENTED_EDGE('',*,*,#727,.F.);
#729=EDGE_LOOP('',(#720,#721,#728));
#730=FACE_BOUND('',#729,.T.);
#731=ADVANCED_FACE('',(#730),#719,.F.);
#732=CARTESIAN_POINT('',(246.,-0.758557449,12.4));
#733=DIRECTION('',(0.,0.,1.));
#734=DIRECTION('',(1.,0.,-0.));
#735=AXIS2_PLACEMENT_3D('',#732,#733,#734);
#736=CYLINDRICAL_SURFACE('',#735,10.15);
#737=ORIENTED_EDGE('',*,*,#560,.T.);
#738=ORIENTED_EDGE('',*,*,#727,.T.);
#739=ORIENTED_EDGE('',*,*,#97,.F.);
#740=ORIENTED_EDGE('',*,*,#225,.F.);
#741=EDGE_LOOP('',(#737,#738,#739,#740));
#742=FACE_BOUND('',#741,.T.);
#743=ADVANCED_FACE('',(#742),#736,.F.);
#744=CARTESIAN_POINT('',(246.,-0.758557449,12.4));
#745=DIRECTION('',(0.,0.,1.));
#746=DIRECTION('',(1.,0.,-0.));
#747=AXIS2_PLACEMENT_3D('',#744,#745,#746);
#748=CYLINDRICAL_SURFACE('',#747,10.15);
#749=ORIENTED_EDGE('',*,*,#193,.F.);
#750=ORIENTED_EDGE('',*,*,#49,.F.);
#751=CARTESIAN_POINT('',(246.,-0.758557449,3.462132034));
#752=DIRECTION('',(0.,0.,1.));
#753=DIRECTION('',(1.,0.,-0.));
#754=AXIS2_PLACEMENT_3D('',#751,#752,#753);
#755=CIRCLE('',#754,10.15);
#756=EDGE_CURVE('',#35,#580,#755,.T.);
#757=ORIENTED_EDGE('',*,*,#756,.T.);
#758=ORIENTED_EDGE('',*,*,#585,.F.);
#759=EDGE_LOOP('',(#749,#750,#757,#758));
#760=FACE_BOUND('',#759,.T.);
#761=ADVANCED_FACE('',(#760),#748,.F.);
#762=CARTESIAN_POINT('',(246.,-0.758557449,3.462132034));
#763=DIRECTION('',(0.,0.,-1.));
#764=DIRECTION('',(-1.,0.,0.));
#765=AXIS2_PLACEMENT_3D('',#762,#763,#764);
#766=CONICAL_SURFACE('',#765,10.15,45.);
#767=ORIENTED_EDGE('',*,*,#756,.F.);
#768=ORIENTED_EDGE('',*,*,#41,.F.);
#769=ORIENTED_EDGE('',*,*,#638,.F.);
#770=EDGE_LOOP('',(#767,#768,#769));
#771=FACE_BOUND('',#770,.T.);
#772=ADVANCED_FACE('',(#771),#766,.F.);
#773=CARTESIAN_POINT('',(246.,-14.,2.25));
#774=DIRECTION('',(0.,0.,1.));
#775=DIRECTION('',(1.,0.,-0.));
#776=AXIS2_PLACEMENT_3D('',#773,#774,#775);
#777=CONICAL_SURFACE('',#776,10.15,11.575188817);
#778=ORIENTED_EDGE('',*,*,#415,.T.);
#779=ORIENTED_EDGE('',*,*,#329,.T.);
#780=ORIENTED_EDGE('',*,*,#655,.F.);
#781=ORIENTED_EDGE('',*,*,#617,.F.);
#782=ORIENTED_EDGE('',*,*,#254,.F.);
#783=EDGE_LOOP('',(#778,#779,#780,#781,#782));
#784=FACE_BOUND('',#783,.T.);
#785=ADVANCED_FACE('',(#784),#777,.F.);
#786=CARTESIAN_POINT('',(246.,-14.,2.25));
#787=DIRECTION('',(0.,0.,1.));
#788=DIRECTION('',(1.,0.,-0.));
#789=AXIS2_PLACEMENT_3D('',#786,#787,#788);
#790=CONICAL_SURFACE('',#789,10.15,11.575188817);
#791=ORIENTED_EDGE('',*,*,#422,.T.);
#792=ORIENTED_EDGE('',*,*,#148,.T.);
#793=ORIENTED_EDGE('',*,*,#278,.T.);
#794=ORIENTED_EDGE('',*,*,#538,.T.);
#795=ORIENTED_EDGE('',*,*,#378,.T.);
#796=EDGE_LOOP('',(#791,#792,#793,#794,#795));
#797=FACE_BOUND('',#796,.T.);
#798=ADVANCED_FACE('',(#797),#790,.F.);
#799=CLOSED_SHELL('',(#75,#124,#165,#231,#265,#314,#405,#450,#474,#498,#515,#527,#550,#572,#603,#643,#666,#684,#702,#714,#731,#743,#761,#772,#785,#798));
#800=MANIFOLD_SOLID_BREP('Snap In Quick Connect Top Back',#799);
#801=COLOUR_RGB('',0.262745112,0.262745112,0.796078444);
#802=FILL_AREA_STYLE_COLOUR('',#801);
#803=FILL_AREA_STYLE('',(#802));
#804=SURFACE_STYLE_FILL_AREA(#803);
#805=SURFACE_SIDE_STYLE('',(#804));
#806=SURFACE_STYLE_USAGE(.BOTH.,#805);
#807=PRESENTATION_STYLE_ASSIGNMENT((#806));
#26=STYLED_ITEM('',(#807),#800);
#16=SHAPE_REPRESENTATION('Snap In Quick Connect Top Back',(#15),#10);
#17=ADVANCED_BREP_SHAPE_REPRESENTATION('Snap In Quick Connect Top Back',(#800),#10);
#815=SHAPE_REPRESENTATION_RELATIONSHIP('','',#16,#17);
#816=CARTESIAN_POINT('',(0.,0.,0.));
#817=DIRECTION('',(0.,0.,1.));
#818=DIRECTION('',(1.,0.,0.));
#819=AXIS2_PLACEMENT_3D('',#816,#817,#818);
#821=MAPPED_ITEM('',#820,#819);
#820=REPRESENTATION_MAP(#819,#16);
#822=APPLICATION_CONTEXT('Managed model based 3d engineering');
#823=APPLICATION_PROTOCOL_DEFINITION('international standard','ap242_managed_model_based_3d_engineering',2014,#822);
#824=PRODUCT_CONTEXT('',#822,'mechanical');
#825=PRODUCT_DEFINITION_CONTEXT('part definition',#822,'design');
#24=PRODUCT('Snap In Quick Connect Top Back','Snap In Quick Connect Top Back','',(#824));
#826=PRODUCT_RELATED_PRODUCT_CATEGORY('part','',(#24));
#827=PRODUCT_DEFINITION_FORMATION_WITH_SPECIFIED_SOURCE('','',#24,.NOT_KNOWN.);
#25=PRODUCT_DEFINITION('design','',#827,#825);
#23=PRODUCT_DEFINITION_SHAPE('','',#25);
#828=SHAPE_DEFINITION_REPRESENTATION(#23,#16);
#11=DRAUGHTING_MODEL('',(#821),#10);
#829=DESCRIPTIVE_REPRESENTATION_ITEM('KEY','/Users/ddanier/Library/Containers/com.shapr3d.shapr/Data/tmp/5CAACA97-B63B-44F9-ACB0-C2FE3E8C11A7.tmp');
#830=PROPERTY_DEFINITION('KEY','',#25);
#831=REPRESENTATION('',(#829),#10);
#832=PROPERTY_DEFINITION_REPRESENTATION(#830,#831);
#833=GENERAL_PROPERTY('','KEY','');
#834=GENERAL_PROPERTY_ASSOCIATION('','',#833,#830);
#1=MECHANICAL_DESIGN_GEOMETRIC_PRESENTATION_REPRESENTATION('',(#26),#10);
ENDSEC;
END-ISO-10303-21;
